  0
SECTION
  2
HEADER
  9
$ACADVER
  1
AC1009
  9
$INSBASE
 10
0.0
 20
0.0
 30
0.0
  9
$EXTMIN
 10
0.0
 20
0.0
 30
0.0
  9
$EXTMAX
 10
100.0
 20
100.0
 30
0.0
  9
$UNITMODE
 70
0
  9
$AUNITS
 70
0
  9
$ANGBASE
 50
0.0
  9
$ANGDIR
 70
0
  0
ENDSEC
  0
SECTION
  2
TABLES
  0
TABLE
  2
LTYPE
 70
19
  0
LTYPE
  2
CONTINUOUS
 70
0
  3
Solid
 72
65
 73
0
 40
0.0
  0
LTYPE
  2
CENTER
 70
0
  3
Center ____ _ ____ _ ____ _ ____ _ ____ _ ____
 72
65
 73
4
 40
2.0
 49
1.25
 49
-0.25
 49
0.25
 49
-0.25
  0
LTYPE
  2
CENTERX2
 70
0
  3
Center (2x) ________  __  ________  __  ________
 72
65
 73
4
 40
3.5
 49
2.5
 49
-0.25
 49
0.5
 49
-0.25
  0
LTYPE
  2
CENTER2
 70
0
  3
Center (.5x) ____ _ ____ _ ____ _ ____ _ ____
 72
65
 73
4
 40
1.0
 49
0.625
 49
-0.125
 49
0.125
 49
-0.125
  0
LTYPE
  2
DASHED
 70
0
  3
Dashed __ __ __ __ __ __ __ __ __ __ __ __ __ _
 72
65
 73
2
 40
0.6
 49
0.5
 49
-0.1
  0
LTYPE
  2
DASHEDX2
 70
0
  3
Dashed (2x) ____  ____  ____  ____  ____  ____
 72
65
 73
2
 40
1.2
 49
1.0
 49
-0.2
  0
LTYPE
  2
DASHED2
 70
0
  3
Dashed (.5x) _ _ _ _ _ _ _ _ _ _ _ _ _ _
 72
65
 73
2
 40
0.3
 49
0.25
 49
-0.05
  0
LTYPE
  2
PHANTOM
 70
0
  3
Phantom ______  __  __  ______  __  __  ______
 72
65
 73
6
 40
2.5
 49
1.25
 49
-0.25
 49
0.25
 49
-0.25
 49
0.25
 49
-0.25
  0
LTYPE
  2
PHANTOMX2
 70
0
  3
Phantom (2x)____________    ____    ____    ____________
 72
65
 73
6
 40
4.25
 49
2.5
 49
-0.25
 49
0.5
 49
-0.25
 49
0.5
 49
-0.25
  0
LTYPE
  2
PHANTOM2
 70
0
  3
Phantom (.5x) ___ _ _ ___ _ _ ___ _ _ ___ _ _ ___
 72
65
 73
6
 40
1.25
 49
0.625
 49
-0.125
 49
0.125
 49
-0.125
 49
0.125
 49
-0.125
  0
LTYPE
  2
DASHDOT
 70
0
  3
Dash dot __ . __ . __ . __ . __ . __ . __ . __
 72
65
 73
4
 40
1.4
 49
1.0
 49
-0.2
 49
0.0
 49
-0.2
  0
LTYPE
  2
DASHDOTX2
 70
0
  3
Dash dot (2x) ____  .  ____  .  ____  .  ____
 72
65
 73
4
 40
2.4
 49
2.0
 49
-0.2
 49
0.0
 49
-0.2
  0
LTYPE
  2
DASHDOT2
 70
0
  3
Dash dot (.5x) _ . _ . _ . _ . _ . _ . _ . _
 72
65
 73
4
 40
0.7
 49
0.5
 49
-0.1
 49
0.0
 49
-0.1
  0
LTYPE
  2
DOT
 70
0
  3
Dot .  .  .  .  .  .  .  .  .  .  .  .  .  .  .  .
 72
65
 73
2
 40
0.2
 49
0.0
 49
-0.2
  0
LTYPE
  2
DOTX2
 70
0
  3
Dot (2x) .    .    .    .    .    .    .    . 
 72
65
 73
2
 40
0.4
 49
0.0
 49
-0.4
  0
LTYPE
  2
DOT2
 70
0
  3
Dot (.5) . . . . . . . . . . . . . . . . . . . 
 72
65
 73
2
 40
0.1
 49
0.0
 49
-0.1
  0
LTYPE
  2
DIVIDE
 70
0
  3
Divide __ . . __ . . __ . . __ . . __ . . __
 72
65
 73
6
 40
1.6
 49
1.0
 49
-0.2
 49
0.0
 49
-0.2
 49
0.0
 49
-0.2
  0
LTYPE
  2
DIVIDEX2
 70
0
  3
Divide (2x) ____  . .  ____  . .  ____  . .  ____
 72
65
 73
6
 40
2.6
 49
2.0
 49
-0.2
 49
0.0
 49
-0.2
 49
0.0
 49
-0.2
  0
LTYPE
  2
DIVIDE2
 70
0
  3
Divide(.5x) _ . _ . _ . _ . _ . _ . _ . _
 72
65
 73
6
 40
0.8
 49
0.5
 49
-0.1
 49
0.0
 49
-0.1
 49
0.0
 49
-0.1
  0
ENDTAB
  0
TABLE
  2
LAYER
 70
5
  0
LAYER
  2
DIMENSIONS
 70
0
 62
1
  6
CONTINUOUS
  0
LAYER
  2
TABLEBACKGROUND
 70
0
 62
1
  6
CONTINUOUS
  0
LAYER
  2
TABLECONTENT
 70
0
 62
1
  6
CONTINUOUS
  0
LAYER
  2
TABLEGRID
 70
0
 62
1
  6
CONTINUOUS
  0
LAYER
  2
VIEWPORTS
 70
0
 62
7
  6
CONTINUOUS
  0
ENDTAB
  0
TABLE
  2
STYLE
 70
12
  0
STYLE
  2
STANDARD
 70
0
 40
0.0
 41
1.0
 42
1.0
 50
0.0
 71
0
  3
arial.ttf
  4

  0
STYLE
  2
ARIAL
 70
0
 40
0.0
 41
1.0
 42
1.0
 50
0.0
 71
0
  3
arial.ttf
  4

  0
STYLE
  2
ARIAL_BOLD
 70
0
 40
0.0
 41
1.0
 42
1.0
 50
0.0
 71
0
  3
arialbd.ttf
  4

  0
STYLE
  2
ARIAL_ITALIC
 70
0
 40
0.0
 41
1.0
 42
1.0
 50
0.0
 71
0
  3
ariali.ttf
  4

  0
STYLE
  2
ARIAL_BOLD_ITALIC
 70
0
 40
0.0
 41
1.0
 42
1.0
 50
0.0
 71
0
  3
arialbi.ttf
  4

  0
STYLE
  2
ARIAL_BLACK
 70
0
 40
0.0
 41
1.0
 42
1.0
 50
0.0
 71
0
  3
ariblk.ttf
  4

  0
STYLE
  2
ISOCPEUR
 70
0
 40
0.0
 41
1.0
 42
1.0
 50
0.0
 71
0
  3
isocpeur.ttf
  4

  0
STYLE
  2
ISOCPEUR_ITALIC
 70
0
 40
0.0
 41
1.0
 42
1.0
 50
0.0
 71
0
  3
isocpeui.ttf
  4

  0
STYLE
  2
TIMES
 70
0
 40
0.0
 41
1.0
 42
1.0
 50
0.0
 71
0
  3
times.ttf
  4

  0
STYLE
  2
TIMES_BOLD
 70
0
 40
0.0
 41
1.0
 42
1.0
 50
0.0
 71
0
  3
timesbd.ttf
  4

  0
STYLE
  2
TIMES_ITALIC
 70
0
 40
0.0
 41
1.0
 42
1.0
 50
0.0
 71
0
  3
timesi.ttf
  4

  0
STYLE
  2
TIMES_BOLD_ITALIC
 70
0
 40
0.0
 41
1.0
 42
1.0
 50
0.0
 71
0
  3
timesbi.ttf
  4

  0
ENDTAB
  0
TABLE
  2
VIEW
 70
0
  0
ENDTAB
  0
TABLE
  2
APPID
 70
1
  0
APPID
  2
DXFWRITE
 70
0
  0
ENDTAB
  0
TABLE
  2
VPORT
 70
0
  0
ENDTAB
  0
TABLE
  2
UCS
 70
0
  0
ENDTAB
  0
ENDSEC
  0
SECTION
  2
BLOCKS
  0
BLOCK
  8
0
  2
DIMTICK_ARCH
  3
DIMTICK_ARCH
 70
0
 10
0.0
 20
0.0
 30
0.0
  0
LINE
 62
5
  8
0
 10
0.0
 20
0.5
 30
0.0
 11
0.0
 21
-0.5
 31
0.0
  0
LINE
 62
4
  8
0
 10
-0.2
 20
-0.2
 30
0.0
 11
0.2
 21
0.2
 31
0.0
  0
ENDBLK
  0
BLOCK
  8
0
  2
DIMTICK_DOT
  3
DIMTICK_DOT
 70
0
 10
0.0
 20
0.0
 30
0.0
  0
LINE
 62
5
  8
0
 10
0.0
 20
0.5
 30
0.0
 11
0.0
 21
-0.5
 31
0.0
  0
CIRCLE
 62
4
  8
0
 10
0.0
 20
0.0
 30
0.0
 40
0.1
  0
ENDBLK
  0
BLOCK
  8
0
  2
DIMTICK_ARROW
  3
DIMTICK_ARROW
 70
0
 10
0.0
 20
0.0
 30
0.0
  0
LINE
 62
5
  8
0
 10
0.0
 20
0.5
 30
0.0
 11
0.0
 21
-0.5
 31
0.0
  0
SOLID
 62
7
  8
0
 10
0.0
 20
0.0
 30
0.0
 11
0.3
 21
0.05
 31
0.0
 13
0.3
 23
-0.05
 33
0.0
 12
0.3
 22
-0.05
 32
0.0
  0
ENDBLK
  0
BLOCK
  8
0
  2
DIMTICK_RADIUS
  3
DIMTICK_RADIUS
 70
0
 10
0.0
 20
0.0
 30
0.0
  0
SOLID
 62
7
  8
0
 10
0.0
 20
0.0
 30
0.0
 11
0.3
 21
0.05
 31
0.0
 13
0.25
 23
0.0
 33
0.0
 12
0.3
 22
-0.05
 32
0.0
  0
ENDBLK
  0
ENDSEC
  0
SECTION
  2
ENTITIES
  0
VIEWPORT
  8
VIEWPORTS
 67
1
 10
0.0
 20
0.0
 30
0.0
 40
1.0
 41
1.0
 68
1
 69
1
1001
ACAD
1000
MVIEW
1002
{
1070
16
1010
0.0
1020
0.0
1030
0.0
1010
0.0
1020
0.0
1030
0.0
1040
0.0
1040
1.0
1040
0.0
1040
0.0
1040
50.0
1040
0.0
1040
0.0
1070
0
1070
100
1070
1
1070
3
1070
0
1070
0
1070
0
1070
0
1040
0.0
1040
0.0
1040
0.0
1040
0.1
1040
0.1
1040
0.1
1040
0.1
1070
0
1002
{
1002
}
1002
}
  0
LINE
 62
3
  8
0
 10
2.765338437853031
 20
18.830637933951593
 30
0.0
 11
8.098491139426734
 21
18.830637933951593
 31
0.0
  0
LINE
 62
3
  8
0
 10
2.765338437853031
 20
2.2386073068334063
 30
0.0
 11
8.098491139426734
 21
2.2386073068334063
 31
0.0
  0
LINE
 62
7
  8
DIMENSIONS
 10
2.765338437853031
 20
1.705292036676036
 30
0.0
 11
8.098491139426734
 21
1.705292036676036
 31
0.0
  0
LINE
 62
5
  8
DIMENSIONS
 10
2.765338437853031
 20
1.705292036676036
 30
0.0
 11
2.765338437853031
 21
1.991938833849143
 31
0.0
  0
LINE
 62
5
  8
DIMENSIONS
 10
8.098491139426734
 20
1.705292036676036
 30
0.0
 11
8.098491139426734
 21
1.991938833849143
 31
0.0
  0
TEXT
 62
7
  8
DIMENSIONS
 10
5.431914788639883
 20
2.205292036676036
 30
0.0
 40
0.6000000000000001
  1
5
 50
-0.0
  7
ISOCPEUR
 72
1
 73
2
 11
5.431914788639883
 21
2.205292036676036
 31
0.0
  0
INSERT
  8
DIMENSIONS
  2
DIMTICK_ARROW
 10
2.765338437853031
 20
1.705292036676036
 30
0.0
 41
1.0666305403147405
 42
1.0666305403147405
 50
0.0
  0
INSERT
  8
DIMENSIONS
  2
DIMTICK_ARROW
 10
8.098491139426734
 20
1.705292036676036
 30
0.0
 41
1.0666305403147405
 42
1.0666305403147405
 50
180.0
  0
LINE
 62
7
  8
DIMENSIONS
 10
2.765338437853031
 20
1.705292036676036
 30
0.0
 11
8.098491139426734
 21
1.705292036676036
 31
0.0
  0
LINE
 62
5
  8
DIMENSIONS
 10
2.765338437853031
 20
1.705292036676036
 30
0.0
 11
2.765338437853031
 21
1.991938833849143
 31
0.0
  0
LINE
 62
5
  8
DIMENSIONS
 10
8.098491139426734
 20
1.705292036676036
 30
0.0
 11
8.098491139426734
 21
1.991938833849143
 31
0.0
  0
TEXT
 62
7
  8
DIMENSIONS
 10
5.431914788639883
 20
2.205292036676036
 30
0.0
 40
0.6000000000000001
  1
5
 50
-0.0
  7
ISOCPEUR
 72
1
 73
2
 11
5.431914788639883
 21
2.205292036676036
 31
0.0
  0
INSERT
  8
DIMENSIONS
  2
DIMTICK_ARROW
 10
2.765338437853031
 20
1.705292036676036
 30
0.0
 41
1.0666305403147405
 42
1.0666305403147405
 50
0.0
  0
INSERT
  8
DIMENSIONS
  2
DIMTICK_ARROW
 10
8.098491139426734
 20
1.705292036676036
 30
0.0
 41
1.0666305403147405
 42
1.0666305403147405
 50
180.0
  0
LINE
 62
7
  8
DIMENSIONS
 10
2.765338437853031
 20
1.705292036676036
 30
0.0
 11
8.098491139426734
 21
1.705292036676036
 31
0.0
  0
LINE
 62
5
  8
DIMENSIONS
 10
2.765338437853031
 20
1.705292036676036
 30
0.0
 11
2.765338437853031
 21
1.991938833849143
 31
0.0
  0
LINE
 62
5
  8
DIMENSIONS
 10
8.098491139426734
 20
1.705292036676036
 30
0.0
 11
8.098491139426734
 21
1.991938833849143
 31
0.0
  0
TEXT
 62
7
  8
DIMENSIONS
 10
5.431914788639883
 20
2.205292036676036
 30
0.0
 40
0.6000000000000001
  1
5
 50
-0.0
  7
ISOCPEUR
 72
1
 73
2
 11
5.431914788639883
 21
2.205292036676036
 31
0.0
  0
INSERT
  8
DIMENSIONS
  2
DIMTICK_ARROW
 10
2.765338437853031
 20
1.705292036676036
 30
0.0
 41
1.0666305403147405
 42
1.0666305403147405
 50
0.0
  0
INSERT
  8
DIMENSIONS
  2
DIMTICK_ARROW
 10
8.098491139426734
 20
1.705292036676036
 30
0.0
 41
1.0666305403147405
 42
1.0666305403147405
 50
180.0
  0
LINE
 62
7
  8
DIMENSIONS
 10
2.765338437853031
 20
1.705292036676036
 30
0.0
 11
8.098491139426734
 21
1.705292036676036
 31
0.0
  0
LINE
 62
5
  8
DIMENSIONS
 10
2.765338437853031
 20
1.705292036676036
 30
0.0
 11
2.765338437853031
 21
1.991938833849143
 31
0.0
  0
LINE
 62
5
  8
DIMENSIONS
 10
8.098491139426734
 20
1.705292036676036
 30
0.0
 11
8.098491139426734
 21
1.991938833849143
 31
0.0
  0
TEXT
 62
7
  8
DIMENSIONS
 10
5.431914788639883
 20
2.205292036676036
 30
0.0
 40
0.6000000000000001
  1
5
 50
-0.0
  7
ISOCPEUR
 72
1
 73
2
 11
5.431914788639883
 21
2.205292036676036
 31
0.0
  0
INSERT
  8
DIMENSIONS
  2
DIMTICK_ARROW
 10
2.765338437853031
 20
1.705292036676036
 30
0.0
 41
1.0666305403147405
 42
1.0666305403147405
 50
0.0
  0
INSERT
  8
DIMENSIONS
  2
DIMTICK_ARROW
 10
8.098491139426734
 20
1.705292036676036
 30
0.0
 41
1.0666305403147405
 42
1.0666305403147405
 50
180.0
  0
LINE
 62
7
  8
DIMENSIONS
 10
2.765338437853031
 20
1.705292036676036
 30
0.0
 11
8.098491139426734
 21
1.705292036676036
 31
0.0
  0
LINE
 62
5
  8
DIMENSIONS
 10
2.765338437853031
 20
1.705292036676036
 30
0.0
 11
2.765338437853031
 21
1.991938833849143
 31
0.0
  0
LINE
 62
5
  8
DIMENSIONS
 10
8.098491139426734
 20
1.705292036676036
 30
0.0
 11
8.098491139426734
 21
1.991938833849143
 31
0.0
  0
TEXT
 62
7
  8
DIMENSIONS
 10
5.431914788639883
 20
2.205292036676036
 30
0.0
 40
0.6000000000000001
  1
5
 50
-0.0
  7
ISOCPEUR
 72
1
 73
2
 11
5.431914788639883
 21
2.205292036676036
 31
0.0
  0
INSERT
  8
DIMENSIONS
  2
DIMTICK_ARROW
 10
2.765338437853031
 20
1.705292036676036
 30
0.0
 41
1.0666305403147405
 42
1.0666305403147405
 50
0.0
  0
INSERT
  8
DIMENSIONS
  2
DIMTICK_ARROW
 10
8.098491139426734
 20
1.705292036676036
 30
0.0
 41
1.0666305403147405
 42
1.0666305403147405
 50
180.0
  0
LINE
 62
7
  8
DIMENSIONS
 10
2.765338437853031
 20
1.705292036676036
 30
0.0
 11
8.098491139426734
 21
1.705292036676036
 31
0.0
  0
LINE
 62
5
  8
DIMENSIONS
 10
2.765338437853031
 20
1.705292036676036
 30
0.0
 11
2.765338437853031
 21
1.991938833849143
 31
0.0
  0
LINE
 62
5
  8
DIMENSIONS
 10
8.098491139426734
 20
1.705292036676036
 30
0.0
 11
8.098491139426734
 21
1.991938833849143
 31
0.0
  0
TEXT
 62
7
  8
DIMENSIONS
 10
5.431914788639883
 20
2.205292036676036
 30
0.0
 40
0.6000000000000001
  1
5
 50
-0.0
  7
ISOCPEUR
 72
1
 73
2
 11
5.431914788639883
 21
2.205292036676036
 31
0.0
  0
INSERT
  8
DIMENSIONS
  2
DIMTICK_ARROW
 10
2.765338437853031
 20
1.705292036676036
 30
0.0
 41
1.0666305403147405
 42
1.0666305403147405
 50
0.0
  0
INSERT
  8
DIMENSIONS
  2
DIMTICK_ARROW
 10
8.098491139426734
 20
1.705292036676036
 30
0.0
 41
1.0666305403147405
 42
1.0666305403147405
 50
180.0
  0
LINE
 62
7
  8
DIMENSIONS
 10
2.765338437853031
 20
1.705292036676036
 30
0.0
 11
8.098491139426734
 21
1.705292036676036
 31
0.0
  0
LINE
 62
5
  8
DIMENSIONS
 10
2.765338437853031
 20
1.705292036676036
 30
0.0
 11
2.765338437853031
 21
1.991938833849143
 31
0.0
  0
LINE
 62
5
  8
DIMENSIONS
 10
8.098491139426734
 20
1.705292036676036
 30
0.0
 11
8.098491139426734
 21
1.991938833849143
 31
0.0
  0
TEXT
 62
7
  8
DIMENSIONS
 10
5.431914788639883
 20
2.205292036676036
 30
0.0
 40
0.6000000000000001
  1
5
 50
-0.0
  7
ISOCPEUR
 72
1
 73
2
 11
5.431914788639883
 21
2.205292036676036
 31
0.0
  0
INSERT
  8
DIMENSIONS
  2
DIMTICK_ARROW
 10
2.765338437853031
 20
1.705292036676036
 30
0.0
 41
1.0666305403147405
 42
1.0666305403147405
 50
0.0
  0
INSERT
  8
DIMENSIONS
  2
DIMTICK_ARROW
 10
8.098491139426734
 20
1.705292036676036
 30
0.0
 41
1.0666305403147405
 42
1.0666305403147405
 50
180.0
  0
LINE
 62
7
  8
DIMENSIONS
 10
2.765338437853031
 20
1.705292036676036
 30
0.0
 11
8.098491139426734
 21
1.705292036676036
 31
0.0
  0
LINE
 62
5
  8
DIMENSIONS
 10
2.765338437853031
 20
1.705292036676036
 30
0.0
 11
2.765338437853031
 21
1.991938833849143
 31
0.0
  0
LINE
 62
5
  8
DIMENSIONS
 10
8.098491139426734
 20
1.705292036676036
 30
0.0
 11
8.098491139426734
 21
1.991938833849143
 31
0.0
  0
TEXT
 62
7
  8
DIMENSIONS
 10
5.431914788639883
 20
2.205292036676036
 30
0.0
 40
0.6000000000000001
  1
5
 50
-0.0
  7
ISOCPEUR
 72
1
 73
2
 11
5.431914788639883
 21
2.205292036676036
 31
0.0
  0
INSERT
  8
DIMENSIONS
  2
DIMTICK_ARROW
 10
2.765338437853031
 20
1.705292036676036
 30
0.0
 41
1.0666305403147405
 42
1.0666305403147405
 50
0.0
  0
INSERT
  8
DIMENSIONS
  2
DIMTICK_ARROW
 10
8.098491139426734
 20
1.705292036676036
 30
0.0
 41
1.0666305403147405
 42
1.0666305403147405
 50
180.0
  0
LINE
 62
7
  8
DIMENSIONS
 10
2.765338437853031
 20
1.705292036676036
 30
0.0
 11
8.098491139426734
 21
1.705292036676036
 31
0.0
  0
LINE
 62
5
  8
DIMENSIONS
 10
2.765338437853031
 20
1.705292036676036
 30
0.0
 11
2.765338437853031
 21
1.991938833849143
 31
0.0
  0
LINE
 62
5
  8
DIMENSIONS
 10
8.098491139426734
 20
1.705292036676036
 30
0.0
 11
8.098491139426734
 21
1.991938833849143
 31
0.0
  0
TEXT
 62
7
  8
DIMENSIONS
 10
5.431914788639883
 20
2.205292036676036
 30
0.0
 40
0.6000000000000001
  1
5
 50
-0.0
  7
ISOCPEUR
 72
1
 73
2
 11
5.431914788639883
 21
2.205292036676036
 31
0.0
  0
INSERT
  8
DIMENSIONS
  2
DIMTICK_ARROW
 10
2.765338437853031
 20
1.705292036676036
 30
0.0
 41
1.0666305403147405
 42
1.0666305403147405
 50
0.0
  0
INSERT
  8
DIMENSIONS
  2
DIMTICK_ARROW
 10
8.098491139426734
 20
1.705292036676036
 30
0.0
 41
1.0666305403147405
 42
1.0666305403147405
 50
180.0
  0
LINE
 62
7
  8
DIMENSIONS
 10
2.765338437853031
 20
1.705292036676036
 30
0.0
 11
8.098491139426734
 21
1.705292036676036
 31
0.0
  0
LINE
 62
5
  8
DIMENSIONS
 10
2.765338437853031
 20
1.705292036676036
 30
0.0
 11
2.765338437853031
 21
1.991938833849143
 31
0.0
  0
LINE
 62
5
  8
DIMENSIONS
 10
8.098491139426734
 20
1.705292036676036
 30
0.0
 11
8.098491139426734
 21
1.991938833849143
 31
0.0
  0
TEXT
 62
7
  8
DIMENSIONS
 10
5.431914788639883
 20
2.205292036676036
 30
0.0
 40
0.6000000000000001
  1
5
 50
-0.0
  7
ISOCPEUR
 72
1
 73
2
 11
5.431914788639883
 21
2.205292036676036
 31
0.0
  0
INSERT
  8
DIMENSIONS
  2
DIMTICK_ARROW
 10
2.765338437853031
 20
1.705292036676036
 30
0.0
 41
1.0666305403147405
 42
1.0666305403147405
 50
0.0
  0
INSERT
  8
DIMENSIONS
  2
DIMTICK_ARROW
 10
8.098491139426734
 20
1.705292036676036
 30
0.0
 41
1.0666305403147405
 42
1.0666305403147405
 50
180.0
  0
LINE
 62
7
  8
DIMENSIONS
 10
2.765338437853031
 20
1.705292036676036
 30
0.0
 11
8.098491139426734
 21
1.705292036676036
 31
0.0
  0
LINE
 62
5
  8
DIMENSIONS
 10
2.765338437853031
 20
1.705292036676036
 30
0.0
 11
2.765338437853031
 21
1.991938833849143
 31
0.0
  0
LINE
 62
5
  8
DIMENSIONS
 10
8.098491139426734
 20
1.705292036676036
 30
0.0
 11
8.098491139426734
 21
1.991938833849143
 31
0.0
  0
TEXT
 62
7
  8
DIMENSIONS
 10
5.431914788639883
 20
2.205292036676036
 30
0.0
 40
0.6000000000000001
  1
5
 50
-0.0
  7
ISOCPEUR
 72
1
 73
2
 11
5.431914788639883
 21
2.205292036676036
 31
0.0
  0
INSERT
  8
DIMENSIONS
  2
DIMTICK_ARROW
 10
2.765338437853031
 20
1.705292036676036
 30
0.0
 41
1.0666305403147405
 42
1.0666305403147405
 50
0.0
  0
INSERT
  8
DIMENSIONS
  2
DIMTICK_ARROW
 10
8.098491139426734
 20
1.705292036676036
 30
0.0
 41
1.0666305403147405
 42
1.0666305403147405
 50
180.0
  0
LINE
 62
7
  8
DIMENSIONS
 10
2.765338437853031
 20
1.705292036676036
 30
0.0
 11
8.098491139426734
 21
1.705292036676036
 31
0.0
  0
LINE
 62
5
  8
DIMENSIONS
 10
2.765338437853031
 20
1.705292036676036
 30
0.0
 11
2.765338437853031
 21
1.991938833849143
 31
0.0
  0
LINE
 62
5
  8
DIMENSIONS
 10
8.098491139426734
 20
1.705292036676036
 30
0.0
 11
8.098491139426734
 21
1.991938833849143
 31
0.0
  0
TEXT
 62
7
  8
DIMENSIONS
 10
5.431914788639883
 20
2.205292036676036
 30
0.0
 40
0.6000000000000001
  1
5
 50
-0.0
  7
ISOCPEUR
 72
1
 73
2
 11
5.431914788639883
 21
2.205292036676036
 31
0.0
  0
INSERT
  8
DIMENSIONS
  2
DIMTICK_ARROW
 10
2.765338437853031
 20
1.705292036676036
 30
0.0
 41
1.0666305403147405
 42
1.0666305403147405
 50
0.0
  0
INSERT
  8
DIMENSIONS
  2
DIMTICK_ARROW
 10
8.098491139426734
 20
1.705292036676036
 30
0.0
 41
1.0666305403147405
 42
1.0666305403147405
 50
180.0
  0
LINE
 62
7
  8
DIMENSIONS
 10
2.765338437853031
 20
1.705292036676036
 30
0.0
 11
8.098491139426734
 21
1.705292036676036
 31
0.0
  0
LINE
 62
5
  8
DIMENSIONS
 10
2.765338437853031
 20
1.705292036676036
 30
0.0
 11
2.765338437853031
 21
1.991938833849143
 31
0.0
  0
LINE
 62
5
  8
DIMENSIONS
 10
8.098491139426734
 20
1.705292036676036
 30
0.0
 11
8.098491139426734
 21
1.991938833849143
 31
0.0
  0
TEXT
 62
7
  8
DIMENSIONS
 10
5.431914788639883
 20
2.205292036676036
 30
0.0
 40
0.6000000000000001
  1
5
 50
-0.0
  7
ISOCPEUR
 72
1
 73
2
 11
5.431914788639883
 21
2.205292036676036
 31
0.0
  0
INSERT
  8
DIMENSIONS
  2
DIMTICK_ARROW
 10
2.765338437853031
 20
1.705292036676036
 30
0.0
 41
1.0666305403147405
 42
1.0666305403147405
 50
0.0
  0
INSERT
  8
DIMENSIONS
  2
DIMTICK_ARROW
 10
8.098491139426734
 20
1.705292036676036
 30
0.0
 41
1.0666305403147405
 42
1.0666305403147405
 50
180.0
  0
LINE
 62
7
  8
DIMENSIONS
 10
2.765338437853031
 20
1.705292036676036
 30
0.0
 11
8.098491139426734
 21
1.705292036676036
 31
0.0
  0
LINE
 62
5
  8
DIMENSIONS
 10
2.765338437853031
 20
1.705292036676036
 30
0.0
 11
2.765338437853031
 21
1.991938833849143
 31
0.0
  0
LINE
 62
5
  8
DIMENSIONS
 10
8.098491139426734
 20
1.705292036676036
 30
0.0
 11
8.098491139426734
 21
1.991938833849143
 31
0.0
  0
TEXT
 62
7
  8
DIMENSIONS
 10
5.431914788639883
 20
2.205292036676036
 30
0.0
 40
0.6000000000000001
  1
5
 50
-0.0
  7
ISOCPEUR
 72
1
 73
2
 11
5.431914788639883
 21
2.205292036676036
 31
0.0
  0
INSERT
  8
DIMENSIONS
  2
DIMTICK_ARROW
 10
2.765338437853031
 20
1.705292036676036
 30
0.0
 41
1.0666305403147405
 42
1.0666305403147405
 50
0.0
  0
INSERT
  8
DIMENSIONS
  2
DIMTICK_ARROW
 10
8.098491139426734
 20
1.705292036676036
 30
0.0
 41
1.0666305403147405
 42
1.0666305403147405
 50
180.0
  0
LINE
 62
7
  8
DIMENSIONS
 10
2.765338437853031
 20
1.705292036676036
 30
0.0
 11
8.098491139426734
 21
1.705292036676036
 31
0.0
  0
LINE
 62
5
  8
DIMENSIONS
 10
2.765338437853031
 20
1.705292036676036
 30
0.0
 11
2.765338437853031
 21
1.991938833849143
 31
0.0
  0
LINE
 62
5
  8
DIMENSIONS
 10
8.098491139426734
 20
1.705292036676036
 30
0.0
 11
8.098491139426734
 21
1.991938833849143
 31
0.0
  0
TEXT
 62
7
  8
DIMENSIONS
 10
5.431914788639883
 20
2.205292036676036
 30
0.0
 40
0.6000000000000001
  1
5
 50
-0.0
  7
ISOCPEUR
 72
1
 73
2
 11
5.431914788639883
 21
2.205292036676036
 31
0.0
  0
INSERT
  8
DIMENSIONS
  2
DIMTICK_ARROW
 10
2.765338437853031
 20
1.705292036676036
 30
0.0
 41
1.0666305403147405
 42
1.0666305403147405
 50
0.0
  0
INSERT
  8
DIMENSIONS
  2
DIMTICK_ARROW
 10
8.098491139426734
 20
1.705292036676036
 30
0.0
 41
1.0666305403147405
 42
1.0666305403147405
 50
180.0
  0
LINE
 62
7
  8
DIMENSIONS
 10
2.765338437853031
 20
1.705292036676036
 30
0.0
 11
8.098491139426734
 21
1.705292036676036
 31
0.0
  0
LINE
 62
5
  8
DIMENSIONS
 10
2.765338437853031
 20
1.705292036676036
 30
0.0
 11
2.765338437853031
 21
1.991938833849143
 31
0.0
  0
LINE
 62
5
  8
DIMENSIONS
 10
8.098491139426734
 20
1.705292036676036
 30
0.0
 11
8.098491139426734
 21
1.991938833849143
 31
0.0
  0
TEXT
 62
7
  8
DIMENSIONS
 10
5.431914788639883
 20
2.205292036676036
 30
0.0
 40
0.6000000000000001
  1
5
 50
-0.0
  7
ISOCPEUR
 72
1
 73
2
 11
5.431914788639883
 21
2.205292036676036
 31
0.0
  0
INSERT
  8
DIMENSIONS
  2
DIMTICK_ARROW
 10
2.765338437853031
 20
1.705292036676036
 30
0.0
 41
1.0666305403147405
 42
1.0666305403147405
 50
0.0
  0
INSERT
  8
DIMENSIONS
  2
DIMTICK_ARROW
 10
8.098491139426734
 20
1.705292036676036
 30
0.0
 41
1.0666305403147405
 42
1.0666305403147405
 50
180.0
  0
LINE
 62
7
  8
DIMENSIONS
 10
2.765338437853031
 20
1.705292036676036
 30
0.0
 11
8.098491139426734
 21
1.705292036676036
 31
0.0
  0
LINE
 62
5
  8
DIMENSIONS
 10
2.765338437853031
 20
1.705292036676036
 30
0.0
 11
2.765338437853031
 21
1.991938833849143
 31
0.0
  0
LINE
 62
5
  8
DIMENSIONS
 10
8.098491139426734
 20
1.705292036676036
 30
0.0
 11
8.098491139426734
 21
1.991938833849143
 31
0.0
  0
TEXT
 62
7
  8
DIMENSIONS
 10
5.431914788639883
 20
2.205292036676036
 30
0.0
 40
0.6000000000000001
  1
5
 50
-0.0
  7
ISOCPEUR
 72
1
 73
2
 11
5.431914788639883
 21
2.205292036676036
 31
0.0
  0
INSERT
  8
DIMENSIONS
  2
DIMTICK_ARROW
 10
2.765338437853031
 20
1.705292036676036
 30
0.0
 41
1.0666305403147405
 42
1.0666305403147405
 50
0.0
  0
INSERT
  8
DIMENSIONS
  2
DIMTICK_ARROW
 10
8.098491139426734
 20
1.705292036676036
 30
0.0
 41
1.0666305403147405
 42
1.0666305403147405
 50
180.0
  0
LINE
 62
7
  8
DIMENSIONS
 10
2.765338437853031
 20
1.705292036676036
 30
0.0
 11
8.098491139426734
 21
1.705292036676036
 31
0.0
  0
LINE
 62
5
  8
DIMENSIONS
 10
2.765338437853031
 20
1.705292036676036
 30
0.0
 11
2.765338437853031
 21
1.991938833849143
 31
0.0
  0
LINE
 62
5
  8
DIMENSIONS
 10
8.098491139426734
 20
1.705292036676036
 30
0.0
 11
8.098491139426734
 21
1.991938833849143
 31
0.0
  0
TEXT
 62
7
  8
DIMENSIONS
 10
5.431914788639883
 20
2.205292036676036
 30
0.0
 40
0.6000000000000001
  1
5
 50
-0.0
  7
ISOCPEUR
 72
1
 73
2
 11
5.431914788639883
 21
2.205292036676036
 31
0.0
  0
INSERT
  8
DIMENSIONS
  2
DIMTICK_ARROW
 10
2.765338437853031
 20
1.705292036676036
 30
0.0
 41
1.0666305403147405
 42
1.0666305403147405
 50
0.0
  0
INSERT
  8
DIMENSIONS
  2
DIMTICK_ARROW
 10
8.098491139426734
 20
1.705292036676036
 30
0.0
 41
1.0666305403147405
 42
1.0666305403147405
 50
180.0
  0
LINE
 62
7
  8
DIMENSIONS
 10
2.765338437853031
 20
1.705292036676036
 30
0.0
 11
8.098491139426734
 21
1.705292036676036
 31
0.0
  0
LINE
 62
5
  8
DIMENSIONS
 10
2.765338437853031
 20
1.705292036676036
 30
0.0
 11
2.765338437853031
 21
1.991938833849143
 31
0.0
  0
LINE
 62
5
  8
DIMENSIONS
 10
8.098491139426734
 20
1.705292036676036
 30
0.0
 11
8.098491139426734
 21
1.991938833849143
 31
0.0
  0
TEXT
 62
7
  8
DIMENSIONS
 10
5.431914788639883
 20
2.205292036676036
 30
0.0
 40
0.6000000000000001
  1
5
 50
-0.0
  7
ISOCPEUR
 72
1
 73
2
 11
5.431914788639883
 21
2.205292036676036
 31
0.0
  0
INSERT
  8
DIMENSIONS
  2
DIMTICK_ARROW
 10
2.765338437853031
 20
1.705292036676036
 30
0.0
 41
1.0666305403147405
 42
1.0666305403147405
 50
0.0
  0
INSERT
  8
DIMENSIONS
  2
DIMTICK_ARROW
 10
8.098491139426734
 20
1.705292036676036
 30
0.0
 41
1.0666305403147405
 42
1.0666305403147405
 50
180.0
  0
LINE
 62
7
  8
DIMENSIONS
 10
2.765338437853031
 20
1.705292036676036
 30
0.0
 11
8.098491139426734
 21
1.705292036676036
 31
0.0
  0
LINE
 62
5
  8
DIMENSIONS
 10
2.765338437853031
 20
1.705292036676036
 30
0.0
 11
2.765338437853031
 21
1.991938833849143
 31
0.0
  0
LINE
 62
5
  8
DIMENSIONS
 10
8.098491139426734
 20
1.705292036676036
 30
0.0
 11
8.098491139426734
 21
1.991938833849143
 31
0.0
  0
TEXT
 62
7
  8
DIMENSIONS
 10
5.431914788639883
 20
2.205292036676036
 30
0.0
 40
0.6000000000000001
  1
5
 50
-0.0
  7
ISOCPEUR
 72
1
 73
2
 11
5.431914788639883
 21
2.205292036676036
 31
0.0
  0
INSERT
  8
DIMENSIONS
  2
DIMTICK_ARROW
 10
2.765338437853031
 20
1.705292036676036
 30
0.0
 41
1.0666305403147405
 42
1.0666305403147405
 50
0.0
  0
INSERT
  8
DIMENSIONS
  2
DIMTICK_ARROW
 10
8.098491139426734
 20
1.705292036676036
 30
0.0
 41
1.0666305403147405
 42
1.0666305403147405
 50
180.0
  0
LINE
 62
7
  8
DIMENSIONS
 10
2.765338437853031
 20
1.705292036676036
 30
0.0
 11
8.098491139426734
 21
1.705292036676036
 31
0.0
  0
LINE
 62
5
  8
DIMENSIONS
 10
2.765338437853031
 20
1.705292036676036
 30
0.0
 11
2.765338437853031
 21
1.991938833849143
 31
0.0
  0
LINE
 62
5
  8
DIMENSIONS
 10
8.098491139426734
 20
1.705292036676036
 30
0.0
 11
8.098491139426734
 21
1.991938833849143
 31
0.0
  0
TEXT
 62
7
  8
DIMENSIONS
 10
5.431914788639883
 20
2.205292036676036
 30
0.0
 40
0.6000000000000001
  1
5
 50
-0.0
  7
ISOCPEUR
 72
1
 73
2
 11
5.431914788639883
 21
2.205292036676036
 31
0.0
  0
INSERT
  8
DIMENSIONS
  2
DIMTICK_ARROW
 10
2.765338437853031
 20
1.705292036676036
 30
0.0
 41
1.0666305403147405
 42
1.0666305403147405
 50
0.0
  0
INSERT
  8
DIMENSIONS
  2
DIMTICK_ARROW
 10
8.098491139426734
 20
1.705292036676036
 30
0.0
 41
1.0666305403147405
 42
1.0666305403147405
 50
180.0
  0
LINE
 62
7
  8
DIMENSIONS
 10
2.765338437853031
 20
1.705292036676036
 30
0.0
 11
8.098491139426734
 21
1.705292036676036
 31
0.0
  0
LINE
 62
5
  8
DIMENSIONS
 10
2.765338437853031
 20
1.705292036676036
 30
0.0
 11
2.765338437853031
 21
1.991938833849143
 31
0.0
  0
LINE
 62
5
  8
DIMENSIONS
 10
8.098491139426734
 20
1.705292036676036
 30
0.0
 11
8.098491139426734
 21
1.991938833849143
 31
0.0
  0
TEXT
 62
7
  8
DIMENSIONS
 10
5.431914788639883
 20
2.205292036676036
 30
0.0
 40
0.6000000000000001
  1
5
 50
-0.0
  7
ISOCPEUR
 72
1
 73
2
 11
5.431914788639883
 21
2.205292036676036
 31
0.0
  0
INSERT
  8
DIMENSIONS
  2
DIMTICK_ARROW
 10
2.765338437853031
 20
1.705292036676036
 30
0.0
 41
1.0666305403147405
 42
1.0666305403147405
 50
0.0
  0
INSERT
  8
DIMENSIONS
  2
DIMTICK_ARROW
 10
8.098491139426734
 20
1.705292036676036
 30
0.0
 41
1.0666305403147405
 42
1.0666305403147405
 50
180.0
  0
LINE
 62
3
  8
0
 10
24.756363157922372
 20
0.0
 30
0.0
 11
32.06475760081967
 21
0.0
 31
0.0
  0
LINE
 62
7
  8
DIMENSIONS
 10
24.756363157922372
 20
-0.7308394442897297
 30
0.0
 11
32.06475760081967
 21
-0.7308394442897297
 31
0.0
  0
LINE
 62
5
  8
DIMENSIONS
 10
24.756363157922372
 20
-0.7308394442897297
 30
0.0
 11
24.756363157922372
 21
-0.226916055571027
 31
0.0
  0
LINE
 62
5
  8
DIMENSIONS
 10
32.06475760081967
 20
-0.7308394442897297
 30
0.0
 11
32.06475760081967
 21
-0.226916055571027
 31
0.0
  0
TEXT
 62
7
  8
DIMENSIONS
 10
28.41056037937102
 20
-0.22782848754258256
 30
0.0
 40
0.6060219134942942
  1
7
 50
-0.0
  7
ISOCPEUR
 72
1
 73
2
 11
28.41056037937102
 21
-0.22782848754258256
 31
0.0
  0
INSERT
  8
DIMENSIONS
  2
DIMTICK_ARROW
 10
24.756363157922372
 20
-0.7308394442897297
 30
0.0
 41
1.4616788885794594
 42
1.4616788885794594
 50
0.0
  0
INSERT
  8
DIMENSIONS
  2
DIMTICK_ARROW
 10
32.06475760081967
 20
-0.7308394442897297
 30
0.0
 41
1.4616788885794594
 42
1.4616788885794594
 50
180.0
  0
LINE
 62
7
  8
DIMENSIONS
 10
24.756363157922372
 20
-0.7308394442897297
 30
0.0
 11
32.06475760081967
 21
-0.7308394442897297
 31
0.0
  0
LINE
 62
5
  8
DIMENSIONS
 10
24.756363157922372
 20
-0.7308394442897297
 30
0.0
 11
24.756363157922372
 21
-0.226916055571027
 31
0.0
  0
LINE
 62
5
  8
DIMENSIONS
 10
32.06475760081967
 20
-0.7308394442897297
 30
0.0
 11
32.06475760081967
 21
-0.226916055571027
 31
0.0
  0
TEXT
 62
7
  8
DIMENSIONS
 10
28.41056037937102
 20
-0.22782848754258256
 30
0.0
 40
0.6060219134942942
  1
7
 50
-0.0
  7
ISOCPEUR
 72
1
 73
2
 11
28.41056037937102
 21
-0.22782848754258256
 31
0.0
  0
INSERT
  8
DIMENSIONS
  2
DIMTICK_ARROW
 10
24.756363157922372
 20
-0.7308394442897297
 30
0.0
 41
1.4616788885794594
 42
1.4616788885794594
 50
0.0
  0
INSERT
  8
DIMENSIONS
  2
DIMTICK_ARROW
 10
32.06475760081967
 20
-0.7308394442897297
 30
0.0
 41
1.4616788885794594
 42
1.4616788885794594
 50
180.0
  0
LINE
 62
7
  8
DIMENSIONS
 10
24.756363157922372
 20
-0.7308394442897297
 30
0.0
 11
32.06475760081967
 21
-0.7308394442897297
 31
0.0
  0
LINE
 62
5
  8
DIMENSIONS
 10
24.756363157922372
 20
-0.7308394442897297
 30
0.0
 11
24.756363157922372
 21
-0.226916055571027
 31
0.0
  0
LINE
 62
5
  8
DIMENSIONS
 10
32.06475760081967
 20
-0.7308394442897297
 30
0.0
 11
32.06475760081967
 21
-0.226916055571027
 31
0.0
  0
TEXT
 62
7
  8
DIMENSIONS
 10
28.41056037937102
 20
-0.22782848754258256
 30
0.0
 40
0.6060219134942942
  1
7
 50
-0.0
  7
ISOCPEUR
 72
1
 73
2
 11
28.41056037937102
 21
-0.22782848754258256
 31
0.0
  0
INSERT
  8
DIMENSIONS
  2
DIMTICK_ARROW
 10
24.756363157922372
 20
-0.7308394442897297
 30
0.0
 41
1.4616788885794594
 42
1.4616788885794594
 50
0.0
  0
INSERT
  8
DIMENSIONS
  2
DIMTICK_ARROW
 10
32.06475760081967
 20
-0.7308394442897297
 30
0.0
 41
1.4616788885794594
 42
1.4616788885794594
 50
180.0
  0
LINE
 62
7
  8
DIMENSIONS
 10
24.756363157922372
 20
-0.7308394442897297
 30
0.0
 11
32.06475760081967
 21
-0.7308394442897297
 31
0.0
  0
LINE
 62
5
  8
DIMENSIONS
 10
24.756363157922372
 20
-0.7308394442897297
 30
0.0
 11
24.756363157922372
 21
-0.226916055571027
 31
0.0
  0
LINE
 62
5
  8
DIMENSIONS
 10
32.06475760081967
 20
-0.7308394442897297
 30
0.0
 11
32.06475760081967
 21
-0.226916055571027
 31
0.0
  0
TEXT
 62
7
  8
DIMENSIONS
 10
28.41056037937102
 20
-0.22782848754258256
 30
0.0
 40
0.6060219134942942
  1
7
 50
-0.0
  7
ISOCPEUR
 72
1
 73
2
 11
28.41056037937102
 21
-0.22782848754258256
 31
0.0
  0
INSERT
  8
DIMENSIONS
  2
DIMTICK_ARROW
 10
24.756363157922372
 20
-0.7308394442897297
 30
0.0
 41
1.4616788885794594
 42
1.4616788885794594
 50
0.0
  0
INSERT
  8
DIMENSIONS
  2
DIMTICK_ARROW
 10
32.06475760081967
 20
-0.7308394442897297
 30
0.0
 41
1.4616788885794594
 42
1.4616788885794594
 50
180.0
  0
LINE
 62
7
  8
DIMENSIONS
 10
24.756363157922372
 20
-0.7308394442897297
 30
0.0
 11
32.06475760081967
 21
-0.7308394442897297
 31
0.0
  0
LINE
 62
5
  8
DIMENSIONS
 10
24.756363157922372
 20
-0.7308394442897297
 30
0.0
 11
24.756363157922372
 21
-0.226916055571027
 31
0.0
  0
LINE
 62
5
  8
DIMENSIONS
 10
32.06475760081967
 20
-0.7308394442897297
 30
0.0
 11
32.06475760081967
 21
-0.226916055571027
 31
0.0
  0
TEXT
 62
7
  8
DIMENSIONS
 10
28.41056037937102
 20
-0.22782848754258256
 30
0.0
 40
0.6060219134942942
  1
7
 50
-0.0
  7
ISOCPEUR
 72
1
 73
2
 11
28.41056037937102
 21
-0.22782848754258256
 31
0.0
  0
INSERT
  8
DIMENSIONS
  2
DIMTICK_ARROW
 10
24.756363157922372
 20
-0.7308394442897297
 30
0.0
 41
1.4616788885794594
 42
1.4616788885794594
 50
0.0
  0
INSERT
  8
DIMENSIONS
  2
DIMTICK_ARROW
 10
32.06475760081967
 20
-0.7308394442897297
 30
0.0
 41
1.4616788885794594
 42
1.4616788885794594
 50
180.0
  0
LINE
 62
7
  8
DIMENSIONS
 10
24.756363157922372
 20
-0.7308394442897297
 30
0.0
 11
32.06475760081967
 21
-0.7308394442897297
 31
0.0
  0
LINE
 62
5
  8
DIMENSIONS
 10
24.756363157922372
 20
-0.7308394442897297
 30
0.0
 11
24.756363157922372
 21
-0.226916055571027
 31
0.0
  0
LINE
 62
5
  8
DIMENSIONS
 10
32.06475760081967
 20
-0.7308394442897297
 30
0.0
 11
32.06475760081967
 21
-0.226916055571027
 31
0.0
  0
TEXT
 62
7
  8
DIMENSIONS
 10
28.41056037937102
 20
-0.22782848754258256
 30
0.0
 40
0.6060219134942942
  1
7
 50
-0.0
  7
ISOCPEUR
 72
1
 73
2
 11
28.41056037937102
 21
-0.22782848754258256
 31
0.0
  0
INSERT
  8
DIMENSIONS
  2
DIMTICK_ARROW
 10
24.756363157922372
 20
-0.7308394442897297
 30
0.0
 41
1.4616788885794594
 42
1.4616788885794594
 50
0.0
  0
INSERT
  8
DIMENSIONS
  2
DIMTICK_ARROW
 10
32.06475760081967
 20
-0.7308394442897297
 30
0.0
 41
1.4616788885794594
 42
1.4616788885794594
 50
180.0
  0
LINE
 62
7
  8
DIMENSIONS
 10
24.756363157922372
 20
-0.7308394442897297
 30
0.0
 11
32.06475760081967
 21
-0.7308394442897297
 31
0.0
  0
LINE
 62
5
  8
DIMENSIONS
 10
24.756363157922372
 20
-0.7308394442897297
 30
0.0
 11
24.756363157922372
 21
-0.226916055571027
 31
0.0
  0
LINE
 62
5
  8
DIMENSIONS
 10
32.06475760081967
 20
-0.7308394442897297
 30
0.0
 11
32.06475760081967
 21
-0.226916055571027
 31
0.0
  0
TEXT
 62
7
  8
DIMENSIONS
 10
28.41056037937102
 20
-0.22782848754258256
 30
0.0
 40
0.6060219134942942
  1
7
 50
-0.0
  7
ISOCPEUR
 72
1
 73
2
 11
28.41056037937102
 21
-0.22782848754258256
 31
0.0
  0
INSERT
  8
DIMENSIONS
  2
DIMTICK_ARROW
 10
24.756363157922372
 20
-0.7308394442897297
 30
0.0
 41
1.4616788885794594
 42
1.4616788885794594
 50
0.0
  0
INSERT
  8
DIMENSIONS
  2
DIMTICK_ARROW
 10
32.06475760081967
 20
-0.7308394442897297
 30
0.0
 41
1.4616788885794594
 42
1.4616788885794594
 50
180.0
  0
LINE
 62
7
  8
DIMENSIONS
 10
24.756363157922372
 20
-0.7308394442897297
 30
0.0
 11
32.06475760081967
 21
-0.7308394442897297
 31
0.0
  0
LINE
 62
5
  8
DIMENSIONS
 10
24.756363157922372
 20
-0.7308394442897297
 30
0.0
 11
24.756363157922372
 21
-0.226916055571027
 31
0.0
  0
LINE
 62
5
  8
DIMENSIONS
 10
32.06475760081967
 20
-0.7308394442897297
 30
0.0
 11
32.06475760081967
 21
-0.226916055571027
 31
0.0
  0
TEXT
 62
7
  8
DIMENSIONS
 10
28.41056037937102
 20
-0.22782848754258256
 30
0.0
 40
0.6060219134942942
  1
7
 50
-0.0
  7
ISOCPEUR
 72
1
 73
2
 11
28.41056037937102
 21
-0.22782848754258256
 31
0.0
  0
INSERT
  8
DIMENSIONS
  2
DIMTICK_ARROW
 10
24.756363157922372
 20
-0.7308394442897297
 30
0.0
 41
1.4616788885794594
 42
1.4616788885794594
 50
0.0
  0
INSERT
  8
DIMENSIONS
  2
DIMTICK_ARROW
 10
32.06475760081967
 20
-0.7308394442897297
 30
0.0
 41
1.4616788885794594
 42
1.4616788885794594
 50
180.0
  0
LINE
 62
7
  8
DIMENSIONS
 10
24.756363157922372
 20
-0.7308394442897297
 30
0.0
 11
32.06475760081967
 21
-0.7308394442897297
 31
0.0
  0
LINE
 62
5
  8
DIMENSIONS
 10
24.756363157922372
 20
-0.7308394442897297
 30
0.0
 11
24.756363157922372
 21
-0.226916055571027
 31
0.0
  0
LINE
 62
5
  8
DIMENSIONS
 10
32.06475760081967
 20
-0.7308394442897297
 30
0.0
 11
32.06475760081967
 21
-0.226916055571027
 31
0.0
  0
TEXT
 62
7
  8
DIMENSIONS
 10
28.41056037937102
 20
-0.22782848754258256
 30
0.0
 40
0.6060219134942942
  1
7
 50
-0.0
  7
ISOCPEUR
 72
1
 73
2
 11
28.41056037937102
 21
-0.22782848754258256
 31
0.0
  0
INSERT
  8
DIMENSIONS
  2
DIMTICK_ARROW
 10
24.756363157922372
 20
-0.7308394442897297
 30
0.0
 41
1.4616788885794594
 42
1.4616788885794594
 50
0.0
  0
INSERT
  8
DIMENSIONS
  2
DIMTICK_ARROW
 10
32.06475760081967
 20
-0.7308394442897297
 30
0.0
 41
1.4616788885794594
 42
1.4616788885794594
 50
180.0
  0
LINE
 62
7
  8
DIMENSIONS
 10
24.756363157922372
 20
-0.7308394442897297
 30
0.0
 11
32.06475760081967
 21
-0.7308394442897297
 31
0.0
  0
LINE
 62
5
  8
DIMENSIONS
 10
24.756363157922372
 20
-0.7308394442897297
 30
0.0
 11
24.756363157922372
 21
-0.226916055571027
 31
0.0
  0
LINE
 62
5
  8
DIMENSIONS
 10
32.06475760081967
 20
-0.7308394442897297
 30
0.0
 11
32.06475760081967
 21
-0.226916055571027
 31
0.0
  0
TEXT
 62
7
  8
DIMENSIONS
 10
28.41056037937102
 20
-0.22782848754258256
 30
0.0
 40
0.6060219134942942
  1
7
 50
-0.0
  7
ISOCPEUR
 72
1
 73
2
 11
28.41056037937102
 21
-0.22782848754258256
 31
0.0
  0
INSERT
  8
DIMENSIONS
  2
DIMTICK_ARROW
 10
24.756363157922372
 20
-0.7308394442897297
 30
0.0
 41
1.4616788885794594
 42
1.4616788885794594
 50
0.0
  0
INSERT
  8
DIMENSIONS
  2
DIMTICK_ARROW
 10
32.06475760081967
 20
-0.7308394442897297
 30
0.0
 41
1.4616788885794594
 42
1.4616788885794594
 50
180.0
  0
LINE
 62
7
  8
DIMENSIONS
 10
24.756363157922372
 20
-0.7308394442897297
 30
0.0
 11
32.06475760081967
 21
-0.7308394442897297
 31
0.0
  0
LINE
 62
5
  8
DIMENSIONS
 10
24.756363157922372
 20
-0.7308394442897297
 30
0.0
 11
24.756363157922372
 21
-0.226916055571027
 31
0.0
  0
LINE
 62
5
  8
DIMENSIONS
 10
32.06475760081967
 20
-0.7308394442897297
 30
0.0
 11
32.06475760081967
 21
-0.226916055571027
 31
0.0
  0
TEXT
 62
7
  8
DIMENSIONS
 10
28.41056037937102
 20
-0.22782848754258256
 30
0.0
 40
0.6060219134942942
  1
7
 50
-0.0
  7
ISOCPEUR
 72
1
 73
2
 11
28.41056037937102
 21
-0.22782848754258256
 31
0.0
  0
INSERT
  8
DIMENSIONS
  2
DIMTICK_ARROW
 10
24.756363157922372
 20
-0.7308394442897297
 30
0.0
 41
1.4616788885794594
 42
1.4616788885794594
 50
0.0
  0
INSERT
  8
DIMENSIONS
  2
DIMTICK_ARROW
 10
32.06475760081967
 20
-0.7308394442897297
 30
0.0
 41
1.4616788885794594
 42
1.4616788885794594
 50
180.0
  0
LINE
 62
7
  8
DIMENSIONS
 10
24.756363157922372
 20
-0.7308394442897297
 30
0.0
 11
32.06475760081967
 21
-0.7308394442897297
 31
0.0
  0
LINE
 62
5
  8
DIMENSIONS
 10
24.756363157922372
 20
-0.7308394442897297
 30
0.0
 11
24.756363157922372
 21
-0.226916055571027
 31
0.0
  0
LINE
 62
5
  8
DIMENSIONS
 10
32.06475760081967
 20
-0.7308394442897297
 30
0.0
 11
32.06475760081967
 21
-0.226916055571027
 31
0.0
  0
TEXT
 62
7
  8
DIMENSIONS
 10
28.41056037937102
 20
-0.22782848754258256
 30
0.0
 40
0.6060219134942942
  1
7
 50
-0.0
  7
ISOCPEUR
 72
1
 73
2
 11
28.41056037937102
 21
-0.22782848754258256
 31
0.0
  0
INSERT
  8
DIMENSIONS
  2
DIMTICK_ARROW
 10
24.756363157922372
 20
-0.7308394442897297
 30
0.0
 41
1.4616788885794594
 42
1.4616788885794594
 50
0.0
  0
INSERT
  8
DIMENSIONS
  2
DIMTICK_ARROW
 10
32.06475760081967
 20
-0.7308394442897297
 30
0.0
 41
1.4616788885794594
 42
1.4616788885794594
 50
180.0
  0
LINE
 62
7
  8
DIMENSIONS
 10
24.756363157922372
 20
-0.7308394442897297
 30
0.0
 11
32.06475760081967
 21
-0.7308394442897297
 31
0.0
  0
LINE
 62
5
  8
DIMENSIONS
 10
24.756363157922372
 20
-0.7308394442897297
 30
0.0
 11
24.756363157922372
 21
-0.226916055571027
 31
0.0
  0
LINE
 62
5
  8
DIMENSIONS
 10
32.06475760081967
 20
-0.7308394442897297
 30
0.0
 11
32.06475760081967
 21
-0.226916055571027
 31
0.0
  0
TEXT
 62
7
  8
DIMENSIONS
 10
28.41056037937102
 20
-0.22782848754258256
 30
0.0
 40
0.6060219134942942
  1
7
 50
-0.0
  7
ISOCPEUR
 72
1
 73
2
 11
28.41056037937102
 21
-0.22782848754258256
 31
0.0
  0
INSERT
  8
DIMENSIONS
  2
DIMTICK_ARROW
 10
24.756363157922372
 20
-0.7308394442897297
 30
0.0
 41
1.4616788885794594
 42
1.4616788885794594
 50
0.0
  0
INSERT
  8
DIMENSIONS
  2
DIMTICK_ARROW
 10
32.06475760081967
 20
-0.7308394442897297
 30
0.0
 41
1.4616788885794594
 42
1.4616788885794594
 50
180.0
  0
LINE
 62
7
  8
DIMENSIONS
 10
24.756363157922372
 20
-0.7308394442897297
 30
0.0
 11
32.06475760081967
 21
-0.7308394442897297
 31
0.0
  0
LINE
 62
5
  8
DIMENSIONS
 10
24.756363157922372
 20
-0.7308394442897297
 30
0.0
 11
24.756363157922372
 21
-0.226916055571027
 31
0.0
  0
LINE
 62
5
  8
DIMENSIONS
 10
32.06475760081967
 20
-0.7308394442897297
 30
0.0
 11
32.06475760081967
 21
-0.226916055571027
 31
0.0
  0
TEXT
 62
7
  8
DIMENSIONS
 10
28.41056037937102
 20
-0.22782848754258256
 30
0.0
 40
0.6060219134942942
  1
7
 50
-0.0
  7
ISOCPEUR
 72
1
 73
2
 11
28.41056037937102
 21
-0.22782848754258256
 31
0.0
  0
INSERT
  8
DIMENSIONS
  2
DIMTICK_ARROW
 10
24.756363157922372
 20
-0.7308394442897297
 30
0.0
 41
1.4616788885794594
 42
1.4616788885794594
 50
0.0
  0
INSERT
  8
DIMENSIONS
  2
DIMTICK_ARROW
 10
32.06475760081967
 20
-0.7308394442897297
 30
0.0
 41
1.4616788885794594
 42
1.4616788885794594
 50
180.0
  0
LINE
 62
7
  8
DIMENSIONS
 10
24.756363157922372
 20
-0.7308394442897297
 30
0.0
 11
32.06475760081967
 21
-0.7308394442897297
 31
0.0
  0
LINE
 62
5
  8
DIMENSIONS
 10
24.756363157922372
 20
-0.7308394442897297
 30
0.0
 11
24.756363157922372
 21
-0.226916055571027
 31
0.0
  0
LINE
 62
5
  8
DIMENSIONS
 10
32.06475760081967
 20
-0.7308394442897297
 30
0.0
 11
32.06475760081967
 21
-0.226916055571027
 31
0.0
  0
TEXT
 62
7
  8
DIMENSIONS
 10
28.41056037937102
 20
-0.22782848754258256
 30
0.0
 40
0.6060219134942942
  1
7
 50
-0.0
  7
ISOCPEUR
 72
1
 73
2
 11
28.41056037937102
 21
-0.22782848754258256
 31
0.0
  0
INSERT
  8
DIMENSIONS
  2
DIMTICK_ARROW
 10
24.756363157922372
 20
-0.7308394442897297
 30
0.0
 41
1.4616788885794594
 42
1.4616788885794594
 50
0.0
  0
INSERT
  8
DIMENSIONS
  2
DIMTICK_ARROW
 10
32.06475760081967
 20
-0.7308394442897297
 30
0.0
 41
1.4616788885794594
 42
1.4616788885794594
 50
180.0
  0
LINE
 62
7
  8
DIMENSIONS
 10
24.756363157922372
 20
-0.7308394442897297
 30
0.0
 11
32.06475760081967
 21
-0.7308394442897297
 31
0.0
  0
LINE
 62
5
  8
DIMENSIONS
 10
24.756363157922372
 20
-0.7308394442897297
 30
0.0
 11
24.756363157922372
 21
-0.226916055571027
 31
0.0
  0
LINE
 62
5
  8
DIMENSIONS
 10
32.06475760081967
 20
-0.7308394442897297
 30
0.0
 11
32.06475760081967
 21
-0.226916055571027
 31
0.0
  0
TEXT
 62
7
  8
DIMENSIONS
 10
28.41056037937102
 20
-0.22782848754258256
 30
0.0
 40
0.6060219134942942
  1
7
 50
-0.0
  7
ISOCPEUR
 72
1
 73
2
 11
28.41056037937102
 21
-0.22782848754258256
 31
0.0
  0
INSERT
  8
DIMENSIONS
  2
DIMTICK_ARROW
 10
24.756363157922372
 20
-0.7308394442897297
 30
0.0
 41
1.4616788885794594
 42
1.4616788885794594
 50
0.0
  0
INSERT
  8
DIMENSIONS
  2
DIMTICK_ARROW
 10
32.06475760081967
 20
-0.7308394442897297
 30
0.0
 41
1.4616788885794594
 42
1.4616788885794594
 50
180.0
  0
LINE
 62
7
  8
DIMENSIONS
 10
24.756363157922372
 20
-0.7308394442897297
 30
0.0
 11
32.06475760081967
 21
-0.7308394442897297
 31
0.0
  0
LINE
 62
5
  8
DIMENSIONS
 10
24.756363157922372
 20
-0.7308394442897297
 30
0.0
 11
24.756363157922372
 21
-0.226916055571027
 31
0.0
  0
LINE
 62
5
  8
DIMENSIONS
 10
32.06475760081967
 20
-0.7308394442897297
 30
0.0
 11
32.06475760081967
 21
-0.226916055571027
 31
0.0
  0
TEXT
 62
7
  8
DIMENSIONS
 10
28.41056037937102
 20
-0.22782848754258256
 30
0.0
 40
0.6060219134942942
  1
7
 50
-0.0
  7
ISOCPEUR
 72
1
 73
2
 11
28.41056037937102
 21
-0.22782848754258256
 31
0.0
  0
INSERT
  8
DIMENSIONS
  2
DIMTICK_ARROW
 10
24.756363157922372
 20
-0.7308394442897297
 30
0.0
 41
1.4616788885794594
 42
1.4616788885794594
 50
0.0
  0
INSERT
  8
DIMENSIONS
  2
DIMTICK_ARROW
 10
32.06475760081967
 20
-0.7308394442897297
 30
0.0
 41
1.4616788885794594
 42
1.4616788885794594
 50
180.0
  0
LINE
 62
7
  8
DIMENSIONS
 10
24.756363157922372
 20
-0.7308394442897297
 30
0.0
 11
32.06475760081967
 21
-0.7308394442897297
 31
0.0
  0
LINE
 62
5
  8
DIMENSIONS
 10
24.756363157922372
 20
-0.7308394442897297
 30
0.0
 11
24.756363157922372
 21
-0.226916055571027
 31
0.0
  0
LINE
 62
5
  8
DIMENSIONS
 10
32.06475760081967
 20
-0.7308394442897297
 30
0.0
 11
32.06475760081967
 21
-0.226916055571027
 31
0.0
  0
TEXT
 62
7
  8
DIMENSIONS
 10
28.41056037937102
 20
-0.22782848754258256
 30
0.0
 40
0.6060219134942942
  1
7
 50
-0.0
  7
ISOCPEUR
 72
1
 73
2
 11
28.41056037937102
 21
-0.22782848754258256
 31
0.0
  0
INSERT
  8
DIMENSIONS
  2
DIMTICK_ARROW
 10
24.756363157922372
 20
-0.7308394442897297
 30
0.0
 41
1.4616788885794594
 42
1.4616788885794594
 50
0.0
  0
INSERT
  8
DIMENSIONS
  2
DIMTICK_ARROW
 10
32.06475760081967
 20
-0.7308394442897297
 30
0.0
 41
1.4616788885794594
 42
1.4616788885794594
 50
180.0
  0
LINE
 62
7
  8
DIMENSIONS
 10
24.756363157922372
 20
-0.7308394442897297
 30
0.0
 11
32.06475760081967
 21
-0.7308394442897297
 31
0.0
  0
LINE
 62
5
  8
DIMENSIONS
 10
24.756363157922372
 20
-0.7308394442897297
 30
0.0
 11
24.756363157922372
 21
-0.226916055571027
 31
0.0
  0
LINE
 62
5
  8
DIMENSIONS
 10
32.06475760081967
 20
-0.7308394442897297
 30
0.0
 11
32.06475760081967
 21
-0.226916055571027
 31
0.0
  0
TEXT
 62
7
  8
DIMENSIONS
 10
28.41056037937102
 20
-0.22782848754258256
 30
0.0
 40
0.6060219134942942
  1
7
 50
-0.0
  7
ISOCPEUR
 72
1
 73
2
 11
28.41056037937102
 21
-0.22782848754258256
 31
0.0
  0
INSERT
  8
DIMENSIONS
  2
DIMTICK_ARROW
 10
24.756363157922372
 20
-0.7308394442897297
 30
0.0
 41
1.4616788885794594
 42
1.4616788885794594
 50
0.0
  0
INSERT
  8
DIMENSIONS
  2
DIMTICK_ARROW
 10
32.06475760081967
 20
-0.7308394442897297
 30
0.0
 41
1.4616788885794594
 42
1.4616788885794594
 50
180.0
  0
LINE
 62
7
  8
DIMENSIONS
 10
24.756363157922372
 20
-0.7308394442897297
 30
0.0
 11
32.06475760081967
 21
-0.7308394442897297
 31
0.0
  0
LINE
 62
5
  8
DIMENSIONS
 10
24.756363157922372
 20
-0.7308394442897297
 30
0.0
 11
24.756363157922372
 21
-0.226916055571027
 31
0.0
  0
LINE
 62
5
  8
DIMENSIONS
 10
32.06475760081967
 20
-0.7308394442897297
 30
0.0
 11
32.06475760081967
 21
-0.226916055571027
 31
0.0
  0
TEXT
 62
7
  8
DIMENSIONS
 10
28.41056037937102
 20
-0.22782848754258256
 30
0.0
 40
0.6060219134942942
  1
7
 50
-0.0
  7
ISOCPEUR
 72
1
 73
2
 11
28.41056037937102
 21
-0.22782848754258256
 31
0.0
  0
INSERT
  8
DIMENSIONS
  2
DIMTICK_ARROW
 10
24.756363157922372
 20
-0.7308394442897297
 30
0.0
 41
1.4616788885794594
 42
1.4616788885794594
 50
0.0
  0
INSERT
  8
DIMENSIONS
  2
DIMTICK_ARROW
 10
32.06475760081967
 20
-0.7308394442897297
 30
0.0
 41
1.4616788885794594
 42
1.4616788885794594
 50
180.0
  0
LINE
 62
7
  8
DIMENSIONS
 10
24.756363157922372
 20
-0.7308394442897297
 30
0.0
 11
32.06475760081967
 21
-0.7308394442897297
 31
0.0
  0
LINE
 62
5
  8
DIMENSIONS
 10
24.756363157922372
 20
-0.7308394442897297
 30
0.0
 11
24.756363157922372
 21
-0.226916055571027
 31
0.0
  0
LINE
 62
5
  8
DIMENSIONS
 10
32.06475760081967
 20
-0.7308394442897297
 30
0.0
 11
32.06475760081967
 21
-0.226916055571027
 31
0.0
  0
TEXT
 62
7
  8
DIMENSIONS
 10
28.41056037937102
 20
-0.22782848754258256
 30
0.0
 40
0.6060219134942942
  1
7
 50
-0.0
  7
ISOCPEUR
 72
1
 73
2
 11
28.41056037937102
 21
-0.22782848754258256
 31
0.0
  0
INSERT
  8
DIMENSIONS
  2
DIMTICK_ARROW
 10
24.756363157922372
 20
-0.7308394442897297
 30
0.0
 41
1.4616788885794594
 42
1.4616788885794594
 50
0.0
  0
INSERT
  8
DIMENSIONS
  2
DIMTICK_ARROW
 10
32.06475760081967
 20
-0.7308394442897297
 30
0.0
 41
1.4616788885794594
 42
1.4616788885794594
 50
180.0
  0
LINE
 62
3
  8
0
 10
0.0
 20
0.0
 30
0.0
 11
11.653926273809201
 21
0.0
 31
0.0
  0
LINE
 62
7
  8
DIMENSIONS
 10
0.0
 20
-1.16539262738092
 30
0.0
 11
11.653926273809201
 21
-1.16539262738092
 31
0.0
  0
LINE
 62
5
  8
DIMENSIONS
 10
0.0
 20
-1.16539262738092
 30
0.0
 11
0.0
 21
-0.18346073726190798
 31
0.0
  0
LINE
 62
5
  8
DIMENSIONS
 10
11.653926273809201
 20
-1.16539262738092
 30
0.0
 11
11.653926273809201
 21
-0.18346073726190798
 31
0.0
  0
TEXT
 62
7
  8
DIMENSIONS
 10
5.826963136904601
 20
-0.5416724531084423
 30
0.0
 40
0.8474403485449555
  1
12
 50
-0.0
  7
ISOCPEUR
 72
1
 73
2
 11
5.826963136904601
 21
-0.5416724531084423
 31
0.0
  0
INSERT
  8
DIMENSIONS
  2
DIMTICK_ARROW
 10
0.0
 20
-1.16539262738092
 30
0.0
 41
2.33078525476184
 42
2.33078525476184
 50
0.0
  0
INSERT
  8
DIMENSIONS
  2
DIMTICK_ARROW
 10
11.653926273809201
 20
-1.16539262738092
 30
0.0
 41
2.33078525476184
 42
2.33078525476184
 50
180.0
  0
LINE
 62
7
  8
DIMENSIONS
 10
0.0
 20
-1.16539262738092
 30
0.0
 11
11.653926273809201
 21
-1.16539262738092
 31
0.0
  0
LINE
 62
5
  8
DIMENSIONS
 10
0.0
 20
-1.16539262738092
 30
0.0
 11
0.0
 21
-0.18346073726190798
 31
0.0
  0
LINE
 62
5
  8
DIMENSIONS
 10
11.653926273809201
 20
-1.16539262738092
 30
0.0
 11
11.653926273809201
 21
-0.18346073726190798
 31
0.0
  0
TEXT
 62
7
  8
DIMENSIONS
 10
5.826963136904601
 20
-0.5416724531084423
 30
0.0
 40
0.8474403485449555
  1
12
 50
-0.0
  7
ISOCPEUR
 72
1
 73
2
 11
5.826963136904601
 21
-0.5416724531084423
 31
0.0
  0
INSERT
  8
DIMENSIONS
  2
DIMTICK_ARROW
 10
0.0
 20
-1.16539262738092
 30
0.0
 41
2.33078525476184
 42
2.33078525476184
 50
0.0
  0
INSERT
  8
DIMENSIONS
  2
DIMTICK_ARROW
 10
11.653926273809201
 20
-1.16539262738092
 30
0.0
 41
2.33078525476184
 42
2.33078525476184
 50
180.0
  0
LINE
 62
7
  8
DIMENSIONS
 10
0.0
 20
-1.16539262738092
 30
0.0
 11
11.653926273809201
 21
-1.16539262738092
 31
0.0
  0
LINE
 62
5
  8
DIMENSIONS
 10
0.0
 20
-1.16539262738092
 30
0.0
 11
0.0
 21
-0.18346073726190798
 31
0.0
  0
LINE
 62
5
  8
DIMENSIONS
 10
11.653926273809201
 20
-1.16539262738092
 30
0.0
 11
11.653926273809201
 21
-0.18346073726190798
 31
0.0
  0
TEXT
 62
7
  8
DIMENSIONS
 10
5.826963136904601
 20
-0.5416724531084423
 30
0.0
 40
0.8474403485449555
  1
12
 50
-0.0
  7
ISOCPEUR
 72
1
 73
2
 11
5.826963136904601
 21
-0.5416724531084423
 31
0.0
  0
INSERT
  8
DIMENSIONS
  2
DIMTICK_ARROW
 10
0.0
 20
-1.16539262738092
 30
0.0
 41
2.33078525476184
 42
2.33078525476184
 50
0.0
  0
INSERT
  8
DIMENSIONS
  2
DIMTICK_ARROW
 10
11.653926273809201
 20
-1.16539262738092
 30
0.0
 41
2.33078525476184
 42
2.33078525476184
 50
180.0
  0
LINE
 62
7
  8
DIMENSIONS
 10
0.0
 20
-1.16539262738092
 30
0.0
 11
11.653926273809201
 21
-1.16539262738092
 31
0.0
  0
LINE
 62
5
  8
DIMENSIONS
 10
0.0
 20
-1.16539262738092
 30
0.0
 11
0.0
 21
-0.18346073726190798
 31
0.0
  0
LINE
 62
5
  8
DIMENSIONS
 10
11.653926273809201
 20
-1.16539262738092
 30
0.0
 11
11.653926273809201
 21
-0.18346073726190798
 31
0.0
  0
TEXT
 62
7
  8
DIMENSIONS
 10
5.826963136904601
 20
-0.5416724531084423
 30
0.0
 40
0.8474403485449555
  1
12
 50
-0.0
  7
ISOCPEUR
 72
1
 73
2
 11
5.826963136904601
 21
-0.5416724531084423
 31
0.0
  0
INSERT
  8
DIMENSIONS
  2
DIMTICK_ARROW
 10
0.0
 20
-1.16539262738092
 30
0.0
 41
2.33078525476184
 42
2.33078525476184
 50
0.0
  0
INSERT
  8
DIMENSIONS
  2
DIMTICK_ARROW
 10
11.653926273809201
 20
-1.16539262738092
 30
0.0
 41
2.33078525476184
 42
2.33078525476184
 50
180.0
  0
LINE
 62
7
  8
DIMENSIONS
 10
0.0
 20
-1.16539262738092
 30
0.0
 11
11.653926273809201
 21
-1.16539262738092
 31
0.0
  0
LINE
 62
5
  8
DIMENSIONS
 10
0.0
 20
-1.16539262738092
 30
0.0
 11
0.0
 21
-0.18346073726190798
 31
0.0
  0
LINE
 62
5
  8
DIMENSIONS
 10
11.653926273809201
 20
-1.16539262738092
 30
0.0
 11
11.653926273809201
 21
-0.18346073726190798
 31
0.0
  0
TEXT
 62
7
  8
DIMENSIONS
 10
5.826963136904601
 20
-0.5416724531084423
 30
0.0
 40
0.8474403485449555
  1
12
 50
-0.0
  7
ISOCPEUR
 72
1
 73
2
 11
5.826963136904601
 21
-0.5416724531084423
 31
0.0
  0
INSERT
  8
DIMENSIONS
  2
DIMTICK_ARROW
 10
0.0
 20
-1.16539262738092
 30
0.0
 41
2.33078525476184
 42
2.33078525476184
 50
0.0
  0
INSERT
  8
DIMENSIONS
  2
DIMTICK_ARROW
 10
11.653926273809201
 20
-1.16539262738092
 30
0.0
 41
2.33078525476184
 42
2.33078525476184
 50
180.0
  0
LINE
 62
7
  8
DIMENSIONS
 10
0.0
 20
-1.16539262738092
 30
0.0
 11
11.653926273809201
 21
-1.16539262738092
 31
0.0
  0
LINE
 62
5
  8
DIMENSIONS
 10
0.0
 20
-1.16539262738092
 30
0.0
 11
0.0
 21
-0.18346073726190798
 31
0.0
  0
LINE
 62
5
  8
DIMENSIONS
 10
11.653926273809201
 20
-1.16539262738092
 30
0.0
 11
11.653926273809201
 21
-0.18346073726190798
 31
0.0
  0
TEXT
 62
7
  8
DIMENSIONS
 10
5.826963136904601
 20
-0.5416724531084423
 30
0.0
 40
0.8474403485449555
  1
12
 50
-0.0
  7
ISOCPEUR
 72
1
 73
2
 11
5.826963136904601
 21
-0.5416724531084423
 31
0.0
  0
INSERT
  8
DIMENSIONS
  2
DIMTICK_ARROW
 10
0.0
 20
-1.16539262738092
 30
0.0
 41
2.33078525476184
 42
2.33078525476184
 50
0.0
  0
INSERT
  8
DIMENSIONS
  2
DIMTICK_ARROW
 10
11.653926273809201
 20
-1.16539262738092
 30
0.0
 41
2.33078525476184
 42
2.33078525476184
 50
180.0
  0
LINE
 62
7
  8
DIMENSIONS
 10
0.0
 20
-1.16539262738092
 30
0.0
 11
11.653926273809201
 21
-1.16539262738092
 31
0.0
  0
LINE
 62
5
  8
DIMENSIONS
 10
0.0
 20
-1.16539262738092
 30
0.0
 11
0.0
 21
-0.18346073726190798
 31
0.0
  0
LINE
 62
5
  8
DIMENSIONS
 10
11.653926273809201
 20
-1.16539262738092
 30
0.0
 11
11.653926273809201
 21
-0.18346073726190798
 31
0.0
  0
TEXT
 62
7
  8
DIMENSIONS
 10
5.826963136904601
 20
-0.5416724531084423
 30
0.0
 40
0.8474403485449555
  1
12
 50
-0.0
  7
ISOCPEUR
 72
1
 73
2
 11
5.826963136904601
 21
-0.5416724531084423
 31
0.0
  0
INSERT
  8
DIMENSIONS
  2
DIMTICK_ARROW
 10
0.0
 20
-1.16539262738092
 30
0.0
 41
2.33078525476184
 42
2.33078525476184
 50
0.0
  0
INSERT
  8
DIMENSIONS
  2
DIMTICK_ARROW
 10
11.653926273809201
 20
-1.16539262738092
 30
0.0
 41
2.33078525476184
 42
2.33078525476184
 50
180.0
  0
LINE
 62
7
  8
DIMENSIONS
 10
0.0
 20
-1.16539262738092
 30
0.0
 11
11.653926273809201
 21
-1.16539262738092
 31
0.0
  0
LINE
 62
5
  8
DIMENSIONS
 10
0.0
 20
-1.16539262738092
 30
0.0
 11
0.0
 21
-0.18346073726190798
 31
0.0
  0
LINE
 62
5
  8
DIMENSIONS
 10
11.653926273809201
 20
-1.16539262738092
 30
0.0
 11
11.653926273809201
 21
-0.18346073726190798
 31
0.0
  0
TEXT
 62
7
  8
DIMENSIONS
 10
5.826963136904601
 20
-0.5416724531084423
 30
0.0
 40
0.8474403485449555
  1
12
 50
-0.0
  7
ISOCPEUR
 72
1
 73
2
 11
5.826963136904601
 21
-0.5416724531084423
 31
0.0
  0
INSERT
  8
DIMENSIONS
  2
DIMTICK_ARROW
 10
0.0
 20
-1.16539262738092
 30
0.0
 41
2.33078525476184
 42
2.33078525476184
 50
0.0
  0
INSERT
  8
DIMENSIONS
  2
DIMTICK_ARROW
 10
11.653926273809201
 20
-1.16539262738092
 30
0.0
 41
2.33078525476184
 42
2.33078525476184
 50
180.0
  0
LINE
 62
7
  8
DIMENSIONS
 10
0.0
 20
-1.16539262738092
 30
0.0
 11
11.653926273809201
 21
-1.16539262738092
 31
0.0
  0
LINE
 62
5
  8
DIMENSIONS
 10
0.0
 20
-1.16539262738092
 30
0.0
 11
0.0
 21
-0.18346073726190798
 31
0.0
  0
LINE
 62
5
  8
DIMENSIONS
 10
11.653926273809201
 20
-1.16539262738092
 30
0.0
 11
11.653926273809201
 21
-0.18346073726190798
 31
0.0
  0
TEXT
 62
7
  8
DIMENSIONS
 10
5.826963136904601
 20
-0.5416724531084423
 30
0.0
 40
0.8474403485449555
  1
12
 50
-0.0
  7
ISOCPEUR
 72
1
 73
2
 11
5.826963136904601
 21
-0.5416724531084423
 31
0.0
  0
INSERT
  8
DIMENSIONS
  2
DIMTICK_ARROW
 10
0.0
 20
-1.16539262738092
 30
0.0
 41
2.33078525476184
 42
2.33078525476184
 50
0.0
  0
INSERT
  8
DIMENSIONS
  2
DIMTICK_ARROW
 10
11.653926273809201
 20
-1.16539262738092
 30
0.0
 41
2.33078525476184
 42
2.33078525476184
 50
180.0
  0
LINE
 62
7
  8
DIMENSIONS
 10
0.0
 20
-1.16539262738092
 30
0.0
 11
11.653926273809201
 21
-1.16539262738092
 31
0.0
  0
LINE
 62
5
  8
DIMENSIONS
 10
0.0
 20
-1.16539262738092
 30
0.0
 11
0.0
 21
-0.18346073726190798
 31
0.0
  0
LINE
 62
5
  8
DIMENSIONS
 10
11.653926273809201
 20
-1.16539262738092
 30
0.0
 11
11.653926273809201
 21
-0.18346073726190798
 31
0.0
  0
TEXT
 62
7
  8
DIMENSIONS
 10
5.826963136904601
 20
-0.5416724531084423
 30
0.0
 40
0.8474403485449555
  1
12
 50
-0.0
  7
ISOCPEUR
 72
1
 73
2
 11
5.826963136904601
 21
-0.5416724531084423
 31
0.0
  0
INSERT
  8
DIMENSIONS
  2
DIMTICK_ARROW
 10
0.0
 20
-1.16539262738092
 30
0.0
 41
2.33078525476184
 42
2.33078525476184
 50
0.0
  0
INSERT
  8
DIMENSIONS
  2
DIMTICK_ARROW
 10
11.653926273809201
 20
-1.16539262738092
 30
0.0
 41
2.33078525476184
 42
2.33078525476184
 50
180.0
  0
LINE
 62
7
  8
DIMENSIONS
 10
0.0
 20
-1.16539262738092
 30
0.0
 11
11.653926273809201
 21
-1.16539262738092
 31
0.0
  0
LINE
 62
5
  8
DIMENSIONS
 10
0.0
 20
-1.16539262738092
 30
0.0
 11
0.0
 21
-0.18346073726190798
 31
0.0
  0
LINE
 62
5
  8
DIMENSIONS
 10
11.653926273809201
 20
-1.16539262738092
 30
0.0
 11
11.653926273809201
 21
-0.18346073726190798
 31
0.0
  0
TEXT
 62
7
  8
DIMENSIONS
 10
5.826963136904601
 20
-0.5416724531084423
 30
0.0
 40
0.8474403485449555
  1
12
 50
-0.0
  7
ISOCPEUR
 72
1
 73
2
 11
5.826963136904601
 21
-0.5416724531084423
 31
0.0
  0
INSERT
  8
DIMENSIONS
  2
DIMTICK_ARROW
 10
0.0
 20
-1.16539262738092
 30
0.0
 41
2.33078525476184
 42
2.33078525476184
 50
0.0
  0
INSERT
  8
DIMENSIONS
  2
DIMTICK_ARROW
 10
11.653926273809201
 20
-1.16539262738092
 30
0.0
 41
2.33078525476184
 42
2.33078525476184
 50
180.0
  0
LINE
 62
7
  8
DIMENSIONS
 10
0.0
 20
-1.16539262738092
 30
0.0
 11
11.653926273809201
 21
-1.16539262738092
 31
0.0
  0
LINE
 62
5
  8
DIMENSIONS
 10
0.0
 20
-1.16539262738092
 30
0.0
 11
0.0
 21
-0.18346073726190798
 31
0.0
  0
LINE
 62
5
  8
DIMENSIONS
 10
11.653926273809201
 20
-1.16539262738092
 30
0.0
 11
11.653926273809201
 21
-0.18346073726190798
 31
0.0
  0
TEXT
 62
7
  8
DIMENSIONS
 10
5.826963136904601
 20
-0.5416724531084423
 30
0.0
 40
0.8474403485449555
  1
12
 50
-0.0
  7
ISOCPEUR
 72
1
 73
2
 11
5.826963136904601
 21
-0.5416724531084423
 31
0.0
  0
INSERT
  8
DIMENSIONS
  2
DIMTICK_ARROW
 10
0.0
 20
-1.16539262738092
 30
0.0
 41
2.33078525476184
 42
2.33078525476184
 50
0.0
  0
INSERT
  8
DIMENSIONS
  2
DIMTICK_ARROW
 10
11.653926273809201
 20
-1.16539262738092
 30
0.0
 41
2.33078525476184
 42
2.33078525476184
 50
180.0
  0
LINE
 62
7
  8
DIMENSIONS
 10
0.0
 20
-1.16539262738092
 30
0.0
 11
11.653926273809201
 21
-1.16539262738092
 31
0.0
  0
LINE
 62
5
  8
DIMENSIONS
 10
0.0
 20
-1.16539262738092
 30
0.0
 11
0.0
 21
-0.18346073726190798
 31
0.0
  0
LINE
 62
5
  8
DIMENSIONS
 10
11.653926273809201
 20
-1.16539262738092
 30
0.0
 11
11.653926273809201
 21
-0.18346073726190798
 31
0.0
  0
TEXT
 62
7
  8
DIMENSIONS
 10
5.826963136904601
 20
-0.5416724531084423
 30
0.0
 40
0.8474403485449555
  1
12
 50
-0.0
  7
ISOCPEUR
 72
1
 73
2
 11
5.826963136904601
 21
-0.5416724531084423
 31
0.0
  0
INSERT
  8
DIMENSIONS
  2
DIMTICK_ARROW
 10
0.0
 20
-1.16539262738092
 30
0.0
 41
2.33078525476184
 42
2.33078525476184
 50
0.0
  0
INSERT
  8
DIMENSIONS
  2
DIMTICK_ARROW
 10
11.653926273809201
 20
-1.16539262738092
 30
0.0
 41
2.33078525476184
 42
2.33078525476184
 50
180.0
  0
LINE
 62
7
  8
DIMENSIONS
 10
0.0
 20
-1.16539262738092
 30
0.0
 11
11.653926273809201
 21
-1.16539262738092
 31
0.0
  0
LINE
 62
5
  8
DIMENSIONS
 10
0.0
 20
-1.16539262738092
 30
0.0
 11
0.0
 21
-0.18346073726190798
 31
0.0
  0
LINE
 62
5
  8
DIMENSIONS
 10
11.653926273809201
 20
-1.16539262738092
 30
0.0
 11
11.653926273809201
 21
-0.18346073726190798
 31
0.0
  0
TEXT
 62
7
  8
DIMENSIONS
 10
5.826963136904601
 20
-0.5416724531084423
 30
0.0
 40
0.8474403485449555
  1
12
 50
-0.0
  7
ISOCPEUR
 72
1
 73
2
 11
5.826963136904601
 21
-0.5416724531084423
 31
0.0
  0
INSERT
  8
DIMENSIONS
  2
DIMTICK_ARROW
 10
0.0
 20
-1.16539262738092
 30
0.0
 41
2.33078525476184
 42
2.33078525476184
 50
0.0
  0
INSERT
  8
DIMENSIONS
  2
DIMTICK_ARROW
 10
11.653926273809201
 20
-1.16539262738092
 30
0.0
 41
2.33078525476184
 42
2.33078525476184
 50
180.0
  0
LINE
 62
7
  8
DIMENSIONS
 10
0.0
 20
-1.16539262738092
 30
0.0
 11
11.653926273809201
 21
-1.16539262738092
 31
0.0
  0
LINE
 62
5
  8
DIMENSIONS
 10
0.0
 20
-1.16539262738092
 30
0.0
 11
0.0
 21
-0.18346073726190798
 31
0.0
  0
LINE
 62
5
  8
DIMENSIONS
 10
11.653926273809201
 20
-1.16539262738092
 30
0.0
 11
11.653926273809201
 21
-0.18346073726190798
 31
0.0
  0
TEXT
 62
7
  8
DIMENSIONS
 10
5.826963136904601
 20
-0.5416724531084423
 30
0.0
 40
0.8474403485449555
  1
12
 50
-0.0
  7
ISOCPEUR
 72
1
 73
2
 11
5.826963136904601
 21
-0.5416724531084423
 31
0.0
  0
INSERT
  8
DIMENSIONS
  2
DIMTICK_ARROW
 10
0.0
 20
-1.16539262738092
 30
0.0
 41
2.33078525476184
 42
2.33078525476184
 50
0.0
  0
INSERT
  8
DIMENSIONS
  2
DIMTICK_ARROW
 10
11.653926273809201
 20
-1.16539262738092
 30
0.0
 41
2.33078525476184
 42
2.33078525476184
 50
180.0
  0
LINE
 62
7
  8
DIMENSIONS
 10
0.0
 20
-1.16539262738092
 30
0.0
 11
11.653926273809201
 21
-1.16539262738092
 31
0.0
  0
LINE
 62
5
  8
DIMENSIONS
 10
0.0
 20
-1.16539262738092
 30
0.0
 11
0.0
 21
-0.18346073726190798
 31
0.0
  0
LINE
 62
5
  8
DIMENSIONS
 10
11.653926273809201
 20
-1.16539262738092
 30
0.0
 11
11.653926273809201
 21
-0.18346073726190798
 31
0.0
  0
TEXT
 62
7
  8
DIMENSIONS
 10
5.826963136904601
 20
-0.5416724531084423
 30
0.0
 40
0.8474403485449555
  1
12
 50
-0.0
  7
ISOCPEUR
 72
1
 73
2
 11
5.826963136904601
 21
-0.5416724531084423
 31
0.0
  0
INSERT
  8
DIMENSIONS
  2
DIMTICK_ARROW
 10
0.0
 20
-1.16539262738092
 30
0.0
 41
2.33078525476184
 42
2.33078525476184
 50
0.0
  0
INSERT
  8
DIMENSIONS
  2
DIMTICK_ARROW
 10
11.653926273809201
 20
-1.16539262738092
 30
0.0
 41
2.33078525476184
 42
2.33078525476184
 50
180.0
  0
LINE
 62
7
  8
DIMENSIONS
 10
0.0
 20
-1.16539262738092
 30
0.0
 11
11.653926273809201
 21
-1.16539262738092
 31
0.0
  0
LINE
 62
5
  8
DIMENSIONS
 10
0.0
 20
-1.16539262738092
 30
0.0
 11
0.0
 21
-0.18346073726190798
 31
0.0
  0
LINE
 62
5
  8
DIMENSIONS
 10
11.653926273809201
 20
-1.16539262738092
 30
0.0
 11
11.653926273809201
 21
-0.18346073726190798
 31
0.0
  0
TEXT
 62
7
  8
DIMENSIONS
 10
5.826963136904601
 20
-0.5416724531084423
 30
0.0
 40
0.8474403485449555
  1
12
 50
-0.0
  7
ISOCPEUR
 72
1
 73
2
 11
5.826963136904601
 21
-0.5416724531084423
 31
0.0
  0
INSERT
  8
DIMENSIONS
  2
DIMTICK_ARROW
 10
0.0
 20
-1.16539262738092
 30
0.0
 41
2.33078525476184
 42
2.33078525476184
 50
0.0
  0
INSERT
  8
DIMENSIONS
  2
DIMTICK_ARROW
 10
11.653926273809201
 20
-1.16539262738092
 30
0.0
 41
2.33078525476184
 42
2.33078525476184
 50
180.0
  0
LINE
 62
7
  8
DIMENSIONS
 10
0.0
 20
-1.16539262738092
 30
0.0
 11
11.653926273809201
 21
-1.16539262738092
 31
0.0
  0
LINE
 62
5
  8
DIMENSIONS
 10
0.0
 20
-1.16539262738092
 30
0.0
 11
0.0
 21
-0.18346073726190798
 31
0.0
  0
LINE
 62
5
  8
DIMENSIONS
 10
11.653926273809201
 20
-1.16539262738092
 30
0.0
 11
11.653926273809201
 21
-0.18346073726190798
 31
0.0
  0
TEXT
 62
7
  8
DIMENSIONS
 10
5.826963136904601
 20
-0.5416724531084423
 30
0.0
 40
0.8474403485449555
  1
12
 50
-0.0
  7
ISOCPEUR
 72
1
 73
2
 11
5.826963136904601
 21
-0.5416724531084423
 31
0.0
  0
INSERT
  8
DIMENSIONS
  2
DIMTICK_ARROW
 10
0.0
 20
-1.16539262738092
 30
0.0
 41
2.33078525476184
 42
2.33078525476184
 50
0.0
  0
INSERT
  8
DIMENSIONS
  2
DIMTICK_ARROW
 10
11.653926273809201
 20
-1.16539262738092
 30
0.0
 41
2.33078525476184
 42
2.33078525476184
 50
180.0
  0
LINE
 62
7
  8
DIMENSIONS
 10
0.0
 20
-1.16539262738092
 30
0.0
 11
11.653926273809201
 21
-1.16539262738092
 31
0.0
  0
LINE
 62
5
  8
DIMENSIONS
 10
0.0
 20
-1.16539262738092
 30
0.0
 11
0.0
 21
-0.18346073726190798
 31
0.0
  0
LINE
 62
5
  8
DIMENSIONS
 10
11.653926273809201
 20
-1.16539262738092
 30
0.0
 11
11.653926273809201
 21
-0.18346073726190798
 31
0.0
  0
TEXT
 62
7
  8
DIMENSIONS
 10
5.826963136904601
 20
-0.5416724531084423
 30
0.0
 40
0.8474403485449555
  1
12
 50
-0.0
  7
ISOCPEUR
 72
1
 73
2
 11
5.826963136904601
 21
-0.5416724531084423
 31
0.0
  0
INSERT
  8
DIMENSIONS
  2
DIMTICK_ARROW
 10
0.0
 20
-1.16539262738092
 30
0.0
 41
2.33078525476184
 42
2.33078525476184
 50
0.0
  0
INSERT
  8
DIMENSIONS
  2
DIMTICK_ARROW
 10
11.653926273809201
 20
-1.16539262738092
 30
0.0
 41
2.33078525476184
 42
2.33078525476184
 50
180.0
  0
LINE
 62
7
  8
DIMENSIONS
 10
0.0
 20
-1.16539262738092
 30
0.0
 11
11.653926273809201
 21
-1.16539262738092
 31
0.0
  0
LINE
 62
5
  8
DIMENSIONS
 10
0.0
 20
-1.16539262738092
 30
0.0
 11
0.0
 21
-0.18346073726190798
 31
0.0
  0
LINE
 62
5
  8
DIMENSIONS
 10
11.653926273809201
 20
-1.16539262738092
 30
0.0
 11
11.653926273809201
 21
-0.18346073726190798
 31
0.0
  0
TEXT
 62
7
  8
DIMENSIONS
 10
5.826963136904601
 20
-0.5416724531084423
 30
0.0
 40
0.8474403485449555
  1
12
 50
-0.0
  7
ISOCPEUR
 72
1
 73
2
 11
5.826963136904601
 21
-0.5416724531084423
 31
0.0
  0
INSERT
  8
DIMENSIONS
  2
DIMTICK_ARROW
 10
0.0
 20
-1.16539262738092
 30
0.0
 41
2.33078525476184
 42
2.33078525476184
 50
0.0
  0
INSERT
  8
DIMENSIONS
  2
DIMTICK_ARROW
 10
11.653926273809201
 20
-1.16539262738092
 30
0.0
 41
2.33078525476184
 42
2.33078525476184
 50
180.0
  0
LINE
 62
3
  8
0
 10
0.0
 20
21.200928023539905
 30
0.0
 11
32.06475760081967
 21
21.200928023539905
 31
0.0
  0
LINE
 62
7
  8
DIMENSIONS
 10
0.0
 20
24.407403783621874
 30
0.0
 11
32.06475760081967
 21
24.407403783621874
 31
0.0
  0
LINE
 62
5
  8
DIMENSIONS
 10
0.0
 20
24.407403783621874
 30
0.0
 11
0.0
 21
21.500928023539906
 31
0.0
  0
LINE
 62
5
  8
DIMENSIONS
 10
32.06475760081967
 20
24.407403783621874
 30
0.0
 11
32.06475760081967
 21
21.500928023539906
 31
0.0
  0
TEXT
 62
7
  8
DIMENSIONS
 10
16.032378800409834
 20
25.598091494755753
 30
0.0
 40
1.9813754222677593
  1
32
 50
-0.0
  7
ISOCPEUR
 72
1
 73
2
 11
16.032378800409834
 21
25.598091494755753
 31
0.0
  0
INSERT
  8
DIMENSIONS
  2
DIMTICK_ARROW
 10
0.0
 20
24.407403783621874
 30
0.0
 41
6.412951520163934
 42
6.412951520163934
 50
0.0
  0
INSERT
  8
DIMENSIONS
  2
DIMTICK_ARROW
 10
32.06475760081967
 20
24.407403783621874
 30
0.0
 41
6.412951520163934
 42
6.412951520163934
 50
180.0
  0
LINE
 62
7
  8
DIMENSIONS
 10
0.0
 20
24.407403783621874
 30
0.0
 11
32.06475760081967
 21
24.407403783621874
 31
0.0
  0
LINE
 62
5
  8
DIMENSIONS
 10
0.0
 20
24.407403783621874
 30
0.0
 11
0.0
 21
21.500928023539906
 31
0.0
  0
LINE
 62
5
  8
DIMENSIONS
 10
32.06475760081967
 20
24.407403783621874
 30
0.0
 11
32.06475760081967
 21
21.500928023539906
 31
0.0
  0
TEXT
 62
7
  8
DIMENSIONS
 10
16.032378800409834
 20
25.598091494755753
 30
0.0
 40
1.9813754222677593
  1
32
 50
-0.0
  7
ISOCPEUR
 72
1
 73
2
 11
16.032378800409834
 21
25.598091494755753
 31
0.0
  0
INSERT
  8
DIMENSIONS
  2
DIMTICK_ARROW
 10
0.0
 20
24.407403783621874
 30
0.0
 41
6.412951520163934
 42
6.412951520163934
 50
0.0
  0
INSERT
  8
DIMENSIONS
  2
DIMTICK_ARROW
 10
32.06475760081967
 20
24.407403783621874
 30
0.0
 41
6.412951520163934
 42
6.412951520163934
 50
180.0
  0
LINE
 62
7
  8
DIMENSIONS
 10
0.0
 20
24.407403783621874
 30
0.0
 11
32.06475760081967
 21
24.407403783621874
 31
0.0
  0
LINE
 62
5
  8
DIMENSIONS
 10
0.0
 20
24.407403783621874
 30
0.0
 11
0.0
 21
21.500928023539906
 31
0.0
  0
LINE
 62
5
  8
DIMENSIONS
 10
32.06475760081967
 20
24.407403783621874
 30
0.0
 11
32.06475760081967
 21
21.500928023539906
 31
0.0
  0
TEXT
 62
7
  8
DIMENSIONS
 10
16.032378800409834
 20
25.598091494755753
 30
0.0
 40
1.9813754222677593
  1
32
 50
-0.0
  7
ISOCPEUR
 72
1
 73
2
 11
16.032378800409834
 21
25.598091494755753
 31
0.0
  0
INSERT
  8
DIMENSIONS
  2
DIMTICK_ARROW
 10
0.0
 20
24.407403783621874
 30
0.0
 41
6.412951520163934
 42
6.412951520163934
 50
0.0
  0
INSERT
  8
DIMENSIONS
  2
DIMTICK_ARROW
 10
32.06475760081967
 20
24.407403783621874
 30
0.0
 41
6.412951520163934
 42
6.412951520163934
 50
180.0
  0
LINE
 62
7
  8
DIMENSIONS
 10
0.0
 20
24.407403783621874
 30
0.0
 11
32.06475760081967
 21
24.407403783621874
 31
0.0
  0
LINE
 62
5
  8
DIMENSIONS
 10
0.0
 20
24.407403783621874
 30
0.0
 11
0.0
 21
21.500928023539906
 31
0.0
  0
LINE
 62
5
  8
DIMENSIONS
 10
32.06475760081967
 20
24.407403783621874
 30
0.0
 11
32.06475760081967
 21
21.500928023539906
 31
0.0
  0
TEXT
 62
7
  8
DIMENSIONS
 10
16.032378800409834
 20
25.598091494755753
 30
0.0
 40
1.9813754222677593
  1
32
 50
-0.0
  7
ISOCPEUR
 72
1
 73
2
 11
16.032378800409834
 21
25.598091494755753
 31
0.0
  0
INSERT
  8
DIMENSIONS
  2
DIMTICK_ARROW
 10
0.0
 20
24.407403783621874
 30
0.0
 41
6.412951520163934
 42
6.412951520163934
 50
0.0
  0
INSERT
  8
DIMENSIONS
  2
DIMTICK_ARROW
 10
32.06475760081967
 20
24.407403783621874
 30
0.0
 41
6.412951520163934
 42
6.412951520163934
 50
180.0
  0
LINE
 62
7
  8
DIMENSIONS
 10
0.0
 20
24.407403783621874
 30
0.0
 11
32.06475760081967
 21
24.407403783621874
 31
0.0
  0
LINE
 62
5
  8
DIMENSIONS
 10
0.0
 20
24.407403783621874
 30
0.0
 11
0.0
 21
21.500928023539906
 31
0.0
  0
LINE
 62
5
  8
DIMENSIONS
 10
32.06475760081967
 20
24.407403783621874
 30
0.0
 11
32.06475760081967
 21
21.500928023539906
 31
0.0
  0
TEXT
 62
7
  8
DIMENSIONS
 10
16.032378800409834
 20
25.598091494755753
 30
0.0
 40
1.9813754222677593
  1
32
 50
-0.0
  7
ISOCPEUR
 72
1
 73
2
 11
16.032378800409834
 21
25.598091494755753
 31
0.0
  0
INSERT
  8
DIMENSIONS
  2
DIMTICK_ARROW
 10
0.0
 20
24.407403783621874
 30
0.0
 41
6.412951520163934
 42
6.412951520163934
 50
0.0
  0
INSERT
  8
DIMENSIONS
  2
DIMTICK_ARROW
 10
32.06475760081967
 20
24.407403783621874
 30
0.0
 41
6.412951520163934
 42
6.412951520163934
 50
180.0
  0
LINE
 62
7
  8
DIMENSIONS
 10
0.0
 20
24.407403783621874
 30
0.0
 11
32.06475760081967
 21
24.407403783621874
 31
0.0
  0
LINE
 62
5
  8
DIMENSIONS
 10
0.0
 20
24.407403783621874
 30
0.0
 11
0.0
 21
21.500928023539906
 31
0.0
  0
LINE
 62
5
  8
DIMENSIONS
 10
32.06475760081967
 20
24.407403783621874
 30
0.0
 11
32.06475760081967
 21
21.500928023539906
 31
0.0
  0
TEXT
 62
7
  8
DIMENSIONS
 10
16.032378800409834
 20
25.598091494755753
 30
0.0
 40
1.9813754222677593
  1
32
 50
-0.0
  7
ISOCPEUR
 72
1
 73
2
 11
16.032378800409834
 21
25.598091494755753
 31
0.0
  0
INSERT
  8
DIMENSIONS
  2
DIMTICK_ARROW
 10
0.0
 20
24.407403783621874
 30
0.0
 41
6.412951520163934
 42
6.412951520163934
 50
0.0
  0
INSERT
  8
DIMENSIONS
  2
DIMTICK_ARROW
 10
32.06475760081967
 20
24.407403783621874
 30
0.0
 41
6.412951520163934
 42
6.412951520163934
 50
180.0
  0
LINE
 62
7
  8
DIMENSIONS
 10
0.0
 20
24.407403783621874
 30
0.0
 11
32.06475760081967
 21
24.407403783621874
 31
0.0
  0
LINE
 62
5
  8
DIMENSIONS
 10
0.0
 20
24.407403783621874
 30
0.0
 11
0.0
 21
21.500928023539906
 31
0.0
  0
LINE
 62
5
  8
DIMENSIONS
 10
32.06475760081967
 20
24.407403783621874
 30
0.0
 11
32.06475760081967
 21
21.500928023539906
 31
0.0
  0
TEXT
 62
7
  8
DIMENSIONS
 10
16.032378800409834
 20
25.598091494755753
 30
0.0
 40
1.9813754222677593
  1
32
 50
-0.0
  7
ISOCPEUR
 72
1
 73
2
 11
16.032378800409834
 21
25.598091494755753
 31
0.0
  0
INSERT
  8
DIMENSIONS
  2
DIMTICK_ARROW
 10
0.0
 20
24.407403783621874
 30
0.0
 41
6.412951520163934
 42
6.412951520163934
 50
0.0
  0
INSERT
  8
DIMENSIONS
  2
DIMTICK_ARROW
 10
32.06475760081967
 20
24.407403783621874
 30
0.0
 41
6.412951520163934
 42
6.412951520163934
 50
180.0
  0
LINE
 62
7
  8
DIMENSIONS
 10
0.0
 20
24.407403783621874
 30
0.0
 11
32.06475760081967
 21
24.407403783621874
 31
0.0
  0
LINE
 62
5
  8
DIMENSIONS
 10
0.0
 20
24.407403783621874
 30
0.0
 11
0.0
 21
21.500928023539906
 31
0.0
  0
LINE
 62
5
  8
DIMENSIONS
 10
32.06475760081967
 20
24.407403783621874
 30
0.0
 11
32.06475760081967
 21
21.500928023539906
 31
0.0
  0
TEXT
 62
7
  8
DIMENSIONS
 10
16.032378800409834
 20
25.598091494755753
 30
0.0
 40
1.9813754222677593
  1
32
 50
-0.0
  7
ISOCPEUR
 72
1
 73
2
 11
16.032378800409834
 21
25.598091494755753
 31
0.0
  0
INSERT
  8
DIMENSIONS
  2
DIMTICK_ARROW
 10
0.0
 20
24.407403783621874
 30
0.0
 41
6.412951520163934
 42
6.412951520163934
 50
0.0
  0
INSERT
  8
DIMENSIONS
  2
DIMTICK_ARROW
 10
32.06475760081967
 20
24.407403783621874
 30
0.0
 41
6.412951520163934
 42
6.412951520163934
 50
180.0
  0
LINE
 62
7
  8
DIMENSIONS
 10
0.0
 20
24.407403783621874
 30
0.0
 11
32.06475760081967
 21
24.407403783621874
 31
0.0
  0
LINE
 62
5
  8
DIMENSIONS
 10
0.0
 20
24.407403783621874
 30
0.0
 11
0.0
 21
21.500928023539906
 31
0.0
  0
LINE
 62
5
  8
DIMENSIONS
 10
32.06475760081967
 20
24.407403783621874
 30
0.0
 11
32.06475760081967
 21
21.500928023539906
 31
0.0
  0
TEXT
 62
7
  8
DIMENSIONS
 10
16.032378800409834
 20
25.598091494755753
 30
0.0
 40
1.9813754222677593
  1
32
 50
-0.0
  7
ISOCPEUR
 72
1
 73
2
 11
16.032378800409834
 21
25.598091494755753
 31
0.0
  0
INSERT
  8
DIMENSIONS
  2
DIMTICK_ARROW
 10
0.0
 20
24.407403783621874
 30
0.0
 41
6.412951520163934
 42
6.412951520163934
 50
0.0
  0
INSERT
  8
DIMENSIONS
  2
DIMTICK_ARROW
 10
32.06475760081967
 20
24.407403783621874
 30
0.0
 41
6.412951520163934
 42
6.412951520163934
 50
180.0
  0
LINE
 62
7
  8
DIMENSIONS
 10
0.0
 20
24.407403783621874
 30
0.0
 11
32.06475760081967
 21
24.407403783621874
 31
0.0
  0
LINE
 62
5
  8
DIMENSIONS
 10
0.0
 20
24.407403783621874
 30
0.0
 11
0.0
 21
21.500928023539906
 31
0.0
  0
LINE
 62
5
  8
DIMENSIONS
 10
32.06475760081967
 20
24.407403783621874
 30
0.0
 11
32.06475760081967
 21
21.500928023539906
 31
0.0
  0
TEXT
 62
7
  8
DIMENSIONS
 10
16.032378800409834
 20
25.598091494755753
 30
0.0
 40
1.9813754222677593
  1
32
 50
-0.0
  7
ISOCPEUR
 72
1
 73
2
 11
16.032378800409834
 21
25.598091494755753
 31
0.0
  0
INSERT
  8
DIMENSIONS
  2
DIMTICK_ARROW
 10
0.0
 20
24.407403783621874
 30
0.0
 41
6.412951520163934
 42
6.412951520163934
 50
0.0
  0
INSERT
  8
DIMENSIONS
  2
DIMTICK_ARROW
 10
32.06475760081967
 20
24.407403783621874
 30
0.0
 41
6.412951520163934
 42
6.412951520163934
 50
180.0
  0
LINE
 62
7
  8
DIMENSIONS
 10
0.0
 20
24.407403783621874
 30
0.0
 11
32.06475760081967
 21
24.407403783621874
 31
0.0
  0
LINE
 62
5
  8
DIMENSIONS
 10
0.0
 20
24.407403783621874
 30
0.0
 11
0.0
 21
21.500928023539906
 31
0.0
  0
LINE
 62
5
  8
DIMENSIONS
 10
32.06475760081967
 20
24.407403783621874
 30
0.0
 11
32.06475760081967
 21
21.500928023539906
 31
0.0
  0
TEXT
 62
7
  8
DIMENSIONS
 10
16.032378800409834
 20
25.598091494755753
 30
0.0
 40
1.9813754222677593
  1
32
 50
-0.0
  7
ISOCPEUR
 72
1
 73
2
 11
16.032378800409834
 21
25.598091494755753
 31
0.0
  0
INSERT
  8
DIMENSIONS
  2
DIMTICK_ARROW
 10
0.0
 20
24.407403783621874
 30
0.0
 41
6.412951520163934
 42
6.412951520163934
 50
0.0
  0
INSERT
  8
DIMENSIONS
  2
DIMTICK_ARROW
 10
32.06475760081967
 20
24.407403783621874
 30
0.0
 41
6.412951520163934
 42
6.412951520163934
 50
180.0
  0
LINE
 62
7
  8
DIMENSIONS
 10
0.0
 20
24.407403783621874
 30
0.0
 11
32.06475760081967
 21
24.407403783621874
 31
0.0
  0
LINE
 62
5
  8
DIMENSIONS
 10
0.0
 20
24.407403783621874
 30
0.0
 11
0.0
 21
21.500928023539906
 31
0.0
  0
LINE
 62
5
  8
DIMENSIONS
 10
32.06475760081967
 20
24.407403783621874
 30
0.0
 11
32.06475760081967
 21
21.500928023539906
 31
0.0
  0
TEXT
 62
7
  8
DIMENSIONS
 10
16.032378800409834
 20
25.598091494755753
 30
0.0
 40
1.9813754222677593
  1
32
 50
-0.0
  7
ISOCPEUR
 72
1
 73
2
 11
16.032378800409834
 21
25.598091494755753
 31
0.0
  0
INSERT
  8
DIMENSIONS
  2
DIMTICK_ARROW
 10
0.0
 20
24.407403783621874
 30
0.0
 41
6.412951520163934
 42
6.412951520163934
 50
0.0
  0
INSERT
  8
DIMENSIONS
  2
DIMTICK_ARROW
 10
32.06475760081967
 20
24.407403783621874
 30
0.0
 41
6.412951520163934
 42
6.412951520163934
 50
180.0
  0
LINE
 62
7
  8
DIMENSIONS
 10
0.0
 20
24.407403783621874
 30
0.0
 11
32.06475760081967
 21
24.407403783621874
 31
0.0
  0
LINE
 62
5
  8
DIMENSIONS
 10
0.0
 20
24.407403783621874
 30
0.0
 11
0.0
 21
21.500928023539906
 31
0.0
  0
LINE
 62
5
  8
DIMENSIONS
 10
32.06475760081967
 20
24.407403783621874
 30
0.0
 11
32.06475760081967
 21
21.500928023539906
 31
0.0
  0
TEXT
 62
7
  8
DIMENSIONS
 10
16.032378800409834
 20
25.598091494755753
 30
0.0
 40
1.9813754222677593
  1
32
 50
-0.0
  7
ISOCPEUR
 72
1
 73
2
 11
16.032378800409834
 21
25.598091494755753
 31
0.0
  0
INSERT
  8
DIMENSIONS
  2
DIMTICK_ARROW
 10
0.0
 20
24.407403783621874
 30
0.0
 41
6.412951520163934
 42
6.412951520163934
 50
0.0
  0
INSERT
  8
DIMENSIONS
  2
DIMTICK_ARROW
 10
32.06475760081967
 20
24.407403783621874
 30
0.0
 41
6.412951520163934
 42
6.412951520163934
 50
180.0
  0
LINE
 62
7
  8
DIMENSIONS
 10
0.0
 20
24.407403783621874
 30
0.0
 11
32.06475760081967
 21
24.407403783621874
 31
0.0
  0
LINE
 62
5
  8
DIMENSIONS
 10
0.0
 20
24.407403783621874
 30
0.0
 11
0.0
 21
21.500928023539906
 31
0.0
  0
LINE
 62
5
  8
DIMENSIONS
 10
32.06475760081967
 20
24.407403783621874
 30
0.0
 11
32.06475760081967
 21
21.500928023539906
 31
0.0
  0
TEXT
 62
7
  8
DIMENSIONS
 10
16.032378800409834
 20
25.598091494755753
 30
0.0
 40
1.9813754222677593
  1
32
 50
-0.0
  7
ISOCPEUR
 72
1
 73
2
 11
16.032378800409834
 21
25.598091494755753
 31
0.0
  0
INSERT
  8
DIMENSIONS
  2
DIMTICK_ARROW
 10
0.0
 20
24.407403783621874
 30
0.0
 41
6.412951520163934
 42
6.412951520163934
 50
0.0
  0
INSERT
  8
DIMENSIONS
  2
DIMTICK_ARROW
 10
32.06475760081967
 20
24.407403783621874
 30
0.0
 41
6.412951520163934
 42
6.412951520163934
 50
180.0
  0
LINE
 62
7
  8
DIMENSIONS
 10
0.0
 20
24.407403783621874
 30
0.0
 11
32.06475760081967
 21
24.407403783621874
 31
0.0
  0
LINE
 62
5
  8
DIMENSIONS
 10
0.0
 20
24.407403783621874
 30
0.0
 11
0.0
 21
21.500928023539906
 31
0.0
  0
LINE
 62
5
  8
DIMENSIONS
 10
32.06475760081967
 20
24.407403783621874
 30
0.0
 11
32.06475760081967
 21
21.500928023539906
 31
0.0
  0
TEXT
 62
7
  8
DIMENSIONS
 10
16.032378800409834
 20
25.598091494755753
 30
0.0
 40
1.9813754222677593
  1
32
 50
-0.0
  7
ISOCPEUR
 72
1
 73
2
 11
16.032378800409834
 21
25.598091494755753
 31
0.0
  0
INSERT
  8
DIMENSIONS
  2
DIMTICK_ARROW
 10
0.0
 20
24.407403783621874
 30
0.0
 41
6.412951520163934
 42
6.412951520163934
 50
0.0
  0
INSERT
  8
DIMENSIONS
  2
DIMTICK_ARROW
 10
32.06475760081967
 20
24.407403783621874
 30
0.0
 41
6.412951520163934
 42
6.412951520163934
 50
180.0
  0
LINE
 62
7
  8
DIMENSIONS
 10
0.0
 20
24.407403783621874
 30
0.0
 11
32.06475760081967
 21
24.407403783621874
 31
0.0
  0
LINE
 62
5
  8
DIMENSIONS
 10
0.0
 20
24.407403783621874
 30
0.0
 11
0.0
 21
21.500928023539906
 31
0.0
  0
LINE
 62
5
  8
DIMENSIONS
 10
32.06475760081967
 20
24.407403783621874
 30
0.0
 11
32.06475760081967
 21
21.500928023539906
 31
0.0
  0
TEXT
 62
7
  8
DIMENSIONS
 10
16.032378800409834
 20
25.598091494755753
 30
0.0
 40
1.9813754222677593
  1
32
 50
-0.0
  7
ISOCPEUR
 72
1
 73
2
 11
16.032378800409834
 21
25.598091494755753
 31
0.0
  0
INSERT
  8
DIMENSIONS
  2
DIMTICK_ARROW
 10
0.0
 20
24.407403783621874
 30
0.0
 41
6.412951520163934
 42
6.412951520163934
 50
0.0
  0
INSERT
  8
DIMENSIONS
  2
DIMTICK_ARROW
 10
32.06475760081967
 20
24.407403783621874
 30
0.0
 41
6.412951520163934
 42
6.412951520163934
 50
180.0
  0
LINE
 62
7
  8
DIMENSIONS
 10
0.0
 20
24.407403783621874
 30
0.0
 11
32.06475760081967
 21
24.407403783621874
 31
0.0
  0
LINE
 62
5
  8
DIMENSIONS
 10
0.0
 20
24.407403783621874
 30
0.0
 11
0.0
 21
21.500928023539906
 31
0.0
  0
LINE
 62
5
  8
DIMENSIONS
 10
32.06475760081967
 20
24.407403783621874
 30
0.0
 11
32.06475760081967
 21
21.500928023539906
 31
0.0
  0
TEXT
 62
7
  8
DIMENSIONS
 10
16.032378800409834
 20
25.598091494755753
 30
0.0
 40
1.9813754222677593
  1
32
 50
-0.0
  7
ISOCPEUR
 72
1
 73
2
 11
16.032378800409834
 21
25.598091494755753
 31
0.0
  0
INSERT
  8
DIMENSIONS
  2
DIMTICK_ARROW
 10
0.0
 20
24.407403783621874
 30
0.0
 41
6.412951520163934
 42
6.412951520163934
 50
0.0
  0
INSERT
  8
DIMENSIONS
  2
DIMTICK_ARROW
 10
32.06475760081967
 20
24.407403783621874
 30
0.0
 41
6.412951520163934
 42
6.412951520163934
 50
180.0
  0
LINE
 62
7
  8
DIMENSIONS
 10
0.0
 20
24.407403783621874
 30
0.0
 11
32.06475760081967
 21
24.407403783621874
 31
0.0
  0
LINE
 62
5
  8
DIMENSIONS
 10
0.0
 20
24.407403783621874
 30
0.0
 11
0.0
 21
21.500928023539906
 31
0.0
  0
LINE
 62
5
  8
DIMENSIONS
 10
32.06475760081967
 20
24.407403783621874
 30
0.0
 11
32.06475760081967
 21
21.500928023539906
 31
0.0
  0
TEXT
 62
7
  8
DIMENSIONS
 10
16.032378800409834
 20
25.598091494755753
 30
0.0
 40
1.9813754222677593
  1
32
 50
-0.0
  7
ISOCPEUR
 72
1
 73
2
 11
16.032378800409834
 21
25.598091494755753
 31
0.0
  0
INSERT
  8
DIMENSIONS
  2
DIMTICK_ARROW
 10
0.0
 20
24.407403783621874
 30
0.0
 41
6.412951520163934
 42
6.412951520163934
 50
0.0
  0
INSERT
  8
DIMENSIONS
  2
DIMTICK_ARROW
 10
32.06475760081967
 20
24.407403783621874
 30
0.0
 41
6.412951520163934
 42
6.412951520163934
 50
180.0
  0
LINE
 62
7
  8
DIMENSIONS
 10
0.0
 20
24.407403783621874
 30
0.0
 11
32.06475760081967
 21
24.407403783621874
 31
0.0
  0
LINE
 62
5
  8
DIMENSIONS
 10
0.0
 20
24.407403783621874
 30
0.0
 11
0.0
 21
21.500928023539906
 31
0.0
  0
LINE
 62
5
  8
DIMENSIONS
 10
32.06475760081967
 20
24.407403783621874
 30
0.0
 11
32.06475760081967
 21
21.500928023539906
 31
0.0
  0
TEXT
 62
7
  8
DIMENSIONS
 10
16.032378800409834
 20
25.598091494755753
 30
0.0
 40
1.9813754222677593
  1
32
 50
-0.0
  7
ISOCPEUR
 72
1
 73
2
 11
16.032378800409834
 21
25.598091494755753
 31
0.0
  0
INSERT
  8
DIMENSIONS
  2
DIMTICK_ARROW
 10
0.0
 20
24.407403783621874
 30
0.0
 41
6.412951520163934
 42
6.412951520163934
 50
0.0
  0
INSERT
  8
DIMENSIONS
  2
DIMTICK_ARROW
 10
32.06475760081967
 20
24.407403783621874
 30
0.0
 41
6.412951520163934
 42
6.412951520163934
 50
180.0
  0
LINE
 62
3
  8
0
 10
32.06475760081967
 20
0.0
 30
0.0
 11
32.06475760081967
 21
4.740580179176624
 31
0.0
  0
LINE
 62
7
  8
DIMENSIONS
 10
32.53881561873733
 20
-5.805536342530036e-17
 30
0.0
 11
32.53881561873733
 21
4.740580179176624
 31
0.0
  0
LINE
 62
5
  8
DIMENSIONS
 10
32.53881561873733
 20
-5.805536342530036e-17
 30
0.0
 11
32.364757600819665
 21
-3.6739403974420515e-17
 31
0.0
  0
LINE
 62
5
  8
DIMENSIONS
 10
32.53881561873733
 20
4.740580179176624
 30
0.0
 11
32.364757600819665
 21
4.740580179176624
 31
0.0
  0
TEXT
 62
7
  8
DIMENSIONS
 10
32.03881561873733
 20
2.370290089588312
 30
0.0
 40
0.6000000000000001
  1
5
 50
90.0
  7
ISOCPEUR
 72
1
 73
2
 11
32.03881561873733
 21
2.370290089588312
 31
0.0
  0
INSERT
  8
DIMENSIONS
  2
DIMTICK_ARROW
 10
32.53881561873733
 20
-5.805536342530036e-17
 30
0.0
 41
0.9481160358353249
 42
0.9481160358353249
 50
90.0
  0
INSERT
  8
DIMENSIONS
  2
DIMTICK_ARROW
 10
32.53881561873733
 20
4.740580179176624
 30
0.0
 41
0.9481160358353249
 42
0.9481160358353249
 50
270.0
  0
LINE
 62
7
  8
DIMENSIONS
 10
32.53881561873733
 20
-5.805536342530036e-17
 30
0.0
 11
32.53881561873733
 21
4.740580179176624
 31
0.0
  0
LINE
 62
5
  8
DIMENSIONS
 10
32.53881561873733
 20
-5.805536342530036e-17
 30
0.0
 11
32.364757600819665
 21
-3.6739403974420515e-17
 31
0.0
  0
LINE
 62
5
  8
DIMENSIONS
 10
32.53881561873733
 20
4.740580179176624
 30
0.0
 11
32.364757600819665
 21
4.740580179176624
 31
0.0
  0
TEXT
 62
7
  8
DIMENSIONS
 10
32.03881561873733
 20
2.370290089588312
 30
0.0
 40
0.6000000000000001
  1
5
 50
90.0
  7
ISOCPEUR
 72
1
 73
2
 11
32.03881561873733
 21
2.370290089588312
 31
0.0
  0
INSERT
  8
DIMENSIONS
  2
DIMTICK_ARROW
 10
32.53881561873733
 20
-5.805536342530036e-17
 30
0.0
 41
0.9481160358353249
 42
0.9481160358353249
 50
90.0
  0
INSERT
  8
DIMENSIONS
  2
DIMTICK_ARROW
 10
32.53881561873733
 20
4.740580179176624
 30
0.0
 41
0.9481160358353249
 42
0.9481160358353249
 50
270.0
  0
LINE
 62
7
  8
DIMENSIONS
 10
32.53881561873733
 20
-5.805536342530036e-17
 30
0.0
 11
32.53881561873733
 21
4.740580179176624
 31
0.0
  0
LINE
 62
5
  8
DIMENSIONS
 10
32.53881561873733
 20
-5.805536342530036e-17
 30
0.0
 11
32.364757600819665
 21
-3.6739403974420515e-17
 31
0.0
  0
LINE
 62
5
  8
DIMENSIONS
 10
32.53881561873733
 20
4.740580179176624
 30
0.0
 11
32.364757600819665
 21
4.740580179176624
 31
0.0
  0
TEXT
 62
7
  8
DIMENSIONS
 10
32.03881561873733
 20
2.370290089588312
 30
0.0
 40
0.6000000000000001
  1
5
 50
90.0
  7
ISOCPEUR
 72
1
 73
2
 11
32.03881561873733
 21
2.370290089588312
 31
0.0
  0
INSERT
  8
DIMENSIONS
  2
DIMTICK_ARROW
 10
32.53881561873733
 20
-5.805536342530036e-17
 30
0.0
 41
0.9481160358353249
 42
0.9481160358353249
 50
90.0
  0
INSERT
  8
DIMENSIONS
  2
DIMTICK_ARROW
 10
32.53881561873733
 20
4.740580179176624
 30
0.0
 41
0.9481160358353249
 42
0.9481160358353249
 50
270.0
  0
LINE
 62
7
  8
DIMENSIONS
 10
32.53881561873733
 20
-5.805536342530036e-17
 30
0.0
 11
32.53881561873733
 21
4.740580179176624
 31
0.0
  0
LINE
 62
5
  8
DIMENSIONS
 10
32.53881561873733
 20
-5.805536342530036e-17
 30
0.0
 11
32.364757600819665
 21
-3.6739403974420515e-17
 31
0.0
  0
LINE
 62
5
  8
DIMENSIONS
 10
32.53881561873733
 20
4.740580179176624
 30
0.0
 11
32.364757600819665
 21
4.740580179176624
 31
0.0
  0
TEXT
 62
7
  8
DIMENSIONS
 10
32.03881561873733
 20
2.370290089588312
 30
0.0
 40
0.6000000000000001
  1
5
 50
90.0
  7
ISOCPEUR
 72
1
 73
2
 11
32.03881561873733
 21
2.370290089588312
 31
0.0
  0
INSERT
  8
DIMENSIONS
  2
DIMTICK_ARROW
 10
32.53881561873733
 20
-5.805536342530036e-17
 30
0.0
 41
0.9481160358353249
 42
0.9481160358353249
 50
90.0
  0
INSERT
  8
DIMENSIONS
  2
DIMTICK_ARROW
 10
32.53881561873733
 20
4.740580179176624
 30
0.0
 41
0.9481160358353249
 42
0.9481160358353249
 50
270.0
  0
LINE
 62
7
  8
DIMENSIONS
 10
32.53881561873733
 20
-5.805536342530036e-17
 30
0.0
 11
32.53881561873733
 21
4.740580179176624
 31
0.0
  0
LINE
 62
5
  8
DIMENSIONS
 10
32.53881561873733
 20
-5.805536342530036e-17
 30
0.0
 11
32.364757600819665
 21
-3.6739403974420515e-17
 31
0.0
  0
LINE
 62
5
  8
DIMENSIONS
 10
32.53881561873733
 20
4.740580179176624
 30
0.0
 11
32.364757600819665
 21
4.740580179176624
 31
0.0
  0
TEXT
 62
7
  8
DIMENSIONS
 10
32.03881561873733
 20
2.370290089588312
 30
0.0
 40
0.6000000000000001
  1
5
 50
90.0
  7
ISOCPEUR
 72
1
 73
2
 11
32.03881561873733
 21
2.370290089588312
 31
0.0
  0
INSERT
  8
DIMENSIONS
  2
DIMTICK_ARROW
 10
32.53881561873733
 20
-5.805536342530036e-17
 30
0.0
 41
0.9481160358353249
 42
0.9481160358353249
 50
90.0
  0
INSERT
  8
DIMENSIONS
  2
DIMTICK_ARROW
 10
32.53881561873733
 20
4.740580179176624
 30
0.0
 41
0.9481160358353249
 42
0.9481160358353249
 50
270.0
  0
LINE
 62
7
  8
DIMENSIONS
 10
32.53881561873733
 20
-5.805536342530036e-17
 30
0.0
 11
32.53881561873733
 21
4.740580179176624
 31
0.0
  0
LINE
 62
5
  8
DIMENSIONS
 10
32.53881561873733
 20
-5.805536342530036e-17
 30
0.0
 11
32.364757600819665
 21
-3.6739403974420515e-17
 31
0.0
  0
LINE
 62
5
  8
DIMENSIONS
 10
32.53881561873733
 20
4.740580179176624
 30
0.0
 11
32.364757600819665
 21
4.740580179176624
 31
0.0
  0
TEXT
 62
7
  8
DIMENSIONS
 10
32.03881561873733
 20
2.370290089588312
 30
0.0
 40
0.6000000000000001
  1
5
 50
90.0
  7
ISOCPEUR
 72
1
 73
2
 11
32.03881561873733
 21
2.370290089588312
 31
0.0
  0
INSERT
  8
DIMENSIONS
  2
DIMTICK_ARROW
 10
32.53881561873733
 20
-5.805536342530036e-17
 30
0.0
 41
0.9481160358353249
 42
0.9481160358353249
 50
90.0
  0
INSERT
  8
DIMENSIONS
  2
DIMTICK_ARROW
 10
32.53881561873733
 20
4.740580179176624
 30
0.0
 41
0.9481160358353249
 42
0.9481160358353249
 50
270.0
  0
LINE
 62
7
  8
DIMENSIONS
 10
32.53881561873733
 20
-5.805536342530036e-17
 30
0.0
 11
32.53881561873733
 21
4.740580179176624
 31
0.0
  0
LINE
 62
5
  8
DIMENSIONS
 10
32.53881561873733
 20
-5.805536342530036e-17
 30
0.0
 11
32.364757600819665
 21
-3.6739403974420515e-17
 31
0.0
  0
LINE
 62
5
  8
DIMENSIONS
 10
32.53881561873733
 20
4.740580179176624
 30
0.0
 11
32.364757600819665
 21
4.740580179176624
 31
0.0
  0
TEXT
 62
7
  8
DIMENSIONS
 10
32.03881561873733
 20
2.370290089588312
 30
0.0
 40
0.6000000000000001
  1
5
 50
90.0
  7
ISOCPEUR
 72
1
 73
2
 11
32.03881561873733
 21
2.370290089588312
 31
0.0
  0
INSERT
  8
DIMENSIONS
  2
DIMTICK_ARROW
 10
32.53881561873733
 20
-5.805536342530036e-17
 30
0.0
 41
0.9481160358353249
 42
0.9481160358353249
 50
90.0
  0
INSERT
  8
DIMENSIONS
  2
DIMTICK_ARROW
 10
32.53881561873733
 20
4.740580179176624
 30
0.0
 41
0.9481160358353249
 42
0.9481160358353249
 50
270.0
  0
LINE
 62
7
  8
DIMENSIONS
 10
32.53881561873733
 20
-5.805536342530036e-17
 30
0.0
 11
32.53881561873733
 21
4.740580179176624
 31
0.0
  0
LINE
 62
5
  8
DIMENSIONS
 10
32.53881561873733
 20
-5.805536342530036e-17
 30
0.0
 11
32.364757600819665
 21
-3.6739403974420515e-17
 31
0.0
  0
LINE
 62
5
  8
DIMENSIONS
 10
32.53881561873733
 20
4.740580179176624
 30
0.0
 11
32.364757600819665
 21
4.740580179176624
 31
0.0
  0
TEXT
 62
7
  8
DIMENSIONS
 10
32.03881561873733
 20
2.370290089588312
 30
0.0
 40
0.6000000000000001
  1
5
 50
90.0
  7
ISOCPEUR
 72
1
 73
2
 11
32.03881561873733
 21
2.370290089588312
 31
0.0
  0
INSERT
  8
DIMENSIONS
  2
DIMTICK_ARROW
 10
32.53881561873733
 20
-5.805536342530036e-17
 30
0.0
 41
0.9481160358353249
 42
0.9481160358353249
 50
90.0
  0
INSERT
  8
DIMENSIONS
  2
DIMTICK_ARROW
 10
32.53881561873733
 20
4.740580179176624
 30
0.0
 41
0.9481160358353249
 42
0.9481160358353249
 50
270.0
  0
LINE
 62
7
  8
DIMENSIONS
 10
32.53881561873733
 20
-5.805536342530036e-17
 30
0.0
 11
32.53881561873733
 21
4.740580179176624
 31
0.0
  0
LINE
 62
5
  8
DIMENSIONS
 10
32.53881561873733
 20
-5.805536342530036e-17
 30
0.0
 11
32.364757600819665
 21
-3.6739403974420515e-17
 31
0.0
  0
LINE
 62
5
  8
DIMENSIONS
 10
32.53881561873733
 20
4.740580179176624
 30
0.0
 11
32.364757600819665
 21
4.740580179176624
 31
0.0
  0
TEXT
 62
7
  8
DIMENSIONS
 10
32.03881561873733
 20
2.370290089588312
 30
0.0
 40
0.6000000000000001
  1
5
 50
90.0
  7
ISOCPEUR
 72
1
 73
2
 11
32.03881561873733
 21
2.370290089588312
 31
0.0
  0
INSERT
  8
DIMENSIONS
  2
DIMTICK_ARROW
 10
32.53881561873733
 20
-5.805536342530036e-17
 30
0.0
 41
0.9481160358353249
 42
0.9481160358353249
 50
90.0
  0
INSERT
  8
DIMENSIONS
  2
DIMTICK_ARROW
 10
32.53881561873733
 20
4.740580179176624
 30
0.0
 41
0.9481160358353249
 42
0.9481160358353249
 50
270.0
  0
LINE
 62
7
  8
DIMENSIONS
 10
32.53881561873733
 20
-5.805536342530036e-17
 30
0.0
 11
32.53881561873733
 21
4.740580179176624
 31
0.0
  0
LINE
 62
5
  8
DIMENSIONS
 10
32.53881561873733
 20
-5.805536342530036e-17
 30
0.0
 11
32.364757600819665
 21
-3.6739403974420515e-17
 31
0.0
  0
LINE
 62
5
  8
DIMENSIONS
 10
32.53881561873733
 20
4.740580179176624
 30
0.0
 11
32.364757600819665
 21
4.740580179176624
 31
0.0
  0
TEXT
 62
7
  8
DIMENSIONS
 10
32.03881561873733
 20
2.370290089588312
 30
0.0
 40
0.6000000000000001
  1
5
 50
90.0
  7
ISOCPEUR
 72
1
 73
2
 11
32.03881561873733
 21
2.370290089588312
 31
0.0
  0
INSERT
  8
DIMENSIONS
  2
DIMTICK_ARROW
 10
32.53881561873733
 20
-5.805536342530036e-17
 30
0.0
 41
0.9481160358353249
 42
0.9481160358353249
 50
90.0
  0
INSERT
  8
DIMENSIONS
  2
DIMTICK_ARROW
 10
32.53881561873733
 20
4.740580179176624
 30
0.0
 41
0.9481160358353249
 42
0.9481160358353249
 50
270.0
  0
LINE
 62
7
  8
DIMENSIONS
 10
32.53881561873733
 20
-5.805536342530036e-17
 30
0.0
 11
32.53881561873733
 21
4.740580179176624
 31
0.0
  0
LINE
 62
5
  8
DIMENSIONS
 10
32.53881561873733
 20
-5.805536342530036e-17
 30
0.0
 11
32.364757600819665
 21
-3.6739403974420515e-17
 31
0.0
  0
LINE
 62
5
  8
DIMENSIONS
 10
32.53881561873733
 20
4.740580179176624
 30
0.0
 11
32.364757600819665
 21
4.740580179176624
 31
0.0
  0
TEXT
 62
7
  8
DIMENSIONS
 10
32.03881561873733
 20
2.370290089588312
 30
0.0
 40
0.6000000000000001
  1
5
 50
90.0
  7
ISOCPEUR
 72
1
 73
2
 11
32.03881561873733
 21
2.370290089588312
 31
0.0
  0
INSERT
  8
DIMENSIONS
  2
DIMTICK_ARROW
 10
32.53881561873733
 20
-5.805536342530036e-17
 30
0.0
 41
0.9481160358353249
 42
0.9481160358353249
 50
90.0
  0
INSERT
  8
DIMENSIONS
  2
DIMTICK_ARROW
 10
32.53881561873733
 20
4.740580179176624
 30
0.0
 41
0.9481160358353249
 42
0.9481160358353249
 50
270.0
  0
LINE
 62
7
  8
DIMENSIONS
 10
32.53881561873733
 20
-5.805536342530036e-17
 30
0.0
 11
32.53881561873733
 21
4.740580179176624
 31
0.0
  0
LINE
 62
5
  8
DIMENSIONS
 10
32.53881561873733
 20
-5.805536342530036e-17
 30
0.0
 11
32.364757600819665
 21
-3.6739403974420515e-17
 31
0.0
  0
LINE
 62
5
  8
DIMENSIONS
 10
32.53881561873733
 20
4.740580179176624
 30
0.0
 11
32.364757600819665
 21
4.740580179176624
 31
0.0
  0
TEXT
 62
7
  8
DIMENSIONS
 10
32.03881561873733
 20
2.370290089588312
 30
0.0
 40
0.6000000000000001
  1
5
 50
90.0
  7
ISOCPEUR
 72
1
 73
2
 11
32.03881561873733
 21
2.370290089588312
 31
0.0
  0
INSERT
  8
DIMENSIONS
  2
DIMTICK_ARROW
 10
32.53881561873733
 20
-5.805536342530036e-17
 30
0.0
 41
0.9481160358353249
 42
0.9481160358353249
 50
90.0
  0
INSERT
  8
DIMENSIONS
  2
DIMTICK_ARROW
 10
32.53881561873733
 20
4.740580179176624
 30
0.0
 41
0.9481160358353249
 42
0.9481160358353249
 50
270.0
  0
LINE
 62
7
  8
DIMENSIONS
 10
32.53881561873733
 20
-5.805536342530036e-17
 30
0.0
 11
32.53881561873733
 21
4.740580179176624
 31
0.0
  0
LINE
 62
5
  8
DIMENSIONS
 10
32.53881561873733
 20
-5.805536342530036e-17
 30
0.0
 11
32.364757600819665
 21
-3.6739403974420515e-17
 31
0.0
  0
LINE
 62
5
  8
DIMENSIONS
 10
32.53881561873733
 20
4.740580179176624
 30
0.0
 11
32.364757600819665
 21
4.740580179176624
 31
0.0
  0
TEXT
 62
7
  8
DIMENSIONS
 10
32.03881561873733
 20
2.370290089588312
 30
0.0
 40
0.6000000000000001
  1
5
 50
90.0
  7
ISOCPEUR
 72
1
 73
2
 11
32.03881561873733
 21
2.370290089588312
 31
0.0
  0
INSERT
  8
DIMENSIONS
  2
DIMTICK_ARROW
 10
32.53881561873733
 20
-5.805536342530036e-17
 30
0.0
 41
0.9481160358353249
 42
0.9481160358353249
 50
90.0
  0
INSERT
  8
DIMENSIONS
  2
DIMTICK_ARROW
 10
32.53881561873733
 20
4.740580179176624
 30
0.0
 41
0.9481160358353249
 42
0.9481160358353249
 50
270.0
  0
LINE
 62
7
  8
DIMENSIONS
 10
32.53881561873733
 20
-5.805536342530036e-17
 30
0.0
 11
32.53881561873733
 21
4.740580179176624
 31
0.0
  0
LINE
 62
5
  8
DIMENSIONS
 10
32.53881561873733
 20
-5.805536342530036e-17
 30
0.0
 11
32.364757600819665
 21
-3.6739403974420515e-17
 31
0.0
  0
LINE
 62
5
  8
DIMENSIONS
 10
32.53881561873733
 20
4.740580179176624
 30
0.0
 11
32.364757600819665
 21
4.740580179176624
 31
0.0
  0
TEXT
 62
7
  8
DIMENSIONS
 10
32.03881561873733
 20
2.370290089588312
 30
0.0
 40
0.6000000000000001
  1
5
 50
90.0
  7
ISOCPEUR
 72
1
 73
2
 11
32.03881561873733
 21
2.370290089588312
 31
0.0
  0
INSERT
  8
DIMENSIONS
  2
DIMTICK_ARROW
 10
32.53881561873733
 20
-5.805536342530036e-17
 30
0.0
 41
0.9481160358353249
 42
0.9481160358353249
 50
90.0
  0
INSERT
  8
DIMENSIONS
  2
DIMTICK_ARROW
 10
32.53881561873733
 20
4.740580179176624
 30
0.0
 41
0.9481160358353249
 42
0.9481160358353249
 50
270.0
  0
LINE
 62
7
  8
DIMENSIONS
 10
32.53881561873733
 20
-5.805536342530036e-17
 30
0.0
 11
32.53881561873733
 21
4.740580179176624
 31
0.0
  0
LINE
 62
5
  8
DIMENSIONS
 10
32.53881561873733
 20
-5.805536342530036e-17
 30
0.0
 11
32.364757600819665
 21
-3.6739403974420515e-17
 31
0.0
  0
LINE
 62
5
  8
DIMENSIONS
 10
32.53881561873733
 20
4.740580179176624
 30
0.0
 11
32.364757600819665
 21
4.740580179176624
 31
0.0
  0
TEXT
 62
7
  8
DIMENSIONS
 10
32.03881561873733
 20
2.370290089588312
 30
0.0
 40
0.6000000000000001
  1
5
 50
90.0
  7
ISOCPEUR
 72
1
 73
2
 11
32.03881561873733
 21
2.370290089588312
 31
0.0
  0
INSERT
  8
DIMENSIONS
  2
DIMTICK_ARROW
 10
32.53881561873733
 20
-5.805536342530036e-17
 30
0.0
 41
0.9481160358353249
 42
0.9481160358353249
 50
90.0
  0
INSERT
  8
DIMENSIONS
  2
DIMTICK_ARROW
 10
32.53881561873733
 20
4.740580179176624
 30
0.0
 41
0.9481160358353249
 42
0.9481160358353249
 50
270.0
  0
LINE
 62
7
  8
DIMENSIONS
 10
32.53881561873733
 20
-5.805536342530036e-17
 30
0.0
 11
32.53881561873733
 21
4.740580179176624
 31
0.0
  0
LINE
 62
5
  8
DIMENSIONS
 10
32.53881561873733
 20
-5.805536342530036e-17
 30
0.0
 11
32.364757600819665
 21
-3.6739403974420515e-17
 31
0.0
  0
LINE
 62
5
  8
DIMENSIONS
 10
32.53881561873733
 20
4.740580179176624
 30
0.0
 11
32.364757600819665
 21
4.740580179176624
 31
0.0
  0
TEXT
 62
7
  8
DIMENSIONS
 10
32.03881561873733
 20
2.370290089588312
 30
0.0
 40
0.6000000000000001
  1
5
 50
90.0
  7
ISOCPEUR
 72
1
 73
2
 11
32.03881561873733
 21
2.370290089588312
 31
0.0
  0
INSERT
  8
DIMENSIONS
  2
DIMTICK_ARROW
 10
32.53881561873733
 20
-5.805536342530036e-17
 30
0.0
 41
0.9481160358353249
 42
0.9481160358353249
 50
90.0
  0
INSERT
  8
DIMENSIONS
  2
DIMTICK_ARROW
 10
32.53881561873733
 20
4.740580179176624
 30
0.0
 41
0.9481160358353249
 42
0.9481160358353249
 50
270.0
  0
LINE
 62
7
  8
DIMENSIONS
 10
32.53881561873733
 20
-5.805536342530036e-17
 30
0.0
 11
32.53881561873733
 21
4.740580179176624
 31
0.0
  0
LINE
 62
5
  8
DIMENSIONS
 10
32.53881561873733
 20
-5.805536342530036e-17
 30
0.0
 11
32.364757600819665
 21
-3.6739403974420515e-17
 31
0.0
  0
LINE
 62
5
  8
DIMENSIONS
 10
32.53881561873733
 20
4.740580179176624
 30
0.0
 11
32.364757600819665
 21
4.740580179176624
 31
0.0
  0
TEXT
 62
7
  8
DIMENSIONS
 10
32.03881561873733
 20
2.370290089588312
 30
0.0
 40
0.6000000000000001
  1
5
 50
90.0
  7
ISOCPEUR
 72
1
 73
2
 11
32.03881561873733
 21
2.370290089588312
 31
0.0
  0
INSERT
  8
DIMENSIONS
  2
DIMTICK_ARROW
 10
32.53881561873733
 20
-5.805536342530036e-17
 30
0.0
 41
0.9481160358353249
 42
0.9481160358353249
 50
90.0
  0
INSERT
  8
DIMENSIONS
  2
DIMTICK_ARROW
 10
32.53881561873733
 20
4.740580179176624
 30
0.0
 41
0.9481160358353249
 42
0.9481160358353249
 50
270.0
  0
LINE
 62
7
  8
DIMENSIONS
 10
32.53881561873733
 20
-5.805536342530036e-17
 30
0.0
 11
32.53881561873733
 21
4.740580179176624
 31
0.0
  0
LINE
 62
5
  8
DIMENSIONS
 10
32.53881561873733
 20
-5.805536342530036e-17
 30
0.0
 11
32.364757600819665
 21
-3.6739403974420515e-17
 31
0.0
  0
LINE
 62
5
  8
DIMENSIONS
 10
32.53881561873733
 20
4.740580179176624
 30
0.0
 11
32.364757600819665
 21
4.740580179176624
 31
0.0
  0
TEXT
 62
7
  8
DIMENSIONS
 10
32.03881561873733
 20
2.370290089588312
 30
0.0
 40
0.6000000000000001
  1
5
 50
90.0
  7
ISOCPEUR
 72
1
 73
2
 11
32.03881561873733
 21
2.370290089588312
 31
0.0
  0
INSERT
  8
DIMENSIONS
  2
DIMTICK_ARROW
 10
32.53881561873733
 20
-5.805536342530036e-17
 30
0.0
 41
0.9481160358353249
 42
0.9481160358353249
 50
90.0
  0
INSERT
  8
DIMENSIONS
  2
DIMTICK_ARROW
 10
32.53881561873733
 20
4.740580179176624
 30
0.0
 41
0.9481160358353249
 42
0.9481160358353249
 50
270.0
  0
LINE
 62
3
  8
0
 10
0.0
 20
0.0
 30
0.0
 11
0.0
 21
5.9257252239707805
 31
0.0
  0
LINE
 62
7
  8
DIMENSIONS
 10
-2.0
 20
2.4492935982947064e-16
 30
0.0
 11
-2.0
 21
5.9257252239707805
 31
0.0
  0
LINE
 62
5
  8
DIMENSIONS
 10
-2.0
 20
2.4492935982947064e-16
 30
0.0
 11
-0.3
 21
3.6739403974420595e-17
 31
0.0
  0
LINE
 62
5
  8
DIMENSIONS
 10
-2.0
 20
5.9257252239707805
 30
0.0
 11
-0.3
 21
5.9257252239707805
 31
0.0
  0
TEXT
 62
7
  8
DIMENSIONS
 10
-2.5
 20
2.9628626119853902
 30
0.0
 40
0.6000000000000001
  1
6
 50
90.0
  7
ISOCPEUR
 72
1
 73
2
 11
-2.5
 21
2.9628626119853902
 31
0.0
  0
INSERT
  8
DIMENSIONS
  2
DIMTICK_ARROW
 10
-2.0
 20
2.4492935982947064e-16
 30
0.0
 41
1.185145044794156
 42
1.185145044794156
 50
90.0
  0
INSERT
  8
DIMENSIONS
  2
DIMTICK_ARROW
 10
-2.0
 20
5.9257252239707805
 30
0.0
 41
1.185145044794156
 42
1.185145044794156
 50
270.0
  0
LINE
 62
7
  8
DIMENSIONS
 10
-2.0
 20
2.4492935982947064e-16
 30
0.0
 11
-2.0
 21
5.9257252239707805
 31
0.0
  0
LINE
 62
5
  8
DIMENSIONS
 10
-2.0
 20
2.4492935982947064e-16
 30
0.0
 11
-0.3
 21
3.6739403974420595e-17
 31
0.0
  0
LINE
 62
5
  8
DIMENSIONS
 10
-2.0
 20
5.9257252239707805
 30
0.0
 11
-0.3
 21
5.9257252239707805
 31
0.0
  0
TEXT
 62
7
  8
DIMENSIONS
 10
-2.5
 20
2.9628626119853902
 30
0.0
 40
0.6000000000000001
  1
6
 50
90.0
  7
ISOCPEUR
 72
1
 73
2
 11
-2.5
 21
2.9628626119853902
 31
0.0
  0
INSERT
  8
DIMENSIONS
  2
DIMTICK_ARROW
 10
-2.0
 20
2.4492935982947064e-16
 30
0.0
 41
1.185145044794156
 42
1.185145044794156
 50
90.0
  0
INSERT
  8
DIMENSIONS
  2
DIMTICK_ARROW
 10
-2.0
 20
5.9257252239707805
 30
0.0
 41
1.185145044794156
 42
1.185145044794156
 50
270.0
  0
LINE
 62
7
  8
DIMENSIONS
 10
-2.0
 20
2.4492935982947064e-16
 30
0.0
 11
-2.0
 21
5.9257252239707805
 31
0.0
  0
LINE
 62
5
  8
DIMENSIONS
 10
-2.0
 20
2.4492935982947064e-16
 30
0.0
 11
-0.3
 21
3.6739403974420595e-17
 31
0.0
  0
LINE
 62
5
  8
DIMENSIONS
 10
-2.0
 20
5.9257252239707805
 30
0.0
 11
-0.3
 21
5.9257252239707805
 31
0.0
  0
TEXT
 62
7
  8
DIMENSIONS
 10
-2.5
 20
2.9628626119853902
 30
0.0
 40
0.6000000000000001
  1
6
 50
90.0
  7
ISOCPEUR
 72
1
 73
2
 11
-2.5
 21
2.9628626119853902
 31
0.0
  0
INSERT
  8
DIMENSIONS
  2
DIMTICK_ARROW
 10
-2.0
 20
2.4492935982947064e-16
 30
0.0
 41
1.185145044794156
 42
1.185145044794156
 50
90.0
  0
INSERT
  8
DIMENSIONS
  2
DIMTICK_ARROW
 10
-2.0
 20
5.9257252239707805
 30
0.0
 41
1.185145044794156
 42
1.185145044794156
 50
270.0
  0
LINE
 62
7
  8
DIMENSIONS
 10
-2.0
 20
2.4492935982947064e-16
 30
0.0
 11
-2.0
 21
5.9257252239707805
 31
0.0
  0
LINE
 62
5
  8
DIMENSIONS
 10
-2.0
 20
2.4492935982947064e-16
 30
0.0
 11
-0.3
 21
3.6739403974420595e-17
 31
0.0
  0
LINE
 62
5
  8
DIMENSIONS
 10
-2.0
 20
5.9257252239707805
 30
0.0
 11
-0.3
 21
5.9257252239707805
 31
0.0
  0
TEXT
 62
7
  8
DIMENSIONS
 10
-2.5
 20
2.9628626119853902
 30
0.0
 40
0.6000000000000001
  1
6
 50
90.0
  7
ISOCPEUR
 72
1
 73
2
 11
-2.5
 21
2.9628626119853902
 31
0.0
  0
INSERT
  8
DIMENSIONS
  2
DIMTICK_ARROW
 10
-2.0
 20
2.4492935982947064e-16
 30
0.0
 41
1.185145044794156
 42
1.185145044794156
 50
90.0
  0
INSERT
  8
DIMENSIONS
  2
DIMTICK_ARROW
 10
-2.0
 20
5.9257252239707805
 30
0.0
 41
1.185145044794156
 42
1.185145044794156
 50
270.0
  0
LINE
 62
7
  8
DIMENSIONS
 10
-2.0
 20
2.4492935982947064e-16
 30
0.0
 11
-2.0
 21
5.9257252239707805
 31
0.0
  0
LINE
 62
5
  8
DIMENSIONS
 10
-2.0
 20
2.4492935982947064e-16
 30
0.0
 11
-0.3
 21
3.6739403974420595e-17
 31
0.0
  0
LINE
 62
5
  8
DIMENSIONS
 10
-2.0
 20
5.9257252239707805
 30
0.0
 11
-0.3
 21
5.9257252239707805
 31
0.0
  0
TEXT
 62
7
  8
DIMENSIONS
 10
-2.5
 20
2.9628626119853902
 30
0.0
 40
0.6000000000000001
  1
6
 50
90.0
  7
ISOCPEUR
 72
1
 73
2
 11
-2.5
 21
2.9628626119853902
 31
0.0
  0
INSERT
  8
DIMENSIONS
  2
DIMTICK_ARROW
 10
-2.0
 20
2.4492935982947064e-16
 30
0.0
 41
1.185145044794156
 42
1.185145044794156
 50
90.0
  0
INSERT
  8
DIMENSIONS
  2
DIMTICK_ARROW
 10
-2.0
 20
5.9257252239707805
 30
0.0
 41
1.185145044794156
 42
1.185145044794156
 50
270.0
  0
LINE
 62
7
  8
DIMENSIONS
 10
-2.0
 20
2.4492935982947064e-16
 30
0.0
 11
-2.0
 21
5.9257252239707805
 31
0.0
  0
LINE
 62
5
  8
DIMENSIONS
 10
-2.0
 20
2.4492935982947064e-16
 30
0.0
 11
-0.3
 21
3.6739403974420595e-17
 31
0.0
  0
LINE
 62
5
  8
DIMENSIONS
 10
-2.0
 20
5.9257252239707805
 30
0.0
 11
-0.3
 21
5.9257252239707805
 31
0.0
  0
TEXT
 62
7
  8
DIMENSIONS
 10
-2.5
 20
2.9628626119853902
 30
0.0
 40
0.6000000000000001
  1
6
 50
90.0
  7
ISOCPEUR
 72
1
 73
2
 11
-2.5
 21
2.9628626119853902
 31
0.0
  0
INSERT
  8
DIMENSIONS
  2
DIMTICK_ARROW
 10
-2.0
 20
2.4492935982947064e-16
 30
0.0
 41
1.185145044794156
 42
1.185145044794156
 50
90.0
  0
INSERT
  8
DIMENSIONS
  2
DIMTICK_ARROW
 10
-2.0
 20
5.9257252239707805
 30
0.0
 41
1.185145044794156
 42
1.185145044794156
 50
270.0
  0
LINE
 62
7
  8
DIMENSIONS
 10
-2.0
 20
2.4492935982947064e-16
 30
0.0
 11
-2.0
 21
5.9257252239707805
 31
0.0
  0
LINE
 62
5
  8
DIMENSIONS
 10
-2.0
 20
2.4492935982947064e-16
 30
0.0
 11
-0.3
 21
3.6739403974420595e-17
 31
0.0
  0
LINE
 62
5
  8
DIMENSIONS
 10
-2.0
 20
5.9257252239707805
 30
0.0
 11
-0.3
 21
5.9257252239707805
 31
0.0
  0
TEXT
 62
7
  8
DIMENSIONS
 10
-2.5
 20
2.9628626119853902
 30
0.0
 40
0.6000000000000001
  1
6
 50
90.0
  7
ISOCPEUR
 72
1
 73
2
 11
-2.5
 21
2.9628626119853902
 31
0.0
  0
INSERT
  8
DIMENSIONS
  2
DIMTICK_ARROW
 10
-2.0
 20
2.4492935982947064e-16
 30
0.0
 41
1.185145044794156
 42
1.185145044794156
 50
90.0
  0
INSERT
  8
DIMENSIONS
  2
DIMTICK_ARROW
 10
-2.0
 20
5.9257252239707805
 30
0.0
 41
1.185145044794156
 42
1.185145044794156
 50
270.0
  0
LINE
 62
7
  8
DIMENSIONS
 10
-2.0
 20
2.4492935982947064e-16
 30
0.0
 11
-2.0
 21
5.9257252239707805
 31
0.0
  0
LINE
 62
5
  8
DIMENSIONS
 10
-2.0
 20
2.4492935982947064e-16
 30
0.0
 11
-0.3
 21
3.6739403974420595e-17
 31
0.0
  0
LINE
 62
5
  8
DIMENSIONS
 10
-2.0
 20
5.9257252239707805
 30
0.0
 11
-0.3
 21
5.9257252239707805
 31
0.0
  0
TEXT
 62
7
  8
DIMENSIONS
 10
-2.5
 20
2.9628626119853902
 30
0.0
 40
0.6000000000000001
  1
6
 50
90.0
  7
ISOCPEUR
 72
1
 73
2
 11
-2.5
 21
2.9628626119853902
 31
0.0
  0
INSERT
  8
DIMENSIONS
  2
DIMTICK_ARROW
 10
-2.0
 20
2.4492935982947064e-16
 30
0.0
 41
1.185145044794156
 42
1.185145044794156
 50
90.0
  0
INSERT
  8
DIMENSIONS
  2
DIMTICK_ARROW
 10
-2.0
 20
5.9257252239707805
 30
0.0
 41
1.185145044794156
 42
1.185145044794156
 50
270.0
  0
LINE
 62
7
  8
DIMENSIONS
 10
-2.0
 20
2.4492935982947064e-16
 30
0.0
 11
-2.0
 21
5.9257252239707805
 31
0.0
  0
LINE
 62
5
  8
DIMENSIONS
 10
-2.0
 20
2.4492935982947064e-16
 30
0.0
 11
-0.3
 21
3.6739403974420595e-17
 31
0.0
  0
LINE
 62
5
  8
DIMENSIONS
 10
-2.0
 20
5.9257252239707805
 30
0.0
 11
-0.3
 21
5.9257252239707805
 31
0.0
  0
TEXT
 62
7
  8
DIMENSIONS
 10
-2.5
 20
2.9628626119853902
 30
0.0
 40
0.6000000000000001
  1
6
 50
90.0
  7
ISOCPEUR
 72
1
 73
2
 11
-2.5
 21
2.9628626119853902
 31
0.0
  0
INSERT
  8
DIMENSIONS
  2
DIMTICK_ARROW
 10
-2.0
 20
2.4492935982947064e-16
 30
0.0
 41
1.185145044794156
 42
1.185145044794156
 50
90.0
  0
INSERT
  8
DIMENSIONS
  2
DIMTICK_ARROW
 10
-2.0
 20
5.9257252239707805
 30
0.0
 41
1.185145044794156
 42
1.185145044794156
 50
270.0
  0
LINE
 62
7
  8
DIMENSIONS
 10
-2.0
 20
2.4492935982947064e-16
 30
0.0
 11
-2.0
 21
5.9257252239707805
 31
0.0
  0
LINE
 62
5
  8
DIMENSIONS
 10
-2.0
 20
2.4492935982947064e-16
 30
0.0
 11
-0.3
 21
3.6739403974420595e-17
 31
0.0
  0
LINE
 62
5
  8
DIMENSIONS
 10
-2.0
 20
5.9257252239707805
 30
0.0
 11
-0.3
 21
5.9257252239707805
 31
0.0
  0
TEXT
 62
7
  8
DIMENSIONS
 10
-2.5
 20
2.9628626119853902
 30
0.0
 40
0.6000000000000001
  1
6
 50
90.0
  7
ISOCPEUR
 72
1
 73
2
 11
-2.5
 21
2.9628626119853902
 31
0.0
  0
INSERT
  8
DIMENSIONS
  2
DIMTICK_ARROW
 10
-2.0
 20
2.4492935982947064e-16
 30
0.0
 41
1.185145044794156
 42
1.185145044794156
 50
90.0
  0
INSERT
  8
DIMENSIONS
  2
DIMTICK_ARROW
 10
-2.0
 20
5.9257252239707805
 30
0.0
 41
1.185145044794156
 42
1.185145044794156
 50
270.0
  0
LINE
 62
7
  8
DIMENSIONS
 10
-2.0
 20
2.4492935982947064e-16
 30
0.0
 11
-2.0
 21
5.9257252239707805
 31
0.0
  0
LINE
 62
5
  8
DIMENSIONS
 10
-2.0
 20
2.4492935982947064e-16
 30
0.0
 11
-0.3
 21
3.6739403974420595e-17
 31
0.0
  0
LINE
 62
5
  8
DIMENSIONS
 10
-2.0
 20
5.9257252239707805
 30
0.0
 11
-0.3
 21
5.9257252239707805
 31
0.0
  0
TEXT
 62
7
  8
DIMENSIONS
 10
-2.5
 20
2.9628626119853902
 30
0.0
 40
0.6000000000000001
  1
6
 50
90.0
  7
ISOCPEUR
 72
1
 73
2
 11
-2.5
 21
2.9628626119853902
 31
0.0
  0
INSERT
  8
DIMENSIONS
  2
DIMTICK_ARROW
 10
-2.0
 20
2.4492935982947064e-16
 30
0.0
 41
1.185145044794156
 42
1.185145044794156
 50
90.0
  0
INSERT
  8
DIMENSIONS
  2
DIMTICK_ARROW
 10
-2.0
 20
5.9257252239707805
 30
0.0
 41
1.185145044794156
 42
1.185145044794156
 50
270.0
  0
LINE
 62
7
  8
DIMENSIONS
 10
-2.0
 20
2.4492935982947064e-16
 30
0.0
 11
-2.0
 21
5.9257252239707805
 31
0.0
  0
LINE
 62
5
  8
DIMENSIONS
 10
-2.0
 20
2.4492935982947064e-16
 30
0.0
 11
-0.3
 21
3.6739403974420595e-17
 31
0.0
  0
LINE
 62
5
  8
DIMENSIONS
 10
-2.0
 20
5.9257252239707805
 30
0.0
 11
-0.3
 21
5.9257252239707805
 31
0.0
  0
TEXT
 62
7
  8
DIMENSIONS
 10
-2.5
 20
2.9628626119853902
 30
0.0
 40
0.6000000000000001
  1
6
 50
90.0
  7
ISOCPEUR
 72
1
 73
2
 11
-2.5
 21
2.9628626119853902
 31
0.0
  0
INSERT
  8
DIMENSIONS
  2
DIMTICK_ARROW
 10
-2.0
 20
2.4492935982947064e-16
 30
0.0
 41
1.185145044794156
 42
1.185145044794156
 50
90.0
  0
INSERT
  8
DIMENSIONS
  2
DIMTICK_ARROW
 10
-2.0
 20
5.9257252239707805
 30
0.0
 41
1.185145044794156
 42
1.185145044794156
 50
270.0
  0
LINE
 62
7
  8
DIMENSIONS
 10
-2.0
 20
2.4492935982947064e-16
 30
0.0
 11
-2.0
 21
5.9257252239707805
 31
0.0
  0
LINE
 62
5
  8
DIMENSIONS
 10
-2.0
 20
2.4492935982947064e-16
 30
0.0
 11
-0.3
 21
3.6739403974420595e-17
 31
0.0
  0
LINE
 62
5
  8
DIMENSIONS
 10
-2.0
 20
5.9257252239707805
 30
0.0
 11
-0.3
 21
5.9257252239707805
 31
0.0
  0
TEXT
 62
7
  8
DIMENSIONS
 10
-2.5
 20
2.9628626119853902
 30
0.0
 40
0.6000000000000001
  1
6
 50
90.0
  7
ISOCPEUR
 72
1
 73
2
 11
-2.5
 21
2.9628626119853902
 31
0.0
  0
INSERT
  8
DIMENSIONS
  2
DIMTICK_ARROW
 10
-2.0
 20
2.4492935982947064e-16
 30
0.0
 41
1.185145044794156
 42
1.185145044794156
 50
90.0
  0
INSERT
  8
DIMENSIONS
  2
DIMTICK_ARROW
 10
-2.0
 20
5.9257252239707805
 30
0.0
 41
1.185145044794156
 42
1.185145044794156
 50
270.0
  0
LINE
 62
7
  8
DIMENSIONS
 10
-2.0
 20
2.4492935982947064e-16
 30
0.0
 11
-2.0
 21
5.9257252239707805
 31
0.0
  0
LINE
 62
5
  8
DIMENSIONS
 10
-2.0
 20
2.4492935982947064e-16
 30
0.0
 11
-0.3
 21
3.6739403974420595e-17
 31
0.0
  0
LINE
 62
5
  8
DIMENSIONS
 10
-2.0
 20
5.9257252239707805
 30
0.0
 11
-0.3
 21
5.9257252239707805
 31
0.0
  0
TEXT
 62
7
  8
DIMENSIONS
 10
-2.5
 20
2.9628626119853902
 30
0.0
 40
0.6000000000000001
  1
6
 50
90.0
  7
ISOCPEUR
 72
1
 73
2
 11
-2.5
 21
2.9628626119853902
 31
0.0
  0
INSERT
  8
DIMENSIONS
  2
DIMTICK_ARROW
 10
-2.0
 20
2.4492935982947064e-16
 30
0.0
 41
1.185145044794156
 42
1.185145044794156
 50
90.0
  0
INSERT
  8
DIMENSIONS
  2
DIMTICK_ARROW
 10
-2.0
 20
5.9257252239707805
 30
0.0
 41
1.185145044794156
 42
1.185145044794156
 50
270.0
  0
LINE
 62
7
  8
DIMENSIONS
 10
-2.0
 20
2.4492935982947064e-16
 30
0.0
 11
-2.0
 21
5.9257252239707805
 31
0.0
  0
LINE
 62
5
  8
DIMENSIONS
 10
-2.0
 20
2.4492935982947064e-16
 30
0.0
 11
-0.3
 21
3.6739403974420595e-17
 31
0.0
  0
LINE
 62
5
  8
DIMENSIONS
 10
-2.0
 20
5.9257252239707805
 30
0.0
 11
-0.3
 21
5.9257252239707805
 31
0.0
  0
TEXT
 62
7
  8
DIMENSIONS
 10
-2.5
 20
2.9628626119853902
 30
0.0
 40
0.6000000000000001
  1
6
 50
90.0
  7
ISOCPEUR
 72
1
 73
2
 11
-2.5
 21
2.9628626119853902
 31
0.0
  0
INSERT
  8
DIMENSIONS
  2
DIMTICK_ARROW
 10
-2.0
 20
2.4492935982947064e-16
 30
0.0
 41
1.185145044794156
 42
1.185145044794156
 50
90.0
  0
INSERT
  8
DIMENSIONS
  2
DIMTICK_ARROW
 10
-2.0
 20
5.9257252239707805
 30
0.0
 41
1.185145044794156
 42
1.185145044794156
 50
270.0
  0
LINE
 62
7
  8
DIMENSIONS
 10
-2.0
 20
2.4492935982947064e-16
 30
0.0
 11
-2.0
 21
5.9257252239707805
 31
0.0
  0
LINE
 62
5
  8
DIMENSIONS
 10
-2.0
 20
2.4492935982947064e-16
 30
0.0
 11
-0.3
 21
3.6739403974420595e-17
 31
0.0
  0
LINE
 62
5
  8
DIMENSIONS
 10
-2.0
 20
5.9257252239707805
 30
0.0
 11
-0.3
 21
5.9257252239707805
 31
0.0
  0
TEXT
 62
7
  8
DIMENSIONS
 10
-2.5
 20
2.9628626119853902
 30
0.0
 40
0.6000000000000001
  1
6
 50
90.0
  7
ISOCPEUR
 72
1
 73
2
 11
-2.5
 21
2.9628626119853902
 31
0.0
  0
INSERT
  8
DIMENSIONS
  2
DIMTICK_ARROW
 10
-2.0
 20
2.4492935982947064e-16
 30
0.0
 41
1.185145044794156
 42
1.185145044794156
 50
90.0
  0
INSERT
  8
DIMENSIONS
  2
DIMTICK_ARROW
 10
-2.0
 20
5.9257252239707805
 30
0.0
 41
1.185145044794156
 42
1.185145044794156
 50
270.0
  0
LINE
 62
7
  8
DIMENSIONS
 10
-2.0
 20
2.4492935982947064e-16
 30
0.0
 11
-2.0
 21
5.9257252239707805
 31
0.0
  0
LINE
 62
5
  8
DIMENSIONS
 10
-2.0
 20
2.4492935982947064e-16
 30
0.0
 11
-0.3
 21
3.6739403974420595e-17
 31
0.0
  0
LINE
 62
5
  8
DIMENSIONS
 10
-2.0
 20
5.9257252239707805
 30
0.0
 11
-0.3
 21
5.9257252239707805
 31
0.0
  0
TEXT
 62
7
  8
DIMENSIONS
 10
-2.5
 20
2.9628626119853902
 30
0.0
 40
0.6000000000000001
  1
6
 50
90.0
  7
ISOCPEUR
 72
1
 73
2
 11
-2.5
 21
2.9628626119853902
 31
0.0
  0
INSERT
  8
DIMENSIONS
  2
DIMTICK_ARROW
 10
-2.0
 20
2.4492935982947064e-16
 30
0.0
 41
1.185145044794156
 42
1.185145044794156
 50
90.0
  0
INSERT
  8
DIMENSIONS
  2
DIMTICK_ARROW
 10
-2.0
 20
5.9257252239707805
 30
0.0
 41
1.185145044794156
 42
1.185145044794156
 50
270.0
  0
LINE
 62
3
  8
0
 10
32.06475760081967
 20
15.20936140819167
 30
0.0
 11
32.06475760081967
 21
21.200928023539905
 31
0.0
  0
LINE
 62
7
  8
DIMENSIONS
 10
32.66391426235449
 20
15.20936140819167
 30
0.0
 11
32.66391426235449
 21
21.200928023539905
 31
0.0
  0
LINE
 62
5
  8
DIMENSIONS
 10
32.66391426235449
 20
15.20936140819167
 30
0.0
 11
32.364757600819665
 21
15.20936140819167
 31
0.0
  0
LINE
 62
5
  8
DIMENSIONS
 10
32.66391426235449
 20
21.200928023539905
 30
0.0
 11
32.364757600819665
 21
21.200928023539905
 31
0.0
  0
TEXT
 62
7
  8
DIMENSIONS
 10
32.16391426235449
 20
18.20514471586579
 30
0.0
 40
0.6000000000000001
  1
6
 50
90.0
  7
ISOCPEUR
 72
1
 73
2
 11
32.16391426235449
 21
18.20514471586579
 31
0.0
  0
INSERT
  8
DIMENSIONS
  2
DIMTICK_ARROW
 10
32.66391426235449
 20
15.20936140819167
 30
0.0
 41
1.1983133230696468
 42
1.1983133230696468
 50
90.0
  0
INSERT
  8
DIMENSIONS
  2
DIMTICK_ARROW
 10
32.66391426235449
 20
21.200928023539905
 30
0.0
 41
1.1983133230696468
 42
1.1983133230696468
 50
270.0
  0
LINE
 62
7
  8
DIMENSIONS
 10
32.66391426235449
 20
15.20936140819167
 30
0.0
 11
32.66391426235449
 21
21.200928023539905
 31
0.0
  0
LINE
 62
5
  8
DIMENSIONS
 10
32.66391426235449
 20
15.20936140819167
 30
0.0
 11
32.364757600819665
 21
15.20936140819167
 31
0.0
  0
LINE
 62
5
  8
DIMENSIONS
 10
32.66391426235449
 20
21.200928023539905
 30
0.0
 11
32.364757600819665
 21
21.200928023539905
 31
0.0
  0
TEXT
 62
7
  8
DIMENSIONS
 10
32.16391426235449
 20
18.20514471586579
 30
0.0
 40
0.6000000000000001
  1
6
 50
90.0
  7
ISOCPEUR
 72
1
 73
2
 11
32.16391426235449
 21
18.20514471586579
 31
0.0
  0
INSERT
  8
DIMENSIONS
  2
DIMTICK_ARROW
 10
32.66391426235449
 20
15.20936140819167
 30
0.0
 41
1.1983133230696468
 42
1.1983133230696468
 50
90.0
  0
INSERT
  8
DIMENSIONS
  2
DIMTICK_ARROW
 10
32.66391426235449
 20
21.200928023539905
 30
0.0
 41
1.1983133230696468
 42
1.1983133230696468
 50
270.0
  0
LINE
 62
7
  8
DIMENSIONS
 10
32.66391426235449
 20
15.20936140819167
 30
0.0
 11
32.66391426235449
 21
21.200928023539905
 31
0.0
  0
LINE
 62
5
  8
DIMENSIONS
 10
32.66391426235449
 20
15.20936140819167
 30
0.0
 11
32.364757600819665
 21
15.20936140819167
 31
0.0
  0
LINE
 62
5
  8
DIMENSIONS
 10
32.66391426235449
 20
21.200928023539905
 30
0.0
 11
32.364757600819665
 21
21.200928023539905
 31
0.0
  0
TEXT
 62
7
  8
DIMENSIONS
 10
32.16391426235449
 20
18.20514471586579
 30
0.0
 40
0.6000000000000001
  1
6
 50
90.0
  7
ISOCPEUR
 72
1
 73
2
 11
32.16391426235449
 21
18.20514471586579
 31
0.0
  0
INSERT
  8
DIMENSIONS
  2
DIMTICK_ARROW
 10
32.66391426235449
 20
15.20936140819167
 30
0.0
 41
1.1983133230696468
 42
1.1983133230696468
 50
90.0
  0
INSERT
  8
DIMENSIONS
  2
DIMTICK_ARROW
 10
32.66391426235449
 20
21.200928023539905
 30
0.0
 41
1.1983133230696468
 42
1.1983133230696468
 50
270.0
  0
LINE
 62
7
  8
DIMENSIONS
 10
32.66391426235449
 20
15.20936140819167
 30
0.0
 11
32.66391426235449
 21
21.200928023539905
 31
0.0
  0
LINE
 62
5
  8
DIMENSIONS
 10
32.66391426235449
 20
15.20936140819167
 30
0.0
 11
32.364757600819665
 21
15.20936140819167
 31
0.0
  0
LINE
 62
5
  8
DIMENSIONS
 10
32.66391426235449
 20
21.200928023539905
 30
0.0
 11
32.364757600819665
 21
21.200928023539905
 31
0.0
  0
TEXT
 62
7
  8
DIMENSIONS
 10
32.16391426235449
 20
18.20514471586579
 30
0.0
 40
0.6000000000000001
  1
6
 50
90.0
  7
ISOCPEUR
 72
1
 73
2
 11
32.16391426235449
 21
18.20514471586579
 31
0.0
  0
INSERT
  8
DIMENSIONS
  2
DIMTICK_ARROW
 10
32.66391426235449
 20
15.20936140819167
 30
0.0
 41
1.1983133230696468
 42
1.1983133230696468
 50
90.0
  0
INSERT
  8
DIMENSIONS
  2
DIMTICK_ARROW
 10
32.66391426235449
 20
21.200928023539905
 30
0.0
 41
1.1983133230696468
 42
1.1983133230696468
 50
270.0
  0
LINE
 62
7
  8
DIMENSIONS
 10
32.66391426235449
 20
15.20936140819167
 30
0.0
 11
32.66391426235449
 21
21.200928023539905
 31
0.0
  0
LINE
 62
5
  8
DIMENSIONS
 10
32.66391426235449
 20
15.20936140819167
 30
0.0
 11
32.364757600819665
 21
15.20936140819167
 31
0.0
  0
LINE
 62
5
  8
DIMENSIONS
 10
32.66391426235449
 20
21.200928023539905
 30
0.0
 11
32.364757600819665
 21
21.200928023539905
 31
0.0
  0
TEXT
 62
7
  8
DIMENSIONS
 10
32.16391426235449
 20
18.20514471586579
 30
0.0
 40
0.6000000000000001
  1
6
 50
90.0
  7
ISOCPEUR
 72
1
 73
2
 11
32.16391426235449
 21
18.20514471586579
 31
0.0
  0
INSERT
  8
DIMENSIONS
  2
DIMTICK_ARROW
 10
32.66391426235449
 20
15.20936140819167
 30
0.0
 41
1.1983133230696468
 42
1.1983133230696468
 50
90.0
  0
INSERT
  8
DIMENSIONS
  2
DIMTICK_ARROW
 10
32.66391426235449
 20
21.200928023539905
 30
0.0
 41
1.1983133230696468
 42
1.1983133230696468
 50
270.0
  0
LINE
 62
7
  8
DIMENSIONS
 10
32.66391426235449
 20
15.20936140819167
 30
0.0
 11
32.66391426235449
 21
21.200928023539905
 31
0.0
  0
LINE
 62
5
  8
DIMENSIONS
 10
32.66391426235449
 20
15.20936140819167
 30
0.0
 11
32.364757600819665
 21
15.20936140819167
 31
0.0
  0
LINE
 62
5
  8
DIMENSIONS
 10
32.66391426235449
 20
21.200928023539905
 30
0.0
 11
32.364757600819665
 21
21.200928023539905
 31
0.0
  0
TEXT
 62
7
  8
DIMENSIONS
 10
32.16391426235449
 20
18.20514471586579
 30
0.0
 40
0.6000000000000001
  1
6
 50
90.0
  7
ISOCPEUR
 72
1
 73
2
 11
32.16391426235449
 21
18.20514471586579
 31
0.0
  0
INSERT
  8
DIMENSIONS
  2
DIMTICK_ARROW
 10
32.66391426235449
 20
15.20936140819167
 30
0.0
 41
1.1983133230696468
 42
1.1983133230696468
 50
90.0
  0
INSERT
  8
DIMENSIONS
  2
DIMTICK_ARROW
 10
32.66391426235449
 20
21.200928023539905
 30
0.0
 41
1.1983133230696468
 42
1.1983133230696468
 50
270.0
  0
LINE
 62
7
  8
DIMENSIONS
 10
32.66391426235449
 20
15.20936140819167
 30
0.0
 11
32.66391426235449
 21
21.200928023539905
 31
0.0
  0
LINE
 62
5
  8
DIMENSIONS
 10
32.66391426235449
 20
15.20936140819167
 30
0.0
 11
32.364757600819665
 21
15.20936140819167
 31
0.0
  0
LINE
 62
5
  8
DIMENSIONS
 10
32.66391426235449
 20
21.200928023539905
 30
0.0
 11
32.364757600819665
 21
21.200928023539905
 31
0.0
  0
TEXT
 62
7
  8
DIMENSIONS
 10
32.16391426235449
 20
18.20514471586579
 30
0.0
 40
0.6000000000000001
  1
6
 50
90.0
  7
ISOCPEUR
 72
1
 73
2
 11
32.16391426235449
 21
18.20514471586579
 31
0.0
  0
INSERT
  8
DIMENSIONS
  2
DIMTICK_ARROW
 10
32.66391426235449
 20
15.20936140819167
 30
0.0
 41
1.1983133230696468
 42
1.1983133230696468
 50
90.0
  0
INSERT
  8
DIMENSIONS
  2
DIMTICK_ARROW
 10
32.66391426235449
 20
21.200928023539905
 30
0.0
 41
1.1983133230696468
 42
1.1983133230696468
 50
270.0
  0
LINE
 62
7
  8
DIMENSIONS
 10
32.66391426235449
 20
15.20936140819167
 30
0.0
 11
32.66391426235449
 21
21.200928023539905
 31
0.0
  0
LINE
 62
5
  8
DIMENSIONS
 10
32.66391426235449
 20
15.20936140819167
 30
0.0
 11
32.364757600819665
 21
15.20936140819167
 31
0.0
  0
LINE
 62
5
  8
DIMENSIONS
 10
32.66391426235449
 20
21.200928023539905
 30
0.0
 11
32.364757600819665
 21
21.200928023539905
 31
0.0
  0
TEXT
 62
7
  8
DIMENSIONS
 10
32.16391426235449
 20
18.20514471586579
 30
0.0
 40
0.6000000000000001
  1
6
 50
90.0
  7
ISOCPEUR
 72
1
 73
2
 11
32.16391426235449
 21
18.20514471586579
 31
0.0
  0
INSERT
  8
DIMENSIONS
  2
DIMTICK_ARROW
 10
32.66391426235449
 20
15.20936140819167
 30
0.0
 41
1.1983133230696468
 42
1.1983133230696468
 50
90.0
  0
INSERT
  8
DIMENSIONS
  2
DIMTICK_ARROW
 10
32.66391426235449
 20
21.200928023539905
 30
0.0
 41
1.1983133230696468
 42
1.1983133230696468
 50
270.0
  0
LINE
 62
7
  8
DIMENSIONS
 10
32.66391426235449
 20
15.20936140819167
 30
0.0
 11
32.66391426235449
 21
21.200928023539905
 31
0.0
  0
LINE
 62
5
  8
DIMENSIONS
 10
32.66391426235449
 20
15.20936140819167
 30
0.0
 11
32.364757600819665
 21
15.20936140819167
 31
0.0
  0
LINE
 62
5
  8
DIMENSIONS
 10
32.66391426235449
 20
21.200928023539905
 30
0.0
 11
32.364757600819665
 21
21.200928023539905
 31
0.0
  0
TEXT
 62
7
  8
DIMENSIONS
 10
32.16391426235449
 20
18.20514471586579
 30
0.0
 40
0.6000000000000001
  1
6
 50
90.0
  7
ISOCPEUR
 72
1
 73
2
 11
32.16391426235449
 21
18.20514471586579
 31
0.0
  0
INSERT
  8
DIMENSIONS
  2
DIMTICK_ARROW
 10
32.66391426235449
 20
15.20936140819167
 30
0.0
 41
1.1983133230696468
 42
1.1983133230696468
 50
90.0
  0
INSERT
  8
DIMENSIONS
  2
DIMTICK_ARROW
 10
32.66391426235449
 20
21.200928023539905
 30
0.0
 41
1.1983133230696468
 42
1.1983133230696468
 50
270.0
  0
LINE
 62
7
  8
DIMENSIONS
 10
32.66391426235449
 20
15.20936140819167
 30
0.0
 11
32.66391426235449
 21
21.200928023539905
 31
0.0
  0
LINE
 62
5
  8
DIMENSIONS
 10
32.66391426235449
 20
15.20936140819167
 30
0.0
 11
32.364757600819665
 21
15.20936140819167
 31
0.0
  0
LINE
 62
5
  8
DIMENSIONS
 10
32.66391426235449
 20
21.200928023539905
 30
0.0
 11
32.364757600819665
 21
21.200928023539905
 31
0.0
  0
TEXT
 62
7
  8
DIMENSIONS
 10
32.16391426235449
 20
18.20514471586579
 30
0.0
 40
0.6000000000000001
  1
6
 50
90.0
  7
ISOCPEUR
 72
1
 73
2
 11
32.16391426235449
 21
18.20514471586579
 31
0.0
  0
INSERT
  8
DIMENSIONS
  2
DIMTICK_ARROW
 10
32.66391426235449
 20
15.20936140819167
 30
0.0
 41
1.1983133230696468
 42
1.1983133230696468
 50
90.0
  0
INSERT
  8
DIMENSIONS
  2
DIMTICK_ARROW
 10
32.66391426235449
 20
21.200928023539905
 30
0.0
 41
1.1983133230696468
 42
1.1983133230696468
 50
270.0
  0
LINE
 62
7
  8
DIMENSIONS
 10
32.66391426235449
 20
15.20936140819167
 30
0.0
 11
32.66391426235449
 21
21.200928023539905
 31
0.0
  0
LINE
 62
5
  8
DIMENSIONS
 10
32.66391426235449
 20
15.20936140819167
 30
0.0
 11
32.364757600819665
 21
15.20936140819167
 31
0.0
  0
LINE
 62
5
  8
DIMENSIONS
 10
32.66391426235449
 20
21.200928023539905
 30
0.0
 11
32.364757600819665
 21
21.200928023539905
 31
0.0
  0
TEXT
 62
7
  8
DIMENSIONS
 10
32.16391426235449
 20
18.20514471586579
 30
0.0
 40
0.6000000000000001
  1
6
 50
90.0
  7
ISOCPEUR
 72
1
 73
2
 11
32.16391426235449
 21
18.20514471586579
 31
0.0
  0
INSERT
  8
DIMENSIONS
  2
DIMTICK_ARROW
 10
32.66391426235449
 20
15.20936140819167
 30
0.0
 41
1.1983133230696468
 42
1.1983133230696468
 50
90.0
  0
INSERT
  8
DIMENSIONS
  2
DIMTICK_ARROW
 10
32.66391426235449
 20
21.200928023539905
 30
0.0
 41
1.1983133230696468
 42
1.1983133230696468
 50
270.0
  0
LINE
 62
7
  8
DIMENSIONS
 10
32.66391426235449
 20
15.20936140819167
 30
0.0
 11
32.66391426235449
 21
21.200928023539905
 31
0.0
  0
LINE
 62
5
  8
DIMENSIONS
 10
32.66391426235449
 20
15.20936140819167
 30
0.0
 11
32.364757600819665
 21
15.20936140819167
 31
0.0
  0
LINE
 62
5
  8
DIMENSIONS
 10
32.66391426235449
 20
21.200928023539905
 30
0.0
 11
32.364757600819665
 21
21.200928023539905
 31
0.0
  0
TEXT
 62
7
  8
DIMENSIONS
 10
32.16391426235449
 20
18.20514471586579
 30
0.0
 40
0.6000000000000001
  1
6
 50
90.0
  7
ISOCPEUR
 72
1
 73
2
 11
32.16391426235449
 21
18.20514471586579
 31
0.0
  0
INSERT
  8
DIMENSIONS
  2
DIMTICK_ARROW
 10
32.66391426235449
 20
15.20936140819167
 30
0.0
 41
1.1983133230696468
 42
1.1983133230696468
 50
90.0
  0
INSERT
  8
DIMENSIONS
  2
DIMTICK_ARROW
 10
32.66391426235449
 20
21.200928023539905
 30
0.0
 41
1.1983133230696468
 42
1.1983133230696468
 50
270.0
  0
LINE
 62
7
  8
DIMENSIONS
 10
32.66391426235449
 20
15.20936140819167
 30
0.0
 11
32.66391426235449
 21
21.200928023539905
 31
0.0
  0
LINE
 62
5
  8
DIMENSIONS
 10
32.66391426235449
 20
15.20936140819167
 30
0.0
 11
32.364757600819665
 21
15.20936140819167
 31
0.0
  0
LINE
 62
5
  8
DIMENSIONS
 10
32.66391426235449
 20
21.200928023539905
 30
0.0
 11
32.364757600819665
 21
21.200928023539905
 31
0.0
  0
TEXT
 62
7
  8
DIMENSIONS
 10
32.16391426235449
 20
18.20514471586579
 30
0.0
 40
0.6000000000000001
  1
6
 50
90.0
  7
ISOCPEUR
 72
1
 73
2
 11
32.16391426235449
 21
18.20514471586579
 31
0.0
  0
INSERT
  8
DIMENSIONS
  2
DIMTICK_ARROW
 10
32.66391426235449
 20
15.20936140819167
 30
0.0
 41
1.1983133230696468
 42
1.1983133230696468
 50
90.0
  0
INSERT
  8
DIMENSIONS
  2
DIMTICK_ARROW
 10
32.66391426235449
 20
21.200928023539905
 30
0.0
 41
1.1983133230696468
 42
1.1983133230696468
 50
270.0
  0
LINE
 62
7
  8
DIMENSIONS
 10
32.66391426235449
 20
15.20936140819167
 30
0.0
 11
32.66391426235449
 21
21.200928023539905
 31
0.0
  0
LINE
 62
5
  8
DIMENSIONS
 10
32.66391426235449
 20
15.20936140819167
 30
0.0
 11
32.364757600819665
 21
15.20936140819167
 31
0.0
  0
LINE
 62
5
  8
DIMENSIONS
 10
32.66391426235449
 20
21.200928023539905
 30
0.0
 11
32.364757600819665
 21
21.200928023539905
 31
0.0
  0
TEXT
 62
7
  8
DIMENSIONS
 10
32.16391426235449
 20
18.20514471586579
 30
0.0
 40
0.6000000000000001
  1
6
 50
90.0
  7
ISOCPEUR
 72
1
 73
2
 11
32.16391426235449
 21
18.20514471586579
 31
0.0
  0
INSERT
  8
DIMENSIONS
  2
DIMTICK_ARROW
 10
32.66391426235449
 20
15.20936140819167
 30
0.0
 41
1.1983133230696468
 42
1.1983133230696468
 50
90.0
  0
INSERT
  8
DIMENSIONS
  2
DIMTICK_ARROW
 10
32.66391426235449
 20
21.200928023539905
 30
0.0
 41
1.1983133230696468
 42
1.1983133230696468
 50
270.0
  0
LINE
 62
7
  8
DIMENSIONS
 10
32.66391426235449
 20
15.20936140819167
 30
0.0
 11
32.66391426235449
 21
21.200928023539905
 31
0.0
  0
LINE
 62
5
  8
DIMENSIONS
 10
32.66391426235449
 20
15.20936140819167
 30
0.0
 11
32.364757600819665
 21
15.20936140819167
 31
0.0
  0
LINE
 62
5
  8
DIMENSIONS
 10
32.66391426235449
 20
21.200928023539905
 30
0.0
 11
32.364757600819665
 21
21.200928023539905
 31
0.0
  0
TEXT
 62
7
  8
DIMENSIONS
 10
32.16391426235449
 20
18.20514471586579
 30
0.0
 40
0.6000000000000001
  1
6
 50
90.0
  7
ISOCPEUR
 72
1
 73
2
 11
32.16391426235449
 21
18.20514471586579
 31
0.0
  0
INSERT
  8
DIMENSIONS
  2
DIMTICK_ARROW
 10
32.66391426235449
 20
15.20936140819167
 30
0.0
 41
1.1983133230696468
 42
1.1983133230696468
 50
90.0
  0
INSERT
  8
DIMENSIONS
  2
DIMTICK_ARROW
 10
32.66391426235449
 20
21.200928023539905
 30
0.0
 41
1.1983133230696468
 42
1.1983133230696468
 50
270.0
  0
LINE
 62
7
  8
DIMENSIONS
 10
32.66391426235449
 20
15.20936140819167
 30
0.0
 11
32.66391426235449
 21
21.200928023539905
 31
0.0
  0
LINE
 62
5
  8
DIMENSIONS
 10
32.66391426235449
 20
15.20936140819167
 30
0.0
 11
32.364757600819665
 21
15.20936140819167
 31
0.0
  0
LINE
 62
5
  8
DIMENSIONS
 10
32.66391426235449
 20
21.200928023539905
 30
0.0
 11
32.364757600819665
 21
21.200928023539905
 31
0.0
  0
TEXT
 62
7
  8
DIMENSIONS
 10
32.16391426235449
 20
18.20514471586579
 30
0.0
 40
0.6000000000000001
  1
6
 50
90.0
  7
ISOCPEUR
 72
1
 73
2
 11
32.16391426235449
 21
18.20514471586579
 31
0.0
  0
INSERT
  8
DIMENSIONS
  2
DIMTICK_ARROW
 10
32.66391426235449
 20
15.20936140819167
 30
0.0
 41
1.1983133230696468
 42
1.1983133230696468
 50
90.0
  0
INSERT
  8
DIMENSIONS
  2
DIMTICK_ARROW
 10
32.66391426235449
 20
21.200928023539905
 30
0.0
 41
1.1983133230696468
 42
1.1983133230696468
 50
270.0
  0
LINE
 62
3
  8
0
 10
0.0
 20
15.20936140819167
 30
0.0
 11
0.0
 21
21.200928023539905
 31
0.0
  0
LINE
 62
3
  8
0
 10
8.098491139426734
 20
2.2386073068334063
 30
0.0
 11
8.098491139426734
 21
18.830637933951593
 31
0.0
  0
LINE
 62
7
  8
DIMENSIONS
 10
9.757694202138552
 20
2.238607306833406
 30
0.0
 11
9.757694202138552
 21
18.830637933951593
 31
0.0
  0
LINE
 62
5
  8
DIMENSIONS
 10
9.757694202138552
 20
2.238607306833406
 30
0.0
 11
8.398491139426735
 21
2.2386073068334063
 31
0.0
  0
LINE
 62
5
  8
DIMENSIONS
 10
9.757694202138552
 20
18.830637933951593
 30
0.0
 11
8.398491139426735
 21
18.830637933951593
 31
0.0
  0
TEXT
 62
7
  8
DIMENSIONS
 10
8.99680446249638
 20
10.534622620392499
 30
0.0
 40
1.1217794792843436
  1
17
 50
90.0
  7
ISOCPEUR
 72
1
 73
2
 11
8.99680446249638
 21
10.534622620392499
 31
0.0
  0
INSERT
  8
DIMENSIONS
  2
DIMTICK_ARROW
 10
9.757694202138552
 20
2.238607306833406
 30
0.0
 41
3.3184061254236368
 42
3.3184061254236368
 50
90.0
  0
INSERT
  8
DIMENSIONS
  2
DIMTICK_ARROW
 10
9.757694202138552
 20
18.830637933951593
 30
0.0
 41
3.3184061254236368
 42
3.3184061254236368
 50
270.0
  0
LINE
 62
7
  8
DIMENSIONS
 10
9.757694202138552
 20
2.238607306833406
 30
0.0
 11
9.757694202138552
 21
18.830637933951593
 31
0.0
  0
LINE
 62
5
  8
DIMENSIONS
 10
9.757694202138552
 20
2.238607306833406
 30
0.0
 11
8.398491139426735
 21
2.2386073068334063
 31
0.0
  0
LINE
 62
5
  8
DIMENSIONS
 10
9.757694202138552
 20
18.830637933951593
 30
0.0
 11
8.398491139426735
 21
18.830637933951593
 31
0.0
  0
TEXT
 62
7
  8
DIMENSIONS
 10
8.99680446249638
 20
10.534622620392499
 30
0.0
 40
1.1217794792843436
  1
17
 50
90.0
  7
ISOCPEUR
 72
1
 73
2
 11
8.99680446249638
 21
10.534622620392499
 31
0.0
  0
INSERT
  8
DIMENSIONS
  2
DIMTICK_ARROW
 10
9.757694202138552
 20
2.238607306833406
 30
0.0
 41
3.3184061254236368
 42
3.3184061254236368
 50
90.0
  0
INSERT
  8
DIMENSIONS
  2
DIMTICK_ARROW
 10
9.757694202138552
 20
18.830637933951593
 30
0.0
 41
3.3184061254236368
 42
3.3184061254236368
 50
270.0
  0
LINE
 62
7
  8
DIMENSIONS
 10
9.757694202138552
 20
2.238607306833406
 30
0.0
 11
9.757694202138552
 21
18.830637933951593
 31
0.0
  0
LINE
 62
5
  8
DIMENSIONS
 10
9.757694202138552
 20
2.238607306833406
 30
0.0
 11
8.398491139426735
 21
2.2386073068334063
 31
0.0
  0
LINE
 62
5
  8
DIMENSIONS
 10
9.757694202138552
 20
18.830637933951593
 30
0.0
 11
8.398491139426735
 21
18.830637933951593
 31
0.0
  0
TEXT
 62
7
  8
DIMENSIONS
 10
8.99680446249638
 20
10.534622620392499
 30
0.0
 40
1.1217794792843436
  1
17
 50
90.0
  7
ISOCPEUR
 72
1
 73
2
 11
8.99680446249638
 21
10.534622620392499
 31
0.0
  0
INSERT
  8
DIMENSIONS
  2
DIMTICK_ARROW
 10
9.757694202138552
 20
2.238607306833406
 30
0.0
 41
3.3184061254236368
 42
3.3184061254236368
 50
90.0
  0
INSERT
  8
DIMENSIONS
  2
DIMTICK_ARROW
 10
9.757694202138552
 20
18.830637933951593
 30
0.0
 41
3.3184061254236368
 42
3.3184061254236368
 50
270.0
  0
LINE
 62
7
  8
DIMENSIONS
 10
9.757694202138552
 20
2.238607306833406
 30
0.0
 11
9.757694202138552
 21
18.830637933951593
 31
0.0
  0
LINE
 62
5
  8
DIMENSIONS
 10
9.757694202138552
 20
2.238607306833406
 30
0.0
 11
8.398491139426735
 21
2.2386073068334063
 31
0.0
  0
LINE
 62
5
  8
DIMENSIONS
 10
9.757694202138552
 20
18.830637933951593
 30
0.0
 11
8.398491139426735
 21
18.830637933951593
 31
0.0
  0
TEXT
 62
7
  8
DIMENSIONS
 10
8.99680446249638
 20
10.534622620392499
 30
0.0
 40
1.1217794792843436
  1
17
 50
90.0
  7
ISOCPEUR
 72
1
 73
2
 11
8.99680446249638
 21
10.534622620392499
 31
0.0
  0
INSERT
  8
DIMENSIONS
  2
DIMTICK_ARROW
 10
9.757694202138552
 20
2.238607306833406
 30
0.0
 41
3.3184061254236368
 42
3.3184061254236368
 50
90.0
  0
INSERT
  8
DIMENSIONS
  2
DIMTICK_ARROW
 10
9.757694202138552
 20
18.830637933951593
 30
0.0
 41
3.3184061254236368
 42
3.3184061254236368
 50
270.0
  0
LINE
 62
7
  8
DIMENSIONS
 10
9.757694202138552
 20
2.238607306833406
 30
0.0
 11
9.757694202138552
 21
18.830637933951593
 31
0.0
  0
LINE
 62
5
  8
DIMENSIONS
 10
9.757694202138552
 20
2.238607306833406
 30
0.0
 11
8.398491139426735
 21
2.2386073068334063
 31
0.0
  0
LINE
 62
5
  8
DIMENSIONS
 10
9.757694202138552
 20
18.830637933951593
 30
0.0
 11
8.398491139426735
 21
18.830637933951593
 31
0.0
  0
TEXT
 62
7
  8
DIMENSIONS
 10
8.99680446249638
 20
10.534622620392499
 30
0.0
 40
1.1217794792843436
  1
17
 50
90.0
  7
ISOCPEUR
 72
1
 73
2
 11
8.99680446249638
 21
10.534622620392499
 31
0.0
  0
INSERT
  8
DIMENSIONS
  2
DIMTICK_ARROW
 10
9.757694202138552
 20
2.238607306833406
 30
0.0
 41
3.3184061254236368
 42
3.3184061254236368
 50
90.0
  0
INSERT
  8
DIMENSIONS
  2
DIMTICK_ARROW
 10
9.757694202138552
 20
18.830637933951593
 30
0.0
 41
3.3184061254236368
 42
3.3184061254236368
 50
270.0
  0
LINE
 62
7
  8
DIMENSIONS
 10
9.757694202138552
 20
2.238607306833406
 30
0.0
 11
9.757694202138552
 21
18.830637933951593
 31
0.0
  0
LINE
 62
5
  8
DIMENSIONS
 10
9.757694202138552
 20
2.238607306833406
 30
0.0
 11
8.398491139426735
 21
2.2386073068334063
 31
0.0
  0
LINE
 62
5
  8
DIMENSIONS
 10
9.757694202138552
 20
18.830637933951593
 30
0.0
 11
8.398491139426735
 21
18.830637933951593
 31
0.0
  0
TEXT
 62
7
  8
DIMENSIONS
 10
8.99680446249638
 20
10.534622620392499
 30
0.0
 40
1.1217794792843436
  1
17
 50
90.0
  7
ISOCPEUR
 72
1
 73
2
 11
8.99680446249638
 21
10.534622620392499
 31
0.0
  0
INSERT
  8
DIMENSIONS
  2
DIMTICK_ARROW
 10
9.757694202138552
 20
2.238607306833406
 30
0.0
 41
3.3184061254236368
 42
3.3184061254236368
 50
90.0
  0
INSERT
  8
DIMENSIONS
  2
DIMTICK_ARROW
 10
9.757694202138552
 20
18.830637933951593
 30
0.0
 41
3.3184061254236368
 42
3.3184061254236368
 50
270.0
  0
LINE
 62
7
  8
DIMENSIONS
 10
9.757694202138552
 20
2.238607306833406
 30
0.0
 11
9.757694202138552
 21
18.830637933951593
 31
0.0
  0
LINE
 62
5
  8
DIMENSIONS
 10
9.757694202138552
 20
2.238607306833406
 30
0.0
 11
8.398491139426735
 21
2.2386073068334063
 31
0.0
  0
LINE
 62
5
  8
DIMENSIONS
 10
9.757694202138552
 20
18.830637933951593
 30
0.0
 11
8.398491139426735
 21
18.830637933951593
 31
0.0
  0
TEXT
 62
7
  8
DIMENSIONS
 10
8.99680446249638
 20
10.534622620392499
 30
0.0
 40
1.1217794792843436
  1
17
 50
90.0
  7
ISOCPEUR
 72
1
 73
2
 11
8.99680446249638
 21
10.534622620392499
 31
0.0
  0
INSERT
  8
DIMENSIONS
  2
DIMTICK_ARROW
 10
9.757694202138552
 20
2.238607306833406
 30
0.0
 41
3.3184061254236368
 42
3.3184061254236368
 50
90.0
  0
INSERT
  8
DIMENSIONS
  2
DIMTICK_ARROW
 10
9.757694202138552
 20
18.830637933951593
 30
0.0
 41
3.3184061254236368
 42
3.3184061254236368
 50
270.0
  0
LINE
 62
7
  8
DIMENSIONS
 10
9.757694202138552
 20
2.238607306833406
 30
0.0
 11
9.757694202138552
 21
18.830637933951593
 31
0.0
  0
LINE
 62
5
  8
DIMENSIONS
 10
9.757694202138552
 20
2.238607306833406
 30
0.0
 11
8.398491139426735
 21
2.2386073068334063
 31
0.0
  0
LINE
 62
5
  8
DIMENSIONS
 10
9.757694202138552
 20
18.830637933951593
 30
0.0
 11
8.398491139426735
 21
18.830637933951593
 31
0.0
  0
TEXT
 62
7
  8
DIMENSIONS
 10
8.99680446249638
 20
10.534622620392499
 30
0.0
 40
1.1217794792843436
  1
17
 50
90.0
  7
ISOCPEUR
 72
1
 73
2
 11
8.99680446249638
 21
10.534622620392499
 31
0.0
  0
INSERT
  8
DIMENSIONS
  2
DIMTICK_ARROW
 10
9.757694202138552
 20
2.238607306833406
 30
0.0
 41
3.3184061254236368
 42
3.3184061254236368
 50
90.0
  0
INSERT
  8
DIMENSIONS
  2
DIMTICK_ARROW
 10
9.757694202138552
 20
18.830637933951593
 30
0.0
 41
3.3184061254236368
 42
3.3184061254236368
 50
270.0
  0
LINE
 62
7
  8
DIMENSIONS
 10
9.757694202138552
 20
2.238607306833406
 30
0.0
 11
9.757694202138552
 21
18.830637933951593
 31
0.0
  0
LINE
 62
5
  8
DIMENSIONS
 10
9.757694202138552
 20
2.238607306833406
 30
0.0
 11
8.398491139426735
 21
2.2386073068334063
 31
0.0
  0
LINE
 62
5
  8
DIMENSIONS
 10
9.757694202138552
 20
18.830637933951593
 30
0.0
 11
8.398491139426735
 21
18.830637933951593
 31
0.0
  0
TEXT
 62
7
  8
DIMENSIONS
 10
8.99680446249638
 20
10.534622620392499
 30
0.0
 40
1.1217794792843436
  1
17
 50
90.0
  7
ISOCPEUR
 72
1
 73
2
 11
8.99680446249638
 21
10.534622620392499
 31
0.0
  0
INSERT
  8
DIMENSIONS
  2
DIMTICK_ARROW
 10
9.757694202138552
 20
2.238607306833406
 30
0.0
 41
3.3184061254236368
 42
3.3184061254236368
 50
90.0
  0
INSERT
  8
DIMENSIONS
  2
DIMTICK_ARROW
 10
9.757694202138552
 20
18.830637933951593
 30
0.0
 41
3.3184061254236368
 42
3.3184061254236368
 50
270.0
  0
LINE
 62
7
  8
DIMENSIONS
 10
9.757694202138552
 20
2.238607306833406
 30
0.0
 11
9.757694202138552
 21
18.830637933951593
 31
0.0
  0
LINE
 62
5
  8
DIMENSIONS
 10
9.757694202138552
 20
2.238607306833406
 30
0.0
 11
8.398491139426735
 21
2.2386073068334063
 31
0.0
  0
LINE
 62
5
  8
DIMENSIONS
 10
9.757694202138552
 20
18.830637933951593
 30
0.0
 11
8.398491139426735
 21
18.830637933951593
 31
0.0
  0
TEXT
 62
7
  8
DIMENSIONS
 10
8.99680446249638
 20
10.534622620392499
 30
0.0
 40
1.1217794792843436
  1
17
 50
90.0
  7
ISOCPEUR
 72
1
 73
2
 11
8.99680446249638
 21
10.534622620392499
 31
0.0
  0
INSERT
  8
DIMENSIONS
  2
DIMTICK_ARROW
 10
9.757694202138552
 20
2.238607306833406
 30
0.0
 41
3.3184061254236368
 42
3.3184061254236368
 50
90.0
  0
INSERT
  8
DIMENSIONS
  2
DIMTICK_ARROW
 10
9.757694202138552
 20
18.830637933951593
 30
0.0
 41
3.3184061254236368
 42
3.3184061254236368
 50
270.0
  0
LINE
 62
7
  8
DIMENSIONS
 10
9.757694202138552
 20
2.238607306833406
 30
0.0
 11
9.757694202138552
 21
18.830637933951593
 31
0.0
  0
LINE
 62
5
  8
DIMENSIONS
 10
9.757694202138552
 20
2.238607306833406
 30
0.0
 11
8.398491139426735
 21
2.2386073068334063
 31
0.0
  0
LINE
 62
5
  8
DIMENSIONS
 10
9.757694202138552
 20
18.830637933951593
 30
0.0
 11
8.398491139426735
 21
18.830637933951593
 31
0.0
  0
TEXT
 62
7
  8
DIMENSIONS
 10
8.99680446249638
 20
10.534622620392499
 30
0.0
 40
1.1217794792843436
  1
17
 50
90.0
  7
ISOCPEUR
 72
1
 73
2
 11
8.99680446249638
 21
10.534622620392499
 31
0.0
  0
INSERT
  8
DIMENSIONS
  2
DIMTICK_ARROW
 10
9.757694202138552
 20
2.238607306833406
 30
0.0
 41
3.3184061254236368
 42
3.3184061254236368
 50
90.0
  0
INSERT
  8
DIMENSIONS
  2
DIMTICK_ARROW
 10
9.757694202138552
 20
18.830637933951593
 30
0.0
 41
3.3184061254236368
 42
3.3184061254236368
 50
270.0
  0
LINE
 62
7
  8
DIMENSIONS
 10
9.757694202138552
 20
2.238607306833406
 30
0.0
 11
9.757694202138552
 21
18.830637933951593
 31
0.0
  0
LINE
 62
5
  8
DIMENSIONS
 10
9.757694202138552
 20
2.238607306833406
 30
0.0
 11
8.398491139426735
 21
2.2386073068334063
 31
0.0
  0
LINE
 62
5
  8
DIMENSIONS
 10
9.757694202138552
 20
18.830637933951593
 30
0.0
 11
8.398491139426735
 21
18.830637933951593
 31
0.0
  0
TEXT
 62
7
  8
DIMENSIONS
 10
8.99680446249638
 20
10.534622620392499
 30
0.0
 40
1.1217794792843436
  1
17
 50
90.0
  7
ISOCPEUR
 72
1
 73
2
 11
8.99680446249638
 21
10.534622620392499
 31
0.0
  0
INSERT
  8
DIMENSIONS
  2
DIMTICK_ARROW
 10
9.757694202138552
 20
2.238607306833406
 30
0.0
 41
3.3184061254236368
 42
3.3184061254236368
 50
90.0
  0
INSERT
  8
DIMENSIONS
  2
DIMTICK_ARROW
 10
9.757694202138552
 20
18.830637933951593
 30
0.0
 41
3.3184061254236368
 42
3.3184061254236368
 50
270.0
  0
LINE
 62
7
  8
DIMENSIONS
 10
9.757694202138552
 20
2.238607306833406
 30
0.0
 11
9.757694202138552
 21
18.830637933951593
 31
0.0
  0
LINE
 62
5
  8
DIMENSIONS
 10
9.757694202138552
 20
2.238607306833406
 30
0.0
 11
8.398491139426735
 21
2.2386073068334063
 31
0.0
  0
LINE
 62
5
  8
DIMENSIONS
 10
9.757694202138552
 20
18.830637933951593
 30
0.0
 11
8.398491139426735
 21
18.830637933951593
 31
0.0
  0
TEXT
 62
7
  8
DIMENSIONS
 10
8.99680446249638
 20
10.534622620392499
 30
0.0
 40
1.1217794792843436
  1
17
 50
90.0
  7
ISOCPEUR
 72
1
 73
2
 11
8.99680446249638
 21
10.534622620392499
 31
0.0
  0
INSERT
  8
DIMENSIONS
  2
DIMTICK_ARROW
 10
9.757694202138552
 20
2.238607306833406
 30
0.0
 41
3.3184061254236368
 42
3.3184061254236368
 50
90.0
  0
INSERT
  8
DIMENSIONS
  2
DIMTICK_ARROW
 10
9.757694202138552
 20
18.830637933951593
 30
0.0
 41
3.3184061254236368
 42
3.3184061254236368
 50
270.0
  0
LINE
 62
7
  8
DIMENSIONS
 10
9.757694202138552
 20
2.238607306833406
 30
0.0
 11
9.757694202138552
 21
18.830637933951593
 31
0.0
  0
LINE
 62
5
  8
DIMENSIONS
 10
9.757694202138552
 20
2.238607306833406
 30
0.0
 11
8.398491139426735
 21
2.2386073068334063
 31
0.0
  0
LINE
 62
5
  8
DIMENSIONS
 10
9.757694202138552
 20
18.830637933951593
 30
0.0
 11
8.398491139426735
 21
18.830637933951593
 31
0.0
  0
TEXT
 62
7
  8
DIMENSIONS
 10
8.99680446249638
 20
10.534622620392499
 30
0.0
 40
1.1217794792843436
  1
17
 50
90.0
  7
ISOCPEUR
 72
1
 73
2
 11
8.99680446249638
 21
10.534622620392499
 31
0.0
  0
INSERT
  8
DIMENSIONS
  2
DIMTICK_ARROW
 10
9.757694202138552
 20
2.238607306833406
 30
0.0
 41
3.3184061254236368
 42
3.3184061254236368
 50
90.0
  0
INSERT
  8
DIMENSIONS
  2
DIMTICK_ARROW
 10
9.757694202138552
 20
18.830637933951593
 30
0.0
 41
3.3184061254236368
 42
3.3184061254236368
 50
270.0
  0
LINE
 62
3
  8
0
 10
2.765338437853031
 20
2.2386073068334063
 30
0.0
 11
2.765338437853031
 21
18.830637933951593
 31
0.0
  0
LINE
 62
3
  8
0
 10
32.06475760081967
 20
0.0
 30
0.0
 11
32.06475760081967
 21
4.740580179176624
 31
0.0
  0
LINE
 62
3
  8
0
 10
0.0
 20
0.0
 30
0.0
 11
0.0
 21
5.9257252239707805
 31
0.0
  0
LINE
 62
3
  8
0
 10
0.0
 20
15.20936140819167
 30
0.0
 11
0.0
 21
21.200928023539905
 31
0.0
  0
LINE
 62
3
  8
0
 10
32.06475760081967
 20
15.20936140819167
 30
0.0
 11
32.06475760081967
 21
21.200928023539905
 31
0.0
  0
LINE
 62
3
  8
0
 10
2.765338437853031
 20
2.2386073068334063
 30
0.0
 11
2.765338437853031
 21
18.830637933951593
 31
0.0
  0
LINE
 62
3
  8
0
 10
8.098491139426734
 20
2.2386073068334063
 30
0.0
 11
8.098491139426734
 21
18.830637933951593
 31
0.0
  0
LINE
 62
3
  8
0
 10
2.765338437853031
 20
2.2386073068334063
 30
0.0
 11
8.098491139426734
 21
2.2386073068334063
 31
0.0
  0
LINE
 62
3
  8
0
 10
2.765338437853031
 20
18.830637933951593
 30
0.0
 11
8.098491139426734
 21
18.830637933951593
 31
0.0
  0
LINE
 62
3
  8
0
 10
24.756363157922372
 20
0.0
 30
0.0
 11
32.06475760081967
 21
0.0
 31
0.0
  0
LINE
 62
3
  8
0
 10
0.0
 20
0.0
 30
0.0
 11
11.653926273809201
 21
0.0
 31
0.0
  0
LINE
 62
3
  8
0
 10
0.0
 20
21.200928023539905
 30
0.0
 11
32.06475760081967
 21
21.200928023539905
 31
0.0
  0
CIRCLE
 62
3
  8
0
 10
18.435589585686873
 20
9.481160358353248
 30
0.0
 40
4.740580179176624
  0
LINE
 62
7
  8
DIMENSIONS
 10
19.178728146669165
 20
13.147177973699662
 30
0.0
 11
19.377397477464225
 21
14.127244551540903
 31
0.0
  0
TEXT
 62
7
  8
DIMENSIONS
 10
19.13899428051015
 20
12.951164658131413
 30
0.0
 40
1.185145044794156
  1
R=5
 50
78.54084409738354
  7
ISOCPEUR
 72
2
 73
2
 11
19.13899428051015
 21
12.951164658131413
 31
0.0
  0
INSERT
  8
DIMENSIONS
  2
DIMTICK_RADIUS
 10
19.377397477464225
 20
14.127244551540903
 30
0.0
 41
3.1603867861177495
 42
3.1603867861177495
 50
258.5408440973835
  0
ENDSEC
  0
EOF
