  0
SECTION
  2
HEADER
  9
$ACADVER
  1
AC1009
  9
$INSBASE
 10
0.0
 20
0.0
 30
0.0
  9
$EXTMIN
 10
0.0
 20
0.0
 30
0.0
  9
$EXTMAX
 10
100.0
 20
100.0
 30
0.0
  9
$UNITMODE
 70
0
  9
$AUNITS
 70
0
  9
$ANGBASE
 50
0.0
  9
$ANGDIR
 70
0
  0
ENDSEC
  0
SECTION
  2
TABLES
  0
TABLE
  2
LTYPE
 70
19
  0
LTYPE
  2
CONTINUOUS
 70
0
  3
Solid
 72
65
 73
0
 40
0.0
  0
LTYPE
  2
CENTER
 70
0
  3
Center ____ _ ____ _ ____ _ ____ _ ____ _ ____
 72
65
 73
4
 40
2.0
 49
1.25
 49
-0.25
 49
0.25
 49
-0.25
  0
LTYPE
  2
CENTERX2
 70
0
  3
Center (2x) ________  __  ________  __  ________
 72
65
 73
4
 40
3.5
 49
2.5
 49
-0.25
 49
0.5
 49
-0.25
  0
LTYPE
  2
CENTER2
 70
0
  3
Center (.5x) ____ _ ____ _ ____ _ ____ _ ____
 72
65
 73
4
 40
1.0
 49
0.625
 49
-0.125
 49
0.125
 49
-0.125
  0
LTYPE
  2
DASHED
 70
0
  3
Dashed __ __ __ __ __ __ __ __ __ __ __ __ __ _
 72
65
 73
2
 40
0.6
 49
0.5
 49
-0.1
  0
LTYPE
  2
DASHEDX2
 70
0
  3
Dashed (2x) ____  ____  ____  ____  ____  ____
 72
65
 73
2
 40
1.2
 49
1.0
 49
-0.2
  0
LTYPE
  2
DASHED2
 70
0
  3
Dashed (.5x) _ _ _ _ _ _ _ _ _ _ _ _ _ _
 72
65
 73
2
 40
0.3
 49
0.25
 49
-0.05
  0
LTYPE
  2
PHANTOM
 70
0
  3
Phantom ______  __  __  ______  __  __  ______
 72
65
 73
6
 40
2.5
 49
1.25
 49
-0.25
 49
0.25
 49
-0.25
 49
0.25
 49
-0.25
  0
LTYPE
  2
PHANTOMX2
 70
0
  3
Phantom (2x)____________    ____    ____    ____________
 72
65
 73
6
 40
4.25
 49
2.5
 49
-0.25
 49
0.5
 49
-0.25
 49
0.5
 49
-0.25
  0
LTYPE
  2
PHANTOM2
 70
0
  3
Phantom (.5x) ___ _ _ ___ _ _ ___ _ _ ___ _ _ ___
 72
65
 73
6
 40
1.25
 49
0.625
 49
-0.125
 49
0.125
 49
-0.125
 49
0.125
 49
-0.125
  0
LTYPE
  2
DASHDOT
 70
0
  3
Dash dot __ . __ . __ . __ . __ . __ . __ . __
 72
65
 73
4
 40
1.4
 49
1.0
 49
-0.2
 49
0.0
 49
-0.2
  0
LTYPE
  2
DASHDOTX2
 70
0
  3
Dash dot (2x) ____  .  ____  .  ____  .  ____
 72
65
 73
4
 40
2.4
 49
2.0
 49
-0.2
 49
0.0
 49
-0.2
  0
LTYPE
  2
DASHDOT2
 70
0
  3
Dash dot (.5x) _ . _ . _ . _ . _ . _ . _ . _
 72
65
 73
4
 40
0.7
 49
0.5
 49
-0.1
 49
0.0
 49
-0.1
  0
LTYPE
  2
DOT
 70
0
  3
Dot .  .  .  .  .  .  .  .  .  .  .  .  .  .  .  .
 72
65
 73
2
 40
0.2
 49
0.0
 49
-0.2
  0
LTYPE
  2
DOTX2
 70
0
  3
Dot (2x) .    .    .    .    .    .    .    . 
 72
65
 73
2
 40
0.4
 49
0.0
 49
-0.4
  0
LTYPE
  2
DOT2
 70
0
  3
Dot (.5) . . . . . . . . . . . . . . . . . . . 
 72
65
 73
2
 40
0.1
 49
0.0
 49
-0.1
  0
LTYPE
  2
DIVIDE
 70
0
  3
Divide __ . . __ . . __ . . __ . . __ . . __
 72
65
 73
6
 40
1.6
 49
1.0
 49
-0.2
 49
0.0
 49
-0.2
 49
0.0
 49
-0.2
  0
LTYPE
  2
DIVIDEX2
 70
0
  3
Divide (2x) ____  . .  ____  . .  ____  . .  ____
 72
65
 73
6
 40
2.6
 49
2.0
 49
-0.2
 49
0.0
 49
-0.2
 49
0.0
 49
-0.2
  0
LTYPE
  2
DIVIDE2
 70
0
  3
Divide(.5x) _ . _ . _ . _ . _ . _ . _ . _
 72
65
 73
6
 40
0.8
 49
0.5
 49
-0.1
 49
0.0
 49
-0.1
 49
0.0
 49
-0.1
  0
ENDTAB
  0
TABLE
  2
LAYER
 70
5
  0
LAYER
  2
DIMENSIONS
 70
0
 62
1
  6
CONTINUOUS
  0
LAYER
  2
TABLEBACKGROUND
 70
0
 62
1
  6
CONTINUOUS
  0
LAYER
  2
TABLECONTENT
 70
0
 62
1
  6
CONTINUOUS
  0
LAYER
  2
TABLEGRID
 70
0
 62
1
  6
CONTINUOUS
  0
LAYER
  2
VIEWPORTS
 70
0
 62
7
  6
CONTINUOUS
  0
ENDTAB
  0
TABLE
  2
STYLE
 70
12
  0
STYLE
  2
STANDARD
 70
0
 40
0.0
 41
1.0
 42
1.0
 50
0.0
 71
0
  3
arial.ttf
  4

  0
STYLE
  2
ARIAL
 70
0
 40
0.0
 41
1.0
 42
1.0
 50
0.0
 71
0
  3
arial.ttf
  4

  0
STYLE
  2
ARIAL_BOLD
 70
0
 40
0.0
 41
1.0
 42
1.0
 50
0.0
 71
0
  3
arialbd.ttf
  4

  0
STYLE
  2
ARIAL_ITALIC
 70
0
 40
0.0
 41
1.0
 42
1.0
 50
0.0
 71
0
  3
ariali.ttf
  4

  0
STYLE
  2
ARIAL_BOLD_ITALIC
 70
0
 40
0.0
 41
1.0
 42
1.0
 50
0.0
 71
0
  3
arialbi.ttf
  4

  0
STYLE
  2
ARIAL_BLACK
 70
0
 40
0.0
 41
1.0
 42
1.0
 50
0.0
 71
0
  3
ariblk.ttf
  4

  0
STYLE
  2
ISOCPEUR
 70
0
 40
0.0
 41
1.0
 42
1.0
 50
0.0
 71
0
  3
isocpeur.ttf
  4

  0
STYLE
  2
ISOCPEUR_ITALIC
 70
0
 40
0.0
 41
1.0
 42
1.0
 50
0.0
 71
0
  3
isocpeui.ttf
  4

  0
STYLE
  2
TIMES
 70
0
 40
0.0
 41
1.0
 42
1.0
 50
0.0
 71
0
  3
times.ttf
  4

  0
STYLE
  2
TIMES_BOLD
 70
0
 40
0.0
 41
1.0
 42
1.0
 50
0.0
 71
0
  3
timesbd.ttf
  4

  0
STYLE
  2
TIMES_ITALIC
 70
0
 40
0.0
 41
1.0
 42
1.0
 50
0.0
 71
0
  3
timesi.ttf
  4

  0
STYLE
  2
TIMES_BOLD_ITALIC
 70
0
 40
0.0
 41
1.0
 42
1.0
 50
0.0
 71
0
  3
timesbi.ttf
  4

  0
ENDTAB
  0
TABLE
  2
VIEW
 70
0
  0
ENDTAB
  0
TABLE
  2
APPID
 70
1
  0
APPID
  2
DXFWRITE
 70
0
  0
ENDTAB
  0
TABLE
  2
VPORT
 70
0
  0
ENDTAB
  0
TABLE
  2
UCS
 70
0
  0
ENDTAB
  0
ENDSEC
  0
SECTION
  2
BLOCKS
  0
BLOCK
  8
0
  2
DIMTICK_ARCH
  3
DIMTICK_ARCH
 70
0
 10
0.0
 20
0.0
 30
0.0
  0
LINE
 62
5
  8
0
 10
0.0
 20
0.5
 30
0.0
 11
0.0
 21
-0.5
 31
0.0
  0
LINE
 62
4
  8
0
 10
-0.2
 20
-0.2
 30
0.0
 11
0.2
 21
0.2
 31
0.0
  0
ENDBLK
  0
BLOCK
  8
0
  2
DIMTICK_DOT
  3
DIMTICK_DOT
 70
0
 10
0.0
 20
0.0
 30
0.0
  0
LINE
 62
5
  8
0
 10
0.0
 20
0.5
 30
0.0
 11
0.0
 21
-0.5
 31
0.0
  0
CIRCLE
 62
4
  8
0
 10
0.0
 20
0.0
 30
0.0
 40
0.1
  0
ENDBLK
  0
BLOCK
  8
0
  2
DIMTICK_ARROW
  3
DIMTICK_ARROW
 70
0
 10
0.0
 20
0.0
 30
0.0
  0
LINE
 62
5
  8
0
 10
0.0
 20
0.5
 30
0.0
 11
0.0
 21
-0.5
 31
0.0
  0
SOLID
 62
7
  8
0
 10
0.0
 20
0.0
 30
0.0
 11
0.3
 21
0.05
 31
0.0
 13
0.3
 23
-0.05
 33
0.0
 12
0.3
 22
-0.05
 32
0.0
  0
ENDBLK
  0
BLOCK
  8
0
  2
DIMTICK_RADIUS
  3
DIMTICK_RADIUS
 70
0
 10
0.0
 20
0.0
 30
0.0
  0
SOLID
 62
7
  8
0
 10
0.0
 20
0.0
 30
0.0
 11
0.3
 21
0.05
 31
0.0
 13
0.25
 23
0.0
 33
0.0
 12
0.3
 22
-0.05
 32
0.0
  0
ENDBLK
  0
ENDSEC
  0
SECTION
  2
ENTITIES
  0
VIEWPORT
  8
VIEWPORTS
 67
1
 10
0.0
 20
0.0
 30
0.0
 40
1.0
 41
1.0
 68
1
 69
1
1001
ACAD
1000
MVIEW
1002
{
1070
16
1010
0.0
1020
0.0
1030
0.0
1010
0.0
1020
0.0
1030
0.0
1040
0.0
1040
1.0
1040
0.0
1040
0.0
1040
50.0
1040
0.0
1040
0.0
1070
0
1070
100
1070
1
1070
3
1070
0
1070
0
1070
0
1070
0
1040
0.0
1040
0.0
1040
0.0
1040
0.1
1040
0.1
1040
0.1
1040
0.1
1070
0
1002
{
1002
}
1002
}
  0
LINE
 62
3
  8
0
 10
1.9207380379903256
 20
9.329299041667296
 30
0.0
 11
9.123505680454047
 21
9.329299041667296
 31
0.0
  0
LINE
 62
7
  8
DIMENSIONS
 10
1.9207380379903256
 20
8.609022277420923
 30
0.0
 11
9.123505680454047
 21
8.609022277420923
 31
0.0
  0
LINE
 62
5
  8
DIMENSIONS
 10
1.9207380379903256
 20
8.609022277420923
 30
0.0
 11
1.9207380379903256
 21
9.101326718091933
 31
0.0
  0
LINE
 62
5
  8
DIMENSIONS
 10
9.123505680454047
 20
8.609022277420923
 30
0.0
 11
9.123505680454047
 21
9.101326718091933
 31
0.0
  0
TEXT
 62
7
  8
DIMENSIONS
 10
5.522121859222186
 20
9.10909915637825
 30
0.0
 40
0.6001537579146512
  1
7
 50
-0.0
  7
ISOCPEUR
 72
1
 73
2
 11
5.522121859222186
 21
9.10909915637825
 31
0.0
  0
INSERT
  8
DIMENSIONS
  2
DIMTICK_ARROW
 10
1.9207380379903256
 20
8.609022277420923
 30
0.0
 41
1.4405535284927442
 42
1.4405535284927442
 50
0.0
  0
INSERT
  8
DIMENSIONS
  2
DIMTICK_ARROW
 10
9.123505680454047
 20
8.609022277420923
 30
0.0
 41
1.4405535284927442
 42
1.4405535284927442
 50
180.0
  0
LINE
 62
7
  8
DIMENSIONS
 10
1.9207380379903256
 20
8.609022277420923
 30
0.0
 11
9.123505680454047
 21
8.609022277420923
 31
0.0
  0
LINE
 62
5
  8
DIMENSIONS
 10
1.9207380379903256
 20
8.609022277420923
 30
0.0
 11
1.9207380379903256
 21
9.101326718091933
 31
0.0
  0
LINE
 62
5
  8
DIMENSIONS
 10
9.123505680454047
 20
8.609022277420923
 30
0.0
 11
9.123505680454047
 21
9.101326718091933
 31
0.0
  0
TEXT
 62
7
  8
DIMENSIONS
 10
5.522121859222186
 20
9.10909915637825
 30
0.0
 40
0.6001537579146512
  1
7
 50
-0.0
  7
ISOCPEUR
 72
1
 73
2
 11
5.522121859222186
 21
9.10909915637825
 31
0.0
  0
INSERT
  8
DIMENSIONS
  2
DIMTICK_ARROW
 10
1.9207380379903256
 20
8.609022277420923
 30
0.0
 41
1.4405535284927442
 42
1.4405535284927442
 50
0.0
  0
INSERT
  8
DIMENSIONS
  2
DIMTICK_ARROW
 10
9.123505680454047
 20
8.609022277420923
 30
0.0
 41
1.4405535284927442
 42
1.4405535284927442
 50
180.0
  0
LINE
 62
7
  8
DIMENSIONS
 10
1.9207380379903256
 20
8.609022277420923
 30
0.0
 11
9.123505680454047
 21
8.609022277420923
 31
0.0
  0
LINE
 62
5
  8
DIMENSIONS
 10
1.9207380379903256
 20
8.609022277420923
 30
0.0
 11
1.9207380379903256
 21
9.101326718091933
 31
0.0
  0
LINE
 62
5
  8
DIMENSIONS
 10
9.123505680454047
 20
8.609022277420923
 30
0.0
 11
9.123505680454047
 21
9.101326718091933
 31
0.0
  0
TEXT
 62
7
  8
DIMENSIONS
 10
5.522121859222186
 20
9.10909915637825
 30
0.0
 40
0.6001537579146512
  1
7
 50
-0.0
  7
ISOCPEUR
 72
1
 73
2
 11
5.522121859222186
 21
9.10909915637825
 31
0.0
  0
INSERT
  8
DIMENSIONS
  2
DIMTICK_ARROW
 10
1.9207380379903256
 20
8.609022277420923
 30
0.0
 41
1.4405535284927442
 42
1.4405535284927442
 50
0.0
  0
INSERT
  8
DIMENSIONS
  2
DIMTICK_ARROW
 10
9.123505680454047
 20
8.609022277420923
 30
0.0
 41
1.4405535284927442
 42
1.4405535284927442
 50
180.0
  0
LINE
 62
7
  8
DIMENSIONS
 10
1.9207380379903256
 20
8.609022277420923
 30
0.0
 11
9.123505680454047
 21
8.609022277420923
 31
0.0
  0
LINE
 62
5
  8
DIMENSIONS
 10
1.9207380379903256
 20
8.609022277420923
 30
0.0
 11
1.9207380379903256
 21
9.101326718091933
 31
0.0
  0
LINE
 62
5
  8
DIMENSIONS
 10
9.123505680454047
 20
8.609022277420923
 30
0.0
 11
9.123505680454047
 21
9.101326718091933
 31
0.0
  0
TEXT
 62
7
  8
DIMENSIONS
 10
5.522121859222186
 20
9.10909915637825
 30
0.0
 40
0.6001537579146512
  1
7
 50
-0.0
  7
ISOCPEUR
 72
1
 73
2
 11
5.522121859222186
 21
9.10909915637825
 31
0.0
  0
INSERT
  8
DIMENSIONS
  2
DIMTICK_ARROW
 10
1.9207380379903256
 20
8.609022277420923
 30
0.0
 41
1.4405535284927442
 42
1.4405535284927442
 50
0.0
  0
INSERT
  8
DIMENSIONS
  2
DIMTICK_ARROW
 10
9.123505680454047
 20
8.609022277420923
 30
0.0
 41
1.4405535284927442
 42
1.4405535284927442
 50
180.0
  0
LINE
 62
7
  8
DIMENSIONS
 10
1.9207380379903256
 20
8.609022277420923
 30
0.0
 11
9.123505680454047
 21
8.609022277420923
 31
0.0
  0
LINE
 62
5
  8
DIMENSIONS
 10
1.9207380379903256
 20
8.609022277420923
 30
0.0
 11
1.9207380379903256
 21
9.101326718091933
 31
0.0
  0
LINE
 62
5
  8
DIMENSIONS
 10
9.123505680454047
 20
8.609022277420923
 30
0.0
 11
9.123505680454047
 21
9.101326718091933
 31
0.0
  0
TEXT
 62
7
  8
DIMENSIONS
 10
5.522121859222186
 20
9.10909915637825
 30
0.0
 40
0.6001537579146512
  1
7
 50
-0.0
  7
ISOCPEUR
 72
1
 73
2
 11
5.522121859222186
 21
9.10909915637825
 31
0.0
  0
INSERT
  8
DIMENSIONS
  2
DIMTICK_ARROW
 10
1.9207380379903256
 20
8.609022277420923
 30
0.0
 41
1.4405535284927442
 42
1.4405535284927442
 50
0.0
  0
INSERT
  8
DIMENSIONS
  2
DIMTICK_ARROW
 10
9.123505680454047
 20
8.609022277420923
 30
0.0
 41
1.4405535284927442
 42
1.4405535284927442
 50
180.0
  0
LINE
 62
7
  8
DIMENSIONS
 10
1.9207380379903256
 20
8.609022277420923
 30
0.0
 11
9.123505680454047
 21
8.609022277420923
 31
0.0
  0
LINE
 62
5
  8
DIMENSIONS
 10
1.9207380379903256
 20
8.609022277420923
 30
0.0
 11
1.9207380379903256
 21
9.101326718091933
 31
0.0
  0
LINE
 62
5
  8
DIMENSIONS
 10
9.123505680454047
 20
8.609022277420923
 30
0.0
 11
9.123505680454047
 21
9.101326718091933
 31
0.0
  0
TEXT
 62
7
  8
DIMENSIONS
 10
5.522121859222186
 20
9.10909915637825
 30
0.0
 40
0.6001537579146512
  1
7
 50
-0.0
  7
ISOCPEUR
 72
1
 73
2
 11
5.522121859222186
 21
9.10909915637825
 31
0.0
  0
INSERT
  8
DIMENSIONS
  2
DIMTICK_ARROW
 10
1.9207380379903256
 20
8.609022277420923
 30
0.0
 41
1.4405535284927442
 42
1.4405535284927442
 50
0.0
  0
INSERT
  8
DIMENSIONS
  2
DIMTICK_ARROW
 10
9.123505680454047
 20
8.609022277420923
 30
0.0
 41
1.4405535284927442
 42
1.4405535284927442
 50
180.0
  0
LINE
 62
7
  8
DIMENSIONS
 10
1.9207380379903256
 20
8.609022277420923
 30
0.0
 11
9.123505680454047
 21
8.609022277420923
 31
0.0
  0
LINE
 62
5
  8
DIMENSIONS
 10
1.9207380379903256
 20
8.609022277420923
 30
0.0
 11
1.9207380379903256
 21
9.101326718091933
 31
0.0
  0
LINE
 62
5
  8
DIMENSIONS
 10
9.123505680454047
 20
8.609022277420923
 30
0.0
 11
9.123505680454047
 21
9.101326718091933
 31
0.0
  0
TEXT
 62
7
  8
DIMENSIONS
 10
5.522121859222186
 20
9.10909915637825
 30
0.0
 40
0.6001537579146512
  1
7
 50
-0.0
  7
ISOCPEUR
 72
1
 73
2
 11
5.522121859222186
 21
9.10909915637825
 31
0.0
  0
INSERT
  8
DIMENSIONS
  2
DIMTICK_ARROW
 10
1.9207380379903256
 20
8.609022277420923
 30
0.0
 41
1.4405535284927442
 42
1.4405535284927442
 50
0.0
  0
INSERT
  8
DIMENSIONS
  2
DIMTICK_ARROW
 10
9.123505680454047
 20
8.609022277420923
 30
0.0
 41
1.4405535284927442
 42
1.4405535284927442
 50
180.0
  0
LINE
 62
7
  8
DIMENSIONS
 10
1.9207380379903256
 20
8.609022277420923
 30
0.0
 11
9.123505680454047
 21
8.609022277420923
 31
0.0
  0
LINE
 62
5
  8
DIMENSIONS
 10
1.9207380379903256
 20
8.609022277420923
 30
0.0
 11
1.9207380379903256
 21
9.101326718091933
 31
0.0
  0
LINE
 62
5
  8
DIMENSIONS
 10
9.123505680454047
 20
8.609022277420923
 30
0.0
 11
9.123505680454047
 21
9.101326718091933
 31
0.0
  0
TEXT
 62
7
  8
DIMENSIONS
 10
5.522121859222186
 20
9.10909915637825
 30
0.0
 40
0.6001537579146512
  1
7
 50
-0.0
  7
ISOCPEUR
 72
1
 73
2
 11
5.522121859222186
 21
9.10909915637825
 31
0.0
  0
INSERT
  8
DIMENSIONS
  2
DIMTICK_ARROW
 10
1.9207380379903256
 20
8.609022277420923
 30
0.0
 41
1.4405535284927442
 42
1.4405535284927442
 50
0.0
  0
INSERT
  8
DIMENSIONS
  2
DIMTICK_ARROW
 10
9.123505680454047
 20
8.609022277420923
 30
0.0
 41
1.4405535284927442
 42
1.4405535284927442
 50
180.0
  0
LINE
 62
7
  8
DIMENSIONS
 10
1.9207380379903256
 20
8.609022277420923
 30
0.0
 11
9.123505680454047
 21
8.609022277420923
 31
0.0
  0
LINE
 62
5
  8
DIMENSIONS
 10
1.9207380379903256
 20
8.609022277420923
 30
0.0
 11
1.9207380379903256
 21
9.101326718091933
 31
0.0
  0
LINE
 62
5
  8
DIMENSIONS
 10
9.123505680454047
 20
8.609022277420923
 30
0.0
 11
9.123505680454047
 21
9.101326718091933
 31
0.0
  0
TEXT
 62
7
  8
DIMENSIONS
 10
5.522121859222186
 20
9.10909915637825
 30
0.0
 40
0.6001537579146512
  1
7
 50
-0.0
  7
ISOCPEUR
 72
1
 73
2
 11
5.522121859222186
 21
9.10909915637825
 31
0.0
  0
INSERT
  8
DIMENSIONS
  2
DIMTICK_ARROW
 10
1.9207380379903256
 20
8.609022277420923
 30
0.0
 41
1.4405535284927442
 42
1.4405535284927442
 50
0.0
  0
INSERT
  8
DIMENSIONS
  2
DIMTICK_ARROW
 10
9.123505680454047
 20
8.609022277420923
 30
0.0
 41
1.4405535284927442
 42
1.4405535284927442
 50
180.0
  0
LINE
 62
7
  8
DIMENSIONS
 10
1.9207380379903256
 20
8.609022277420923
 30
0.0
 11
9.123505680454047
 21
8.609022277420923
 31
0.0
  0
LINE
 62
5
  8
DIMENSIONS
 10
1.9207380379903256
 20
8.609022277420923
 30
0.0
 11
1.9207380379903256
 21
9.101326718091933
 31
0.0
  0
LINE
 62
5
  8
DIMENSIONS
 10
9.123505680454047
 20
8.609022277420923
 30
0.0
 11
9.123505680454047
 21
9.101326718091933
 31
0.0
  0
TEXT
 62
7
  8
DIMENSIONS
 10
5.522121859222186
 20
9.10909915637825
 30
0.0
 40
0.6001537579146512
  1
7
 50
-0.0
  7
ISOCPEUR
 72
1
 73
2
 11
5.522121859222186
 21
9.10909915637825
 31
0.0
  0
INSERT
  8
DIMENSIONS
  2
DIMTICK_ARROW
 10
1.9207380379903256
 20
8.609022277420923
 30
0.0
 41
1.4405535284927442
 42
1.4405535284927442
 50
0.0
  0
INSERT
  8
DIMENSIONS
  2
DIMTICK_ARROW
 10
9.123505680454047
 20
8.609022277420923
 30
0.0
 41
1.4405535284927442
 42
1.4405535284927442
 50
180.0
  0
LINE
 62
7
  8
DIMENSIONS
 10
1.9207380379903256
 20
8.609022277420923
 30
0.0
 11
9.123505680454047
 21
8.609022277420923
 31
0.0
  0
LINE
 62
5
  8
DIMENSIONS
 10
1.9207380379903256
 20
8.609022277420923
 30
0.0
 11
1.9207380379903256
 21
9.101326718091933
 31
0.0
  0
LINE
 62
5
  8
DIMENSIONS
 10
9.123505680454047
 20
8.609022277420923
 30
0.0
 11
9.123505680454047
 21
9.101326718091933
 31
0.0
  0
TEXT
 62
7
  8
DIMENSIONS
 10
5.522121859222186
 20
9.10909915637825
 30
0.0
 40
0.6001537579146512
  1
7
 50
-0.0
  7
ISOCPEUR
 72
1
 73
2
 11
5.522121859222186
 21
9.10909915637825
 31
0.0
  0
INSERT
  8
DIMENSIONS
  2
DIMTICK_ARROW
 10
1.9207380379903256
 20
8.609022277420923
 30
0.0
 41
1.4405535284927442
 42
1.4405535284927442
 50
0.0
  0
INSERT
  8
DIMENSIONS
  2
DIMTICK_ARROW
 10
9.123505680454047
 20
8.609022277420923
 30
0.0
 41
1.4405535284927442
 42
1.4405535284927442
 50
180.0
  0
LINE
 62
7
  8
DIMENSIONS
 10
1.9207380379903256
 20
8.609022277420923
 30
0.0
 11
9.123505680454047
 21
8.609022277420923
 31
0.0
  0
LINE
 62
5
  8
DIMENSIONS
 10
1.9207380379903256
 20
8.609022277420923
 30
0.0
 11
1.9207380379903256
 21
9.101326718091933
 31
0.0
  0
LINE
 62
5
  8
DIMENSIONS
 10
9.123505680454047
 20
8.609022277420923
 30
0.0
 11
9.123505680454047
 21
9.101326718091933
 31
0.0
  0
TEXT
 62
7
  8
DIMENSIONS
 10
5.522121859222186
 20
9.10909915637825
 30
0.0
 40
0.6001537579146512
  1
7
 50
-0.0
  7
ISOCPEUR
 72
1
 73
2
 11
5.522121859222186
 21
9.10909915637825
 31
0.0
  0
INSERT
  8
DIMENSIONS
  2
DIMTICK_ARROW
 10
1.9207380379903256
 20
8.609022277420923
 30
0.0
 41
1.4405535284927442
 42
1.4405535284927442
 50
0.0
  0
INSERT
  8
DIMENSIONS
  2
DIMTICK_ARROW
 10
9.123505680454047
 20
8.609022277420923
 30
0.0
 41
1.4405535284927442
 42
1.4405535284927442
 50
180.0
  0
LINE
 62
7
  8
DIMENSIONS
 10
1.9207380379903256
 20
8.609022277420923
 30
0.0
 11
9.123505680454047
 21
8.609022277420923
 31
0.0
  0
LINE
 62
5
  8
DIMENSIONS
 10
1.9207380379903256
 20
8.609022277420923
 30
0.0
 11
1.9207380379903256
 21
9.101326718091933
 31
0.0
  0
LINE
 62
5
  8
DIMENSIONS
 10
9.123505680454047
 20
8.609022277420923
 30
0.0
 11
9.123505680454047
 21
9.101326718091933
 31
0.0
  0
TEXT
 62
7
  8
DIMENSIONS
 10
5.522121859222186
 20
9.10909915637825
 30
0.0
 40
0.6001537579146512
  1
7
 50
-0.0
  7
ISOCPEUR
 72
1
 73
2
 11
5.522121859222186
 21
9.10909915637825
 31
0.0
  0
INSERT
  8
DIMENSIONS
  2
DIMTICK_ARROW
 10
1.9207380379903256
 20
8.609022277420923
 30
0.0
 41
1.4405535284927442
 42
1.4405535284927442
 50
0.0
  0
INSERT
  8
DIMENSIONS
  2
DIMTICK_ARROW
 10
9.123505680454047
 20
8.609022277420923
 30
0.0
 41
1.4405535284927442
 42
1.4405535284927442
 50
180.0
  0
LINE
 62
7
  8
DIMENSIONS
 10
1.9207380379903256
 20
8.609022277420923
 30
0.0
 11
9.123505680454047
 21
8.609022277420923
 31
0.0
  0
LINE
 62
5
  8
DIMENSIONS
 10
1.9207380379903256
 20
8.609022277420923
 30
0.0
 11
1.9207380379903256
 21
9.101326718091933
 31
0.0
  0
LINE
 62
5
  8
DIMENSIONS
 10
9.123505680454047
 20
8.609022277420923
 30
0.0
 11
9.123505680454047
 21
9.101326718091933
 31
0.0
  0
TEXT
 62
7
  8
DIMENSIONS
 10
5.522121859222186
 20
9.10909915637825
 30
0.0
 40
0.6001537579146512
  1
7
 50
-0.0
  7
ISOCPEUR
 72
1
 73
2
 11
5.522121859222186
 21
9.10909915637825
 31
0.0
  0
INSERT
  8
DIMENSIONS
  2
DIMTICK_ARROW
 10
1.9207380379903256
 20
8.609022277420923
 30
0.0
 41
1.4405535284927442
 42
1.4405535284927442
 50
0.0
  0
INSERT
  8
DIMENSIONS
  2
DIMTICK_ARROW
 10
9.123505680454047
 20
8.609022277420923
 30
0.0
 41
1.4405535284927442
 42
1.4405535284927442
 50
180.0
  0
LINE
 62
7
  8
DIMENSIONS
 10
1.9207380379903256
 20
8.609022277420923
 30
0.0
 11
9.123505680454047
 21
8.609022277420923
 31
0.0
  0
LINE
 62
5
  8
DIMENSIONS
 10
1.9207380379903256
 20
8.609022277420923
 30
0.0
 11
1.9207380379903256
 21
9.101326718091933
 31
0.0
  0
LINE
 62
5
  8
DIMENSIONS
 10
9.123505680454047
 20
8.609022277420923
 30
0.0
 11
9.123505680454047
 21
9.101326718091933
 31
0.0
  0
TEXT
 62
7
  8
DIMENSIONS
 10
5.522121859222186
 20
9.10909915637825
 30
0.0
 40
0.6001537579146512
  1
7
 50
-0.0
  7
ISOCPEUR
 72
1
 73
2
 11
5.522121859222186
 21
9.10909915637825
 31
0.0
  0
INSERT
  8
DIMENSIONS
  2
DIMTICK_ARROW
 10
1.9207380379903256
 20
8.609022277420923
 30
0.0
 41
1.4405535284927442
 42
1.4405535284927442
 50
0.0
  0
INSERT
  8
DIMENSIONS
  2
DIMTICK_ARROW
 10
9.123505680454047
 20
8.609022277420923
 30
0.0
 41
1.4405535284927442
 42
1.4405535284927442
 50
180.0
  0
LINE
 62
7
  8
DIMENSIONS
 10
1.9207380379903256
 20
8.609022277420923
 30
0.0
 11
9.123505680454047
 21
8.609022277420923
 31
0.0
  0
LINE
 62
5
  8
DIMENSIONS
 10
1.9207380379903256
 20
8.609022277420923
 30
0.0
 11
1.9207380379903256
 21
9.101326718091933
 31
0.0
  0
LINE
 62
5
  8
DIMENSIONS
 10
9.123505680454047
 20
8.609022277420923
 30
0.0
 11
9.123505680454047
 21
9.101326718091933
 31
0.0
  0
TEXT
 62
7
  8
DIMENSIONS
 10
5.522121859222186
 20
9.10909915637825
 30
0.0
 40
0.6001537579146512
  1
7
 50
-0.0
  7
ISOCPEUR
 72
1
 73
2
 11
5.522121859222186
 21
9.10909915637825
 31
0.0
  0
INSERT
  8
DIMENSIONS
  2
DIMTICK_ARROW
 10
1.9207380379903256
 20
8.609022277420923
 30
0.0
 41
1.4405535284927442
 42
1.4405535284927442
 50
0.0
  0
INSERT
  8
DIMENSIONS
  2
DIMTICK_ARROW
 10
9.123505680454047
 20
8.609022277420923
 30
0.0
 41
1.4405535284927442
 42
1.4405535284927442
 50
180.0
  0
LINE
 62
7
  8
DIMENSIONS
 10
1.9207380379903256
 20
8.609022277420923
 30
0.0
 11
9.123505680454047
 21
8.609022277420923
 31
0.0
  0
LINE
 62
5
  8
DIMENSIONS
 10
1.9207380379903256
 20
8.609022277420923
 30
0.0
 11
1.9207380379903256
 21
9.101326718091933
 31
0.0
  0
LINE
 62
5
  8
DIMENSIONS
 10
9.123505680454047
 20
8.609022277420923
 30
0.0
 11
9.123505680454047
 21
9.101326718091933
 31
0.0
  0
TEXT
 62
7
  8
DIMENSIONS
 10
5.522121859222186
 20
9.10909915637825
 30
0.0
 40
0.6001537579146512
  1
7
 50
-0.0
  7
ISOCPEUR
 72
1
 73
2
 11
5.522121859222186
 21
9.10909915637825
 31
0.0
  0
INSERT
  8
DIMENSIONS
  2
DIMTICK_ARROW
 10
1.9207380379903256
 20
8.609022277420923
 30
0.0
 41
1.4405535284927442
 42
1.4405535284927442
 50
0.0
  0
INSERT
  8
DIMENSIONS
  2
DIMTICK_ARROW
 10
9.123505680454047
 20
8.609022277420923
 30
0.0
 41
1.4405535284927442
 42
1.4405535284927442
 50
180.0
  0
LINE
 62
7
  8
DIMENSIONS
 10
1.9207380379903256
 20
8.609022277420923
 30
0.0
 11
9.123505680454047
 21
8.609022277420923
 31
0.0
  0
LINE
 62
5
  8
DIMENSIONS
 10
1.9207380379903256
 20
8.609022277420923
 30
0.0
 11
1.9207380379903256
 21
9.101326718091933
 31
0.0
  0
LINE
 62
5
  8
DIMENSIONS
 10
9.123505680454047
 20
8.609022277420923
 30
0.0
 11
9.123505680454047
 21
9.101326718091933
 31
0.0
  0
TEXT
 62
7
  8
DIMENSIONS
 10
5.522121859222186
 20
9.10909915637825
 30
0.0
 40
0.6001537579146512
  1
7
 50
-0.0
  7
ISOCPEUR
 72
1
 73
2
 11
5.522121859222186
 21
9.10909915637825
 31
0.0
  0
INSERT
  8
DIMENSIONS
  2
DIMTICK_ARROW
 10
1.9207380379903256
 20
8.609022277420923
 30
0.0
 41
1.4405535284927442
 42
1.4405535284927442
 50
0.0
  0
INSERT
  8
DIMENSIONS
  2
DIMTICK_ARROW
 10
9.123505680454047
 20
8.609022277420923
 30
0.0
 41
1.4405535284927442
 42
1.4405535284927442
 50
180.0
  0
LINE
 62
7
  8
DIMENSIONS
 10
1.9207380379903256
 20
8.609022277420923
 30
0.0
 11
9.123505680454047
 21
8.609022277420923
 31
0.0
  0
LINE
 62
5
  8
DIMENSIONS
 10
1.9207380379903256
 20
8.609022277420923
 30
0.0
 11
1.9207380379903256
 21
9.101326718091933
 31
0.0
  0
LINE
 62
5
  8
DIMENSIONS
 10
9.123505680454047
 20
8.609022277420923
 30
0.0
 11
9.123505680454047
 21
9.101326718091933
 31
0.0
  0
TEXT
 62
7
  8
DIMENSIONS
 10
5.522121859222186
 20
9.10909915637825
 30
0.0
 40
0.6001537579146512
  1
7
 50
-0.0
  7
ISOCPEUR
 72
1
 73
2
 11
5.522121859222186
 21
9.10909915637825
 31
0.0
  0
INSERT
  8
DIMENSIONS
  2
DIMTICK_ARROW
 10
1.9207380379903256
 20
8.609022277420923
 30
0.0
 41
1.4405535284927442
 42
1.4405535284927442
 50
0.0
  0
INSERT
  8
DIMENSIONS
  2
DIMTICK_ARROW
 10
9.123505680454047
 20
8.609022277420923
 30
0.0
 41
1.4405535284927442
 42
1.4405535284927442
 50
180.0
  0
LINE
 62
7
  8
DIMENSIONS
 10
1.9207380379903256
 20
8.609022277420923
 30
0.0
 11
9.123505680454047
 21
8.609022277420923
 31
0.0
  0
LINE
 62
5
  8
DIMENSIONS
 10
1.9207380379903256
 20
8.609022277420923
 30
0.0
 11
1.9207380379903256
 21
9.101326718091933
 31
0.0
  0
LINE
 62
5
  8
DIMENSIONS
 10
9.123505680454047
 20
8.609022277420923
 30
0.0
 11
9.123505680454047
 21
9.101326718091933
 31
0.0
  0
TEXT
 62
7
  8
DIMENSIONS
 10
5.522121859222186
 20
9.10909915637825
 30
0.0
 40
0.6001537579146512
  1
7
 50
-0.0
  7
ISOCPEUR
 72
1
 73
2
 11
5.522121859222186
 21
9.10909915637825
 31
0.0
  0
INSERT
  8
DIMENSIONS
  2
DIMTICK_ARROW
 10
1.9207380379903256
 20
8.609022277420923
 30
0.0
 41
1.4405535284927442
 42
1.4405535284927442
 50
0.0
  0
INSERT
  8
DIMENSIONS
  2
DIMTICK_ARROW
 10
9.123505680454047
 20
8.609022277420923
 30
0.0
 41
1.4405535284927442
 42
1.4405535284927442
 50
180.0
  0
LINE
 62
7
  8
DIMENSIONS
 10
1.9207380379903256
 20
8.609022277420923
 30
0.0
 11
9.123505680454047
 21
8.609022277420923
 31
0.0
  0
LINE
 62
5
  8
DIMENSIONS
 10
1.9207380379903256
 20
8.609022277420923
 30
0.0
 11
1.9207380379903256
 21
9.101326718091933
 31
0.0
  0
LINE
 62
5
  8
DIMENSIONS
 10
9.123505680454047
 20
8.609022277420923
 30
0.0
 11
9.123505680454047
 21
9.101326718091933
 31
0.0
  0
TEXT
 62
7
  8
DIMENSIONS
 10
5.522121859222186
 20
9.10909915637825
 30
0.0
 40
0.6001537579146512
  1
7
 50
-0.0
  7
ISOCPEUR
 72
1
 73
2
 11
5.522121859222186
 21
9.10909915637825
 31
0.0
  0
INSERT
  8
DIMENSIONS
  2
DIMTICK_ARROW
 10
1.9207380379903256
 20
8.609022277420923
 30
0.0
 41
1.4405535284927442
 42
1.4405535284927442
 50
0.0
  0
INSERT
  8
DIMENSIONS
  2
DIMTICK_ARROW
 10
9.123505680454047
 20
8.609022277420923
 30
0.0
 41
1.4405535284927442
 42
1.4405535284927442
 50
180.0
  0
LINE
 62
7
  8
DIMENSIONS
 10
1.9207380379903256
 20
8.609022277420923
 30
0.0
 11
9.123505680454047
 21
8.609022277420923
 31
0.0
  0
LINE
 62
5
  8
DIMENSIONS
 10
1.9207380379903256
 20
8.609022277420923
 30
0.0
 11
1.9207380379903256
 21
9.101326718091933
 31
0.0
  0
LINE
 62
5
  8
DIMENSIONS
 10
9.123505680454047
 20
8.609022277420923
 30
0.0
 11
9.123505680454047
 21
9.101326718091933
 31
0.0
  0
TEXT
 62
7
  8
DIMENSIONS
 10
5.522121859222186
 20
9.10909915637825
 30
0.0
 40
0.6001537579146512
  1
7
 50
-0.0
  7
ISOCPEUR
 72
1
 73
2
 11
5.522121859222186
 21
9.10909915637825
 31
0.0
  0
INSERT
  8
DIMENSIONS
  2
DIMTICK_ARROW
 10
1.9207380379903256
 20
8.609022277420923
 30
0.0
 41
1.4405535284927442
 42
1.4405535284927442
 50
0.0
  0
INSERT
  8
DIMENSIONS
  2
DIMTICK_ARROW
 10
9.123505680454047
 20
8.609022277420923
 30
0.0
 41
1.4405535284927442
 42
1.4405535284927442
 50
180.0
  0
LINE
 62
7
  8
DIMENSIONS
 10
1.9207380379903256
 20
8.609022277420923
 30
0.0
 11
9.123505680454047
 21
8.609022277420923
 31
0.0
  0
LINE
 62
5
  8
DIMENSIONS
 10
1.9207380379903256
 20
8.609022277420923
 30
0.0
 11
1.9207380379903256
 21
9.101326718091933
 31
0.0
  0
LINE
 62
5
  8
DIMENSIONS
 10
9.123505680454047
 20
8.609022277420923
 30
0.0
 11
9.123505680454047
 21
9.101326718091933
 31
0.0
  0
TEXT
 62
7
  8
DIMENSIONS
 10
5.522121859222186
 20
9.10909915637825
 30
0.0
 40
0.6001537579146512
  1
7
 50
-0.0
  7
ISOCPEUR
 72
1
 73
2
 11
5.522121859222186
 21
9.10909915637825
 31
0.0
  0
INSERT
  8
DIMENSIONS
  2
DIMTICK_ARROW
 10
1.9207380379903256
 20
8.609022277420923
 30
0.0
 41
1.4405535284927442
 42
1.4405535284927442
 50
0.0
  0
INSERT
  8
DIMENSIONS
  2
DIMTICK_ARROW
 10
9.123505680454047
 20
8.609022277420923
 30
0.0
 41
1.4405535284927442
 42
1.4405535284927442
 50
180.0
  0
LINE
 62
7
  8
DIMENSIONS
 10
1.9207380379903256
 20
8.609022277420923
 30
0.0
 11
9.123505680454047
 21
8.609022277420923
 31
0.0
  0
LINE
 62
5
  8
DIMENSIONS
 10
1.9207380379903256
 20
8.609022277420923
 30
0.0
 11
1.9207380379903256
 21
9.101326718091933
 31
0.0
  0
LINE
 62
5
  8
DIMENSIONS
 10
9.123505680454047
 20
8.609022277420923
 30
0.0
 11
9.123505680454047
 21
9.101326718091933
 31
0.0
  0
TEXT
 62
7
  8
DIMENSIONS
 10
5.522121859222186
 20
9.10909915637825
 30
0.0
 40
0.6001537579146512
  1
7
 50
-0.0
  7
ISOCPEUR
 72
1
 73
2
 11
5.522121859222186
 21
9.10909915637825
 31
0.0
  0
INSERT
  8
DIMENSIONS
  2
DIMTICK_ARROW
 10
1.9207380379903256
 20
8.609022277420923
 30
0.0
 41
1.4405535284927442
 42
1.4405535284927442
 50
0.0
  0
INSERT
  8
DIMENSIONS
  2
DIMTICK_ARROW
 10
9.123505680454047
 20
8.609022277420923
 30
0.0
 41
1.4405535284927442
 42
1.4405535284927442
 50
180.0
  0
LINE
 62
7
  8
DIMENSIONS
 10
1.9207380379903256
 20
8.609022277420923
 30
0.0
 11
9.123505680454047
 21
8.609022277420923
 31
0.0
  0
LINE
 62
5
  8
DIMENSIONS
 10
1.9207380379903256
 20
8.609022277420923
 30
0.0
 11
1.9207380379903256
 21
9.101326718091933
 31
0.0
  0
LINE
 62
5
  8
DIMENSIONS
 10
9.123505680454047
 20
8.609022277420923
 30
0.0
 11
9.123505680454047
 21
9.101326718091933
 31
0.0
  0
TEXT
 62
7
  8
DIMENSIONS
 10
5.522121859222186
 20
9.10909915637825
 30
0.0
 40
0.6001537579146512
  1
7
 50
-0.0
  7
ISOCPEUR
 72
1
 73
2
 11
5.522121859222186
 21
9.10909915637825
 31
0.0
  0
INSERT
  8
DIMENSIONS
  2
DIMTICK_ARROW
 10
1.9207380379903256
 20
8.609022277420923
 30
0.0
 41
1.4405535284927442
 42
1.4405535284927442
 50
0.0
  0
INSERT
  8
DIMENSIONS
  2
DIMTICK_ARROW
 10
9.123505680454047
 20
8.609022277420923
 30
0.0
 41
1.4405535284927442
 42
1.4405535284927442
 50
180.0
  0
LINE
 62
3
  8
0
 10
1.9207380379903256
 20
27.370517041362138
 30
0.0
 11
9.123505680454047
 21
27.370517041362138
 31
0.0
  0
LINE
 62
3
  8
0
 10
26.89033253186456
 20
6.996974281250472
 30
0.0
 11
35.602251489892105
 21
6.996974281250472
 31
0.0
  0
LINE
 62
7
  8
DIMENSIONS
 10
26.89033253186456
 20
6.1257823854477165
 30
0.0
 11
35.602251489892105
 21
6.1257823854477165
 31
0.0
  0
LINE
 62
5
  8
DIMENSIONS
 10
26.89033253186456
 20
6.1257823854477165
 30
0.0
 11
26.89033253186456
 21
6.784093470830747
 31
0.0
  0
LINE
 62
5
  8
DIMENSIONS
 10
35.602251489892105
 20
6.1257823854477165
 30
0.0
 11
35.602251489892105
 21
6.784093470830747
 31
0.0
  0
TEXT
 62
7
  8
DIMENSIONS
 10
31.24629201087833
 20
6.667780134281815
 30
0.0
 40
0.6839954976681971
  1
9
 50
-0.0
  7
ISOCPEUR
 72
1
 73
2
 11
31.24629201087833
 21
6.667780134281815
 31
0.0
  0
INSERT
  8
DIMENSIONS
  2
DIMTICK_ARROW
 10
26.89033253186456
 20
6.1257823854477165
 30
0.0
 41
1.7423837916055096
 42
1.7423837916055096
 50
0.0
  0
INSERT
  8
DIMENSIONS
  2
DIMTICK_ARROW
 10
35.602251489892105
 20
6.1257823854477165
 30
0.0
 41
1.7423837916055096
 42
1.7423837916055096
 50
180.0
  0
LINE
 62
7
  8
DIMENSIONS
 10
26.89033253186456
 20
6.1257823854477165
 30
0.0
 11
35.602251489892105
 21
6.1257823854477165
 31
0.0
  0
LINE
 62
5
  8
DIMENSIONS
 10
26.89033253186456
 20
6.1257823854477165
 30
0.0
 11
26.89033253186456
 21
6.784093470830747
 31
0.0
  0
LINE
 62
5
  8
DIMENSIONS
 10
35.602251489892105
 20
6.1257823854477165
 30
0.0
 11
35.602251489892105
 21
6.784093470830747
 31
0.0
  0
TEXT
 62
7
  8
DIMENSIONS
 10
31.24629201087833
 20
6.667780134281815
 30
0.0
 40
0.6839954976681971
  1
9
 50
-0.0
  7
ISOCPEUR
 72
1
 73
2
 11
31.24629201087833
 21
6.667780134281815
 31
0.0
  0
INSERT
  8
DIMENSIONS
  2
DIMTICK_ARROW
 10
26.89033253186456
 20
6.1257823854477165
 30
0.0
 41
1.7423837916055096
 42
1.7423837916055096
 50
0.0
  0
INSERT
  8
DIMENSIONS
  2
DIMTICK_ARROW
 10
35.602251489892105
 20
6.1257823854477165
 30
0.0
 41
1.7423837916055096
 42
1.7423837916055096
 50
180.0
  0
LINE
 62
7
  8
DIMENSIONS
 10
26.89033253186456
 20
6.1257823854477165
 30
0.0
 11
35.602251489892105
 21
6.1257823854477165
 31
0.0
  0
LINE
 62
5
  8
DIMENSIONS
 10
26.89033253186456
 20
6.1257823854477165
 30
0.0
 11
26.89033253186456
 21
6.784093470830747
 31
0.0
  0
LINE
 62
5
  8
DIMENSIONS
 10
35.602251489892105
 20
6.1257823854477165
 30
0.0
 11
35.602251489892105
 21
6.784093470830747
 31
0.0
  0
TEXT
 62
7
  8
DIMENSIONS
 10
31.24629201087833
 20
6.667780134281815
 30
0.0
 40
0.6839954976681971
  1
9
 50
-0.0
  7
ISOCPEUR
 72
1
 73
2
 11
31.24629201087833
 21
6.667780134281815
 31
0.0
  0
INSERT
  8
DIMENSIONS
  2
DIMTICK_ARROW
 10
26.89033253186456
 20
6.1257823854477165
 30
0.0
 41
1.7423837916055096
 42
1.7423837916055096
 50
0.0
  0
INSERT
  8
DIMENSIONS
  2
DIMTICK_ARROW
 10
35.602251489892105
 20
6.1257823854477165
 30
0.0
 41
1.7423837916055096
 42
1.7423837916055096
 50
180.0
  0
LINE
 62
7
  8
DIMENSIONS
 10
26.89033253186456
 20
6.1257823854477165
 30
0.0
 11
35.602251489892105
 21
6.1257823854477165
 31
0.0
  0
LINE
 62
5
  8
DIMENSIONS
 10
26.89033253186456
 20
6.1257823854477165
 30
0.0
 11
26.89033253186456
 21
6.784093470830747
 31
0.0
  0
LINE
 62
5
  8
DIMENSIONS
 10
35.602251489892105
 20
6.1257823854477165
 30
0.0
 11
35.602251489892105
 21
6.784093470830747
 31
0.0
  0
TEXT
 62
7
  8
DIMENSIONS
 10
31.24629201087833
 20
6.667780134281815
 30
0.0
 40
0.6839954976681971
  1
9
 50
-0.0
  7
ISOCPEUR
 72
1
 73
2
 11
31.24629201087833
 21
6.667780134281815
 31
0.0
  0
INSERT
  8
DIMENSIONS
  2
DIMTICK_ARROW
 10
26.89033253186456
 20
6.1257823854477165
 30
0.0
 41
1.7423837916055096
 42
1.7423837916055096
 50
0.0
  0
INSERT
  8
DIMENSIONS
  2
DIMTICK_ARROW
 10
35.602251489892105
 20
6.1257823854477165
 30
0.0
 41
1.7423837916055096
 42
1.7423837916055096
 50
180.0
  0
LINE
 62
7
  8
DIMENSIONS
 10
26.89033253186456
 20
6.1257823854477165
 30
0.0
 11
35.602251489892105
 21
6.1257823854477165
 31
0.0
  0
LINE
 62
5
  8
DIMENSIONS
 10
26.89033253186456
 20
6.1257823854477165
 30
0.0
 11
26.89033253186456
 21
6.784093470830747
 31
0.0
  0
LINE
 62
5
  8
DIMENSIONS
 10
35.602251489892105
 20
6.1257823854477165
 30
0.0
 11
35.602251489892105
 21
6.784093470830747
 31
0.0
  0
TEXT
 62
7
  8
DIMENSIONS
 10
31.24629201087833
 20
6.667780134281815
 30
0.0
 40
0.6839954976681971
  1
9
 50
-0.0
  7
ISOCPEUR
 72
1
 73
2
 11
31.24629201087833
 21
6.667780134281815
 31
0.0
  0
INSERT
  8
DIMENSIONS
  2
DIMTICK_ARROW
 10
26.89033253186456
 20
6.1257823854477165
 30
0.0
 41
1.7423837916055096
 42
1.7423837916055096
 50
0.0
  0
INSERT
  8
DIMENSIONS
  2
DIMTICK_ARROW
 10
35.602251489892105
 20
6.1257823854477165
 30
0.0
 41
1.7423837916055096
 42
1.7423837916055096
 50
180.0
  0
LINE
 62
7
  8
DIMENSIONS
 10
26.89033253186456
 20
6.1257823854477165
 30
0.0
 11
35.602251489892105
 21
6.1257823854477165
 31
0.0
  0
LINE
 62
5
  8
DIMENSIONS
 10
26.89033253186456
 20
6.1257823854477165
 30
0.0
 11
26.89033253186456
 21
6.784093470830747
 31
0.0
  0
LINE
 62
5
  8
DIMENSIONS
 10
35.602251489892105
 20
6.1257823854477165
 30
0.0
 11
35.602251489892105
 21
6.784093470830747
 31
0.0
  0
TEXT
 62
7
  8
DIMENSIONS
 10
31.24629201087833
 20
6.667780134281815
 30
0.0
 40
0.6839954976681971
  1
9
 50
-0.0
  7
ISOCPEUR
 72
1
 73
2
 11
31.24629201087833
 21
6.667780134281815
 31
0.0
  0
INSERT
  8
DIMENSIONS
  2
DIMTICK_ARROW
 10
26.89033253186456
 20
6.1257823854477165
 30
0.0
 41
1.7423837916055096
 42
1.7423837916055096
 50
0.0
  0
INSERT
  8
DIMENSIONS
  2
DIMTICK_ARROW
 10
35.602251489892105
 20
6.1257823854477165
 30
0.0
 41
1.7423837916055096
 42
1.7423837916055096
 50
180.0
  0
LINE
 62
7
  8
DIMENSIONS
 10
26.89033253186456
 20
6.1257823854477165
 30
0.0
 11
35.602251489892105
 21
6.1257823854477165
 31
0.0
  0
LINE
 62
5
  8
DIMENSIONS
 10
26.89033253186456
 20
6.1257823854477165
 30
0.0
 11
26.89033253186456
 21
6.784093470830747
 31
0.0
  0
LINE
 62
5
  8
DIMENSIONS
 10
35.602251489892105
 20
6.1257823854477165
 30
0.0
 11
35.602251489892105
 21
6.784093470830747
 31
0.0
  0
TEXT
 62
7
  8
DIMENSIONS
 10
31.24629201087833
 20
6.667780134281815
 30
0.0
 40
0.6839954976681971
  1
9
 50
-0.0
  7
ISOCPEUR
 72
1
 73
2
 11
31.24629201087833
 21
6.667780134281815
 31
0.0
  0
INSERT
  8
DIMENSIONS
  2
DIMTICK_ARROW
 10
26.89033253186456
 20
6.1257823854477165
 30
0.0
 41
1.7423837916055096
 42
1.7423837916055096
 50
0.0
  0
INSERT
  8
DIMENSIONS
  2
DIMTICK_ARROW
 10
35.602251489892105
 20
6.1257823854477165
 30
0.0
 41
1.7423837916055096
 42
1.7423837916055096
 50
180.0
  0
LINE
 62
7
  8
DIMENSIONS
 10
26.89033253186456
 20
6.1257823854477165
 30
0.0
 11
35.602251489892105
 21
6.1257823854477165
 31
0.0
  0
LINE
 62
5
  8
DIMENSIONS
 10
26.89033253186456
 20
6.1257823854477165
 30
0.0
 11
26.89033253186456
 21
6.784093470830747
 31
0.0
  0
LINE
 62
5
  8
DIMENSIONS
 10
35.602251489892105
 20
6.1257823854477165
 30
0.0
 11
35.602251489892105
 21
6.784093470830747
 31
0.0
  0
TEXT
 62
7
  8
DIMENSIONS
 10
31.24629201087833
 20
6.667780134281815
 30
0.0
 40
0.6839954976681971
  1
9
 50
-0.0
  7
ISOCPEUR
 72
1
 73
2
 11
31.24629201087833
 21
6.667780134281815
 31
0.0
  0
INSERT
  8
DIMENSIONS
  2
DIMTICK_ARROW
 10
26.89033253186456
 20
6.1257823854477165
 30
0.0
 41
1.7423837916055096
 42
1.7423837916055096
 50
0.0
  0
INSERT
  8
DIMENSIONS
  2
DIMTICK_ARROW
 10
35.602251489892105
 20
6.1257823854477165
 30
0.0
 41
1.7423837916055096
 42
1.7423837916055096
 50
180.0
  0
LINE
 62
7
  8
DIMENSIONS
 10
26.89033253186456
 20
6.1257823854477165
 30
0.0
 11
35.602251489892105
 21
6.1257823854477165
 31
0.0
  0
LINE
 62
5
  8
DIMENSIONS
 10
26.89033253186456
 20
6.1257823854477165
 30
0.0
 11
26.89033253186456
 21
6.784093470830747
 31
0.0
  0
LINE
 62
5
  8
DIMENSIONS
 10
35.602251489892105
 20
6.1257823854477165
 30
0.0
 11
35.602251489892105
 21
6.784093470830747
 31
0.0
  0
TEXT
 62
7
  8
DIMENSIONS
 10
31.24629201087833
 20
6.667780134281815
 30
0.0
 40
0.6839954976681971
  1
9
 50
-0.0
  7
ISOCPEUR
 72
1
 73
2
 11
31.24629201087833
 21
6.667780134281815
 31
0.0
  0
INSERT
  8
DIMENSIONS
  2
DIMTICK_ARROW
 10
26.89033253186456
 20
6.1257823854477165
 30
0.0
 41
1.7423837916055096
 42
1.7423837916055096
 50
0.0
  0
INSERT
  8
DIMENSIONS
  2
DIMTICK_ARROW
 10
35.602251489892105
 20
6.1257823854477165
 30
0.0
 41
1.7423837916055096
 42
1.7423837916055096
 50
180.0
  0
LINE
 62
7
  8
DIMENSIONS
 10
26.89033253186456
 20
6.1257823854477165
 30
0.0
 11
35.602251489892105
 21
6.1257823854477165
 31
0.0
  0
LINE
 62
5
  8
DIMENSIONS
 10
26.89033253186456
 20
6.1257823854477165
 30
0.0
 11
26.89033253186456
 21
6.784093470830747
 31
0.0
  0
LINE
 62
5
  8
DIMENSIONS
 10
35.602251489892105
 20
6.1257823854477165
 30
0.0
 11
35.602251489892105
 21
6.784093470830747
 31
0.0
  0
TEXT
 62
7
  8
DIMENSIONS
 10
31.24629201087833
 20
6.667780134281815
 30
0.0
 40
0.6839954976681971
  1
9
 50
-0.0
  7
ISOCPEUR
 72
1
 73
2
 11
31.24629201087833
 21
6.667780134281815
 31
0.0
  0
INSERT
  8
DIMENSIONS
  2
DIMTICK_ARROW
 10
26.89033253186456
 20
6.1257823854477165
 30
0.0
 41
1.7423837916055096
 42
1.7423837916055096
 50
0.0
  0
INSERT
  8
DIMENSIONS
  2
DIMTICK_ARROW
 10
35.602251489892105
 20
6.1257823854477165
 30
0.0
 41
1.7423837916055096
 42
1.7423837916055096
 50
180.0
  0
LINE
 62
7
  8
DIMENSIONS
 10
26.89033253186456
 20
6.1257823854477165
 30
0.0
 11
35.602251489892105
 21
6.1257823854477165
 31
0.0
  0
LINE
 62
5
  8
DIMENSIONS
 10
26.89033253186456
 20
6.1257823854477165
 30
0.0
 11
26.89033253186456
 21
6.784093470830747
 31
0.0
  0
LINE
 62
5
  8
DIMENSIONS
 10
35.602251489892105
 20
6.1257823854477165
 30
0.0
 11
35.602251489892105
 21
6.784093470830747
 31
0.0
  0
TEXT
 62
7
  8
DIMENSIONS
 10
31.24629201087833
 20
6.667780134281815
 30
0.0
 40
0.6839954976681971
  1
9
 50
-0.0
  7
ISOCPEUR
 72
1
 73
2
 11
31.24629201087833
 21
6.667780134281815
 31
0.0
  0
INSERT
  8
DIMENSIONS
  2
DIMTICK_ARROW
 10
26.89033253186456
 20
6.1257823854477165
 30
0.0
 41
1.7423837916055096
 42
1.7423837916055096
 50
0.0
  0
INSERT
  8
DIMENSIONS
  2
DIMTICK_ARROW
 10
35.602251489892105
 20
6.1257823854477165
 30
0.0
 41
1.7423837916055096
 42
1.7423837916055096
 50
180.0
  0
LINE
 62
7
  8
DIMENSIONS
 10
26.89033253186456
 20
6.1257823854477165
 30
0.0
 11
35.602251489892105
 21
6.1257823854477165
 31
0.0
  0
LINE
 62
5
  8
DIMENSIONS
 10
26.89033253186456
 20
6.1257823854477165
 30
0.0
 11
26.89033253186456
 21
6.784093470830747
 31
0.0
  0
LINE
 62
5
  8
DIMENSIONS
 10
35.602251489892105
 20
6.1257823854477165
 30
0.0
 11
35.602251489892105
 21
6.784093470830747
 31
0.0
  0
TEXT
 62
7
  8
DIMENSIONS
 10
31.24629201087833
 20
6.667780134281815
 30
0.0
 40
0.6839954976681971
  1
9
 50
-0.0
  7
ISOCPEUR
 72
1
 73
2
 11
31.24629201087833
 21
6.667780134281815
 31
0.0
  0
INSERT
  8
DIMENSIONS
  2
DIMTICK_ARROW
 10
26.89033253186456
 20
6.1257823854477165
 30
0.0
 41
1.7423837916055096
 42
1.7423837916055096
 50
0.0
  0
INSERT
  8
DIMENSIONS
  2
DIMTICK_ARROW
 10
35.602251489892105
 20
6.1257823854477165
 30
0.0
 41
1.7423837916055096
 42
1.7423837916055096
 50
180.0
  0
LINE
 62
7
  8
DIMENSIONS
 10
26.89033253186456
 20
6.1257823854477165
 30
0.0
 11
35.602251489892105
 21
6.1257823854477165
 31
0.0
  0
LINE
 62
5
  8
DIMENSIONS
 10
26.89033253186456
 20
6.1257823854477165
 30
0.0
 11
26.89033253186456
 21
6.784093470830747
 31
0.0
  0
LINE
 62
5
  8
DIMENSIONS
 10
35.602251489892105
 20
6.1257823854477165
 30
0.0
 11
35.602251489892105
 21
6.784093470830747
 31
0.0
  0
TEXT
 62
7
  8
DIMENSIONS
 10
31.24629201087833
 20
6.667780134281815
 30
0.0
 40
0.6839954976681971
  1
9
 50
-0.0
  7
ISOCPEUR
 72
1
 73
2
 11
31.24629201087833
 21
6.667780134281815
 31
0.0
  0
INSERT
  8
DIMENSIONS
  2
DIMTICK_ARROW
 10
26.89033253186456
 20
6.1257823854477165
 30
0.0
 41
1.7423837916055096
 42
1.7423837916055096
 50
0.0
  0
INSERT
  8
DIMENSIONS
  2
DIMTICK_ARROW
 10
35.602251489892105
 20
6.1257823854477165
 30
0.0
 41
1.7423837916055096
 42
1.7423837916055096
 50
180.0
  0
LINE
 62
7
  8
DIMENSIONS
 10
26.89033253186456
 20
6.1257823854477165
 30
0.0
 11
35.602251489892105
 21
6.1257823854477165
 31
0.0
  0
LINE
 62
5
  8
DIMENSIONS
 10
26.89033253186456
 20
6.1257823854477165
 30
0.0
 11
26.89033253186456
 21
6.784093470830747
 31
0.0
  0
LINE
 62
5
  8
DIMENSIONS
 10
35.602251489892105
 20
6.1257823854477165
 30
0.0
 11
35.602251489892105
 21
6.784093470830747
 31
0.0
  0
TEXT
 62
7
  8
DIMENSIONS
 10
31.24629201087833
 20
6.667780134281815
 30
0.0
 40
0.6839954976681971
  1
9
 50
-0.0
  7
ISOCPEUR
 72
1
 73
2
 11
31.24629201087833
 21
6.667780134281815
 31
0.0
  0
INSERT
  8
DIMENSIONS
  2
DIMTICK_ARROW
 10
26.89033253186456
 20
6.1257823854477165
 30
0.0
 41
1.7423837916055096
 42
1.7423837916055096
 50
0.0
  0
INSERT
  8
DIMENSIONS
  2
DIMTICK_ARROW
 10
35.602251489892105
 20
6.1257823854477165
 30
0.0
 41
1.7423837916055096
 42
1.7423837916055096
 50
180.0
  0
LINE
 62
7
  8
DIMENSIONS
 10
26.89033253186456
 20
6.1257823854477165
 30
0.0
 11
35.602251489892105
 21
6.1257823854477165
 31
0.0
  0
LINE
 62
5
  8
DIMENSIONS
 10
26.89033253186456
 20
6.1257823854477165
 30
0.0
 11
26.89033253186456
 21
6.784093470830747
 31
0.0
  0
LINE
 62
5
  8
DIMENSIONS
 10
35.602251489892105
 20
6.1257823854477165
 30
0.0
 11
35.602251489892105
 21
6.784093470830747
 31
0.0
  0
TEXT
 62
7
  8
DIMENSIONS
 10
31.24629201087833
 20
6.667780134281815
 30
0.0
 40
0.6839954976681971
  1
9
 50
-0.0
  7
ISOCPEUR
 72
1
 73
2
 11
31.24629201087833
 21
6.667780134281815
 31
0.0
  0
INSERT
  8
DIMENSIONS
  2
DIMTICK_ARROW
 10
26.89033253186456
 20
6.1257823854477165
 30
0.0
 41
1.7423837916055096
 42
1.7423837916055096
 50
0.0
  0
INSERT
  8
DIMENSIONS
  2
DIMTICK_ARROW
 10
35.602251489892105
 20
6.1257823854477165
 30
0.0
 41
1.7423837916055096
 42
1.7423837916055096
 50
180.0
  0
LINE
 62
7
  8
DIMENSIONS
 10
26.89033253186456
 20
6.1257823854477165
 30
0.0
 11
35.602251489892105
 21
6.1257823854477165
 31
0.0
  0
LINE
 62
5
  8
DIMENSIONS
 10
26.89033253186456
 20
6.1257823854477165
 30
0.0
 11
26.89033253186456
 21
6.784093470830747
 31
0.0
  0
LINE
 62
5
  8
DIMENSIONS
 10
35.602251489892105
 20
6.1257823854477165
 30
0.0
 11
35.602251489892105
 21
6.784093470830747
 31
0.0
  0
TEXT
 62
7
  8
DIMENSIONS
 10
31.24629201087833
 20
6.667780134281815
 30
0.0
 40
0.6839954976681971
  1
9
 50
-0.0
  7
ISOCPEUR
 72
1
 73
2
 11
31.24629201087833
 21
6.667780134281815
 31
0.0
  0
INSERT
  8
DIMENSIONS
  2
DIMTICK_ARROW
 10
26.89033253186456
 20
6.1257823854477165
 30
0.0
 41
1.7423837916055096
 42
1.7423837916055096
 50
0.0
  0
INSERT
  8
DIMENSIONS
  2
DIMTICK_ARROW
 10
35.602251489892105
 20
6.1257823854477165
 30
0.0
 41
1.7423837916055096
 42
1.7423837916055096
 50
180.0
  0
LINE
 62
7
  8
DIMENSIONS
 10
26.89033253186456
 20
6.1257823854477165
 30
0.0
 11
35.602251489892105
 21
6.1257823854477165
 31
0.0
  0
LINE
 62
5
  8
DIMENSIONS
 10
26.89033253186456
 20
6.1257823854477165
 30
0.0
 11
26.89033253186456
 21
6.784093470830747
 31
0.0
  0
LINE
 62
5
  8
DIMENSIONS
 10
35.602251489892105
 20
6.1257823854477165
 30
0.0
 11
35.602251489892105
 21
6.784093470830747
 31
0.0
  0
TEXT
 62
7
  8
DIMENSIONS
 10
31.24629201087833
 20
6.667780134281815
 30
0.0
 40
0.6839954976681971
  1
9
 50
-0.0
  7
ISOCPEUR
 72
1
 73
2
 11
31.24629201087833
 21
6.667780134281815
 31
0.0
  0
INSERT
  8
DIMENSIONS
  2
DIMTICK_ARROW
 10
26.89033253186456
 20
6.1257823854477165
 30
0.0
 41
1.7423837916055096
 42
1.7423837916055096
 50
0.0
  0
INSERT
  8
DIMENSIONS
  2
DIMTICK_ARROW
 10
35.602251489892105
 20
6.1257823854477165
 30
0.0
 41
1.7423837916055096
 42
1.7423837916055096
 50
180.0
  0
LINE
 62
7
  8
DIMENSIONS
 10
26.89033253186456
 20
6.1257823854477165
 30
0.0
 11
35.602251489892105
 21
6.1257823854477165
 31
0.0
  0
LINE
 62
5
  8
DIMENSIONS
 10
26.89033253186456
 20
6.1257823854477165
 30
0.0
 11
26.89033253186456
 21
6.784093470830747
 31
0.0
  0
LINE
 62
5
  8
DIMENSIONS
 10
35.602251489892105
 20
6.1257823854477165
 30
0.0
 11
35.602251489892105
 21
6.784093470830747
 31
0.0
  0
TEXT
 62
7
  8
DIMENSIONS
 10
31.24629201087833
 20
6.667780134281815
 30
0.0
 40
0.6839954976681971
  1
9
 50
-0.0
  7
ISOCPEUR
 72
1
 73
2
 11
31.24629201087833
 21
6.667780134281815
 31
0.0
  0
INSERT
  8
DIMENSIONS
  2
DIMTICK_ARROW
 10
26.89033253186456
 20
6.1257823854477165
 30
0.0
 41
1.7423837916055096
 42
1.7423837916055096
 50
0.0
  0
INSERT
  8
DIMENSIONS
  2
DIMTICK_ARROW
 10
35.602251489892105
 20
6.1257823854477165
 30
0.0
 41
1.7423837916055096
 42
1.7423837916055096
 50
180.0
  0
LINE
 62
7
  8
DIMENSIONS
 10
26.89033253186456
 20
6.1257823854477165
 30
0.0
 11
35.602251489892105
 21
6.1257823854477165
 31
0.0
  0
LINE
 62
5
  8
DIMENSIONS
 10
26.89033253186456
 20
6.1257823854477165
 30
0.0
 11
26.89033253186456
 21
6.784093470830747
 31
0.0
  0
LINE
 62
5
  8
DIMENSIONS
 10
35.602251489892105
 20
6.1257823854477165
 30
0.0
 11
35.602251489892105
 21
6.784093470830747
 31
0.0
  0
TEXT
 62
7
  8
DIMENSIONS
 10
31.24629201087833
 20
6.667780134281815
 30
0.0
 40
0.6839954976681971
  1
9
 50
-0.0
  7
ISOCPEUR
 72
1
 73
2
 11
31.24629201087833
 21
6.667780134281815
 31
0.0
  0
INSERT
  8
DIMENSIONS
  2
DIMTICK_ARROW
 10
26.89033253186456
 20
6.1257823854477165
 30
0.0
 41
1.7423837916055096
 42
1.7423837916055096
 50
0.0
  0
INSERT
  8
DIMENSIONS
  2
DIMTICK_ARROW
 10
35.602251489892105
 20
6.1257823854477165
 30
0.0
 41
1.7423837916055096
 42
1.7423837916055096
 50
180.0
  0
LINE
 62
7
  8
DIMENSIONS
 10
26.89033253186456
 20
6.1257823854477165
 30
0.0
 11
35.602251489892105
 21
6.1257823854477165
 31
0.0
  0
LINE
 62
5
  8
DIMENSIONS
 10
26.89033253186456
 20
6.1257823854477165
 30
0.0
 11
26.89033253186456
 21
6.784093470830747
 31
0.0
  0
LINE
 62
5
  8
DIMENSIONS
 10
35.602251489892105
 20
6.1257823854477165
 30
0.0
 11
35.602251489892105
 21
6.784093470830747
 31
0.0
  0
TEXT
 62
7
  8
DIMENSIONS
 10
31.24629201087833
 20
6.667780134281815
 30
0.0
 40
0.6839954976681971
  1
9
 50
-0.0
  7
ISOCPEUR
 72
1
 73
2
 11
31.24629201087833
 21
6.667780134281815
 31
0.0
  0
INSERT
  8
DIMENSIONS
  2
DIMTICK_ARROW
 10
26.89033253186456
 20
6.1257823854477165
 30
0.0
 41
1.7423837916055096
 42
1.7423837916055096
 50
0.0
  0
INSERT
  8
DIMENSIONS
  2
DIMTICK_ARROW
 10
35.602251489892105
 20
6.1257823854477165
 30
0.0
 41
1.7423837916055096
 42
1.7423837916055096
 50
180.0
  0
LINE
 62
7
  8
DIMENSIONS
 10
26.89033253186456
 20
6.1257823854477165
 30
0.0
 11
35.602251489892105
 21
6.1257823854477165
 31
0.0
  0
LINE
 62
5
  8
DIMENSIONS
 10
26.89033253186456
 20
6.1257823854477165
 30
0.0
 11
26.89033253186456
 21
6.784093470830747
 31
0.0
  0
LINE
 62
5
  8
DIMENSIONS
 10
35.602251489892105
 20
6.1257823854477165
 30
0.0
 11
35.602251489892105
 21
6.784093470830747
 31
0.0
  0
TEXT
 62
7
  8
DIMENSIONS
 10
31.24629201087833
 20
6.667780134281815
 30
0.0
 40
0.6839954976681971
  1
9
 50
-0.0
  7
ISOCPEUR
 72
1
 73
2
 11
31.24629201087833
 21
6.667780134281815
 31
0.0
  0
INSERT
  8
DIMENSIONS
  2
DIMTICK_ARROW
 10
26.89033253186456
 20
6.1257823854477165
 30
0.0
 41
1.7423837916055096
 42
1.7423837916055096
 50
0.0
  0
INSERT
  8
DIMENSIONS
  2
DIMTICK_ARROW
 10
35.602251489892105
 20
6.1257823854477165
 30
0.0
 41
1.7423837916055096
 42
1.7423837916055096
 50
180.0
  0
LINE
 62
7
  8
DIMENSIONS
 10
26.89033253186456
 20
6.1257823854477165
 30
0.0
 11
35.602251489892105
 21
6.1257823854477165
 31
0.0
  0
LINE
 62
5
  8
DIMENSIONS
 10
26.89033253186456
 20
6.1257823854477165
 30
0.0
 11
26.89033253186456
 21
6.784093470830747
 31
0.0
  0
LINE
 62
5
  8
DIMENSIONS
 10
35.602251489892105
 20
6.1257823854477165
 30
0.0
 11
35.602251489892105
 21
6.784093470830747
 31
0.0
  0
TEXT
 62
7
  8
DIMENSIONS
 10
31.24629201087833
 20
6.667780134281815
 30
0.0
 40
0.6839954976681971
  1
9
 50
-0.0
  7
ISOCPEUR
 72
1
 73
2
 11
31.24629201087833
 21
6.667780134281815
 31
0.0
  0
INSERT
  8
DIMENSIONS
  2
DIMTICK_ARROW
 10
26.89033253186456
 20
6.1257823854477165
 30
0.0
 41
1.7423837916055096
 42
1.7423837916055096
 50
0.0
  0
INSERT
  8
DIMENSIONS
  2
DIMTICK_ARROW
 10
35.602251489892105
 20
6.1257823854477165
 30
0.0
 41
1.7423837916055096
 42
1.7423837916055096
 50
180.0
  0
LINE
 62
7
  8
DIMENSIONS
 10
26.89033253186456
 20
6.1257823854477165
 30
0.0
 11
35.602251489892105
 21
6.1257823854477165
 31
0.0
  0
LINE
 62
5
  8
DIMENSIONS
 10
26.89033253186456
 20
6.1257823854477165
 30
0.0
 11
26.89033253186456
 21
6.784093470830747
 31
0.0
  0
LINE
 62
5
  8
DIMENSIONS
 10
35.602251489892105
 20
6.1257823854477165
 30
0.0
 11
35.602251489892105
 21
6.784093470830747
 31
0.0
  0
TEXT
 62
7
  8
DIMENSIONS
 10
31.24629201087833
 20
6.667780134281815
 30
0.0
 40
0.6839954976681971
  1
9
 50
-0.0
  7
ISOCPEUR
 72
1
 73
2
 11
31.24629201087833
 21
6.667780134281815
 31
0.0
  0
INSERT
  8
DIMENSIONS
  2
DIMTICK_ARROW
 10
26.89033253186456
 20
6.1257823854477165
 30
0.0
 41
1.7423837916055096
 42
1.7423837916055096
 50
0.0
  0
INSERT
  8
DIMENSIONS
  2
DIMTICK_ARROW
 10
35.602251489892105
 20
6.1257823854477165
 30
0.0
 41
1.7423837916055096
 42
1.7423837916055096
 50
180.0
  0
LINE
 62
3
  8
0
 10
0.0
 20
6.996974281250472
 30
0.0
 11
11.181439292586537
 21
6.996974281250472
 31
0.0
  0
LINE
 62
7
  8
DIMENSIONS
 10
0.0
 20
5.878830351991818
 30
0.0
 11
11.181439292586537
 21
5.878830351991818
 31
0.0
  0
LINE
 62
5
  8
DIMENSIONS
 10
0.0
 20
5.878830351991818
 30
0.0
 11
0.0
 21
6.808788674176337
 31
0.0
  0
LINE
 62
5
  8
DIMENSIONS
 10
11.181439292586537
 20
5.878830351991818
 30
0.0
 11
11.181439292586537
 21
6.808788674176337
 31
0.0
  0
TEXT
 62
7
  8
DIMENSIONS
 10
5.590719646293269
 20
6.489425887896999
 30
0.0
 40
0.8211910718103632
  1
11
 50
-0.0
  7
ISOCPEUR
 72
1
 73
2
 11
5.590719646293269
 21
6.489425887896999
 31
0.0
  0
INSERT
  8
DIMENSIONS
  2
DIMTICK_ARROW
 10
0.0
 20
5.878830351991818
 30
0.0
 41
2.2362878585173074
 42
2.2362878585173074
 50
0.0
  0
INSERT
  8
DIMENSIONS
  2
DIMTICK_ARROW
 10
11.181439292586537
 20
5.878830351991818
 30
0.0
 41
2.2362878585173074
 42
2.2362878585173074
 50
180.0
  0
LINE
 62
7
  8
DIMENSIONS
 10
0.0
 20
5.878830351991818
 30
0.0
 11
11.181439292586537
 21
5.878830351991818
 31
0.0
  0
LINE
 62
5
  8
DIMENSIONS
 10
0.0
 20
5.878830351991818
 30
0.0
 11
0.0
 21
6.808788674176337
 31
0.0
  0
LINE
 62
5
  8
DIMENSIONS
 10
11.181439292586537
 20
5.878830351991818
 30
0.0
 11
11.181439292586537
 21
6.808788674176337
 31
0.0
  0
TEXT
 62
7
  8
DIMENSIONS
 10
5.590719646293269
 20
6.489425887896999
 30
0.0
 40
0.8211910718103632
  1
11
 50
-0.0
  7
ISOCPEUR
 72
1
 73
2
 11
5.590719646293269
 21
6.489425887896999
 31
0.0
  0
INSERT
  8
DIMENSIONS
  2
DIMTICK_ARROW
 10
0.0
 20
5.878830351991818
 30
0.0
 41
2.2362878585173074
 42
2.2362878585173074
 50
0.0
  0
INSERT
  8
DIMENSIONS
  2
DIMTICK_ARROW
 10
11.181439292586537
 20
5.878830351991818
 30
0.0
 41
2.2362878585173074
 42
2.2362878585173074
 50
180.0
  0
LINE
 62
7
  8
DIMENSIONS
 10
0.0
 20
5.878830351991818
 30
0.0
 11
11.181439292586537
 21
5.878830351991818
 31
0.0
  0
LINE
 62
5
  8
DIMENSIONS
 10
0.0
 20
5.878830351991818
 30
0.0
 11
0.0
 21
6.808788674176337
 31
0.0
  0
LINE
 62
5
  8
DIMENSIONS
 10
11.181439292586537
 20
5.878830351991818
 30
0.0
 11
11.181439292586537
 21
6.808788674176337
 31
0.0
  0
TEXT
 62
7
  8
DIMENSIONS
 10
5.590719646293269
 20
6.489425887896999
 30
0.0
 40
0.8211910718103632
  1
11
 50
-0.0
  7
ISOCPEUR
 72
1
 73
2
 11
5.590719646293269
 21
6.489425887896999
 31
0.0
  0
INSERT
  8
DIMENSIONS
  2
DIMTICK_ARROW
 10
0.0
 20
5.878830351991818
 30
0.0
 41
2.2362878585173074
 42
2.2362878585173074
 50
0.0
  0
INSERT
  8
DIMENSIONS
  2
DIMTICK_ARROW
 10
11.181439292586537
 20
5.878830351991818
 30
0.0
 41
2.2362878585173074
 42
2.2362878585173074
 50
180.0
  0
LINE
 62
7
  8
DIMENSIONS
 10
0.0
 20
5.878830351991818
 30
0.0
 11
11.181439292586537
 21
5.878830351991818
 31
0.0
  0
LINE
 62
5
  8
DIMENSIONS
 10
0.0
 20
5.878830351991818
 30
0.0
 11
0.0
 21
6.808788674176337
 31
0.0
  0
LINE
 62
5
  8
DIMENSIONS
 10
11.181439292586537
 20
5.878830351991818
 30
0.0
 11
11.181439292586537
 21
6.808788674176337
 31
0.0
  0
TEXT
 62
7
  8
DIMENSIONS
 10
5.590719646293269
 20
6.489425887896999
 30
0.0
 40
0.8211910718103632
  1
11
 50
-0.0
  7
ISOCPEUR
 72
1
 73
2
 11
5.590719646293269
 21
6.489425887896999
 31
0.0
  0
INSERT
  8
DIMENSIONS
  2
DIMTICK_ARROW
 10
0.0
 20
5.878830351991818
 30
0.0
 41
2.2362878585173074
 42
2.2362878585173074
 50
0.0
  0
INSERT
  8
DIMENSIONS
  2
DIMTICK_ARROW
 10
11.181439292586537
 20
5.878830351991818
 30
0.0
 41
2.2362878585173074
 42
2.2362878585173074
 50
180.0
  0
LINE
 62
7
  8
DIMENSIONS
 10
0.0
 20
5.878830351991818
 30
0.0
 11
11.181439292586537
 21
5.878830351991818
 31
0.0
  0
LINE
 62
5
  8
DIMENSIONS
 10
0.0
 20
5.878830351991818
 30
0.0
 11
0.0
 21
6.808788674176337
 31
0.0
  0
LINE
 62
5
  8
DIMENSIONS
 10
11.181439292586537
 20
5.878830351991818
 30
0.0
 11
11.181439292586537
 21
6.808788674176337
 31
0.0
  0
TEXT
 62
7
  8
DIMENSIONS
 10
5.590719646293269
 20
6.489425887896999
 30
0.0
 40
0.8211910718103632
  1
11
 50
-0.0
  7
ISOCPEUR
 72
1
 73
2
 11
5.590719646293269
 21
6.489425887896999
 31
0.0
  0
INSERT
  8
DIMENSIONS
  2
DIMTICK_ARROW
 10
0.0
 20
5.878830351991818
 30
0.0
 41
2.2362878585173074
 42
2.2362878585173074
 50
0.0
  0
INSERT
  8
DIMENSIONS
  2
DIMTICK_ARROW
 10
11.181439292586537
 20
5.878830351991818
 30
0.0
 41
2.2362878585173074
 42
2.2362878585173074
 50
180.0
  0
LINE
 62
7
  8
DIMENSIONS
 10
0.0
 20
5.878830351991818
 30
0.0
 11
11.181439292586537
 21
5.878830351991818
 31
0.0
  0
LINE
 62
5
  8
DIMENSIONS
 10
0.0
 20
5.878830351991818
 30
0.0
 11
0.0
 21
6.808788674176337
 31
0.0
  0
LINE
 62
5
  8
DIMENSIONS
 10
11.181439292586537
 20
5.878830351991818
 30
0.0
 11
11.181439292586537
 21
6.808788674176337
 31
0.0
  0
TEXT
 62
7
  8
DIMENSIONS
 10
5.590719646293269
 20
6.489425887896999
 30
0.0
 40
0.8211910718103632
  1
11
 50
-0.0
  7
ISOCPEUR
 72
1
 73
2
 11
5.590719646293269
 21
6.489425887896999
 31
0.0
  0
INSERT
  8
DIMENSIONS
  2
DIMTICK_ARROW
 10
0.0
 20
5.878830351991818
 30
0.0
 41
2.2362878585173074
 42
2.2362878585173074
 50
0.0
  0
INSERT
  8
DIMENSIONS
  2
DIMTICK_ARROW
 10
11.181439292586537
 20
5.878830351991818
 30
0.0
 41
2.2362878585173074
 42
2.2362878585173074
 50
180.0
  0
LINE
 62
7
  8
DIMENSIONS
 10
0.0
 20
5.878830351991818
 30
0.0
 11
11.181439292586537
 21
5.878830351991818
 31
0.0
  0
LINE
 62
5
  8
DIMENSIONS
 10
0.0
 20
5.878830351991818
 30
0.0
 11
0.0
 21
6.808788674176337
 31
0.0
  0
LINE
 62
5
  8
DIMENSIONS
 10
11.181439292586537
 20
5.878830351991818
 30
0.0
 11
11.181439292586537
 21
6.808788674176337
 31
0.0
  0
TEXT
 62
7
  8
DIMENSIONS
 10
5.590719646293269
 20
6.489425887896999
 30
0.0
 40
0.8211910718103632
  1
11
 50
-0.0
  7
ISOCPEUR
 72
1
 73
2
 11
5.590719646293269
 21
6.489425887896999
 31
0.0
  0
INSERT
  8
DIMENSIONS
  2
DIMTICK_ARROW
 10
0.0
 20
5.878830351991818
 30
0.0
 41
2.2362878585173074
 42
2.2362878585173074
 50
0.0
  0
INSERT
  8
DIMENSIONS
  2
DIMTICK_ARROW
 10
11.181439292586537
 20
5.878830351991818
 30
0.0
 41
2.2362878585173074
 42
2.2362878585173074
 50
180.0
  0
LINE
 62
7
  8
DIMENSIONS
 10
0.0
 20
5.878830351991818
 30
0.0
 11
11.181439292586537
 21
5.878830351991818
 31
0.0
  0
LINE
 62
5
  8
DIMENSIONS
 10
0.0
 20
5.878830351991818
 30
0.0
 11
0.0
 21
6.808788674176337
 31
0.0
  0
LINE
 62
5
  8
DIMENSIONS
 10
11.181439292586537
 20
5.878830351991818
 30
0.0
 11
11.181439292586537
 21
6.808788674176337
 31
0.0
  0
TEXT
 62
7
  8
DIMENSIONS
 10
5.590719646293269
 20
6.489425887896999
 30
0.0
 40
0.8211910718103632
  1
11
 50
-0.0
  7
ISOCPEUR
 72
1
 73
2
 11
5.590719646293269
 21
6.489425887896999
 31
0.0
  0
INSERT
  8
DIMENSIONS
  2
DIMTICK_ARROW
 10
0.0
 20
5.878830351991818
 30
0.0
 41
2.2362878585173074
 42
2.2362878585173074
 50
0.0
  0
INSERT
  8
DIMENSIONS
  2
DIMTICK_ARROW
 10
11.181439292586537
 20
5.878830351991818
 30
0.0
 41
2.2362878585173074
 42
2.2362878585173074
 50
180.0
  0
LINE
 62
7
  8
DIMENSIONS
 10
0.0
 20
5.878830351991818
 30
0.0
 11
11.181439292586537
 21
5.878830351991818
 31
0.0
  0
LINE
 62
5
  8
DIMENSIONS
 10
0.0
 20
5.878830351991818
 30
0.0
 11
0.0
 21
6.808788674176337
 31
0.0
  0
LINE
 62
5
  8
DIMENSIONS
 10
11.181439292586537
 20
5.878830351991818
 30
0.0
 11
11.181439292586537
 21
6.808788674176337
 31
0.0
  0
TEXT
 62
7
  8
DIMENSIONS
 10
5.590719646293269
 20
6.489425887896999
 30
0.0
 40
0.8211910718103632
  1
11
 50
-0.0
  7
ISOCPEUR
 72
1
 73
2
 11
5.590719646293269
 21
6.489425887896999
 31
0.0
  0
INSERT
  8
DIMENSIONS
  2
DIMTICK_ARROW
 10
0.0
 20
5.878830351991818
 30
0.0
 41
2.2362878585173074
 42
2.2362878585173074
 50
0.0
  0
INSERT
  8
DIMENSIONS
  2
DIMTICK_ARROW
 10
11.181439292586537
 20
5.878830351991818
 30
0.0
 41
2.2362878585173074
 42
2.2362878585173074
 50
180.0
  0
LINE
 62
7
  8
DIMENSIONS
 10
0.0
 20
5.878830351991818
 30
0.0
 11
11.181439292586537
 21
5.878830351991818
 31
0.0
  0
LINE
 62
5
  8
DIMENSIONS
 10
0.0
 20
5.878830351991818
 30
0.0
 11
0.0
 21
6.808788674176337
 31
0.0
  0
LINE
 62
5
  8
DIMENSIONS
 10
11.181439292586537
 20
5.878830351991818
 30
0.0
 11
11.181439292586537
 21
6.808788674176337
 31
0.0
  0
TEXT
 62
7
  8
DIMENSIONS
 10
5.590719646293269
 20
6.489425887896999
 30
0.0
 40
0.8211910718103632
  1
11
 50
-0.0
  7
ISOCPEUR
 72
1
 73
2
 11
5.590719646293269
 21
6.489425887896999
 31
0.0
  0
INSERT
  8
DIMENSIONS
  2
DIMTICK_ARROW
 10
0.0
 20
5.878830351991818
 30
0.0
 41
2.2362878585173074
 42
2.2362878585173074
 50
0.0
  0
INSERT
  8
DIMENSIONS
  2
DIMTICK_ARROW
 10
11.181439292586537
 20
5.878830351991818
 30
0.0
 41
2.2362878585173074
 42
2.2362878585173074
 50
180.0
  0
LINE
 62
7
  8
DIMENSIONS
 10
0.0
 20
5.878830351991818
 30
0.0
 11
11.181439292586537
 21
5.878830351991818
 31
0.0
  0
LINE
 62
5
  8
DIMENSIONS
 10
0.0
 20
5.878830351991818
 30
0.0
 11
0.0
 21
6.808788674176337
 31
0.0
  0
LINE
 62
5
  8
DIMENSIONS
 10
11.181439292586537
 20
5.878830351991818
 30
0.0
 11
11.181439292586537
 21
6.808788674176337
 31
0.0
  0
TEXT
 62
7
  8
DIMENSIONS
 10
5.590719646293269
 20
6.489425887896999
 30
0.0
 40
0.8211910718103632
  1
11
 50
-0.0
  7
ISOCPEUR
 72
1
 73
2
 11
5.590719646293269
 21
6.489425887896999
 31
0.0
  0
INSERT
  8
DIMENSIONS
  2
DIMTICK_ARROW
 10
0.0
 20
5.878830351991818
 30
0.0
 41
2.2362878585173074
 42
2.2362878585173074
 50
0.0
  0
INSERT
  8
DIMENSIONS
  2
DIMTICK_ARROW
 10
11.181439292586537
 20
5.878830351991818
 30
0.0
 41
2.2362878585173074
 42
2.2362878585173074
 50
180.0
  0
LINE
 62
7
  8
DIMENSIONS
 10
0.0
 20
5.878830351991818
 30
0.0
 11
11.181439292586537
 21
5.878830351991818
 31
0.0
  0
LINE
 62
5
  8
DIMENSIONS
 10
0.0
 20
5.878830351991818
 30
0.0
 11
0.0
 21
6.808788674176337
 31
0.0
  0
LINE
 62
5
  8
DIMENSIONS
 10
11.181439292586537
 20
5.878830351991818
 30
0.0
 11
11.181439292586537
 21
6.808788674176337
 31
0.0
  0
TEXT
 62
7
  8
DIMENSIONS
 10
5.590719646293269
 20
6.489425887896999
 30
0.0
 40
0.8211910718103632
  1
11
 50
-0.0
  7
ISOCPEUR
 72
1
 73
2
 11
5.590719646293269
 21
6.489425887896999
 31
0.0
  0
INSERT
  8
DIMENSIONS
  2
DIMTICK_ARROW
 10
0.0
 20
5.878830351991818
 30
0.0
 41
2.2362878585173074
 42
2.2362878585173074
 50
0.0
  0
INSERT
  8
DIMENSIONS
  2
DIMTICK_ARROW
 10
11.181439292586537
 20
5.878830351991818
 30
0.0
 41
2.2362878585173074
 42
2.2362878585173074
 50
180.0
  0
LINE
 62
7
  8
DIMENSIONS
 10
0.0
 20
5.878830351991818
 30
0.0
 11
11.181439292586537
 21
5.878830351991818
 31
0.0
  0
LINE
 62
5
  8
DIMENSIONS
 10
0.0
 20
5.878830351991818
 30
0.0
 11
0.0
 21
6.808788674176337
 31
0.0
  0
LINE
 62
5
  8
DIMENSIONS
 10
11.181439292586537
 20
5.878830351991818
 30
0.0
 11
11.181439292586537
 21
6.808788674176337
 31
0.0
  0
TEXT
 62
7
  8
DIMENSIONS
 10
5.590719646293269
 20
6.489425887896999
 30
0.0
 40
0.8211910718103632
  1
11
 50
-0.0
  7
ISOCPEUR
 72
1
 73
2
 11
5.590719646293269
 21
6.489425887896999
 31
0.0
  0
INSERT
  8
DIMENSIONS
  2
DIMTICK_ARROW
 10
0.0
 20
5.878830351991818
 30
0.0
 41
2.2362878585173074
 42
2.2362878585173074
 50
0.0
  0
INSERT
  8
DIMENSIONS
  2
DIMTICK_ARROW
 10
11.181439292586537
 20
5.878830351991818
 30
0.0
 41
2.2362878585173074
 42
2.2362878585173074
 50
180.0
  0
LINE
 62
7
  8
DIMENSIONS
 10
0.0
 20
5.878830351991818
 30
0.0
 11
11.181439292586537
 21
5.878830351991818
 31
0.0
  0
LINE
 62
5
  8
DIMENSIONS
 10
0.0
 20
5.878830351991818
 30
0.0
 11
0.0
 21
6.808788674176337
 31
0.0
  0
LINE
 62
5
  8
DIMENSIONS
 10
11.181439292586537
 20
5.878830351991818
 30
0.0
 11
11.181439292586537
 21
6.808788674176337
 31
0.0
  0
TEXT
 62
7
  8
DIMENSIONS
 10
5.590719646293269
 20
6.489425887896999
 30
0.0
 40
0.8211910718103632
  1
11
 50
-0.0
  7
ISOCPEUR
 72
1
 73
2
 11
5.590719646293269
 21
6.489425887896999
 31
0.0
  0
INSERT
  8
DIMENSIONS
  2
DIMTICK_ARROW
 10
0.0
 20
5.878830351991818
 30
0.0
 41
2.2362878585173074
 42
2.2362878585173074
 50
0.0
  0
INSERT
  8
DIMENSIONS
  2
DIMTICK_ARROW
 10
11.181439292586537
 20
5.878830351991818
 30
0.0
 41
2.2362878585173074
 42
2.2362878585173074
 50
180.0
  0
LINE
 62
7
  8
DIMENSIONS
 10
0.0
 20
5.878830351991818
 30
0.0
 11
11.181439292586537
 21
5.878830351991818
 31
0.0
  0
LINE
 62
5
  8
DIMENSIONS
 10
0.0
 20
5.878830351991818
 30
0.0
 11
0.0
 21
6.808788674176337
 31
0.0
  0
LINE
 62
5
  8
DIMENSIONS
 10
11.181439292586537
 20
5.878830351991818
 30
0.0
 11
11.181439292586537
 21
6.808788674176337
 31
0.0
  0
TEXT
 62
7
  8
DIMENSIONS
 10
5.590719646293269
 20
6.489425887896999
 30
0.0
 40
0.8211910718103632
  1
11
 50
-0.0
  7
ISOCPEUR
 72
1
 73
2
 11
5.590719646293269
 21
6.489425887896999
 31
0.0
  0
INSERT
  8
DIMENSIONS
  2
DIMTICK_ARROW
 10
0.0
 20
5.878830351991818
 30
0.0
 41
2.2362878585173074
 42
2.2362878585173074
 50
0.0
  0
INSERT
  8
DIMENSIONS
  2
DIMTICK_ARROW
 10
11.181439292586537
 20
5.878830351991818
 30
0.0
 41
2.2362878585173074
 42
2.2362878585173074
 50
180.0
  0
LINE
 62
7
  8
DIMENSIONS
 10
0.0
 20
5.878830351991818
 30
0.0
 11
11.181439292586537
 21
5.878830351991818
 31
0.0
  0
LINE
 62
5
  8
DIMENSIONS
 10
0.0
 20
5.878830351991818
 30
0.0
 11
0.0
 21
6.808788674176337
 31
0.0
  0
LINE
 62
5
  8
DIMENSIONS
 10
11.181439292586537
 20
5.878830351991818
 30
0.0
 11
11.181439292586537
 21
6.808788674176337
 31
0.0
  0
TEXT
 62
7
  8
DIMENSIONS
 10
5.590719646293269
 20
6.489425887896999
 30
0.0
 40
0.8211910718103632
  1
11
 50
-0.0
  7
ISOCPEUR
 72
1
 73
2
 11
5.590719646293269
 21
6.489425887896999
 31
0.0
  0
INSERT
  8
DIMENSIONS
  2
DIMTICK_ARROW
 10
0.0
 20
5.878830351991818
 30
0.0
 41
2.2362878585173074
 42
2.2362878585173074
 50
0.0
  0
INSERT
  8
DIMENSIONS
  2
DIMTICK_ARROW
 10
11.181439292586537
 20
5.878830351991818
 30
0.0
 41
2.2362878585173074
 42
2.2362878585173074
 50
180.0
  0
LINE
 62
7
  8
DIMENSIONS
 10
0.0
 20
5.878830351991818
 30
0.0
 11
11.181439292586537
 21
5.878830351991818
 31
0.0
  0
LINE
 62
5
  8
DIMENSIONS
 10
0.0
 20
5.878830351991818
 30
0.0
 11
0.0
 21
6.808788674176337
 31
0.0
  0
LINE
 62
5
  8
DIMENSIONS
 10
11.181439292586537
 20
5.878830351991818
 30
0.0
 11
11.181439292586537
 21
6.808788674176337
 31
0.0
  0
TEXT
 62
7
  8
DIMENSIONS
 10
5.590719646293269
 20
6.489425887896999
 30
0.0
 40
0.8211910718103632
  1
11
 50
-0.0
  7
ISOCPEUR
 72
1
 73
2
 11
5.590719646293269
 21
6.489425887896999
 31
0.0
  0
INSERT
  8
DIMENSIONS
  2
DIMTICK_ARROW
 10
0.0
 20
5.878830351991818
 30
0.0
 41
2.2362878585173074
 42
2.2362878585173074
 50
0.0
  0
INSERT
  8
DIMENSIONS
  2
DIMTICK_ARROW
 10
11.181439292586537
 20
5.878830351991818
 30
0.0
 41
2.2362878585173074
 42
2.2362878585173074
 50
180.0
  0
LINE
 62
7
  8
DIMENSIONS
 10
0.0
 20
5.878830351991818
 30
0.0
 11
11.181439292586537
 21
5.878830351991818
 31
0.0
  0
LINE
 62
5
  8
DIMENSIONS
 10
0.0
 20
5.878830351991818
 30
0.0
 11
0.0
 21
6.808788674176337
 31
0.0
  0
LINE
 62
5
  8
DIMENSIONS
 10
11.181439292586537
 20
5.878830351991818
 30
0.0
 11
11.181439292586537
 21
6.808788674176337
 31
0.0
  0
TEXT
 62
7
  8
DIMENSIONS
 10
5.590719646293269
 20
6.489425887896999
 30
0.0
 40
0.8211910718103632
  1
11
 50
-0.0
  7
ISOCPEUR
 72
1
 73
2
 11
5.590719646293269
 21
6.489425887896999
 31
0.0
  0
INSERT
  8
DIMENSIONS
  2
DIMTICK_ARROW
 10
0.0
 20
5.878830351991818
 30
0.0
 41
2.2362878585173074
 42
2.2362878585173074
 50
0.0
  0
INSERT
  8
DIMENSIONS
  2
DIMTICK_ARROW
 10
11.181439292586537
 20
5.878830351991818
 30
0.0
 41
2.2362878585173074
 42
2.2362878585173074
 50
180.0
  0
LINE
 62
7
  8
DIMENSIONS
 10
0.0
 20
5.878830351991818
 30
0.0
 11
11.181439292586537
 21
5.878830351991818
 31
0.0
  0
LINE
 62
5
  8
DIMENSIONS
 10
0.0
 20
5.878830351991818
 30
0.0
 11
0.0
 21
6.808788674176337
 31
0.0
  0
LINE
 62
5
  8
DIMENSIONS
 10
11.181439292586537
 20
5.878830351991818
 30
0.0
 11
11.181439292586537
 21
6.808788674176337
 31
0.0
  0
TEXT
 62
7
  8
DIMENSIONS
 10
5.590719646293269
 20
6.489425887896999
 30
0.0
 40
0.8211910718103632
  1
11
 50
-0.0
  7
ISOCPEUR
 72
1
 73
2
 11
5.590719646293269
 21
6.489425887896999
 31
0.0
  0
INSERT
  8
DIMENSIONS
  2
DIMTICK_ARROW
 10
0.0
 20
5.878830351991818
 30
0.0
 41
2.2362878585173074
 42
2.2362878585173074
 50
0.0
  0
INSERT
  8
DIMENSIONS
  2
DIMTICK_ARROW
 10
11.181439292586537
 20
5.878830351991818
 30
0.0
 41
2.2362878585173074
 42
2.2362878585173074
 50
180.0
  0
LINE
 62
7
  8
DIMENSIONS
 10
0.0
 20
5.878830351991818
 30
0.0
 11
11.181439292586537
 21
5.878830351991818
 31
0.0
  0
LINE
 62
5
  8
DIMENSIONS
 10
0.0
 20
5.878830351991818
 30
0.0
 11
0.0
 21
6.808788674176337
 31
0.0
  0
LINE
 62
5
  8
DIMENSIONS
 10
11.181439292586537
 20
5.878830351991818
 30
0.0
 11
11.181439292586537
 21
6.808788674176337
 31
0.0
  0
TEXT
 62
7
  8
DIMENSIONS
 10
5.590719646293269
 20
6.489425887896999
 30
0.0
 40
0.8211910718103632
  1
11
 50
-0.0
  7
ISOCPEUR
 72
1
 73
2
 11
5.590719646293269
 21
6.489425887896999
 31
0.0
  0
INSERT
  8
DIMENSIONS
  2
DIMTICK_ARROW
 10
0.0
 20
5.878830351991818
 30
0.0
 41
2.2362878585173074
 42
2.2362878585173074
 50
0.0
  0
INSERT
  8
DIMENSIONS
  2
DIMTICK_ARROW
 10
11.181439292586537
 20
5.878830351991818
 30
0.0
 41
2.2362878585173074
 42
2.2362878585173074
 50
180.0
  0
LINE
 62
7
  8
DIMENSIONS
 10
0.0
 20
5.878830351991818
 30
0.0
 11
11.181439292586537
 21
5.878830351991818
 31
0.0
  0
LINE
 62
5
  8
DIMENSIONS
 10
0.0
 20
5.878830351991818
 30
0.0
 11
0.0
 21
6.808788674176337
 31
0.0
  0
LINE
 62
5
  8
DIMENSIONS
 10
11.181439292586537
 20
5.878830351991818
 30
0.0
 11
11.181439292586537
 21
6.808788674176337
 31
0.0
  0
TEXT
 62
7
  8
DIMENSIONS
 10
5.590719646293269
 20
6.489425887896999
 30
0.0
 40
0.8211910718103632
  1
11
 50
-0.0
  7
ISOCPEUR
 72
1
 73
2
 11
5.590719646293269
 21
6.489425887896999
 31
0.0
  0
INSERT
  8
DIMENSIONS
  2
DIMTICK_ARROW
 10
0.0
 20
5.878830351991818
 30
0.0
 41
2.2362878585173074
 42
2.2362878585173074
 50
0.0
  0
INSERT
  8
DIMENSIONS
  2
DIMTICK_ARROW
 10
11.181439292586537
 20
5.878830351991818
 30
0.0
 41
2.2362878585173074
 42
2.2362878585173074
 50
180.0
  0
LINE
 62
7
  8
DIMENSIONS
 10
0.0
 20
5.878830351991818
 30
0.0
 11
11.181439292586537
 21
5.878830351991818
 31
0.0
  0
LINE
 62
5
  8
DIMENSIONS
 10
0.0
 20
5.878830351991818
 30
0.0
 11
0.0
 21
6.808788674176337
 31
0.0
  0
LINE
 62
5
  8
DIMENSIONS
 10
11.181439292586537
 20
5.878830351991818
 30
0.0
 11
11.181439292586537
 21
6.808788674176337
 31
0.0
  0
TEXT
 62
7
  8
DIMENSIONS
 10
5.590719646293269
 20
6.489425887896999
 30
0.0
 40
0.8211910718103632
  1
11
 50
-0.0
  7
ISOCPEUR
 72
1
 73
2
 11
5.590719646293269
 21
6.489425887896999
 31
0.0
  0
INSERT
  8
DIMENSIONS
  2
DIMTICK_ARROW
 10
0.0
 20
5.878830351991818
 30
0.0
 41
2.2362878585173074
 42
2.2362878585173074
 50
0.0
  0
INSERT
  8
DIMENSIONS
  2
DIMTICK_ARROW
 10
11.181439292586537
 20
5.878830351991818
 30
0.0
 41
2.2362878585173074
 42
2.2362878585173074
 50
180.0
  0
LINE
 62
3
  8
0
 10
11.181439292586537
 20
0.0
 30
0.0
 11
26.89033253186456
 21
0.0
 31
0.0
  0
LINE
 62
7
  8
DIMENSIONS
 10
11.181439292586537
 20
-1.570889323927802
 30
0.0
 11
26.89033253186456
 21
-1.570889323927802
 31
0.0
  0
LINE
 62
5
  8
DIMENSIONS
 10
11.181439292586537
 20
-1.570889323927802
 30
0.0
 11
11.181439292586537
 21
-0.1429110676072198
 31
0.0
  0
LINE
 62
5
  8
DIMENSIONS
 10
26.89033253186456
 20
-1.570889323927802
 30
0.0
 11
26.89033253186456
 21
-0.1429110676072198
 31
0.0
  0
TEXT
 62
7
  8
DIMENSIONS
 10
19.03588591222555
 20
-0.8345311783923013
 30
0.0
 40
1.072716291071001
  1
16
 50
-0.0
  7
ISOCPEUR
 72
1
 73
2
 11
19.03588591222555
 21
-0.8345311783923013
 31
0.0
  0
INSERT
  8
DIMENSIONS
  2
DIMTICK_ARROW
 10
11.181439292586537
 20
-1.570889323927802
 30
0.0
 41
3.141778647855604
 42
3.141778647855604
 50
0.0
  0
INSERT
  8
DIMENSIONS
  2
DIMTICK_ARROW
 10
26.89033253186456
 20
-1.570889323927802
 30
0.0
 41
3.141778647855604
 42
3.141778647855604
 50
180.0
  0
LINE
 62
7
  8
DIMENSIONS
 10
11.181439292586537
 20
-1.570889323927802
 30
0.0
 11
26.89033253186456
 21
-1.570889323927802
 31
0.0
  0
LINE
 62
5
  8
DIMENSIONS
 10
11.181439292586537
 20
-1.570889323927802
 30
0.0
 11
11.181439292586537
 21
-0.1429110676072198
 31
0.0
  0
LINE
 62
5
  8
DIMENSIONS
 10
26.89033253186456
 20
-1.570889323927802
 30
0.0
 11
26.89033253186456
 21
-0.1429110676072198
 31
0.0
  0
TEXT
 62
7
  8
DIMENSIONS
 10
19.03588591222555
 20
-0.8345311783923013
 30
0.0
 40
1.072716291071001
  1
16
 50
-0.0
  7
ISOCPEUR
 72
1
 73
2
 11
19.03588591222555
 21
-0.8345311783923013
 31
0.0
  0
INSERT
  8
DIMENSIONS
  2
DIMTICK_ARROW
 10
11.181439292586537
 20
-1.570889323927802
 30
0.0
 41
3.141778647855604
 42
3.141778647855604
 50
0.0
  0
INSERT
  8
DIMENSIONS
  2
DIMTICK_ARROW
 10
26.89033253186456
 20
-1.570889323927802
 30
0.0
 41
3.141778647855604
 42
3.141778647855604
 50
180.0
  0
LINE
 62
7
  8
DIMENSIONS
 10
11.181439292586537
 20
-1.570889323927802
 30
0.0
 11
26.89033253186456
 21
-1.570889323927802
 31
0.0
  0
LINE
 62
5
  8
DIMENSIONS
 10
11.181439292586537
 20
-1.570889323927802
 30
0.0
 11
11.181439292586537
 21
-0.1429110676072198
 31
0.0
  0
LINE
 62
5
  8
DIMENSIONS
 10
26.89033253186456
 20
-1.570889323927802
 30
0.0
 11
26.89033253186456
 21
-0.1429110676072198
 31
0.0
  0
TEXT
 62
7
  8
DIMENSIONS
 10
19.03588591222555
 20
-0.8345311783923013
 30
0.0
 40
1.072716291071001
  1
16
 50
-0.0
  7
ISOCPEUR
 72
1
 73
2
 11
19.03588591222555
 21
-0.8345311783923013
 31
0.0
  0
INSERT
  8
DIMENSIONS
  2
DIMTICK_ARROW
 10
11.181439292586537
 20
-1.570889323927802
 30
0.0
 41
3.141778647855604
 42
3.141778647855604
 50
0.0
  0
INSERT
  8
DIMENSIONS
  2
DIMTICK_ARROW
 10
26.89033253186456
 20
-1.570889323927802
 30
0.0
 41
3.141778647855604
 42
3.141778647855604
 50
180.0
  0
LINE
 62
7
  8
DIMENSIONS
 10
11.181439292586537
 20
-1.570889323927802
 30
0.0
 11
26.89033253186456
 21
-1.570889323927802
 31
0.0
  0
LINE
 62
5
  8
DIMENSIONS
 10
11.181439292586537
 20
-1.570889323927802
 30
0.0
 11
11.181439292586537
 21
-0.1429110676072198
 31
0.0
  0
LINE
 62
5
  8
DIMENSIONS
 10
26.89033253186456
 20
-1.570889323927802
 30
0.0
 11
26.89033253186456
 21
-0.1429110676072198
 31
0.0
  0
TEXT
 62
7
  8
DIMENSIONS
 10
19.03588591222555
 20
-0.8345311783923013
 30
0.0
 40
1.072716291071001
  1
16
 50
-0.0
  7
ISOCPEUR
 72
1
 73
2
 11
19.03588591222555
 21
-0.8345311783923013
 31
0.0
  0
INSERT
  8
DIMENSIONS
  2
DIMTICK_ARROW
 10
11.181439292586537
 20
-1.570889323927802
 30
0.0
 41
3.141778647855604
 42
3.141778647855604
 50
0.0
  0
INSERT
  8
DIMENSIONS
  2
DIMTICK_ARROW
 10
26.89033253186456
 20
-1.570889323927802
 30
0.0
 41
3.141778647855604
 42
3.141778647855604
 50
180.0
  0
LINE
 62
7
  8
DIMENSIONS
 10
11.181439292586537
 20
-1.570889323927802
 30
0.0
 11
26.89033253186456
 21
-1.570889323927802
 31
0.0
  0
LINE
 62
5
  8
DIMENSIONS
 10
11.181439292586537
 20
-1.570889323927802
 30
0.0
 11
11.181439292586537
 21
-0.1429110676072198
 31
0.0
  0
LINE
 62
5
  8
DIMENSIONS
 10
26.89033253186456
 20
-1.570889323927802
 30
0.0
 11
26.89033253186456
 21
-0.1429110676072198
 31
0.0
  0
TEXT
 62
7
  8
DIMENSIONS
 10
19.03588591222555
 20
-0.8345311783923013
 30
0.0
 40
1.072716291071001
  1
16
 50
-0.0
  7
ISOCPEUR
 72
1
 73
2
 11
19.03588591222555
 21
-0.8345311783923013
 31
0.0
  0
INSERT
  8
DIMENSIONS
  2
DIMTICK_ARROW
 10
11.181439292586537
 20
-1.570889323927802
 30
0.0
 41
3.141778647855604
 42
3.141778647855604
 50
0.0
  0
INSERT
  8
DIMENSIONS
  2
DIMTICK_ARROW
 10
26.89033253186456
 20
-1.570889323927802
 30
0.0
 41
3.141778647855604
 42
3.141778647855604
 50
180.0
  0
LINE
 62
7
  8
DIMENSIONS
 10
11.181439292586537
 20
-1.570889323927802
 30
0.0
 11
26.89033253186456
 21
-1.570889323927802
 31
0.0
  0
LINE
 62
5
  8
DIMENSIONS
 10
11.181439292586537
 20
-1.570889323927802
 30
0.0
 11
11.181439292586537
 21
-0.1429110676072198
 31
0.0
  0
LINE
 62
5
  8
DIMENSIONS
 10
26.89033253186456
 20
-1.570889323927802
 30
0.0
 11
26.89033253186456
 21
-0.1429110676072198
 31
0.0
  0
TEXT
 62
7
  8
DIMENSIONS
 10
19.03588591222555
 20
-0.8345311783923013
 30
0.0
 40
1.072716291071001
  1
16
 50
-0.0
  7
ISOCPEUR
 72
1
 73
2
 11
19.03588591222555
 21
-0.8345311783923013
 31
0.0
  0
INSERT
  8
DIMENSIONS
  2
DIMTICK_ARROW
 10
11.181439292586537
 20
-1.570889323927802
 30
0.0
 41
3.141778647855604
 42
3.141778647855604
 50
0.0
  0
INSERT
  8
DIMENSIONS
  2
DIMTICK_ARROW
 10
26.89033253186456
 20
-1.570889323927802
 30
0.0
 41
3.141778647855604
 42
3.141778647855604
 50
180.0
  0
LINE
 62
7
  8
DIMENSIONS
 10
11.181439292586537
 20
-1.570889323927802
 30
0.0
 11
26.89033253186456
 21
-1.570889323927802
 31
0.0
  0
LINE
 62
5
  8
DIMENSIONS
 10
11.181439292586537
 20
-1.570889323927802
 30
0.0
 11
11.181439292586537
 21
-0.1429110676072198
 31
0.0
  0
LINE
 62
5
  8
DIMENSIONS
 10
26.89033253186456
 20
-1.570889323927802
 30
0.0
 11
26.89033253186456
 21
-0.1429110676072198
 31
0.0
  0
TEXT
 62
7
  8
DIMENSIONS
 10
19.03588591222555
 20
-0.8345311783923013
 30
0.0
 40
1.072716291071001
  1
16
 50
-0.0
  7
ISOCPEUR
 72
1
 73
2
 11
19.03588591222555
 21
-0.8345311783923013
 31
0.0
  0
INSERT
  8
DIMENSIONS
  2
DIMTICK_ARROW
 10
11.181439292586537
 20
-1.570889323927802
 30
0.0
 41
3.141778647855604
 42
3.141778647855604
 50
0.0
  0
INSERT
  8
DIMENSIONS
  2
DIMTICK_ARROW
 10
26.89033253186456
 20
-1.570889323927802
 30
0.0
 41
3.141778647855604
 42
3.141778647855604
 50
180.0
  0
LINE
 62
7
  8
DIMENSIONS
 10
11.181439292586537
 20
-1.570889323927802
 30
0.0
 11
26.89033253186456
 21
-1.570889323927802
 31
0.0
  0
LINE
 62
5
  8
DIMENSIONS
 10
11.181439292586537
 20
-1.570889323927802
 30
0.0
 11
11.181439292586537
 21
-0.1429110676072198
 31
0.0
  0
LINE
 62
5
  8
DIMENSIONS
 10
26.89033253186456
 20
-1.570889323927802
 30
0.0
 11
26.89033253186456
 21
-0.1429110676072198
 31
0.0
  0
TEXT
 62
7
  8
DIMENSIONS
 10
19.03588591222555
 20
-0.8345311783923013
 30
0.0
 40
1.072716291071001
  1
16
 50
-0.0
  7
ISOCPEUR
 72
1
 73
2
 11
19.03588591222555
 21
-0.8345311783923013
 31
0.0
  0
INSERT
  8
DIMENSIONS
  2
DIMTICK_ARROW
 10
11.181439292586537
 20
-1.570889323927802
 30
0.0
 41
3.141778647855604
 42
3.141778647855604
 50
0.0
  0
INSERT
  8
DIMENSIONS
  2
DIMTICK_ARROW
 10
26.89033253186456
 20
-1.570889323927802
 30
0.0
 41
3.141778647855604
 42
3.141778647855604
 50
180.0
  0
LINE
 62
7
  8
DIMENSIONS
 10
11.181439292586537
 20
-1.570889323927802
 30
0.0
 11
26.89033253186456
 21
-1.570889323927802
 31
0.0
  0
LINE
 62
5
  8
DIMENSIONS
 10
11.181439292586537
 20
-1.570889323927802
 30
0.0
 11
11.181439292586537
 21
-0.1429110676072198
 31
0.0
  0
LINE
 62
5
  8
DIMENSIONS
 10
26.89033253186456
 20
-1.570889323927802
 30
0.0
 11
26.89033253186456
 21
-0.1429110676072198
 31
0.0
  0
TEXT
 62
7
  8
DIMENSIONS
 10
19.03588591222555
 20
-0.8345311783923013
 30
0.0
 40
1.072716291071001
  1
16
 50
-0.0
  7
ISOCPEUR
 72
1
 73
2
 11
19.03588591222555
 21
-0.8345311783923013
 31
0.0
  0
INSERT
  8
DIMENSIONS
  2
DIMTICK_ARROW
 10
11.181439292586537
 20
-1.570889323927802
 30
0.0
 41
3.141778647855604
 42
3.141778647855604
 50
0.0
  0
INSERT
  8
DIMENSIONS
  2
DIMTICK_ARROW
 10
26.89033253186456
 20
-1.570889323927802
 30
0.0
 41
3.141778647855604
 42
3.141778647855604
 50
180.0
  0
LINE
 62
7
  8
DIMENSIONS
 10
11.181439292586537
 20
-1.570889323927802
 30
0.0
 11
26.89033253186456
 21
-1.570889323927802
 31
0.0
  0
LINE
 62
5
  8
DIMENSIONS
 10
11.181439292586537
 20
-1.570889323927802
 30
0.0
 11
11.181439292586537
 21
-0.1429110676072198
 31
0.0
  0
LINE
 62
5
  8
DIMENSIONS
 10
26.89033253186456
 20
-1.570889323927802
 30
0.0
 11
26.89033253186456
 21
-0.1429110676072198
 31
0.0
  0
TEXT
 62
7
  8
DIMENSIONS
 10
19.03588591222555
 20
-0.8345311783923013
 30
0.0
 40
1.072716291071001
  1
16
 50
-0.0
  7
ISOCPEUR
 72
1
 73
2
 11
19.03588591222555
 21
-0.8345311783923013
 31
0.0
  0
INSERT
  8
DIMENSIONS
  2
DIMTICK_ARROW
 10
11.181439292586537
 20
-1.570889323927802
 30
0.0
 41
3.141778647855604
 42
3.141778647855604
 50
0.0
  0
INSERT
  8
DIMENSIONS
  2
DIMTICK_ARROW
 10
26.89033253186456
 20
-1.570889323927802
 30
0.0
 41
3.141778647855604
 42
3.141778647855604
 50
180.0
  0
LINE
 62
7
  8
DIMENSIONS
 10
11.181439292586537
 20
-1.570889323927802
 30
0.0
 11
26.89033253186456
 21
-1.570889323927802
 31
0.0
  0
LINE
 62
5
  8
DIMENSIONS
 10
11.181439292586537
 20
-1.570889323927802
 30
0.0
 11
11.181439292586537
 21
-0.1429110676072198
 31
0.0
  0
LINE
 62
5
  8
DIMENSIONS
 10
26.89033253186456
 20
-1.570889323927802
 30
0.0
 11
26.89033253186456
 21
-0.1429110676072198
 31
0.0
  0
TEXT
 62
7
  8
DIMENSIONS
 10
19.03588591222555
 20
-0.8345311783923013
 30
0.0
 40
1.072716291071001
  1
16
 50
-0.0
  7
ISOCPEUR
 72
1
 73
2
 11
19.03588591222555
 21
-0.8345311783923013
 31
0.0
  0
INSERT
  8
DIMENSIONS
  2
DIMTICK_ARROW
 10
11.181439292586537
 20
-1.570889323927802
 30
0.0
 41
3.141778647855604
 42
3.141778647855604
 50
0.0
  0
INSERT
  8
DIMENSIONS
  2
DIMTICK_ARROW
 10
26.89033253186456
 20
-1.570889323927802
 30
0.0
 41
3.141778647855604
 42
3.141778647855604
 50
180.0
  0
LINE
 62
7
  8
DIMENSIONS
 10
11.181439292586537
 20
-1.570889323927802
 30
0.0
 11
26.89033253186456
 21
-1.570889323927802
 31
0.0
  0
LINE
 62
5
  8
DIMENSIONS
 10
11.181439292586537
 20
-1.570889323927802
 30
0.0
 11
11.181439292586537
 21
-0.1429110676072198
 31
0.0
  0
LINE
 62
5
  8
DIMENSIONS
 10
26.89033253186456
 20
-1.570889323927802
 30
0.0
 11
26.89033253186456
 21
-0.1429110676072198
 31
0.0
  0
TEXT
 62
7
  8
DIMENSIONS
 10
19.03588591222555
 20
-0.8345311783923013
 30
0.0
 40
1.072716291071001
  1
16
 50
-0.0
  7
ISOCPEUR
 72
1
 73
2
 11
19.03588591222555
 21
-0.8345311783923013
 31
0.0
  0
INSERT
  8
DIMENSIONS
  2
DIMTICK_ARROW
 10
11.181439292586537
 20
-1.570889323927802
 30
0.0
 41
3.141778647855604
 42
3.141778647855604
 50
0.0
  0
INSERT
  8
DIMENSIONS
  2
DIMTICK_ARROW
 10
26.89033253186456
 20
-1.570889323927802
 30
0.0
 41
3.141778647855604
 42
3.141778647855604
 50
180.0
  0
LINE
 62
7
  8
DIMENSIONS
 10
11.181439292586537
 20
-1.570889323927802
 30
0.0
 11
26.89033253186456
 21
-1.570889323927802
 31
0.0
  0
LINE
 62
5
  8
DIMENSIONS
 10
11.181439292586537
 20
-1.570889323927802
 30
0.0
 11
11.181439292586537
 21
-0.1429110676072198
 31
0.0
  0
LINE
 62
5
  8
DIMENSIONS
 10
26.89033253186456
 20
-1.570889323927802
 30
0.0
 11
26.89033253186456
 21
-0.1429110676072198
 31
0.0
  0
TEXT
 62
7
  8
DIMENSIONS
 10
19.03588591222555
 20
-0.8345311783923013
 30
0.0
 40
1.072716291071001
  1
16
 50
-0.0
  7
ISOCPEUR
 72
1
 73
2
 11
19.03588591222555
 21
-0.8345311783923013
 31
0.0
  0
INSERT
  8
DIMENSIONS
  2
DIMTICK_ARROW
 10
11.181439292586537
 20
-1.570889323927802
 30
0.0
 41
3.141778647855604
 42
3.141778647855604
 50
0.0
  0
INSERT
  8
DIMENSIONS
  2
DIMTICK_ARROW
 10
26.89033253186456
 20
-1.570889323927802
 30
0.0
 41
3.141778647855604
 42
3.141778647855604
 50
180.0
  0
LINE
 62
7
  8
DIMENSIONS
 10
11.181439292586537
 20
-1.570889323927802
 30
0.0
 11
26.89033253186456
 21
-1.570889323927802
 31
0.0
  0
LINE
 62
5
  8
DIMENSIONS
 10
11.181439292586537
 20
-1.570889323927802
 30
0.0
 11
11.181439292586537
 21
-0.1429110676072198
 31
0.0
  0
LINE
 62
5
  8
DIMENSIONS
 10
26.89033253186456
 20
-1.570889323927802
 30
0.0
 11
26.89033253186456
 21
-0.1429110676072198
 31
0.0
  0
TEXT
 62
7
  8
DIMENSIONS
 10
19.03588591222555
 20
-0.8345311783923013
 30
0.0
 40
1.072716291071001
  1
16
 50
-0.0
  7
ISOCPEUR
 72
1
 73
2
 11
19.03588591222555
 21
-0.8345311783923013
 31
0.0
  0
INSERT
  8
DIMENSIONS
  2
DIMTICK_ARROW
 10
11.181439292586537
 20
-1.570889323927802
 30
0.0
 41
3.141778647855604
 42
3.141778647855604
 50
0.0
  0
INSERT
  8
DIMENSIONS
  2
DIMTICK_ARROW
 10
26.89033253186456
 20
-1.570889323927802
 30
0.0
 41
3.141778647855604
 42
3.141778647855604
 50
180.0
  0
LINE
 62
7
  8
DIMENSIONS
 10
11.181439292586537
 20
-1.570889323927802
 30
0.0
 11
26.89033253186456
 21
-1.570889323927802
 31
0.0
  0
LINE
 62
5
  8
DIMENSIONS
 10
11.181439292586537
 20
-1.570889323927802
 30
0.0
 11
11.181439292586537
 21
-0.1429110676072198
 31
0.0
  0
LINE
 62
5
  8
DIMENSIONS
 10
26.89033253186456
 20
-1.570889323927802
 30
0.0
 11
26.89033253186456
 21
-0.1429110676072198
 31
0.0
  0
TEXT
 62
7
  8
DIMENSIONS
 10
19.03588591222555
 20
-0.8345311783923013
 30
0.0
 40
1.072716291071001
  1
16
 50
-0.0
  7
ISOCPEUR
 72
1
 73
2
 11
19.03588591222555
 21
-0.8345311783923013
 31
0.0
  0
INSERT
  8
DIMENSIONS
  2
DIMTICK_ARROW
 10
11.181439292586537
 20
-1.570889323927802
 30
0.0
 41
3.141778647855604
 42
3.141778647855604
 50
0.0
  0
INSERT
  8
DIMENSIONS
  2
DIMTICK_ARROW
 10
26.89033253186456
 20
-1.570889323927802
 30
0.0
 41
3.141778647855604
 42
3.141778647855604
 50
180.0
  0
LINE
 62
7
  8
DIMENSIONS
 10
11.181439292586537
 20
-1.570889323927802
 30
0.0
 11
26.89033253186456
 21
-1.570889323927802
 31
0.0
  0
LINE
 62
5
  8
DIMENSIONS
 10
11.181439292586537
 20
-1.570889323927802
 30
0.0
 11
11.181439292586537
 21
-0.1429110676072198
 31
0.0
  0
LINE
 62
5
  8
DIMENSIONS
 10
26.89033253186456
 20
-1.570889323927802
 30
0.0
 11
26.89033253186456
 21
-0.1429110676072198
 31
0.0
  0
TEXT
 62
7
  8
DIMENSIONS
 10
19.03588591222555
 20
-0.8345311783923013
 30
0.0
 40
1.072716291071001
  1
16
 50
-0.0
  7
ISOCPEUR
 72
1
 73
2
 11
19.03588591222555
 21
-0.8345311783923013
 31
0.0
  0
INSERT
  8
DIMENSIONS
  2
DIMTICK_ARROW
 10
11.181439292586537
 20
-1.570889323927802
 30
0.0
 41
3.141778647855604
 42
3.141778647855604
 50
0.0
  0
INSERT
  8
DIMENSIONS
  2
DIMTICK_ARROW
 10
26.89033253186456
 20
-1.570889323927802
 30
0.0
 41
3.141778647855604
 42
3.141778647855604
 50
180.0
  0
LINE
 62
7
  8
DIMENSIONS
 10
11.181439292586537
 20
-1.570889323927802
 30
0.0
 11
26.89033253186456
 21
-1.570889323927802
 31
0.0
  0
LINE
 62
5
  8
DIMENSIONS
 10
11.181439292586537
 20
-1.570889323927802
 30
0.0
 11
11.181439292586537
 21
-0.1429110676072198
 31
0.0
  0
LINE
 62
5
  8
DIMENSIONS
 10
26.89033253186456
 20
-1.570889323927802
 30
0.0
 11
26.89033253186456
 21
-0.1429110676072198
 31
0.0
  0
TEXT
 62
7
  8
DIMENSIONS
 10
19.03588591222555
 20
-0.8345311783923013
 30
0.0
 40
1.072716291071001
  1
16
 50
-0.0
  7
ISOCPEUR
 72
1
 73
2
 11
19.03588591222555
 21
-0.8345311783923013
 31
0.0
  0
INSERT
  8
DIMENSIONS
  2
DIMTICK_ARROW
 10
11.181439292586537
 20
-1.570889323927802
 30
0.0
 41
3.141778647855604
 42
3.141778647855604
 50
0.0
  0
INSERT
  8
DIMENSIONS
  2
DIMTICK_ARROW
 10
26.89033253186456
 20
-1.570889323927802
 30
0.0
 41
3.141778647855604
 42
3.141778647855604
 50
180.0
  0
LINE
 62
7
  8
DIMENSIONS
 10
11.181439292586537
 20
-1.570889323927802
 30
0.0
 11
26.89033253186456
 21
-1.570889323927802
 31
0.0
  0
LINE
 62
5
  8
DIMENSIONS
 10
11.181439292586537
 20
-1.570889323927802
 30
0.0
 11
11.181439292586537
 21
-0.1429110676072198
 31
0.0
  0
LINE
 62
5
  8
DIMENSIONS
 10
26.89033253186456
 20
-1.570889323927802
 30
0.0
 11
26.89033253186456
 21
-0.1429110676072198
 31
0.0
  0
TEXT
 62
7
  8
DIMENSIONS
 10
19.03588591222555
 20
-0.8345311783923013
 30
0.0
 40
1.072716291071001
  1
16
 50
-0.0
  7
ISOCPEUR
 72
1
 73
2
 11
19.03588591222555
 21
-0.8345311783923013
 31
0.0
  0
INSERT
  8
DIMENSIONS
  2
DIMTICK_ARROW
 10
11.181439292586537
 20
-1.570889323927802
 30
0.0
 41
3.141778647855604
 42
3.141778647855604
 50
0.0
  0
INSERT
  8
DIMENSIONS
  2
DIMTICK_ARROW
 10
26.89033253186456
 20
-1.570889323927802
 30
0.0
 41
3.141778647855604
 42
3.141778647855604
 50
180.0
  0
LINE
 62
7
  8
DIMENSIONS
 10
11.181439292586537
 20
-1.570889323927802
 30
0.0
 11
26.89033253186456
 21
-1.570889323927802
 31
0.0
  0
LINE
 62
5
  8
DIMENSIONS
 10
11.181439292586537
 20
-1.570889323927802
 30
0.0
 11
11.181439292586537
 21
-0.1429110676072198
 31
0.0
  0
LINE
 62
5
  8
DIMENSIONS
 10
26.89033253186456
 20
-1.570889323927802
 30
0.0
 11
26.89033253186456
 21
-0.1429110676072198
 31
0.0
  0
TEXT
 62
7
  8
DIMENSIONS
 10
19.03588591222555
 20
-0.8345311783923013
 30
0.0
 40
1.072716291071001
  1
16
 50
-0.0
  7
ISOCPEUR
 72
1
 73
2
 11
19.03588591222555
 21
-0.8345311783923013
 31
0.0
  0
INSERT
  8
DIMENSIONS
  2
DIMTICK_ARROW
 10
11.181439292586537
 20
-1.570889323927802
 30
0.0
 41
3.141778647855604
 42
3.141778647855604
 50
0.0
  0
INSERT
  8
DIMENSIONS
  2
DIMTICK_ARROW
 10
26.89033253186456
 20
-1.570889323927802
 30
0.0
 41
3.141778647855604
 42
3.141778647855604
 50
180.0
  0
LINE
 62
7
  8
DIMENSIONS
 10
11.181439292586537
 20
-1.570889323927802
 30
0.0
 11
26.89033253186456
 21
-1.570889323927802
 31
0.0
  0
LINE
 62
5
  8
DIMENSIONS
 10
11.181439292586537
 20
-1.570889323927802
 30
0.0
 11
11.181439292586537
 21
-0.1429110676072198
 31
0.0
  0
LINE
 62
5
  8
DIMENSIONS
 10
26.89033253186456
 20
-1.570889323927802
 30
0.0
 11
26.89033253186456
 21
-0.1429110676072198
 31
0.0
  0
TEXT
 62
7
  8
DIMENSIONS
 10
19.03588591222555
 20
-0.8345311783923013
 30
0.0
 40
1.072716291071001
  1
16
 50
-0.0
  7
ISOCPEUR
 72
1
 73
2
 11
19.03588591222555
 21
-0.8345311783923013
 31
0.0
  0
INSERT
  8
DIMENSIONS
  2
DIMTICK_ARROW
 10
11.181439292586537
 20
-1.570889323927802
 30
0.0
 41
3.141778647855604
 42
3.141778647855604
 50
0.0
  0
INSERT
  8
DIMENSIONS
  2
DIMTICK_ARROW
 10
26.89033253186456
 20
-1.570889323927802
 30
0.0
 41
3.141778647855604
 42
3.141778647855604
 50
180.0
  0
LINE
 62
7
  8
DIMENSIONS
 10
11.181439292586537
 20
-1.570889323927802
 30
0.0
 11
26.89033253186456
 21
-1.570889323927802
 31
0.0
  0
LINE
 62
5
  8
DIMENSIONS
 10
11.181439292586537
 20
-1.570889323927802
 30
0.0
 11
11.181439292586537
 21
-0.1429110676072198
 31
0.0
  0
LINE
 62
5
  8
DIMENSIONS
 10
26.89033253186456
 20
-1.570889323927802
 30
0.0
 11
26.89033253186456
 21
-0.1429110676072198
 31
0.0
  0
TEXT
 62
7
  8
DIMENSIONS
 10
19.03588591222555
 20
-0.8345311783923013
 30
0.0
 40
1.072716291071001
  1
16
 50
-0.0
  7
ISOCPEUR
 72
1
 73
2
 11
19.03588591222555
 21
-0.8345311783923013
 31
0.0
  0
INSERT
  8
DIMENSIONS
  2
DIMTICK_ARROW
 10
11.181439292586537
 20
-1.570889323927802
 30
0.0
 41
3.141778647855604
 42
3.141778647855604
 50
0.0
  0
INSERT
  8
DIMENSIONS
  2
DIMTICK_ARROW
 10
26.89033253186456
 20
-1.570889323927802
 30
0.0
 41
3.141778647855604
 42
3.141778647855604
 50
180.0
  0
LINE
 62
3
  8
0
 10
0.0
 20
29.1540595052103
 30
0.0
 11
35.602251489892105
 21
29.1540595052103
 31
0.0
  0
LINE
 62
7
  8
DIMENSIONS
 10
0.0
 20
32.71428465419951
 30
0.0
 11
35.602251489892105
 21
32.71428465419951
 31
0.0
  0
LINE
 62
5
  8
DIMENSIONS
 10
0.0
 20
32.71428465419951
 30
0.0
 11
0.0
 21
29.4540595052103
 31
0.0
  0
LINE
 62
5
  8
DIMENSIONS
 10
35.602251489892105
 20
32.71428465419951
 30
0.0
 11
35.602251489892105
 21
29.4540595052103
 31
0.0
  0
TEXT
 62
7
  8
DIMENSIONS
 10
17.801125744946052
 20
34.00323608447429
 30
0.0
 40
2.1779028605495614
  1
36
 50
-0.0
  7
ISOCPEUR
 72
1
 73
2
 11
17.801125744946052
 21
34.00323608447429
 31
0.0
  0
INSERT
  8
DIMENSIONS
  2
DIMTICK_ARROW
 10
0.0
 20
32.71428465419951
 30
0.0
 41
7.1204502979784206
 42
7.1204502979784206
 50
0.0
  0
INSERT
  8
DIMENSIONS
  2
DIMTICK_ARROW
 10
35.602251489892105
 20
32.71428465419951
 30
0.0
 41
7.1204502979784206
 42
7.1204502979784206
 50
180.0
  0
LINE
 62
7
  8
DIMENSIONS
 10
0.0
 20
32.71428465419951
 30
0.0
 11
35.602251489892105
 21
32.71428465419951
 31
0.0
  0
LINE
 62
5
  8
DIMENSIONS
 10
0.0
 20
32.71428465419951
 30
0.0
 11
0.0
 21
29.4540595052103
 31
0.0
  0
LINE
 62
5
  8
DIMENSIONS
 10
35.602251489892105
 20
32.71428465419951
 30
0.0
 11
35.602251489892105
 21
29.4540595052103
 31
0.0
  0
TEXT
 62
7
  8
DIMENSIONS
 10
17.801125744946052
 20
34.00323608447429
 30
0.0
 40
2.1779028605495614
  1
36
 50
-0.0
  7
ISOCPEUR
 72
1
 73
2
 11
17.801125744946052
 21
34.00323608447429
 31
0.0
  0
INSERT
  8
DIMENSIONS
  2
DIMTICK_ARROW
 10
0.0
 20
32.71428465419951
 30
0.0
 41
7.1204502979784206
 42
7.1204502979784206
 50
0.0
  0
INSERT
  8
DIMENSIONS
  2
DIMTICK_ARROW
 10
35.602251489892105
 20
32.71428465419951
 30
0.0
 41
7.1204502979784206
 42
7.1204502979784206
 50
180.0
  0
LINE
 62
7
  8
DIMENSIONS
 10
0.0
 20
32.71428465419951
 30
0.0
 11
35.602251489892105
 21
32.71428465419951
 31
0.0
  0
LINE
 62
5
  8
DIMENSIONS
 10
0.0
 20
32.71428465419951
 30
0.0
 11
0.0
 21
29.4540595052103
 31
0.0
  0
LINE
 62
5
  8
DIMENSIONS
 10
35.602251489892105
 20
32.71428465419951
 30
0.0
 11
35.602251489892105
 21
29.4540595052103
 31
0.0
  0
TEXT
 62
7
  8
DIMENSIONS
 10
17.801125744946052
 20
34.00323608447429
 30
0.0
 40
2.1779028605495614
  1
36
 50
-0.0
  7
ISOCPEUR
 72
1
 73
2
 11
17.801125744946052
 21
34.00323608447429
 31
0.0
  0
INSERT
  8
DIMENSIONS
  2
DIMTICK_ARROW
 10
0.0
 20
32.71428465419951
 30
0.0
 41
7.1204502979784206
 42
7.1204502979784206
 50
0.0
  0
INSERT
  8
DIMENSIONS
  2
DIMTICK_ARROW
 10
35.602251489892105
 20
32.71428465419951
 30
0.0
 41
7.1204502979784206
 42
7.1204502979784206
 50
180.0
  0
LINE
 62
7
  8
DIMENSIONS
 10
0.0
 20
32.71428465419951
 30
0.0
 11
35.602251489892105
 21
32.71428465419951
 31
0.0
  0
LINE
 62
5
  8
DIMENSIONS
 10
0.0
 20
32.71428465419951
 30
0.0
 11
0.0
 21
29.4540595052103
 31
0.0
  0
LINE
 62
5
  8
DIMENSIONS
 10
35.602251489892105
 20
32.71428465419951
 30
0.0
 11
35.602251489892105
 21
29.4540595052103
 31
0.0
  0
TEXT
 62
7
  8
DIMENSIONS
 10
17.801125744946052
 20
34.00323608447429
 30
0.0
 40
2.1779028605495614
  1
36
 50
-0.0
  7
ISOCPEUR
 72
1
 73
2
 11
17.801125744946052
 21
34.00323608447429
 31
0.0
  0
INSERT
  8
DIMENSIONS
  2
DIMTICK_ARROW
 10
0.0
 20
32.71428465419951
 30
0.0
 41
7.1204502979784206
 42
7.1204502979784206
 50
0.0
  0
INSERT
  8
DIMENSIONS
  2
DIMTICK_ARROW
 10
35.602251489892105
 20
32.71428465419951
 30
0.0
 41
7.1204502979784206
 42
7.1204502979784206
 50
180.0
  0
LINE
 62
7
  8
DIMENSIONS
 10
0.0
 20
32.71428465419951
 30
0.0
 11
35.602251489892105
 21
32.71428465419951
 31
0.0
  0
LINE
 62
5
  8
DIMENSIONS
 10
0.0
 20
32.71428465419951
 30
0.0
 11
0.0
 21
29.4540595052103
 31
0.0
  0
LINE
 62
5
  8
DIMENSIONS
 10
35.602251489892105
 20
32.71428465419951
 30
0.0
 11
35.602251489892105
 21
29.4540595052103
 31
0.0
  0
TEXT
 62
7
  8
DIMENSIONS
 10
17.801125744946052
 20
34.00323608447429
 30
0.0
 40
2.1779028605495614
  1
36
 50
-0.0
  7
ISOCPEUR
 72
1
 73
2
 11
17.801125744946052
 21
34.00323608447429
 31
0.0
  0
INSERT
  8
DIMENSIONS
  2
DIMTICK_ARROW
 10
0.0
 20
32.71428465419951
 30
0.0
 41
7.1204502979784206
 42
7.1204502979784206
 50
0.0
  0
INSERT
  8
DIMENSIONS
  2
DIMTICK_ARROW
 10
35.602251489892105
 20
32.71428465419951
 30
0.0
 41
7.1204502979784206
 42
7.1204502979784206
 50
180.0
  0
LINE
 62
7
  8
DIMENSIONS
 10
0.0
 20
32.71428465419951
 30
0.0
 11
35.602251489892105
 21
32.71428465419951
 31
0.0
  0
LINE
 62
5
  8
DIMENSIONS
 10
0.0
 20
32.71428465419951
 30
0.0
 11
0.0
 21
29.4540595052103
 31
0.0
  0
LINE
 62
5
  8
DIMENSIONS
 10
35.602251489892105
 20
32.71428465419951
 30
0.0
 11
35.602251489892105
 21
29.4540595052103
 31
0.0
  0
TEXT
 62
7
  8
DIMENSIONS
 10
17.801125744946052
 20
34.00323608447429
 30
0.0
 40
2.1779028605495614
  1
36
 50
-0.0
  7
ISOCPEUR
 72
1
 73
2
 11
17.801125744946052
 21
34.00323608447429
 31
0.0
  0
INSERT
  8
DIMENSIONS
  2
DIMTICK_ARROW
 10
0.0
 20
32.71428465419951
 30
0.0
 41
7.1204502979784206
 42
7.1204502979784206
 50
0.0
  0
INSERT
  8
DIMENSIONS
  2
DIMTICK_ARROW
 10
35.602251489892105
 20
32.71428465419951
 30
0.0
 41
7.1204502979784206
 42
7.1204502979784206
 50
180.0
  0
LINE
 62
7
  8
DIMENSIONS
 10
0.0
 20
32.71428465419951
 30
0.0
 11
35.602251489892105
 21
32.71428465419951
 31
0.0
  0
LINE
 62
5
  8
DIMENSIONS
 10
0.0
 20
32.71428465419951
 30
0.0
 11
0.0
 21
29.4540595052103
 31
0.0
  0
LINE
 62
5
  8
DIMENSIONS
 10
35.602251489892105
 20
32.71428465419951
 30
0.0
 11
35.602251489892105
 21
29.4540595052103
 31
0.0
  0
TEXT
 62
7
  8
DIMENSIONS
 10
17.801125744946052
 20
34.00323608447429
 30
0.0
 40
2.1779028605495614
  1
36
 50
-0.0
  7
ISOCPEUR
 72
1
 73
2
 11
17.801125744946052
 21
34.00323608447429
 31
0.0
  0
INSERT
  8
DIMENSIONS
  2
DIMTICK_ARROW
 10
0.0
 20
32.71428465419951
 30
0.0
 41
7.1204502979784206
 42
7.1204502979784206
 50
0.0
  0
INSERT
  8
DIMENSIONS
  2
DIMTICK_ARROW
 10
35.602251489892105
 20
32.71428465419951
 30
0.0
 41
7.1204502979784206
 42
7.1204502979784206
 50
180.0
  0
LINE
 62
7
  8
DIMENSIONS
 10
0.0
 20
32.71428465419951
 30
0.0
 11
35.602251489892105
 21
32.71428465419951
 31
0.0
  0
LINE
 62
5
  8
DIMENSIONS
 10
0.0
 20
32.71428465419951
 30
0.0
 11
0.0
 21
29.4540595052103
 31
0.0
  0
LINE
 62
5
  8
DIMENSIONS
 10
35.602251489892105
 20
32.71428465419951
 30
0.0
 11
35.602251489892105
 21
29.4540595052103
 31
0.0
  0
TEXT
 62
7
  8
DIMENSIONS
 10
17.801125744946052
 20
34.00323608447429
 30
0.0
 40
2.1779028605495614
  1
36
 50
-0.0
  7
ISOCPEUR
 72
1
 73
2
 11
17.801125744946052
 21
34.00323608447429
 31
0.0
  0
INSERT
  8
DIMENSIONS
  2
DIMTICK_ARROW
 10
0.0
 20
32.71428465419951
 30
0.0
 41
7.1204502979784206
 42
7.1204502979784206
 50
0.0
  0
INSERT
  8
DIMENSIONS
  2
DIMTICK_ARROW
 10
35.602251489892105
 20
32.71428465419951
 30
0.0
 41
7.1204502979784206
 42
7.1204502979784206
 50
180.0
  0
LINE
 62
7
  8
DIMENSIONS
 10
0.0
 20
32.71428465419951
 30
0.0
 11
35.602251489892105
 21
32.71428465419951
 31
0.0
  0
LINE
 62
5
  8
DIMENSIONS
 10
0.0
 20
32.71428465419951
 30
0.0
 11
0.0
 21
29.4540595052103
 31
0.0
  0
LINE
 62
5
  8
DIMENSIONS
 10
35.602251489892105
 20
32.71428465419951
 30
0.0
 11
35.602251489892105
 21
29.4540595052103
 31
0.0
  0
TEXT
 62
7
  8
DIMENSIONS
 10
17.801125744946052
 20
34.00323608447429
 30
0.0
 40
2.1779028605495614
  1
36
 50
-0.0
  7
ISOCPEUR
 72
1
 73
2
 11
17.801125744946052
 21
34.00323608447429
 31
0.0
  0
INSERT
  8
DIMENSIONS
  2
DIMTICK_ARROW
 10
0.0
 20
32.71428465419951
 30
0.0
 41
7.1204502979784206
 42
7.1204502979784206
 50
0.0
  0
INSERT
  8
DIMENSIONS
  2
DIMTICK_ARROW
 10
35.602251489892105
 20
32.71428465419951
 30
0.0
 41
7.1204502979784206
 42
7.1204502979784206
 50
180.0
  0
LINE
 62
7
  8
DIMENSIONS
 10
0.0
 20
32.71428465419951
 30
0.0
 11
35.602251489892105
 21
32.71428465419951
 31
0.0
  0
LINE
 62
5
  8
DIMENSIONS
 10
0.0
 20
32.71428465419951
 30
0.0
 11
0.0
 21
29.4540595052103
 31
0.0
  0
LINE
 62
5
  8
DIMENSIONS
 10
35.602251489892105
 20
32.71428465419951
 30
0.0
 11
35.602251489892105
 21
29.4540595052103
 31
0.0
  0
TEXT
 62
7
  8
DIMENSIONS
 10
17.801125744946052
 20
34.00323608447429
 30
0.0
 40
2.1779028605495614
  1
36
 50
-0.0
  7
ISOCPEUR
 72
1
 73
2
 11
17.801125744946052
 21
34.00323608447429
 31
0.0
  0
INSERT
  8
DIMENSIONS
  2
DIMTICK_ARROW
 10
0.0
 20
32.71428465419951
 30
0.0
 41
7.1204502979784206
 42
7.1204502979784206
 50
0.0
  0
INSERT
  8
DIMENSIONS
  2
DIMTICK_ARROW
 10
35.602251489892105
 20
32.71428465419951
 30
0.0
 41
7.1204502979784206
 42
7.1204502979784206
 50
180.0
  0
LINE
 62
7
  8
DIMENSIONS
 10
0.0
 20
32.71428465419951
 30
0.0
 11
35.602251489892105
 21
32.71428465419951
 31
0.0
  0
LINE
 62
5
  8
DIMENSIONS
 10
0.0
 20
32.71428465419951
 30
0.0
 11
0.0
 21
29.4540595052103
 31
0.0
  0
LINE
 62
5
  8
DIMENSIONS
 10
35.602251489892105
 20
32.71428465419951
 30
0.0
 11
35.602251489892105
 21
29.4540595052103
 31
0.0
  0
TEXT
 62
7
  8
DIMENSIONS
 10
17.801125744946052
 20
34.00323608447429
 30
0.0
 40
2.1779028605495614
  1
36
 50
-0.0
  7
ISOCPEUR
 72
1
 73
2
 11
17.801125744946052
 21
34.00323608447429
 31
0.0
  0
INSERT
  8
DIMENSIONS
  2
DIMTICK_ARROW
 10
0.0
 20
32.71428465419951
 30
0.0
 41
7.1204502979784206
 42
7.1204502979784206
 50
0.0
  0
INSERT
  8
DIMENSIONS
  2
DIMTICK_ARROW
 10
35.602251489892105
 20
32.71428465419951
 30
0.0
 41
7.1204502979784206
 42
7.1204502979784206
 50
180.0
  0
LINE
 62
7
  8
DIMENSIONS
 10
0.0
 20
32.71428465419951
 30
0.0
 11
35.602251489892105
 21
32.71428465419951
 31
0.0
  0
LINE
 62
5
  8
DIMENSIONS
 10
0.0
 20
32.71428465419951
 30
0.0
 11
0.0
 21
29.4540595052103
 31
0.0
  0
LINE
 62
5
  8
DIMENSIONS
 10
35.602251489892105
 20
32.71428465419951
 30
0.0
 11
35.602251489892105
 21
29.4540595052103
 31
0.0
  0
TEXT
 62
7
  8
DIMENSIONS
 10
17.801125744946052
 20
34.00323608447429
 30
0.0
 40
2.1779028605495614
  1
36
 50
-0.0
  7
ISOCPEUR
 72
1
 73
2
 11
17.801125744946052
 21
34.00323608447429
 31
0.0
  0
INSERT
  8
DIMENSIONS
  2
DIMTICK_ARROW
 10
0.0
 20
32.71428465419951
 30
0.0
 41
7.1204502979784206
 42
7.1204502979784206
 50
0.0
  0
INSERT
  8
DIMENSIONS
  2
DIMTICK_ARROW
 10
35.602251489892105
 20
32.71428465419951
 30
0.0
 41
7.1204502979784206
 42
7.1204502979784206
 50
180.0
  0
LINE
 62
7
  8
DIMENSIONS
 10
0.0
 20
32.71428465419951
 30
0.0
 11
35.602251489892105
 21
32.71428465419951
 31
0.0
  0
LINE
 62
5
  8
DIMENSIONS
 10
0.0
 20
32.71428465419951
 30
0.0
 11
0.0
 21
29.4540595052103
 31
0.0
  0
LINE
 62
5
  8
DIMENSIONS
 10
35.602251489892105
 20
32.71428465419951
 30
0.0
 11
35.602251489892105
 21
29.4540595052103
 31
0.0
  0
TEXT
 62
7
  8
DIMENSIONS
 10
17.801125744946052
 20
34.00323608447429
 30
0.0
 40
2.1779028605495614
  1
36
 50
-0.0
  7
ISOCPEUR
 72
1
 73
2
 11
17.801125744946052
 21
34.00323608447429
 31
0.0
  0
INSERT
  8
DIMENSIONS
  2
DIMTICK_ARROW
 10
0.0
 20
32.71428465419951
 30
0.0
 41
7.1204502979784206
 42
7.1204502979784206
 50
0.0
  0
INSERT
  8
DIMENSIONS
  2
DIMTICK_ARROW
 10
35.602251489892105
 20
32.71428465419951
 30
0.0
 41
7.1204502979784206
 42
7.1204502979784206
 50
180.0
  0
LINE
 62
7
  8
DIMENSIONS
 10
0.0
 20
32.71428465419951
 30
0.0
 11
35.602251489892105
 21
32.71428465419951
 31
0.0
  0
LINE
 62
5
  8
DIMENSIONS
 10
0.0
 20
32.71428465419951
 30
0.0
 11
0.0
 21
29.4540595052103
 31
0.0
  0
LINE
 62
5
  8
DIMENSIONS
 10
35.602251489892105
 20
32.71428465419951
 30
0.0
 11
35.602251489892105
 21
29.4540595052103
 31
0.0
  0
TEXT
 62
7
  8
DIMENSIONS
 10
17.801125744946052
 20
34.00323608447429
 30
0.0
 40
2.1779028605495614
  1
36
 50
-0.0
  7
ISOCPEUR
 72
1
 73
2
 11
17.801125744946052
 21
34.00323608447429
 31
0.0
  0
INSERT
  8
DIMENSIONS
  2
DIMTICK_ARROW
 10
0.0
 20
32.71428465419951
 30
0.0
 41
7.1204502979784206
 42
7.1204502979784206
 50
0.0
  0
INSERT
  8
DIMENSIONS
  2
DIMTICK_ARROW
 10
35.602251489892105
 20
32.71428465419951
 30
0.0
 41
7.1204502979784206
 42
7.1204502979784206
 50
180.0
  0
LINE
 62
7
  8
DIMENSIONS
 10
0.0
 20
32.71428465419951
 30
0.0
 11
35.602251489892105
 21
32.71428465419951
 31
0.0
  0
LINE
 62
5
  8
DIMENSIONS
 10
0.0
 20
32.71428465419951
 30
0.0
 11
0.0
 21
29.4540595052103
 31
0.0
  0
LINE
 62
5
  8
DIMENSIONS
 10
35.602251489892105
 20
32.71428465419951
 30
0.0
 11
35.602251489892105
 21
29.4540595052103
 31
0.0
  0
TEXT
 62
7
  8
DIMENSIONS
 10
17.801125744946052
 20
34.00323608447429
 30
0.0
 40
2.1779028605495614
  1
36
 50
-0.0
  7
ISOCPEUR
 72
1
 73
2
 11
17.801125744946052
 21
34.00323608447429
 31
0.0
  0
INSERT
  8
DIMENSIONS
  2
DIMTICK_ARROW
 10
0.0
 20
32.71428465419951
 30
0.0
 41
7.1204502979784206
 42
7.1204502979784206
 50
0.0
  0
INSERT
  8
DIMENSIONS
  2
DIMTICK_ARROW
 10
35.602251489892105
 20
32.71428465419951
 30
0.0
 41
7.1204502979784206
 42
7.1204502979784206
 50
180.0
  0
LINE
 62
7
  8
DIMENSIONS
 10
0.0
 20
32.71428465419951
 30
0.0
 11
35.602251489892105
 21
32.71428465419951
 31
0.0
  0
LINE
 62
5
  8
DIMENSIONS
 10
0.0
 20
32.71428465419951
 30
0.0
 11
0.0
 21
29.4540595052103
 31
0.0
  0
LINE
 62
5
  8
DIMENSIONS
 10
35.602251489892105
 20
32.71428465419951
 30
0.0
 11
35.602251489892105
 21
29.4540595052103
 31
0.0
  0
TEXT
 62
7
  8
DIMENSIONS
 10
17.801125744946052
 20
34.00323608447429
 30
0.0
 40
2.1779028605495614
  1
36
 50
-0.0
  7
ISOCPEUR
 72
1
 73
2
 11
17.801125744946052
 21
34.00323608447429
 31
0.0
  0
INSERT
  8
DIMENSIONS
  2
DIMTICK_ARROW
 10
0.0
 20
32.71428465419951
 30
0.0
 41
7.1204502979784206
 42
7.1204502979784206
 50
0.0
  0
INSERT
  8
DIMENSIONS
  2
DIMTICK_ARROW
 10
35.602251489892105
 20
32.71428465419951
 30
0.0
 41
7.1204502979784206
 42
7.1204502979784206
 50
180.0
  0
LINE
 62
7
  8
DIMENSIONS
 10
0.0
 20
32.71428465419951
 30
0.0
 11
35.602251489892105
 21
32.71428465419951
 31
0.0
  0
LINE
 62
5
  8
DIMENSIONS
 10
0.0
 20
32.71428465419951
 30
0.0
 11
0.0
 21
29.4540595052103
 31
0.0
  0
LINE
 62
5
  8
DIMENSIONS
 10
35.602251489892105
 20
32.71428465419951
 30
0.0
 11
35.602251489892105
 21
29.4540595052103
 31
0.0
  0
TEXT
 62
7
  8
DIMENSIONS
 10
17.801125744946052
 20
34.00323608447429
 30
0.0
 40
2.1779028605495614
  1
36
 50
-0.0
  7
ISOCPEUR
 72
1
 73
2
 11
17.801125744946052
 21
34.00323608447429
 31
0.0
  0
INSERT
  8
DIMENSIONS
  2
DIMTICK_ARROW
 10
0.0
 20
32.71428465419951
 30
0.0
 41
7.1204502979784206
 42
7.1204502979784206
 50
0.0
  0
INSERT
  8
DIMENSIONS
  2
DIMTICK_ARROW
 10
35.602251489892105
 20
32.71428465419951
 30
0.0
 41
7.1204502979784206
 42
7.1204502979784206
 50
180.0
  0
LINE
 62
7
  8
DIMENSIONS
 10
0.0
 20
32.71428465419951
 30
0.0
 11
35.602251489892105
 21
32.71428465419951
 31
0.0
  0
LINE
 62
5
  8
DIMENSIONS
 10
0.0
 20
32.71428465419951
 30
0.0
 11
0.0
 21
29.4540595052103
 31
0.0
  0
LINE
 62
5
  8
DIMENSIONS
 10
35.602251489892105
 20
32.71428465419951
 30
0.0
 11
35.602251489892105
 21
29.4540595052103
 31
0.0
  0
TEXT
 62
7
  8
DIMENSIONS
 10
17.801125744946052
 20
34.00323608447429
 30
0.0
 40
2.1779028605495614
  1
36
 50
-0.0
  7
ISOCPEUR
 72
1
 73
2
 11
17.801125744946052
 21
34.00323608447429
 31
0.0
  0
INSERT
  8
DIMENSIONS
  2
DIMTICK_ARROW
 10
0.0
 20
32.71428465419951
 30
0.0
 41
7.1204502979784206
 42
7.1204502979784206
 50
0.0
  0
INSERT
  8
DIMENSIONS
  2
DIMTICK_ARROW
 10
35.602251489892105
 20
32.71428465419951
 30
0.0
 41
7.1204502979784206
 42
7.1204502979784206
 50
180.0
  0
LINE
 62
7
  8
DIMENSIONS
 10
0.0
 20
32.71428465419951
 30
0.0
 11
35.602251489892105
 21
32.71428465419951
 31
0.0
  0
LINE
 62
5
  8
DIMENSIONS
 10
0.0
 20
32.71428465419951
 30
0.0
 11
0.0
 21
29.4540595052103
 31
0.0
  0
LINE
 62
5
  8
DIMENSIONS
 10
35.602251489892105
 20
32.71428465419951
 30
0.0
 11
35.602251489892105
 21
29.4540595052103
 31
0.0
  0
TEXT
 62
7
  8
DIMENSIONS
 10
17.801125744946052
 20
34.00323608447429
 30
0.0
 40
2.1779028605495614
  1
36
 50
-0.0
  7
ISOCPEUR
 72
1
 73
2
 11
17.801125744946052
 21
34.00323608447429
 31
0.0
  0
INSERT
  8
DIMENSIONS
  2
DIMTICK_ARROW
 10
0.0
 20
32.71428465419951
 30
0.0
 41
7.1204502979784206
 42
7.1204502979784206
 50
0.0
  0
INSERT
  8
DIMENSIONS
  2
DIMTICK_ARROW
 10
35.602251489892105
 20
32.71428465419951
 30
0.0
 41
7.1204502979784206
 42
7.1204502979784206
 50
180.0
  0
LINE
 62
7
  8
DIMENSIONS
 10
0.0
 20
32.71428465419951
 30
0.0
 11
35.602251489892105
 21
32.71428465419951
 31
0.0
  0
LINE
 62
5
  8
DIMENSIONS
 10
0.0
 20
32.71428465419951
 30
0.0
 11
0.0
 21
29.4540595052103
 31
0.0
  0
LINE
 62
5
  8
DIMENSIONS
 10
35.602251489892105
 20
32.71428465419951
 30
0.0
 11
35.602251489892105
 21
29.4540595052103
 31
0.0
  0
TEXT
 62
7
  8
DIMENSIONS
 10
17.801125744946052
 20
34.00323608447429
 30
0.0
 40
2.1779028605495614
  1
36
 50
-0.0
  7
ISOCPEUR
 72
1
 73
2
 11
17.801125744946052
 21
34.00323608447429
 31
0.0
  0
INSERT
  8
DIMENSIONS
  2
DIMTICK_ARROW
 10
0.0
 20
32.71428465419951
 30
0.0
 41
7.1204502979784206
 42
7.1204502979784206
 50
0.0
  0
INSERT
  8
DIMENSIONS
  2
DIMTICK_ARROW
 10
35.602251489892105
 20
32.71428465419951
 30
0.0
 41
7.1204502979784206
 42
7.1204502979784206
 50
180.0
  0
LINE
 62
3
  8
0
 10
26.89033253186456
 20
0.0
 30
0.0
 11
26.89033253186456
 21
6.996974281250472
 31
0.0
  0
LINE
 62
7
  8
DIMENSIONS
 10
27.590029959989607
 20
-8.568822157249752e-17
 30
0.0
 11
27.590029959989607
 21
6.996974281250472
 31
0.0
  0
LINE
 62
5
  8
DIMENSIONS
 10
27.590029959989607
 20
-8.568822157249752e-17
 30
0.0
 11
27.19033253186456
 21
-3.673940397442055e-17
 31
0.0
  0
LINE
 62
5
  8
DIMENSIONS
 10
27.590029959989607
 20
6.996974281250472
 30
0.0
 11
27.19033253186456
 21
6.996974281250472
 31
0.0
  0
TEXT
 62
7
  8
DIMENSIONS
 10
27.090029959989607
 20
3.498487140625236
 30
0.0
 40
0.6000000000000001
  1
7
 50
90.0
  7
ISOCPEUR
 72
1
 73
2
 11
27.090029959989607
 21
3.498487140625236
 31
0.0
  0
INSERT
  8
DIMENSIONS
  2
DIMTICK_ARROW
 10
27.590029959989607
 20
-8.568822157249752e-17
 30
0.0
 41
1.3993948562500944
 42
1.3993948562500944
 50
90.0
  0
INSERT
  8
DIMENSIONS
  2
DIMTICK_ARROW
 10
27.590029959989607
 20
6.996974281250472
 30
0.0
 41
1.3993948562500944
 42
1.3993948562500944
 50
270.0
  0
LINE
 62
7
  8
DIMENSIONS
 10
27.590029959989607
 20
-8.568822157249752e-17
 30
0.0
 11
27.590029959989607
 21
6.996974281250472
 31
0.0
  0
LINE
 62
5
  8
DIMENSIONS
 10
27.590029959989607
 20
-8.568822157249752e-17
 30
0.0
 11
27.19033253186456
 21
-3.673940397442055e-17
 31
0.0
  0
LINE
 62
5
  8
DIMENSIONS
 10
27.590029959989607
 20
6.996974281250472
 30
0.0
 11
27.19033253186456
 21
6.996974281250472
 31
0.0
  0
TEXT
 62
7
  8
DIMENSIONS
 10
27.090029959989607
 20
3.498487140625236
 30
0.0
 40
0.6000000000000001
  1
7
 50
90.0
  7
ISOCPEUR
 72
1
 73
2
 11
27.090029959989607
 21
3.498487140625236
 31
0.0
  0
INSERT
  8
DIMENSIONS
  2
DIMTICK_ARROW
 10
27.590029959989607
 20
-8.568822157249752e-17
 30
0.0
 41
1.3993948562500944
 42
1.3993948562500944
 50
90.0
  0
INSERT
  8
DIMENSIONS
  2
DIMTICK_ARROW
 10
27.590029959989607
 20
6.996974281250472
 30
0.0
 41
1.3993948562500944
 42
1.3993948562500944
 50
270.0
  0
LINE
 62
7
  8
DIMENSIONS
 10
27.590029959989607
 20
-8.568822157249752e-17
 30
0.0
 11
27.590029959989607
 21
6.996974281250472
 31
0.0
  0
LINE
 62
5
  8
DIMENSIONS
 10
27.590029959989607
 20
-8.568822157249752e-17
 30
0.0
 11
27.19033253186456
 21
-3.673940397442055e-17
 31
0.0
  0
LINE
 62
5
  8
DIMENSIONS
 10
27.590029959989607
 20
6.996974281250472
 30
0.0
 11
27.19033253186456
 21
6.996974281250472
 31
0.0
  0
TEXT
 62
7
  8
DIMENSIONS
 10
27.090029959989607
 20
3.498487140625236
 30
0.0
 40
0.6000000000000001
  1
7
 50
90.0
  7
ISOCPEUR
 72
1
 73
2
 11
27.090029959989607
 21
3.498487140625236
 31
0.0
  0
INSERT
  8
DIMENSIONS
  2
DIMTICK_ARROW
 10
27.590029959989607
 20
-8.568822157249752e-17
 30
0.0
 41
1.3993948562500944
 42
1.3993948562500944
 50
90.0
  0
INSERT
  8
DIMENSIONS
  2
DIMTICK_ARROW
 10
27.590029959989607
 20
6.996974281250472
 30
0.0
 41
1.3993948562500944
 42
1.3993948562500944
 50
270.0
  0
LINE
 62
7
  8
DIMENSIONS
 10
27.590029959989607
 20
-8.568822157249752e-17
 30
0.0
 11
27.590029959989607
 21
6.996974281250472
 31
0.0
  0
LINE
 62
5
  8
DIMENSIONS
 10
27.590029959989607
 20
-8.568822157249752e-17
 30
0.0
 11
27.19033253186456
 21
-3.673940397442055e-17
 31
0.0
  0
LINE
 62
5
  8
DIMENSIONS
 10
27.590029959989607
 20
6.996974281250472
 30
0.0
 11
27.19033253186456
 21
6.996974281250472
 31
0.0
  0
TEXT
 62
7
  8
DIMENSIONS
 10
27.090029959989607
 20
3.498487140625236
 30
0.0
 40
0.6000000000000001
  1
7
 50
90.0
  7
ISOCPEUR
 72
1
 73
2
 11
27.090029959989607
 21
3.498487140625236
 31
0.0
  0
INSERT
  8
DIMENSIONS
  2
DIMTICK_ARROW
 10
27.590029959989607
 20
-8.568822157249752e-17
 30
0.0
 41
1.3993948562500944
 42
1.3993948562500944
 50
90.0
  0
INSERT
  8
DIMENSIONS
  2
DIMTICK_ARROW
 10
27.590029959989607
 20
6.996974281250472
 30
0.0
 41
1.3993948562500944
 42
1.3993948562500944
 50
270.0
  0
LINE
 62
7
  8
DIMENSIONS
 10
27.590029959989607
 20
-8.568822157249752e-17
 30
0.0
 11
27.590029959989607
 21
6.996974281250472
 31
0.0
  0
LINE
 62
5
  8
DIMENSIONS
 10
27.590029959989607
 20
-8.568822157249752e-17
 30
0.0
 11
27.19033253186456
 21
-3.673940397442055e-17
 31
0.0
  0
LINE
 62
5
  8
DIMENSIONS
 10
27.590029959989607
 20
6.996974281250472
 30
0.0
 11
27.19033253186456
 21
6.996974281250472
 31
0.0
  0
TEXT
 62
7
  8
DIMENSIONS
 10
27.090029959989607
 20
3.498487140625236
 30
0.0
 40
0.6000000000000001
  1
7
 50
90.0
  7
ISOCPEUR
 72
1
 73
2
 11
27.090029959989607
 21
3.498487140625236
 31
0.0
  0
INSERT
  8
DIMENSIONS
  2
DIMTICK_ARROW
 10
27.590029959989607
 20
-8.568822157249752e-17
 30
0.0
 41
1.3993948562500944
 42
1.3993948562500944
 50
90.0
  0
INSERT
  8
DIMENSIONS
  2
DIMTICK_ARROW
 10
27.590029959989607
 20
6.996974281250472
 30
0.0
 41
1.3993948562500944
 42
1.3993948562500944
 50
270.0
  0
LINE
 62
7
  8
DIMENSIONS
 10
27.590029959989607
 20
-8.568822157249752e-17
 30
0.0
 11
27.590029959989607
 21
6.996974281250472
 31
0.0
  0
LINE
 62
5
  8
DIMENSIONS
 10
27.590029959989607
 20
-8.568822157249752e-17
 30
0.0
 11
27.19033253186456
 21
-3.673940397442055e-17
 31
0.0
  0
LINE
 62
5
  8
DIMENSIONS
 10
27.590029959989607
 20
6.996974281250472
 30
0.0
 11
27.19033253186456
 21
6.996974281250472
 31
0.0
  0
TEXT
 62
7
  8
DIMENSIONS
 10
27.090029959989607
 20
3.498487140625236
 30
0.0
 40
0.6000000000000001
  1
7
 50
90.0
  7
ISOCPEUR
 72
1
 73
2
 11
27.090029959989607
 21
3.498487140625236
 31
0.0
  0
INSERT
  8
DIMENSIONS
  2
DIMTICK_ARROW
 10
27.590029959989607
 20
-8.568822157249752e-17
 30
0.0
 41
1.3993948562500944
 42
1.3993948562500944
 50
90.0
  0
INSERT
  8
DIMENSIONS
  2
DIMTICK_ARROW
 10
27.590029959989607
 20
6.996974281250472
 30
0.0
 41
1.3993948562500944
 42
1.3993948562500944
 50
270.0
  0
LINE
 62
7
  8
DIMENSIONS
 10
27.590029959989607
 20
-8.568822157249752e-17
 30
0.0
 11
27.590029959989607
 21
6.996974281250472
 31
0.0
  0
LINE
 62
5
  8
DIMENSIONS
 10
27.590029959989607
 20
-8.568822157249752e-17
 30
0.0
 11
27.19033253186456
 21
-3.673940397442055e-17
 31
0.0
  0
LINE
 62
5
  8
DIMENSIONS
 10
27.590029959989607
 20
6.996974281250472
 30
0.0
 11
27.19033253186456
 21
6.996974281250472
 31
0.0
  0
TEXT
 62
7
  8
DIMENSIONS
 10
27.090029959989607
 20
3.498487140625236
 30
0.0
 40
0.6000000000000001
  1
7
 50
90.0
  7
ISOCPEUR
 72
1
 73
2
 11
27.090029959989607
 21
3.498487140625236
 31
0.0
  0
INSERT
  8
DIMENSIONS
  2
DIMTICK_ARROW
 10
27.590029959989607
 20
-8.568822157249752e-17
 30
0.0
 41
1.3993948562500944
 42
1.3993948562500944
 50
90.0
  0
INSERT
  8
DIMENSIONS
  2
DIMTICK_ARROW
 10
27.590029959989607
 20
6.996974281250472
 30
0.0
 41
1.3993948562500944
 42
1.3993948562500944
 50
270.0
  0
LINE
 62
7
  8
DIMENSIONS
 10
27.590029959989607
 20
-8.568822157249752e-17
 30
0.0
 11
27.590029959989607
 21
6.996974281250472
 31
0.0
  0
LINE
 62
5
  8
DIMENSIONS
 10
27.590029959989607
 20
-8.568822157249752e-17
 30
0.0
 11
27.19033253186456
 21
-3.673940397442055e-17
 31
0.0
  0
LINE
 62
5
  8
DIMENSIONS
 10
27.590029959989607
 20
6.996974281250472
 30
0.0
 11
27.19033253186456
 21
6.996974281250472
 31
0.0
  0
TEXT
 62
7
  8
DIMENSIONS
 10
27.090029959989607
 20
3.498487140625236
 30
0.0
 40
0.6000000000000001
  1
7
 50
90.0
  7
ISOCPEUR
 72
1
 73
2
 11
27.090029959989607
 21
3.498487140625236
 31
0.0
  0
INSERT
  8
DIMENSIONS
  2
DIMTICK_ARROW
 10
27.590029959989607
 20
-8.568822157249752e-17
 30
0.0
 41
1.3993948562500944
 42
1.3993948562500944
 50
90.0
  0
INSERT
  8
DIMENSIONS
  2
DIMTICK_ARROW
 10
27.590029959989607
 20
6.996974281250472
 30
0.0
 41
1.3993948562500944
 42
1.3993948562500944
 50
270.0
  0
LINE
 62
7
  8
DIMENSIONS
 10
27.590029959989607
 20
-8.568822157249752e-17
 30
0.0
 11
27.590029959989607
 21
6.996974281250472
 31
0.0
  0
LINE
 62
5
  8
DIMENSIONS
 10
27.590029959989607
 20
-8.568822157249752e-17
 30
0.0
 11
27.19033253186456
 21
-3.673940397442055e-17
 31
0.0
  0
LINE
 62
5
  8
DIMENSIONS
 10
27.590029959989607
 20
6.996974281250472
 30
0.0
 11
27.19033253186456
 21
6.996974281250472
 31
0.0
  0
TEXT
 62
7
  8
DIMENSIONS
 10
27.090029959989607
 20
3.498487140625236
 30
0.0
 40
0.6000000000000001
  1
7
 50
90.0
  7
ISOCPEUR
 72
1
 73
2
 11
27.090029959989607
 21
3.498487140625236
 31
0.0
  0
INSERT
  8
DIMENSIONS
  2
DIMTICK_ARROW
 10
27.590029959989607
 20
-8.568822157249752e-17
 30
0.0
 41
1.3993948562500944
 42
1.3993948562500944
 50
90.0
  0
INSERT
  8
DIMENSIONS
  2
DIMTICK_ARROW
 10
27.590029959989607
 20
6.996974281250472
 30
0.0
 41
1.3993948562500944
 42
1.3993948562500944
 50
270.0
  0
LINE
 62
7
  8
DIMENSIONS
 10
27.590029959989607
 20
-8.568822157249752e-17
 30
0.0
 11
27.590029959989607
 21
6.996974281250472
 31
0.0
  0
LINE
 62
5
  8
DIMENSIONS
 10
27.590029959989607
 20
-8.568822157249752e-17
 30
0.0
 11
27.19033253186456
 21
-3.673940397442055e-17
 31
0.0
  0
LINE
 62
5
  8
DIMENSIONS
 10
27.590029959989607
 20
6.996974281250472
 30
0.0
 11
27.19033253186456
 21
6.996974281250472
 31
0.0
  0
TEXT
 62
7
  8
DIMENSIONS
 10
27.090029959989607
 20
3.498487140625236
 30
0.0
 40
0.6000000000000001
  1
7
 50
90.0
  7
ISOCPEUR
 72
1
 73
2
 11
27.090029959989607
 21
3.498487140625236
 31
0.0
  0
INSERT
  8
DIMENSIONS
  2
DIMTICK_ARROW
 10
27.590029959989607
 20
-8.568822157249752e-17
 30
0.0
 41
1.3993948562500944
 42
1.3993948562500944
 50
90.0
  0
INSERT
  8
DIMENSIONS
  2
DIMTICK_ARROW
 10
27.590029959989607
 20
6.996974281250472
 30
0.0
 41
1.3993948562500944
 42
1.3993948562500944
 50
270.0
  0
LINE
 62
7
  8
DIMENSIONS
 10
27.590029959989607
 20
-8.568822157249752e-17
 30
0.0
 11
27.590029959989607
 21
6.996974281250472
 31
0.0
  0
LINE
 62
5
  8
DIMENSIONS
 10
27.590029959989607
 20
-8.568822157249752e-17
 30
0.0
 11
27.19033253186456
 21
-3.673940397442055e-17
 31
0.0
  0
LINE
 62
5
  8
DIMENSIONS
 10
27.590029959989607
 20
6.996974281250472
 30
0.0
 11
27.19033253186456
 21
6.996974281250472
 31
0.0
  0
TEXT
 62
7
  8
DIMENSIONS
 10
27.090029959989607
 20
3.498487140625236
 30
0.0
 40
0.6000000000000001
  1
7
 50
90.0
  7
ISOCPEUR
 72
1
 73
2
 11
27.090029959989607
 21
3.498487140625236
 31
0.0
  0
INSERT
  8
DIMENSIONS
  2
DIMTICK_ARROW
 10
27.590029959989607
 20
-8.568822157249752e-17
 30
0.0
 41
1.3993948562500944
 42
1.3993948562500944
 50
90.0
  0
INSERT
  8
DIMENSIONS
  2
DIMTICK_ARROW
 10
27.590029959989607
 20
6.996974281250472
 30
0.0
 41
1.3993948562500944
 42
1.3993948562500944
 50
270.0
  0
LINE
 62
7
  8
DIMENSIONS
 10
27.590029959989607
 20
-8.568822157249752e-17
 30
0.0
 11
27.590029959989607
 21
6.996974281250472
 31
0.0
  0
LINE
 62
5
  8
DIMENSIONS
 10
27.590029959989607
 20
-8.568822157249752e-17
 30
0.0
 11
27.19033253186456
 21
-3.673940397442055e-17
 31
0.0
  0
LINE
 62
5
  8
DIMENSIONS
 10
27.590029959989607
 20
6.996974281250472
 30
0.0
 11
27.19033253186456
 21
6.996974281250472
 31
0.0
  0
TEXT
 62
7
  8
DIMENSIONS
 10
27.090029959989607
 20
3.498487140625236
 30
0.0
 40
0.6000000000000001
  1
7
 50
90.0
  7
ISOCPEUR
 72
1
 73
2
 11
27.090029959989607
 21
3.498487140625236
 31
0.0
  0
INSERT
  8
DIMENSIONS
  2
DIMTICK_ARROW
 10
27.590029959989607
 20
-8.568822157249752e-17
 30
0.0
 41
1.3993948562500944
 42
1.3993948562500944
 50
90.0
  0
INSERT
  8
DIMENSIONS
  2
DIMTICK_ARROW
 10
27.590029959989607
 20
6.996974281250472
 30
0.0
 41
1.3993948562500944
 42
1.3993948562500944
 50
270.0
  0
LINE
 62
7
  8
DIMENSIONS
 10
27.590029959989607
 20
-8.568822157249752e-17
 30
0.0
 11
27.590029959989607
 21
6.996974281250472
 31
0.0
  0
LINE
 62
5
  8
DIMENSIONS
 10
27.590029959989607
 20
-8.568822157249752e-17
 30
0.0
 11
27.19033253186456
 21
-3.673940397442055e-17
 31
0.0
  0
LINE
 62
5
  8
DIMENSIONS
 10
27.590029959989607
 20
6.996974281250472
 30
0.0
 11
27.19033253186456
 21
6.996974281250472
 31
0.0
  0
TEXT
 62
7
  8
DIMENSIONS
 10
27.090029959989607
 20
3.498487140625236
 30
0.0
 40
0.6000000000000001
  1
7
 50
90.0
  7
ISOCPEUR
 72
1
 73
2
 11
27.090029959989607
 21
3.498487140625236
 31
0.0
  0
INSERT
  8
DIMENSIONS
  2
DIMTICK_ARROW
 10
27.590029959989607
 20
-8.568822157249752e-17
 30
0.0
 41
1.3993948562500944
 42
1.3993948562500944
 50
90.0
  0
INSERT
  8
DIMENSIONS
  2
DIMTICK_ARROW
 10
27.590029959989607
 20
6.996974281250472
 30
0.0
 41
1.3993948562500944
 42
1.3993948562500944
 50
270.0
  0
LINE
 62
7
  8
DIMENSIONS
 10
27.590029959989607
 20
-8.568822157249752e-17
 30
0.0
 11
27.590029959989607
 21
6.996974281250472
 31
0.0
  0
LINE
 62
5
  8
DIMENSIONS
 10
27.590029959989607
 20
-8.568822157249752e-17
 30
0.0
 11
27.19033253186456
 21
-3.673940397442055e-17
 31
0.0
  0
LINE
 62
5
  8
DIMENSIONS
 10
27.590029959989607
 20
6.996974281250472
 30
0.0
 11
27.19033253186456
 21
6.996974281250472
 31
0.0
  0
TEXT
 62
7
  8
DIMENSIONS
 10
27.090029959989607
 20
3.498487140625236
 30
0.0
 40
0.6000000000000001
  1
7
 50
90.0
  7
ISOCPEUR
 72
1
 73
2
 11
27.090029959989607
 21
3.498487140625236
 31
0.0
  0
INSERT
  8
DIMENSIONS
  2
DIMTICK_ARROW
 10
27.590029959989607
 20
-8.568822157249752e-17
 30
0.0
 41
1.3993948562500944
 42
1.3993948562500944
 50
90.0
  0
INSERT
  8
DIMENSIONS
  2
DIMTICK_ARROW
 10
27.590029959989607
 20
6.996974281250472
 30
0.0
 41
1.3993948562500944
 42
1.3993948562500944
 50
270.0
  0
LINE
 62
7
  8
DIMENSIONS
 10
27.590029959989607
 20
-8.568822157249752e-17
 30
0.0
 11
27.590029959989607
 21
6.996974281250472
 31
0.0
  0
LINE
 62
5
  8
DIMENSIONS
 10
27.590029959989607
 20
-8.568822157249752e-17
 30
0.0
 11
27.19033253186456
 21
-3.673940397442055e-17
 31
0.0
  0
LINE
 62
5
  8
DIMENSIONS
 10
27.590029959989607
 20
6.996974281250472
 30
0.0
 11
27.19033253186456
 21
6.996974281250472
 31
0.0
  0
TEXT
 62
7
  8
DIMENSIONS
 10
27.090029959989607
 20
3.498487140625236
 30
0.0
 40
0.6000000000000001
  1
7
 50
90.0
  7
ISOCPEUR
 72
1
 73
2
 11
27.090029959989607
 21
3.498487140625236
 31
0.0
  0
INSERT
  8
DIMENSIONS
  2
DIMTICK_ARROW
 10
27.590029959989607
 20
-8.568822157249752e-17
 30
0.0
 41
1.3993948562500944
 42
1.3993948562500944
 50
90.0
  0
INSERT
  8
DIMENSIONS
  2
DIMTICK_ARROW
 10
27.590029959989607
 20
6.996974281250472
 30
0.0
 41
1.3993948562500944
 42
1.3993948562500944
 50
270.0
  0
LINE
 62
7
  8
DIMENSIONS
 10
27.590029959989607
 20
-8.568822157249752e-17
 30
0.0
 11
27.590029959989607
 21
6.996974281250472
 31
0.0
  0
LINE
 62
5
  8
DIMENSIONS
 10
27.590029959989607
 20
-8.568822157249752e-17
 30
0.0
 11
27.19033253186456
 21
-3.673940397442055e-17
 31
0.0
  0
LINE
 62
5
  8
DIMENSIONS
 10
27.590029959989607
 20
6.996974281250472
 30
0.0
 11
27.19033253186456
 21
6.996974281250472
 31
0.0
  0
TEXT
 62
7
  8
DIMENSIONS
 10
27.090029959989607
 20
3.498487140625236
 30
0.0
 40
0.6000000000000001
  1
7
 50
90.0
  7
ISOCPEUR
 72
1
 73
2
 11
27.090029959989607
 21
3.498487140625236
 31
0.0
  0
INSERT
  8
DIMENSIONS
  2
DIMTICK_ARROW
 10
27.590029959989607
 20
-8.568822157249752e-17
 30
0.0
 41
1.3993948562500944
 42
1.3993948562500944
 50
90.0
  0
INSERT
  8
DIMENSIONS
  2
DIMTICK_ARROW
 10
27.590029959989607
 20
6.996974281250472
 30
0.0
 41
1.3993948562500944
 42
1.3993948562500944
 50
270.0
  0
LINE
 62
7
  8
DIMENSIONS
 10
27.590029959989607
 20
-8.568822157249752e-17
 30
0.0
 11
27.590029959989607
 21
6.996974281250472
 31
0.0
  0
LINE
 62
5
  8
DIMENSIONS
 10
27.590029959989607
 20
-8.568822157249752e-17
 30
0.0
 11
27.19033253186456
 21
-3.673940397442055e-17
 31
0.0
  0
LINE
 62
5
  8
DIMENSIONS
 10
27.590029959989607
 20
6.996974281250472
 30
0.0
 11
27.19033253186456
 21
6.996974281250472
 31
0.0
  0
TEXT
 62
7
  8
DIMENSIONS
 10
27.090029959989607
 20
3.498487140625236
 30
0.0
 40
0.6000000000000001
  1
7
 50
90.0
  7
ISOCPEUR
 72
1
 73
2
 11
27.090029959989607
 21
3.498487140625236
 31
0.0
  0
INSERT
  8
DIMENSIONS
  2
DIMTICK_ARROW
 10
27.590029959989607
 20
-8.568822157249752e-17
 30
0.0
 41
1.3993948562500944
 42
1.3993948562500944
 50
90.0
  0
INSERT
  8
DIMENSIONS
  2
DIMTICK_ARROW
 10
27.590029959989607
 20
6.996974281250472
 30
0.0
 41
1.3993948562500944
 42
1.3993948562500944
 50
270.0
  0
LINE
 62
7
  8
DIMENSIONS
 10
27.590029959989607
 20
-8.568822157249752e-17
 30
0.0
 11
27.590029959989607
 21
6.996974281250472
 31
0.0
  0
LINE
 62
5
  8
DIMENSIONS
 10
27.590029959989607
 20
-8.568822157249752e-17
 30
0.0
 11
27.19033253186456
 21
-3.673940397442055e-17
 31
0.0
  0
LINE
 62
5
  8
DIMENSIONS
 10
27.590029959989607
 20
6.996974281250472
 30
0.0
 11
27.19033253186456
 21
6.996974281250472
 31
0.0
  0
TEXT
 62
7
  8
DIMENSIONS
 10
27.090029959989607
 20
3.498487140625236
 30
0.0
 40
0.6000000000000001
  1
7
 50
90.0
  7
ISOCPEUR
 72
1
 73
2
 11
27.090029959989607
 21
3.498487140625236
 31
0.0
  0
INSERT
  8
DIMENSIONS
  2
DIMTICK_ARROW
 10
27.590029959989607
 20
-8.568822157249752e-17
 30
0.0
 41
1.3993948562500944
 42
1.3993948562500944
 50
90.0
  0
INSERT
  8
DIMENSIONS
  2
DIMTICK_ARROW
 10
27.590029959989607
 20
6.996974281250472
 30
0.0
 41
1.3993948562500944
 42
1.3993948562500944
 50
270.0
  0
LINE
 62
7
  8
DIMENSIONS
 10
27.590029959989607
 20
-8.568822157249752e-17
 30
0.0
 11
27.590029959989607
 21
6.996974281250472
 31
0.0
  0
LINE
 62
5
  8
DIMENSIONS
 10
27.590029959989607
 20
-8.568822157249752e-17
 30
0.0
 11
27.19033253186456
 21
-3.673940397442055e-17
 31
0.0
  0
LINE
 62
5
  8
DIMENSIONS
 10
27.590029959989607
 20
6.996974281250472
 30
0.0
 11
27.19033253186456
 21
6.996974281250472
 31
0.0
  0
TEXT
 62
7
  8
DIMENSIONS
 10
27.090029959989607
 20
3.498487140625236
 30
0.0
 40
0.6000000000000001
  1
7
 50
90.0
  7
ISOCPEUR
 72
1
 73
2
 11
27.090029959989607
 21
3.498487140625236
 31
0.0
  0
INSERT
  8
DIMENSIONS
  2
DIMTICK_ARROW
 10
27.590029959989607
 20
-8.568822157249752e-17
 30
0.0
 41
1.3993948562500944
 42
1.3993948562500944
 50
90.0
  0
INSERT
  8
DIMENSIONS
  2
DIMTICK_ARROW
 10
27.590029959989607
 20
6.996974281250472
 30
0.0
 41
1.3993948562500944
 42
1.3993948562500944
 50
270.0
  0
LINE
 62
3
  8
0
 10
11.181439292586537
 20
0.0
 30
0.0
 11
11.181439292586537
 21
6.996974281250472
 31
0.0
  0
LINE
 62
3
  8
0
 10
9.123505680454047
 20
9.329299041667296
 30
0.0
 11
9.123505680454047
 21
27.370517041362138
 31
0.0
  0
LINE
 62
7
  8
DIMENSIONS
 10
10.927627480423531
 20
9.329299041667296
 30
0.0
 11
10.927627480423531
 21
27.370517041362138
 31
0.0
  0
LINE
 62
5
  8
DIMENSIONS
 10
10.927627480423531
 20
9.329299041667296
 30
0.0
 11
9.423505680454047
 21
9.329299041667296
 31
0.0
  0
LINE
 62
5
  8
DIMENSIONS
 10
10.927627480423531
 20
27.370517041362138
 30
0.0
 11
9.423505680454047
 21
27.370517041362138
 31
0.0
  0
TEXT
 62
7
  8
DIMENSIONS
 10
10.126482535987563
 20
18.349908041514716
 30
0.0
 40
1.2022898888719358
  1
18
 50
90.0
  7
ISOCPEUR
 72
1
 73
2
 11
10.126482535987563
 21
18.349908041514716
 31
0.0
  0
INSERT
  8
DIMENSIONS
  2
DIMTICK_ARROW
 10
10.927627480423531
 20
9.329299041667296
 30
0.0
 41
3.6082435999389686
 42
3.6082435999389686
 50
90.0
  0
INSERT
  8
DIMENSIONS
  2
DIMTICK_ARROW
 10
10.927627480423531
 20
27.370517041362138
 30
0.0
 41
3.6082435999389686
 42
3.6082435999389686
 50
270.0
  0
LINE
 62
7
  8
DIMENSIONS
 10
10.927627480423531
 20
9.329299041667296
 30
0.0
 11
10.927627480423531
 21
27.370517041362138
 31
0.0
  0
LINE
 62
5
  8
DIMENSIONS
 10
10.927627480423531
 20
9.329299041667296
 30
0.0
 11
9.423505680454047
 21
9.329299041667296
 31
0.0
  0
LINE
 62
5
  8
DIMENSIONS
 10
10.927627480423531
 20
27.370517041362138
 30
0.0
 11
9.423505680454047
 21
27.370517041362138
 31
0.0
  0
TEXT
 62
7
  8
DIMENSIONS
 10
10.126482535987563
 20
18.349908041514716
 30
0.0
 40
1.2022898888719358
  1
18
 50
90.0
  7
ISOCPEUR
 72
1
 73
2
 11
10.126482535987563
 21
18.349908041514716
 31
0.0
  0
INSERT
  8
DIMENSIONS
  2
DIMTICK_ARROW
 10
10.927627480423531
 20
9.329299041667296
 30
0.0
 41
3.6082435999389686
 42
3.6082435999389686
 50
90.0
  0
INSERT
  8
DIMENSIONS
  2
DIMTICK_ARROW
 10
10.927627480423531
 20
27.370517041362138
 30
0.0
 41
3.6082435999389686
 42
3.6082435999389686
 50
270.0
  0
LINE
 62
7
  8
DIMENSIONS
 10
10.927627480423531
 20
9.329299041667296
 30
0.0
 11
10.927627480423531
 21
27.370517041362138
 31
0.0
  0
LINE
 62
5
  8
DIMENSIONS
 10
10.927627480423531
 20
9.329299041667296
 30
0.0
 11
9.423505680454047
 21
9.329299041667296
 31
0.0
  0
LINE
 62
5
  8
DIMENSIONS
 10
10.927627480423531
 20
27.370517041362138
 30
0.0
 11
9.423505680454047
 21
27.370517041362138
 31
0.0
  0
TEXT
 62
7
  8
DIMENSIONS
 10
10.126482535987563
 20
18.349908041514716
 30
0.0
 40
1.2022898888719358
  1
18
 50
90.0
  7
ISOCPEUR
 72
1
 73
2
 11
10.126482535987563
 21
18.349908041514716
 31
0.0
  0
INSERT
  8
DIMENSIONS
  2
DIMTICK_ARROW
 10
10.927627480423531
 20
9.329299041667296
 30
0.0
 41
3.6082435999389686
 42
3.6082435999389686
 50
90.0
  0
INSERT
  8
DIMENSIONS
  2
DIMTICK_ARROW
 10
10.927627480423531
 20
27.370517041362138
 30
0.0
 41
3.6082435999389686
 42
3.6082435999389686
 50
270.0
  0
LINE
 62
7
  8
DIMENSIONS
 10
10.927627480423531
 20
9.329299041667296
 30
0.0
 11
10.927627480423531
 21
27.370517041362138
 31
0.0
  0
LINE
 62
5
  8
DIMENSIONS
 10
10.927627480423531
 20
9.329299041667296
 30
0.0
 11
9.423505680454047
 21
9.329299041667296
 31
0.0
  0
LINE
 62
5
  8
DIMENSIONS
 10
10.927627480423531
 20
27.370517041362138
 30
0.0
 11
9.423505680454047
 21
27.370517041362138
 31
0.0
  0
TEXT
 62
7
  8
DIMENSIONS
 10
10.126482535987563
 20
18.349908041514716
 30
0.0
 40
1.2022898888719358
  1
18
 50
90.0
  7
ISOCPEUR
 72
1
 73
2
 11
10.126482535987563
 21
18.349908041514716
 31
0.0
  0
INSERT
  8
DIMENSIONS
  2
DIMTICK_ARROW
 10
10.927627480423531
 20
9.329299041667296
 30
0.0
 41
3.6082435999389686
 42
3.6082435999389686
 50
90.0
  0
INSERT
  8
DIMENSIONS
  2
DIMTICK_ARROW
 10
10.927627480423531
 20
27.370517041362138
 30
0.0
 41
3.6082435999389686
 42
3.6082435999389686
 50
270.0
  0
LINE
 62
7
  8
DIMENSIONS
 10
10.927627480423531
 20
9.329299041667296
 30
0.0
 11
10.927627480423531
 21
27.370517041362138
 31
0.0
  0
LINE
 62
5
  8
DIMENSIONS
 10
10.927627480423531
 20
9.329299041667296
 30
0.0
 11
9.423505680454047
 21
9.329299041667296
 31
0.0
  0
LINE
 62
5
  8
DIMENSIONS
 10
10.927627480423531
 20
27.370517041362138
 30
0.0
 11
9.423505680454047
 21
27.370517041362138
 31
0.0
  0
TEXT
 62
7
  8
DIMENSIONS
 10
10.126482535987563
 20
18.349908041514716
 30
0.0
 40
1.2022898888719358
  1
18
 50
90.0
  7
ISOCPEUR
 72
1
 73
2
 11
10.126482535987563
 21
18.349908041514716
 31
0.0
  0
INSERT
  8
DIMENSIONS
  2
DIMTICK_ARROW
 10
10.927627480423531
 20
9.329299041667296
 30
0.0
 41
3.6082435999389686
 42
3.6082435999389686
 50
90.0
  0
INSERT
  8
DIMENSIONS
  2
DIMTICK_ARROW
 10
10.927627480423531
 20
27.370517041362138
 30
0.0
 41
3.6082435999389686
 42
3.6082435999389686
 50
270.0
  0
LINE
 62
7
  8
DIMENSIONS
 10
10.927627480423531
 20
9.329299041667296
 30
0.0
 11
10.927627480423531
 21
27.370517041362138
 31
0.0
  0
LINE
 62
5
  8
DIMENSIONS
 10
10.927627480423531
 20
9.329299041667296
 30
0.0
 11
9.423505680454047
 21
9.329299041667296
 31
0.0
  0
LINE
 62
5
  8
DIMENSIONS
 10
10.927627480423531
 20
27.370517041362138
 30
0.0
 11
9.423505680454047
 21
27.370517041362138
 31
0.0
  0
TEXT
 62
7
  8
DIMENSIONS
 10
10.126482535987563
 20
18.349908041514716
 30
0.0
 40
1.2022898888719358
  1
18
 50
90.0
  7
ISOCPEUR
 72
1
 73
2
 11
10.126482535987563
 21
18.349908041514716
 31
0.0
  0
INSERT
  8
DIMENSIONS
  2
DIMTICK_ARROW
 10
10.927627480423531
 20
9.329299041667296
 30
0.0
 41
3.6082435999389686
 42
3.6082435999389686
 50
90.0
  0
INSERT
  8
DIMENSIONS
  2
DIMTICK_ARROW
 10
10.927627480423531
 20
27.370517041362138
 30
0.0
 41
3.6082435999389686
 42
3.6082435999389686
 50
270.0
  0
LINE
 62
7
  8
DIMENSIONS
 10
10.927627480423531
 20
9.329299041667296
 30
0.0
 11
10.927627480423531
 21
27.370517041362138
 31
0.0
  0
LINE
 62
5
  8
DIMENSIONS
 10
10.927627480423531
 20
9.329299041667296
 30
0.0
 11
9.423505680454047
 21
9.329299041667296
 31
0.0
  0
LINE
 62
5
  8
DIMENSIONS
 10
10.927627480423531
 20
27.370517041362138
 30
0.0
 11
9.423505680454047
 21
27.370517041362138
 31
0.0
  0
TEXT
 62
7
  8
DIMENSIONS
 10
10.126482535987563
 20
18.349908041514716
 30
0.0
 40
1.2022898888719358
  1
18
 50
90.0
  7
ISOCPEUR
 72
1
 73
2
 11
10.126482535987563
 21
18.349908041514716
 31
0.0
  0
INSERT
  8
DIMENSIONS
  2
DIMTICK_ARROW
 10
10.927627480423531
 20
9.329299041667296
 30
0.0
 41
3.6082435999389686
 42
3.6082435999389686
 50
90.0
  0
INSERT
  8
DIMENSIONS
  2
DIMTICK_ARROW
 10
10.927627480423531
 20
27.370517041362138
 30
0.0
 41
3.6082435999389686
 42
3.6082435999389686
 50
270.0
  0
LINE
 62
7
  8
DIMENSIONS
 10
10.927627480423531
 20
9.329299041667296
 30
0.0
 11
10.927627480423531
 21
27.370517041362138
 31
0.0
  0
LINE
 62
5
  8
DIMENSIONS
 10
10.927627480423531
 20
9.329299041667296
 30
0.0
 11
9.423505680454047
 21
9.329299041667296
 31
0.0
  0
LINE
 62
5
  8
DIMENSIONS
 10
10.927627480423531
 20
27.370517041362138
 30
0.0
 11
9.423505680454047
 21
27.370517041362138
 31
0.0
  0
TEXT
 62
7
  8
DIMENSIONS
 10
10.126482535987563
 20
18.349908041514716
 30
0.0
 40
1.2022898888719358
  1
18
 50
90.0
  7
ISOCPEUR
 72
1
 73
2
 11
10.126482535987563
 21
18.349908041514716
 31
0.0
  0
INSERT
  8
DIMENSIONS
  2
DIMTICK_ARROW
 10
10.927627480423531
 20
9.329299041667296
 30
0.0
 41
3.6082435999389686
 42
3.6082435999389686
 50
90.0
  0
INSERT
  8
DIMENSIONS
  2
DIMTICK_ARROW
 10
10.927627480423531
 20
27.370517041362138
 30
0.0
 41
3.6082435999389686
 42
3.6082435999389686
 50
270.0
  0
LINE
 62
7
  8
DIMENSIONS
 10
10.927627480423531
 20
9.329299041667296
 30
0.0
 11
10.927627480423531
 21
27.370517041362138
 31
0.0
  0
LINE
 62
5
  8
DIMENSIONS
 10
10.927627480423531
 20
9.329299041667296
 30
0.0
 11
9.423505680454047
 21
9.329299041667296
 31
0.0
  0
LINE
 62
5
  8
DIMENSIONS
 10
10.927627480423531
 20
27.370517041362138
 30
0.0
 11
9.423505680454047
 21
27.370517041362138
 31
0.0
  0
TEXT
 62
7
  8
DIMENSIONS
 10
10.126482535987563
 20
18.349908041514716
 30
0.0
 40
1.2022898888719358
  1
18
 50
90.0
  7
ISOCPEUR
 72
1
 73
2
 11
10.126482535987563
 21
18.349908041514716
 31
0.0
  0
INSERT
  8
DIMENSIONS
  2
DIMTICK_ARROW
 10
10.927627480423531
 20
9.329299041667296
 30
0.0
 41
3.6082435999389686
 42
3.6082435999389686
 50
90.0
  0
INSERT
  8
DIMENSIONS
  2
DIMTICK_ARROW
 10
10.927627480423531
 20
27.370517041362138
 30
0.0
 41
3.6082435999389686
 42
3.6082435999389686
 50
270.0
  0
LINE
 62
7
  8
DIMENSIONS
 10
10.927627480423531
 20
9.329299041667296
 30
0.0
 11
10.927627480423531
 21
27.370517041362138
 31
0.0
  0
LINE
 62
5
  8
DIMENSIONS
 10
10.927627480423531
 20
9.329299041667296
 30
0.0
 11
9.423505680454047
 21
9.329299041667296
 31
0.0
  0
LINE
 62
5
  8
DIMENSIONS
 10
10.927627480423531
 20
27.370517041362138
 30
0.0
 11
9.423505680454047
 21
27.370517041362138
 31
0.0
  0
TEXT
 62
7
  8
DIMENSIONS
 10
10.126482535987563
 20
18.349908041514716
 30
0.0
 40
1.2022898888719358
  1
18
 50
90.0
  7
ISOCPEUR
 72
1
 73
2
 11
10.126482535987563
 21
18.349908041514716
 31
0.0
  0
INSERT
  8
DIMENSIONS
  2
DIMTICK_ARROW
 10
10.927627480423531
 20
9.329299041667296
 30
0.0
 41
3.6082435999389686
 42
3.6082435999389686
 50
90.0
  0
INSERT
  8
DIMENSIONS
  2
DIMTICK_ARROW
 10
10.927627480423531
 20
27.370517041362138
 30
0.0
 41
3.6082435999389686
 42
3.6082435999389686
 50
270.0
  0
LINE
 62
7
  8
DIMENSIONS
 10
10.927627480423531
 20
9.329299041667296
 30
0.0
 11
10.927627480423531
 21
27.370517041362138
 31
0.0
  0
LINE
 62
5
  8
DIMENSIONS
 10
10.927627480423531
 20
9.329299041667296
 30
0.0
 11
9.423505680454047
 21
9.329299041667296
 31
0.0
  0
LINE
 62
5
  8
DIMENSIONS
 10
10.927627480423531
 20
27.370517041362138
 30
0.0
 11
9.423505680454047
 21
27.370517041362138
 31
0.0
  0
TEXT
 62
7
  8
DIMENSIONS
 10
10.126482535987563
 20
18.349908041514716
 30
0.0
 40
1.2022898888719358
  1
18
 50
90.0
  7
ISOCPEUR
 72
1
 73
2
 11
10.126482535987563
 21
18.349908041514716
 31
0.0
  0
INSERT
  8
DIMENSIONS
  2
DIMTICK_ARROW
 10
10.927627480423531
 20
9.329299041667296
 30
0.0
 41
3.6082435999389686
 42
3.6082435999389686
 50
90.0
  0
INSERT
  8
DIMENSIONS
  2
DIMTICK_ARROW
 10
10.927627480423531
 20
27.370517041362138
 30
0.0
 41
3.6082435999389686
 42
3.6082435999389686
 50
270.0
  0
LINE
 62
7
  8
DIMENSIONS
 10
10.927627480423531
 20
9.329299041667296
 30
0.0
 11
10.927627480423531
 21
27.370517041362138
 31
0.0
  0
LINE
 62
5
  8
DIMENSIONS
 10
10.927627480423531
 20
9.329299041667296
 30
0.0
 11
9.423505680454047
 21
9.329299041667296
 31
0.0
  0
LINE
 62
5
  8
DIMENSIONS
 10
10.927627480423531
 20
27.370517041362138
 30
0.0
 11
9.423505680454047
 21
27.370517041362138
 31
0.0
  0
TEXT
 62
7
  8
DIMENSIONS
 10
10.126482535987563
 20
18.349908041514716
 30
0.0
 40
1.2022898888719358
  1
18
 50
90.0
  7
ISOCPEUR
 72
1
 73
2
 11
10.126482535987563
 21
18.349908041514716
 31
0.0
  0
INSERT
  8
DIMENSIONS
  2
DIMTICK_ARROW
 10
10.927627480423531
 20
9.329299041667296
 30
0.0
 41
3.6082435999389686
 42
3.6082435999389686
 50
90.0
  0
INSERT
  8
DIMENSIONS
  2
DIMTICK_ARROW
 10
10.927627480423531
 20
27.370517041362138
 30
0.0
 41
3.6082435999389686
 42
3.6082435999389686
 50
270.0
  0
LINE
 62
7
  8
DIMENSIONS
 10
10.927627480423531
 20
9.329299041667296
 30
0.0
 11
10.927627480423531
 21
27.370517041362138
 31
0.0
  0
LINE
 62
5
  8
DIMENSIONS
 10
10.927627480423531
 20
9.329299041667296
 30
0.0
 11
9.423505680454047
 21
9.329299041667296
 31
0.0
  0
LINE
 62
5
  8
DIMENSIONS
 10
10.927627480423531
 20
27.370517041362138
 30
0.0
 11
9.423505680454047
 21
27.370517041362138
 31
0.0
  0
TEXT
 62
7
  8
DIMENSIONS
 10
10.126482535987563
 20
18.349908041514716
 30
0.0
 40
1.2022898888719358
  1
18
 50
90.0
  7
ISOCPEUR
 72
1
 73
2
 11
10.126482535987563
 21
18.349908041514716
 31
0.0
  0
INSERT
  8
DIMENSIONS
  2
DIMTICK_ARROW
 10
10.927627480423531
 20
9.329299041667296
 30
0.0
 41
3.6082435999389686
 42
3.6082435999389686
 50
90.0
  0
INSERT
  8
DIMENSIONS
  2
DIMTICK_ARROW
 10
10.927627480423531
 20
27.370517041362138
 30
0.0
 41
3.6082435999389686
 42
3.6082435999389686
 50
270.0
  0
LINE
 62
7
  8
DIMENSIONS
 10
10.927627480423531
 20
9.329299041667296
 30
0.0
 11
10.927627480423531
 21
27.370517041362138
 31
0.0
  0
LINE
 62
5
  8
DIMENSIONS
 10
10.927627480423531
 20
9.329299041667296
 30
0.0
 11
9.423505680454047
 21
9.329299041667296
 31
0.0
  0
LINE
 62
5
  8
DIMENSIONS
 10
10.927627480423531
 20
27.370517041362138
 30
0.0
 11
9.423505680454047
 21
27.370517041362138
 31
0.0
  0
TEXT
 62
7
  8
DIMENSIONS
 10
10.126482535987563
 20
18.349908041514716
 30
0.0
 40
1.2022898888719358
  1
18
 50
90.0
  7
ISOCPEUR
 72
1
 73
2
 11
10.126482535987563
 21
18.349908041514716
 31
0.0
  0
INSERT
  8
DIMENSIONS
  2
DIMTICK_ARROW
 10
10.927627480423531
 20
9.329299041667296
 30
0.0
 41
3.6082435999389686
 42
3.6082435999389686
 50
90.0
  0
INSERT
  8
DIMENSIONS
  2
DIMTICK_ARROW
 10
10.927627480423531
 20
27.370517041362138
 30
0.0
 41
3.6082435999389686
 42
3.6082435999389686
 50
270.0
  0
LINE
 62
7
  8
DIMENSIONS
 10
10.927627480423531
 20
9.329299041667296
 30
0.0
 11
10.927627480423531
 21
27.370517041362138
 31
0.0
  0
LINE
 62
5
  8
DIMENSIONS
 10
10.927627480423531
 20
9.329299041667296
 30
0.0
 11
9.423505680454047
 21
9.329299041667296
 31
0.0
  0
LINE
 62
5
  8
DIMENSIONS
 10
10.927627480423531
 20
27.370517041362138
 30
0.0
 11
9.423505680454047
 21
27.370517041362138
 31
0.0
  0
TEXT
 62
7
  8
DIMENSIONS
 10
10.126482535987563
 20
18.349908041514716
 30
0.0
 40
1.2022898888719358
  1
18
 50
90.0
  7
ISOCPEUR
 72
1
 73
2
 11
10.126482535987563
 21
18.349908041514716
 31
0.0
  0
INSERT
  8
DIMENSIONS
  2
DIMTICK_ARROW
 10
10.927627480423531
 20
9.329299041667296
 30
0.0
 41
3.6082435999389686
 42
3.6082435999389686
 50
90.0
  0
INSERT
  8
DIMENSIONS
  2
DIMTICK_ARROW
 10
10.927627480423531
 20
27.370517041362138
 30
0.0
 41
3.6082435999389686
 42
3.6082435999389686
 50
270.0
  0
LINE
 62
7
  8
DIMENSIONS
 10
10.927627480423531
 20
9.329299041667296
 30
0.0
 11
10.927627480423531
 21
27.370517041362138
 31
0.0
  0
LINE
 62
5
  8
DIMENSIONS
 10
10.927627480423531
 20
9.329299041667296
 30
0.0
 11
9.423505680454047
 21
9.329299041667296
 31
0.0
  0
LINE
 62
5
  8
DIMENSIONS
 10
10.927627480423531
 20
27.370517041362138
 30
0.0
 11
9.423505680454047
 21
27.370517041362138
 31
0.0
  0
TEXT
 62
7
  8
DIMENSIONS
 10
10.126482535987563
 20
18.349908041514716
 30
0.0
 40
1.2022898888719358
  1
18
 50
90.0
  7
ISOCPEUR
 72
1
 73
2
 11
10.126482535987563
 21
18.349908041514716
 31
0.0
  0
INSERT
  8
DIMENSIONS
  2
DIMTICK_ARROW
 10
10.927627480423531
 20
9.329299041667296
 30
0.0
 41
3.6082435999389686
 42
3.6082435999389686
 50
90.0
  0
INSERT
  8
DIMENSIONS
  2
DIMTICK_ARROW
 10
10.927627480423531
 20
27.370517041362138
 30
0.0
 41
3.6082435999389686
 42
3.6082435999389686
 50
270.0
  0
LINE
 62
7
  8
DIMENSIONS
 10
10.927627480423531
 20
9.329299041667296
 30
0.0
 11
10.927627480423531
 21
27.370517041362138
 31
0.0
  0
LINE
 62
5
  8
DIMENSIONS
 10
10.927627480423531
 20
9.329299041667296
 30
0.0
 11
9.423505680454047
 21
9.329299041667296
 31
0.0
  0
LINE
 62
5
  8
DIMENSIONS
 10
10.927627480423531
 20
27.370517041362138
 30
0.0
 11
9.423505680454047
 21
27.370517041362138
 31
0.0
  0
TEXT
 62
7
  8
DIMENSIONS
 10
10.126482535987563
 20
18.349908041514716
 30
0.0
 40
1.2022898888719358
  1
18
 50
90.0
  7
ISOCPEUR
 72
1
 73
2
 11
10.126482535987563
 21
18.349908041514716
 31
0.0
  0
INSERT
  8
DIMENSIONS
  2
DIMTICK_ARROW
 10
10.927627480423531
 20
9.329299041667296
 30
0.0
 41
3.6082435999389686
 42
3.6082435999389686
 50
90.0
  0
INSERT
  8
DIMENSIONS
  2
DIMTICK_ARROW
 10
10.927627480423531
 20
27.370517041362138
 30
0.0
 41
3.6082435999389686
 42
3.6082435999389686
 50
270.0
  0
LINE
 62
3
  8
0
 10
1.9207380379903256
 20
9.329299041667296
 30
0.0
 11
1.9207380379903256
 21
27.370517041362138
 31
0.0
  0
LINE
 62
3
  8
0
 10
35.602251489892105
 20
6.996974281250472
 30
0.0
 11
35.602251489892105
 21
29.1540595052103
 31
0.0
  0
LINE
 62
7
  8
DIMENSIONS
 10
37.81796001228809
 20
6.996974281250472
 30
0.0
 11
37.81796001228809
 21
29.1540595052103
 31
0.0
  0
LINE
 62
5
  8
DIMENSIONS
 10
37.81796001228809
 20
6.996974281250472
 30
0.0
 11
35.9022514898921
 21
6.996974281250472
 31
0.0
  0
LINE
 62
5
  8
DIMENSIONS
 10
37.81796001228809
 20
29.1540595052103
 30
0.0
 11
35.9022514898921
 21
29.1540595052103
 31
0.0
  0
TEXT
 62
7
  8
DIMENSIONS
 10
36.90248542273365
 20
18.075516893230386
 30
0.0
 40
1.430949179108879
  1
22
 50
90.0
  7
ISOCPEUR
 72
1
 73
2
 11
36.90248542273365
 21
18.075516893230386
 31
0.0
  0
INSERT
  8
DIMENSIONS
  2
DIMTICK_ARROW
 10
37.81796001228809
 20
6.996974281250472
 30
0.0
 41
4.431417044791965
 42
4.431417044791965
 50
90.0
  0
INSERT
  8
DIMENSIONS
  2
DIMTICK_ARROW
 10
37.81796001228809
 20
29.1540595052103
 30
0.0
 41
4.431417044791965
 42
4.431417044791965
 50
270.0
  0
LINE
 62
7
  8
DIMENSIONS
 10
37.81796001228809
 20
6.996974281250472
 30
0.0
 11
37.81796001228809
 21
29.1540595052103
 31
0.0
  0
LINE
 62
5
  8
DIMENSIONS
 10
37.81796001228809
 20
6.996974281250472
 30
0.0
 11
35.9022514898921
 21
6.996974281250472
 31
0.0
  0
LINE
 62
5
  8
DIMENSIONS
 10
37.81796001228809
 20
29.1540595052103
 30
0.0
 11
35.9022514898921
 21
29.1540595052103
 31
0.0
  0
TEXT
 62
7
  8
DIMENSIONS
 10
36.90248542273365
 20
18.075516893230386
 30
0.0
 40
1.430949179108879
  1
22
 50
90.0
  7
ISOCPEUR
 72
1
 73
2
 11
36.90248542273365
 21
18.075516893230386
 31
0.0
  0
INSERT
  8
DIMENSIONS
  2
DIMTICK_ARROW
 10
37.81796001228809
 20
6.996974281250472
 30
0.0
 41
4.431417044791965
 42
4.431417044791965
 50
90.0
  0
INSERT
  8
DIMENSIONS
  2
DIMTICK_ARROW
 10
37.81796001228809
 20
29.1540595052103
 30
0.0
 41
4.431417044791965
 42
4.431417044791965
 50
270.0
  0
LINE
 62
7
  8
DIMENSIONS
 10
37.81796001228809
 20
6.996974281250472
 30
0.0
 11
37.81796001228809
 21
29.1540595052103
 31
0.0
  0
LINE
 62
5
  8
DIMENSIONS
 10
37.81796001228809
 20
6.996974281250472
 30
0.0
 11
35.9022514898921
 21
6.996974281250472
 31
0.0
  0
LINE
 62
5
  8
DIMENSIONS
 10
37.81796001228809
 20
29.1540595052103
 30
0.0
 11
35.9022514898921
 21
29.1540595052103
 31
0.0
  0
TEXT
 62
7
  8
DIMENSIONS
 10
36.90248542273365
 20
18.075516893230386
 30
0.0
 40
1.430949179108879
  1
22
 50
90.0
  7
ISOCPEUR
 72
1
 73
2
 11
36.90248542273365
 21
18.075516893230386
 31
0.0
  0
INSERT
  8
DIMENSIONS
  2
DIMTICK_ARROW
 10
37.81796001228809
 20
6.996974281250472
 30
0.0
 41
4.431417044791965
 42
4.431417044791965
 50
90.0
  0
INSERT
  8
DIMENSIONS
  2
DIMTICK_ARROW
 10
37.81796001228809
 20
29.1540595052103
 30
0.0
 41
4.431417044791965
 42
4.431417044791965
 50
270.0
  0
LINE
 62
7
  8
DIMENSIONS
 10
37.81796001228809
 20
6.996974281250472
 30
0.0
 11
37.81796001228809
 21
29.1540595052103
 31
0.0
  0
LINE
 62
5
  8
DIMENSIONS
 10
37.81796001228809
 20
6.996974281250472
 30
0.0
 11
35.9022514898921
 21
6.996974281250472
 31
0.0
  0
LINE
 62
5
  8
DIMENSIONS
 10
37.81796001228809
 20
29.1540595052103
 30
0.0
 11
35.9022514898921
 21
29.1540595052103
 31
0.0
  0
TEXT
 62
7
  8
DIMENSIONS
 10
36.90248542273365
 20
18.075516893230386
 30
0.0
 40
1.430949179108879
  1
22
 50
90.0
  7
ISOCPEUR
 72
1
 73
2
 11
36.90248542273365
 21
18.075516893230386
 31
0.0
  0
INSERT
  8
DIMENSIONS
  2
DIMTICK_ARROW
 10
37.81796001228809
 20
6.996974281250472
 30
0.0
 41
4.431417044791965
 42
4.431417044791965
 50
90.0
  0
INSERT
  8
DIMENSIONS
  2
DIMTICK_ARROW
 10
37.81796001228809
 20
29.1540595052103
 30
0.0
 41
4.431417044791965
 42
4.431417044791965
 50
270.0
  0
LINE
 62
7
  8
DIMENSIONS
 10
37.81796001228809
 20
6.996974281250472
 30
0.0
 11
37.81796001228809
 21
29.1540595052103
 31
0.0
  0
LINE
 62
5
  8
DIMENSIONS
 10
37.81796001228809
 20
6.996974281250472
 30
0.0
 11
35.9022514898921
 21
6.996974281250472
 31
0.0
  0
LINE
 62
5
  8
DIMENSIONS
 10
37.81796001228809
 20
29.1540595052103
 30
0.0
 11
35.9022514898921
 21
29.1540595052103
 31
0.0
  0
TEXT
 62
7
  8
DIMENSIONS
 10
36.90248542273365
 20
18.075516893230386
 30
0.0
 40
1.430949179108879
  1
22
 50
90.0
  7
ISOCPEUR
 72
1
 73
2
 11
36.90248542273365
 21
18.075516893230386
 31
0.0
  0
INSERT
  8
DIMENSIONS
  2
DIMTICK_ARROW
 10
37.81796001228809
 20
6.996974281250472
 30
0.0
 41
4.431417044791965
 42
4.431417044791965
 50
90.0
  0
INSERT
  8
DIMENSIONS
  2
DIMTICK_ARROW
 10
37.81796001228809
 20
29.1540595052103
 30
0.0
 41
4.431417044791965
 42
4.431417044791965
 50
270.0
  0
LINE
 62
7
  8
DIMENSIONS
 10
37.81796001228809
 20
6.996974281250472
 30
0.0
 11
37.81796001228809
 21
29.1540595052103
 31
0.0
  0
LINE
 62
5
  8
DIMENSIONS
 10
37.81796001228809
 20
6.996974281250472
 30
0.0
 11
35.9022514898921
 21
6.996974281250472
 31
0.0
  0
LINE
 62
5
  8
DIMENSIONS
 10
37.81796001228809
 20
29.1540595052103
 30
0.0
 11
35.9022514898921
 21
29.1540595052103
 31
0.0
  0
TEXT
 62
7
  8
DIMENSIONS
 10
36.90248542273365
 20
18.075516893230386
 30
0.0
 40
1.430949179108879
  1
22
 50
90.0
  7
ISOCPEUR
 72
1
 73
2
 11
36.90248542273365
 21
18.075516893230386
 31
0.0
  0
INSERT
  8
DIMENSIONS
  2
DIMTICK_ARROW
 10
37.81796001228809
 20
6.996974281250472
 30
0.0
 41
4.431417044791965
 42
4.431417044791965
 50
90.0
  0
INSERT
  8
DIMENSIONS
  2
DIMTICK_ARROW
 10
37.81796001228809
 20
29.1540595052103
 30
0.0
 41
4.431417044791965
 42
4.431417044791965
 50
270.0
  0
LINE
 62
7
  8
DIMENSIONS
 10
37.81796001228809
 20
6.996974281250472
 30
0.0
 11
37.81796001228809
 21
29.1540595052103
 31
0.0
  0
LINE
 62
5
  8
DIMENSIONS
 10
37.81796001228809
 20
6.996974281250472
 30
0.0
 11
35.9022514898921
 21
6.996974281250472
 31
0.0
  0
LINE
 62
5
  8
DIMENSIONS
 10
37.81796001228809
 20
29.1540595052103
 30
0.0
 11
35.9022514898921
 21
29.1540595052103
 31
0.0
  0
TEXT
 62
7
  8
DIMENSIONS
 10
36.90248542273365
 20
18.075516893230386
 30
0.0
 40
1.430949179108879
  1
22
 50
90.0
  7
ISOCPEUR
 72
1
 73
2
 11
36.90248542273365
 21
18.075516893230386
 31
0.0
  0
INSERT
  8
DIMENSIONS
  2
DIMTICK_ARROW
 10
37.81796001228809
 20
6.996974281250472
 30
0.0
 41
4.431417044791965
 42
4.431417044791965
 50
90.0
  0
INSERT
  8
DIMENSIONS
  2
DIMTICK_ARROW
 10
37.81796001228809
 20
29.1540595052103
 30
0.0
 41
4.431417044791965
 42
4.431417044791965
 50
270.0
  0
LINE
 62
7
  8
DIMENSIONS
 10
37.81796001228809
 20
6.996974281250472
 30
0.0
 11
37.81796001228809
 21
29.1540595052103
 31
0.0
  0
LINE
 62
5
  8
DIMENSIONS
 10
37.81796001228809
 20
6.996974281250472
 30
0.0
 11
35.9022514898921
 21
6.996974281250472
 31
0.0
  0
LINE
 62
5
  8
DIMENSIONS
 10
37.81796001228809
 20
29.1540595052103
 30
0.0
 11
35.9022514898921
 21
29.1540595052103
 31
0.0
  0
TEXT
 62
7
  8
DIMENSIONS
 10
36.90248542273365
 20
18.075516893230386
 30
0.0
 40
1.430949179108879
  1
22
 50
90.0
  7
ISOCPEUR
 72
1
 73
2
 11
36.90248542273365
 21
18.075516893230386
 31
0.0
  0
INSERT
  8
DIMENSIONS
  2
DIMTICK_ARROW
 10
37.81796001228809
 20
6.996974281250472
 30
0.0
 41
4.431417044791965
 42
4.431417044791965
 50
90.0
  0
INSERT
  8
DIMENSIONS
  2
DIMTICK_ARROW
 10
37.81796001228809
 20
29.1540595052103
 30
0.0
 41
4.431417044791965
 42
4.431417044791965
 50
270.0
  0
LINE
 62
7
  8
DIMENSIONS
 10
37.81796001228809
 20
6.996974281250472
 30
0.0
 11
37.81796001228809
 21
29.1540595052103
 31
0.0
  0
LINE
 62
5
  8
DIMENSIONS
 10
37.81796001228809
 20
6.996974281250472
 30
0.0
 11
35.9022514898921
 21
6.996974281250472
 31
0.0
  0
LINE
 62
5
  8
DIMENSIONS
 10
37.81796001228809
 20
29.1540595052103
 30
0.0
 11
35.9022514898921
 21
29.1540595052103
 31
0.0
  0
TEXT
 62
7
  8
DIMENSIONS
 10
36.90248542273365
 20
18.075516893230386
 30
0.0
 40
1.430949179108879
  1
22
 50
90.0
  7
ISOCPEUR
 72
1
 73
2
 11
36.90248542273365
 21
18.075516893230386
 31
0.0
  0
INSERT
  8
DIMENSIONS
  2
DIMTICK_ARROW
 10
37.81796001228809
 20
6.996974281250472
 30
0.0
 41
4.431417044791965
 42
4.431417044791965
 50
90.0
  0
INSERT
  8
DIMENSIONS
  2
DIMTICK_ARROW
 10
37.81796001228809
 20
29.1540595052103
 30
0.0
 41
4.431417044791965
 42
4.431417044791965
 50
270.0
  0
LINE
 62
7
  8
DIMENSIONS
 10
37.81796001228809
 20
6.996974281250472
 30
0.0
 11
37.81796001228809
 21
29.1540595052103
 31
0.0
  0
LINE
 62
5
  8
DIMENSIONS
 10
37.81796001228809
 20
6.996974281250472
 30
0.0
 11
35.9022514898921
 21
6.996974281250472
 31
0.0
  0
LINE
 62
5
  8
DIMENSIONS
 10
37.81796001228809
 20
29.1540595052103
 30
0.0
 11
35.9022514898921
 21
29.1540595052103
 31
0.0
  0
TEXT
 62
7
  8
DIMENSIONS
 10
36.90248542273365
 20
18.075516893230386
 30
0.0
 40
1.430949179108879
  1
22
 50
90.0
  7
ISOCPEUR
 72
1
 73
2
 11
36.90248542273365
 21
18.075516893230386
 31
0.0
  0
INSERT
  8
DIMENSIONS
  2
DIMTICK_ARROW
 10
37.81796001228809
 20
6.996974281250472
 30
0.0
 41
4.431417044791965
 42
4.431417044791965
 50
90.0
  0
INSERT
  8
DIMENSIONS
  2
DIMTICK_ARROW
 10
37.81796001228809
 20
29.1540595052103
 30
0.0
 41
4.431417044791965
 42
4.431417044791965
 50
270.0
  0
LINE
 62
7
  8
DIMENSIONS
 10
37.81796001228809
 20
6.996974281250472
 30
0.0
 11
37.81796001228809
 21
29.1540595052103
 31
0.0
  0
LINE
 62
5
  8
DIMENSIONS
 10
37.81796001228809
 20
6.996974281250472
 30
0.0
 11
35.9022514898921
 21
6.996974281250472
 31
0.0
  0
LINE
 62
5
  8
DIMENSIONS
 10
37.81796001228809
 20
29.1540595052103
 30
0.0
 11
35.9022514898921
 21
29.1540595052103
 31
0.0
  0
TEXT
 62
7
  8
DIMENSIONS
 10
36.90248542273365
 20
18.075516893230386
 30
0.0
 40
1.430949179108879
  1
22
 50
90.0
  7
ISOCPEUR
 72
1
 73
2
 11
36.90248542273365
 21
18.075516893230386
 31
0.0
  0
INSERT
  8
DIMENSIONS
  2
DIMTICK_ARROW
 10
37.81796001228809
 20
6.996974281250472
 30
0.0
 41
4.431417044791965
 42
4.431417044791965
 50
90.0
  0
INSERT
  8
DIMENSIONS
  2
DIMTICK_ARROW
 10
37.81796001228809
 20
29.1540595052103
 30
0.0
 41
4.431417044791965
 42
4.431417044791965
 50
270.0
  0
LINE
 62
7
  8
DIMENSIONS
 10
37.81796001228809
 20
6.996974281250472
 30
0.0
 11
37.81796001228809
 21
29.1540595052103
 31
0.0
  0
LINE
 62
5
  8
DIMENSIONS
 10
37.81796001228809
 20
6.996974281250472
 30
0.0
 11
35.9022514898921
 21
6.996974281250472
 31
0.0
  0
LINE
 62
5
  8
DIMENSIONS
 10
37.81796001228809
 20
29.1540595052103
 30
0.0
 11
35.9022514898921
 21
29.1540595052103
 31
0.0
  0
TEXT
 62
7
  8
DIMENSIONS
 10
36.90248542273365
 20
18.075516893230386
 30
0.0
 40
1.430949179108879
  1
22
 50
90.0
  7
ISOCPEUR
 72
1
 73
2
 11
36.90248542273365
 21
18.075516893230386
 31
0.0
  0
INSERT
  8
DIMENSIONS
  2
DIMTICK_ARROW
 10
37.81796001228809
 20
6.996974281250472
 30
0.0
 41
4.431417044791965
 42
4.431417044791965
 50
90.0
  0
INSERT
  8
DIMENSIONS
  2
DIMTICK_ARROW
 10
37.81796001228809
 20
29.1540595052103
 30
0.0
 41
4.431417044791965
 42
4.431417044791965
 50
270.0
  0
LINE
 62
7
  8
DIMENSIONS
 10
37.81796001228809
 20
6.996974281250472
 30
0.0
 11
37.81796001228809
 21
29.1540595052103
 31
0.0
  0
LINE
 62
5
  8
DIMENSIONS
 10
37.81796001228809
 20
6.996974281250472
 30
0.0
 11
35.9022514898921
 21
6.996974281250472
 31
0.0
  0
LINE
 62
5
  8
DIMENSIONS
 10
37.81796001228809
 20
29.1540595052103
 30
0.0
 11
35.9022514898921
 21
29.1540595052103
 31
0.0
  0
TEXT
 62
7
  8
DIMENSIONS
 10
36.90248542273365
 20
18.075516893230386
 30
0.0
 40
1.430949179108879
  1
22
 50
90.0
  7
ISOCPEUR
 72
1
 73
2
 11
36.90248542273365
 21
18.075516893230386
 31
0.0
  0
INSERT
  8
DIMENSIONS
  2
DIMTICK_ARROW
 10
37.81796001228809
 20
6.996974281250472
 30
0.0
 41
4.431417044791965
 42
4.431417044791965
 50
90.0
  0
INSERT
  8
DIMENSIONS
  2
DIMTICK_ARROW
 10
37.81796001228809
 20
29.1540595052103
 30
0.0
 41
4.431417044791965
 42
4.431417044791965
 50
270.0
  0
LINE
 62
7
  8
DIMENSIONS
 10
37.81796001228809
 20
6.996974281250472
 30
0.0
 11
37.81796001228809
 21
29.1540595052103
 31
0.0
  0
LINE
 62
5
  8
DIMENSIONS
 10
37.81796001228809
 20
6.996974281250472
 30
0.0
 11
35.9022514898921
 21
6.996974281250472
 31
0.0
  0
LINE
 62
5
  8
DIMENSIONS
 10
37.81796001228809
 20
29.1540595052103
 30
0.0
 11
35.9022514898921
 21
29.1540595052103
 31
0.0
  0
TEXT
 62
7
  8
DIMENSIONS
 10
36.90248542273365
 20
18.075516893230386
 30
0.0
 40
1.430949179108879
  1
22
 50
90.0
  7
ISOCPEUR
 72
1
 73
2
 11
36.90248542273365
 21
18.075516893230386
 31
0.0
  0
INSERT
  8
DIMENSIONS
  2
DIMTICK_ARROW
 10
37.81796001228809
 20
6.996974281250472
 30
0.0
 41
4.431417044791965
 42
4.431417044791965
 50
90.0
  0
INSERT
  8
DIMENSIONS
  2
DIMTICK_ARROW
 10
37.81796001228809
 20
29.1540595052103
 30
0.0
 41
4.431417044791965
 42
4.431417044791965
 50
270.0
  0
LINE
 62
7
  8
DIMENSIONS
 10
37.81796001228809
 20
6.996974281250472
 30
0.0
 11
37.81796001228809
 21
29.1540595052103
 31
0.0
  0
LINE
 62
5
  8
DIMENSIONS
 10
37.81796001228809
 20
6.996974281250472
 30
0.0
 11
35.9022514898921
 21
6.996974281250472
 31
0.0
  0
LINE
 62
5
  8
DIMENSIONS
 10
37.81796001228809
 20
29.1540595052103
 30
0.0
 11
35.9022514898921
 21
29.1540595052103
 31
0.0
  0
TEXT
 62
7
  8
DIMENSIONS
 10
36.90248542273365
 20
18.075516893230386
 30
0.0
 40
1.430949179108879
  1
22
 50
90.0
  7
ISOCPEUR
 72
1
 73
2
 11
36.90248542273365
 21
18.075516893230386
 31
0.0
  0
INSERT
  8
DIMENSIONS
  2
DIMTICK_ARROW
 10
37.81796001228809
 20
6.996974281250472
 30
0.0
 41
4.431417044791965
 42
4.431417044791965
 50
90.0
  0
INSERT
  8
DIMENSIONS
  2
DIMTICK_ARROW
 10
37.81796001228809
 20
29.1540595052103
 30
0.0
 41
4.431417044791965
 42
4.431417044791965
 50
270.0
  0
LINE
 62
3
  8
0
 10
0.0
 20
6.996974281250472
 30
0.0
 11
0.0
 21
29.1540595052103
 31
0.0
  0
LINE
 62
3
  8
0
 10
11.181439292586537
 20
0.0
 30
0.0
 11
11.181439292586537
 21
6.996974281250472
 31
0.0
  0
LINE
 62
3
  8
0
 10
26.89033253186456
 20
0.0
 30
0.0
 11
26.89033253186456
 21
6.996974281250472
 31
0.0
  0
LINE
 62
3
  8
0
 10
1.9207380379903256
 20
9.329299041667296
 30
0.0
 11
1.9207380379903256
 21
27.370517041362138
 31
0.0
  0
LINE
 62
3
  8
0
 10
9.123505680454047
 20
9.329299041667296
 30
0.0
 11
9.123505680454047
 21
27.370517041362138
 31
0.0
  0
LINE
 62
3
  8
0
 10
0.0
 20
6.996974281250472
 30
0.0
 11
0.0
 21
29.1540595052103
 31
0.0
  0
LINE
 62
3
  8
0
 10
35.602251489892105
 20
6.996974281250472
 30
0.0
 11
35.602251489892105
 21
29.1540595052103
 31
0.0
  0
LINE
 62
3
  8
0
 10
1.9207380379903256
 20
27.370517041362138
 30
0.0
 11
9.123505680454047
 21
27.370517041362138
 31
0.0
  0
LINE
 62
3
  8
0
 10
1.9207380379903256
 20
9.329299041667296
 30
0.0
 11
9.123505680454047
 21
9.329299041667296
 31
0.0
  0
LINE
 62
3
  8
0
 10
26.89033253186456
 20
6.996974281250472
 30
0.0
 11
35.602251489892105
 21
6.996974281250472
 31
0.0
  0
LINE
 62
3
  8
0
 10
0.0
 20
6.996974281250472
 30
0.0
 11
11.181439292586537
 21
6.996974281250472
 31
0.0
  0
LINE
 62
3
  8
0
 10
11.181439292586537
 20
0.0
 30
0.0
 11
26.89033253186456
 21
0.0
 31
0.0
  0
LINE
 62
3
  8
0
 10
0.0
 20
29.1540595052103
 30
0.0
 11
35.602251489892105
 21
29.1540595052103
 31
0.0
  0
CIRCLE
 62
3
  8
0
 10
20.37354276011167
 20
16.943653406557516
 30
0.0
 40
4.93904066911798
  0
LINE
 62
7
  8
DIMENSIONS
 10
20.37354276011167
 20
20.882694075675495
 30
0.0
 11
20.37354276011167
 21
21.882694075675495
 31
0.0
  0
TEXT
 62
7
  8
DIMENSIONS
 10
20.37354276011167
 20
20.682694075675496
 30
0.0
 40
1.234760167279495
  1
R=5
 50
90.0
  7
ISOCPEUR
 72
2
 73
2
 11
20.37354276011167
 21
20.682694075675496
 31
0.0
  0
INSERT
  8
DIMENSIONS
  2
DIMTICK_RADIUS
 10
20.37354276011167
 20
21.882694075675495
 30
0.0
 41
3.292693779411987
 42
3.292693779411987
 50
270.0
  0
ENDSEC
  0
EOF
