  0
SECTION
  2
HEADER
  9
$ACADVER
  1
AC1009
  9
$INSBASE
 10
0.0
 20
0.0
 30
0.0
  9
$EXTMIN
 10
0.0
 20
0.0
 30
0.0
  9
$EXTMAX
 10
100.0
 20
100.0
 30
0.0
  9
$UNITMODE
 70
0
  9
$AUNITS
 70
0
  9
$ANGBASE
 50
0.0
  9
$ANGDIR
 70
0
  0
ENDSEC
  0
SECTION
  2
TABLES
  0
TABLE
  2
LTYPE
 70
19
  0
LTYPE
  2
CONTINUOUS
 70
0
  3
Solid
 72
65
 73
0
 40
0.0
  0
LTYPE
  2
CENTER
 70
0
  3
Center ____ _ ____ _ ____ _ ____ _ ____ _ ____
 72
65
 73
4
 40
2.0
 49
1.25
 49
-0.25
 49
0.25
 49
-0.25
  0
LTYPE
  2
CENTERX2
 70
0
  3
Center (2x) ________  __  ________  __  ________
 72
65
 73
4
 40
3.5
 49
2.5
 49
-0.25
 49
0.5
 49
-0.25
  0
LTYPE
  2
CENTER2
 70
0
  3
Center (.5x) ____ _ ____ _ ____ _ ____ _ ____
 72
65
 73
4
 40
1.0
 49
0.625
 49
-0.125
 49
0.125
 49
-0.125
  0
LTYPE
  2
DASHED
 70
0
  3
Dashed __ __ __ __ __ __ __ __ __ __ __ __ __ _
 72
65
 73
2
 40
0.6
 49
0.5
 49
-0.1
  0
LTYPE
  2
DASHEDX2
 70
0
  3
Dashed (2x) ____  ____  ____  ____  ____  ____
 72
65
 73
2
 40
1.2
 49
1.0
 49
-0.2
  0
LTYPE
  2
DASHED2
 70
0
  3
Dashed (.5x) _ _ _ _ _ _ _ _ _ _ _ _ _ _
 72
65
 73
2
 40
0.3
 49
0.25
 49
-0.05
  0
LTYPE
  2
PHANTOM
 70
0
  3
Phantom ______  __  __  ______  __  __  ______
 72
65
 73
6
 40
2.5
 49
1.25
 49
-0.25
 49
0.25
 49
-0.25
 49
0.25
 49
-0.25
  0
LTYPE
  2
PHANTOMX2
 70
0
  3
Phantom (2x)____________    ____    ____    ____________
 72
65
 73
6
 40
4.25
 49
2.5
 49
-0.25
 49
0.5
 49
-0.25
 49
0.5
 49
-0.25
  0
LTYPE
  2
PHANTOM2
 70
0
  3
Phantom (.5x) ___ _ _ ___ _ _ ___ _ _ ___ _ _ ___
 72
65
 73
6
 40
1.25
 49
0.625
 49
-0.125
 49
0.125
 49
-0.125
 49
0.125
 49
-0.125
  0
LTYPE
  2
DASHDOT
 70
0
  3
Dash dot __ . __ . __ . __ . __ . __ . __ . __
 72
65
 73
4
 40
1.4
 49
1.0
 49
-0.2
 49
0.0
 49
-0.2
  0
LTYPE
  2
DASHDOTX2
 70
0
  3
Dash dot (2x) ____  .  ____  .  ____  .  ____
 72
65
 73
4
 40
2.4
 49
2.0
 49
-0.2
 49
0.0
 49
-0.2
  0
LTYPE
  2
DASHDOT2
 70
0
  3
Dash dot (.5x) _ . _ . _ . _ . _ . _ . _ . _
 72
65
 73
4
 40
0.7
 49
0.5
 49
-0.1
 49
0.0
 49
-0.1
  0
LTYPE
  2
DOT
 70
0
  3
Dot .  .  .  .  .  .  .  .  .  .  .  .  .  .  .  .
 72
65
 73
2
 40
0.2
 49
0.0
 49
-0.2
  0
LTYPE
  2
DOTX2
 70
0
  3
Dot (2x) .    .    .    .    .    .    .    . 
 72
65
 73
2
 40
0.4
 49
0.0
 49
-0.4
  0
LTYPE
  2
DOT2
 70
0
  3
Dot (.5) . . . . . . . . . . . . . . . . . . . 
 72
65
 73
2
 40
0.1
 49
0.0
 49
-0.1
  0
LTYPE
  2
DIVIDE
 70
0
  3
Divide __ . . __ . . __ . . __ . . __ . . __
 72
65
 73
6
 40
1.6
 49
1.0
 49
-0.2
 49
0.0
 49
-0.2
 49
0.0
 49
-0.2
  0
LTYPE
  2
DIVIDEX2
 70
0
  3
Divide (2x) ____  . .  ____  . .  ____  . .  ____
 72
65
 73
6
 40
2.6
 49
2.0
 49
-0.2
 49
0.0
 49
-0.2
 49
0.0
 49
-0.2
  0
LTYPE
  2
DIVIDE2
 70
0
  3
Divide(.5x) _ . _ . _ . _ . _ . _ . _ . _
 72
65
 73
6
 40
0.8
 49
0.5
 49
-0.1
 49
0.0
 49
-0.1
 49
0.0
 49
-0.1
  0
ENDTAB
  0
TABLE
  2
LAYER
 70
5
  0
LAYER
  2
DIMENSIONS
 70
0
 62
1
  6
CONTINUOUS
  0
LAYER
  2
TABLEBACKGROUND
 70
0
 62
1
  6
CONTINUOUS
  0
LAYER
  2
TABLECONTENT
 70
0
 62
1
  6
CONTINUOUS
  0
LAYER
  2
TABLEGRID
 70
0
 62
1
  6
CONTINUOUS
  0
LAYER
  2
VIEWPORTS
 70
0
 62
7
  6
CONTINUOUS
  0
ENDTAB
  0
TABLE
  2
STYLE
 70
12
  0
STYLE
  2
STANDARD
 70
0
 40
0.0
 41
1.0
 42
1.0
 50
0.0
 71
0
  3
arial.ttf
  4

  0
STYLE
  2
ARIAL
 70
0
 40
0.0
 41
1.0
 42
1.0
 50
0.0
 71
0
  3
arial.ttf
  4

  0
STYLE
  2
ARIAL_BOLD
 70
0
 40
0.0
 41
1.0
 42
1.0
 50
0.0
 71
0
  3
arialbd.ttf
  4

  0
STYLE
  2
ARIAL_ITALIC
 70
0
 40
0.0
 41
1.0
 42
1.0
 50
0.0
 71
0
  3
ariali.ttf
  4

  0
STYLE
  2
ARIAL_BOLD_ITALIC
 70
0
 40
0.0
 41
1.0
 42
1.0
 50
0.0
 71
0
  3
arialbi.ttf
  4

  0
STYLE
  2
ARIAL_BLACK
 70
0
 40
0.0
 41
1.0
 42
1.0
 50
0.0
 71
0
  3
ariblk.ttf
  4

  0
STYLE
  2
ISOCPEUR
 70
0
 40
0.0
 41
1.0
 42
1.0
 50
0.0
 71
0
  3
isocpeur.ttf
  4

  0
STYLE
  2
ISOCPEUR_ITALIC
 70
0
 40
0.0
 41
1.0
 42
1.0
 50
0.0
 71
0
  3
isocpeui.ttf
  4

  0
STYLE
  2
TIMES
 70
0
 40
0.0
 41
1.0
 42
1.0
 50
0.0
 71
0
  3
times.ttf
  4

  0
STYLE
  2
TIMES_BOLD
 70
0
 40
0.0
 41
1.0
 42
1.0
 50
0.0
 71
0
  3
timesbd.ttf
  4

  0
STYLE
  2
TIMES_ITALIC
 70
0
 40
0.0
 41
1.0
 42
1.0
 50
0.0
 71
0
  3
timesi.ttf
  4

  0
STYLE
  2
TIMES_BOLD_ITALIC
 70
0
 40
0.0
 41
1.0
 42
1.0
 50
0.0
 71
0
  3
timesbi.ttf
  4

  0
ENDTAB
  0
TABLE
  2
VIEW
 70
0
  0
ENDTAB
  0
TABLE
  2
APPID
 70
1
  0
APPID
  2
DXFWRITE
 70
0
  0
ENDTAB
  0
TABLE
  2
VPORT
 70
0
  0
ENDTAB
  0
TABLE
  2
UCS
 70
0
  0
ENDTAB
  0
ENDSEC
  0
SECTION
  2
BLOCKS
  0
BLOCK
  8
0
  2
DIMTICK_ARCH
  3
DIMTICK_ARCH
 70
0
 10
0.0
 20
0.0
 30
0.0
  0
LINE
 62
5
  8
0
 10
0.0
 20
0.5
 30
0.0
 11
0.0
 21
-0.5
 31
0.0
  0
LINE
 62
4
  8
0
 10
-0.2
 20
-0.2
 30
0.0
 11
0.2
 21
0.2
 31
0.0
  0
ENDBLK
  0
BLOCK
  8
0
  2
DIMTICK_DOT
  3
DIMTICK_DOT
 70
0
 10
0.0
 20
0.0
 30
0.0
  0
LINE
 62
5
  8
0
 10
0.0
 20
0.5
 30
0.0
 11
0.0
 21
-0.5
 31
0.0
  0
CIRCLE
 62
4
  8
0
 10
0.0
 20
0.0
 30
0.0
 40
0.1
  0
ENDBLK
  0
BLOCK
  8
0
  2
DIMTICK_ARROW
  3
DIMTICK_ARROW
 70
0
 10
0.0
 20
0.0
 30
0.0
  0
LINE
 62
5
  8
0
 10
0.0
 20
0.5
 30
0.0
 11
0.0
 21
-0.5
 31
0.0
  0
SOLID
 62
7
  8
0
 10
0.0
 20
0.0
 30
0.0
 11
0.3
 21
0.05
 31
0.0
 13
0.3
 23
-0.05
 33
0.0
 12
0.3
 22
-0.05
 32
0.0
  0
ENDBLK
  0
BLOCK
  8
0
  2
DIMTICK_RADIUS
  3
DIMTICK_RADIUS
 70
0
 10
0.0
 20
0.0
 30
0.0
  0
SOLID
 62
7
  8
0
 10
0.0
 20
0.0
 30
0.0
 11
0.3
 21
0.05
 31
0.0
 13
0.25
 23
0.0
 33
0.0
 12
0.3
 22
-0.05
 32
0.0
  0
ENDBLK
  0
ENDSEC
  0
SECTION
  2
ENTITIES
  0
VIEWPORT
  8
VIEWPORTS
 67
1
 10
0.0
 20
0.0
 30
0.0
 40
1.0
 41
1.0
 68
1
 69
1
1001
ACAD
1000
MVIEW
1002
{
1070
16
1010
0.0
1020
0.0
1030
0.0
1010
0.0
1020
0.0
1030
0.0
1040
0.0
1040
1.0
1040
0.0
1040
0.0
1040
50.0
1040
0.0
1040
0.0
1070
0
1070
100
1070
1
1070
3
1070
0
1070
0
1070
0
1070
0
1040
0.0
1040
0.0
1040
0.0
1040
0.1
1040
0.1
1040
0.1
1040
0.1
1070
0
1002
{
1002
}
1002
}
  0
LINE
 62
3
  8
0
 10
0.0
 20
0.0
 30
0.0
 11
12.922296708935296
 21
0.0
 31
0.0
  0
LINE
 62
7
  8
DIMENSIONS
 10
0.0
 20
-1.2922296708935295
 30
0.0
 11
12.922296708935296
 21
-1.2922296708935295
 31
0.0
  0
LINE
 62
5
  8
DIMENSIONS
 10
0.0
 20
-1.2922296708935295
 30
0.0
 11
0.0
 21
-0.17077703291064703
 31
0.0
  0
LINE
 62
5
  8
DIMENSIONS
 10
12.922296708935296
 20
-1.2922296708935295
 30
0.0
 11
12.922296708935296
 21
-0.17077703291064703
 31
0.0
  0
TEXT
 62
7
  8
DIMENSIONS
 10
6.461148354467648
 20
-0.6332769845342157
 30
0.0
 40
0.9179053727186275
  1
13
 50
-0.0
  7
ISOCPEUR
 72
1
 73
2
 11
6.461148354467648
 21
-0.6332769845342157
 31
0.0
  0
INSERT
  8
DIMENSIONS
  2
DIMTICK_ARROW
 10
0.0
 20
-1.2922296708935295
 30
0.0
 41
2.584459341787059
 42
2.584459341787059
 50
0.0
  0
INSERT
  8
DIMENSIONS
  2
DIMTICK_ARROW
 10
12.922296708935296
 20
-1.2922296708935295
 30
0.0
 41
2.584459341787059
 42
2.584459341787059
 50
180.0
  0
LINE
 62
7
  8
DIMENSIONS
 10
0.0
 20
-1.2922296708935295
 30
0.0
 11
12.922296708935296
 21
-1.2922296708935295
 31
0.0
  0
LINE
 62
5
  8
DIMENSIONS
 10
0.0
 20
-1.2922296708935295
 30
0.0
 11
0.0
 21
-0.17077703291064703
 31
0.0
  0
LINE
 62
5
  8
DIMENSIONS
 10
12.922296708935296
 20
-1.2922296708935295
 30
0.0
 11
12.922296708935296
 21
-0.17077703291064703
 31
0.0
  0
TEXT
 62
7
  8
DIMENSIONS
 10
6.461148354467648
 20
-0.6332769845342157
 30
0.0
 40
0.9179053727186275
  1
13
 50
-0.0
  7
ISOCPEUR
 72
1
 73
2
 11
6.461148354467648
 21
-0.6332769845342157
 31
0.0
  0
INSERT
  8
DIMENSIONS
  2
DIMTICK_ARROW
 10
0.0
 20
-1.2922296708935295
 30
0.0
 41
2.584459341787059
 42
2.584459341787059
 50
0.0
  0
INSERT
  8
DIMENSIONS
  2
DIMTICK_ARROW
 10
12.922296708935296
 20
-1.2922296708935295
 30
0.0
 41
2.584459341787059
 42
2.584459341787059
 50
180.0
  0
LINE
 62
7
  8
DIMENSIONS
 10
0.0
 20
-1.2922296708935295
 30
0.0
 11
12.922296708935296
 21
-1.2922296708935295
 31
0.0
  0
LINE
 62
5
  8
DIMENSIONS
 10
0.0
 20
-1.2922296708935295
 30
0.0
 11
0.0
 21
-0.17077703291064703
 31
0.0
  0
LINE
 62
5
  8
DIMENSIONS
 10
12.922296708935296
 20
-1.2922296708935295
 30
0.0
 11
12.922296708935296
 21
-0.17077703291064703
 31
0.0
  0
TEXT
 62
7
  8
DIMENSIONS
 10
6.461148354467648
 20
-0.6332769845342157
 30
0.0
 40
0.9179053727186275
  1
13
 50
-0.0
  7
ISOCPEUR
 72
1
 73
2
 11
6.461148354467648
 21
-0.6332769845342157
 31
0.0
  0
INSERT
  8
DIMENSIONS
  2
DIMTICK_ARROW
 10
0.0
 20
-1.2922296708935295
 30
0.0
 41
2.584459341787059
 42
2.584459341787059
 50
0.0
  0
INSERT
  8
DIMENSIONS
  2
DIMTICK_ARROW
 10
12.922296708935296
 20
-1.2922296708935295
 30
0.0
 41
2.584459341787059
 42
2.584459341787059
 50
180.0
  0
LINE
 62
7
  8
DIMENSIONS
 10
0.0
 20
-1.2922296708935295
 30
0.0
 11
12.922296708935296
 21
-1.2922296708935295
 31
0.0
  0
LINE
 62
5
  8
DIMENSIONS
 10
0.0
 20
-1.2922296708935295
 30
0.0
 11
0.0
 21
-0.17077703291064703
 31
0.0
  0
LINE
 62
5
  8
DIMENSIONS
 10
12.922296708935296
 20
-1.2922296708935295
 30
0.0
 11
12.922296708935296
 21
-0.17077703291064703
 31
0.0
  0
TEXT
 62
7
  8
DIMENSIONS
 10
6.461148354467648
 20
-0.6332769845342157
 30
0.0
 40
0.9179053727186275
  1
13
 50
-0.0
  7
ISOCPEUR
 72
1
 73
2
 11
6.461148354467648
 21
-0.6332769845342157
 31
0.0
  0
INSERT
  8
DIMENSIONS
  2
DIMTICK_ARROW
 10
0.0
 20
-1.2922296708935295
 30
0.0
 41
2.584459341787059
 42
2.584459341787059
 50
0.0
  0
INSERT
  8
DIMENSIONS
  2
DIMTICK_ARROW
 10
12.922296708935296
 20
-1.2922296708935295
 30
0.0
 41
2.584459341787059
 42
2.584459341787059
 50
180.0
  0
LINE
 62
7
  8
DIMENSIONS
 10
0.0
 20
-1.2922296708935295
 30
0.0
 11
12.922296708935296
 21
-1.2922296708935295
 31
0.0
  0
LINE
 62
5
  8
DIMENSIONS
 10
0.0
 20
-1.2922296708935295
 30
0.0
 11
0.0
 21
-0.17077703291064703
 31
0.0
  0
LINE
 62
5
  8
DIMENSIONS
 10
12.922296708935296
 20
-1.2922296708935295
 30
0.0
 11
12.922296708935296
 21
-0.17077703291064703
 31
0.0
  0
TEXT
 62
7
  8
DIMENSIONS
 10
6.461148354467648
 20
-0.6332769845342157
 30
0.0
 40
0.9179053727186275
  1
13
 50
-0.0
  7
ISOCPEUR
 72
1
 73
2
 11
6.461148354467648
 21
-0.6332769845342157
 31
0.0
  0
INSERT
  8
DIMENSIONS
  2
DIMTICK_ARROW
 10
0.0
 20
-1.2922296708935295
 30
0.0
 41
2.584459341787059
 42
2.584459341787059
 50
0.0
  0
INSERT
  8
DIMENSIONS
  2
DIMTICK_ARROW
 10
12.922296708935296
 20
-1.2922296708935295
 30
0.0
 41
2.584459341787059
 42
2.584459341787059
 50
180.0
  0
LINE
 62
7
  8
DIMENSIONS
 10
0.0
 20
-1.2922296708935295
 30
0.0
 11
12.922296708935296
 21
-1.2922296708935295
 31
0.0
  0
LINE
 62
5
  8
DIMENSIONS
 10
0.0
 20
-1.2922296708935295
 30
0.0
 11
0.0
 21
-0.17077703291064703
 31
0.0
  0
LINE
 62
5
  8
DIMENSIONS
 10
12.922296708935296
 20
-1.2922296708935295
 30
0.0
 11
12.922296708935296
 21
-0.17077703291064703
 31
0.0
  0
TEXT
 62
7
  8
DIMENSIONS
 10
6.461148354467648
 20
-0.6332769845342157
 30
0.0
 40
0.9179053727186275
  1
13
 50
-0.0
  7
ISOCPEUR
 72
1
 73
2
 11
6.461148354467648
 21
-0.6332769845342157
 31
0.0
  0
INSERT
  8
DIMENSIONS
  2
DIMTICK_ARROW
 10
0.0
 20
-1.2922296708935295
 30
0.0
 41
2.584459341787059
 42
2.584459341787059
 50
0.0
  0
INSERT
  8
DIMENSIONS
  2
DIMTICK_ARROW
 10
12.922296708935296
 20
-1.2922296708935295
 30
0.0
 41
2.584459341787059
 42
2.584459341787059
 50
180.0
  0
LINE
 62
7
  8
DIMENSIONS
 10
0.0
 20
-1.2922296708935295
 30
0.0
 11
12.922296708935296
 21
-1.2922296708935295
 31
0.0
  0
LINE
 62
5
  8
DIMENSIONS
 10
0.0
 20
-1.2922296708935295
 30
0.0
 11
0.0
 21
-0.17077703291064703
 31
0.0
  0
LINE
 62
5
  8
DIMENSIONS
 10
12.922296708935296
 20
-1.2922296708935295
 30
0.0
 11
12.922296708935296
 21
-0.17077703291064703
 31
0.0
  0
TEXT
 62
7
  8
DIMENSIONS
 10
6.461148354467648
 20
-0.6332769845342157
 30
0.0
 40
0.9179053727186275
  1
13
 50
-0.0
  7
ISOCPEUR
 72
1
 73
2
 11
6.461148354467648
 21
-0.6332769845342157
 31
0.0
  0
INSERT
  8
DIMENSIONS
  2
DIMTICK_ARROW
 10
0.0
 20
-1.2922296708935295
 30
0.0
 41
2.584459341787059
 42
2.584459341787059
 50
0.0
  0
INSERT
  8
DIMENSIONS
  2
DIMTICK_ARROW
 10
12.922296708935296
 20
-1.2922296708935295
 30
0.0
 41
2.584459341787059
 42
2.584459341787059
 50
180.0
  0
LINE
 62
7
  8
DIMENSIONS
 10
0.0
 20
-1.2922296708935295
 30
0.0
 11
12.922296708935296
 21
-1.2922296708935295
 31
0.0
  0
LINE
 62
5
  8
DIMENSIONS
 10
0.0
 20
-1.2922296708935295
 30
0.0
 11
0.0
 21
-0.17077703291064703
 31
0.0
  0
LINE
 62
5
  8
DIMENSIONS
 10
12.922296708935296
 20
-1.2922296708935295
 30
0.0
 11
12.922296708935296
 21
-0.17077703291064703
 31
0.0
  0
TEXT
 62
7
  8
DIMENSIONS
 10
6.461148354467648
 20
-0.6332769845342157
 30
0.0
 40
0.9179053727186275
  1
13
 50
-0.0
  7
ISOCPEUR
 72
1
 73
2
 11
6.461148354467648
 21
-0.6332769845342157
 31
0.0
  0
INSERT
  8
DIMENSIONS
  2
DIMTICK_ARROW
 10
0.0
 20
-1.2922296708935295
 30
0.0
 41
2.584459341787059
 42
2.584459341787059
 50
0.0
  0
INSERT
  8
DIMENSIONS
  2
DIMTICK_ARROW
 10
12.922296708935296
 20
-1.2922296708935295
 30
0.0
 41
2.584459341787059
 42
2.584459341787059
 50
180.0
  0
LINE
 62
7
  8
DIMENSIONS
 10
0.0
 20
-1.2922296708935295
 30
0.0
 11
12.922296708935296
 21
-1.2922296708935295
 31
0.0
  0
LINE
 62
5
  8
DIMENSIONS
 10
0.0
 20
-1.2922296708935295
 30
0.0
 11
0.0
 21
-0.17077703291064703
 31
0.0
  0
LINE
 62
5
  8
DIMENSIONS
 10
12.922296708935296
 20
-1.2922296708935295
 30
0.0
 11
12.922296708935296
 21
-0.17077703291064703
 31
0.0
  0
TEXT
 62
7
  8
DIMENSIONS
 10
6.461148354467648
 20
-0.6332769845342157
 30
0.0
 40
0.9179053727186275
  1
13
 50
-0.0
  7
ISOCPEUR
 72
1
 73
2
 11
6.461148354467648
 21
-0.6332769845342157
 31
0.0
  0
INSERT
  8
DIMENSIONS
  2
DIMTICK_ARROW
 10
0.0
 20
-1.2922296708935295
 30
0.0
 41
2.584459341787059
 42
2.584459341787059
 50
0.0
  0
INSERT
  8
DIMENSIONS
  2
DIMTICK_ARROW
 10
12.922296708935296
 20
-1.2922296708935295
 30
0.0
 41
2.584459341787059
 42
2.584459341787059
 50
180.0
  0
LINE
 62
7
  8
DIMENSIONS
 10
0.0
 20
-1.2922296708935295
 30
0.0
 11
12.922296708935296
 21
-1.2922296708935295
 31
0.0
  0
LINE
 62
5
  8
DIMENSIONS
 10
0.0
 20
-1.2922296708935295
 30
0.0
 11
0.0
 21
-0.17077703291064703
 31
0.0
  0
LINE
 62
5
  8
DIMENSIONS
 10
12.922296708935296
 20
-1.2922296708935295
 30
0.0
 11
12.922296708935296
 21
-0.17077703291064703
 31
0.0
  0
TEXT
 62
7
  8
DIMENSIONS
 10
6.461148354467648
 20
-0.6332769845342157
 30
0.0
 40
0.9179053727186275
  1
13
 50
-0.0
  7
ISOCPEUR
 72
1
 73
2
 11
6.461148354467648
 21
-0.6332769845342157
 31
0.0
  0
INSERT
  8
DIMENSIONS
  2
DIMTICK_ARROW
 10
0.0
 20
-1.2922296708935295
 30
0.0
 41
2.584459341787059
 42
2.584459341787059
 50
0.0
  0
INSERT
  8
DIMENSIONS
  2
DIMTICK_ARROW
 10
12.922296708935296
 20
-1.2922296708935295
 30
0.0
 41
2.584459341787059
 42
2.584459341787059
 50
180.0
  0
LINE
 62
7
  8
DIMENSIONS
 10
0.0
 20
-1.2922296708935295
 30
0.0
 11
12.922296708935296
 21
-1.2922296708935295
 31
0.0
  0
LINE
 62
5
  8
DIMENSIONS
 10
0.0
 20
-1.2922296708935295
 30
0.0
 11
0.0
 21
-0.17077703291064703
 31
0.0
  0
LINE
 62
5
  8
DIMENSIONS
 10
12.922296708935296
 20
-1.2922296708935295
 30
0.0
 11
12.922296708935296
 21
-0.17077703291064703
 31
0.0
  0
TEXT
 62
7
  8
DIMENSIONS
 10
6.461148354467648
 20
-0.6332769845342157
 30
0.0
 40
0.9179053727186275
  1
13
 50
-0.0
  7
ISOCPEUR
 72
1
 73
2
 11
6.461148354467648
 21
-0.6332769845342157
 31
0.0
  0
INSERT
  8
DIMENSIONS
  2
DIMTICK_ARROW
 10
0.0
 20
-1.2922296708935295
 30
0.0
 41
2.584459341787059
 42
2.584459341787059
 50
0.0
  0
INSERT
  8
DIMENSIONS
  2
DIMTICK_ARROW
 10
12.922296708935296
 20
-1.2922296708935295
 30
0.0
 41
2.584459341787059
 42
2.584459341787059
 50
180.0
  0
LINE
 62
7
  8
DIMENSIONS
 10
0.0
 20
-1.2922296708935295
 30
0.0
 11
12.922296708935296
 21
-1.2922296708935295
 31
0.0
  0
LINE
 62
5
  8
DIMENSIONS
 10
0.0
 20
-1.2922296708935295
 30
0.0
 11
0.0
 21
-0.17077703291064703
 31
0.0
  0
LINE
 62
5
  8
DIMENSIONS
 10
12.922296708935296
 20
-1.2922296708935295
 30
0.0
 11
12.922296708935296
 21
-0.17077703291064703
 31
0.0
  0
TEXT
 62
7
  8
DIMENSIONS
 10
6.461148354467648
 20
-0.6332769845342157
 30
0.0
 40
0.9179053727186275
  1
13
 50
-0.0
  7
ISOCPEUR
 72
1
 73
2
 11
6.461148354467648
 21
-0.6332769845342157
 31
0.0
  0
INSERT
  8
DIMENSIONS
  2
DIMTICK_ARROW
 10
0.0
 20
-1.2922296708935295
 30
0.0
 41
2.584459341787059
 42
2.584459341787059
 50
0.0
  0
INSERT
  8
DIMENSIONS
  2
DIMTICK_ARROW
 10
12.922296708935296
 20
-1.2922296708935295
 30
0.0
 41
2.584459341787059
 42
2.584459341787059
 50
180.0
  0
LINE
 62
3
  8
0
 10
0.0
 20
7.999517010293278
 30
0.0
 11
12.922296708935296
 21
7.999517010293278
 31
0.0
  0
LINE
 62
3
  8
0
 10
0.0
 20
0.0
 30
0.0
 11
0.0
 21
7.999517010293278
 31
0.0
  0
LINE
 62
3
  8
0
 10
12.922296708935296
 20
0.0
 30
0.0
 11
12.922296708935296
 21
7.999517010293278
 31
0.0
  0
LINE
 62
7
  8
DIMENSIONS
 10
13.722248409964623
 20
-9.796582901380461e-17
 30
0.0
 11
13.722248409964623
 21
7.999517010293278
 31
0.0
  0
LINE
 62
5
  8
DIMENSIONS
 10
13.722248409964623
 20
-9.796582901380461e-17
 30
0.0
 11
13.222296708935296
 21
-3.67394039744206e-17
 31
0.0
  0
LINE
 62
5
  8
DIMENSIONS
 10
13.722248409964623
 20
7.999517010293278
 30
0.0
 11
13.222296708935296
 21
7.999517010293278
 31
0.0
  0
TEXT
 62
7
  8
DIMENSIONS
 10
13.200039604123143
 20
3.999758505146639
 30
0.0
 40
0.6444176116829599
  1
8
 50
90.0
  7
ISOCPEUR
 72
1
 73
2
 11
13.200039604123143
 21
3.999758505146639
 31
0.0
  0
INSERT
  8
DIMENSIONS
  2
DIMTICK_ARROW
 10
13.722248409964623
 20
-9.796582901380461e-17
 30
0.0
 41
1.5999034020586556
 42
1.5999034020586556
 50
90.0
  0
INSERT
  8
DIMENSIONS
  2
DIMTICK_ARROW
 10
13.722248409964623
 20
7.999517010293278
 30
0.0
 41
1.5999034020586556
 42
1.5999034020586556
 50
270.0
  0
LINE
 62
7
  8
DIMENSIONS
 10
13.722248409964623
 20
-9.796582901380461e-17
 30
0.0
 11
13.722248409964623
 21
7.999517010293278
 31
0.0
  0
LINE
 62
5
  8
DIMENSIONS
 10
13.722248409964623
 20
-9.796582901380461e-17
 30
0.0
 11
13.222296708935296
 21
-3.67394039744206e-17
 31
0.0
  0
LINE
 62
5
  8
DIMENSIONS
 10
13.722248409964623
 20
7.999517010293278
 30
0.0
 11
13.222296708935296
 21
7.999517010293278
 31
0.0
  0
TEXT
 62
7
  8
DIMENSIONS
 10
13.200039604123143
 20
3.999758505146639
 30
0.0
 40
0.6444176116829599
  1
8
 50
90.0
  7
ISOCPEUR
 72
1
 73
2
 11
13.200039604123143
 21
3.999758505146639
 31
0.0
  0
INSERT
  8
DIMENSIONS
  2
DIMTICK_ARROW
 10
13.722248409964623
 20
-9.796582901380461e-17
 30
0.0
 41
1.5999034020586556
 42
1.5999034020586556
 50
90.0
  0
INSERT
  8
DIMENSIONS
  2
DIMTICK_ARROW
 10
13.722248409964623
 20
7.999517010293278
 30
0.0
 41
1.5999034020586556
 42
1.5999034020586556
 50
270.0
  0
LINE
 62
7
  8
DIMENSIONS
 10
13.722248409964623
 20
-9.796582901380461e-17
 30
0.0
 11
13.722248409964623
 21
7.999517010293278
 31
0.0
  0
LINE
 62
5
  8
DIMENSIONS
 10
13.722248409964623
 20
-9.796582901380461e-17
 30
0.0
 11
13.222296708935296
 21
-3.67394039744206e-17
 31
0.0
  0
LINE
 62
5
  8
DIMENSIONS
 10
13.722248409964623
 20
7.999517010293278
 30
0.0
 11
13.222296708935296
 21
7.999517010293278
 31
0.0
  0
TEXT
 62
7
  8
DIMENSIONS
 10
13.200039604123143
 20
3.999758505146639
 30
0.0
 40
0.6444176116829599
  1
8
 50
90.0
  7
ISOCPEUR
 72
1
 73
2
 11
13.200039604123143
 21
3.999758505146639
 31
0.0
  0
INSERT
  8
DIMENSIONS
  2
DIMTICK_ARROW
 10
13.722248409964623
 20
-9.796582901380461e-17
 30
0.0
 41
1.5999034020586556
 42
1.5999034020586556
 50
90.0
  0
INSERT
  8
DIMENSIONS
  2
DIMTICK_ARROW
 10
13.722248409964623
 20
7.999517010293278
 30
0.0
 41
1.5999034020586556
 42
1.5999034020586556
 50
270.0
  0
LINE
 62
7
  8
DIMENSIONS
 10
13.722248409964623
 20
-9.796582901380461e-17
 30
0.0
 11
13.722248409964623
 21
7.999517010293278
 31
0.0
  0
LINE
 62
5
  8
DIMENSIONS
 10
13.722248409964623
 20
-9.796582901380461e-17
 30
0.0
 11
13.222296708935296
 21
-3.67394039744206e-17
 31
0.0
  0
LINE
 62
5
  8
DIMENSIONS
 10
13.722248409964623
 20
7.999517010293278
 30
0.0
 11
13.222296708935296
 21
7.999517010293278
 31
0.0
  0
TEXT
 62
7
  8
DIMENSIONS
 10
13.200039604123143
 20
3.999758505146639
 30
0.0
 40
0.6444176116829599
  1
8
 50
90.0
  7
ISOCPEUR
 72
1
 73
2
 11
13.200039604123143
 21
3.999758505146639
 31
0.0
  0
INSERT
  8
DIMENSIONS
  2
DIMTICK_ARROW
 10
13.722248409964623
 20
-9.796582901380461e-17
 30
0.0
 41
1.5999034020586556
 42
1.5999034020586556
 50
90.0
  0
INSERT
  8
DIMENSIONS
  2
DIMTICK_ARROW
 10
13.722248409964623
 20
7.999517010293278
 30
0.0
 41
1.5999034020586556
 42
1.5999034020586556
 50
270.0
  0
LINE
 62
7
  8
DIMENSIONS
 10
13.722248409964623
 20
-9.796582901380461e-17
 30
0.0
 11
13.722248409964623
 21
7.999517010293278
 31
0.0
  0
LINE
 62
5
  8
DIMENSIONS
 10
13.722248409964623
 20
-9.796582901380461e-17
 30
0.0
 11
13.222296708935296
 21
-3.67394039744206e-17
 31
0.0
  0
LINE
 62
5
  8
DIMENSIONS
 10
13.722248409964623
 20
7.999517010293278
 30
0.0
 11
13.222296708935296
 21
7.999517010293278
 31
0.0
  0
TEXT
 62
7
  8
DIMENSIONS
 10
13.200039604123143
 20
3.999758505146639
 30
0.0
 40
0.6444176116829599
  1
8
 50
90.0
  7
ISOCPEUR
 72
1
 73
2
 11
13.200039604123143
 21
3.999758505146639
 31
0.0
  0
INSERT
  8
DIMENSIONS
  2
DIMTICK_ARROW
 10
13.722248409964623
 20
-9.796582901380461e-17
 30
0.0
 41
1.5999034020586556
 42
1.5999034020586556
 50
90.0
  0
INSERT
  8
DIMENSIONS
  2
DIMTICK_ARROW
 10
13.722248409964623
 20
7.999517010293278
 30
0.0
 41
1.5999034020586556
 42
1.5999034020586556
 50
270.0
  0
LINE
 62
7
  8
DIMENSIONS
 10
13.722248409964623
 20
-9.796582901380461e-17
 30
0.0
 11
13.722248409964623
 21
7.999517010293278
 31
0.0
  0
LINE
 62
5
  8
DIMENSIONS
 10
13.722248409964623
 20
-9.796582901380461e-17
 30
0.0
 11
13.222296708935296
 21
-3.67394039744206e-17
 31
0.0
  0
LINE
 62
5
  8
DIMENSIONS
 10
13.722248409964623
 20
7.999517010293278
 30
0.0
 11
13.222296708935296
 21
7.999517010293278
 31
0.0
  0
TEXT
 62
7
  8
DIMENSIONS
 10
13.200039604123143
 20
3.999758505146639
 30
0.0
 40
0.6444176116829599
  1
8
 50
90.0
  7
ISOCPEUR
 72
1
 73
2
 11
13.200039604123143
 21
3.999758505146639
 31
0.0
  0
INSERT
  8
DIMENSIONS
  2
DIMTICK_ARROW
 10
13.722248409964623
 20
-9.796582901380461e-17
 30
0.0
 41
1.5999034020586556
 42
1.5999034020586556
 50
90.0
  0
INSERT
  8
DIMENSIONS
  2
DIMTICK_ARROW
 10
13.722248409964623
 20
7.999517010293278
 30
0.0
 41
1.5999034020586556
 42
1.5999034020586556
 50
270.0
  0
LINE
 62
7
  8
DIMENSIONS
 10
13.722248409964623
 20
-9.796582901380461e-17
 30
0.0
 11
13.722248409964623
 21
7.999517010293278
 31
0.0
  0
LINE
 62
5
  8
DIMENSIONS
 10
13.722248409964623
 20
-9.796582901380461e-17
 30
0.0
 11
13.222296708935296
 21
-3.67394039744206e-17
 31
0.0
  0
LINE
 62
5
  8
DIMENSIONS
 10
13.722248409964623
 20
7.999517010293278
 30
0.0
 11
13.222296708935296
 21
7.999517010293278
 31
0.0
  0
TEXT
 62
7
  8
DIMENSIONS
 10
13.200039604123143
 20
3.999758505146639
 30
0.0
 40
0.6444176116829599
  1
8
 50
90.0
  7
ISOCPEUR
 72
1
 73
2
 11
13.200039604123143
 21
3.999758505146639
 31
0.0
  0
INSERT
  8
DIMENSIONS
  2
DIMTICK_ARROW
 10
13.722248409964623
 20
-9.796582901380461e-17
 30
0.0
 41
1.5999034020586556
 42
1.5999034020586556
 50
90.0
  0
INSERT
  8
DIMENSIONS
  2
DIMTICK_ARROW
 10
13.722248409964623
 20
7.999517010293278
 30
0.0
 41
1.5999034020586556
 42
1.5999034020586556
 50
270.0
  0
LINE
 62
7
  8
DIMENSIONS
 10
13.722248409964623
 20
-9.796582901380461e-17
 30
0.0
 11
13.722248409964623
 21
7.999517010293278
 31
0.0
  0
LINE
 62
5
  8
DIMENSIONS
 10
13.722248409964623
 20
-9.796582901380461e-17
 30
0.0
 11
13.222296708935296
 21
-3.67394039744206e-17
 31
0.0
  0
LINE
 62
5
  8
DIMENSIONS
 10
13.722248409964623
 20
7.999517010293278
 30
0.0
 11
13.222296708935296
 21
7.999517010293278
 31
0.0
  0
TEXT
 62
7
  8
DIMENSIONS
 10
13.200039604123143
 20
3.999758505146639
 30
0.0
 40
0.6444176116829599
  1
8
 50
90.0
  7
ISOCPEUR
 72
1
 73
2
 11
13.200039604123143
 21
3.999758505146639
 31
0.0
  0
INSERT
  8
DIMENSIONS
  2
DIMTICK_ARROW
 10
13.722248409964623
 20
-9.796582901380461e-17
 30
0.0
 41
1.5999034020586556
 42
1.5999034020586556
 50
90.0
  0
INSERT
  8
DIMENSIONS
  2
DIMTICK_ARROW
 10
13.722248409964623
 20
7.999517010293278
 30
0.0
 41
1.5999034020586556
 42
1.5999034020586556
 50
270.0
  0
LINE
 62
7
  8
DIMENSIONS
 10
13.722248409964623
 20
-9.796582901380461e-17
 30
0.0
 11
13.722248409964623
 21
7.999517010293278
 31
0.0
  0
LINE
 62
5
  8
DIMENSIONS
 10
13.722248409964623
 20
-9.796582901380461e-17
 30
0.0
 11
13.222296708935296
 21
-3.67394039744206e-17
 31
0.0
  0
LINE
 62
5
  8
DIMENSIONS
 10
13.722248409964623
 20
7.999517010293278
 30
0.0
 11
13.222296708935296
 21
7.999517010293278
 31
0.0
  0
TEXT
 62
7
  8
DIMENSIONS
 10
13.200039604123143
 20
3.999758505146639
 30
0.0
 40
0.6444176116829599
  1
8
 50
90.0
  7
ISOCPEUR
 72
1
 73
2
 11
13.200039604123143
 21
3.999758505146639
 31
0.0
  0
INSERT
  8
DIMENSIONS
  2
DIMTICK_ARROW
 10
13.722248409964623
 20
-9.796582901380461e-17
 30
0.0
 41
1.5999034020586556
 42
1.5999034020586556
 50
90.0
  0
INSERT
  8
DIMENSIONS
  2
DIMTICK_ARROW
 10
13.722248409964623
 20
7.999517010293278
 30
0.0
 41
1.5999034020586556
 42
1.5999034020586556
 50
270.0
  0
LINE
 62
3
  8
0
 10
12.922296708935296
 20
0.0
 30
0.0
 11
12.922296708935296
 21
7.999517010293278
 31
0.0
  0
LINE
 62
3
  8
0
 10
0.0
 20
0.0
 30
0.0
 11
0.0
 21
7.999517010293278
 31
0.0
  0
LINE
 62
3
  8
0
 10
0.0
 20
7.999517010293278
 30
0.0
 11
12.922296708935296
 21
7.999517010293278
 31
0.0
  0
LINE
 62
3
  8
0
 10
0.0
 20
0.0
 30
0.0
 11
12.922296708935296
 21
0.0
 31
0.0
  0
CIRCLE
 62
3
  8
0
 10
2.021855947656543
 20
1.494415265659184
 30
0.0
 40
0.8204632831070029
  0
LINE
 62
7
  8
DIMENSIONS
 10
1.8930641902532481
 20
1.3693308304256702
 30
0.0
 11
2.610420281152771
 21
2.066037539772836
 31
0.0
  0
TEXT
 62
7
  8
DIMENSIONS
 10
1.7495929720733439
 20
1.229989488556237
 30
0.0
 40
0.20511582077675072
  1
R=1
 50
44.16337638953416
  7
ISOCPEUR
 72
2
 73
2
 11
1.7495929720733439
 21
1.229989488556237
 31
0.0
  0
INSERT
  8
DIMENSIONS
  2
DIMTICK_RADIUS
 10
2.610420281152771
 20
2.066037539772836
 30
0.0
 41
0.5469755220713353
 42
0.5469755220713353
 50
224.16337638953416
  0
LINE
 62
7
  8
DIMENSIONS
 10
1.8930641902532481
 20
1.3693308304256702
 30
0.0
 11
2.610420281152771
 21
2.066037539772836
 31
0.0
  0
TEXT
 62
7
  8
DIMENSIONS
 10
1.7495929720733439
 20
1.229989488556237
 30
0.0
 40
0.20511582077675072
  1
R=1
 50
44.16337638953416
  7
ISOCPEUR
 72
2
 73
2
 11
1.7495929720733439
 21
1.229989488556237
 31
0.0
  0
INSERT
  8
DIMENSIONS
  2
DIMTICK_RADIUS
 10
2.610420281152771
 20
2.066037539772836
 30
0.0
 41
0.5469755220713353
 42
0.5469755220713353
 50
224.16337638953416
  0
LINE
 62
7
  8
DIMENSIONS
 10
1.8930641902532481
 20
1.3693308304256702
 30
0.0
 11
2.610420281152771
 21
2.066037539772836
 31
0.0
  0
TEXT
 62
7
  8
DIMENSIONS
 10
1.7495929720733439
 20
1.229989488556237
 30
0.0
 40
0.20511582077675072
  1
R=1
 50
44.16337638953416
  7
ISOCPEUR
 72
2
 73
2
 11
1.7495929720733439
 21
1.229989488556237
 31
0.0
  0
INSERT
  8
DIMENSIONS
  2
DIMTICK_RADIUS
 10
2.610420281152771
 20
2.066037539772836
 30
0.0
 41
0.5469755220713353
 42
0.5469755220713353
 50
224.16337638953416
  0
LINE
 62
7
  8
DIMENSIONS
 10
1.8930641902532481
 20
1.3693308304256702
 30
0.0
 11
2.610420281152771
 21
2.066037539772836
 31
0.0
  0
TEXT
 62
7
  8
DIMENSIONS
 10
1.7495929720733439
 20
1.229989488556237
 30
0.0
 40
0.20511582077675072
  1
R=1
 50
44.16337638953416
  7
ISOCPEUR
 72
2
 73
2
 11
1.7495929720733439
 21
1.229989488556237
 31
0.0
  0
INSERT
  8
DIMENSIONS
  2
DIMTICK_RADIUS
 10
2.610420281152771
 20
2.066037539772836
 30
0.0
 41
0.5469755220713353
 42
0.5469755220713353
 50
224.16337638953416
  0
CIRCLE
 62
3
  8
0
 10
2.080460467878472
 20
6.593008524966988
 30
0.0
 40
0.8204632831070029
  0
LINE
 62
7
  8
DIMENSIONS
 10
1.9293855299053448
 20
6.496004422841707
 30
0.0
 11
2.7708565147132416
 21
7.036306728709846
 31
0.0
  0
TEXT
 62
7
  8
DIMENSIONS
 10
1.7610913329437656
 20
6.387943961668078
 30
0.0
 40
0.20511582077675072
  1
R=1
 50
32.70422048691766
  7
ISOCPEUR
 72
2
 73
2
 11
1.7610913329437656
 21
6.387943961668078
 31
0.0
  0
INSERT
  8
DIMENSIONS
  2
DIMTICK_RADIUS
 10
2.7708565147132416
 20
7.036306728709846
 30
0.0
 41
0.5469755220713353
 42
0.5469755220713353
 50
212.70422048691768
  0
LINE
 62
7
  8
DIMENSIONS
 10
1.9293855299053448
 20
6.496004422841707
 30
0.0
 11
2.7708565147132416
 21
7.036306728709846
 31
0.0
  0
TEXT
 62
7
  8
DIMENSIONS
 10
1.7610913329437656
 20
6.387943961668078
 30
0.0
 40
0.20511582077675072
  1
R=1
 50
32.70422048691766
  7
ISOCPEUR
 72
2
 73
2
 11
1.7610913329437656
 21
6.387943961668078
 31
0.0
  0
INSERT
  8
DIMENSIONS
  2
DIMTICK_RADIUS
 10
2.7708565147132416
 20
7.036306728709846
 30
0.0
 41
0.5469755220713353
 42
0.5469755220713353
 50
212.70422048691768
  0
LINE
 62
7
  8
DIMENSIONS
 10
1.9293855299053448
 20
6.496004422841707
 30
0.0
 11
2.7708565147132416
 21
7.036306728709846
 31
0.0
  0
TEXT
 62
7
  8
DIMENSIONS
 10
1.7610913329437656
 20
6.387943961668078
 30
0.0
 40
0.20511582077675072
  1
R=1
 50
32.70422048691766
  7
ISOCPEUR
 72
2
 73
2
 11
1.7610913329437656
 21
6.387943961668078
 31
0.0
  0
INSERT
  8
DIMENSIONS
  2
DIMTICK_RADIUS
 10
2.7708565147132416
 20
7.036306728709846
 30
0.0
 41
0.5469755220713353
 42
0.5469755220713353
 50
212.70422048691768
  0
CIRCLE
 62
3
  8
0
 10
11.105556582055504
 20
6.534404004745059
 30
0.0
 40
0.8204632831070029
  0
LINE
 62
7
  8
DIMENSIONS
 10
10.938221344545
 20
6.469347483165598
 30
0.0
 11
11.870260430512225
 21
6.8317052376422716
 31
0.0
  0
TEXT
 62
7
  8
DIMENSIONS
 10
10.751813527351553
 20
6.396875932270263
 30
0.0
 40
0.20511582077675072
  1
R=1
 50
21.245064584301197
  7
ISOCPEUR
 72
2
 73
2
 11
10.751813527351553
 21
6.396875932270263
 31
0.0
  0
INSERT
  8
DIMENSIONS
  2
DIMTICK_RADIUS
 10
11.870260430512225
 20
6.8317052376422716
 30
0.0
 41
0.5469755220713353
 42
0.5469755220713353
 50
201.2450645843012
  0
LINE
 62
7
  8
DIMENSIONS
 10
10.938221344545
 20
6.469347483165598
 30
0.0
 11
11.870260430512225
 21
6.8317052376422716
 31
0.0
  0
TEXT
 62
7
  8
DIMENSIONS
 10
10.751813527351553
 20
6.396875932270263
 30
0.0
 40
0.20511582077675072
  1
R=1
 50
21.245064584301197
  7
ISOCPEUR
 72
2
 73
2
 11
10.751813527351553
 21
6.396875932270263
 31
0.0
  0
INSERT
  8
DIMENSIONS
  2
DIMTICK_RADIUS
 10
11.870260430512225
 20
6.8317052376422716
 30
0.0
 41
0.5469755220713353
 42
0.5469755220713353
 50
201.2450645843012
  0
CIRCLE
 62
3
  8
0
 10
11.105556582055504
 20
1.435810745437255
 30
0.0
 40
0.8204632831070029
  0
LINE
 62
7
  8
DIMENSIONS
 10
10.928632172870286
 20
1.4052954026212627
 30
0.0
 11
11.914081902858745
 21
1.575262545521504
 31
0.0
  0
TEXT
 62
7
  8
DIMENSIONS
 10
10.731542226872593
 20
1.3713019740412147
 30
0.0
 40
0.20511582077675072
  1
R=1
 50
9.78590868168476
  7
ISOCPEUR
 72
2
 73
2
 11
10.731542226872593
 21
1.3713019740412147
 31
0.0
  0
INSERT
  8
DIMENSIONS
  2
DIMTICK_RADIUS
 10
11.914081902858745
 20
1.575262545521504
 30
0.0
 41
0.5469755220713353
 42
0.5469755220713353
 50
189.78590868168476
  0
ENDSEC
  0
EOF
