  0
SECTION
  2
HEADER
  9
$ACADVER
  1
AC1009
  9
$INSBASE
 10
0.0
 20
0.0
 30
0.0
  9
$EXTMIN
 10
0.0
 20
0.0
 30
0.0
  9
$EXTMAX
 10
100.0
 20
100.0
 30
0.0
  9
$UNITMODE
 70
0
  9
$AUNITS
 70
0
  9
$ANGBASE
 50
0.0
  9
$ANGDIR
 70
0
  0
ENDSEC
  0
SECTION
  2
TABLES
  0
TABLE
  2
LTYPE
 70
19
  0
LTYPE
  2
CONTINUOUS
 70
0
  3
Solid
 72
65
 73
0
 40
0.0
  0
LTYPE
  2
CENTER
 70
0
  3
Center ____ _ ____ _ ____ _ ____ _ ____ _ ____
 72
65
 73
4
 40
2.0
 49
1.25
 49
-0.25
 49
0.25
 49
-0.25
  0
LTYPE
  2
CENTERX2
 70
0
  3
Center (2x) ________  __  ________  __  ________
 72
65
 73
4
 40
3.5
 49
2.5
 49
-0.25
 49
0.5
 49
-0.25
  0
LTYPE
  2
CENTER2
 70
0
  3
Center (.5x) ____ _ ____ _ ____ _ ____ _ ____
 72
65
 73
4
 40
1.0
 49
0.625
 49
-0.125
 49
0.125
 49
-0.125
  0
LTYPE
  2
DASHED
 70
0
  3
Dashed __ __ __ __ __ __ __ __ __ __ __ __ __ _
 72
65
 73
2
 40
0.6
 49
0.5
 49
-0.1
  0
LTYPE
  2
DASHEDX2
 70
0
  3
Dashed (2x) ____  ____  ____  ____  ____  ____
 72
65
 73
2
 40
1.2
 49
1.0
 49
-0.2
  0
LTYPE
  2
DASHED2
 70
0
  3
Dashed (.5x) _ _ _ _ _ _ _ _ _ _ _ _ _ _
 72
65
 73
2
 40
0.3
 49
0.25
 49
-0.05
  0
LTYPE
  2
PHANTOM
 70
0
  3
Phantom ______  __  __  ______  __  __  ______
 72
65
 73
6
 40
2.5
 49
1.25
 49
-0.25
 49
0.25
 49
-0.25
 49
0.25
 49
-0.25
  0
LTYPE
  2
PHANTOMX2
 70
0
  3
Phantom (2x)____________    ____    ____    ____________
 72
65
 73
6
 40
4.25
 49
2.5
 49
-0.25
 49
0.5
 49
-0.25
 49
0.5
 49
-0.25
  0
LTYPE
  2
PHANTOM2
 70
0
  3
Phantom (.5x) ___ _ _ ___ _ _ ___ _ _ ___ _ _ ___
 72
65
 73
6
 40
1.25
 49
0.625
 49
-0.125
 49
0.125
 49
-0.125
 49
0.125
 49
-0.125
  0
LTYPE
  2
DASHDOT
 70
0
  3
Dash dot __ . __ . __ . __ . __ . __ . __ . __
 72
65
 73
4
 40
1.4
 49
1.0
 49
-0.2
 49
0.0
 49
-0.2
  0
LTYPE
  2
DASHDOTX2
 70
0
  3
Dash dot (2x) ____  .  ____  .  ____  .  ____
 72
65
 73
4
 40
2.4
 49
2.0
 49
-0.2
 49
0.0
 49
-0.2
  0
LTYPE
  2
DASHDOT2
 70
0
  3
Dash dot (.5x) _ . _ . _ . _ . _ . _ . _ . _
 72
65
 73
4
 40
0.7
 49
0.5
 49
-0.1
 49
0.0
 49
-0.1
  0
LTYPE
  2
DOT
 70
0
  3
Dot .  .  .  .  .  .  .  .  .  .  .  .  .  .  .  .
 72
65
 73
2
 40
0.2
 49
0.0
 49
-0.2
  0
LTYPE
  2
DOTX2
 70
0
  3
Dot (2x) .    .    .    .    .    .    .    . 
 72
65
 73
2
 40
0.4
 49
0.0
 49
-0.4
  0
LTYPE
  2
DOT2
 70
0
  3
Dot (.5) . . . . . . . . . . . . . . . . . . . 
 72
65
 73
2
 40
0.1
 49
0.0
 49
-0.1
  0
LTYPE
  2
DIVIDE
 70
0
  3
Divide __ . . __ . . __ . . __ . . __ . . __
 72
65
 73
6
 40
1.6
 49
1.0
 49
-0.2
 49
0.0
 49
-0.2
 49
0.0
 49
-0.2
  0
LTYPE
  2
DIVIDEX2
 70
0
  3
Divide (2x) ____  . .  ____  . .  ____  . .  ____
 72
65
 73
6
 40
2.6
 49
2.0
 49
-0.2
 49
0.0
 49
-0.2
 49
0.0
 49
-0.2
  0
LTYPE
  2
DIVIDE2
 70
0
  3
Divide(.5x) _ . _ . _ . _ . _ . _ . _ . _
 72
65
 73
6
 40
0.8
 49
0.5
 49
-0.1
 49
0.0
 49
-0.1
 49
0.0
 49
-0.1
  0
ENDTAB
  0
TABLE
  2
LAYER
 70
5
  0
LAYER
  2
DIMENSIONS
 70
0
 62
1
  6
CONTINUOUS
  0
LAYER
  2
TABLEBACKGROUND
 70
0
 62
1
  6
CONTINUOUS
  0
LAYER
  2
TABLECONTENT
 70
0
 62
1
  6
CONTINUOUS
  0
LAYER
  2
TABLEGRID
 70
0
 62
1
  6
CONTINUOUS
  0
LAYER
  2
VIEWPORTS
 70
0
 62
7
  6
CONTINUOUS
  0
ENDTAB
  0
TABLE
  2
STYLE
 70
12
  0
STYLE
  2
STANDARD
 70
0
 40
0.0
 41
1.0
 42
1.0
 50
0.0
 71
0
  3
arial.ttf
  4

  0
STYLE
  2
ARIAL
 70
0
 40
0.0
 41
1.0
 42
1.0
 50
0.0
 71
0
  3
arial.ttf
  4

  0
STYLE
  2
ARIAL_BOLD
 70
0
 40
0.0
 41
1.0
 42
1.0
 50
0.0
 71
0
  3
arialbd.ttf
  4

  0
STYLE
  2
ARIAL_ITALIC
 70
0
 40
0.0
 41
1.0
 42
1.0
 50
0.0
 71
0
  3
ariali.ttf
  4

  0
STYLE
  2
ARIAL_BOLD_ITALIC
 70
0
 40
0.0
 41
1.0
 42
1.0
 50
0.0
 71
0
  3
arialbi.ttf
  4

  0
STYLE
  2
ARIAL_BLACK
 70
0
 40
0.0
 41
1.0
 42
1.0
 50
0.0
 71
0
  3
ariblk.ttf
  4

  0
STYLE
  2
ISOCPEUR
 70
0
 40
0.0
 41
1.0
 42
1.0
 50
0.0
 71
0
  3
isocpeur.ttf
  4

  0
STYLE
  2
ISOCPEUR_ITALIC
 70
0
 40
0.0
 41
1.0
 42
1.0
 50
0.0
 71
0
  3
isocpeui.ttf
  4

  0
STYLE
  2
TIMES
 70
0
 40
0.0
 41
1.0
 42
1.0
 50
0.0
 71
0
  3
times.ttf
  4

  0
STYLE
  2
TIMES_BOLD
 70
0
 40
0.0
 41
1.0
 42
1.0
 50
0.0
 71
0
  3
timesbd.ttf
  4

  0
STYLE
  2
TIMES_ITALIC
 70
0
 40
0.0
 41
1.0
 42
1.0
 50
0.0
 71
0
  3
timesi.ttf
  4

  0
STYLE
  2
TIMES_BOLD_ITALIC
 70
0
 40
0.0
 41
1.0
 42
1.0
 50
0.0
 71
0
  3
timesbi.ttf
  4

  0
ENDTAB
  0
TABLE
  2
VIEW
 70
0
  0
ENDTAB
  0
TABLE
  2
APPID
 70
1
  0
APPID
  2
DXFWRITE
 70
0
  0
ENDTAB
  0
TABLE
  2
VPORT
 70
0
  0
ENDTAB
  0
TABLE
  2
UCS
 70
0
  0
ENDTAB
  0
ENDSEC
  0
SECTION
  2
BLOCKS
  0
BLOCK
  8
0
  2
DIMTICK_ARCH
  3
DIMTICK_ARCH
 70
0
 10
0.0
 20
0.0
 30
0.0
  0
LINE
 62
5
  8
0
 10
0.0
 20
0.5
 30
0.0
 11
0.0
 21
-0.5
 31
0.0
  0
LINE
 62
4
  8
0
 10
-0.2
 20
-0.2
 30
0.0
 11
0.2
 21
0.2
 31
0.0
  0
ENDBLK
  0
BLOCK
  8
0
  2
DIMTICK_DOT
  3
DIMTICK_DOT
 70
0
 10
0.0
 20
0.0
 30
0.0
  0
LINE
 62
5
  8
0
 10
0.0
 20
0.5
 30
0.0
 11
0.0
 21
-0.5
 31
0.0
  0
CIRCLE
 62
4
  8
0
 10
0.0
 20
0.0
 30
0.0
 40
0.1
  0
ENDBLK
  0
BLOCK
  8
0
  2
DIMTICK_ARROW
  3
DIMTICK_ARROW
 70
0
 10
0.0
 20
0.0
 30
0.0
  0
LINE
 62
5
  8
0
 10
0.0
 20
0.5
 30
0.0
 11
0.0
 21
-0.5
 31
0.0
  0
SOLID
 62
7
  8
0
 10
0.0
 20
0.0
 30
0.0
 11
0.3
 21
0.05
 31
0.0
 13
0.3
 23
-0.05
 33
0.0
 12
0.3
 22
-0.05
 32
0.0
  0
ENDBLK
  0
BLOCK
  8
0
  2
DIMTICK_RADIUS
  3
DIMTICK_RADIUS
 70
0
 10
0.0
 20
0.0
 30
0.0
  0
SOLID
 62
7
  8
0
 10
0.0
 20
0.0
 30
0.0
 11
0.3
 21
0.05
 31
0.0
 13
0.25
 23
0.0
 33
0.0
 12
0.3
 22
-0.05
 32
0.0
  0
ENDBLK
  0
ENDSEC
  0
SECTION
  2
ENTITIES
  0
VIEWPORT
  8
VIEWPORTS
 67
1
 10
0.0
 20
0.0
 30
0.0
 40
1.0
 41
1.0
 68
1
 69
1
1001
ACAD
1000
MVIEW
1002
{
1070
16
1010
0.0
1020
0.0
1030
0.0
1010
0.0
1020
0.0
1030
0.0
1040
0.0
1040
1.0
1040
0.0
1040
0.0
1040
50.0
1040
0.0
1040
0.0
1070
0
1070
100
1070
1
1070
3
1070
0
1070
0
1070
0
1070
0
1040
0.0
1040
0.0
1040
0.0
1040
0.1
1040
0.1
1040
0.1
1040
0.1
1070
0
1002
{
1002
}
1002
}
  0
LINE
 62
3
  8
0
 10
1.5527170068636433
 20
2.18907643590612
 30
0.0
 11
1.9599870414508285
 21
2.18907643590612
 31
0.0
  0
LINE
 62
7
  8
DIMENSIONS
 10
1.5527170068636433
 20
2.135743102572787
 30
0.0
 11
1.9599870414508285
 21
2.135743102572787
 31
0.0
  0
LINE
 62
5
  8
DIMENSIONS
 10
1.5527170068636433
 20
2.135743102572787
 30
0.0
 11
1.5527170068636433
 21
2.18907643590612
 31
0.0
  0
LINE
 62
5
  8
DIMENSIONS
 10
1.9599870414508285
 20
2.135743102572787
 30
0.0
 11
1.9599870414508285
 21
2.18907643590612
 31
0.0
  0
TEXT
 62
7
  8
DIMENSIONS
 10
1.756352024157236
 20
2.435743102572787
 30
0.0
 40
0.2
  1
0
 50
-0.0
  7
ISOCPEUR
 72
1
 73
2
 11
1.756352024157236
 21
2.435743102572787
 31
0.0
  0
INSERT
  8
DIMENSIONS
  2
DIMTICK_ARROW
 10
1.5527170068636433
 20
2.135743102572787
 30
0.0
 41
1.0
 42
1.0
 50
0.0
  0
INSERT
  8
DIMENSIONS
  2
DIMTICK_ARROW
 10
1.9599870414508285
 20
2.135743102572787
 30
0.0
 41
1.0
 42
1.0
 50
180.0
  0
LINE
 62
7
  8
DIMENSIONS
 10
1.5527170068636433
 20
2.135743102572787
 30
0.0
 11
1.9599870414508285
 21
2.135743102572787
 31
0.0
  0
LINE
 62
5
  8
DIMENSIONS
 10
1.5527170068636433
 20
2.135743102572787
 30
0.0
 11
1.5527170068636433
 21
2.18907643590612
 31
0.0
  0
LINE
 62
5
  8
DIMENSIONS
 10
1.9599870414508285
 20
2.135743102572787
 30
0.0
 11
1.9599870414508285
 21
2.18907643590612
 31
0.0
  0
TEXT
 62
7
  8
DIMENSIONS
 10
1.756352024157236
 20
2.435743102572787
 30
0.0
 40
0.2
  1
0
 50
-0.0
  7
ISOCPEUR
 72
1
 73
2
 11
1.756352024157236
 21
2.435743102572787
 31
0.0
  0
INSERT
  8
DIMENSIONS
  2
DIMTICK_ARROW
 10
1.5527170068636433
 20
2.135743102572787
 30
0.0
 41
1.0
 42
1.0
 50
0.0
  0
INSERT
  8
DIMENSIONS
  2
DIMTICK_ARROW
 10
1.9599870414508285
 20
2.135743102572787
 30
0.0
 41
1.0
 42
1.0
 50
180.0
  0
LINE
 62
7
  8
DIMENSIONS
 10
1.5527170068636433
 20
2.135743102572787
 30
0.0
 11
1.9599870414508285
 21
2.135743102572787
 31
0.0
  0
LINE
 62
5
  8
DIMENSIONS
 10
1.5527170068636433
 20
2.135743102572787
 30
0.0
 11
1.5527170068636433
 21
2.18907643590612
 31
0.0
  0
LINE
 62
5
  8
DIMENSIONS
 10
1.9599870414508285
 20
2.135743102572787
 30
0.0
 11
1.9599870414508285
 21
2.18907643590612
 31
0.0
  0
TEXT
 62
7
  8
DIMENSIONS
 10
1.756352024157236
 20
2.435743102572787
 30
0.0
 40
0.2
  1
0
 50
-0.0
  7
ISOCPEUR
 72
1
 73
2
 11
1.756352024157236
 21
2.435743102572787
 31
0.0
  0
INSERT
  8
DIMENSIONS
  2
DIMTICK_ARROW
 10
1.5527170068636433
 20
2.135743102572787
 30
0.0
 41
1.0
 42
1.0
 50
0.0
  0
INSERT
  8
DIMENSIONS
  2
DIMTICK_ARROW
 10
1.9599870414508285
 20
2.135743102572787
 30
0.0
 41
1.0
 42
1.0
 50
180.0
  0
LINE
 62
7
  8
DIMENSIONS
 10
1.5527170068636433
 20
2.135743102572787
 30
0.0
 11
1.9599870414508285
 21
2.135743102572787
 31
0.0
  0
LINE
 62
5
  8
DIMENSIONS
 10
1.5527170068636433
 20
2.135743102572787
 30
0.0
 11
1.5527170068636433
 21
2.18907643590612
 31
0.0
  0
LINE
 62
5
  8
DIMENSIONS
 10
1.9599870414508285
 20
2.135743102572787
 30
0.0
 11
1.9599870414508285
 21
2.18907643590612
 31
0.0
  0
TEXT
 62
7
  8
DIMENSIONS
 10
1.756352024157236
 20
2.435743102572787
 30
0.0
 40
0.2
  1
0
 50
-0.0
  7
ISOCPEUR
 72
1
 73
2
 11
1.756352024157236
 21
2.435743102572787
 31
0.0
  0
INSERT
  8
DIMENSIONS
  2
DIMTICK_ARROW
 10
1.5527170068636433
 20
2.135743102572787
 30
0.0
 41
1.0
 42
1.0
 50
0.0
  0
INSERT
  8
DIMENSIONS
  2
DIMTICK_ARROW
 10
1.9599870414508285
 20
2.135743102572787
 30
0.0
 41
1.0
 42
1.0
 50
180.0
  0
LINE
 62
7
  8
DIMENSIONS
 10
1.5527170068636433
 20
2.135743102572787
 30
0.0
 11
1.9599870414508285
 21
2.135743102572787
 31
0.0
  0
LINE
 62
5
  8
DIMENSIONS
 10
1.5527170068636433
 20
2.135743102572787
 30
0.0
 11
1.5527170068636433
 21
2.18907643590612
 31
0.0
  0
LINE
 62
5
  8
DIMENSIONS
 10
1.9599870414508285
 20
2.135743102572787
 30
0.0
 11
1.9599870414508285
 21
2.18907643590612
 31
0.0
  0
TEXT
 62
7
  8
DIMENSIONS
 10
1.756352024157236
 20
2.435743102572787
 30
0.0
 40
0.2
  1
0
 50
-0.0
  7
ISOCPEUR
 72
1
 73
2
 11
1.756352024157236
 21
2.435743102572787
 31
0.0
  0
INSERT
  8
DIMENSIONS
  2
DIMTICK_ARROW
 10
1.5527170068636433
 20
2.135743102572787
 30
0.0
 41
1.0
 42
1.0
 50
0.0
  0
INSERT
  8
DIMENSIONS
  2
DIMTICK_ARROW
 10
1.9599870414508285
 20
2.135743102572787
 30
0.0
 41
1.0
 42
1.0
 50
180.0
  0
LINE
 62
7
  8
DIMENSIONS
 10
1.5527170068636433
 20
2.135743102572787
 30
0.0
 11
1.9599870414508285
 21
2.135743102572787
 31
0.0
  0
LINE
 62
5
  8
DIMENSIONS
 10
1.5527170068636433
 20
2.135743102572787
 30
0.0
 11
1.5527170068636433
 21
2.18907643590612
 31
0.0
  0
LINE
 62
5
  8
DIMENSIONS
 10
1.9599870414508285
 20
2.135743102572787
 30
0.0
 11
1.9599870414508285
 21
2.18907643590612
 31
0.0
  0
TEXT
 62
7
  8
DIMENSIONS
 10
1.756352024157236
 20
2.435743102572787
 30
0.0
 40
0.2
  1
0
 50
-0.0
  7
ISOCPEUR
 72
1
 73
2
 11
1.756352024157236
 21
2.435743102572787
 31
0.0
  0
INSERT
  8
DIMENSIONS
  2
DIMTICK_ARROW
 10
1.5527170068636433
 20
2.135743102572787
 30
0.0
 41
1.0
 42
1.0
 50
0.0
  0
INSERT
  8
DIMENSIONS
  2
DIMTICK_ARROW
 10
1.9599870414508285
 20
2.135743102572787
 30
0.0
 41
1.0
 42
1.0
 50
180.0
  0
LINE
 62
7
  8
DIMENSIONS
 10
1.5527170068636433
 20
2.135743102572787
 30
0.0
 11
1.9599870414508285
 21
2.135743102572787
 31
0.0
  0
LINE
 62
5
  8
DIMENSIONS
 10
1.5527170068636433
 20
2.135743102572787
 30
0.0
 11
1.5527170068636433
 21
2.18907643590612
 31
0.0
  0
LINE
 62
5
  8
DIMENSIONS
 10
1.9599870414508285
 20
2.135743102572787
 30
0.0
 11
1.9599870414508285
 21
2.18907643590612
 31
0.0
  0
TEXT
 62
7
  8
DIMENSIONS
 10
1.756352024157236
 20
2.435743102572787
 30
0.0
 40
0.2
  1
0
 50
-0.0
  7
ISOCPEUR
 72
1
 73
2
 11
1.756352024157236
 21
2.435743102572787
 31
0.0
  0
INSERT
  8
DIMENSIONS
  2
DIMTICK_ARROW
 10
1.5527170068636433
 20
2.135743102572787
 30
0.0
 41
1.0
 42
1.0
 50
0.0
  0
INSERT
  8
DIMENSIONS
  2
DIMTICK_ARROW
 10
1.9599870414508285
 20
2.135743102572787
 30
0.0
 41
1.0
 42
1.0
 50
180.0
  0
LINE
 62
7
  8
DIMENSIONS
 10
1.5527170068636433
 20
2.135743102572787
 30
0.0
 11
1.9599870414508285
 21
2.135743102572787
 31
0.0
  0
LINE
 62
5
  8
DIMENSIONS
 10
1.5527170068636433
 20
2.135743102572787
 30
0.0
 11
1.5527170068636433
 21
2.18907643590612
 31
0.0
  0
LINE
 62
5
  8
DIMENSIONS
 10
1.9599870414508285
 20
2.135743102572787
 30
0.0
 11
1.9599870414508285
 21
2.18907643590612
 31
0.0
  0
TEXT
 62
7
  8
DIMENSIONS
 10
1.756352024157236
 20
2.435743102572787
 30
0.0
 40
0.2
  1
0
 50
-0.0
  7
ISOCPEUR
 72
1
 73
2
 11
1.756352024157236
 21
2.435743102572787
 31
0.0
  0
INSERT
  8
DIMENSIONS
  2
DIMTICK_ARROW
 10
1.5527170068636433
 20
2.135743102572787
 30
0.0
 41
1.0
 42
1.0
 50
0.0
  0
INSERT
  8
DIMENSIONS
  2
DIMTICK_ARROW
 10
1.9599870414508285
 20
2.135743102572787
 30
0.0
 41
1.0
 42
1.0
 50
180.0
  0
LINE
 62
7
  8
DIMENSIONS
 10
1.5527170068636433
 20
2.135743102572787
 30
0.0
 11
1.9599870414508285
 21
2.135743102572787
 31
0.0
  0
LINE
 62
5
  8
DIMENSIONS
 10
1.5527170068636433
 20
2.135743102572787
 30
0.0
 11
1.5527170068636433
 21
2.18907643590612
 31
0.0
  0
LINE
 62
5
  8
DIMENSIONS
 10
1.9599870414508285
 20
2.135743102572787
 30
0.0
 11
1.9599870414508285
 21
2.18907643590612
 31
0.0
  0
TEXT
 62
7
  8
DIMENSIONS
 10
1.756352024157236
 20
2.435743102572787
 30
0.0
 40
0.2
  1
0
 50
-0.0
  7
ISOCPEUR
 72
1
 73
2
 11
1.756352024157236
 21
2.435743102572787
 31
0.0
  0
INSERT
  8
DIMENSIONS
  2
DIMTICK_ARROW
 10
1.5527170068636433
 20
2.135743102572787
 30
0.0
 41
1.0
 42
1.0
 50
0.0
  0
INSERT
  8
DIMENSIONS
  2
DIMTICK_ARROW
 10
1.9599870414508285
 20
2.135743102572787
 30
0.0
 41
1.0
 42
1.0
 50
180.0
  0
LINE
 62
7
  8
DIMENSIONS
 10
1.5527170068636433
 20
2.135743102572787
 30
0.0
 11
1.9599870414508285
 21
2.135743102572787
 31
0.0
  0
LINE
 62
5
  8
DIMENSIONS
 10
1.5527170068636433
 20
2.135743102572787
 30
0.0
 11
1.5527170068636433
 21
2.18907643590612
 31
0.0
  0
LINE
 62
5
  8
DIMENSIONS
 10
1.9599870414508285
 20
2.135743102572787
 30
0.0
 11
1.9599870414508285
 21
2.18907643590612
 31
0.0
  0
TEXT
 62
7
  8
DIMENSIONS
 10
1.756352024157236
 20
2.435743102572787
 30
0.0
 40
0.2
  1
0
 50
-0.0
  7
ISOCPEUR
 72
1
 73
2
 11
1.756352024157236
 21
2.435743102572787
 31
0.0
  0
INSERT
  8
DIMENSIONS
  2
DIMTICK_ARROW
 10
1.5527170068636433
 20
2.135743102572787
 30
0.0
 41
1.0
 42
1.0
 50
0.0
  0
INSERT
  8
DIMENSIONS
  2
DIMTICK_ARROW
 10
1.9599870414508285
 20
2.135743102572787
 30
0.0
 41
1.0
 42
1.0
 50
180.0
  0
LINE
 62
7
  8
DIMENSIONS
 10
1.5527170068636433
 20
2.135743102572787
 30
0.0
 11
1.9599870414508285
 21
2.135743102572787
 31
0.0
  0
LINE
 62
5
  8
DIMENSIONS
 10
1.5527170068636433
 20
2.135743102572787
 30
0.0
 11
1.5527170068636433
 21
2.18907643590612
 31
0.0
  0
LINE
 62
5
  8
DIMENSIONS
 10
1.9599870414508285
 20
2.135743102572787
 30
0.0
 11
1.9599870414508285
 21
2.18907643590612
 31
0.0
  0
TEXT
 62
7
  8
DIMENSIONS
 10
1.756352024157236
 20
2.435743102572787
 30
0.0
 40
0.2
  1
0
 50
-0.0
  7
ISOCPEUR
 72
1
 73
2
 11
1.756352024157236
 21
2.435743102572787
 31
0.0
  0
INSERT
  8
DIMENSIONS
  2
DIMTICK_ARROW
 10
1.5527170068636433
 20
2.135743102572787
 30
0.0
 41
1.0
 42
1.0
 50
0.0
  0
INSERT
  8
DIMENSIONS
  2
DIMTICK_ARROW
 10
1.9599870414508285
 20
2.135743102572787
 30
0.0
 41
1.0
 42
1.0
 50
180.0
  0
LINE
 62
7
  8
DIMENSIONS
 10
1.5527170068636433
 20
2.135743102572787
 30
0.0
 11
1.9599870414508285
 21
2.135743102572787
 31
0.0
  0
LINE
 62
5
  8
DIMENSIONS
 10
1.5527170068636433
 20
2.135743102572787
 30
0.0
 11
1.5527170068636433
 21
2.18907643590612
 31
0.0
  0
LINE
 62
5
  8
DIMENSIONS
 10
1.9599870414508285
 20
2.135743102572787
 30
0.0
 11
1.9599870414508285
 21
2.18907643590612
 31
0.0
  0
TEXT
 62
7
  8
DIMENSIONS
 10
1.756352024157236
 20
2.435743102572787
 30
0.0
 40
0.2
  1
0
 50
-0.0
  7
ISOCPEUR
 72
1
 73
2
 11
1.756352024157236
 21
2.435743102572787
 31
0.0
  0
INSERT
  8
DIMENSIONS
  2
DIMTICK_ARROW
 10
1.5527170068636433
 20
2.135743102572787
 30
0.0
 41
1.0
 42
1.0
 50
0.0
  0
INSERT
  8
DIMENSIONS
  2
DIMTICK_ARROW
 10
1.9599870414508285
 20
2.135743102572787
 30
0.0
 41
1.0
 42
1.0
 50
180.0
  0
LINE
 62
7
  8
DIMENSIONS
 10
1.5527170068636433
 20
2.135743102572787
 30
0.0
 11
1.9599870414508285
 21
2.135743102572787
 31
0.0
  0
LINE
 62
5
  8
DIMENSIONS
 10
1.5527170068636433
 20
2.135743102572787
 30
0.0
 11
1.5527170068636433
 21
2.18907643590612
 31
0.0
  0
LINE
 62
5
  8
DIMENSIONS
 10
1.9599870414508285
 20
2.135743102572787
 30
0.0
 11
1.9599870414508285
 21
2.18907643590612
 31
0.0
  0
TEXT
 62
7
  8
DIMENSIONS
 10
1.756352024157236
 20
2.435743102572787
 30
0.0
 40
0.2
  1
0
 50
-0.0
  7
ISOCPEUR
 72
1
 73
2
 11
1.756352024157236
 21
2.435743102572787
 31
0.0
  0
INSERT
  8
DIMENSIONS
  2
DIMTICK_ARROW
 10
1.5527170068636433
 20
2.135743102572787
 30
0.0
 41
1.0
 42
1.0
 50
0.0
  0
INSERT
  8
DIMENSIONS
  2
DIMTICK_ARROW
 10
1.9599870414508285
 20
2.135743102572787
 30
0.0
 41
1.0
 42
1.0
 50
180.0
  0
LINE
 62
7
  8
DIMENSIONS
 10
1.5527170068636433
 20
2.135743102572787
 30
0.0
 11
1.9599870414508285
 21
2.135743102572787
 31
0.0
  0
LINE
 62
5
  8
DIMENSIONS
 10
1.5527170068636433
 20
2.135743102572787
 30
0.0
 11
1.5527170068636433
 21
2.18907643590612
 31
0.0
  0
LINE
 62
5
  8
DIMENSIONS
 10
1.9599870414508285
 20
2.135743102572787
 30
0.0
 11
1.9599870414508285
 21
2.18907643590612
 31
0.0
  0
TEXT
 62
7
  8
DIMENSIONS
 10
1.756352024157236
 20
2.435743102572787
 30
0.0
 40
0.2
  1
0
 50
-0.0
  7
ISOCPEUR
 72
1
 73
2
 11
1.756352024157236
 21
2.435743102572787
 31
0.0
  0
INSERT
  8
DIMENSIONS
  2
DIMTICK_ARROW
 10
1.5527170068636433
 20
2.135743102572787
 30
0.0
 41
1.0
 42
1.0
 50
0.0
  0
INSERT
  8
DIMENSIONS
  2
DIMTICK_ARROW
 10
1.9599870414508285
 20
2.135743102572787
 30
0.0
 41
1.0
 42
1.0
 50
180.0
  0
LINE
 62
7
  8
DIMENSIONS
 10
1.5527170068636433
 20
2.135743102572787
 30
0.0
 11
1.9599870414508285
 21
2.135743102572787
 31
0.0
  0
LINE
 62
5
  8
DIMENSIONS
 10
1.5527170068636433
 20
2.135743102572787
 30
0.0
 11
1.5527170068636433
 21
2.18907643590612
 31
0.0
  0
LINE
 62
5
  8
DIMENSIONS
 10
1.9599870414508285
 20
2.135743102572787
 30
0.0
 11
1.9599870414508285
 21
2.18907643590612
 31
0.0
  0
TEXT
 62
7
  8
DIMENSIONS
 10
1.756352024157236
 20
2.435743102572787
 30
0.0
 40
0.2
  1
0
 50
-0.0
  7
ISOCPEUR
 72
1
 73
2
 11
1.756352024157236
 21
2.435743102572787
 31
0.0
  0
INSERT
  8
DIMENSIONS
  2
DIMTICK_ARROW
 10
1.5527170068636433
 20
2.135743102572787
 30
0.0
 41
1.0
 42
1.0
 50
0.0
  0
INSERT
  8
DIMENSIONS
  2
DIMTICK_ARROW
 10
1.9599870414508285
 20
2.135743102572787
 30
0.0
 41
1.0
 42
1.0
 50
180.0
  0
LINE
 62
7
  8
DIMENSIONS
 10
1.5527170068636433
 20
2.135743102572787
 30
0.0
 11
1.9599870414508285
 21
2.135743102572787
 31
0.0
  0
LINE
 62
5
  8
DIMENSIONS
 10
1.5527170068636433
 20
2.135743102572787
 30
0.0
 11
1.5527170068636433
 21
2.18907643590612
 31
0.0
  0
LINE
 62
5
  8
DIMENSIONS
 10
1.9599870414508285
 20
2.135743102572787
 30
0.0
 11
1.9599870414508285
 21
2.18907643590612
 31
0.0
  0
TEXT
 62
7
  8
DIMENSIONS
 10
1.756352024157236
 20
2.435743102572787
 30
0.0
 40
0.2
  1
0
 50
-0.0
  7
ISOCPEUR
 72
1
 73
2
 11
1.756352024157236
 21
2.435743102572787
 31
0.0
  0
INSERT
  8
DIMENSIONS
  2
DIMTICK_ARROW
 10
1.5527170068636433
 20
2.135743102572787
 30
0.0
 41
1.0
 42
1.0
 50
0.0
  0
INSERT
  8
DIMENSIONS
  2
DIMTICK_ARROW
 10
1.9599870414508285
 20
2.135743102572787
 30
0.0
 41
1.0
 42
1.0
 50
180.0
  0
LINE
 62
7
  8
DIMENSIONS
 10
1.5527170068636433
 20
2.135743102572787
 30
0.0
 11
1.9599870414508285
 21
2.135743102572787
 31
0.0
  0
LINE
 62
5
  8
DIMENSIONS
 10
1.5527170068636433
 20
2.135743102572787
 30
0.0
 11
1.5527170068636433
 21
2.18907643590612
 31
0.0
  0
LINE
 62
5
  8
DIMENSIONS
 10
1.9599870414508285
 20
2.135743102572787
 30
0.0
 11
1.9599870414508285
 21
2.18907643590612
 31
0.0
  0
TEXT
 62
7
  8
DIMENSIONS
 10
1.756352024157236
 20
2.435743102572787
 30
0.0
 40
0.2
  1
0
 50
-0.0
  7
ISOCPEUR
 72
1
 73
2
 11
1.756352024157236
 21
2.435743102572787
 31
0.0
  0
INSERT
  8
DIMENSIONS
  2
DIMTICK_ARROW
 10
1.5527170068636433
 20
2.135743102572787
 30
0.0
 41
1.0
 42
1.0
 50
0.0
  0
INSERT
  8
DIMENSIONS
  2
DIMTICK_ARROW
 10
1.9599870414508285
 20
2.135743102572787
 30
0.0
 41
1.0
 42
1.0
 50
180.0
  0
LINE
 62
7
  8
DIMENSIONS
 10
1.5527170068636433
 20
2.135743102572787
 30
0.0
 11
1.9599870414508285
 21
2.135743102572787
 31
0.0
  0
LINE
 62
5
  8
DIMENSIONS
 10
1.5527170068636433
 20
2.135743102572787
 30
0.0
 11
1.5527170068636433
 21
2.18907643590612
 31
0.0
  0
LINE
 62
5
  8
DIMENSIONS
 10
1.9599870414508285
 20
2.135743102572787
 30
0.0
 11
1.9599870414508285
 21
2.18907643590612
 31
0.0
  0
TEXT
 62
7
  8
DIMENSIONS
 10
1.756352024157236
 20
2.435743102572787
 30
0.0
 40
0.2
  1
0
 50
-0.0
  7
ISOCPEUR
 72
1
 73
2
 11
1.756352024157236
 21
2.435743102572787
 31
0.0
  0
INSERT
  8
DIMENSIONS
  2
DIMTICK_ARROW
 10
1.5527170068636433
 20
2.135743102572787
 30
0.0
 41
1.0
 42
1.0
 50
0.0
  0
INSERT
  8
DIMENSIONS
  2
DIMTICK_ARROW
 10
1.9599870414508285
 20
2.135743102572787
 30
0.0
 41
1.0
 42
1.0
 50
180.0
  0
LINE
 62
7
  8
DIMENSIONS
 10
1.5527170068636433
 20
2.135743102572787
 30
0.0
 11
1.9599870414508285
 21
2.135743102572787
 31
0.0
  0
LINE
 62
5
  8
DIMENSIONS
 10
1.5527170068636433
 20
2.135743102572787
 30
0.0
 11
1.5527170068636433
 21
2.18907643590612
 31
0.0
  0
LINE
 62
5
  8
DIMENSIONS
 10
1.9599870414508285
 20
2.135743102572787
 30
0.0
 11
1.9599870414508285
 21
2.18907643590612
 31
0.0
  0
TEXT
 62
7
  8
DIMENSIONS
 10
1.756352024157236
 20
2.435743102572787
 30
0.0
 40
0.2
  1
0
 50
-0.0
  7
ISOCPEUR
 72
1
 73
2
 11
1.756352024157236
 21
2.435743102572787
 31
0.0
  0
INSERT
  8
DIMENSIONS
  2
DIMTICK_ARROW
 10
1.5527170068636433
 20
2.135743102572787
 30
0.0
 41
1.0
 42
1.0
 50
0.0
  0
INSERT
  8
DIMENSIONS
  2
DIMTICK_ARROW
 10
1.9599870414508285
 20
2.135743102572787
 30
0.0
 41
1.0
 42
1.0
 50
180.0
  0
LINE
 62
7
  8
DIMENSIONS
 10
1.5527170068636433
 20
2.135743102572787
 30
0.0
 11
1.9599870414508285
 21
2.135743102572787
 31
0.0
  0
LINE
 62
5
  8
DIMENSIONS
 10
1.5527170068636433
 20
2.135743102572787
 30
0.0
 11
1.5527170068636433
 21
2.18907643590612
 31
0.0
  0
LINE
 62
5
  8
DIMENSIONS
 10
1.9599870414508285
 20
2.135743102572787
 30
0.0
 11
1.9599870414508285
 21
2.18907643590612
 31
0.0
  0
TEXT
 62
7
  8
DIMENSIONS
 10
1.756352024157236
 20
2.435743102572787
 30
0.0
 40
0.2
  1
0
 50
-0.0
  7
ISOCPEUR
 72
1
 73
2
 11
1.756352024157236
 21
2.435743102572787
 31
0.0
  0
INSERT
  8
DIMENSIONS
  2
DIMTICK_ARROW
 10
1.5527170068636433
 20
2.135743102572787
 30
0.0
 41
1.0
 42
1.0
 50
0.0
  0
INSERT
  8
DIMENSIONS
  2
DIMTICK_ARROW
 10
1.9599870414508285
 20
2.135743102572787
 30
0.0
 41
1.0
 42
1.0
 50
180.0
  0
LINE
 62
7
  8
DIMENSIONS
 10
1.5527170068636433
 20
2.135743102572787
 30
0.0
 11
1.9599870414508285
 21
2.135743102572787
 31
0.0
  0
LINE
 62
5
  8
DIMENSIONS
 10
1.5527170068636433
 20
2.135743102572787
 30
0.0
 11
1.5527170068636433
 21
2.18907643590612
 31
0.0
  0
LINE
 62
5
  8
DIMENSIONS
 10
1.9599870414508285
 20
2.135743102572787
 30
0.0
 11
1.9599870414508285
 21
2.18907643590612
 31
0.0
  0
TEXT
 62
7
  8
DIMENSIONS
 10
1.756352024157236
 20
2.435743102572787
 30
0.0
 40
0.2
  1
0
 50
-0.0
  7
ISOCPEUR
 72
1
 73
2
 11
1.756352024157236
 21
2.435743102572787
 31
0.0
  0
INSERT
  8
DIMENSIONS
  2
DIMTICK_ARROW
 10
1.5527170068636433
 20
2.135743102572787
 30
0.0
 41
1.0
 42
1.0
 50
0.0
  0
INSERT
  8
DIMENSIONS
  2
DIMTICK_ARROW
 10
1.9599870414508285
 20
2.135743102572787
 30
0.0
 41
1.0
 42
1.0
 50
180.0
  0
LINE
 62
7
  8
DIMENSIONS
 10
1.5527170068636433
 20
2.135743102572787
 30
0.0
 11
1.9599870414508285
 21
2.135743102572787
 31
0.0
  0
LINE
 62
5
  8
DIMENSIONS
 10
1.5527170068636433
 20
2.135743102572787
 30
0.0
 11
1.5527170068636433
 21
2.18907643590612
 31
0.0
  0
LINE
 62
5
  8
DIMENSIONS
 10
1.9599870414508285
 20
2.135743102572787
 30
0.0
 11
1.9599870414508285
 21
2.18907643590612
 31
0.0
  0
TEXT
 62
7
  8
DIMENSIONS
 10
1.756352024157236
 20
2.435743102572787
 30
0.0
 40
0.2
  1
0
 50
-0.0
  7
ISOCPEUR
 72
1
 73
2
 11
1.756352024157236
 21
2.435743102572787
 31
0.0
  0
INSERT
  8
DIMENSIONS
  2
DIMTICK_ARROW
 10
1.5527170068636433
 20
2.135743102572787
 30
0.0
 41
1.0
 42
1.0
 50
0.0
  0
INSERT
  8
DIMENSIONS
  2
DIMTICK_ARROW
 10
1.9599870414508285
 20
2.135743102572787
 30
0.0
 41
1.0
 42
1.0
 50
180.0
  0
LINE
 62
7
  8
DIMENSIONS
 10
1.5527170068636433
 20
2.135743102572787
 30
0.0
 11
1.9599870414508285
 21
2.135743102572787
 31
0.0
  0
LINE
 62
5
  8
DIMENSIONS
 10
1.5527170068636433
 20
2.135743102572787
 30
0.0
 11
1.5527170068636433
 21
2.18907643590612
 31
0.0
  0
LINE
 62
5
  8
DIMENSIONS
 10
1.9599870414508285
 20
2.135743102572787
 30
0.0
 11
1.9599870414508285
 21
2.18907643590612
 31
0.0
  0
TEXT
 62
7
  8
DIMENSIONS
 10
1.756352024157236
 20
2.435743102572787
 30
0.0
 40
0.2
  1
0
 50
-0.0
  7
ISOCPEUR
 72
1
 73
2
 11
1.756352024157236
 21
2.435743102572787
 31
0.0
  0
INSERT
  8
DIMENSIONS
  2
DIMTICK_ARROW
 10
1.5527170068636433
 20
2.135743102572787
 30
0.0
 41
1.0
 42
1.0
 50
0.0
  0
INSERT
  8
DIMENSIONS
  2
DIMTICK_ARROW
 10
1.9599870414508285
 20
2.135743102572787
 30
0.0
 41
1.0
 42
1.0
 50
180.0
  0
LINE
 62
7
  8
DIMENSIONS
 10
1.5527170068636433
 20
2.135743102572787
 30
0.0
 11
1.9599870414508285
 21
2.135743102572787
 31
0.0
  0
LINE
 62
5
  8
DIMENSIONS
 10
1.5527170068636433
 20
2.135743102572787
 30
0.0
 11
1.5527170068636433
 21
2.18907643590612
 31
0.0
  0
LINE
 62
5
  8
DIMENSIONS
 10
1.9599870414508285
 20
2.135743102572787
 30
0.0
 11
1.9599870414508285
 21
2.18907643590612
 31
0.0
  0
TEXT
 62
7
  8
DIMENSIONS
 10
1.756352024157236
 20
2.435743102572787
 30
0.0
 40
0.2
  1
0
 50
-0.0
  7
ISOCPEUR
 72
1
 73
2
 11
1.756352024157236
 21
2.435743102572787
 31
0.0
  0
INSERT
  8
DIMENSIONS
  2
DIMTICK_ARROW
 10
1.5527170068636433
 20
2.135743102572787
 30
0.0
 41
1.0
 42
1.0
 50
0.0
  0
INSERT
  8
DIMENSIONS
  2
DIMTICK_ARROW
 10
1.9599870414508285
 20
2.135743102572787
 30
0.0
 41
1.0
 42
1.0
 50
180.0
  0
LINE
 62
3
  8
0
 10
9.163575778211666
 20
4.963603546531319
 30
0.0
 11
10.181750864679628
 21
4.963603546531319
 31
0.0
  0
LINE
 62
7
  8
DIMENSIONS
 10
9.163575778211666
 20
4.830270213197985
 30
0.0
 11
10.181750864679628
 21
4.830270213197985
 31
0.0
  0
LINE
 62
5
  8
DIMENSIONS
 10
9.163575778211666
 20
4.830270213197985
 30
0.0
 11
9.163575778211666
 21
4.963603546531319
 31
0.0
  0
LINE
 62
5
  8
DIMENSIONS
 10
10.181750864679628
 20
4.830270213197985
 30
0.0
 11
10.181750864679628
 21
4.963603546531319
 31
0.0
  0
TEXT
 62
7
  8
DIMENSIONS
 10
9.672663321445647
 20
5.130270213197985
 30
0.0
 40
0.2
  1
1
 50
-0.0
  7
ISOCPEUR
 72
1
 73
2
 11
9.672663321445647
 21
5.130270213197985
 31
0.0
  0
INSERT
  8
DIMENSIONS
  2
DIMTICK_ARROW
 10
9.163575778211666
 20
4.830270213197985
 30
0.0
 41
1.0
 42
1.0
 50
0.0
  0
INSERT
  8
DIMENSIONS
  2
DIMTICK_ARROW
 10
10.181750864679628
 20
4.830270213197985
 30
0.0
 41
1.0
 42
1.0
 50
180.0
  0
LINE
 62
7
  8
DIMENSIONS
 10
9.163575778211666
 20
4.830270213197985
 30
0.0
 11
10.181750864679628
 21
4.830270213197985
 31
0.0
  0
LINE
 62
5
  8
DIMENSIONS
 10
9.163575778211666
 20
4.830270213197985
 30
0.0
 11
9.163575778211666
 21
4.963603546531319
 31
0.0
  0
LINE
 62
5
  8
DIMENSIONS
 10
10.181750864679628
 20
4.830270213197985
 30
0.0
 11
10.181750864679628
 21
4.963603546531319
 31
0.0
  0
TEXT
 62
7
  8
DIMENSIONS
 10
9.672663321445647
 20
5.130270213197985
 30
0.0
 40
0.2
  1
1
 50
-0.0
  7
ISOCPEUR
 72
1
 73
2
 11
9.672663321445647
 21
5.130270213197985
 31
0.0
  0
INSERT
  8
DIMENSIONS
  2
DIMTICK_ARROW
 10
9.163575778211666
 20
4.830270213197985
 30
0.0
 41
1.0
 42
1.0
 50
0.0
  0
INSERT
  8
DIMENSIONS
  2
DIMTICK_ARROW
 10
10.181750864679628
 20
4.830270213197985
 30
0.0
 41
1.0
 42
1.0
 50
180.0
  0
LINE
 62
7
  8
DIMENSIONS
 10
9.163575778211666
 20
4.830270213197985
 30
0.0
 11
10.181750864679628
 21
4.830270213197985
 31
0.0
  0
LINE
 62
5
  8
DIMENSIONS
 10
9.163575778211666
 20
4.830270213197985
 30
0.0
 11
9.163575778211666
 21
4.963603546531319
 31
0.0
  0
LINE
 62
5
  8
DIMENSIONS
 10
10.181750864679628
 20
4.830270213197985
 30
0.0
 11
10.181750864679628
 21
4.963603546531319
 31
0.0
  0
TEXT
 62
7
  8
DIMENSIONS
 10
9.672663321445647
 20
5.130270213197985
 30
0.0
 40
0.2
  1
1
 50
-0.0
  7
ISOCPEUR
 72
1
 73
2
 11
9.672663321445647
 21
5.130270213197985
 31
0.0
  0
INSERT
  8
DIMENSIONS
  2
DIMTICK_ARROW
 10
9.163575778211666
 20
4.830270213197985
 30
0.0
 41
1.0
 42
1.0
 50
0.0
  0
INSERT
  8
DIMENSIONS
  2
DIMTICK_ARROW
 10
10.181750864679628
 20
4.830270213197985
 30
0.0
 41
1.0
 42
1.0
 50
180.0
  0
LINE
 62
7
  8
DIMENSIONS
 10
9.163575778211666
 20
4.830270213197985
 30
0.0
 11
10.181750864679628
 21
4.830270213197985
 31
0.0
  0
LINE
 62
5
  8
DIMENSIONS
 10
9.163575778211666
 20
4.830270213197985
 30
0.0
 11
9.163575778211666
 21
4.963603546531319
 31
0.0
  0
LINE
 62
5
  8
DIMENSIONS
 10
10.181750864679628
 20
4.830270213197985
 30
0.0
 11
10.181750864679628
 21
4.963603546531319
 31
0.0
  0
TEXT
 62
7
  8
DIMENSIONS
 10
9.672663321445647
 20
5.130270213197985
 30
0.0
 40
0.2
  1
1
 50
-0.0
  7
ISOCPEUR
 72
1
 73
2
 11
9.672663321445647
 21
5.130270213197985
 31
0.0
  0
INSERT
  8
DIMENSIONS
  2
DIMTICK_ARROW
 10
9.163575778211666
 20
4.830270213197985
 30
0.0
 41
1.0
 42
1.0
 50
0.0
  0
INSERT
  8
DIMENSIONS
  2
DIMTICK_ARROW
 10
10.181750864679628
 20
4.830270213197985
 30
0.0
 41
1.0
 42
1.0
 50
180.0
  0
LINE
 62
7
  8
DIMENSIONS
 10
9.163575778211666
 20
4.830270213197985
 30
0.0
 11
10.181750864679628
 21
4.830270213197985
 31
0.0
  0
LINE
 62
5
  8
DIMENSIONS
 10
9.163575778211666
 20
4.830270213197985
 30
0.0
 11
9.163575778211666
 21
4.963603546531319
 31
0.0
  0
LINE
 62
5
  8
DIMENSIONS
 10
10.181750864679628
 20
4.830270213197985
 30
0.0
 11
10.181750864679628
 21
4.963603546531319
 31
0.0
  0
TEXT
 62
7
  8
DIMENSIONS
 10
9.672663321445647
 20
5.130270213197985
 30
0.0
 40
0.2
  1
1
 50
-0.0
  7
ISOCPEUR
 72
1
 73
2
 11
9.672663321445647
 21
5.130270213197985
 31
0.0
  0
INSERT
  8
DIMENSIONS
  2
DIMTICK_ARROW
 10
9.163575778211666
 20
4.830270213197985
 30
0.0
 41
1.0
 42
1.0
 50
0.0
  0
INSERT
  8
DIMENSIONS
  2
DIMTICK_ARROW
 10
10.181750864679628
 20
4.830270213197985
 30
0.0
 41
1.0
 42
1.0
 50
180.0
  0
LINE
 62
7
  8
DIMENSIONS
 10
9.163575778211666
 20
4.830270213197985
 30
0.0
 11
10.181750864679628
 21
4.830270213197985
 31
0.0
  0
LINE
 62
5
  8
DIMENSIONS
 10
9.163575778211666
 20
4.830270213197985
 30
0.0
 11
9.163575778211666
 21
4.963603546531319
 31
0.0
  0
LINE
 62
5
  8
DIMENSIONS
 10
10.181750864679628
 20
4.830270213197985
 30
0.0
 11
10.181750864679628
 21
4.963603546531319
 31
0.0
  0
TEXT
 62
7
  8
DIMENSIONS
 10
9.672663321445647
 20
5.130270213197985
 30
0.0
 40
0.2
  1
1
 50
-0.0
  7
ISOCPEUR
 72
1
 73
2
 11
9.672663321445647
 21
5.130270213197985
 31
0.0
  0
INSERT
  8
DIMENSIONS
  2
DIMTICK_ARROW
 10
9.163575778211666
 20
4.830270213197985
 30
0.0
 41
1.0
 42
1.0
 50
0.0
  0
INSERT
  8
DIMENSIONS
  2
DIMTICK_ARROW
 10
10.181750864679628
 20
4.830270213197985
 30
0.0
 41
1.0
 42
1.0
 50
180.0
  0
LINE
 62
7
  8
DIMENSIONS
 10
9.163575778211666
 20
4.830270213197985
 30
0.0
 11
10.181750864679628
 21
4.830270213197985
 31
0.0
  0
LINE
 62
5
  8
DIMENSIONS
 10
9.163575778211666
 20
4.830270213197985
 30
0.0
 11
9.163575778211666
 21
4.963603546531319
 31
0.0
  0
LINE
 62
5
  8
DIMENSIONS
 10
10.181750864679628
 20
4.830270213197985
 30
0.0
 11
10.181750864679628
 21
4.963603546531319
 31
0.0
  0
TEXT
 62
7
  8
DIMENSIONS
 10
9.672663321445647
 20
5.130270213197985
 30
0.0
 40
0.2
  1
1
 50
-0.0
  7
ISOCPEUR
 72
1
 73
2
 11
9.672663321445647
 21
5.130270213197985
 31
0.0
  0
INSERT
  8
DIMENSIONS
  2
DIMTICK_ARROW
 10
9.163575778211666
 20
4.830270213197985
 30
0.0
 41
1.0
 42
1.0
 50
0.0
  0
INSERT
  8
DIMENSIONS
  2
DIMTICK_ARROW
 10
10.181750864679628
 20
4.830270213197985
 30
0.0
 41
1.0
 42
1.0
 50
180.0
  0
LINE
 62
7
  8
DIMENSIONS
 10
9.163575778211666
 20
4.830270213197985
 30
0.0
 11
10.181750864679628
 21
4.830270213197985
 31
0.0
  0
LINE
 62
5
  8
DIMENSIONS
 10
9.163575778211666
 20
4.830270213197985
 30
0.0
 11
9.163575778211666
 21
4.963603546531319
 31
0.0
  0
LINE
 62
5
  8
DIMENSIONS
 10
10.181750864679628
 20
4.830270213197985
 30
0.0
 11
10.181750864679628
 21
4.963603546531319
 31
0.0
  0
TEXT
 62
7
  8
DIMENSIONS
 10
9.672663321445647
 20
5.130270213197985
 30
0.0
 40
0.2
  1
1
 50
-0.0
  7
ISOCPEUR
 72
1
 73
2
 11
9.672663321445647
 21
5.130270213197985
 31
0.0
  0
INSERT
  8
DIMENSIONS
  2
DIMTICK_ARROW
 10
9.163575778211666
 20
4.830270213197985
 30
0.0
 41
1.0
 42
1.0
 50
0.0
  0
INSERT
  8
DIMENSIONS
  2
DIMTICK_ARROW
 10
10.181750864679628
 20
4.830270213197985
 30
0.0
 41
1.0
 42
1.0
 50
180.0
  0
LINE
 62
7
  8
DIMENSIONS
 10
9.163575778211666
 20
4.830270213197985
 30
0.0
 11
10.181750864679628
 21
4.830270213197985
 31
0.0
  0
LINE
 62
5
  8
DIMENSIONS
 10
9.163575778211666
 20
4.830270213197985
 30
0.0
 11
9.163575778211666
 21
4.963603546531319
 31
0.0
  0
LINE
 62
5
  8
DIMENSIONS
 10
10.181750864679628
 20
4.830270213197985
 30
0.0
 11
10.181750864679628
 21
4.963603546531319
 31
0.0
  0
TEXT
 62
7
  8
DIMENSIONS
 10
9.672663321445647
 20
5.130270213197985
 30
0.0
 40
0.2
  1
1
 50
-0.0
  7
ISOCPEUR
 72
1
 73
2
 11
9.672663321445647
 21
5.130270213197985
 31
0.0
  0
INSERT
  8
DIMENSIONS
  2
DIMTICK_ARROW
 10
9.163575778211666
 20
4.830270213197985
 30
0.0
 41
1.0
 42
1.0
 50
0.0
  0
INSERT
  8
DIMENSIONS
  2
DIMTICK_ARROW
 10
10.181750864679628
 20
4.830270213197985
 30
0.0
 41
1.0
 42
1.0
 50
180.0
  0
LINE
 62
7
  8
DIMENSIONS
 10
9.163575778211666
 20
4.830270213197985
 30
0.0
 11
10.181750864679628
 21
4.830270213197985
 31
0.0
  0
LINE
 62
5
  8
DIMENSIONS
 10
9.163575778211666
 20
4.830270213197985
 30
0.0
 11
9.163575778211666
 21
4.963603546531319
 31
0.0
  0
LINE
 62
5
  8
DIMENSIONS
 10
10.181750864679628
 20
4.830270213197985
 30
0.0
 11
10.181750864679628
 21
4.963603546531319
 31
0.0
  0
TEXT
 62
7
  8
DIMENSIONS
 10
9.672663321445647
 20
5.130270213197985
 30
0.0
 40
0.2
  1
1
 50
-0.0
  7
ISOCPEUR
 72
1
 73
2
 11
9.672663321445647
 21
5.130270213197985
 31
0.0
  0
INSERT
  8
DIMENSIONS
  2
DIMTICK_ARROW
 10
9.163575778211666
 20
4.830270213197985
 30
0.0
 41
1.0
 42
1.0
 50
0.0
  0
INSERT
  8
DIMENSIONS
  2
DIMTICK_ARROW
 10
10.181750864679628
 20
4.830270213197985
 30
0.0
 41
1.0
 42
1.0
 50
180.0
  0
LINE
 62
7
  8
DIMENSIONS
 10
9.163575778211666
 20
4.830270213197985
 30
0.0
 11
10.181750864679628
 21
4.830270213197985
 31
0.0
  0
LINE
 62
5
  8
DIMENSIONS
 10
9.163575778211666
 20
4.830270213197985
 30
0.0
 11
9.163575778211666
 21
4.963603546531319
 31
0.0
  0
LINE
 62
5
  8
DIMENSIONS
 10
10.181750864679628
 20
4.830270213197985
 30
0.0
 11
10.181750864679628
 21
4.963603546531319
 31
0.0
  0
TEXT
 62
7
  8
DIMENSIONS
 10
9.672663321445647
 20
5.130270213197985
 30
0.0
 40
0.2
  1
1
 50
-0.0
  7
ISOCPEUR
 72
1
 73
2
 11
9.672663321445647
 21
5.130270213197985
 31
0.0
  0
INSERT
  8
DIMENSIONS
  2
DIMTICK_ARROW
 10
9.163575778211666
 20
4.830270213197985
 30
0.0
 41
1.0
 42
1.0
 50
0.0
  0
INSERT
  8
DIMENSIONS
  2
DIMTICK_ARROW
 10
10.181750864679628
 20
4.830270213197985
 30
0.0
 41
1.0
 42
1.0
 50
180.0
  0
LINE
 62
7
  8
DIMENSIONS
 10
9.163575778211666
 20
4.830270213197985
 30
0.0
 11
10.181750864679628
 21
4.830270213197985
 31
0.0
  0
LINE
 62
5
  8
DIMENSIONS
 10
9.163575778211666
 20
4.830270213197985
 30
0.0
 11
9.163575778211666
 21
4.963603546531319
 31
0.0
  0
LINE
 62
5
  8
DIMENSIONS
 10
10.181750864679628
 20
4.830270213197985
 30
0.0
 11
10.181750864679628
 21
4.963603546531319
 31
0.0
  0
TEXT
 62
7
  8
DIMENSIONS
 10
9.672663321445647
 20
5.130270213197985
 30
0.0
 40
0.2
  1
1
 50
-0.0
  7
ISOCPEUR
 72
1
 73
2
 11
9.672663321445647
 21
5.130270213197985
 31
0.0
  0
INSERT
  8
DIMENSIONS
  2
DIMTICK_ARROW
 10
9.163575778211666
 20
4.830270213197985
 30
0.0
 41
1.0
 42
1.0
 50
0.0
  0
INSERT
  8
DIMENSIONS
  2
DIMTICK_ARROW
 10
10.181750864679628
 20
4.830270213197985
 30
0.0
 41
1.0
 42
1.0
 50
180.0
  0
LINE
 62
7
  8
DIMENSIONS
 10
9.163575778211666
 20
4.830270213197985
 30
0.0
 11
10.181750864679628
 21
4.830270213197985
 31
0.0
  0
LINE
 62
5
  8
DIMENSIONS
 10
9.163575778211666
 20
4.830270213197985
 30
0.0
 11
9.163575778211666
 21
4.963603546531319
 31
0.0
  0
LINE
 62
5
  8
DIMENSIONS
 10
10.181750864679628
 20
4.830270213197985
 30
0.0
 11
10.181750864679628
 21
4.963603546531319
 31
0.0
  0
TEXT
 62
7
  8
DIMENSIONS
 10
9.672663321445647
 20
5.130270213197985
 30
0.0
 40
0.2
  1
1
 50
-0.0
  7
ISOCPEUR
 72
1
 73
2
 11
9.672663321445647
 21
5.130270213197985
 31
0.0
  0
INSERT
  8
DIMENSIONS
  2
DIMTICK_ARROW
 10
9.163575778211666
 20
4.830270213197985
 30
0.0
 41
1.0
 42
1.0
 50
0.0
  0
INSERT
  8
DIMENSIONS
  2
DIMTICK_ARROW
 10
10.181750864679628
 20
4.830270213197985
 30
0.0
 41
1.0
 42
1.0
 50
180.0
  0
LINE
 62
7
  8
DIMENSIONS
 10
9.163575778211666
 20
4.830270213197985
 30
0.0
 11
10.181750864679628
 21
4.830270213197985
 31
0.0
  0
LINE
 62
5
  8
DIMENSIONS
 10
9.163575778211666
 20
4.830270213197985
 30
0.0
 11
9.163575778211666
 21
4.963603546531319
 31
0.0
  0
LINE
 62
5
  8
DIMENSIONS
 10
10.181750864679628
 20
4.830270213197985
 30
0.0
 11
10.181750864679628
 21
4.963603546531319
 31
0.0
  0
TEXT
 62
7
  8
DIMENSIONS
 10
9.672663321445647
 20
5.130270213197985
 30
0.0
 40
0.2
  1
1
 50
-0.0
  7
ISOCPEUR
 72
1
 73
2
 11
9.672663321445647
 21
5.130270213197985
 31
0.0
  0
INSERT
  8
DIMENSIONS
  2
DIMTICK_ARROW
 10
9.163575778211666
 20
4.830270213197985
 30
0.0
 41
1.0
 42
1.0
 50
0.0
  0
INSERT
  8
DIMENSIONS
  2
DIMTICK_ARROW
 10
10.181750864679628
 20
4.830270213197985
 30
0.0
 41
1.0
 42
1.0
 50
180.0
  0
LINE
 62
7
  8
DIMENSIONS
 10
9.163575778211666
 20
4.830270213197985
 30
0.0
 11
10.181750864679628
 21
4.830270213197985
 31
0.0
  0
LINE
 62
5
  8
DIMENSIONS
 10
9.163575778211666
 20
4.830270213197985
 30
0.0
 11
9.163575778211666
 21
4.963603546531319
 31
0.0
  0
LINE
 62
5
  8
DIMENSIONS
 10
10.181750864679628
 20
4.830270213197985
 30
0.0
 11
10.181750864679628
 21
4.963603546531319
 31
0.0
  0
TEXT
 62
7
  8
DIMENSIONS
 10
9.672663321445647
 20
5.130270213197985
 30
0.0
 40
0.2
  1
1
 50
-0.0
  7
ISOCPEUR
 72
1
 73
2
 11
9.672663321445647
 21
5.130270213197985
 31
0.0
  0
INSERT
  8
DIMENSIONS
  2
DIMTICK_ARROW
 10
9.163575778211666
 20
4.830270213197985
 30
0.0
 41
1.0
 42
1.0
 50
0.0
  0
INSERT
  8
DIMENSIONS
  2
DIMTICK_ARROW
 10
10.181750864679628
 20
4.830270213197985
 30
0.0
 41
1.0
 42
1.0
 50
180.0
  0
LINE
 62
7
  8
DIMENSIONS
 10
9.163575778211666
 20
4.830270213197985
 30
0.0
 11
10.181750864679628
 21
4.830270213197985
 31
0.0
  0
LINE
 62
5
  8
DIMENSIONS
 10
9.163575778211666
 20
4.830270213197985
 30
0.0
 11
9.163575778211666
 21
4.963603546531319
 31
0.0
  0
LINE
 62
5
  8
DIMENSIONS
 10
10.181750864679628
 20
4.830270213197985
 30
0.0
 11
10.181750864679628
 21
4.963603546531319
 31
0.0
  0
TEXT
 62
7
  8
DIMENSIONS
 10
9.672663321445647
 20
5.130270213197985
 30
0.0
 40
0.2
  1
1
 50
-0.0
  7
ISOCPEUR
 72
1
 73
2
 11
9.672663321445647
 21
5.130270213197985
 31
0.0
  0
INSERT
  8
DIMENSIONS
  2
DIMTICK_ARROW
 10
9.163575778211666
 20
4.830270213197985
 30
0.0
 41
1.0
 42
1.0
 50
0.0
  0
INSERT
  8
DIMENSIONS
  2
DIMTICK_ARROW
 10
10.181750864679628
 20
4.830270213197985
 30
0.0
 41
1.0
 42
1.0
 50
180.0
  0
LINE
 62
7
  8
DIMENSIONS
 10
9.163575778211666
 20
4.830270213197985
 30
0.0
 11
10.181750864679628
 21
4.830270213197985
 31
0.0
  0
LINE
 62
5
  8
DIMENSIONS
 10
9.163575778211666
 20
4.830270213197985
 30
0.0
 11
9.163575778211666
 21
4.963603546531319
 31
0.0
  0
LINE
 62
5
  8
DIMENSIONS
 10
10.181750864679628
 20
4.830270213197985
 30
0.0
 11
10.181750864679628
 21
4.963603546531319
 31
0.0
  0
TEXT
 62
7
  8
DIMENSIONS
 10
9.672663321445647
 20
5.130270213197985
 30
0.0
 40
0.2
  1
1
 50
-0.0
  7
ISOCPEUR
 72
1
 73
2
 11
9.672663321445647
 21
5.130270213197985
 31
0.0
  0
INSERT
  8
DIMENSIONS
  2
DIMTICK_ARROW
 10
9.163575778211666
 20
4.830270213197985
 30
0.0
 41
1.0
 42
1.0
 50
0.0
  0
INSERT
  8
DIMENSIONS
  2
DIMTICK_ARROW
 10
10.181750864679628
 20
4.830270213197985
 30
0.0
 41
1.0
 42
1.0
 50
180.0
  0
LINE
 62
7
  8
DIMENSIONS
 10
9.163575778211666
 20
4.830270213197985
 30
0.0
 11
10.181750864679628
 21
4.830270213197985
 31
0.0
  0
LINE
 62
5
  8
DIMENSIONS
 10
9.163575778211666
 20
4.830270213197985
 30
0.0
 11
9.163575778211666
 21
4.963603546531319
 31
0.0
  0
LINE
 62
5
  8
DIMENSIONS
 10
10.181750864679628
 20
4.830270213197985
 30
0.0
 11
10.181750864679628
 21
4.963603546531319
 31
0.0
  0
TEXT
 62
7
  8
DIMENSIONS
 10
9.672663321445647
 20
5.130270213197985
 30
0.0
 40
0.2
  1
1
 50
-0.0
  7
ISOCPEUR
 72
1
 73
2
 11
9.672663321445647
 21
5.130270213197985
 31
0.0
  0
INSERT
  8
DIMENSIONS
  2
DIMTICK_ARROW
 10
9.163575778211666
 20
4.830270213197985
 30
0.0
 41
1.0
 42
1.0
 50
0.0
  0
INSERT
  8
DIMENSIONS
  2
DIMTICK_ARROW
 10
10.181750864679628
 20
4.830270213197985
 30
0.0
 41
1.0
 42
1.0
 50
180.0
  0
LINE
 62
7
  8
DIMENSIONS
 10
9.163575778211666
 20
4.830270213197985
 30
0.0
 11
10.181750864679628
 21
4.830270213197985
 31
0.0
  0
LINE
 62
5
  8
DIMENSIONS
 10
9.163575778211666
 20
4.830270213197985
 30
0.0
 11
9.163575778211666
 21
4.963603546531319
 31
0.0
  0
LINE
 62
5
  8
DIMENSIONS
 10
10.181750864679628
 20
4.830270213197985
 30
0.0
 11
10.181750864679628
 21
4.963603546531319
 31
0.0
  0
TEXT
 62
7
  8
DIMENSIONS
 10
9.672663321445647
 20
5.130270213197985
 30
0.0
 40
0.2
  1
1
 50
-0.0
  7
ISOCPEUR
 72
1
 73
2
 11
9.672663321445647
 21
5.130270213197985
 31
0.0
  0
INSERT
  8
DIMENSIONS
  2
DIMTICK_ARROW
 10
9.163575778211666
 20
4.830270213197985
 30
0.0
 41
1.0
 42
1.0
 50
0.0
  0
INSERT
  8
DIMENSIONS
  2
DIMTICK_ARROW
 10
10.181750864679628
 20
4.830270213197985
 30
0.0
 41
1.0
 42
1.0
 50
180.0
  0
LINE
 62
7
  8
DIMENSIONS
 10
9.163575778211666
 20
4.830270213197985
 30
0.0
 11
10.181750864679628
 21
4.830270213197985
 31
0.0
  0
LINE
 62
5
  8
DIMENSIONS
 10
9.163575778211666
 20
4.830270213197985
 30
0.0
 11
9.163575778211666
 21
4.963603546531319
 31
0.0
  0
LINE
 62
5
  8
DIMENSIONS
 10
10.181750864679628
 20
4.830270213197985
 30
0.0
 11
10.181750864679628
 21
4.963603546531319
 31
0.0
  0
TEXT
 62
7
  8
DIMENSIONS
 10
9.672663321445647
 20
5.130270213197985
 30
0.0
 40
0.2
  1
1
 50
-0.0
  7
ISOCPEUR
 72
1
 73
2
 11
9.672663321445647
 21
5.130270213197985
 31
0.0
  0
INSERT
  8
DIMENSIONS
  2
DIMTICK_ARROW
 10
9.163575778211666
 20
4.830270213197985
 30
0.0
 41
1.0
 42
1.0
 50
0.0
  0
INSERT
  8
DIMENSIONS
  2
DIMTICK_ARROW
 10
10.181750864679628
 20
4.830270213197985
 30
0.0
 41
1.0
 42
1.0
 50
180.0
  0
LINE
 62
7
  8
DIMENSIONS
 10
9.163575778211666
 20
4.830270213197985
 30
0.0
 11
10.181750864679628
 21
4.830270213197985
 31
0.0
  0
LINE
 62
5
  8
DIMENSIONS
 10
9.163575778211666
 20
4.830270213197985
 30
0.0
 11
9.163575778211666
 21
4.963603546531319
 31
0.0
  0
LINE
 62
5
  8
DIMENSIONS
 10
10.181750864679628
 20
4.830270213197985
 30
0.0
 11
10.181750864679628
 21
4.963603546531319
 31
0.0
  0
TEXT
 62
7
  8
DIMENSIONS
 10
9.672663321445647
 20
5.130270213197985
 30
0.0
 40
0.2
  1
1
 50
-0.0
  7
ISOCPEUR
 72
1
 73
2
 11
9.672663321445647
 21
5.130270213197985
 31
0.0
  0
INSERT
  8
DIMENSIONS
  2
DIMTICK_ARROW
 10
9.163575778211666
 20
4.830270213197985
 30
0.0
 41
1.0
 42
1.0
 50
0.0
  0
INSERT
  8
DIMENSIONS
  2
DIMTICK_ARROW
 10
10.181750864679628
 20
4.830270213197985
 30
0.0
 41
1.0
 42
1.0
 50
180.0
  0
LINE
 62
7
  8
DIMENSIONS
 10
9.163575778211666
 20
4.830270213197985
 30
0.0
 11
10.181750864679628
 21
4.830270213197985
 31
0.0
  0
LINE
 62
5
  8
DIMENSIONS
 10
9.163575778211666
 20
4.830270213197985
 30
0.0
 11
9.163575778211666
 21
4.963603546531319
 31
0.0
  0
LINE
 62
5
  8
DIMENSIONS
 10
10.181750864679628
 20
4.830270213197985
 30
0.0
 11
10.181750864679628
 21
4.963603546531319
 31
0.0
  0
TEXT
 62
7
  8
DIMENSIONS
 10
9.672663321445647
 20
5.130270213197985
 30
0.0
 40
0.2
  1
1
 50
-0.0
  7
ISOCPEUR
 72
1
 73
2
 11
9.672663321445647
 21
5.130270213197985
 31
0.0
  0
INSERT
  8
DIMENSIONS
  2
DIMTICK_ARROW
 10
9.163575778211666
 20
4.830270213197985
 30
0.0
 41
1.0
 42
1.0
 50
0.0
  0
INSERT
  8
DIMENSIONS
  2
DIMTICK_ARROW
 10
10.181750864679628
 20
4.830270213197985
 30
0.0
 41
1.0
 42
1.0
 50
180.0
  0
LINE
 62
7
  8
DIMENSIONS
 10
9.163575778211666
 20
4.830270213197985
 30
0.0
 11
10.181750864679628
 21
4.830270213197985
 31
0.0
  0
LINE
 62
5
  8
DIMENSIONS
 10
9.163575778211666
 20
4.830270213197985
 30
0.0
 11
9.163575778211666
 21
4.963603546531319
 31
0.0
  0
LINE
 62
5
  8
DIMENSIONS
 10
10.181750864679628
 20
4.830270213197985
 30
0.0
 11
10.181750864679628
 21
4.963603546531319
 31
0.0
  0
TEXT
 62
7
  8
DIMENSIONS
 10
9.672663321445647
 20
5.130270213197985
 30
0.0
 40
0.2
  1
1
 50
-0.0
  7
ISOCPEUR
 72
1
 73
2
 11
9.672663321445647
 21
5.130270213197985
 31
0.0
  0
INSERT
  8
DIMENSIONS
  2
DIMTICK_ARROW
 10
9.163575778211666
 20
4.830270213197985
 30
0.0
 41
1.0
 42
1.0
 50
0.0
  0
INSERT
  8
DIMENSIONS
  2
DIMTICK_ARROW
 10
10.181750864679628
 20
4.830270213197985
 30
0.0
 41
1.0
 42
1.0
 50
180.0
  0
LINE
 62
3
  8
0
 10
4.199972231680347
 20
2.18907643590612
 30
0.0
 11
6.84722745649705
 21
2.18907643590612
 31
0.0
  0
LINE
 62
7
  8
DIMENSIONS
 10
4.199972231680347
 20
1.8424097692394534
 30
0.0
 11
6.84722745649705
 21
1.8424097692394534
 31
0.0
  0
LINE
 62
5
  8
DIMENSIONS
 10
4.199972231680347
 20
1.8424097692394534
 30
0.0
 11
4.199972231680347
 21
2.18907643590612
 31
0.0
  0
LINE
 62
5
  8
DIMENSIONS
 10
6.84722745649705
 20
1.8424097692394534
 30
0.0
 11
6.84722745649705
 21
2.18907643590612
 31
0.0
  0
TEXT
 62
7
  8
DIMENSIONS
 10
5.523599844088698
 20
2.1424097692394533
 30
0.0
 40
0.2
  1
3
 50
-0.0
  7
ISOCPEUR
 72
1
 73
2
 11
5.523599844088698
 21
2.1424097692394533
 31
0.0
  0
INSERT
  8
DIMENSIONS
  2
DIMTICK_ARROW
 10
4.199972231680347
 20
1.8424097692394534
 30
0.0
 41
1.0
 42
1.0
 50
0.0
  0
INSERT
  8
DIMENSIONS
  2
DIMTICK_ARROW
 10
6.84722745649705
 20
1.8424097692394534
 30
0.0
 41
1.0
 42
1.0
 50
180.0
  0
LINE
 62
7
  8
DIMENSIONS
 10
4.199972231680347
 20
1.8424097692394534
 30
0.0
 11
6.84722745649705
 21
1.8424097692394534
 31
0.0
  0
LINE
 62
5
  8
DIMENSIONS
 10
4.199972231680347
 20
1.8424097692394534
 30
0.0
 11
4.199972231680347
 21
2.18907643590612
 31
0.0
  0
LINE
 62
5
  8
DIMENSIONS
 10
6.84722745649705
 20
1.8424097692394534
 30
0.0
 11
6.84722745649705
 21
2.18907643590612
 31
0.0
  0
TEXT
 62
7
  8
DIMENSIONS
 10
5.523599844088698
 20
2.1424097692394533
 30
0.0
 40
0.2
  1
3
 50
-0.0
  7
ISOCPEUR
 72
1
 73
2
 11
5.523599844088698
 21
2.1424097692394533
 31
0.0
  0
INSERT
  8
DIMENSIONS
  2
DIMTICK_ARROW
 10
4.199972231680347
 20
1.8424097692394534
 30
0.0
 41
1.0
 42
1.0
 50
0.0
  0
INSERT
  8
DIMENSIONS
  2
DIMTICK_ARROW
 10
6.84722745649705
 20
1.8424097692394534
 30
0.0
 41
1.0
 42
1.0
 50
180.0
  0
LINE
 62
7
  8
DIMENSIONS
 10
4.199972231680347
 20
1.8424097692394534
 30
0.0
 11
6.84722745649705
 21
1.8424097692394534
 31
0.0
  0
LINE
 62
5
  8
DIMENSIONS
 10
4.199972231680347
 20
1.8424097692394534
 30
0.0
 11
4.199972231680347
 21
2.18907643590612
 31
0.0
  0
LINE
 62
5
  8
DIMENSIONS
 10
6.84722745649705
 20
1.8424097692394534
 30
0.0
 11
6.84722745649705
 21
2.18907643590612
 31
0.0
  0
TEXT
 62
7
  8
DIMENSIONS
 10
5.523599844088698
 20
2.1424097692394533
 30
0.0
 40
0.2
  1
3
 50
-0.0
  7
ISOCPEUR
 72
1
 73
2
 11
5.523599844088698
 21
2.1424097692394533
 31
0.0
  0
INSERT
  8
DIMENSIONS
  2
DIMTICK_ARROW
 10
4.199972231680347
 20
1.8424097692394534
 30
0.0
 41
1.0
 42
1.0
 50
0.0
  0
INSERT
  8
DIMENSIONS
  2
DIMTICK_ARROW
 10
6.84722745649705
 20
1.8424097692394534
 30
0.0
 41
1.0
 42
1.0
 50
180.0
  0
LINE
 62
7
  8
DIMENSIONS
 10
4.199972231680347
 20
1.8424097692394534
 30
0.0
 11
6.84722745649705
 21
1.8424097692394534
 31
0.0
  0
LINE
 62
5
  8
DIMENSIONS
 10
4.199972231680347
 20
1.8424097692394534
 30
0.0
 11
4.199972231680347
 21
2.18907643590612
 31
0.0
  0
LINE
 62
5
  8
DIMENSIONS
 10
6.84722745649705
 20
1.8424097692394534
 30
0.0
 11
6.84722745649705
 21
2.18907643590612
 31
0.0
  0
TEXT
 62
7
  8
DIMENSIONS
 10
5.523599844088698
 20
2.1424097692394533
 30
0.0
 40
0.2
  1
3
 50
-0.0
  7
ISOCPEUR
 72
1
 73
2
 11
5.523599844088698
 21
2.1424097692394533
 31
0.0
  0
INSERT
  8
DIMENSIONS
  2
DIMTICK_ARROW
 10
4.199972231680347
 20
1.8424097692394534
 30
0.0
 41
1.0
 42
1.0
 50
0.0
  0
INSERT
  8
DIMENSIONS
  2
DIMTICK_ARROW
 10
6.84722745649705
 20
1.8424097692394534
 30
0.0
 41
1.0
 42
1.0
 50
180.0
  0
LINE
 62
7
  8
DIMENSIONS
 10
4.199972231680347
 20
1.8424097692394534
 30
0.0
 11
6.84722745649705
 21
1.8424097692394534
 31
0.0
  0
LINE
 62
5
  8
DIMENSIONS
 10
4.199972231680347
 20
1.8424097692394534
 30
0.0
 11
4.199972231680347
 21
2.18907643590612
 31
0.0
  0
LINE
 62
5
  8
DIMENSIONS
 10
6.84722745649705
 20
1.8424097692394534
 30
0.0
 11
6.84722745649705
 21
2.18907643590612
 31
0.0
  0
TEXT
 62
7
  8
DIMENSIONS
 10
5.523599844088698
 20
2.1424097692394533
 30
0.0
 40
0.2
  1
3
 50
-0.0
  7
ISOCPEUR
 72
1
 73
2
 11
5.523599844088698
 21
2.1424097692394533
 31
0.0
  0
INSERT
  8
DIMENSIONS
  2
DIMTICK_ARROW
 10
4.199972231680347
 20
1.8424097692394534
 30
0.0
 41
1.0
 42
1.0
 50
0.0
  0
INSERT
  8
DIMENSIONS
  2
DIMTICK_ARROW
 10
6.84722745649705
 20
1.8424097692394534
 30
0.0
 41
1.0
 42
1.0
 50
180.0
  0
LINE
 62
7
  8
DIMENSIONS
 10
4.199972231680347
 20
1.8424097692394534
 30
0.0
 11
6.84722745649705
 21
1.8424097692394534
 31
0.0
  0
LINE
 62
5
  8
DIMENSIONS
 10
4.199972231680347
 20
1.8424097692394534
 30
0.0
 11
4.199972231680347
 21
2.18907643590612
 31
0.0
  0
LINE
 62
5
  8
DIMENSIONS
 10
6.84722745649705
 20
1.8424097692394534
 30
0.0
 11
6.84722745649705
 21
2.18907643590612
 31
0.0
  0
TEXT
 62
7
  8
DIMENSIONS
 10
5.523599844088698
 20
2.1424097692394533
 30
0.0
 40
0.2
  1
3
 50
-0.0
  7
ISOCPEUR
 72
1
 73
2
 11
5.523599844088698
 21
2.1424097692394533
 31
0.0
  0
INSERT
  8
DIMENSIONS
  2
DIMTICK_ARROW
 10
4.199972231680347
 20
1.8424097692394534
 30
0.0
 41
1.0
 42
1.0
 50
0.0
  0
INSERT
  8
DIMENSIONS
  2
DIMTICK_ARROW
 10
6.84722745649705
 20
1.8424097692394534
 30
0.0
 41
1.0
 42
1.0
 50
180.0
  0
LINE
 62
7
  8
DIMENSIONS
 10
4.199972231680347
 20
1.8424097692394534
 30
0.0
 11
6.84722745649705
 21
1.8424097692394534
 31
0.0
  0
LINE
 62
5
  8
DIMENSIONS
 10
4.199972231680347
 20
1.8424097692394534
 30
0.0
 11
4.199972231680347
 21
2.18907643590612
 31
0.0
  0
LINE
 62
5
  8
DIMENSIONS
 10
6.84722745649705
 20
1.8424097692394534
 30
0.0
 11
6.84722745649705
 21
2.18907643590612
 31
0.0
  0
TEXT
 62
7
  8
DIMENSIONS
 10
5.523599844088698
 20
2.1424097692394533
 30
0.0
 40
0.2
  1
3
 50
-0.0
  7
ISOCPEUR
 72
1
 73
2
 11
5.523599844088698
 21
2.1424097692394533
 31
0.0
  0
INSERT
  8
DIMENSIONS
  2
DIMTICK_ARROW
 10
4.199972231680347
 20
1.8424097692394534
 30
0.0
 41
1.0
 42
1.0
 50
0.0
  0
INSERT
  8
DIMENSIONS
  2
DIMTICK_ARROW
 10
6.84722745649705
 20
1.8424097692394534
 30
0.0
 41
1.0
 42
1.0
 50
180.0
  0
LINE
 62
7
  8
DIMENSIONS
 10
4.199972231680347
 20
1.8424097692394534
 30
0.0
 11
6.84722745649705
 21
1.8424097692394534
 31
0.0
  0
LINE
 62
5
  8
DIMENSIONS
 10
4.199972231680347
 20
1.8424097692394534
 30
0.0
 11
4.199972231680347
 21
2.18907643590612
 31
0.0
  0
LINE
 62
5
  8
DIMENSIONS
 10
6.84722745649705
 20
1.8424097692394534
 30
0.0
 11
6.84722745649705
 21
2.18907643590612
 31
0.0
  0
TEXT
 62
7
  8
DIMENSIONS
 10
5.523599844088698
 20
2.1424097692394533
 30
0.0
 40
0.2
  1
3
 50
-0.0
  7
ISOCPEUR
 72
1
 73
2
 11
5.523599844088698
 21
2.1424097692394533
 31
0.0
  0
INSERT
  8
DIMENSIONS
  2
DIMTICK_ARROW
 10
4.199972231680347
 20
1.8424097692394534
 30
0.0
 41
1.0
 42
1.0
 50
0.0
  0
INSERT
  8
DIMENSIONS
  2
DIMTICK_ARROW
 10
6.84722745649705
 20
1.8424097692394534
 30
0.0
 41
1.0
 42
1.0
 50
180.0
  0
LINE
 62
7
  8
DIMENSIONS
 10
4.199972231680347
 20
1.8424097692394534
 30
0.0
 11
6.84722745649705
 21
1.8424097692394534
 31
0.0
  0
LINE
 62
5
  8
DIMENSIONS
 10
4.199972231680347
 20
1.8424097692394534
 30
0.0
 11
4.199972231680347
 21
2.18907643590612
 31
0.0
  0
LINE
 62
5
  8
DIMENSIONS
 10
6.84722745649705
 20
1.8424097692394534
 30
0.0
 11
6.84722745649705
 21
2.18907643590612
 31
0.0
  0
TEXT
 62
7
  8
DIMENSIONS
 10
5.523599844088698
 20
2.1424097692394533
 30
0.0
 40
0.2
  1
3
 50
-0.0
  7
ISOCPEUR
 72
1
 73
2
 11
5.523599844088698
 21
2.1424097692394533
 31
0.0
  0
INSERT
  8
DIMENSIONS
  2
DIMTICK_ARROW
 10
4.199972231680347
 20
1.8424097692394534
 30
0.0
 41
1.0
 42
1.0
 50
0.0
  0
INSERT
  8
DIMENSIONS
  2
DIMTICK_ARROW
 10
6.84722745649705
 20
1.8424097692394534
 30
0.0
 41
1.0
 42
1.0
 50
180.0
  0
LINE
 62
7
  8
DIMENSIONS
 10
4.199972231680347
 20
1.8424097692394534
 30
0.0
 11
6.84722745649705
 21
1.8424097692394534
 31
0.0
  0
LINE
 62
5
  8
DIMENSIONS
 10
4.199972231680347
 20
1.8424097692394534
 30
0.0
 11
4.199972231680347
 21
2.18907643590612
 31
0.0
  0
LINE
 62
5
  8
DIMENSIONS
 10
6.84722745649705
 20
1.8424097692394534
 30
0.0
 11
6.84722745649705
 21
2.18907643590612
 31
0.0
  0
TEXT
 62
7
  8
DIMENSIONS
 10
5.523599844088698
 20
2.1424097692394533
 30
0.0
 40
0.2
  1
3
 50
-0.0
  7
ISOCPEUR
 72
1
 73
2
 11
5.523599844088698
 21
2.1424097692394533
 31
0.0
  0
INSERT
  8
DIMENSIONS
  2
DIMTICK_ARROW
 10
4.199972231680347
 20
1.8424097692394534
 30
0.0
 41
1.0
 42
1.0
 50
0.0
  0
INSERT
  8
DIMENSIONS
  2
DIMTICK_ARROW
 10
6.84722745649705
 20
1.8424097692394534
 30
0.0
 41
1.0
 42
1.0
 50
180.0
  0
LINE
 62
7
  8
DIMENSIONS
 10
4.199972231680347
 20
1.8424097692394534
 30
0.0
 11
6.84722745649705
 21
1.8424097692394534
 31
0.0
  0
LINE
 62
5
  8
DIMENSIONS
 10
4.199972231680347
 20
1.8424097692394534
 30
0.0
 11
4.199972231680347
 21
2.18907643590612
 31
0.0
  0
LINE
 62
5
  8
DIMENSIONS
 10
6.84722745649705
 20
1.8424097692394534
 30
0.0
 11
6.84722745649705
 21
2.18907643590612
 31
0.0
  0
TEXT
 62
7
  8
DIMENSIONS
 10
5.523599844088698
 20
2.1424097692394533
 30
0.0
 40
0.2
  1
3
 50
-0.0
  7
ISOCPEUR
 72
1
 73
2
 11
5.523599844088698
 21
2.1424097692394533
 31
0.0
  0
INSERT
  8
DIMENSIONS
  2
DIMTICK_ARROW
 10
4.199972231680347
 20
1.8424097692394534
 30
0.0
 41
1.0
 42
1.0
 50
0.0
  0
INSERT
  8
DIMENSIONS
  2
DIMTICK_ARROW
 10
6.84722745649705
 20
1.8424097692394534
 30
0.0
 41
1.0
 42
1.0
 50
180.0
  0
LINE
 62
7
  8
DIMENSIONS
 10
4.199972231680347
 20
1.8424097692394534
 30
0.0
 11
6.84722745649705
 21
1.8424097692394534
 31
0.0
  0
LINE
 62
5
  8
DIMENSIONS
 10
4.199972231680347
 20
1.8424097692394534
 30
0.0
 11
4.199972231680347
 21
2.18907643590612
 31
0.0
  0
LINE
 62
5
  8
DIMENSIONS
 10
6.84722745649705
 20
1.8424097692394534
 30
0.0
 11
6.84722745649705
 21
2.18907643590612
 31
0.0
  0
TEXT
 62
7
  8
DIMENSIONS
 10
5.523599844088698
 20
2.1424097692394533
 30
0.0
 40
0.2
  1
3
 50
-0.0
  7
ISOCPEUR
 72
1
 73
2
 11
5.523599844088698
 21
2.1424097692394533
 31
0.0
  0
INSERT
  8
DIMENSIONS
  2
DIMTICK_ARROW
 10
4.199972231680347
 20
1.8424097692394534
 30
0.0
 41
1.0
 42
1.0
 50
0.0
  0
INSERT
  8
DIMENSIONS
  2
DIMTICK_ARROW
 10
6.84722745649705
 20
1.8424097692394534
 30
0.0
 41
1.0
 42
1.0
 50
180.0
  0
LINE
 62
7
  8
DIMENSIONS
 10
4.199972231680347
 20
1.8424097692394534
 30
0.0
 11
6.84722745649705
 21
1.8424097692394534
 31
0.0
  0
LINE
 62
5
  8
DIMENSIONS
 10
4.199972231680347
 20
1.8424097692394534
 30
0.0
 11
4.199972231680347
 21
2.18907643590612
 31
0.0
  0
LINE
 62
5
  8
DIMENSIONS
 10
6.84722745649705
 20
1.8424097692394534
 30
0.0
 11
6.84722745649705
 21
2.18907643590612
 31
0.0
  0
TEXT
 62
7
  8
DIMENSIONS
 10
5.523599844088698
 20
2.1424097692394533
 30
0.0
 40
0.2
  1
3
 50
-0.0
  7
ISOCPEUR
 72
1
 73
2
 11
5.523599844088698
 21
2.1424097692394533
 31
0.0
  0
INSERT
  8
DIMENSIONS
  2
DIMTICK_ARROW
 10
4.199972231680347
 20
1.8424097692394534
 30
0.0
 41
1.0
 42
1.0
 50
0.0
  0
INSERT
  8
DIMENSIONS
  2
DIMTICK_ARROW
 10
6.84722745649705
 20
1.8424097692394534
 30
0.0
 41
1.0
 42
1.0
 50
180.0
  0
LINE
 62
7
  8
DIMENSIONS
 10
4.199972231680347
 20
1.8424097692394534
 30
0.0
 11
6.84722745649705
 21
1.8424097692394534
 31
0.0
  0
LINE
 62
5
  8
DIMENSIONS
 10
4.199972231680347
 20
1.8424097692394534
 30
0.0
 11
4.199972231680347
 21
2.18907643590612
 31
0.0
  0
LINE
 62
5
  8
DIMENSIONS
 10
6.84722745649705
 20
1.8424097692394534
 30
0.0
 11
6.84722745649705
 21
2.18907643590612
 31
0.0
  0
TEXT
 62
7
  8
DIMENSIONS
 10
5.523599844088698
 20
2.1424097692394533
 30
0.0
 40
0.2
  1
3
 50
-0.0
  7
ISOCPEUR
 72
1
 73
2
 11
5.523599844088698
 21
2.1424097692394533
 31
0.0
  0
INSERT
  8
DIMENSIONS
  2
DIMTICK_ARROW
 10
4.199972231680347
 20
1.8424097692394534
 30
0.0
 41
1.0
 42
1.0
 50
0.0
  0
INSERT
  8
DIMENSIONS
  2
DIMTICK_ARROW
 10
6.84722745649705
 20
1.8424097692394534
 30
0.0
 41
1.0
 42
1.0
 50
180.0
  0
LINE
 62
7
  8
DIMENSIONS
 10
4.199972231680347
 20
1.8424097692394534
 30
0.0
 11
6.84722745649705
 21
1.8424097692394534
 31
0.0
  0
LINE
 62
5
  8
DIMENSIONS
 10
4.199972231680347
 20
1.8424097692394534
 30
0.0
 11
4.199972231680347
 21
2.18907643590612
 31
0.0
  0
LINE
 62
5
  8
DIMENSIONS
 10
6.84722745649705
 20
1.8424097692394534
 30
0.0
 11
6.84722745649705
 21
2.18907643590612
 31
0.0
  0
TEXT
 62
7
  8
DIMENSIONS
 10
5.523599844088698
 20
2.1424097692394533
 30
0.0
 40
0.2
  1
3
 50
-0.0
  7
ISOCPEUR
 72
1
 73
2
 11
5.523599844088698
 21
2.1424097692394533
 31
0.0
  0
INSERT
  8
DIMENSIONS
  2
DIMTICK_ARROW
 10
4.199972231680347
 20
1.8424097692394534
 30
0.0
 41
1.0
 42
1.0
 50
0.0
  0
INSERT
  8
DIMENSIONS
  2
DIMTICK_ARROW
 10
6.84722745649705
 20
1.8424097692394534
 30
0.0
 41
1.0
 42
1.0
 50
180.0
  0
LINE
 62
7
  8
DIMENSIONS
 10
4.199972231680347
 20
1.8424097692394534
 30
0.0
 11
6.84722745649705
 21
1.8424097692394534
 31
0.0
  0
LINE
 62
5
  8
DIMENSIONS
 10
4.199972231680347
 20
1.8424097692394534
 30
0.0
 11
4.199972231680347
 21
2.18907643590612
 31
0.0
  0
LINE
 62
5
  8
DIMENSIONS
 10
6.84722745649705
 20
1.8424097692394534
 30
0.0
 11
6.84722745649705
 21
2.18907643590612
 31
0.0
  0
TEXT
 62
7
  8
DIMENSIONS
 10
5.523599844088698
 20
2.1424097692394533
 30
0.0
 40
0.2
  1
3
 50
-0.0
  7
ISOCPEUR
 72
1
 73
2
 11
5.523599844088698
 21
2.1424097692394533
 31
0.0
  0
INSERT
  8
DIMENSIONS
  2
DIMTICK_ARROW
 10
4.199972231680347
 20
1.8424097692394534
 30
0.0
 41
1.0
 42
1.0
 50
0.0
  0
INSERT
  8
DIMENSIONS
  2
DIMTICK_ARROW
 10
6.84722745649705
 20
1.8424097692394534
 30
0.0
 41
1.0
 42
1.0
 50
180.0
  0
LINE
 62
7
  8
DIMENSIONS
 10
4.199972231680347
 20
1.8424097692394534
 30
0.0
 11
6.84722745649705
 21
1.8424097692394534
 31
0.0
  0
LINE
 62
5
  8
DIMENSIONS
 10
4.199972231680347
 20
1.8424097692394534
 30
0.0
 11
4.199972231680347
 21
2.18907643590612
 31
0.0
  0
LINE
 62
5
  8
DIMENSIONS
 10
6.84722745649705
 20
1.8424097692394534
 30
0.0
 11
6.84722745649705
 21
2.18907643590612
 31
0.0
  0
TEXT
 62
7
  8
DIMENSIONS
 10
5.523599844088698
 20
2.1424097692394533
 30
0.0
 40
0.2
  1
3
 50
-0.0
  7
ISOCPEUR
 72
1
 73
2
 11
5.523599844088698
 21
2.1424097692394533
 31
0.0
  0
INSERT
  8
DIMENSIONS
  2
DIMTICK_ARROW
 10
4.199972231680347
 20
1.8424097692394534
 30
0.0
 41
1.0
 42
1.0
 50
0.0
  0
INSERT
  8
DIMENSIONS
  2
DIMTICK_ARROW
 10
6.84722745649705
 20
1.8424097692394534
 30
0.0
 41
1.0
 42
1.0
 50
180.0
  0
LINE
 62
7
  8
DIMENSIONS
 10
4.199972231680347
 20
1.8424097692394534
 30
0.0
 11
6.84722745649705
 21
1.8424097692394534
 31
0.0
  0
LINE
 62
5
  8
DIMENSIONS
 10
4.199972231680347
 20
1.8424097692394534
 30
0.0
 11
4.199972231680347
 21
2.18907643590612
 31
0.0
  0
LINE
 62
5
  8
DIMENSIONS
 10
6.84722745649705
 20
1.8424097692394534
 30
0.0
 11
6.84722745649705
 21
2.18907643590612
 31
0.0
  0
TEXT
 62
7
  8
DIMENSIONS
 10
5.523599844088698
 20
2.1424097692394533
 30
0.0
 40
0.2
  1
3
 50
-0.0
  7
ISOCPEUR
 72
1
 73
2
 11
5.523599844088698
 21
2.1424097692394533
 31
0.0
  0
INSERT
  8
DIMENSIONS
  2
DIMTICK_ARROW
 10
4.199972231680347
 20
1.8424097692394534
 30
0.0
 41
1.0
 42
1.0
 50
0.0
  0
INSERT
  8
DIMENSIONS
  2
DIMTICK_ARROW
 10
6.84722745649705
 20
1.8424097692394534
 30
0.0
 41
1.0
 42
1.0
 50
180.0
  0
LINE
 62
7
  8
DIMENSIONS
 10
4.199972231680347
 20
1.8424097692394534
 30
0.0
 11
6.84722745649705
 21
1.8424097692394534
 31
0.0
  0
LINE
 62
5
  8
DIMENSIONS
 10
4.199972231680347
 20
1.8424097692394534
 30
0.0
 11
4.199972231680347
 21
2.18907643590612
 31
0.0
  0
LINE
 62
5
  8
DIMENSIONS
 10
6.84722745649705
 20
1.8424097692394534
 30
0.0
 11
6.84722745649705
 21
2.18907643590612
 31
0.0
  0
TEXT
 62
7
  8
DIMENSIONS
 10
5.523599844088698
 20
2.1424097692394533
 30
0.0
 40
0.2
  1
3
 50
-0.0
  7
ISOCPEUR
 72
1
 73
2
 11
5.523599844088698
 21
2.1424097692394533
 31
0.0
  0
INSERT
  8
DIMENSIONS
  2
DIMTICK_ARROW
 10
4.199972231680347
 20
1.8424097692394534
 30
0.0
 41
1.0
 42
1.0
 50
0.0
  0
INSERT
  8
DIMENSIONS
  2
DIMTICK_ARROW
 10
6.84722745649705
 20
1.8424097692394534
 30
0.0
 41
1.0
 42
1.0
 50
180.0
  0
LINE
 62
7
  8
DIMENSIONS
 10
4.199972231680347
 20
1.8424097692394534
 30
0.0
 11
6.84722745649705
 21
1.8424097692394534
 31
0.0
  0
LINE
 62
5
  8
DIMENSIONS
 10
4.199972231680347
 20
1.8424097692394534
 30
0.0
 11
4.199972231680347
 21
2.18907643590612
 31
0.0
  0
LINE
 62
5
  8
DIMENSIONS
 10
6.84722745649705
 20
1.8424097692394534
 30
0.0
 11
6.84722745649705
 21
2.18907643590612
 31
0.0
  0
TEXT
 62
7
  8
DIMENSIONS
 10
5.523599844088698
 20
2.1424097692394533
 30
0.0
 40
0.2
  1
3
 50
-0.0
  7
ISOCPEUR
 72
1
 73
2
 11
5.523599844088698
 21
2.1424097692394533
 31
0.0
  0
INSERT
  8
DIMENSIONS
  2
DIMTICK_ARROW
 10
4.199972231680347
 20
1.8424097692394534
 30
0.0
 41
1.0
 42
1.0
 50
0.0
  0
INSERT
  8
DIMENSIONS
  2
DIMTICK_ARROW
 10
6.84722745649705
 20
1.8424097692394534
 30
0.0
 41
1.0
 42
1.0
 50
180.0
  0
LINE
 62
7
  8
DIMENSIONS
 10
4.199972231680347
 20
1.8424097692394534
 30
0.0
 11
6.84722745649705
 21
1.8424097692394534
 31
0.0
  0
LINE
 62
5
  8
DIMENSIONS
 10
4.199972231680347
 20
1.8424097692394534
 30
0.0
 11
4.199972231680347
 21
2.18907643590612
 31
0.0
  0
LINE
 62
5
  8
DIMENSIONS
 10
6.84722745649705
 20
1.8424097692394534
 30
0.0
 11
6.84722745649705
 21
2.18907643590612
 31
0.0
  0
TEXT
 62
7
  8
DIMENSIONS
 10
5.523599844088698
 20
2.1424097692394533
 30
0.0
 40
0.2
  1
3
 50
-0.0
  7
ISOCPEUR
 72
1
 73
2
 11
5.523599844088698
 21
2.1424097692394533
 31
0.0
  0
INSERT
  8
DIMENSIONS
  2
DIMTICK_ARROW
 10
4.199972231680347
 20
1.8424097692394534
 30
0.0
 41
1.0
 42
1.0
 50
0.0
  0
INSERT
  8
DIMENSIONS
  2
DIMTICK_ARROW
 10
6.84722745649705
 20
1.8424097692394534
 30
0.0
 41
1.0
 42
1.0
 50
180.0
  0
LINE
 62
7
  8
DIMENSIONS
 10
4.199972231680347
 20
1.8424097692394534
 30
0.0
 11
6.84722745649705
 21
1.8424097692394534
 31
0.0
  0
LINE
 62
5
  8
DIMENSIONS
 10
4.199972231680347
 20
1.8424097692394534
 30
0.0
 11
4.199972231680347
 21
2.18907643590612
 31
0.0
  0
LINE
 62
5
  8
DIMENSIONS
 10
6.84722745649705
 20
1.8424097692394534
 30
0.0
 11
6.84722745649705
 21
2.18907643590612
 31
0.0
  0
TEXT
 62
7
  8
DIMENSIONS
 10
5.523599844088698
 20
2.1424097692394533
 30
0.0
 40
0.2
  1
3
 50
-0.0
  7
ISOCPEUR
 72
1
 73
2
 11
5.523599844088698
 21
2.1424097692394533
 31
0.0
  0
INSERT
  8
DIMENSIONS
  2
DIMTICK_ARROW
 10
4.199972231680347
 20
1.8424097692394534
 30
0.0
 41
1.0
 42
1.0
 50
0.0
  0
INSERT
  8
DIMENSIONS
  2
DIMTICK_ARROW
 10
6.84722745649705
 20
1.8424097692394534
 30
0.0
 41
1.0
 42
1.0
 50
180.0
  0
LINE
 62
3
  8
0
 10
4.199972231680347
 20
4.963603546531319
 30
0.0
 11
6.84722745649705
 21
4.963603546531319
 31
0.0
  0
LINE
 62
3
  8
0
 10
0.0
 20
6.9999537194672445
 30
0.0
 11
11.174471573985892
 21
6.9999537194672445
 31
0.0
  0
LINE
 62
3
  8
0
 10
0.0
 20
0.0
 30
0.0
 11
11.174471573985892
 21
0.0
 31
0.0
  0
LINE
 62
7
  8
DIMENSIONS
 10
0.0
 20
-1.4633333333333334
 30
0.0
 11
11.174471573985892
 21
-1.4633333333333334
 31
0.0
  0
LINE
 62
5
  8
DIMENSIONS
 10
0.0
 20
-1.4633333333333334
 30
0.0
 11
0.0
 21
0.0
 31
0.0
  0
LINE
 62
5
  8
DIMENSIONS
 10
11.174471573985892
 20
-1.4633333333333334
 30
0.0
 11
11.174471573985892
 21
0.0
 31
0.0
  0
TEXT
 62
7
  8
DIMENSIONS
 10
5.587235786992946
 20
-1.1633333333333333
 30
0.0
 40
0.2
  1
11
 50
-0.0
  7
ISOCPEUR
 72
1
 73
2
 11
5.587235786992946
 21
-1.1633333333333333
 31
0.0
  0
INSERT
  8
DIMENSIONS
  2
DIMTICK_ARROW
 10
0.0
 20
-1.4633333333333334
 30
0.0
 41
1.0
 42
1.0
 50
0.0
  0
INSERT
  8
DIMENSIONS
  2
DIMTICK_ARROW
 10
11.174471573985892
 20
-1.4633333333333334
 30
0.0
 41
1.0
 42
1.0
 50
180.0
  0
LINE
 62
7
  8
DIMENSIONS
 10
0.0
 20
-1.4633333333333334
 30
0.0
 11
11.174471573985892
 21
-1.4633333333333334
 31
0.0
  0
LINE
 62
5
  8
DIMENSIONS
 10
0.0
 20
-1.4633333333333334
 30
0.0
 11
0.0
 21
0.0
 31
0.0
  0
LINE
 62
5
  8
DIMENSIONS
 10
11.174471573985892
 20
-1.4633333333333334
 30
0.0
 11
11.174471573985892
 21
0.0
 31
0.0
  0
TEXT
 62
7
  8
DIMENSIONS
 10
5.587235786992946
 20
-1.1633333333333333
 30
0.0
 40
0.2
  1
11
 50
-0.0
  7
ISOCPEUR
 72
1
 73
2
 11
5.587235786992946
 21
-1.1633333333333333
 31
0.0
  0
INSERT
  8
DIMENSIONS
  2
DIMTICK_ARROW
 10
0.0
 20
-1.4633333333333334
 30
0.0
 41
1.0
 42
1.0
 50
0.0
  0
INSERT
  8
DIMENSIONS
  2
DIMTICK_ARROW
 10
11.174471573985892
 20
-1.4633333333333334
 30
0.0
 41
1.0
 42
1.0
 50
180.0
  0
LINE
 62
7
  8
DIMENSIONS
 10
0.0
 20
-1.4633333333333334
 30
0.0
 11
11.174471573985892
 21
-1.4633333333333334
 31
0.0
  0
LINE
 62
5
  8
DIMENSIONS
 10
0.0
 20
-1.4633333333333334
 30
0.0
 11
0.0
 21
0.0
 31
0.0
  0
LINE
 62
5
  8
DIMENSIONS
 10
11.174471573985892
 20
-1.4633333333333334
 30
0.0
 11
11.174471573985892
 21
0.0
 31
0.0
  0
TEXT
 62
7
  8
DIMENSIONS
 10
5.587235786992946
 20
-1.1633333333333333
 30
0.0
 40
0.2
  1
11
 50
-0.0
  7
ISOCPEUR
 72
1
 73
2
 11
5.587235786992946
 21
-1.1633333333333333
 31
0.0
  0
INSERT
  8
DIMENSIONS
  2
DIMTICK_ARROW
 10
0.0
 20
-1.4633333333333334
 30
0.0
 41
1.0
 42
1.0
 50
0.0
  0
INSERT
  8
DIMENSIONS
  2
DIMTICK_ARROW
 10
11.174471573985892
 20
-1.4633333333333334
 30
0.0
 41
1.0
 42
1.0
 50
180.0
  0
LINE
 62
7
  8
DIMENSIONS
 10
0.0
 20
-1.4633333333333334
 30
0.0
 11
11.174471573985892
 21
-1.4633333333333334
 31
0.0
  0
LINE
 62
5
  8
DIMENSIONS
 10
0.0
 20
-1.4633333333333334
 30
0.0
 11
0.0
 21
0.0
 31
0.0
  0
LINE
 62
5
  8
DIMENSIONS
 10
11.174471573985892
 20
-1.4633333333333334
 30
0.0
 11
11.174471573985892
 21
0.0
 31
0.0
  0
TEXT
 62
7
  8
DIMENSIONS
 10
5.587235786992946
 20
-1.1633333333333333
 30
0.0
 40
0.2
  1
11
 50
-0.0
  7
ISOCPEUR
 72
1
 73
2
 11
5.587235786992946
 21
-1.1633333333333333
 31
0.0
  0
INSERT
  8
DIMENSIONS
  2
DIMTICK_ARROW
 10
0.0
 20
-1.4633333333333334
 30
0.0
 41
1.0
 42
1.0
 50
0.0
  0
INSERT
  8
DIMENSIONS
  2
DIMTICK_ARROW
 10
11.174471573985892
 20
-1.4633333333333334
 30
0.0
 41
1.0
 42
1.0
 50
180.0
  0
LINE
 62
7
  8
DIMENSIONS
 10
0.0
 20
-1.4633333333333334
 30
0.0
 11
11.174471573985892
 21
-1.4633333333333334
 31
0.0
  0
LINE
 62
5
  8
DIMENSIONS
 10
0.0
 20
-1.4633333333333334
 30
0.0
 11
0.0
 21
0.0
 31
0.0
  0
LINE
 62
5
  8
DIMENSIONS
 10
11.174471573985892
 20
-1.4633333333333334
 30
0.0
 11
11.174471573985892
 21
0.0
 31
0.0
  0
TEXT
 62
7
  8
DIMENSIONS
 10
5.587235786992946
 20
-1.1633333333333333
 30
0.0
 40
0.2
  1
11
 50
-0.0
  7
ISOCPEUR
 72
1
 73
2
 11
5.587235786992946
 21
-1.1633333333333333
 31
0.0
  0
INSERT
  8
DIMENSIONS
  2
DIMTICK_ARROW
 10
0.0
 20
-1.4633333333333334
 30
0.0
 41
1.0
 42
1.0
 50
0.0
  0
INSERT
  8
DIMENSIONS
  2
DIMTICK_ARROW
 10
11.174471573985892
 20
-1.4633333333333334
 30
0.0
 41
1.0
 42
1.0
 50
180.0
  0
LINE
 62
7
  8
DIMENSIONS
 10
0.0
 20
-1.4633333333333334
 30
0.0
 11
11.174471573985892
 21
-1.4633333333333334
 31
0.0
  0
LINE
 62
5
  8
DIMENSIONS
 10
0.0
 20
-1.4633333333333334
 30
0.0
 11
0.0
 21
0.0
 31
0.0
  0
LINE
 62
5
  8
DIMENSIONS
 10
11.174471573985892
 20
-1.4633333333333334
 30
0.0
 11
11.174471573985892
 21
0.0
 31
0.0
  0
TEXT
 62
7
  8
DIMENSIONS
 10
5.587235786992946
 20
-1.1633333333333333
 30
0.0
 40
0.2
  1
11
 50
-0.0
  7
ISOCPEUR
 72
1
 73
2
 11
5.587235786992946
 21
-1.1633333333333333
 31
0.0
  0
INSERT
  8
DIMENSIONS
  2
DIMTICK_ARROW
 10
0.0
 20
-1.4633333333333334
 30
0.0
 41
1.0
 42
1.0
 50
0.0
  0
INSERT
  8
DIMENSIONS
  2
DIMTICK_ARROW
 10
11.174471573985892
 20
-1.4633333333333334
 30
0.0
 41
1.0
 42
1.0
 50
180.0
  0
LINE
 62
7
  8
DIMENSIONS
 10
0.0
 20
-1.4633333333333334
 30
0.0
 11
11.174471573985892
 21
-1.4633333333333334
 31
0.0
  0
LINE
 62
5
  8
DIMENSIONS
 10
0.0
 20
-1.4633333333333334
 30
0.0
 11
0.0
 21
0.0
 31
0.0
  0
LINE
 62
5
  8
DIMENSIONS
 10
11.174471573985892
 20
-1.4633333333333334
 30
0.0
 11
11.174471573985892
 21
0.0
 31
0.0
  0
TEXT
 62
7
  8
DIMENSIONS
 10
5.587235786992946
 20
-1.1633333333333333
 30
0.0
 40
0.2
  1
11
 50
-0.0
  7
ISOCPEUR
 72
1
 73
2
 11
5.587235786992946
 21
-1.1633333333333333
 31
0.0
  0
INSERT
  8
DIMENSIONS
  2
DIMTICK_ARROW
 10
0.0
 20
-1.4633333333333334
 30
0.0
 41
1.0
 42
1.0
 50
0.0
  0
INSERT
  8
DIMENSIONS
  2
DIMTICK_ARROW
 10
11.174471573985892
 20
-1.4633333333333334
 30
0.0
 41
1.0
 42
1.0
 50
180.0
  0
LINE
 62
7
  8
DIMENSIONS
 10
0.0
 20
-1.4633333333333334
 30
0.0
 11
11.174471573985892
 21
-1.4633333333333334
 31
0.0
  0
LINE
 62
5
  8
DIMENSIONS
 10
0.0
 20
-1.4633333333333334
 30
0.0
 11
0.0
 21
0.0
 31
0.0
  0
LINE
 62
5
  8
DIMENSIONS
 10
11.174471573985892
 20
-1.4633333333333334
 30
0.0
 11
11.174471573985892
 21
0.0
 31
0.0
  0
TEXT
 62
7
  8
DIMENSIONS
 10
5.587235786992946
 20
-1.1633333333333333
 30
0.0
 40
0.2
  1
11
 50
-0.0
  7
ISOCPEUR
 72
1
 73
2
 11
5.587235786992946
 21
-1.1633333333333333
 31
0.0
  0
INSERT
  8
DIMENSIONS
  2
DIMTICK_ARROW
 10
0.0
 20
-1.4633333333333334
 30
0.0
 41
1.0
 42
1.0
 50
0.0
  0
INSERT
  8
DIMENSIONS
  2
DIMTICK_ARROW
 10
11.174471573985892
 20
-1.4633333333333334
 30
0.0
 41
1.0
 42
1.0
 50
180.0
  0
LINE
 62
7
  8
DIMENSIONS
 10
0.0
 20
-1.4633333333333334
 30
0.0
 11
11.174471573985892
 21
-1.4633333333333334
 31
0.0
  0
LINE
 62
5
  8
DIMENSIONS
 10
0.0
 20
-1.4633333333333334
 30
0.0
 11
0.0
 21
0.0
 31
0.0
  0
LINE
 62
5
  8
DIMENSIONS
 10
11.174471573985892
 20
-1.4633333333333334
 30
0.0
 11
11.174471573985892
 21
0.0
 31
0.0
  0
TEXT
 62
7
  8
DIMENSIONS
 10
5.587235786992946
 20
-1.1633333333333333
 30
0.0
 40
0.2
  1
11
 50
-0.0
  7
ISOCPEUR
 72
1
 73
2
 11
5.587235786992946
 21
-1.1633333333333333
 31
0.0
  0
INSERT
  8
DIMENSIONS
  2
DIMTICK_ARROW
 10
0.0
 20
-1.4633333333333334
 30
0.0
 41
1.0
 42
1.0
 50
0.0
  0
INSERT
  8
DIMENSIONS
  2
DIMTICK_ARROW
 10
11.174471573985892
 20
-1.4633333333333334
 30
0.0
 41
1.0
 42
1.0
 50
180.0
  0
LINE
 62
7
  8
DIMENSIONS
 10
0.0
 20
-1.4633333333333334
 30
0.0
 11
11.174471573985892
 21
-1.4633333333333334
 31
0.0
  0
LINE
 62
5
  8
DIMENSIONS
 10
0.0
 20
-1.4633333333333334
 30
0.0
 11
0.0
 21
0.0
 31
0.0
  0
LINE
 62
5
  8
DIMENSIONS
 10
11.174471573985892
 20
-1.4633333333333334
 30
0.0
 11
11.174471573985892
 21
0.0
 31
0.0
  0
TEXT
 62
7
  8
DIMENSIONS
 10
5.587235786992946
 20
-1.1633333333333333
 30
0.0
 40
0.2
  1
11
 50
-0.0
  7
ISOCPEUR
 72
1
 73
2
 11
5.587235786992946
 21
-1.1633333333333333
 31
0.0
  0
INSERT
  8
DIMENSIONS
  2
DIMTICK_ARROW
 10
0.0
 20
-1.4633333333333334
 30
0.0
 41
1.0
 42
1.0
 50
0.0
  0
INSERT
  8
DIMENSIONS
  2
DIMTICK_ARROW
 10
11.174471573985892
 20
-1.4633333333333334
 30
0.0
 41
1.0
 42
1.0
 50
180.0
  0
LINE
 62
7
  8
DIMENSIONS
 10
0.0
 20
-1.4633333333333334
 30
0.0
 11
11.174471573985892
 21
-1.4633333333333334
 31
0.0
  0
LINE
 62
5
  8
DIMENSIONS
 10
0.0
 20
-1.4633333333333334
 30
0.0
 11
0.0
 21
0.0
 31
0.0
  0
LINE
 62
5
  8
DIMENSIONS
 10
11.174471573985892
 20
-1.4633333333333334
 30
0.0
 11
11.174471573985892
 21
0.0
 31
0.0
  0
TEXT
 62
7
  8
DIMENSIONS
 10
5.587235786992946
 20
-1.1633333333333333
 30
0.0
 40
0.2
  1
11
 50
-0.0
  7
ISOCPEUR
 72
1
 73
2
 11
5.587235786992946
 21
-1.1633333333333333
 31
0.0
  0
INSERT
  8
DIMENSIONS
  2
DIMTICK_ARROW
 10
0.0
 20
-1.4633333333333334
 30
0.0
 41
1.0
 42
1.0
 50
0.0
  0
INSERT
  8
DIMENSIONS
  2
DIMTICK_ARROW
 10
11.174471573985892
 20
-1.4633333333333334
 30
0.0
 41
1.0
 42
1.0
 50
180.0
  0
LINE
 62
7
  8
DIMENSIONS
 10
0.0
 20
-1.4633333333333334
 30
0.0
 11
11.174471573985892
 21
-1.4633333333333334
 31
0.0
  0
LINE
 62
5
  8
DIMENSIONS
 10
0.0
 20
-1.4633333333333334
 30
0.0
 11
0.0
 21
0.0
 31
0.0
  0
LINE
 62
5
  8
DIMENSIONS
 10
11.174471573985892
 20
-1.4633333333333334
 30
0.0
 11
11.174471573985892
 21
0.0
 31
0.0
  0
TEXT
 62
7
  8
DIMENSIONS
 10
5.587235786992946
 20
-1.1633333333333333
 30
0.0
 40
0.2
  1
11
 50
-0.0
  7
ISOCPEUR
 72
1
 73
2
 11
5.587235786992946
 21
-1.1633333333333333
 31
0.0
  0
INSERT
  8
DIMENSIONS
  2
DIMTICK_ARROW
 10
0.0
 20
-1.4633333333333334
 30
0.0
 41
1.0
 42
1.0
 50
0.0
  0
INSERT
  8
DIMENSIONS
  2
DIMTICK_ARROW
 10
11.174471573985892
 20
-1.4633333333333334
 30
0.0
 41
1.0
 42
1.0
 50
180.0
  0
LINE
 62
7
  8
DIMENSIONS
 10
0.0
 20
-1.4633333333333334
 30
0.0
 11
11.174471573985892
 21
-1.4633333333333334
 31
0.0
  0
LINE
 62
5
  8
DIMENSIONS
 10
0.0
 20
-1.4633333333333334
 30
0.0
 11
0.0
 21
0.0
 31
0.0
  0
LINE
 62
5
  8
DIMENSIONS
 10
11.174471573985892
 20
-1.4633333333333334
 30
0.0
 11
11.174471573985892
 21
0.0
 31
0.0
  0
TEXT
 62
7
  8
DIMENSIONS
 10
5.587235786992946
 20
-1.1633333333333333
 30
0.0
 40
0.2
  1
11
 50
-0.0
  7
ISOCPEUR
 72
1
 73
2
 11
5.587235786992946
 21
-1.1633333333333333
 31
0.0
  0
INSERT
  8
DIMENSIONS
  2
DIMTICK_ARROW
 10
0.0
 20
-1.4633333333333334
 30
0.0
 41
1.0
 42
1.0
 50
0.0
  0
INSERT
  8
DIMENSIONS
  2
DIMTICK_ARROW
 10
11.174471573985892
 20
-1.4633333333333334
 30
0.0
 41
1.0
 42
1.0
 50
180.0
  0
LINE
 62
7
  8
DIMENSIONS
 10
0.0
 20
-1.4633333333333334
 30
0.0
 11
11.174471573985892
 21
-1.4633333333333334
 31
0.0
  0
LINE
 62
5
  8
DIMENSIONS
 10
0.0
 20
-1.4633333333333334
 30
0.0
 11
0.0
 21
0.0
 31
0.0
  0
LINE
 62
5
  8
DIMENSIONS
 10
11.174471573985892
 20
-1.4633333333333334
 30
0.0
 11
11.174471573985892
 21
0.0
 31
0.0
  0
TEXT
 62
7
  8
DIMENSIONS
 10
5.587235786992946
 20
-1.1633333333333333
 30
0.0
 40
0.2
  1
11
 50
-0.0
  7
ISOCPEUR
 72
1
 73
2
 11
5.587235786992946
 21
-1.1633333333333333
 31
0.0
  0
INSERT
  8
DIMENSIONS
  2
DIMTICK_ARROW
 10
0.0
 20
-1.4633333333333334
 30
0.0
 41
1.0
 42
1.0
 50
0.0
  0
INSERT
  8
DIMENSIONS
  2
DIMTICK_ARROW
 10
11.174471573985892
 20
-1.4633333333333334
 30
0.0
 41
1.0
 42
1.0
 50
180.0
  0
LINE
 62
7
  8
DIMENSIONS
 10
0.0
 20
-1.4633333333333334
 30
0.0
 11
11.174471573985892
 21
-1.4633333333333334
 31
0.0
  0
LINE
 62
5
  8
DIMENSIONS
 10
0.0
 20
-1.4633333333333334
 30
0.0
 11
0.0
 21
0.0
 31
0.0
  0
LINE
 62
5
  8
DIMENSIONS
 10
11.174471573985892
 20
-1.4633333333333334
 30
0.0
 11
11.174471573985892
 21
0.0
 31
0.0
  0
TEXT
 62
7
  8
DIMENSIONS
 10
5.587235786992946
 20
-1.1633333333333333
 30
0.0
 40
0.2
  1
11
 50
-0.0
  7
ISOCPEUR
 72
1
 73
2
 11
5.587235786992946
 21
-1.1633333333333333
 31
0.0
  0
INSERT
  8
DIMENSIONS
  2
DIMTICK_ARROW
 10
0.0
 20
-1.4633333333333334
 30
0.0
 41
1.0
 42
1.0
 50
0.0
  0
INSERT
  8
DIMENSIONS
  2
DIMTICK_ARROW
 10
11.174471573985892
 20
-1.4633333333333334
 30
0.0
 41
1.0
 42
1.0
 50
180.0
  0
LINE
 62
7
  8
DIMENSIONS
 10
0.0
 20
-1.4633333333333334
 30
0.0
 11
11.174471573985892
 21
-1.4633333333333334
 31
0.0
  0
LINE
 62
5
  8
DIMENSIONS
 10
0.0
 20
-1.4633333333333334
 30
0.0
 11
0.0
 21
0.0
 31
0.0
  0
LINE
 62
5
  8
DIMENSIONS
 10
11.174471573985892
 20
-1.4633333333333334
 30
0.0
 11
11.174471573985892
 21
0.0
 31
0.0
  0
TEXT
 62
7
  8
DIMENSIONS
 10
5.587235786992946
 20
-1.1633333333333333
 30
0.0
 40
0.2
  1
11
 50
-0.0
  7
ISOCPEUR
 72
1
 73
2
 11
5.587235786992946
 21
-1.1633333333333333
 31
0.0
  0
INSERT
  8
DIMENSIONS
  2
DIMTICK_ARROW
 10
0.0
 20
-1.4633333333333334
 30
0.0
 41
1.0
 42
1.0
 50
0.0
  0
INSERT
  8
DIMENSIONS
  2
DIMTICK_ARROW
 10
11.174471573985892
 20
-1.4633333333333334
 30
0.0
 41
1.0
 42
1.0
 50
180.0
  0
LINE
 62
7
  8
DIMENSIONS
 10
0.0
 20
-1.4633333333333334
 30
0.0
 11
11.174471573985892
 21
-1.4633333333333334
 31
0.0
  0
LINE
 62
5
  8
DIMENSIONS
 10
0.0
 20
-1.4633333333333334
 30
0.0
 11
0.0
 21
0.0
 31
0.0
  0
LINE
 62
5
  8
DIMENSIONS
 10
11.174471573985892
 20
-1.4633333333333334
 30
0.0
 11
11.174471573985892
 21
0.0
 31
0.0
  0
TEXT
 62
7
  8
DIMENSIONS
 10
5.587235786992946
 20
-1.1633333333333333
 30
0.0
 40
0.2
  1
11
 50
-0.0
  7
ISOCPEUR
 72
1
 73
2
 11
5.587235786992946
 21
-1.1633333333333333
 31
0.0
  0
INSERT
  8
DIMENSIONS
  2
DIMTICK_ARROW
 10
0.0
 20
-1.4633333333333334
 30
0.0
 41
1.0
 42
1.0
 50
0.0
  0
INSERT
  8
DIMENSIONS
  2
DIMTICK_ARROW
 10
11.174471573985892
 20
-1.4633333333333334
 30
0.0
 41
1.0
 42
1.0
 50
180.0
  0
LINE
 62
7
  8
DIMENSIONS
 10
0.0
 20
-1.4633333333333334
 30
0.0
 11
11.174471573985892
 21
-1.4633333333333334
 31
0.0
  0
LINE
 62
5
  8
DIMENSIONS
 10
0.0
 20
-1.4633333333333334
 30
0.0
 11
0.0
 21
0.0
 31
0.0
  0
LINE
 62
5
  8
DIMENSIONS
 10
11.174471573985892
 20
-1.4633333333333334
 30
0.0
 11
11.174471573985892
 21
0.0
 31
0.0
  0
TEXT
 62
7
  8
DIMENSIONS
 10
5.587235786992946
 20
-1.1633333333333333
 30
0.0
 40
0.2
  1
11
 50
-0.0
  7
ISOCPEUR
 72
1
 73
2
 11
5.587235786992946
 21
-1.1633333333333333
 31
0.0
  0
INSERT
  8
DIMENSIONS
  2
DIMTICK_ARROW
 10
0.0
 20
-1.4633333333333334
 30
0.0
 41
1.0
 42
1.0
 50
0.0
  0
INSERT
  8
DIMENSIONS
  2
DIMTICK_ARROW
 10
11.174471573985892
 20
-1.4633333333333334
 30
0.0
 41
1.0
 42
1.0
 50
180.0
  0
LINE
 62
7
  8
DIMENSIONS
 10
0.0
 20
-1.4633333333333334
 30
0.0
 11
11.174471573985892
 21
-1.4633333333333334
 31
0.0
  0
LINE
 62
5
  8
DIMENSIONS
 10
0.0
 20
-1.4633333333333334
 30
0.0
 11
0.0
 21
0.0
 31
0.0
  0
LINE
 62
5
  8
DIMENSIONS
 10
11.174471573985892
 20
-1.4633333333333334
 30
0.0
 11
11.174471573985892
 21
0.0
 31
0.0
  0
TEXT
 62
7
  8
DIMENSIONS
 10
5.587235786992946
 20
-1.1633333333333333
 30
0.0
 40
0.2
  1
11
 50
-0.0
  7
ISOCPEUR
 72
1
 73
2
 11
5.587235786992946
 21
-1.1633333333333333
 31
0.0
  0
INSERT
  8
DIMENSIONS
  2
DIMTICK_ARROW
 10
0.0
 20
-1.4633333333333334
 30
0.0
 41
1.0
 42
1.0
 50
0.0
  0
INSERT
  8
DIMENSIONS
  2
DIMTICK_ARROW
 10
11.174471573985892
 20
-1.4633333333333334
 30
0.0
 41
1.0
 42
1.0
 50
180.0
  0
LINE
 62
3
  8
0
 10
4.199972231680347
 20
4.963603546531319
 30
0.0
 11
4.199972231680347
 21
2.18907643590612
 31
0.0
  0
LINE
 62
3
  8
0
 10
6.84722745649705
 20
2.18907643590612
 30
0.0
 11
6.84722745649705
 21
4.963603546531319
 31
0.0
  0
LINE
 62
7
  8
DIMENSIONS
 10
7.210560789830383
 20
2.18907643590612
 30
0.0
 11
7.210560789830383
 21
4.963603546531319
 31
0.0
  0
LINE
 62
5
  8
DIMENSIONS
 10
7.210560789830383
 20
2.18907643590612
 30
0.0
 11
6.84722745649705
 21
2.18907643590612
 31
0.0
  0
LINE
 62
5
  8
DIMENSIONS
 10
7.210560789830383
 20
4.963603546531319
 30
0.0
 11
6.84722745649705
 21
4.963603546531319
 31
0.0
  0
TEXT
 62
7
  8
DIMENSIONS
 10
6.910560789830384
 20
3.5763399912187195
 30
0.0
 40
0.2
  1
3
 50
90.0
  7
ISOCPEUR
 72
1
 73
2
 11
6.910560789830384
 21
3.5763399912187195
 31
0.0
  0
INSERT
  8
DIMENSIONS
  2
DIMTICK_ARROW
 10
7.210560789830383
 20
2.18907643590612
 30
0.0
 41
1.0
 42
1.0
 50
90.0
  0
INSERT
  8
DIMENSIONS
  2
DIMTICK_ARROW
 10
7.210560789830383
 20
4.963603546531319
 30
0.0
 41
1.0
 42
1.0
 50
270.0
  0
LINE
 62
7
  8
DIMENSIONS
 10
7.210560789830383
 20
2.18907643590612
 30
0.0
 11
7.210560789830383
 21
4.963603546531319
 31
0.0
  0
LINE
 62
5
  8
DIMENSIONS
 10
7.210560789830383
 20
2.18907643590612
 30
0.0
 11
6.84722745649705
 21
2.18907643590612
 31
0.0
  0
LINE
 62
5
  8
DIMENSIONS
 10
7.210560789830383
 20
4.963603546531319
 30
0.0
 11
6.84722745649705
 21
4.963603546531319
 31
0.0
  0
TEXT
 62
7
  8
DIMENSIONS
 10
6.910560789830384
 20
3.5763399912187195
 30
0.0
 40
0.2
  1
3
 50
90.0
  7
ISOCPEUR
 72
1
 73
2
 11
6.910560789830384
 21
3.5763399912187195
 31
0.0
  0
INSERT
  8
DIMENSIONS
  2
DIMTICK_ARROW
 10
7.210560789830383
 20
2.18907643590612
 30
0.0
 41
1.0
 42
1.0
 50
90.0
  0
INSERT
  8
DIMENSIONS
  2
DIMTICK_ARROW
 10
7.210560789830383
 20
4.963603546531319
 30
0.0
 41
1.0
 42
1.0
 50
270.0
  0
LINE
 62
7
  8
DIMENSIONS
 10
7.210560789830383
 20
2.18907643590612
 30
0.0
 11
7.210560789830383
 21
4.963603546531319
 31
0.0
  0
LINE
 62
5
  8
DIMENSIONS
 10
7.210560789830383
 20
2.18907643590612
 30
0.0
 11
6.84722745649705
 21
2.18907643590612
 31
0.0
  0
LINE
 62
5
  8
DIMENSIONS
 10
7.210560789830383
 20
4.963603546531319
 30
0.0
 11
6.84722745649705
 21
4.963603546531319
 31
0.0
  0
TEXT
 62
7
  8
DIMENSIONS
 10
6.910560789830384
 20
3.5763399912187195
 30
0.0
 40
0.2
  1
3
 50
90.0
  7
ISOCPEUR
 72
1
 73
2
 11
6.910560789830384
 21
3.5763399912187195
 31
0.0
  0
INSERT
  8
DIMENSIONS
  2
DIMTICK_ARROW
 10
7.210560789830383
 20
2.18907643590612
 30
0.0
 41
1.0
 42
1.0
 50
90.0
  0
INSERT
  8
DIMENSIONS
  2
DIMTICK_ARROW
 10
7.210560789830383
 20
4.963603546531319
 30
0.0
 41
1.0
 42
1.0
 50
270.0
  0
LINE
 62
7
  8
DIMENSIONS
 10
7.210560789830383
 20
2.18907643590612
 30
0.0
 11
7.210560789830383
 21
4.963603546531319
 31
0.0
  0
LINE
 62
5
  8
DIMENSIONS
 10
7.210560789830383
 20
2.18907643590612
 30
0.0
 11
6.84722745649705
 21
2.18907643590612
 31
0.0
  0
LINE
 62
5
  8
DIMENSIONS
 10
7.210560789830383
 20
4.963603546531319
 30
0.0
 11
6.84722745649705
 21
4.963603546531319
 31
0.0
  0
TEXT
 62
7
  8
DIMENSIONS
 10
6.910560789830384
 20
3.5763399912187195
 30
0.0
 40
0.2
  1
3
 50
90.0
  7
ISOCPEUR
 72
1
 73
2
 11
6.910560789830384
 21
3.5763399912187195
 31
0.0
  0
INSERT
  8
DIMENSIONS
  2
DIMTICK_ARROW
 10
7.210560789830383
 20
2.18907643590612
 30
0.0
 41
1.0
 42
1.0
 50
90.0
  0
INSERT
  8
DIMENSIONS
  2
DIMTICK_ARROW
 10
7.210560789830383
 20
4.963603546531319
 30
0.0
 41
1.0
 42
1.0
 50
270.0
  0
LINE
 62
7
  8
DIMENSIONS
 10
7.210560789830383
 20
2.18907643590612
 30
0.0
 11
7.210560789830383
 21
4.963603546531319
 31
0.0
  0
LINE
 62
5
  8
DIMENSIONS
 10
7.210560789830383
 20
2.18907643590612
 30
0.0
 11
6.84722745649705
 21
2.18907643590612
 31
0.0
  0
LINE
 62
5
  8
DIMENSIONS
 10
7.210560789830383
 20
4.963603546531319
 30
0.0
 11
6.84722745649705
 21
4.963603546531319
 31
0.0
  0
TEXT
 62
7
  8
DIMENSIONS
 10
6.910560789830384
 20
3.5763399912187195
 30
0.0
 40
0.2
  1
3
 50
90.0
  7
ISOCPEUR
 72
1
 73
2
 11
6.910560789830384
 21
3.5763399912187195
 31
0.0
  0
INSERT
  8
DIMENSIONS
  2
DIMTICK_ARROW
 10
7.210560789830383
 20
2.18907643590612
 30
0.0
 41
1.0
 42
1.0
 50
90.0
  0
INSERT
  8
DIMENSIONS
  2
DIMTICK_ARROW
 10
7.210560789830383
 20
4.963603546531319
 30
0.0
 41
1.0
 42
1.0
 50
270.0
  0
LINE
 62
7
  8
DIMENSIONS
 10
7.210560789830383
 20
2.18907643590612
 30
0.0
 11
7.210560789830383
 21
4.963603546531319
 31
0.0
  0
LINE
 62
5
  8
DIMENSIONS
 10
7.210560789830383
 20
2.18907643590612
 30
0.0
 11
6.84722745649705
 21
2.18907643590612
 31
0.0
  0
LINE
 62
5
  8
DIMENSIONS
 10
7.210560789830383
 20
4.963603546531319
 30
0.0
 11
6.84722745649705
 21
4.963603546531319
 31
0.0
  0
TEXT
 62
7
  8
DIMENSIONS
 10
6.910560789830384
 20
3.5763399912187195
 30
0.0
 40
0.2
  1
3
 50
90.0
  7
ISOCPEUR
 72
1
 73
2
 11
6.910560789830384
 21
3.5763399912187195
 31
0.0
  0
INSERT
  8
DIMENSIONS
  2
DIMTICK_ARROW
 10
7.210560789830383
 20
2.18907643590612
 30
0.0
 41
1.0
 42
1.0
 50
90.0
  0
INSERT
  8
DIMENSIONS
  2
DIMTICK_ARROW
 10
7.210560789830383
 20
4.963603546531319
 30
0.0
 41
1.0
 42
1.0
 50
270.0
  0
LINE
 62
7
  8
DIMENSIONS
 10
7.210560789830383
 20
2.18907643590612
 30
0.0
 11
7.210560789830383
 21
4.963603546531319
 31
0.0
  0
LINE
 62
5
  8
DIMENSIONS
 10
7.210560789830383
 20
2.18907643590612
 30
0.0
 11
6.84722745649705
 21
2.18907643590612
 31
0.0
  0
LINE
 62
5
  8
DIMENSIONS
 10
7.210560789830383
 20
4.963603546531319
 30
0.0
 11
6.84722745649705
 21
4.963603546531319
 31
0.0
  0
TEXT
 62
7
  8
DIMENSIONS
 10
6.910560789830384
 20
3.5763399912187195
 30
0.0
 40
0.2
  1
3
 50
90.0
  7
ISOCPEUR
 72
1
 73
2
 11
6.910560789830384
 21
3.5763399912187195
 31
0.0
  0
INSERT
  8
DIMENSIONS
  2
DIMTICK_ARROW
 10
7.210560789830383
 20
2.18907643590612
 30
0.0
 41
1.0
 42
1.0
 50
90.0
  0
INSERT
  8
DIMENSIONS
  2
DIMTICK_ARROW
 10
7.210560789830383
 20
4.963603546531319
 30
0.0
 41
1.0
 42
1.0
 50
270.0
  0
LINE
 62
7
  8
DIMENSIONS
 10
7.210560789830383
 20
2.18907643590612
 30
0.0
 11
7.210560789830383
 21
4.963603546531319
 31
0.0
  0
LINE
 62
5
  8
DIMENSIONS
 10
7.210560789830383
 20
2.18907643590612
 30
0.0
 11
6.84722745649705
 21
2.18907643590612
 31
0.0
  0
LINE
 62
5
  8
DIMENSIONS
 10
7.210560789830383
 20
4.963603546531319
 30
0.0
 11
6.84722745649705
 21
4.963603546531319
 31
0.0
  0
TEXT
 62
7
  8
DIMENSIONS
 10
6.910560789830384
 20
3.5763399912187195
 30
0.0
 40
0.2
  1
3
 50
90.0
  7
ISOCPEUR
 72
1
 73
2
 11
6.910560789830384
 21
3.5763399912187195
 31
0.0
  0
INSERT
  8
DIMENSIONS
  2
DIMTICK_ARROW
 10
7.210560789830383
 20
2.18907643590612
 30
0.0
 41
1.0
 42
1.0
 50
90.0
  0
INSERT
  8
DIMENSIONS
  2
DIMTICK_ARROW
 10
7.210560789830383
 20
4.963603546531319
 30
0.0
 41
1.0
 42
1.0
 50
270.0
  0
LINE
 62
7
  8
DIMENSIONS
 10
7.210560789830383
 20
2.18907643590612
 30
0.0
 11
7.210560789830383
 21
4.963603546531319
 31
0.0
  0
LINE
 62
5
  8
DIMENSIONS
 10
7.210560789830383
 20
2.18907643590612
 30
0.0
 11
6.84722745649705
 21
2.18907643590612
 31
0.0
  0
LINE
 62
5
  8
DIMENSIONS
 10
7.210560789830383
 20
4.963603546531319
 30
0.0
 11
6.84722745649705
 21
4.963603546531319
 31
0.0
  0
TEXT
 62
7
  8
DIMENSIONS
 10
6.910560789830384
 20
3.5763399912187195
 30
0.0
 40
0.2
  1
3
 50
90.0
  7
ISOCPEUR
 72
1
 73
2
 11
6.910560789830384
 21
3.5763399912187195
 31
0.0
  0
INSERT
  8
DIMENSIONS
  2
DIMTICK_ARROW
 10
7.210560789830383
 20
2.18907643590612
 30
0.0
 41
1.0
 42
1.0
 50
90.0
  0
INSERT
  8
DIMENSIONS
  2
DIMTICK_ARROW
 10
7.210560789830383
 20
4.963603546531319
 30
0.0
 41
1.0
 42
1.0
 50
270.0
  0
LINE
 62
7
  8
DIMENSIONS
 10
7.210560789830383
 20
2.18907643590612
 30
0.0
 11
7.210560789830383
 21
4.963603546531319
 31
0.0
  0
LINE
 62
5
  8
DIMENSIONS
 10
7.210560789830383
 20
2.18907643590612
 30
0.0
 11
6.84722745649705
 21
2.18907643590612
 31
0.0
  0
LINE
 62
5
  8
DIMENSIONS
 10
7.210560789830383
 20
4.963603546531319
 30
0.0
 11
6.84722745649705
 21
4.963603546531319
 31
0.0
  0
TEXT
 62
7
  8
DIMENSIONS
 10
6.910560789830384
 20
3.5763399912187195
 30
0.0
 40
0.2
  1
3
 50
90.0
  7
ISOCPEUR
 72
1
 73
2
 11
6.910560789830384
 21
3.5763399912187195
 31
0.0
  0
INSERT
  8
DIMENSIONS
  2
DIMTICK_ARROW
 10
7.210560789830383
 20
2.18907643590612
 30
0.0
 41
1.0
 42
1.0
 50
90.0
  0
INSERT
  8
DIMENSIONS
  2
DIMTICK_ARROW
 10
7.210560789830383
 20
4.963603546531319
 30
0.0
 41
1.0
 42
1.0
 50
270.0
  0
LINE
 62
7
  8
DIMENSIONS
 10
7.210560789830383
 20
2.18907643590612
 30
0.0
 11
7.210560789830383
 21
4.963603546531319
 31
0.0
  0
LINE
 62
5
  8
DIMENSIONS
 10
7.210560789830383
 20
2.18907643590612
 30
0.0
 11
6.84722745649705
 21
2.18907643590612
 31
0.0
  0
LINE
 62
5
  8
DIMENSIONS
 10
7.210560789830383
 20
4.963603546531319
 30
0.0
 11
6.84722745649705
 21
4.963603546531319
 31
0.0
  0
TEXT
 62
7
  8
DIMENSIONS
 10
6.910560789830384
 20
3.5763399912187195
 30
0.0
 40
0.2
  1
3
 50
90.0
  7
ISOCPEUR
 72
1
 73
2
 11
6.910560789830384
 21
3.5763399912187195
 31
0.0
  0
INSERT
  8
DIMENSIONS
  2
DIMTICK_ARROW
 10
7.210560789830383
 20
2.18907643590612
 30
0.0
 41
1.0
 42
1.0
 50
90.0
  0
INSERT
  8
DIMENSIONS
  2
DIMTICK_ARROW
 10
7.210560789830383
 20
4.963603546531319
 30
0.0
 41
1.0
 42
1.0
 50
270.0
  0
LINE
 62
7
  8
DIMENSIONS
 10
7.210560789830383
 20
2.18907643590612
 30
0.0
 11
7.210560789830383
 21
4.963603546531319
 31
0.0
  0
LINE
 62
5
  8
DIMENSIONS
 10
7.210560789830383
 20
2.18907643590612
 30
0.0
 11
6.84722745649705
 21
2.18907643590612
 31
0.0
  0
LINE
 62
5
  8
DIMENSIONS
 10
7.210560789830383
 20
4.963603546531319
 30
0.0
 11
6.84722745649705
 21
4.963603546531319
 31
0.0
  0
TEXT
 62
7
  8
DIMENSIONS
 10
6.910560789830384
 20
3.5763399912187195
 30
0.0
 40
0.2
  1
3
 50
90.0
  7
ISOCPEUR
 72
1
 73
2
 11
6.910560789830384
 21
3.5763399912187195
 31
0.0
  0
INSERT
  8
DIMENSIONS
  2
DIMTICK_ARROW
 10
7.210560789830383
 20
2.18907643590612
 30
0.0
 41
1.0
 42
1.0
 50
90.0
  0
INSERT
  8
DIMENSIONS
  2
DIMTICK_ARROW
 10
7.210560789830383
 20
4.963603546531319
 30
0.0
 41
1.0
 42
1.0
 50
270.0
  0
LINE
 62
7
  8
DIMENSIONS
 10
7.210560789830383
 20
2.18907643590612
 30
0.0
 11
7.210560789830383
 21
4.963603546531319
 31
0.0
  0
LINE
 62
5
  8
DIMENSIONS
 10
7.210560789830383
 20
2.18907643590612
 30
0.0
 11
6.84722745649705
 21
2.18907643590612
 31
0.0
  0
LINE
 62
5
  8
DIMENSIONS
 10
7.210560789830383
 20
4.963603546531319
 30
0.0
 11
6.84722745649705
 21
4.963603546531319
 31
0.0
  0
TEXT
 62
7
  8
DIMENSIONS
 10
6.910560789830384
 20
3.5763399912187195
 30
0.0
 40
0.2
  1
3
 50
90.0
  7
ISOCPEUR
 72
1
 73
2
 11
6.910560789830384
 21
3.5763399912187195
 31
0.0
  0
INSERT
  8
DIMENSIONS
  2
DIMTICK_ARROW
 10
7.210560789830383
 20
2.18907643590612
 30
0.0
 41
1.0
 42
1.0
 50
90.0
  0
INSERT
  8
DIMENSIONS
  2
DIMTICK_ARROW
 10
7.210560789830383
 20
4.963603546531319
 30
0.0
 41
1.0
 42
1.0
 50
270.0
  0
LINE
 62
7
  8
DIMENSIONS
 10
7.210560789830383
 20
2.18907643590612
 30
0.0
 11
7.210560789830383
 21
4.963603546531319
 31
0.0
  0
LINE
 62
5
  8
DIMENSIONS
 10
7.210560789830383
 20
2.18907643590612
 30
0.0
 11
6.84722745649705
 21
2.18907643590612
 31
0.0
  0
LINE
 62
5
  8
DIMENSIONS
 10
7.210560789830383
 20
4.963603546531319
 30
0.0
 11
6.84722745649705
 21
4.963603546531319
 31
0.0
  0
TEXT
 62
7
  8
DIMENSIONS
 10
6.910560789830384
 20
3.5763399912187195
 30
0.0
 40
0.2
  1
3
 50
90.0
  7
ISOCPEUR
 72
1
 73
2
 11
6.910560789830384
 21
3.5763399912187195
 31
0.0
  0
INSERT
  8
DIMENSIONS
  2
DIMTICK_ARROW
 10
7.210560789830383
 20
2.18907643590612
 30
0.0
 41
1.0
 42
1.0
 50
90.0
  0
INSERT
  8
DIMENSIONS
  2
DIMTICK_ARROW
 10
7.210560789830383
 20
4.963603546531319
 30
0.0
 41
1.0
 42
1.0
 50
270.0
  0
LINE
 62
7
  8
DIMENSIONS
 10
7.210560789830383
 20
2.18907643590612
 30
0.0
 11
7.210560789830383
 21
4.963603546531319
 31
0.0
  0
LINE
 62
5
  8
DIMENSIONS
 10
7.210560789830383
 20
2.18907643590612
 30
0.0
 11
6.84722745649705
 21
2.18907643590612
 31
0.0
  0
LINE
 62
5
  8
DIMENSIONS
 10
7.210560789830383
 20
4.963603546531319
 30
0.0
 11
6.84722745649705
 21
4.963603546531319
 31
0.0
  0
TEXT
 62
7
  8
DIMENSIONS
 10
6.910560789830384
 20
3.5763399912187195
 30
0.0
 40
0.2
  1
3
 50
90.0
  7
ISOCPEUR
 72
1
 73
2
 11
6.910560789830384
 21
3.5763399912187195
 31
0.0
  0
INSERT
  8
DIMENSIONS
  2
DIMTICK_ARROW
 10
7.210560789830383
 20
2.18907643590612
 30
0.0
 41
1.0
 42
1.0
 50
90.0
  0
INSERT
  8
DIMENSIONS
  2
DIMTICK_ARROW
 10
7.210560789830383
 20
4.963603546531319
 30
0.0
 41
1.0
 42
1.0
 50
270.0
  0
LINE
 62
7
  8
DIMENSIONS
 10
7.210560789830383
 20
2.18907643590612
 30
0.0
 11
7.210560789830383
 21
4.963603546531319
 31
0.0
  0
LINE
 62
5
  8
DIMENSIONS
 10
7.210560789830383
 20
2.18907643590612
 30
0.0
 11
6.84722745649705
 21
2.18907643590612
 31
0.0
  0
LINE
 62
5
  8
DIMENSIONS
 10
7.210560789830383
 20
4.963603546531319
 30
0.0
 11
6.84722745649705
 21
4.963603546531319
 31
0.0
  0
TEXT
 62
7
  8
DIMENSIONS
 10
6.910560789830384
 20
3.5763399912187195
 30
0.0
 40
0.2
  1
3
 50
90.0
  7
ISOCPEUR
 72
1
 73
2
 11
6.910560789830384
 21
3.5763399912187195
 31
0.0
  0
INSERT
  8
DIMENSIONS
  2
DIMTICK_ARROW
 10
7.210560789830383
 20
2.18907643590612
 30
0.0
 41
1.0
 42
1.0
 50
90.0
  0
INSERT
  8
DIMENSIONS
  2
DIMTICK_ARROW
 10
7.210560789830383
 20
4.963603546531319
 30
0.0
 41
1.0
 42
1.0
 50
270.0
  0
LINE
 62
7
  8
DIMENSIONS
 10
7.210560789830383
 20
2.18907643590612
 30
0.0
 11
7.210560789830383
 21
4.963603546531319
 31
0.0
  0
LINE
 62
5
  8
DIMENSIONS
 10
7.210560789830383
 20
2.18907643590612
 30
0.0
 11
6.84722745649705
 21
2.18907643590612
 31
0.0
  0
LINE
 62
5
  8
DIMENSIONS
 10
7.210560789830383
 20
4.963603546531319
 30
0.0
 11
6.84722745649705
 21
4.963603546531319
 31
0.0
  0
TEXT
 62
7
  8
DIMENSIONS
 10
6.910560789830384
 20
3.5763399912187195
 30
0.0
 40
0.2
  1
3
 50
90.0
  7
ISOCPEUR
 72
1
 73
2
 11
6.910560789830384
 21
3.5763399912187195
 31
0.0
  0
INSERT
  8
DIMENSIONS
  2
DIMTICK_ARROW
 10
7.210560789830383
 20
2.18907643590612
 30
0.0
 41
1.0
 42
1.0
 50
90.0
  0
INSERT
  8
DIMENSIONS
  2
DIMTICK_ARROW
 10
7.210560789830383
 20
4.963603546531319
 30
0.0
 41
1.0
 42
1.0
 50
270.0
  0
LINE
 62
3
  8
0
 10
0.0
 20
1.6799888926721387
 30
0.0
 11
0.0
 21
6.9999537194672445
 31
0.0
  0
LINE
 62
7
  8
DIMENSIONS
 10
-1.0
 20
1.679988892672139
 30
0.0
 11
-1.0
 21
6.9999537194672445
 31
0.0
  0
LINE
 62
5
  8
DIMENSIONS
 10
-1.0
 20
1.679988892672139
 30
0.0
 11
0.0
 21
1.6799888926721387
 31
0.0
  0
LINE
 62
5
  8
DIMENSIONS
 10
-1.0
 20
6.9999537194672445
 30
0.0
 11
0.0
 21
6.9999537194672445
 31
0.0
  0
TEXT
 62
7
  8
DIMENSIONS
 10
-1.3
 20
4.339971306069692
 30
0.0
 40
0.2
  1
5
 50
90.0
  7
ISOCPEUR
 72
1
 73
2
 11
-1.3
 21
4.339971306069692
 31
0.0
  0
INSERT
  8
DIMENSIONS
  2
DIMTICK_ARROW
 10
-1.0
 20
1.679988892672139
 30
0.0
 41
1.0
 42
1.0
 50
90.0
  0
INSERT
  8
DIMENSIONS
  2
DIMTICK_ARROW
 10
-1.0
 20
6.9999537194672445
 30
0.0
 41
1.0
 42
1.0
 50
270.0
  0
LINE
 62
7
  8
DIMENSIONS
 10
-1.0
 20
1.679988892672139
 30
0.0
 11
-1.0
 21
6.9999537194672445
 31
0.0
  0
LINE
 62
5
  8
DIMENSIONS
 10
-1.0
 20
1.679988892672139
 30
0.0
 11
0.0
 21
1.6799888926721387
 31
0.0
  0
LINE
 62
5
  8
DIMENSIONS
 10
-1.0
 20
6.9999537194672445
 30
0.0
 11
0.0
 21
6.9999537194672445
 31
0.0
  0
TEXT
 62
7
  8
DIMENSIONS
 10
-1.3
 20
4.339971306069692
 30
0.0
 40
0.2
  1
5
 50
90.0
  7
ISOCPEUR
 72
1
 73
2
 11
-1.3
 21
4.339971306069692
 31
0.0
  0
INSERT
  8
DIMENSIONS
  2
DIMTICK_ARROW
 10
-1.0
 20
1.679988892672139
 30
0.0
 41
1.0
 42
1.0
 50
90.0
  0
INSERT
  8
DIMENSIONS
  2
DIMTICK_ARROW
 10
-1.0
 20
6.9999537194672445
 30
0.0
 41
1.0
 42
1.0
 50
270.0
  0
LINE
 62
7
  8
DIMENSIONS
 10
-1.0
 20
1.679988892672139
 30
0.0
 11
-1.0
 21
6.9999537194672445
 31
0.0
  0
LINE
 62
5
  8
DIMENSIONS
 10
-1.0
 20
1.679988892672139
 30
0.0
 11
0.0
 21
1.6799888926721387
 31
0.0
  0
LINE
 62
5
  8
DIMENSIONS
 10
-1.0
 20
6.9999537194672445
 30
0.0
 11
0.0
 21
6.9999537194672445
 31
0.0
  0
TEXT
 62
7
  8
DIMENSIONS
 10
-1.3
 20
4.339971306069692
 30
0.0
 40
0.2
  1
5
 50
90.0
  7
ISOCPEUR
 72
1
 73
2
 11
-1.3
 21
4.339971306069692
 31
0.0
  0
INSERT
  8
DIMENSIONS
  2
DIMTICK_ARROW
 10
-1.0
 20
1.679988892672139
 30
0.0
 41
1.0
 42
1.0
 50
90.0
  0
INSERT
  8
DIMENSIONS
  2
DIMTICK_ARROW
 10
-1.0
 20
6.9999537194672445
 30
0.0
 41
1.0
 42
1.0
 50
270.0
  0
LINE
 62
7
  8
DIMENSIONS
 10
-1.0
 20
1.679988892672139
 30
0.0
 11
-1.0
 21
6.9999537194672445
 31
0.0
  0
LINE
 62
5
  8
DIMENSIONS
 10
-1.0
 20
1.679988892672139
 30
0.0
 11
0.0
 21
1.6799888926721387
 31
0.0
  0
LINE
 62
5
  8
DIMENSIONS
 10
-1.0
 20
6.9999537194672445
 30
0.0
 11
0.0
 21
6.9999537194672445
 31
0.0
  0
TEXT
 62
7
  8
DIMENSIONS
 10
-1.3
 20
4.339971306069692
 30
0.0
 40
0.2
  1
5
 50
90.0
  7
ISOCPEUR
 72
1
 73
2
 11
-1.3
 21
4.339971306069692
 31
0.0
  0
INSERT
  8
DIMENSIONS
  2
DIMTICK_ARROW
 10
-1.0
 20
1.679988892672139
 30
0.0
 41
1.0
 42
1.0
 50
90.0
  0
INSERT
  8
DIMENSIONS
  2
DIMTICK_ARROW
 10
-1.0
 20
6.9999537194672445
 30
0.0
 41
1.0
 42
1.0
 50
270.0
  0
LINE
 62
7
  8
DIMENSIONS
 10
-1.0
 20
1.679988892672139
 30
0.0
 11
-1.0
 21
6.9999537194672445
 31
0.0
  0
LINE
 62
5
  8
DIMENSIONS
 10
-1.0
 20
1.679988892672139
 30
0.0
 11
0.0
 21
1.6799888926721387
 31
0.0
  0
LINE
 62
5
  8
DIMENSIONS
 10
-1.0
 20
6.9999537194672445
 30
0.0
 11
0.0
 21
6.9999537194672445
 31
0.0
  0
TEXT
 62
7
  8
DIMENSIONS
 10
-1.3
 20
4.339971306069692
 30
0.0
 40
0.2
  1
5
 50
90.0
  7
ISOCPEUR
 72
1
 73
2
 11
-1.3
 21
4.339971306069692
 31
0.0
  0
INSERT
  8
DIMENSIONS
  2
DIMTICK_ARROW
 10
-1.0
 20
1.679988892672139
 30
0.0
 41
1.0
 42
1.0
 50
90.0
  0
INSERT
  8
DIMENSIONS
  2
DIMTICK_ARROW
 10
-1.0
 20
6.9999537194672445
 30
0.0
 41
1.0
 42
1.0
 50
270.0
  0
LINE
 62
7
  8
DIMENSIONS
 10
-1.0
 20
1.679988892672139
 30
0.0
 11
-1.0
 21
6.9999537194672445
 31
0.0
  0
LINE
 62
5
  8
DIMENSIONS
 10
-1.0
 20
1.679988892672139
 30
0.0
 11
0.0
 21
1.6799888926721387
 31
0.0
  0
LINE
 62
5
  8
DIMENSIONS
 10
-1.0
 20
6.9999537194672445
 30
0.0
 11
0.0
 21
6.9999537194672445
 31
0.0
  0
TEXT
 62
7
  8
DIMENSIONS
 10
-1.3
 20
4.339971306069692
 30
0.0
 40
0.2
  1
5
 50
90.0
  7
ISOCPEUR
 72
1
 73
2
 11
-1.3
 21
4.339971306069692
 31
0.0
  0
INSERT
  8
DIMENSIONS
  2
DIMTICK_ARROW
 10
-1.0
 20
1.679988892672139
 30
0.0
 41
1.0
 42
1.0
 50
90.0
  0
INSERT
  8
DIMENSIONS
  2
DIMTICK_ARROW
 10
-1.0
 20
6.9999537194672445
 30
0.0
 41
1.0
 42
1.0
 50
270.0
  0
LINE
 62
7
  8
DIMENSIONS
 10
-1.0
 20
1.679988892672139
 30
0.0
 11
-1.0
 21
6.9999537194672445
 31
0.0
  0
LINE
 62
5
  8
DIMENSIONS
 10
-1.0
 20
1.679988892672139
 30
0.0
 11
0.0
 21
1.6799888926721387
 31
0.0
  0
LINE
 62
5
  8
DIMENSIONS
 10
-1.0
 20
6.9999537194672445
 30
0.0
 11
0.0
 21
6.9999537194672445
 31
0.0
  0
TEXT
 62
7
  8
DIMENSIONS
 10
-1.3
 20
4.339971306069692
 30
0.0
 40
0.2
  1
5
 50
90.0
  7
ISOCPEUR
 72
1
 73
2
 11
-1.3
 21
4.339971306069692
 31
0.0
  0
INSERT
  8
DIMENSIONS
  2
DIMTICK_ARROW
 10
-1.0
 20
1.679988892672139
 30
0.0
 41
1.0
 42
1.0
 50
90.0
  0
INSERT
  8
DIMENSIONS
  2
DIMTICK_ARROW
 10
-1.0
 20
6.9999537194672445
 30
0.0
 41
1.0
 42
1.0
 50
270.0
  0
LINE
 62
7
  8
DIMENSIONS
 10
-1.0
 20
1.679988892672139
 30
0.0
 11
-1.0
 21
6.9999537194672445
 31
0.0
  0
LINE
 62
5
  8
DIMENSIONS
 10
-1.0
 20
1.679988892672139
 30
0.0
 11
0.0
 21
1.6799888926721387
 31
0.0
  0
LINE
 62
5
  8
DIMENSIONS
 10
-1.0
 20
6.9999537194672445
 30
0.0
 11
0.0
 21
6.9999537194672445
 31
0.0
  0
TEXT
 62
7
  8
DIMENSIONS
 10
-1.3
 20
4.339971306069692
 30
0.0
 40
0.2
  1
5
 50
90.0
  7
ISOCPEUR
 72
1
 73
2
 11
-1.3
 21
4.339971306069692
 31
0.0
  0
INSERT
  8
DIMENSIONS
  2
DIMTICK_ARROW
 10
-1.0
 20
1.679988892672139
 30
0.0
 41
1.0
 42
1.0
 50
90.0
  0
INSERT
  8
DIMENSIONS
  2
DIMTICK_ARROW
 10
-1.0
 20
6.9999537194672445
 30
0.0
 41
1.0
 42
1.0
 50
270.0
  0
LINE
 62
7
  8
DIMENSIONS
 10
-1.0
 20
1.679988892672139
 30
0.0
 11
-1.0
 21
6.9999537194672445
 31
0.0
  0
LINE
 62
5
  8
DIMENSIONS
 10
-1.0
 20
1.679988892672139
 30
0.0
 11
0.0
 21
1.6799888926721387
 31
0.0
  0
LINE
 62
5
  8
DIMENSIONS
 10
-1.0
 20
6.9999537194672445
 30
0.0
 11
0.0
 21
6.9999537194672445
 31
0.0
  0
TEXT
 62
7
  8
DIMENSIONS
 10
-1.3
 20
4.339971306069692
 30
0.0
 40
0.2
  1
5
 50
90.0
  7
ISOCPEUR
 72
1
 73
2
 11
-1.3
 21
4.339971306069692
 31
0.0
  0
INSERT
  8
DIMENSIONS
  2
DIMTICK_ARROW
 10
-1.0
 20
1.679988892672139
 30
0.0
 41
1.0
 42
1.0
 50
90.0
  0
INSERT
  8
DIMENSIONS
  2
DIMTICK_ARROW
 10
-1.0
 20
6.9999537194672445
 30
0.0
 41
1.0
 42
1.0
 50
270.0
  0
LINE
 62
7
  8
DIMENSIONS
 10
-1.0
 20
1.679988892672139
 30
0.0
 11
-1.0
 21
6.9999537194672445
 31
0.0
  0
LINE
 62
5
  8
DIMENSIONS
 10
-1.0
 20
1.679988892672139
 30
0.0
 11
0.0
 21
1.6799888926721387
 31
0.0
  0
LINE
 62
5
  8
DIMENSIONS
 10
-1.0
 20
6.9999537194672445
 30
0.0
 11
0.0
 21
6.9999537194672445
 31
0.0
  0
TEXT
 62
7
  8
DIMENSIONS
 10
-1.3
 20
4.339971306069692
 30
0.0
 40
0.2
  1
5
 50
90.0
  7
ISOCPEUR
 72
1
 73
2
 11
-1.3
 21
4.339971306069692
 31
0.0
  0
INSERT
  8
DIMENSIONS
  2
DIMTICK_ARROW
 10
-1.0
 20
1.679988892672139
 30
0.0
 41
1.0
 42
1.0
 50
90.0
  0
INSERT
  8
DIMENSIONS
  2
DIMTICK_ARROW
 10
-1.0
 20
6.9999537194672445
 30
0.0
 41
1.0
 42
1.0
 50
270.0
  0
LINE
 62
7
  8
DIMENSIONS
 10
-1.0
 20
1.679988892672139
 30
0.0
 11
-1.0
 21
6.9999537194672445
 31
0.0
  0
LINE
 62
5
  8
DIMENSIONS
 10
-1.0
 20
1.679988892672139
 30
0.0
 11
0.0
 21
1.6799888926721387
 31
0.0
  0
LINE
 62
5
  8
DIMENSIONS
 10
-1.0
 20
6.9999537194672445
 30
0.0
 11
0.0
 21
6.9999537194672445
 31
0.0
  0
TEXT
 62
7
  8
DIMENSIONS
 10
-1.3
 20
4.339971306069692
 30
0.0
 40
0.2
  1
5
 50
90.0
  7
ISOCPEUR
 72
1
 73
2
 11
-1.3
 21
4.339971306069692
 31
0.0
  0
INSERT
  8
DIMENSIONS
  2
DIMTICK_ARROW
 10
-1.0
 20
1.679988892672139
 30
0.0
 41
1.0
 42
1.0
 50
90.0
  0
INSERT
  8
DIMENSIONS
  2
DIMTICK_ARROW
 10
-1.0
 20
6.9999537194672445
 30
0.0
 41
1.0
 42
1.0
 50
270.0
  0
LINE
 62
7
  8
DIMENSIONS
 10
-1.0
 20
1.679988892672139
 30
0.0
 11
-1.0
 21
6.9999537194672445
 31
0.0
  0
LINE
 62
5
  8
DIMENSIONS
 10
-1.0
 20
1.679988892672139
 30
0.0
 11
0.0
 21
1.6799888926721387
 31
0.0
  0
LINE
 62
5
  8
DIMENSIONS
 10
-1.0
 20
6.9999537194672445
 30
0.0
 11
0.0
 21
6.9999537194672445
 31
0.0
  0
TEXT
 62
7
  8
DIMENSIONS
 10
-1.3
 20
4.339971306069692
 30
0.0
 40
0.2
  1
5
 50
90.0
  7
ISOCPEUR
 72
1
 73
2
 11
-1.3
 21
4.339971306069692
 31
0.0
  0
INSERT
  8
DIMENSIONS
  2
DIMTICK_ARROW
 10
-1.0
 20
1.679988892672139
 30
0.0
 41
1.0
 42
1.0
 50
90.0
  0
INSERT
  8
DIMENSIONS
  2
DIMTICK_ARROW
 10
-1.0
 20
6.9999537194672445
 30
0.0
 41
1.0
 42
1.0
 50
270.0
  0
LINE
 62
7
  8
DIMENSIONS
 10
-1.0
 20
1.679988892672139
 30
0.0
 11
-1.0
 21
6.9999537194672445
 31
0.0
  0
LINE
 62
5
  8
DIMENSIONS
 10
-1.0
 20
1.679988892672139
 30
0.0
 11
0.0
 21
1.6799888926721387
 31
0.0
  0
LINE
 62
5
  8
DIMENSIONS
 10
-1.0
 20
6.9999537194672445
 30
0.0
 11
0.0
 21
6.9999537194672445
 31
0.0
  0
TEXT
 62
7
  8
DIMENSIONS
 10
-1.3
 20
4.339971306069692
 30
0.0
 40
0.2
  1
5
 50
90.0
  7
ISOCPEUR
 72
1
 73
2
 11
-1.3
 21
4.339971306069692
 31
0.0
  0
INSERT
  8
DIMENSIONS
  2
DIMTICK_ARROW
 10
-1.0
 20
1.679988892672139
 30
0.0
 41
1.0
 42
1.0
 50
90.0
  0
INSERT
  8
DIMENSIONS
  2
DIMTICK_ARROW
 10
-1.0
 20
6.9999537194672445
 30
0.0
 41
1.0
 42
1.0
 50
270.0
  0
LINE
 62
7
  8
DIMENSIONS
 10
-1.0
 20
1.679988892672139
 30
0.0
 11
-1.0
 21
6.9999537194672445
 31
0.0
  0
LINE
 62
5
  8
DIMENSIONS
 10
-1.0
 20
1.679988892672139
 30
0.0
 11
0.0
 21
1.6799888926721387
 31
0.0
  0
LINE
 62
5
  8
DIMENSIONS
 10
-1.0
 20
6.9999537194672445
 30
0.0
 11
0.0
 21
6.9999537194672445
 31
0.0
  0
TEXT
 62
7
  8
DIMENSIONS
 10
-1.3
 20
4.339971306069692
 30
0.0
 40
0.2
  1
5
 50
90.0
  7
ISOCPEUR
 72
1
 73
2
 11
-1.3
 21
4.339971306069692
 31
0.0
  0
INSERT
  8
DIMENSIONS
  2
DIMTICK_ARROW
 10
-1.0
 20
1.679988892672139
 30
0.0
 41
1.0
 42
1.0
 50
90.0
  0
INSERT
  8
DIMENSIONS
  2
DIMTICK_ARROW
 10
-1.0
 20
6.9999537194672445
 30
0.0
 41
1.0
 42
1.0
 50
270.0
  0
LINE
 62
7
  8
DIMENSIONS
 10
-1.0
 20
1.679988892672139
 30
0.0
 11
-1.0
 21
6.9999537194672445
 31
0.0
  0
LINE
 62
5
  8
DIMENSIONS
 10
-1.0
 20
1.679988892672139
 30
0.0
 11
0.0
 21
1.6799888926721387
 31
0.0
  0
LINE
 62
5
  8
DIMENSIONS
 10
-1.0
 20
6.9999537194672445
 30
0.0
 11
0.0
 21
6.9999537194672445
 31
0.0
  0
TEXT
 62
7
  8
DIMENSIONS
 10
-1.3
 20
4.339971306069692
 30
0.0
 40
0.2
  1
5
 50
90.0
  7
ISOCPEUR
 72
1
 73
2
 11
-1.3
 21
4.339971306069692
 31
0.0
  0
INSERT
  8
DIMENSIONS
  2
DIMTICK_ARROW
 10
-1.0
 20
1.679988892672139
 30
0.0
 41
1.0
 42
1.0
 50
90.0
  0
INSERT
  8
DIMENSIONS
  2
DIMTICK_ARROW
 10
-1.0
 20
6.9999537194672445
 30
0.0
 41
1.0
 42
1.0
 50
270.0
  0
LINE
 62
7
  8
DIMENSIONS
 10
-1.0
 20
1.679988892672139
 30
0.0
 11
-1.0
 21
6.9999537194672445
 31
0.0
  0
LINE
 62
5
  8
DIMENSIONS
 10
-1.0
 20
1.679988892672139
 30
0.0
 11
0.0
 21
1.6799888926721387
 31
0.0
  0
LINE
 62
5
  8
DIMENSIONS
 10
-1.0
 20
6.9999537194672445
 30
0.0
 11
0.0
 21
6.9999537194672445
 31
0.0
  0
TEXT
 62
7
  8
DIMENSIONS
 10
-1.3
 20
4.339971306069692
 30
0.0
 40
0.2
  1
5
 50
90.0
  7
ISOCPEUR
 72
1
 73
2
 11
-1.3
 21
4.339971306069692
 31
0.0
  0
INSERT
  8
DIMENSIONS
  2
DIMTICK_ARROW
 10
-1.0
 20
1.679988892672139
 30
0.0
 41
1.0
 42
1.0
 50
90.0
  0
INSERT
  8
DIMENSIONS
  2
DIMTICK_ARROW
 10
-1.0
 20
6.9999537194672445
 30
0.0
 41
1.0
 42
1.0
 50
270.0
  0
LINE
 62
3
  8
0
 10
11.174471573985892
 20
0.0
 30
0.0
 11
11.174471573985892
 21
6.9999537194672445
 31
0.0
  0
LINE
 62
7
  8
DIMENSIONS
 10
12.091138240652558
 20
-1.4899869389626122e-16
 30
0.0
 11
12.091138240652558
 21
6.999953719467244
 31
0.0
  0
LINE
 62
5
  8
DIMENSIONS
 10
12.091138240652558
 20
-1.4899869389626122e-16
 30
0.0
 11
11.174471573985892
 21
-3.6739403974420564e-17
 31
0.0
  0
LINE
 62
5
  8
DIMENSIONS
 10
12.091138240652558
 20
6.999953719467244
 30
0.0
 11
11.174471573985892
 21
6.9999537194672445
 31
0.0
  0
TEXT
 62
7
  8
DIMENSIONS
 10
11.791138240652558
 20
3.499976859733622
 30
0.0
 40
0.2
  1
7
 50
90.0
  7
ISOCPEUR
 72
1
 73
2
 11
11.791138240652558
 21
3.499976859733622
 31
0.0
  0
INSERT
  8
DIMENSIONS
  2
DIMTICK_ARROW
 10
12.091138240652558
 20
-1.4899869389626122e-16
 30
0.0
 41
1.0
 42
1.0
 50
90.0
  0
INSERT
  8
DIMENSIONS
  2
DIMTICK_ARROW
 10
12.091138240652558
 20
6.999953719467244
 30
0.0
 41
1.0
 42
1.0
 50
270.0
  0
LINE
 62
7
  8
DIMENSIONS
 10
12.091138240652558
 20
-1.4899869389626122e-16
 30
0.0
 11
12.091138240652558
 21
6.999953719467244
 31
0.0
  0
LINE
 62
5
  8
DIMENSIONS
 10
12.091138240652558
 20
-1.4899869389626122e-16
 30
0.0
 11
11.174471573985892
 21
-3.6739403974420564e-17
 31
0.0
  0
LINE
 62
5
  8
DIMENSIONS
 10
12.091138240652558
 20
6.999953719467244
 30
0.0
 11
11.174471573985892
 21
6.9999537194672445
 31
0.0
  0
TEXT
 62
7
  8
DIMENSIONS
 10
11.791138240652558
 20
3.499976859733622
 30
0.0
 40
0.2
  1
7
 50
90.0
  7
ISOCPEUR
 72
1
 73
2
 11
11.791138240652558
 21
3.499976859733622
 31
0.0
  0
INSERT
  8
DIMENSIONS
  2
DIMTICK_ARROW
 10
12.091138240652558
 20
-1.4899869389626122e-16
 30
0.0
 41
1.0
 42
1.0
 50
90.0
  0
INSERT
  8
DIMENSIONS
  2
DIMTICK_ARROW
 10
12.091138240652558
 20
6.999953719467244
 30
0.0
 41
1.0
 42
1.0
 50
270.0
  0
LINE
 62
7
  8
DIMENSIONS
 10
12.091138240652558
 20
-1.4899869389626122e-16
 30
0.0
 11
12.091138240652558
 21
6.999953719467244
 31
0.0
  0
LINE
 62
5
  8
DIMENSIONS
 10
12.091138240652558
 20
-1.4899869389626122e-16
 30
0.0
 11
11.174471573985892
 21
-3.6739403974420564e-17
 31
0.0
  0
LINE
 62
5
  8
DIMENSIONS
 10
12.091138240652558
 20
6.999953719467244
 30
0.0
 11
11.174471573985892
 21
6.9999537194672445
 31
0.0
  0
TEXT
 62
7
  8
DIMENSIONS
 10
11.791138240652558
 20
3.499976859733622
 30
0.0
 40
0.2
  1
7
 50
90.0
  7
ISOCPEUR
 72
1
 73
2
 11
11.791138240652558
 21
3.499976859733622
 31
0.0
  0
INSERT
  8
DIMENSIONS
  2
DIMTICK_ARROW
 10
12.091138240652558
 20
-1.4899869389626122e-16
 30
0.0
 41
1.0
 42
1.0
 50
90.0
  0
INSERT
  8
DIMENSIONS
  2
DIMTICK_ARROW
 10
12.091138240652558
 20
6.999953719467244
 30
0.0
 41
1.0
 42
1.0
 50
270.0
  0
LINE
 62
7
  8
DIMENSIONS
 10
12.091138240652558
 20
-1.4899869389626122e-16
 30
0.0
 11
12.091138240652558
 21
6.999953719467244
 31
0.0
  0
LINE
 62
5
  8
DIMENSIONS
 10
12.091138240652558
 20
-1.4899869389626122e-16
 30
0.0
 11
11.174471573985892
 21
-3.6739403974420564e-17
 31
0.0
  0
LINE
 62
5
  8
DIMENSIONS
 10
12.091138240652558
 20
6.999953719467244
 30
0.0
 11
11.174471573985892
 21
6.9999537194672445
 31
0.0
  0
TEXT
 62
7
  8
DIMENSIONS
 10
11.791138240652558
 20
3.499976859733622
 30
0.0
 40
0.2
  1
7
 50
90.0
  7
ISOCPEUR
 72
1
 73
2
 11
11.791138240652558
 21
3.499976859733622
 31
0.0
  0
INSERT
  8
DIMENSIONS
  2
DIMTICK_ARROW
 10
12.091138240652558
 20
-1.4899869389626122e-16
 30
0.0
 41
1.0
 42
1.0
 50
90.0
  0
INSERT
  8
DIMENSIONS
  2
DIMTICK_ARROW
 10
12.091138240652558
 20
6.999953719467244
 30
0.0
 41
1.0
 42
1.0
 50
270.0
  0
LINE
 62
7
  8
DIMENSIONS
 10
12.091138240652558
 20
-1.4899869389626122e-16
 30
0.0
 11
12.091138240652558
 21
6.999953719467244
 31
0.0
  0
LINE
 62
5
  8
DIMENSIONS
 10
12.091138240652558
 20
-1.4899869389626122e-16
 30
0.0
 11
11.174471573985892
 21
-3.6739403974420564e-17
 31
0.0
  0
LINE
 62
5
  8
DIMENSIONS
 10
12.091138240652558
 20
6.999953719467244
 30
0.0
 11
11.174471573985892
 21
6.9999537194672445
 31
0.0
  0
TEXT
 62
7
  8
DIMENSIONS
 10
11.791138240652558
 20
3.499976859733622
 30
0.0
 40
0.2
  1
7
 50
90.0
  7
ISOCPEUR
 72
1
 73
2
 11
11.791138240652558
 21
3.499976859733622
 31
0.0
  0
INSERT
  8
DIMENSIONS
  2
DIMTICK_ARROW
 10
12.091138240652558
 20
-1.4899869389626122e-16
 30
0.0
 41
1.0
 42
1.0
 50
90.0
  0
INSERT
  8
DIMENSIONS
  2
DIMTICK_ARROW
 10
12.091138240652558
 20
6.999953719467244
 30
0.0
 41
1.0
 42
1.0
 50
270.0
  0
LINE
 62
7
  8
DIMENSIONS
 10
12.091138240652558
 20
-1.4899869389626122e-16
 30
0.0
 11
12.091138240652558
 21
6.999953719467244
 31
0.0
  0
LINE
 62
5
  8
DIMENSIONS
 10
12.091138240652558
 20
-1.4899869389626122e-16
 30
0.0
 11
11.174471573985892
 21
-3.6739403974420564e-17
 31
0.0
  0
LINE
 62
5
  8
DIMENSIONS
 10
12.091138240652558
 20
6.999953719467244
 30
0.0
 11
11.174471573985892
 21
6.9999537194672445
 31
0.0
  0
TEXT
 62
7
  8
DIMENSIONS
 10
11.791138240652558
 20
3.499976859733622
 30
0.0
 40
0.2
  1
7
 50
90.0
  7
ISOCPEUR
 72
1
 73
2
 11
11.791138240652558
 21
3.499976859733622
 31
0.0
  0
INSERT
  8
DIMENSIONS
  2
DIMTICK_ARROW
 10
12.091138240652558
 20
-1.4899869389626122e-16
 30
0.0
 41
1.0
 42
1.0
 50
90.0
  0
INSERT
  8
DIMENSIONS
  2
DIMTICK_ARROW
 10
12.091138240652558
 20
6.999953719467244
 30
0.0
 41
1.0
 42
1.0
 50
270.0
  0
LINE
 62
7
  8
DIMENSIONS
 10
12.091138240652558
 20
-1.4899869389626122e-16
 30
0.0
 11
12.091138240652558
 21
6.999953719467244
 31
0.0
  0
LINE
 62
5
  8
DIMENSIONS
 10
12.091138240652558
 20
-1.4899869389626122e-16
 30
0.0
 11
11.174471573985892
 21
-3.6739403974420564e-17
 31
0.0
  0
LINE
 62
5
  8
DIMENSIONS
 10
12.091138240652558
 20
6.999953719467244
 30
0.0
 11
11.174471573985892
 21
6.9999537194672445
 31
0.0
  0
TEXT
 62
7
  8
DIMENSIONS
 10
11.791138240652558
 20
3.499976859733622
 30
0.0
 40
0.2
  1
7
 50
90.0
  7
ISOCPEUR
 72
1
 73
2
 11
11.791138240652558
 21
3.499976859733622
 31
0.0
  0
INSERT
  8
DIMENSIONS
  2
DIMTICK_ARROW
 10
12.091138240652558
 20
-1.4899869389626122e-16
 30
0.0
 41
1.0
 42
1.0
 50
90.0
  0
INSERT
  8
DIMENSIONS
  2
DIMTICK_ARROW
 10
12.091138240652558
 20
6.999953719467244
 30
0.0
 41
1.0
 42
1.0
 50
270.0
  0
LINE
 62
7
  8
DIMENSIONS
 10
12.091138240652558
 20
-1.4899869389626122e-16
 30
0.0
 11
12.091138240652558
 21
6.999953719467244
 31
0.0
  0
LINE
 62
5
  8
DIMENSIONS
 10
12.091138240652558
 20
-1.4899869389626122e-16
 30
0.0
 11
11.174471573985892
 21
-3.6739403974420564e-17
 31
0.0
  0
LINE
 62
5
  8
DIMENSIONS
 10
12.091138240652558
 20
6.999953719467244
 30
0.0
 11
11.174471573985892
 21
6.9999537194672445
 31
0.0
  0
TEXT
 62
7
  8
DIMENSIONS
 10
11.791138240652558
 20
3.499976859733622
 30
0.0
 40
0.2
  1
7
 50
90.0
  7
ISOCPEUR
 72
1
 73
2
 11
11.791138240652558
 21
3.499976859733622
 31
0.0
  0
INSERT
  8
DIMENSIONS
  2
DIMTICK_ARROW
 10
12.091138240652558
 20
-1.4899869389626122e-16
 30
0.0
 41
1.0
 42
1.0
 50
90.0
  0
INSERT
  8
DIMENSIONS
  2
DIMTICK_ARROW
 10
12.091138240652558
 20
6.999953719467244
 30
0.0
 41
1.0
 42
1.0
 50
270.0
  0
LINE
 62
7
  8
DIMENSIONS
 10
12.091138240652558
 20
-1.4899869389626122e-16
 30
0.0
 11
12.091138240652558
 21
6.999953719467244
 31
0.0
  0
LINE
 62
5
  8
DIMENSIONS
 10
12.091138240652558
 20
-1.4899869389626122e-16
 30
0.0
 11
11.174471573985892
 21
-3.6739403974420564e-17
 31
0.0
  0
LINE
 62
5
  8
DIMENSIONS
 10
12.091138240652558
 20
6.999953719467244
 30
0.0
 11
11.174471573985892
 21
6.9999537194672445
 31
0.0
  0
TEXT
 62
7
  8
DIMENSIONS
 10
11.791138240652558
 20
3.499976859733622
 30
0.0
 40
0.2
  1
7
 50
90.0
  7
ISOCPEUR
 72
1
 73
2
 11
11.791138240652558
 21
3.499976859733622
 31
0.0
  0
INSERT
  8
DIMENSIONS
  2
DIMTICK_ARROW
 10
12.091138240652558
 20
-1.4899869389626122e-16
 30
0.0
 41
1.0
 42
1.0
 50
90.0
  0
INSERT
  8
DIMENSIONS
  2
DIMTICK_ARROW
 10
12.091138240652558
 20
6.999953719467244
 30
0.0
 41
1.0
 42
1.0
 50
270.0
  0
LINE
 62
7
  8
DIMENSIONS
 10
12.091138240652558
 20
-1.4899869389626122e-16
 30
0.0
 11
12.091138240652558
 21
6.999953719467244
 31
0.0
  0
LINE
 62
5
  8
DIMENSIONS
 10
12.091138240652558
 20
-1.4899869389626122e-16
 30
0.0
 11
11.174471573985892
 21
-3.6739403974420564e-17
 31
0.0
  0
LINE
 62
5
  8
DIMENSIONS
 10
12.091138240652558
 20
6.999953719467244
 30
0.0
 11
11.174471573985892
 21
6.9999537194672445
 31
0.0
  0
TEXT
 62
7
  8
DIMENSIONS
 10
11.791138240652558
 20
3.499976859733622
 30
0.0
 40
0.2
  1
7
 50
90.0
  7
ISOCPEUR
 72
1
 73
2
 11
11.791138240652558
 21
3.499976859733622
 31
0.0
  0
INSERT
  8
DIMENSIONS
  2
DIMTICK_ARROW
 10
12.091138240652558
 20
-1.4899869389626122e-16
 30
0.0
 41
1.0
 42
1.0
 50
90.0
  0
INSERT
  8
DIMENSIONS
  2
DIMTICK_ARROW
 10
12.091138240652558
 20
6.999953719467244
 30
0.0
 41
1.0
 42
1.0
 50
270.0
  0
LINE
 62
7
  8
DIMENSIONS
 10
12.091138240652558
 20
-1.4899869389626122e-16
 30
0.0
 11
12.091138240652558
 21
6.999953719467244
 31
0.0
  0
LINE
 62
5
  8
DIMENSIONS
 10
12.091138240652558
 20
-1.4899869389626122e-16
 30
0.0
 11
11.174471573985892
 21
-3.6739403974420564e-17
 31
0.0
  0
LINE
 62
5
  8
DIMENSIONS
 10
12.091138240652558
 20
6.999953719467244
 30
0.0
 11
11.174471573985892
 21
6.9999537194672445
 31
0.0
  0
TEXT
 62
7
  8
DIMENSIONS
 10
11.791138240652558
 20
3.499976859733622
 30
0.0
 40
0.2
  1
7
 50
90.0
  7
ISOCPEUR
 72
1
 73
2
 11
11.791138240652558
 21
3.499976859733622
 31
0.0
  0
INSERT
  8
DIMENSIONS
  2
DIMTICK_ARROW
 10
12.091138240652558
 20
-1.4899869389626122e-16
 30
0.0
 41
1.0
 42
1.0
 50
90.0
  0
INSERT
  8
DIMENSIONS
  2
DIMTICK_ARROW
 10
12.091138240652558
 20
6.999953719467244
 30
0.0
 41
1.0
 42
1.0
 50
270.0
  0
LINE
 62
7
  8
DIMENSIONS
 10
12.091138240652558
 20
-1.4899869389626122e-16
 30
0.0
 11
12.091138240652558
 21
6.999953719467244
 31
0.0
  0
LINE
 62
5
  8
DIMENSIONS
 10
12.091138240652558
 20
-1.4899869389626122e-16
 30
0.0
 11
11.174471573985892
 21
-3.6739403974420564e-17
 31
0.0
  0
LINE
 62
5
  8
DIMENSIONS
 10
12.091138240652558
 20
6.999953719467244
 30
0.0
 11
11.174471573985892
 21
6.9999537194672445
 31
0.0
  0
TEXT
 62
7
  8
DIMENSIONS
 10
11.791138240652558
 20
3.499976859733622
 30
0.0
 40
0.2
  1
7
 50
90.0
  7
ISOCPEUR
 72
1
 73
2
 11
11.791138240652558
 21
3.499976859733622
 31
0.0
  0
INSERT
  8
DIMENSIONS
  2
DIMTICK_ARROW
 10
12.091138240652558
 20
-1.4899869389626122e-16
 30
0.0
 41
1.0
 42
1.0
 50
90.0
  0
INSERT
  8
DIMENSIONS
  2
DIMTICK_ARROW
 10
12.091138240652558
 20
6.999953719467244
 30
0.0
 41
1.0
 42
1.0
 50
270.0
  0
LINE
 62
7
  8
DIMENSIONS
 10
12.091138240652558
 20
-1.4899869389626122e-16
 30
0.0
 11
12.091138240652558
 21
6.999953719467244
 31
0.0
  0
LINE
 62
5
  8
DIMENSIONS
 10
12.091138240652558
 20
-1.4899869389626122e-16
 30
0.0
 11
11.174471573985892
 21
-3.6739403974420564e-17
 31
0.0
  0
LINE
 62
5
  8
DIMENSIONS
 10
12.091138240652558
 20
6.999953719467244
 30
0.0
 11
11.174471573985892
 21
6.9999537194672445
 31
0.0
  0
TEXT
 62
7
  8
DIMENSIONS
 10
11.791138240652558
 20
3.499976859733622
 30
0.0
 40
0.2
  1
7
 50
90.0
  7
ISOCPEUR
 72
1
 73
2
 11
11.791138240652558
 21
3.499976859733622
 31
0.0
  0
INSERT
  8
DIMENSIONS
  2
DIMTICK_ARROW
 10
12.091138240652558
 20
-1.4899869389626122e-16
 30
0.0
 41
1.0
 42
1.0
 50
90.0
  0
INSERT
  8
DIMENSIONS
  2
DIMTICK_ARROW
 10
12.091138240652558
 20
6.999953719467244
 30
0.0
 41
1.0
 42
1.0
 50
270.0
  0
LINE
 62
7
  8
DIMENSIONS
 10
12.091138240652558
 20
-1.4899869389626122e-16
 30
0.0
 11
12.091138240652558
 21
6.999953719467244
 31
0.0
  0
LINE
 62
5
  8
DIMENSIONS
 10
12.091138240652558
 20
-1.4899869389626122e-16
 30
0.0
 11
11.174471573985892
 21
-3.6739403974420564e-17
 31
0.0
  0
LINE
 62
5
  8
DIMENSIONS
 10
12.091138240652558
 20
6.999953719467244
 30
0.0
 11
11.174471573985892
 21
6.9999537194672445
 31
0.0
  0
TEXT
 62
7
  8
DIMENSIONS
 10
11.791138240652558
 20
3.499976859733622
 30
0.0
 40
0.2
  1
7
 50
90.0
  7
ISOCPEUR
 72
1
 73
2
 11
11.791138240652558
 21
3.499976859733622
 31
0.0
  0
INSERT
  8
DIMENSIONS
  2
DIMTICK_ARROW
 10
12.091138240652558
 20
-1.4899869389626122e-16
 30
0.0
 41
1.0
 42
1.0
 50
90.0
  0
INSERT
  8
DIMENSIONS
  2
DIMTICK_ARROW
 10
12.091138240652558
 20
6.999953719467244
 30
0.0
 41
1.0
 42
1.0
 50
270.0
  0
LINE
 62
7
  8
DIMENSIONS
 10
12.091138240652558
 20
-1.4899869389626122e-16
 30
0.0
 11
12.091138240652558
 21
6.999953719467244
 31
0.0
  0
LINE
 62
5
  8
DIMENSIONS
 10
12.091138240652558
 20
-1.4899869389626122e-16
 30
0.0
 11
11.174471573985892
 21
-3.6739403974420564e-17
 31
0.0
  0
LINE
 62
5
  8
DIMENSIONS
 10
12.091138240652558
 20
6.999953719467244
 30
0.0
 11
11.174471573985892
 21
6.9999537194672445
 31
0.0
  0
TEXT
 62
7
  8
DIMENSIONS
 10
11.791138240652558
 20
3.499976859733622
 30
0.0
 40
0.2
  1
7
 50
90.0
  7
ISOCPEUR
 72
1
 73
2
 11
11.791138240652558
 21
3.499976859733622
 31
0.0
  0
INSERT
  8
DIMENSIONS
  2
DIMTICK_ARROW
 10
12.091138240652558
 20
-1.4899869389626122e-16
 30
0.0
 41
1.0
 42
1.0
 50
90.0
  0
INSERT
  8
DIMENSIONS
  2
DIMTICK_ARROW
 10
12.091138240652558
 20
6.999953719467244
 30
0.0
 41
1.0
 42
1.0
 50
270.0
  0
LINE
 62
3
  8
0
 10
6.84722745649705
 20
2.18907643590612
 30
0.0
 11
6.84722745649705
 21
4.963603546531319
 31
0.0
  0
LINE
 62
3
  8
0
 10
4.199972231680347
 20
4.963603546531319
 30
0.0
 11
4.199972231680347
 21
2.18907643590612
 31
0.0
  0
LINE
 62
3
  8
0
 10
0.0
 20
1.6799888926721387
 30
0.0
 11
0.0
 21
6.9999537194672445
 31
0.0
  0
LINE
 62
3
  8
0
 10
11.174471573985892
 20
0.0
 30
0.0
 11
11.174471573985892
 21
6.9999537194672445
 31
0.0
  0
LINE
 62
3
  8
0
 10
1.5527170068636433
 20
2.18907643590612
 30
0.0
 11
1.9599870414508285
 21
2.18907643590612
 31
0.0
  0
LINE
 62
3
  8
0
 10
9.163575778211666
 20
4.963603546531319
 30
0.0
 11
10.181750864679628
 21
4.963603546531319
 31
0.0
  0
LINE
 62
3
  8
0
 10
4.199972231680347
 20
4.963603546531319
 30
0.0
 11
6.84722745649705
 21
4.963603546531319
 31
0.0
  0
LINE
 62
3
  8
0
 10
4.199972231680347
 20
2.18907643590612
 30
0.0
 11
6.84722745649705
 21
2.18907643590612
 31
0.0
  0
LINE
 62
3
  8
0
 10
0.0
 20
0.0
 30
0.0
 11
11.174471573985892
 21
0.0
 31
0.0
  0
LINE
 62
3
  8
0
 10
0.0
 20
6.9999537194672445
 30
0.0
 11
11.174471573985892
 21
6.9999537194672445
 31
0.0
  0
ARC
 62
3
  8
0
 10
9.647208944283948
 20
5.676326107058893
 30
0.0
 40
1.0181750864679628
 50
0.0
 51
180.0
  0
CIRCLE
 62
3
  8
0
 10
1.807260778480634
 20
5.727234861382291
 30
0.0
 40
0.712722560527574
  0
LINE
 62
7
  8
DIMENSIONS
 10
1.807260778480634
 20
5.439957421909865
 30
0.0
 11
1.807260778480634
 21
6.439957421909865
 31
0.0
  0
TEXT
 62
7
  8
DIMENSIONS
 10
1.807260778480634
 20
5.239957421909865
 30
0.0
 40
0.2
  1
R=71
 50
90.0
  7
ISOCPEUR
 72
2
 73
2
 11
1.807260778480634
 21
5.239957421909865
 31
0.0
  0
INSERT
  8
DIMENSIONS
  2
DIMTICK_RADIUS
 10
1.807260778480634
 20
6.439957421909865
 30
0.0
 41
1.0
 42
1.0
 50
270.0
  0
LINE
 62
7
  8
DIMENSIONS
 10
1.807260778480634
 20
5.439957421909865
 30
0.0
 11
1.807260778480634
 21
6.439957421909865
 31
0.0
  0
TEXT
 62
7
  8
DIMENSIONS
 10
1.807260778480634
 20
5.239957421909865
 30
0.0
 40
0.2
  1
R=71
 50
90.0
  7
ISOCPEUR
 72
2
 73
2
 11
1.807260778480634
 21
5.239957421909865
 31
0.0
  0
INSERT
  8
DIMENSIONS
  2
DIMTICK_RADIUS
 10
1.807260778480634
 20
6.439957421909865
 30
0.0
 41
1.0
 42
1.0
 50
270.0
  0
LINE
 62
7
  8
DIMENSIONS
 10
1.807260778480634
 20
5.439957421909865
 30
0.0
 11
1.807260778480634
 21
6.439957421909865
 31
0.0
  0
TEXT
 62
7
  8
DIMENSIONS
 10
1.807260778480634
 20
5.239957421909865
 30
0.0
 40
0.2
  1
R=71
 50
90.0
  7
ISOCPEUR
 72
2
 73
2
 11
1.807260778480634
 21
5.239957421909865
 31
0.0
  0
INSERT
  8
DIMENSIONS
  2
DIMTICK_RADIUS
 10
1.807260778480634
 20
6.439957421909865
 30
0.0
 41
1.0
 42
1.0
 50
270.0
  0
CIRCLE
 62
3
  8
0
 10
9.647208944283948
 20
1.2472644809232545
 30
0.0
 40
0.712722560527574
  0
LINE
 62
7
  8
DIMENSIONS
 10
9.484999900309644
 20
1.0101641787666018
 30
0.0
 11
10.04964237370468
 21
1.8354997936762802
 31
0.0
  0
TEXT
 62
7
  8
DIMENSIONS
 10
9.372071405630638
 20
0.8450970557846662
 30
0.0
 40
0.2
  1
R=71
 50
55.62253229215062
  7
ISOCPEUR
 72
2
 73
2
 11
9.372071405630638
 21
0.8450970557846662
 31
0.0
  0
INSERT
  8
DIMENSIONS
  2
DIMTICK_RADIUS
 10
10.04964237370468
 20
1.8354997936762802
 30
0.0
 41
1.0
 42
1.0
 50
235.62253229215062
  0
LINE
 62
7
  8
DIMENSIONS
 10
9.484999900309644
 20
1.0101641787666018
 30
0.0
 11
10.04964237370468
 21
1.8354997936762802
 31
0.0
  0
TEXT
 62
7
  8
DIMENSIONS
 10
9.372071405630638
 20
0.8450970557846662
 30
0.0
 40
0.2
  1
R=71
 50
55.62253229215062
  7
ISOCPEUR
 72
2
 73
2
 11
9.372071405630638
 21
0.8450970557846662
 31
0.0
  0
INSERT
  8
DIMENSIONS
  2
DIMTICK_RADIUS
 10
10.04964237370468
 20
1.8354997936762802
 30
0.0
 41
1.0
 42
1.0
 50
235.62253229215062
  0
CIRCLE
 62
3
  8
0
 10
1.756352024157236
 20
1.2981732352466526
 30
0.0
 40
0.712722560527574
  0
LINE
 62
7
  8
DIMENSIONS
 10
1.4885982220523508
 20
1.1940760273676159
 30
0.0
 11
2.420637308019577
 21
1.5564337818442895
 31
0.0
  0
TEXT
 62
7
  8
DIMENSIONS
 10
1.3021904048589057
 20
1.121604476472281
 30
0.0
 40
0.2
  1
R=71
 50
21.245064584301222
  7
ISOCPEUR
 72
2
 73
2
 11
1.3021904048589057
 21
1.121604476472281
 31
0.0
  0
INSERT
  8
DIMENSIONS
  2
DIMTICK_RADIUS
 10
2.420637308019577
 20
1.5564337818442895
 30
0.0
 41
1.0
 42
1.0
 50
201.24506458430122
  0
ENDSEC
  0
EOF
