  0
SECTION
  2
HEADER
  9
$ACADVER
  1
AC1009
  9
$INSBASE
 10
0.0
 20
0.0
 30
0.0
  9
$EXTMIN
 10
0.0
 20
0.0
 30
0.0
  9
$EXTMAX
 10
100.0
 20
100.0
 30
0.0
  9
$UNITMODE
 70
0
  9
$AUNITS
 70
0
  9
$ANGBASE
 50
0.0
  9
$ANGDIR
 70
0
  0
ENDSEC
  0
SECTION
  2
TABLES
  0
TABLE
  2
LTYPE
 70
19
  0
LTYPE
  2
CONTINUOUS
 70
0
  3
Solid
 72
65
 73
0
 40
0.0
  0
LTYPE
  2
CENTER
 70
0
  3
Center ____ _ ____ _ ____ _ ____ _ ____ _ ____
 72
65
 73
4
 40
2.0
 49
1.25
 49
-0.25
 49
0.25
 49
-0.25
  0
LTYPE
  2
CENTERX2
 70
0
  3
Center (2x) ________  __  ________  __  ________
 72
65
 73
4
 40
3.5
 49
2.5
 49
-0.25
 49
0.5
 49
-0.25
  0
LTYPE
  2
CENTER2
 70
0
  3
Center (.5x) ____ _ ____ _ ____ _ ____ _ ____
 72
65
 73
4
 40
1.0
 49
0.625
 49
-0.125
 49
0.125
 49
-0.125
  0
LTYPE
  2
DASHED
 70
0
  3
Dashed __ __ __ __ __ __ __ __ __ __ __ __ __ _
 72
65
 73
2
 40
0.6
 49
0.5
 49
-0.1
  0
LTYPE
  2
DASHEDX2
 70
0
  3
Dashed (2x) ____  ____  ____  ____  ____  ____
 72
65
 73
2
 40
1.2
 49
1.0
 49
-0.2
  0
LTYPE
  2
DASHED2
 70
0
  3
Dashed (.5x) _ _ _ _ _ _ _ _ _ _ _ _ _ _
 72
65
 73
2
 40
0.3
 49
0.25
 49
-0.05
  0
LTYPE
  2
PHANTOM
 70
0
  3
Phantom ______  __  __  ______  __  __  ______
 72
65
 73
6
 40
2.5
 49
1.25
 49
-0.25
 49
0.25
 49
-0.25
 49
0.25
 49
-0.25
  0
LTYPE
  2
PHANTOMX2
 70
0
  3
Phantom (2x)____________    ____    ____    ____________
 72
65
 73
6
 40
4.25
 49
2.5
 49
-0.25
 49
0.5
 49
-0.25
 49
0.5
 49
-0.25
  0
LTYPE
  2
PHANTOM2
 70
0
  3
Phantom (.5x) ___ _ _ ___ _ _ ___ _ _ ___ _ _ ___
 72
65
 73
6
 40
1.25
 49
0.625
 49
-0.125
 49
0.125
 49
-0.125
 49
0.125
 49
-0.125
  0
LTYPE
  2
DASHDOT
 70
0
  3
Dash dot __ . __ . __ . __ . __ . __ . __ . __
 72
65
 73
4
 40
1.4
 49
1.0
 49
-0.2
 49
0.0
 49
-0.2
  0
LTYPE
  2
DASHDOTX2
 70
0
  3
Dash dot (2x) ____  .  ____  .  ____  .  ____
 72
65
 73
4
 40
2.4
 49
2.0
 49
-0.2
 49
0.0
 49
-0.2
  0
LTYPE
  2
DASHDOT2
 70
0
  3
Dash dot (.5x) _ . _ . _ . _ . _ . _ . _ . _
 72
65
 73
4
 40
0.7
 49
0.5
 49
-0.1
 49
0.0
 49
-0.1
  0
LTYPE
  2
DOT
 70
0
  3
Dot .  .  .  .  .  .  .  .  .  .  .  .  .  .  .  .
 72
65
 73
2
 40
0.2
 49
0.0
 49
-0.2
  0
LTYPE
  2
DOTX2
 70
0
  3
Dot (2x) .    .    .    .    .    .    .    . 
 72
65
 73
2
 40
0.4
 49
0.0
 49
-0.4
  0
LTYPE
  2
DOT2
 70
0
  3
Dot (.5) . . . . . . . . . . . . . . . . . . . 
 72
65
 73
2
 40
0.1
 49
0.0
 49
-0.1
  0
LTYPE
  2
DIVIDE
 70
0
  3
Divide __ . . __ . . __ . . __ . . __ . . __
 72
65
 73
6
 40
1.6
 49
1.0
 49
-0.2
 49
0.0
 49
-0.2
 49
0.0
 49
-0.2
  0
LTYPE
  2
DIVIDEX2
 70
0
  3
Divide (2x) ____  . .  ____  . .  ____  . .  ____
 72
65
 73
6
 40
2.6
 49
2.0
 49
-0.2
 49
0.0
 49
-0.2
 49
0.0
 49
-0.2
  0
LTYPE
  2
DIVIDE2
 70
0
  3
Divide(.5x) _ . _ . _ . _ . _ . _ . _ . _
 72
65
 73
6
 40
0.8
 49
0.5
 49
-0.1
 49
0.0
 49
-0.1
 49
0.0
 49
-0.1
  0
ENDTAB
  0
TABLE
  2
LAYER
 70
5
  0
LAYER
  2
DIMENSIONS
 70
0
 62
1
  6
CONTINUOUS
  0
LAYER
  2
TABLEBACKGROUND
 70
0
 62
1
  6
CONTINUOUS
  0
LAYER
  2
TABLECONTENT
 70
0
 62
1
  6
CONTINUOUS
  0
LAYER
  2
TABLEGRID
 70
0
 62
1
  6
CONTINUOUS
  0
LAYER
  2
VIEWPORTS
 70
0
 62
7
  6
CONTINUOUS
  0
ENDTAB
  0
TABLE
  2
STYLE
 70
12
  0
STYLE
  2
STANDARD
 70
0
 40
0.0
 41
1.0
 42
1.0
 50
0.0
 71
0
  3
arial.ttf
  4

  0
STYLE
  2
ARIAL
 70
0
 40
0.0
 41
1.0
 42
1.0
 50
0.0
 71
0
  3
arial.ttf
  4

  0
STYLE
  2
ARIAL_BOLD
 70
0
 40
0.0
 41
1.0
 42
1.0
 50
0.0
 71
0
  3
arialbd.ttf
  4

  0
STYLE
  2
ARIAL_ITALIC
 70
0
 40
0.0
 41
1.0
 42
1.0
 50
0.0
 71
0
  3
ariali.ttf
  4

  0
STYLE
  2
ARIAL_BOLD_ITALIC
 70
0
 40
0.0
 41
1.0
 42
1.0
 50
0.0
 71
0
  3
arialbi.ttf
  4

  0
STYLE
  2
ARIAL_BLACK
 70
0
 40
0.0
 41
1.0
 42
1.0
 50
0.0
 71
0
  3
ariblk.ttf
  4

  0
STYLE
  2
ISOCPEUR
 70
0
 40
0.0
 41
1.0
 42
1.0
 50
0.0
 71
0
  3
isocpeur.ttf
  4

  0
STYLE
  2
ISOCPEUR_ITALIC
 70
0
 40
0.0
 41
1.0
 42
1.0
 50
0.0
 71
0
  3
isocpeui.ttf
  4

  0
STYLE
  2
TIMES
 70
0
 40
0.0
 41
1.0
 42
1.0
 50
0.0
 71
0
  3
times.ttf
  4

  0
STYLE
  2
TIMES_BOLD
 70
0
 40
0.0
 41
1.0
 42
1.0
 50
0.0
 71
0
  3
timesbd.ttf
  4

  0
STYLE
  2
TIMES_ITALIC
 70
0
 40
0.0
 41
1.0
 42
1.0
 50
0.0
 71
0
  3
timesi.ttf
  4

  0
STYLE
  2
TIMES_BOLD_ITALIC
 70
0
 40
0.0
 41
1.0
 42
1.0
 50
0.0
 71
0
  3
timesbi.ttf
  4

  0
ENDTAB
  0
TABLE
  2
VIEW
 70
0
  0
ENDTAB
  0
TABLE
  2
APPID
 70
1
  0
APPID
  2
DXFWRITE
 70
0
  0
ENDTAB
  0
TABLE
  2
VPORT
 70
0
  0
ENDTAB
  0
TABLE
  2
UCS
 70
0
  0
ENDTAB
  0
ENDSEC
  0
SECTION
  2
BLOCKS
  0
BLOCK
  8
0
  2
DIMTICK_ARCH
  3
DIMTICK_ARCH
 70
0
 10
0.0
 20
0.0
 30
0.0
  0
LINE
 62
5
  8
0
 10
0.0
 20
0.5
 30
0.0
 11
0.0
 21
-0.5
 31
0.0
  0
LINE
 62
4
  8
0
 10
-0.2
 20
-0.2
 30
0.0
 11
0.2
 21
0.2
 31
0.0
  0
ENDBLK
  0
BLOCK
  8
0
  2
DIMTICK_DOT
  3
DIMTICK_DOT
 70
0
 10
0.0
 20
0.0
 30
0.0
  0
LINE
 62
5
  8
0
 10
0.0
 20
0.5
 30
0.0
 11
0.0
 21
-0.5
 31
0.0
  0
CIRCLE
 62
4
  8
0
 10
0.0
 20
0.0
 30
0.0
 40
0.1
  0
ENDBLK
  0
BLOCK
  8
0
  2
DIMTICK_ARROW
  3
DIMTICK_ARROW
 70
0
 10
0.0
 20
0.0
 30
0.0
  0
LINE
 62
5
  8
0
 10
0.0
 20
0.5
 30
0.0
 11
0.0
 21
-0.5
 31
0.0
  0
SOLID
 62
7
  8
0
 10
0.0
 20
0.0
 30
0.0
 11
0.3
 21
0.05
 31
0.0
 13
0.3
 23
-0.05
 33
0.0
 12
0.3
 22
-0.05
 32
0.0
  0
ENDBLK
  0
BLOCK
  8
0
  2
DIMTICK_RADIUS
  3
DIMTICK_RADIUS
 70
0
 10
0.0
 20
0.0
 30
0.0
  0
SOLID
 62
7
  8
0
 10
0.0
 20
0.0
 30
0.0
 11
0.3
 21
0.05
 31
0.0
 13
0.25
 23
0.0
 33
0.0
 12
0.3
 22
-0.05
 32
0.0
  0
ENDBLK
  0
ENDSEC
  0
SECTION
  2
ENTITIES
  0
VIEWPORT
  8
VIEWPORTS
 67
1
 10
0.0
 20
0.0
 30
0.0
 40
1.0
 41
1.0
 68
1
 69
1
1001
ACAD
1000
MVIEW
1002
{
1070
16
1010
0.0
1020
0.0
1030
0.0
1010
0.0
1020
0.0
1030
0.0
1040
0.0
1040
1.0
1040
0.0
1040
0.0
1040
50.0
1040
0.0
1040
0.0
1070
0
1070
100
1070
1
1070
3
1070
0
1070
0
1070
0
1070
0
1040
0.0
1040
0.0
1040
0.0
1040
0.1
1040
0.1
1040
0.1
1040
0.1
1070
0
1002
{
1002
}
1002
}
  0
LINE
 62
7
  8
0
 10
1.46
 20
4.76
 30
0.0
 11
4.84
 21
4.76
 31
0.0
  0
LINE
 62
7
  8
DIMENSIONS
 10
1.46
 20
5.26
 30
0.0
 11
4.84
 21
5.26
 31
0.0
  0
LINE
 62
5
  8
DIMENSIONS
 10
1.46
 20
5.26
 30
0.0
 11
1.46
 21
5.06
 31
0.0
  0
LINE
 62
5
  8
DIMENSIONS
 10
4.84
 20
5.26
 30
0.0
 11
4.84
 21
5.06
 31
0.0
  0
TEXT
 62
7
  8
DIMENSIONS
 10
3.15
 20
5.609999999999999
 30
0.0
 40
0.3
  1
338
 50
-0.0
  7
ISOCPEUR
 72
1
 73
2
 11
3.15
 21
5.609999999999999
 31
0.0
  0
INSERT
  8
DIMENSIONS
  2
DIMTICK_ARROW
 10
1.46
 20
5.26
 30
0.0
 41
1.0
 42
1.0
 50
0.0
  0
INSERT
  8
DIMENSIONS
  2
DIMTICK_ARROW
 10
4.84
 20
5.26
 30
0.0
 41
1.0
 42
1.0
 50
180.0
  0
LINE
 62
7
  8
DIMENSIONS
 10
1.46
 20
5.26
 30
0.0
 11
4.84
 21
5.26
 31
0.0
  0
LINE
 62
5
  8
DIMENSIONS
 10
1.46
 20
5.26
 30
0.0
 11
1.46
 21
5.06
 31
0.0
  0
LINE
 62
5
  8
DIMENSIONS
 10
4.84
 20
5.26
 30
0.0
 11
4.84
 21
5.06
 31
0.0
  0
TEXT
 62
7
  8
DIMENSIONS
 10
3.15
 20
5.609999999999999
 30
0.0
 40
0.3
  1
338
 50
-0.0
  7
ISOCPEUR
 72
1
 73
2
 11
3.15
 21
5.609999999999999
 31
0.0
  0
INSERT
  8
DIMENSIONS
  2
DIMTICK_ARROW
 10
1.46
 20
5.26
 30
0.0
 41
1.0
 42
1.0
 50
0.0
  0
INSERT
  8
DIMENSIONS
  2
DIMTICK_ARROW
 10
4.84
 20
5.26
 30
0.0
 41
1.0
 42
1.0
 50
180.0
  0
LINE
 62
7
  8
DIMENSIONS
 10
1.46
 20
5.26
 30
0.0
 11
4.84
 21
5.26
 31
0.0
  0
LINE
 62
5
  8
DIMENSIONS
 10
1.46
 20
5.26
 30
0.0
 11
1.46
 21
5.06
 31
0.0
  0
LINE
 62
5
  8
DIMENSIONS
 10
4.84
 20
5.26
 30
0.0
 11
4.84
 21
5.06
 31
0.0
  0
TEXT
 62
7
  8
DIMENSIONS
 10
3.15
 20
5.609999999999999
 30
0.0
 40
0.3
  1
338
 50
-0.0
  7
ISOCPEUR
 72
1
 73
2
 11
3.15
 21
5.609999999999999
 31
0.0
  0
INSERT
  8
DIMENSIONS
  2
DIMTICK_ARROW
 10
1.46
 20
5.26
 30
0.0
 41
1.0
 42
1.0
 50
0.0
  0
INSERT
  8
DIMENSIONS
  2
DIMTICK_ARROW
 10
4.84
 20
5.26
 30
0.0
 41
1.0
 42
1.0
 50
180.0
  0
LINE
 62
7
  8
DIMENSIONS
 10
1.46
 20
5.26
 30
0.0
 11
4.84
 21
5.26
 31
0.0
  0
LINE
 62
5
  8
DIMENSIONS
 10
1.46
 20
5.26
 30
0.0
 11
1.46
 21
5.06
 31
0.0
  0
LINE
 62
5
  8
DIMENSIONS
 10
4.84
 20
5.26
 30
0.0
 11
4.84
 21
5.06
 31
0.0
  0
TEXT
 62
7
  8
DIMENSIONS
 10
3.15
 20
5.609999999999999
 30
0.0
 40
0.3
  1
338
 50
-0.0
  7
ISOCPEUR
 72
1
 73
2
 11
3.15
 21
5.609999999999999
 31
0.0
  0
INSERT
  8
DIMENSIONS
  2
DIMTICK_ARROW
 10
1.46
 20
5.26
 30
0.0
 41
1.0
 42
1.0
 50
0.0
  0
INSERT
  8
DIMENSIONS
  2
DIMTICK_ARROW
 10
4.84
 20
5.26
 30
0.0
 41
1.0
 42
1.0
 50
180.0
  0
LINE
 62
7
  8
DIMENSIONS
 10
1.46
 20
5.26
 30
0.0
 11
4.84
 21
5.26
 31
0.0
  0
LINE
 62
5
  8
DIMENSIONS
 10
1.46
 20
5.26
 30
0.0
 11
1.46
 21
5.06
 31
0.0
  0
LINE
 62
5
  8
DIMENSIONS
 10
4.84
 20
5.26
 30
0.0
 11
4.84
 21
5.06
 31
0.0
  0
TEXT
 62
7
  8
DIMENSIONS
 10
3.15
 20
5.609999999999999
 30
0.0
 40
0.3
  1
338
 50
-0.0
  7
ISOCPEUR
 72
1
 73
2
 11
3.15
 21
5.609999999999999
 31
0.0
  0
INSERT
  8
DIMENSIONS
  2
DIMTICK_ARROW
 10
1.46
 20
5.26
 30
0.0
 41
1.0
 42
1.0
 50
0.0
  0
INSERT
  8
DIMENSIONS
  2
DIMTICK_ARROW
 10
4.84
 20
5.26
 30
0.0
 41
1.0
 42
1.0
 50
180.0
  0
LINE
 62
7
  8
DIMENSIONS
 10
1.46
 20
5.26
 30
0.0
 11
4.84
 21
5.26
 31
0.0
  0
LINE
 62
5
  8
DIMENSIONS
 10
1.46
 20
5.26
 30
0.0
 11
1.46
 21
5.06
 31
0.0
  0
LINE
 62
5
  8
DIMENSIONS
 10
4.84
 20
5.26
 30
0.0
 11
4.84
 21
5.06
 31
0.0
  0
TEXT
 62
7
  8
DIMENSIONS
 10
3.15
 20
5.609999999999999
 30
0.0
 40
0.3
  1
338
 50
-0.0
  7
ISOCPEUR
 72
1
 73
2
 11
3.15
 21
5.609999999999999
 31
0.0
  0
INSERT
  8
DIMENSIONS
  2
DIMTICK_ARROW
 10
1.46
 20
5.26
 30
0.0
 41
1.0
 42
1.0
 50
0.0
  0
INSERT
  8
DIMENSIONS
  2
DIMTICK_ARROW
 10
4.84
 20
5.26
 30
0.0
 41
1.0
 42
1.0
 50
180.0
  0
LINE
 62
7
  8
DIMENSIONS
 10
1.46
 20
5.26
 30
0.0
 11
4.84
 21
5.26
 31
0.0
  0
LINE
 62
5
  8
DIMENSIONS
 10
1.46
 20
5.26
 30
0.0
 11
1.46
 21
5.06
 31
0.0
  0
LINE
 62
5
  8
DIMENSIONS
 10
4.84
 20
5.26
 30
0.0
 11
4.84
 21
5.06
 31
0.0
  0
TEXT
 62
7
  8
DIMENSIONS
 10
3.15
 20
5.609999999999999
 30
0.0
 40
0.3
  1
338
 50
-0.0
  7
ISOCPEUR
 72
1
 73
2
 11
3.15
 21
5.609999999999999
 31
0.0
  0
INSERT
  8
DIMENSIONS
  2
DIMTICK_ARROW
 10
1.46
 20
5.26
 30
0.0
 41
1.0
 42
1.0
 50
0.0
  0
INSERT
  8
DIMENSIONS
  2
DIMTICK_ARROW
 10
4.84
 20
5.26
 30
0.0
 41
1.0
 42
1.0
 50
180.0
  0
LINE
 62
7
  8
DIMENSIONS
 10
1.46
 20
5.26
 30
0.0
 11
4.84
 21
5.26
 31
0.0
  0
LINE
 62
5
  8
DIMENSIONS
 10
1.46
 20
5.26
 30
0.0
 11
1.46
 21
5.06
 31
0.0
  0
LINE
 62
5
  8
DIMENSIONS
 10
4.84
 20
5.26
 30
0.0
 11
4.84
 21
5.06
 31
0.0
  0
TEXT
 62
7
  8
DIMENSIONS
 10
3.15
 20
5.609999999999999
 30
0.0
 40
0.3
  1
338
 50
-0.0
  7
ISOCPEUR
 72
1
 73
2
 11
3.15
 21
5.609999999999999
 31
0.0
  0
INSERT
  8
DIMENSIONS
  2
DIMTICK_ARROW
 10
1.46
 20
5.26
 30
0.0
 41
1.0
 42
1.0
 50
0.0
  0
INSERT
  8
DIMENSIONS
  2
DIMTICK_ARROW
 10
4.84
 20
5.26
 30
0.0
 41
1.0
 42
1.0
 50
180.0
  0
LINE
 62
7
  8
0
 10
0.0
 20
0.0
 30
0.0
 11
0.0
 21
6.58
 31
0.0
  0
LINE
 62
7
  8
DIMENSIONS
 10
1.0
 20
-1.592040838891559e-16
 30
0.0
 11
1.0
 21
6.58
 31
0.0
  0
LINE
 62
5
  8
DIMENSIONS
 10
1.0
 20
-1.592040838891559e-16
 30
0.0
 11
0.0
 21
-3.6739403974420595e-17
 31
0.0
  0
LINE
 62
5
  8
DIMENSIONS
 10
1.0
 20
6.58
 30
0.0
 11
0.0
 21
6.58
 31
0.0
  0
TEXT
 62
7
  8
DIMENSIONS
 10
0.65
 20
3.29
 30
0.0
 40
0.3
  1
658
 50
90.0
  7
ISOCPEUR
 72
1
 73
2
 11
0.65
 21
3.29
 31
0.0
  0
INSERT
  8
DIMENSIONS
  2
DIMTICK_ARROW
 10
1.0
 20
-1.592040838891559e-16
 30
0.0
 41
1.0
 42
1.0
 50
90.0
  0
INSERT
  8
DIMENSIONS
  2
DIMTICK_ARROW
 10
1.0
 20
6.58
 30
0.0
 41
1.0
 42
1.0
 50
270.0
  0
LINE
 62
7
  8
DIMENSIONS
 10
1.0
 20
-1.592040838891559e-16
 30
0.0
 11
1.0
 21
6.58
 31
0.0
  0
LINE
 62
5
  8
DIMENSIONS
 10
1.0
 20
-1.592040838891559e-16
 30
0.0
 11
0.0
 21
-3.6739403974420595e-17
 31
0.0
  0
LINE
 62
5
  8
DIMENSIONS
 10
1.0
 20
6.58
 30
0.0
 11
0.0
 21
6.58
 31
0.0
  0
TEXT
 62
7
  8
DIMENSIONS
 10
0.65
 20
3.29
 30
0.0
 40
0.3
  1
658
 50
90.0
  7
ISOCPEUR
 72
1
 73
2
 11
0.65
 21
3.29
 31
0.0
  0
INSERT
  8
DIMENSIONS
  2
DIMTICK_ARROW
 10
1.0
 20
-1.592040838891559e-16
 30
0.0
 41
1.0
 42
1.0
 50
90.0
  0
INSERT
  8
DIMENSIONS
  2
DIMTICK_ARROW
 10
1.0
 20
6.58
 30
0.0
 41
1.0
 42
1.0
 50
270.0
  0
LINE
 62
7
  8
DIMENSIONS
 10
1.0
 20
-1.592040838891559e-16
 30
0.0
 11
1.0
 21
6.58
 31
0.0
  0
LINE
 62
5
  8
DIMENSIONS
 10
1.0
 20
-1.592040838891559e-16
 30
0.0
 11
0.0
 21
-3.6739403974420595e-17
 31
0.0
  0
LINE
 62
5
  8
DIMENSIONS
 10
1.0
 20
6.58
 30
0.0
 11
0.0
 21
6.58
 31
0.0
  0
TEXT
 62
7
  8
DIMENSIONS
 10
0.65
 20
3.29
 30
0.0
 40
0.3
  1
658
 50
90.0
  7
ISOCPEUR
 72
1
 73
2
 11
0.65
 21
3.29
 31
0.0
  0
INSERT
  8
DIMENSIONS
  2
DIMTICK_ARROW
 10
1.0
 20
-1.592040838891559e-16
 30
0.0
 41
1.0
 42
1.0
 50
90.0
  0
INSERT
  8
DIMENSIONS
  2
DIMTICK_ARROW
 10
1.0
 20
6.58
 30
0.0
 41
1.0
 42
1.0
 50
270.0
  0
LINE
 62
7
  8
DIMENSIONS
 10
1.0
 20
-1.592040838891559e-16
 30
0.0
 11
1.0
 21
6.58
 31
0.0
  0
LINE
 62
5
  8
DIMENSIONS
 10
1.0
 20
-1.592040838891559e-16
 30
0.0
 11
0.0
 21
-3.6739403974420595e-17
 31
0.0
  0
LINE
 62
5
  8
DIMENSIONS
 10
1.0
 20
6.58
 30
0.0
 11
0.0
 21
6.58
 31
0.0
  0
TEXT
 62
7
  8
DIMENSIONS
 10
0.65
 20
3.29
 30
0.0
 40
0.3
  1
658
 50
90.0
  7
ISOCPEUR
 72
1
 73
2
 11
0.65
 21
3.29
 31
0.0
  0
INSERT
  8
DIMENSIONS
  2
DIMTICK_ARROW
 10
1.0
 20
-1.592040838891559e-16
 30
0.0
 41
1.0
 42
1.0
 50
90.0
  0
INSERT
  8
DIMENSIONS
  2
DIMTICK_ARROW
 10
1.0
 20
6.58
 30
0.0
 41
1.0
 42
1.0
 50
270.0
  0
LINE
 62
7
  8
DIMENSIONS
 10
1.0
 20
-1.592040838891559e-16
 30
0.0
 11
1.0
 21
6.58
 31
0.0
  0
LINE
 62
5
  8
DIMENSIONS
 10
1.0
 20
-1.592040838891559e-16
 30
0.0
 11
0.0
 21
-3.6739403974420595e-17
 31
0.0
  0
LINE
 62
5
  8
DIMENSIONS
 10
1.0
 20
6.58
 30
0.0
 11
0.0
 21
6.58
 31
0.0
  0
TEXT
 62
7
  8
DIMENSIONS
 10
0.65
 20
3.29
 30
0.0
 40
0.3
  1
658
 50
90.0
  7
ISOCPEUR
 72
1
 73
2
 11
0.65
 21
3.29
 31
0.0
  0
INSERT
  8
DIMENSIONS
  2
DIMTICK_ARROW
 10
1.0
 20
-1.592040838891559e-16
 30
0.0
 41
1.0
 42
1.0
 50
90.0
  0
INSERT
  8
DIMENSIONS
  2
DIMTICK_ARROW
 10
1.0
 20
6.58
 30
0.0
 41
1.0
 42
1.0
 50
270.0
  0
LINE
 62
7
  8
DIMENSIONS
 10
1.0
 20
-1.592040838891559e-16
 30
0.0
 11
1.0
 21
6.58
 31
0.0
  0
LINE
 62
5
  8
DIMENSIONS
 10
1.0
 20
-1.592040838891559e-16
 30
0.0
 11
0.0
 21
-3.6739403974420595e-17
 31
0.0
  0
LINE
 62
5
  8
DIMENSIONS
 10
1.0
 20
6.58
 30
0.0
 11
0.0
 21
6.58
 31
0.0
  0
TEXT
 62
7
  8
DIMENSIONS
 10
0.65
 20
3.29
 30
0.0
 40
0.3
  1
658
 50
90.0
  7
ISOCPEUR
 72
1
 73
2
 11
0.65
 21
3.29
 31
0.0
  0
INSERT
  8
DIMENSIONS
  2
DIMTICK_ARROW
 10
1.0
 20
-1.592040838891559e-16
 30
0.0
 41
1.0
 42
1.0
 50
90.0
  0
INSERT
  8
DIMENSIONS
  2
DIMTICK_ARROW
 10
1.0
 20
6.58
 30
0.0
 41
1.0
 42
1.0
 50
270.0
  0
LINE
 62
7
  8
DIMENSIONS
 10
1.0
 20
-1.592040838891559e-16
 30
0.0
 11
1.0
 21
6.58
 31
0.0
  0
LINE
 62
5
  8
DIMENSIONS
 10
1.0
 20
-1.592040838891559e-16
 30
0.0
 11
0.0
 21
-3.6739403974420595e-17
 31
0.0
  0
LINE
 62
5
  8
DIMENSIONS
 10
1.0
 20
6.58
 30
0.0
 11
0.0
 21
6.58
 31
0.0
  0
TEXT
 62
7
  8
DIMENSIONS
 10
0.65
 20
3.29
 30
0.0
 40
0.3
  1
658
 50
90.0
  7
ISOCPEUR
 72
1
 73
2
 11
0.65
 21
3.29
 31
0.0
  0
INSERT
  8
DIMENSIONS
  2
DIMTICK_ARROW
 10
1.0
 20
-1.592040838891559e-16
 30
0.0
 41
1.0
 42
1.0
 50
90.0
  0
INSERT
  8
DIMENSIONS
  2
DIMTICK_ARROW
 10
1.0
 20
6.58
 30
0.0
 41
1.0
 42
1.0
 50
270.0
  0
LINE
 62
7
  8
0
 10
5.68
 20
1.18
 30
0.0
 11
5.68
 21
5.58
 31
0.0
  0
LINE
 62
7
  8
DIMENSIONS
 10
6.68
 20
1.1799999999999997
 30
0.0
 11
6.68
 21
5.58
 31
0.0
  0
LINE
 62
5
  8
DIMENSIONS
 10
6.68
 20
1.1799999999999997
 30
0.0
 11
5.68
 21
1.18
 31
0.0
  0
LINE
 62
5
  8
DIMENSIONS
 10
6.68
 20
5.58
 30
0.0
 11
5.68
 21
5.58
 31
0.0
  0
TEXT
 62
7
  8
DIMENSIONS
 10
6.33
 20
3.38
 30
0.0
 40
0.3
  1
440
 50
90.0
  7
ISOCPEUR
 72
1
 73
2
 11
6.33
 21
3.38
 31
0.0
  0
INSERT
  8
DIMENSIONS
  2
DIMTICK_ARROW
 10
6.68
 20
1.1799999999999997
 30
0.0
 41
1.0
 42
1.0
 50
90.0
  0
INSERT
  8
DIMENSIONS
  2
DIMTICK_ARROW
 10
6.68
 20
5.58
 30
0.0
 41
1.0
 42
1.0
 50
270.0
  0
LINE
 62
7
  8
DIMENSIONS
 10
6.68
 20
1.1799999999999997
 30
0.0
 11
6.68
 21
5.58
 31
0.0
  0
LINE
 62
5
  8
DIMENSIONS
 10
6.68
 20
1.1799999999999997
 30
0.0
 11
5.68
 21
1.18
 31
0.0
  0
LINE
 62
5
  8
DIMENSIONS
 10
6.68
 20
5.58
 30
0.0
 11
5.68
 21
5.58
 31
0.0
  0
TEXT
 62
7
  8
DIMENSIONS
 10
6.33
 20
3.38
 30
0.0
 40
0.3
  1
440
 50
90.0
  7
ISOCPEUR
 72
1
 73
2
 11
6.33
 21
3.38
 31
0.0
  0
INSERT
  8
DIMENSIONS
  2
DIMTICK_ARROW
 10
6.68
 20
1.1799999999999997
 30
0.0
 41
1.0
 42
1.0
 50
90.0
  0
INSERT
  8
DIMENSIONS
  2
DIMTICK_ARROW
 10
6.68
 20
5.58
 30
0.0
 41
1.0
 42
1.0
 50
270.0
  0
LINE
 62
7
  8
DIMENSIONS
 10
6.68
 20
1.1799999999999997
 30
0.0
 11
6.68
 21
5.58
 31
0.0
  0
LINE
 62
5
  8
DIMENSIONS
 10
6.68
 20
1.1799999999999997
 30
0.0
 11
5.68
 21
1.18
 31
0.0
  0
LINE
 62
5
  8
DIMENSIONS
 10
6.68
 20
5.58
 30
0.0
 11
5.68
 21
5.58
 31
0.0
  0
TEXT
 62
7
  8
DIMENSIONS
 10
6.33
 20
3.38
 30
0.0
 40
0.3
  1
440
 50
90.0
  7
ISOCPEUR
 72
1
 73
2
 11
6.33
 21
3.38
 31
0.0
  0
INSERT
  8
DIMENSIONS
  2
DIMTICK_ARROW
 10
6.68
 20
1.1799999999999997
 30
0.0
 41
1.0
 42
1.0
 50
90.0
  0
INSERT
  8
DIMENSIONS
  2
DIMTICK_ARROW
 10
6.68
 20
5.58
 30
0.0
 41
1.0
 42
1.0
 50
270.0
  0
LINE
 62
7
  8
DIMENSIONS
 10
6.68
 20
1.1799999999999997
 30
0.0
 11
6.68
 21
5.58
 31
0.0
  0
LINE
 62
5
  8
DIMENSIONS
 10
6.68
 20
1.1799999999999997
 30
0.0
 11
5.68
 21
1.18
 31
0.0
  0
LINE
 62
5
  8
DIMENSIONS
 10
6.68
 20
5.58
 30
0.0
 11
5.68
 21
5.58
 31
0.0
  0
TEXT
 62
7
  8
DIMENSIONS
 10
6.33
 20
3.38
 30
0.0
 40
0.3
  1
440
 50
90.0
  7
ISOCPEUR
 72
1
 73
2
 11
6.33
 21
3.38
 31
0.0
  0
INSERT
  8
DIMENSIONS
  2
DIMTICK_ARROW
 10
6.68
 20
1.1799999999999997
 30
0.0
 41
1.0
 42
1.0
 50
90.0
  0
INSERT
  8
DIMENSIONS
  2
DIMTICK_ARROW
 10
6.68
 20
5.58
 30
0.0
 41
1.0
 42
1.0
 50
270.0
  0
LINE
 62
7
  8
DIMENSIONS
 10
6.68
 20
1.1799999999999997
 30
0.0
 11
6.68
 21
5.58
 31
0.0
  0
LINE
 62
5
  8
DIMENSIONS
 10
6.68
 20
1.1799999999999997
 30
0.0
 11
5.68
 21
1.18
 31
0.0
  0
LINE
 62
5
  8
DIMENSIONS
 10
6.68
 20
5.58
 30
0.0
 11
5.68
 21
5.58
 31
0.0
  0
TEXT
 62
7
  8
DIMENSIONS
 10
6.33
 20
3.38
 30
0.0
 40
0.3
  1
440
 50
90.0
  7
ISOCPEUR
 72
1
 73
2
 11
6.33
 21
3.38
 31
0.0
  0
INSERT
  8
DIMENSIONS
  2
DIMTICK_ARROW
 10
6.68
 20
1.1799999999999997
 30
0.0
 41
1.0
 42
1.0
 50
90.0
  0
INSERT
  8
DIMENSIONS
  2
DIMTICK_ARROW
 10
6.68
 20
5.58
 30
0.0
 41
1.0
 42
1.0
 50
270.0
  0
LINE
 62
7
  8
DIMENSIONS
 10
6.68
 20
1.1799999999999997
 30
0.0
 11
6.68
 21
5.58
 31
0.0
  0
LINE
 62
5
  8
DIMENSIONS
 10
6.68
 20
1.1799999999999997
 30
0.0
 11
5.68
 21
1.18
 31
0.0
  0
LINE
 62
5
  8
DIMENSIONS
 10
6.68
 20
5.58
 30
0.0
 11
5.68
 21
5.58
 31
0.0
  0
TEXT
 62
7
  8
DIMENSIONS
 10
6.33
 20
3.38
 30
0.0
 40
0.3
  1
440
 50
90.0
  7
ISOCPEUR
 72
1
 73
2
 11
6.33
 21
3.38
 31
0.0
  0
INSERT
  8
DIMENSIONS
  2
DIMTICK_ARROW
 10
6.68
 20
1.1799999999999997
 30
0.0
 41
1.0
 42
1.0
 50
90.0
  0
INSERT
  8
DIMENSIONS
  2
DIMTICK_ARROW
 10
6.68
 20
5.58
 30
0.0
 41
1.0
 42
1.0
 50
270.0
  0
CIRCLE
 62
7
  8
0
 10
3.32
 20
2.02
 30
0.0
 40
1.9
  0
LINE
 62
7
  8
DIMENSIONS
 10
3.32
 20
2.92
 30
0.0
 11
3.32
 21
3.92
 31
0.0
  0
TEXT
 62
7
  8
DIMENSIONS
 10
3.32
 20
2.7199999999999998
 30
0.0
 40
0.2714285714285714
  1
R=190
 50
90.0
  7
ISOCPEUR
 72
2
 73
2
 11
3.32
 21
2.7199999999999998
 31
0.0
  0
INSERT
  8
DIMENSIONS
  2
DIMTICK_RADIUS
 10
3.32
 20
3.92
 30
0.0
 41
1.0
 42
1.0
 50
270.0
  0
LINE
 62
7
  8
DIMENSIONS
 10
3.32
 20
2.92
 30
0.0
 11
3.32
 21
3.92
 31
0.0
  0
TEXT
 62
7
  8
DIMENSIONS
 10
3.32
 20
2.7199999999999998
 30
0.0
 40
0.2714285714285714
  1
R=190
 50
90.0
  7
ISOCPEUR
 72
2
 73
2
 11
3.32
 21
2.7199999999999998
 31
0.0
  0
INSERT
  8
DIMENSIONS
  2
DIMTICK_RADIUS
 10
3.32
 20
3.92
 30
0.0
 41
1.0
 42
1.0
 50
270.0
  0
LINE
 62
7
  8
DIMENSIONS
 10
3.32
 20
2.92
 30
0.0
 11
3.32
 21
3.92
 31
0.0
  0
TEXT
 62
7
  8
DIMENSIONS
 10
3.32
 20
2.7199999999999998
 30
0.0
 40
0.2714285714285714
  1
R=190
 50
90.0
  7
ISOCPEUR
 72
2
 73
2
 11
3.32
 21
2.7199999999999998
 31
0.0
  0
INSERT
  8
DIMENSIONS
  2
DIMTICK_RADIUS
 10
3.32
 20
3.92
 30
0.0
 41
1.0
 42
1.0
 50
270.0
  0
LINE
 62
7
  8
DIMENSIONS
 10
3.32
 20
2.92
 30
0.0
 11
3.32
 21
3.92
 31
0.0
  0
TEXT
 62
7
  8
DIMENSIONS
 10
3.32
 20
2.7199999999999998
 30
0.0
 40
0.2714285714285714
  1
R=190
 50
90.0
  7
ISOCPEUR
 72
2
 73
2
 11
3.32
 21
2.7199999999999998
 31
0.0
  0
INSERT
  8
DIMENSIONS
  2
DIMTICK_RADIUS
 10
3.32
 20
3.92
 30
0.0
 41
1.0
 42
1.0
 50
270.0
  0
LINE
 62
7
  8
DIMENSIONS
 10
3.32
 20
2.92
 30
0.0
 11
3.32
 21
3.92
 31
0.0
  0
TEXT
 62
7
  8
DIMENSIONS
 10
3.32
 20
2.7199999999999998
 30
0.0
 40
0.2714285714285714
  1
R=190
 50
90.0
  7
ISOCPEUR
 72
2
 73
2
 11
3.32
 21
2.7199999999999998
 31
0.0
  0
INSERT
  8
DIMENSIONS
  2
DIMTICK_RADIUS
 10
3.32
 20
3.92
 30
0.0
 41
1.0
 42
1.0
 50
270.0
  0
CIRCLE
 62
7
  8
0
 10
3.04
 20
6.78
 30
0.0
 40
1.0
  0
LINE
 62
7
  8
DIMENSIONS
 10
3.04
 20
6.78
 30
0.0
 11
3.139833416646828
 21
7.775004165278026
 31
0.0
  0
TEXT
 62
7
  8
DIMENSIONS
 10
3.0200333166706343
 20
6.580999166944395
 30
0.0
 40
0.14285714285714285
  1
R=100
 50
84.27042204869177
  7
ISOCPEUR
 72
2
 73
2
 11
3.0200333166706343
 21
6.580999166944395
 31
0.0
  0
INSERT
  8
DIMENSIONS
  2
DIMTICK_RADIUS
 10
3.139833416646828
 20
7.775004165278026
 30
0.0
 41
1.0
 42
1.0
 50
264.2704220486918
  0
LINE
 62
7
  8
DIMENSIONS
 10
3.04
 20
6.78
 30
0.0
 11
3.139833416646828
 21
7.775004165278026
 31
0.0
  0
TEXT
 62
7
  8
DIMENSIONS
 10
3.0200333166706343
 20
6.580999166944395
 30
0.0
 40
0.14285714285714285
  1
R=100
 50
84.27042204869177
  7
ISOCPEUR
 72
2
 73
2
 11
3.0200333166706343
 21
6.580999166944395
 31
0.0
  0
INSERT
  8
DIMENSIONS
  2
DIMTICK_RADIUS
 10
3.139833416646828
 20
7.775004165278026
 30
0.0
 41
1.0
 42
1.0
 50
264.2704220486918
  0
LINE
 62
7
  8
DIMENSIONS
 10
3.04
 20
6.78
 30
0.0
 11
3.139833416646828
 21
7.775004165278026
 31
0.0
  0
TEXT
 62
7
  8
DIMENSIONS
 10
3.0200333166706343
 20
6.580999166944395
 30
0.0
 40
0.14285714285714285
  1
R=100
 50
84.27042204869177
  7
ISOCPEUR
 72
2
 73
2
 11
3.0200333166706343
 21
6.580999166944395
 31
0.0
  0
INSERT
  8
DIMENSIONS
  2
DIMTICK_RADIUS
 10
3.139833416646828
 20
7.775004165278026
 30
0.0
 41
1.0
 42
1.0
 50
264.2704220486918
  0
LINE
 62
7
  8
DIMENSIONS
 10
3.04
 20
6.78
 30
0.0
 11
3.139833416646828
 21
7.775004165278026
 31
0.0
  0
TEXT
 62
7
  8
DIMENSIONS
 10
3.0200333166706343
 20
6.580999166944395
 30
0.0
 40
0.14285714285714285
  1
R=100
 50
84.27042204869177
  7
ISOCPEUR
 72
2
 73
2
 11
3.0200333166706343
 21
6.580999166944395
 31
0.0
  0
INSERT
  8
DIMENSIONS
  2
DIMTICK_RADIUS
 10
3.139833416646828
 20
7.775004165278026
 30
0.0
 41
1.0
 42
1.0
 50
264.2704220486918
  0
CIRCLE
 62
7
  8
0
 10
5.2
 20
6.86
 30
0.0
 40
0.36
  0
LINE
 62
7
  8
DIMENSIONS
 10
5.07285162829116
 20
6.232757390181606
 30
0.0
 11
5.271520959086223
 21
7.212823968022847
 31
0.0
  0
TEXT
 62
7
  8
DIMENSIONS
 10
5.0331177621321475
 20
6.036744074613358
 30
0.0
 40
0.05142857142857143
  1
R=36
 50
78.54084409738346
  7
ISOCPEUR
 72
2
 73
2
 11
5.0331177621321475
 21
6.036744074613358
 31
0.0
  0
INSERT
  8
DIMENSIONS
  2
DIMTICK_RADIUS
 10
5.271520959086223
 20
7.212823968022847
 30
0.0
 41
1.0
 42
1.0
 50
258.54084409738346
  0
LINE
 62
7
  8
DIMENSIONS
 10
5.07285162829116
 20
6.232757390181606
 30
0.0
 11
5.271520959086223
 21
7.212823968022847
 31
0.0
  0
TEXT
 62
7
  8
DIMENSIONS
 10
5.0331177621321475
 20
6.036744074613358
 30
0.0
 40
0.05142857142857143
  1
R=36
 50
78.54084409738346
  7
ISOCPEUR
 72
2
 73
2
 11
5.0331177621321475
 21
6.036744074613358
 31
0.0
  0
INSERT
  8
DIMENSIONS
  2
DIMTICK_RADIUS
 10
5.271520959086223
 20
7.212823968022847
 30
0.0
 41
1.0
 42
1.0
 50
258.54084409738346
  0
LINE
 62
7
  8
DIMENSIONS
 10
5.07285162829116
 20
6.232757390181606
 30
0.0
 11
5.271520959086223
 21
7.212823968022847
 31
0.0
  0
TEXT
 62
7
  8
DIMENSIONS
 10
5.0331177621321475
 20
6.036744074613358
 30
0.0
 40
0.05142857142857143
  1
R=36
 50
78.54084409738346
  7
ISOCPEUR
 72
2
 73
2
 11
5.0331177621321475
 21
6.036744074613358
 31
0.0
  0
INSERT
  8
DIMENSIONS
  2
DIMTICK_RADIUS
 10
5.271520959086223
 20
7.212823968022847
 30
0.0
 41
1.0
 42
1.0
 50
258.54084409738346
  0
CIRCLE
 62
7
  8
0
 10
3.36
 20
2.02
 30
0.0
 40
1.32
  0
LINE
 62
7
  8
DIMENSIONS
 10
3.4545664661316287
 20
2.3257076765201936
 30
0.0
 11
3.750086672792968
 21
3.2810441656458
 31
0.0
  0
TEXT
 62
7
  8
DIMENSIONS
 10
3.395462424799361
 20
2.1346403786950727
 30
0.0
 40
0.18857142857142858
  1
R=132
 50
72.81126614607531
  7
ISOCPEUR
 72
2
 73
2
 11
3.395462424799361
 21
2.1346403786950727
 31
0.0
  0
INSERT
  8
DIMENSIONS
  2
DIMTICK_RADIUS
 10
3.750086672792968
 20
3.2810441656458
 30
0.0
 41
1.0
 42
1.0
 50
252.81126614607533
  0
LINE
 62
7
  8
DIMENSIONS
 10
3.4545664661316287
 20
2.3257076765201936
 30
0.0
 11
3.750086672792968
 21
3.2810441656458
 31
0.0
  0
TEXT
 62
7
  8
DIMENSIONS
 10
3.395462424799361
 20
2.1346403786950727
 30
0.0
 40
0.18857142857142858
  1
R=132
 50
72.81126614607531
  7
ISOCPEUR
 72
2
 73
2
 11
3.395462424799361
 21
2.1346403786950727
 31
0.0
  0
INSERT
  8
DIMENSIONS
  2
DIMTICK_RADIUS
 10
3.750086672792968
 20
3.2810441656458
 30
0.0
 41
1.0
 42
1.0
 50
252.81126614607533
  0
CIRCLE
 62
7
  8
0
 10
3.28
 20
1.86
 30
0.0
 40
0.74
  0
LINE
 62
7
  8
DIMENSIONS
 10
3.178751230999751
 20
1.6205241415592502
 30
0.0
 11
3.5681695733084013
 21
2.5415851355621353
 31
0.0
  0
TEXT
 62
7
  8
DIMENSIONS
 10
3.1008675625380206
 20
1.4363119427586732
 30
0.0
 40
0.10571428571428572
  1
R=74
 50
67.08168819476707
  7
ISOCPEUR
 72
2
 73
2
 11
3.1008675625380206
 21
1.4363119427586732
 31
0.0
  0
INSERT
  8
DIMENSIONS
  2
DIMTICK_RADIUS
 10
3.5681695733084013
 20
2.5415851355621353
 30
0.0
 41
1.0
 42
1.0
 50
247.08168819476705
  0
ENDSEC
  0
EOF
