  0
SECTION
  2
HEADER
  9
$ACADVER
  1
AC1009
  9
$INSBASE
 10
0.0
 20
0.0
 30
0.0
  9
$EXTMIN
 10
0.0
 20
0.0
 30
0.0
  9
$EXTMAX
 10
100.0
 20
100.0
 30
0.0
  9
$UNITMODE
 70
0
  9
$AUNITS
 70
0
  9
$ANGBASE
 50
0.0
  9
$ANGDIR
 70
0
  0
ENDSEC
  0
SECTION
  2
TABLES
  0
TABLE
  2
LTYPE
 70
19
  0
LTYPE
  2
CONTINUOUS
 70
0
  3
Solid
 72
65
 73
0
 40
0.0
  0
LTYPE
  2
CENTER
 70
0
  3
Center ____ _ ____ _ ____ _ ____ _ ____ _ ____
 72
65
 73
4
 40
2.0
 49
1.25
 49
-0.25
 49
0.25
 49
-0.25
  0
LTYPE
  2
CENTERX2
 70
0
  3
Center (2x) ________  __  ________  __  ________
 72
65
 73
4
 40
3.5
 49
2.5
 49
-0.25
 49
0.5
 49
-0.25
  0
LTYPE
  2
CENTER2
 70
0
  3
Center (.5x) ____ _ ____ _ ____ _ ____ _ ____
 72
65
 73
4
 40
1.0
 49
0.625
 49
-0.125
 49
0.125
 49
-0.125
  0
LTYPE
  2
DASHED
 70
0
  3
Dashed __ __ __ __ __ __ __ __ __ __ __ __ __ _
 72
65
 73
2
 40
0.6
 49
0.5
 49
-0.1
  0
LTYPE
  2
DASHEDX2
 70
0
  3
Dashed (2x) ____  ____  ____  ____  ____  ____
 72
65
 73
2
 40
1.2
 49
1.0
 49
-0.2
  0
LTYPE
  2
DASHED2
 70
0
  3
Dashed (.5x) _ _ _ _ _ _ _ _ _ _ _ _ _ _
 72
65
 73
2
 40
0.3
 49
0.25
 49
-0.05
  0
LTYPE
  2
PHANTOM
 70
0
  3
Phantom ______  __  __  ______  __  __  ______
 72
65
 73
6
 40
2.5
 49
1.25
 49
-0.25
 49
0.25
 49
-0.25
 49
0.25
 49
-0.25
  0
LTYPE
  2
PHANTOMX2
 70
0
  3
Phantom (2x)____________    ____    ____    ____________
 72
65
 73
6
 40
4.25
 49
2.5
 49
-0.25
 49
0.5
 49
-0.25
 49
0.5
 49
-0.25
  0
LTYPE
  2
PHANTOM2
 70
0
  3
Phantom (.5x) ___ _ _ ___ _ _ ___ _ _ ___ _ _ ___
 72
65
 73
6
 40
1.25
 49
0.625
 49
-0.125
 49
0.125
 49
-0.125
 49
0.125
 49
-0.125
  0
LTYPE
  2
DASHDOT
 70
0
  3
Dash dot __ . __ . __ . __ . __ . __ . __ . __
 72
65
 73
4
 40
1.4
 49
1.0
 49
-0.2
 49
0.0
 49
-0.2
  0
LTYPE
  2
DASHDOTX2
 70
0
  3
Dash dot (2x) ____  .  ____  .  ____  .  ____
 72
65
 73
4
 40
2.4
 49
2.0
 49
-0.2
 49
0.0
 49
-0.2
  0
LTYPE
  2
DASHDOT2
 70
0
  3
Dash dot (.5x) _ . _ . _ . _ . _ . _ . _ . _
 72
65
 73
4
 40
0.7
 49
0.5
 49
-0.1
 49
0.0
 49
-0.1
  0
LTYPE
  2
DOT
 70
0
  3
Dot .  .  .  .  .  .  .  .  .  .  .  .  .  .  .  .
 72
65
 73
2
 40
0.2
 49
0.0
 49
-0.2
  0
LTYPE
  2
DOTX2
 70
0
  3
Dot (2x) .    .    .    .    .    .    .    . 
 72
65
 73
2
 40
0.4
 49
0.0
 49
-0.4
  0
LTYPE
  2
DOT2
 70
0
  3
Dot (.5) . . . . . . . . . . . . . . . . . . . 
 72
65
 73
2
 40
0.1
 49
0.0
 49
-0.1
  0
LTYPE
  2
DIVIDE
 70
0
  3
Divide __ . . __ . . __ . . __ . . __ . . __
 72
65
 73
6
 40
1.6
 49
1.0
 49
-0.2
 49
0.0
 49
-0.2
 49
0.0
 49
-0.2
  0
LTYPE
  2
DIVIDEX2
 70
0
  3
Divide (2x) ____  . .  ____  . .  ____  . .  ____
 72
65
 73
6
 40
2.6
 49
2.0
 49
-0.2
 49
0.0
 49
-0.2
 49
0.0
 49
-0.2
  0
LTYPE
  2
DIVIDE2
 70
0
  3
Divide(.5x) _ . _ . _ . _ . _ . _ . _ . _
 72
65
 73
6
 40
0.8
 49
0.5
 49
-0.1
 49
0.0
 49
-0.1
 49
0.0
 49
-0.1
  0
ENDTAB
  0
TABLE
  2
LAYER
 70
5
  0
LAYER
  2
DIMENSIONS
 70
0
 62
1
  6
CONTINUOUS
  0
LAYER
  2
TABLEBACKGROUND
 70
0
 62
1
  6
CONTINUOUS
  0
LAYER
  2
TABLECONTENT
 70
0
 62
1
  6
CONTINUOUS
  0
LAYER
  2
TABLEGRID
 70
0
 62
1
  6
CONTINUOUS
  0
LAYER
  2
VIEWPORTS
 70
0
 62
7
  6
CONTINUOUS
  0
ENDTAB
  0
TABLE
  2
STYLE
 70
12
  0
STYLE
  2
STANDARD
 70
0
 40
0.0
 41
1.0
 42
1.0
 50
0.0
 71
0
  3
arial.ttf
  4

  0
STYLE
  2
ARIAL
 70
0
 40
0.0
 41
1.0
 42
1.0
 50
0.0
 71
0
  3
arial.ttf
  4

  0
STYLE
  2
ARIAL_BOLD
 70
0
 40
0.0
 41
1.0
 42
1.0
 50
0.0
 71
0
  3
arialbd.ttf
  4

  0
STYLE
  2
ARIAL_ITALIC
 70
0
 40
0.0
 41
1.0
 42
1.0
 50
0.0
 71
0
  3
ariali.ttf
  4

  0
STYLE
  2
ARIAL_BOLD_ITALIC
 70
0
 40
0.0
 41
1.0
 42
1.0
 50
0.0
 71
0
  3
arialbi.ttf
  4

  0
STYLE
  2
ARIAL_BLACK
 70
0
 40
0.0
 41
1.0
 42
1.0
 50
0.0
 71
0
  3
ariblk.ttf
  4

  0
STYLE
  2
ISOCPEUR
 70
0
 40
0.0
 41
1.0
 42
1.0
 50
0.0
 71
0
  3
isocpeur.ttf
  4

  0
STYLE
  2
ISOCPEUR_ITALIC
 70
0
 40
0.0
 41
1.0
 42
1.0
 50
0.0
 71
0
  3
isocpeui.ttf
  4

  0
STYLE
  2
TIMES
 70
0
 40
0.0
 41
1.0
 42
1.0
 50
0.0
 71
0
  3
times.ttf
  4

  0
STYLE
  2
TIMES_BOLD
 70
0
 40
0.0
 41
1.0
 42
1.0
 50
0.0
 71
0
  3
timesbd.ttf
  4

  0
STYLE
  2
TIMES_ITALIC
 70
0
 40
0.0
 41
1.0
 42
1.0
 50
0.0
 71
0
  3
timesi.ttf
  4

  0
STYLE
  2
TIMES_BOLD_ITALIC
 70
0
 40
0.0
 41
1.0
 42
1.0
 50
0.0
 71
0
  3
timesbi.ttf
  4

  0
ENDTAB
  0
TABLE
  2
VIEW
 70
0
  0
ENDTAB
  0
TABLE
  2
APPID
 70
1
  0
APPID
  2
DXFWRITE
 70
0
  0
ENDTAB
  0
TABLE
  2
VPORT
 70
0
  0
ENDTAB
  0
TABLE
  2
UCS
 70
0
  0
ENDTAB
  0
ENDSEC
  0
SECTION
  2
BLOCKS
  0
BLOCK
  8
0
  2
DIMTICK_ARCH
  3
DIMTICK_ARCH
 70
0
 10
0.0
 20
0.0
 30
0.0
  0
LINE
 62
5
  8
0
 10
0.0
 20
0.5
 30
0.0
 11
0.0
 21
-0.5
 31
0.0
  0
LINE
 62
4
  8
0
 10
-0.2
 20
-0.2
 30
0.0
 11
0.2
 21
0.2
 31
0.0
  0
ENDBLK
  0
BLOCK
  8
0
  2
DIMTICK_DOT
  3
DIMTICK_DOT
 70
0
 10
0.0
 20
0.0
 30
0.0
  0
LINE
 62
5
  8
0
 10
0.0
 20
0.5
 30
0.0
 11
0.0
 21
-0.5
 31
0.0
  0
CIRCLE
 62
4
  8
0
 10
0.0
 20
0.0
 30
0.0
 40
0.1
  0
ENDBLK
  0
BLOCK
  8
0
  2
DIMTICK_ARROW
  3
DIMTICK_ARROW
 70
0
 10
0.0
 20
0.0
 30
0.0
  0
LINE
 62
5
  8
0
 10
0.0
 20
0.5
 30
0.0
 11
0.0
 21
-0.5
 31
0.0
  0
SOLID
 62
7
  8
0
 10
0.0
 20
0.0
 30
0.0
 11
0.3
 21
0.05
 31
0.0
 13
0.3
 23
-0.05
 33
0.0
 12
0.3
 22
-0.05
 32
0.0
  0
ENDBLK
  0
BLOCK
  8
0
  2
DIMTICK_RADIUS
  3
DIMTICK_RADIUS
 70
0
 10
0.0
 20
0.0
 30
0.0
  0
SOLID
 62
7
  8
0
 10
0.0
 20
0.0
 30
0.0
 11
0.3
 21
0.05
 31
0.0
 13
0.25
 23
0.0
 33
0.0
 12
0.3
 22
-0.05
 32
0.0
  0
ENDBLK
  0
ENDSEC
  0
SECTION
  2
ENTITIES
  0
VIEWPORT
  8
VIEWPORTS
 67
1
 10
0.0
 20
0.0
 30
0.0
 40
1.0
 41
1.0
 68
1
 69
1
1001
ACAD
1000
MVIEW
1002
{
1070
16
1010
0.0
1020
0.0
1030
0.0
1010
0.0
1020
0.0
1030
0.0
1040
0.0
1040
1.0
1040
0.0
1040
0.0
1040
50.0
1040
0.0
1040
0.0
1070
0
1070
100
1070
1
1070
3
1070
0
1070
0
1070
0
1070
0
1040
0.0
1040
0.0
1040
0.0
1040
0.1
1040
0.1
1040
0.1
1040
0.1
1070
0
1002
{
1002
}
1002
}
  0
LINE
 62
3
  8
0
 10
0.0
 20
0.0
 30
0.0
 11
28.431671458865157
 21
0.0
 31
0.0
  0
LINE
 62
7
  8
DIMENSIONS
 10
0.0
 20
-4.0
 30
0.0
 11
28.431671458865157
 21
-4.0
 31
0.0
  0
LINE
 62
5
  8
DIMENSIONS
 10
0.0
 20
-4.0
 30
0.0
 11
0.0
 21
0.10000000000000003
 31
0.0
  0
LINE
 62
5
  8
DIMENSIONS
 10
28.431671458865157
 20
-4.0
 30
0.0
 11
28.431671458865157
 21
0.10000000000000003
 31
0.0
  0
TEXT
 62
7
  8
DIMENSIONS
 10
14.215835729432579
 20
-2.75
 30
0.0
 40
2.1
  1
28
 50
-0.0
  7
ISOCPEUR
 72
1
 73
2
 11
14.215835729432579
 21
-2.75
 31
0.0
  0
INSERT
  8
DIMENSIONS
  2
DIMTICK_ARROW
 10
0.0
 20
-4.0
 30
0.0
 41
8.0
 42
8.0
 50
0.0
  0
INSERT
  8
DIMENSIONS
  2
DIMTICK_ARROW
 10
28.431671458865157
 20
-4.0
 30
0.0
 41
8.0
 42
8.0
 50
180.0
  0
LINE
 62
7
  8
DIMENSIONS
 10
0.0
 20
-4.0
 30
0.0
 11
28.431671458865157
 21
-4.0
 31
0.0
  0
LINE
 62
5
  8
DIMENSIONS
 10
0.0
 20
-4.0
 30
0.0
 11
0.0
 21
0.10000000000000003
 31
0.0
  0
LINE
 62
5
  8
DIMENSIONS
 10
28.431671458865157
 20
-4.0
 30
0.0
 11
28.431671458865157
 21
0.10000000000000003
 31
0.0
  0
TEXT
 62
7
  8
DIMENSIONS
 10
14.215835729432579
 20
-2.75
 30
0.0
 40
2.1
  1
28
 50
-0.0
  7
ISOCPEUR
 72
1
 73
2
 11
14.215835729432579
 21
-2.75
 31
0.0
  0
INSERT
  8
DIMENSIONS
  2
DIMTICK_ARROW
 10
0.0
 20
-4.0
 30
0.0
 41
8.0
 42
8.0
 50
0.0
  0
INSERT
  8
DIMENSIONS
  2
DIMTICK_ARROW
 10
28.431671458865157
 20
-4.0
 30
0.0
 41
8.0
 42
8.0
 50
180.0
  0
LINE
 62
7
  8
DIMENSIONS
 10
0.0
 20
-4.0
 30
0.0
 11
28.431671458865157
 21
-4.0
 31
0.0
  0
LINE
 62
5
  8
DIMENSIONS
 10
0.0
 20
-4.0
 30
0.0
 11
0.0
 21
0.10000000000000003
 31
0.0
  0
LINE
 62
5
  8
DIMENSIONS
 10
28.431671458865157
 20
-4.0
 30
0.0
 11
28.431671458865157
 21
0.10000000000000003
 31
0.0
  0
TEXT
 62
7
  8
DIMENSIONS
 10
14.215835729432579
 20
-2.75
 30
0.0
 40
2.1
  1
28
 50
-0.0
  7
ISOCPEUR
 72
1
 73
2
 11
14.215835729432579
 21
-2.75
 31
0.0
  0
INSERT
  8
DIMENSIONS
  2
DIMTICK_ARROW
 10
0.0
 20
-4.0
 30
0.0
 41
8.0
 42
8.0
 50
0.0
  0
INSERT
  8
DIMENSIONS
  2
DIMTICK_ARROW
 10
28.431671458865157
 20
-4.0
 30
0.0
 41
8.0
 42
8.0
 50
180.0
  0
LINE
 62
7
  8
DIMENSIONS
 10
0.0
 20
-4.0
 30
0.0
 11
28.431671458865157
 21
-4.0
 31
0.0
  0
LINE
 62
5
  8
DIMENSIONS
 10
0.0
 20
-4.0
 30
0.0
 11
0.0
 21
0.10000000000000003
 31
0.0
  0
LINE
 62
5
  8
DIMENSIONS
 10
28.431671458865157
 20
-4.0
 30
0.0
 11
28.431671458865157
 21
0.10000000000000003
 31
0.0
  0
TEXT
 62
7
  8
DIMENSIONS
 10
14.215835729432579
 20
-2.75
 30
0.0
 40
2.1
  1
28
 50
-0.0
  7
ISOCPEUR
 72
1
 73
2
 11
14.215835729432579
 21
-2.75
 31
0.0
  0
INSERT
  8
DIMENSIONS
  2
DIMTICK_ARROW
 10
0.0
 20
-4.0
 30
0.0
 41
8.0
 42
8.0
 50
0.0
  0
INSERT
  8
DIMENSIONS
  2
DIMTICK_ARROW
 10
28.431671458865157
 20
-4.0
 30
0.0
 41
8.0
 42
8.0
 50
180.0
  0
LINE
 62
7
  8
DIMENSIONS
 10
0.0
 20
-4.0
 30
0.0
 11
28.431671458865157
 21
-4.0
 31
0.0
  0
LINE
 62
5
  8
DIMENSIONS
 10
0.0
 20
-4.0
 30
0.0
 11
0.0
 21
0.10000000000000003
 31
0.0
  0
LINE
 62
5
  8
DIMENSIONS
 10
28.431671458865157
 20
-4.0
 30
0.0
 11
28.431671458865157
 21
0.10000000000000003
 31
0.0
  0
TEXT
 62
7
  8
DIMENSIONS
 10
14.215835729432579
 20
-2.75
 30
0.0
 40
2.1
  1
28
 50
-0.0
  7
ISOCPEUR
 72
1
 73
2
 11
14.215835729432579
 21
-2.75
 31
0.0
  0
INSERT
  8
DIMENSIONS
  2
DIMTICK_ARROW
 10
0.0
 20
-4.0
 30
0.0
 41
8.0
 42
8.0
 50
0.0
  0
INSERT
  8
DIMENSIONS
  2
DIMTICK_ARROW
 10
28.431671458865157
 20
-4.0
 30
0.0
 41
8.0
 42
8.0
 50
180.0
  0
LINE
 62
7
  8
DIMENSIONS
 10
0.0
 20
-4.0
 30
0.0
 11
28.431671458865157
 21
-4.0
 31
0.0
  0
LINE
 62
5
  8
DIMENSIONS
 10
0.0
 20
-4.0
 30
0.0
 11
0.0
 21
0.10000000000000003
 31
0.0
  0
LINE
 62
5
  8
DIMENSIONS
 10
28.431671458865157
 20
-4.0
 30
0.0
 11
28.431671458865157
 21
0.10000000000000003
 31
0.0
  0
TEXT
 62
7
  8
DIMENSIONS
 10
14.215835729432579
 20
-2.75
 30
0.0
 40
2.1
  1
28
 50
-0.0
  7
ISOCPEUR
 72
1
 73
2
 11
14.215835729432579
 21
-2.75
 31
0.0
  0
INSERT
  8
DIMENSIONS
  2
DIMTICK_ARROW
 10
0.0
 20
-4.0
 30
0.0
 41
8.0
 42
8.0
 50
0.0
  0
INSERT
  8
DIMENSIONS
  2
DIMTICK_ARROW
 10
28.431671458865157
 20
-4.0
 30
0.0
 41
8.0
 42
8.0
 50
180.0
  0
LINE
 62
7
  8
DIMENSIONS
 10
0.0
 20
-4.0
 30
0.0
 11
28.431671458865157
 21
-4.0
 31
0.0
  0
LINE
 62
5
  8
DIMENSIONS
 10
0.0
 20
-4.0
 30
0.0
 11
0.0
 21
0.10000000000000003
 31
0.0
  0
LINE
 62
5
  8
DIMENSIONS
 10
28.431671458865157
 20
-4.0
 30
0.0
 11
28.431671458865157
 21
0.10000000000000003
 31
0.0
  0
TEXT
 62
7
  8
DIMENSIONS
 10
14.215835729432579
 20
-2.75
 30
0.0
 40
2.1
  1
28
 50
-0.0
  7
ISOCPEUR
 72
1
 73
2
 11
14.215835729432579
 21
-2.75
 31
0.0
  0
INSERT
  8
DIMENSIONS
  2
DIMTICK_ARROW
 10
0.0
 20
-4.0
 30
0.0
 41
8.0
 42
8.0
 50
0.0
  0
INSERT
  8
DIMENSIONS
  2
DIMTICK_ARROW
 10
28.431671458865157
 20
-4.0
 30
0.0
 41
8.0
 42
8.0
 50
180.0
  0
LINE
 62
7
  8
DIMENSIONS
 10
0.0
 20
-4.0
 30
0.0
 11
28.431671458865157
 21
-4.0
 31
0.0
  0
LINE
 62
5
  8
DIMENSIONS
 10
0.0
 20
-4.0
 30
0.0
 11
0.0
 21
0.10000000000000003
 31
0.0
  0
LINE
 62
5
  8
DIMENSIONS
 10
28.431671458865157
 20
-4.0
 30
0.0
 11
28.431671458865157
 21
0.10000000000000003
 31
0.0
  0
TEXT
 62
7
  8
DIMENSIONS
 10
14.215835729432579
 20
-2.75
 30
0.0
 40
2.1
  1
28
 50
-0.0
  7
ISOCPEUR
 72
1
 73
2
 11
14.215835729432579
 21
-2.75
 31
0.0
  0
INSERT
  8
DIMENSIONS
  2
DIMTICK_ARROW
 10
0.0
 20
-4.0
 30
0.0
 41
8.0
 42
8.0
 50
0.0
  0
INSERT
  8
DIMENSIONS
  2
DIMTICK_ARROW
 10
28.431671458865157
 20
-4.0
 30
0.0
 41
8.0
 42
8.0
 50
180.0
  0
LINE
 62
7
  8
DIMENSIONS
 10
0.0
 20
-4.0
 30
0.0
 11
28.431671458865157
 21
-4.0
 31
0.0
  0
LINE
 62
5
  8
DIMENSIONS
 10
0.0
 20
-4.0
 30
0.0
 11
0.0
 21
0.10000000000000003
 31
0.0
  0
LINE
 62
5
  8
DIMENSIONS
 10
28.431671458865157
 20
-4.0
 30
0.0
 11
28.431671458865157
 21
0.10000000000000003
 31
0.0
  0
TEXT
 62
7
  8
DIMENSIONS
 10
14.215835729432579
 20
-2.75
 30
0.0
 40
2.1
  1
28
 50
-0.0
  7
ISOCPEUR
 72
1
 73
2
 11
14.215835729432579
 21
-2.75
 31
0.0
  0
INSERT
  8
DIMENSIONS
  2
DIMTICK_ARROW
 10
0.0
 20
-4.0
 30
0.0
 41
8.0
 42
8.0
 50
0.0
  0
INSERT
  8
DIMENSIONS
  2
DIMTICK_ARROW
 10
28.431671458865157
 20
-4.0
 30
0.0
 41
8.0
 42
8.0
 50
180.0
  0
LINE
 62
7
  8
DIMENSIONS
 10
0.0
 20
-4.0
 30
0.0
 11
28.431671458865157
 21
-4.0
 31
0.0
  0
LINE
 62
5
  8
DIMENSIONS
 10
0.0
 20
-4.0
 30
0.0
 11
0.0
 21
0.10000000000000003
 31
0.0
  0
LINE
 62
5
  8
DIMENSIONS
 10
28.431671458865157
 20
-4.0
 30
0.0
 11
28.431671458865157
 21
0.10000000000000003
 31
0.0
  0
TEXT
 62
7
  8
DIMENSIONS
 10
14.215835729432579
 20
-2.75
 30
0.0
 40
2.1
  1
28
 50
-0.0
  7
ISOCPEUR
 72
1
 73
2
 11
14.215835729432579
 21
-2.75
 31
0.0
  0
INSERT
  8
DIMENSIONS
  2
DIMTICK_ARROW
 10
0.0
 20
-4.0
 30
0.0
 41
8.0
 42
8.0
 50
0.0
  0
INSERT
  8
DIMENSIONS
  2
DIMTICK_ARROW
 10
28.431671458865157
 20
-4.0
 30
0.0
 41
8.0
 42
8.0
 50
180.0
  0
LINE
 62
7
  8
DIMENSIONS
 10
0.0
 20
-4.0
 30
0.0
 11
28.431671458865157
 21
-4.0
 31
0.0
  0
LINE
 62
5
  8
DIMENSIONS
 10
0.0
 20
-4.0
 30
0.0
 11
0.0
 21
0.10000000000000003
 31
0.0
  0
LINE
 62
5
  8
DIMENSIONS
 10
28.431671458865157
 20
-4.0
 30
0.0
 11
28.431671458865157
 21
0.10000000000000003
 31
0.0
  0
TEXT
 62
7
  8
DIMENSIONS
 10
14.215835729432579
 20
-2.75
 30
0.0
 40
2.1
  1
28
 50
-0.0
  7
ISOCPEUR
 72
1
 73
2
 11
14.215835729432579
 21
-2.75
 31
0.0
  0
INSERT
  8
DIMENSIONS
  2
DIMTICK_ARROW
 10
0.0
 20
-4.0
 30
0.0
 41
8.0
 42
8.0
 50
0.0
  0
INSERT
  8
DIMENSIONS
  2
DIMTICK_ARROW
 10
28.431671458865157
 20
-4.0
 30
0.0
 41
8.0
 42
8.0
 50
180.0
  0
LINE
 62
7
  8
DIMENSIONS
 10
0.0
 20
-4.0
 30
0.0
 11
28.431671458865157
 21
-4.0
 31
0.0
  0
LINE
 62
5
  8
DIMENSIONS
 10
0.0
 20
-4.0
 30
0.0
 11
0.0
 21
0.10000000000000003
 31
0.0
  0
LINE
 62
5
  8
DIMENSIONS
 10
28.431671458865157
 20
-4.0
 30
0.0
 11
28.431671458865157
 21
0.10000000000000003
 31
0.0
  0
TEXT
 62
7
  8
DIMENSIONS
 10
14.215835729432579
 20
-2.75
 30
0.0
 40
2.1
  1
28
 50
-0.0
  7
ISOCPEUR
 72
1
 73
2
 11
14.215835729432579
 21
-2.75
 31
0.0
  0
INSERT
  8
DIMENSIONS
  2
DIMTICK_ARROW
 10
0.0
 20
-4.0
 30
0.0
 41
8.0
 42
8.0
 50
0.0
  0
INSERT
  8
DIMENSIONS
  2
DIMTICK_ARROW
 10
28.431671458865157
 20
-4.0
 30
0.0
 41
8.0
 42
8.0
 50
180.0
  0
LINE
 62
7
  8
DIMENSIONS
 10
0.0
 20
-4.0
 30
0.0
 11
28.431671458865157
 21
-4.0
 31
0.0
  0
LINE
 62
5
  8
DIMENSIONS
 10
0.0
 20
-4.0
 30
0.0
 11
0.0
 21
0.10000000000000003
 31
0.0
  0
LINE
 62
5
  8
DIMENSIONS
 10
28.431671458865157
 20
-4.0
 30
0.0
 11
28.431671458865157
 21
0.10000000000000003
 31
0.0
  0
TEXT
 62
7
  8
DIMENSIONS
 10
14.215835729432579
 20
-2.75
 30
0.0
 40
2.1
  1
28
 50
-0.0
  7
ISOCPEUR
 72
1
 73
2
 11
14.215835729432579
 21
-2.75
 31
0.0
  0
INSERT
  8
DIMENSIONS
  2
DIMTICK_ARROW
 10
0.0
 20
-4.0
 30
0.0
 41
8.0
 42
8.0
 50
0.0
  0
INSERT
  8
DIMENSIONS
  2
DIMTICK_ARROW
 10
28.431671458865157
 20
-4.0
 30
0.0
 41
8.0
 42
8.0
 50
180.0
  0
LINE
 62
7
  8
DIMENSIONS
 10
0.0
 20
-4.0
 30
0.0
 11
28.431671458865157
 21
-4.0
 31
0.0
  0
LINE
 62
5
  8
DIMENSIONS
 10
0.0
 20
-4.0
 30
0.0
 11
0.0
 21
0.10000000000000003
 31
0.0
  0
LINE
 62
5
  8
DIMENSIONS
 10
28.431671458865157
 20
-4.0
 30
0.0
 11
28.431671458865157
 21
0.10000000000000003
 31
0.0
  0
TEXT
 62
7
  8
DIMENSIONS
 10
14.215835729432579
 20
-2.75
 30
0.0
 40
2.1
  1
28
 50
-0.0
  7
ISOCPEUR
 72
1
 73
2
 11
14.215835729432579
 21
-2.75
 31
0.0
  0
INSERT
  8
DIMENSIONS
  2
DIMTICK_ARROW
 10
0.0
 20
-4.0
 30
0.0
 41
8.0
 42
8.0
 50
0.0
  0
INSERT
  8
DIMENSIONS
  2
DIMTICK_ARROW
 10
28.431671458865157
 20
-4.0
 30
0.0
 41
8.0
 42
8.0
 50
180.0
  0
LINE
 62
7
  8
DIMENSIONS
 10
0.0
 20
-4.0
 30
0.0
 11
28.431671458865157
 21
-4.0
 31
0.0
  0
LINE
 62
5
  8
DIMENSIONS
 10
0.0
 20
-4.0
 30
0.0
 11
0.0
 21
0.10000000000000003
 31
0.0
  0
LINE
 62
5
  8
DIMENSIONS
 10
28.431671458865157
 20
-4.0
 30
0.0
 11
28.431671458865157
 21
0.10000000000000003
 31
0.0
  0
TEXT
 62
7
  8
DIMENSIONS
 10
14.215835729432579
 20
-2.75
 30
0.0
 40
2.1
  1
28
 50
-0.0
  7
ISOCPEUR
 72
1
 73
2
 11
14.215835729432579
 21
-2.75
 31
0.0
  0
INSERT
  8
DIMENSIONS
  2
DIMTICK_ARROW
 10
0.0
 20
-4.0
 30
0.0
 41
8.0
 42
8.0
 50
0.0
  0
INSERT
  8
DIMENSIONS
  2
DIMTICK_ARROW
 10
28.431671458865157
 20
-4.0
 30
0.0
 41
8.0
 42
8.0
 50
180.0
  0
LINE
 62
7
  8
DIMENSIONS
 10
0.0
 20
-4.0
 30
0.0
 11
28.431671458865157
 21
-4.0
 31
0.0
  0
LINE
 62
5
  8
DIMENSIONS
 10
0.0
 20
-4.0
 30
0.0
 11
0.0
 21
0.10000000000000003
 31
0.0
  0
LINE
 62
5
  8
DIMENSIONS
 10
28.431671458865157
 20
-4.0
 30
0.0
 11
28.431671458865157
 21
0.10000000000000003
 31
0.0
  0
TEXT
 62
7
  8
DIMENSIONS
 10
14.215835729432579
 20
-2.75
 30
0.0
 40
2.1
  1
28
 50
-0.0
  7
ISOCPEUR
 72
1
 73
2
 11
14.215835729432579
 21
-2.75
 31
0.0
  0
INSERT
  8
DIMENSIONS
  2
DIMTICK_ARROW
 10
0.0
 20
-4.0
 30
0.0
 41
8.0
 42
8.0
 50
0.0
  0
INSERT
  8
DIMENSIONS
  2
DIMTICK_ARROW
 10
28.431671458865157
 20
-4.0
 30
0.0
 41
8.0
 42
8.0
 50
180.0
  0
LINE
 62
7
  8
DIMENSIONS
 10
0.0
 20
-4.0
 30
0.0
 11
28.431671458865157
 21
-4.0
 31
0.0
  0
LINE
 62
5
  8
DIMENSIONS
 10
0.0
 20
-4.0
 30
0.0
 11
0.0
 21
0.10000000000000003
 31
0.0
  0
LINE
 62
5
  8
DIMENSIONS
 10
28.431671458865157
 20
-4.0
 30
0.0
 11
28.431671458865157
 21
0.10000000000000003
 31
0.0
  0
TEXT
 62
7
  8
DIMENSIONS
 10
14.215835729432579
 20
-2.75
 30
0.0
 40
2.1
  1
28
 50
-0.0
  7
ISOCPEUR
 72
1
 73
2
 11
14.215835729432579
 21
-2.75
 31
0.0
  0
INSERT
  8
DIMENSIONS
  2
DIMTICK_ARROW
 10
0.0
 20
-4.0
 30
0.0
 41
8.0
 42
8.0
 50
0.0
  0
INSERT
  8
DIMENSIONS
  2
DIMTICK_ARROW
 10
28.431671458865157
 20
-4.0
 30
0.0
 41
8.0
 42
8.0
 50
180.0
  0
LINE
 62
7
  8
DIMENSIONS
 10
0.0
 20
-4.0
 30
0.0
 11
28.431671458865157
 21
-4.0
 31
0.0
  0
LINE
 62
5
  8
DIMENSIONS
 10
0.0
 20
-4.0
 30
0.0
 11
0.0
 21
0.10000000000000003
 31
0.0
  0
LINE
 62
5
  8
DIMENSIONS
 10
28.431671458865157
 20
-4.0
 30
0.0
 11
28.431671458865157
 21
0.10000000000000003
 31
0.0
  0
TEXT
 62
7
  8
DIMENSIONS
 10
14.215835729432579
 20
-2.75
 30
0.0
 40
2.1
  1
28
 50
-0.0
  7
ISOCPEUR
 72
1
 73
2
 11
14.215835729432579
 21
-2.75
 31
0.0
  0
INSERT
  8
DIMENSIONS
  2
DIMTICK_ARROW
 10
0.0
 20
-4.0
 30
0.0
 41
8.0
 42
8.0
 50
0.0
  0
INSERT
  8
DIMENSIONS
  2
DIMTICK_ARROW
 10
28.431671458865157
 20
-4.0
 30
0.0
 41
8.0
 42
8.0
 50
180.0
  0
LINE
 62
7
  8
DIMENSIONS
 10
0.0
 20
-4.0
 30
0.0
 11
28.431671458865157
 21
-4.0
 31
0.0
  0
LINE
 62
5
  8
DIMENSIONS
 10
0.0
 20
-4.0
 30
0.0
 11
0.0
 21
0.10000000000000003
 31
0.0
  0
LINE
 62
5
  8
DIMENSIONS
 10
28.431671458865157
 20
-4.0
 30
0.0
 11
28.431671458865157
 21
0.10000000000000003
 31
0.0
  0
TEXT
 62
7
  8
DIMENSIONS
 10
14.215835729432579
 20
-2.75
 30
0.0
 40
2.1
  1
28
 50
-0.0
  7
ISOCPEUR
 72
1
 73
2
 11
14.215835729432579
 21
-2.75
 31
0.0
  0
INSERT
  8
DIMENSIONS
  2
DIMTICK_ARROW
 10
0.0
 20
-4.0
 30
0.0
 41
8.0
 42
8.0
 50
0.0
  0
INSERT
  8
DIMENSIONS
  2
DIMTICK_ARROW
 10
28.431671458865157
 20
-4.0
 30
0.0
 41
8.0
 42
8.0
 50
180.0
  0
LINE
 62
7
  8
DIMENSIONS
 10
0.0
 20
-4.0
 30
0.0
 11
28.431671458865157
 21
-4.0
 31
0.0
  0
LINE
 62
5
  8
DIMENSIONS
 10
0.0
 20
-4.0
 30
0.0
 11
0.0
 21
0.10000000000000003
 31
0.0
  0
LINE
 62
5
  8
DIMENSIONS
 10
28.431671458865157
 20
-4.0
 30
0.0
 11
28.431671458865157
 21
0.10000000000000003
 31
0.0
  0
TEXT
 62
7
  8
DIMENSIONS
 10
14.215835729432579
 20
-2.75
 30
0.0
 40
2.1
  1
28
 50
-0.0
  7
ISOCPEUR
 72
1
 73
2
 11
14.215835729432579
 21
-2.75
 31
0.0
  0
INSERT
  8
DIMENSIONS
  2
DIMTICK_ARROW
 10
0.0
 20
-4.0
 30
0.0
 41
8.0
 42
8.0
 50
0.0
  0
INSERT
  8
DIMENSIONS
  2
DIMTICK_ARROW
 10
28.431671458865157
 20
-4.0
 30
0.0
 41
8.0
 42
8.0
 50
180.0
  0
LINE
 62
7
  8
DIMENSIONS
 10
0.0
 20
-4.0
 30
0.0
 11
28.431671458865157
 21
-4.0
 31
0.0
  0
LINE
 62
5
  8
DIMENSIONS
 10
0.0
 20
-4.0
 30
0.0
 11
0.0
 21
0.10000000000000003
 31
0.0
  0
LINE
 62
5
  8
DIMENSIONS
 10
28.431671458865157
 20
-4.0
 30
0.0
 11
28.431671458865157
 21
0.10000000000000003
 31
0.0
  0
TEXT
 62
7
  8
DIMENSIONS
 10
14.215835729432579
 20
-2.75
 30
0.0
 40
2.1
  1
28
 50
-0.0
  7
ISOCPEUR
 72
1
 73
2
 11
14.215835729432579
 21
-2.75
 31
0.0
  0
INSERT
  8
DIMENSIONS
  2
DIMTICK_ARROW
 10
0.0
 20
-4.0
 30
0.0
 41
8.0
 42
8.0
 50
0.0
  0
INSERT
  8
DIMENSIONS
  2
DIMTICK_ARROW
 10
28.431671458865157
 20
-4.0
 30
0.0
 41
8.0
 42
8.0
 50
180.0
  0
LINE
 62
7
  8
DIMENSIONS
 10
0.0
 20
-4.0
 30
0.0
 11
28.431671458865157
 21
-4.0
 31
0.0
  0
LINE
 62
5
  8
DIMENSIONS
 10
0.0
 20
-4.0
 30
0.0
 11
0.0
 21
0.10000000000000003
 31
0.0
  0
LINE
 62
5
  8
DIMENSIONS
 10
28.431671458865157
 20
-4.0
 30
0.0
 11
28.431671458865157
 21
0.10000000000000003
 31
0.0
  0
TEXT
 62
7
  8
DIMENSIONS
 10
14.215835729432579
 20
-2.75
 30
0.0
 40
2.1
  1
28
 50
-0.0
  7
ISOCPEUR
 72
1
 73
2
 11
14.215835729432579
 21
-2.75
 31
0.0
  0
INSERT
  8
DIMENSIONS
  2
DIMTICK_ARROW
 10
0.0
 20
-4.0
 30
0.0
 41
8.0
 42
8.0
 50
0.0
  0
INSERT
  8
DIMENSIONS
  2
DIMTICK_ARROW
 10
28.431671458865157
 20
-4.0
 30
0.0
 41
8.0
 42
8.0
 50
180.0
  0
LINE
 62
7
  8
DIMENSIONS
 10
0.0
 20
-4.0
 30
0.0
 11
28.431671458865157
 21
-4.0
 31
0.0
  0
LINE
 62
5
  8
DIMENSIONS
 10
0.0
 20
-4.0
 30
0.0
 11
0.0
 21
0.10000000000000003
 31
0.0
  0
LINE
 62
5
  8
DIMENSIONS
 10
28.431671458865157
 20
-4.0
 30
0.0
 11
28.431671458865157
 21
0.10000000000000003
 31
0.0
  0
TEXT
 62
7
  8
DIMENSIONS
 10
14.215835729432579
 20
-2.75
 30
0.0
 40
2.1
  1
28
 50
-0.0
  7
ISOCPEUR
 72
1
 73
2
 11
14.215835729432579
 21
-2.75
 31
0.0
  0
INSERT
  8
DIMENSIONS
  2
DIMTICK_ARROW
 10
0.0
 20
-4.0
 30
0.0
 41
8.0
 42
8.0
 50
0.0
  0
INSERT
  8
DIMENSIONS
  2
DIMTICK_ARROW
 10
28.431671458865157
 20
-4.0
 30
0.0
 41
8.0
 42
8.0
 50
180.0
  0
LINE
 62
7
  8
DIMENSIONS
 10
0.0
 20
-4.0
 30
0.0
 11
28.431671458865157
 21
-4.0
 31
0.0
  0
LINE
 62
5
  8
DIMENSIONS
 10
0.0
 20
-4.0
 30
0.0
 11
0.0
 21
0.10000000000000003
 31
0.0
  0
LINE
 62
5
  8
DIMENSIONS
 10
28.431671458865157
 20
-4.0
 30
0.0
 11
28.431671458865157
 21
0.10000000000000003
 31
0.0
  0
TEXT
 62
7
  8
DIMENSIONS
 10
14.215835729432579
 20
-2.75
 30
0.0
 40
2.1
  1
28
 50
-0.0
  7
ISOCPEUR
 72
1
 73
2
 11
14.215835729432579
 21
-2.75
 31
0.0
  0
INSERT
  8
DIMENSIONS
  2
DIMTICK_ARROW
 10
0.0
 20
-4.0
 30
0.0
 41
8.0
 42
8.0
 50
0.0
  0
INSERT
  8
DIMENSIONS
  2
DIMTICK_ARROW
 10
28.431671458865157
 20
-4.0
 30
0.0
 41
8.0
 42
8.0
 50
180.0
  0
LINE
 62
7
  8
DIMENSIONS
 10
0.0
 20
-4.0
 30
0.0
 11
28.431671458865157
 21
-4.0
 31
0.0
  0
LINE
 62
5
  8
DIMENSIONS
 10
0.0
 20
-4.0
 30
0.0
 11
0.0
 21
0.10000000000000003
 31
0.0
  0
LINE
 62
5
  8
DIMENSIONS
 10
28.431671458865157
 20
-4.0
 30
0.0
 11
28.431671458865157
 21
0.10000000000000003
 31
0.0
  0
TEXT
 62
7
  8
DIMENSIONS
 10
14.215835729432579
 20
-2.75
 30
0.0
 40
2.1
  1
28
 50
-0.0
  7
ISOCPEUR
 72
1
 73
2
 11
14.215835729432579
 21
-2.75
 31
0.0
  0
INSERT
  8
DIMENSIONS
  2
DIMTICK_ARROW
 10
0.0
 20
-4.0
 30
0.0
 41
8.0
 42
8.0
 50
0.0
  0
INSERT
  8
DIMENSIONS
  2
DIMTICK_ARROW
 10
28.431671458865157
 20
-4.0
 30
0.0
 41
8.0
 42
8.0
 50
180.0
  0
LINE
 62
7
  8
DIMENSIONS
 10
0.0
 20
-4.0
 30
0.0
 11
28.431671458865157
 21
-4.0
 31
0.0
  0
LINE
 62
5
  8
DIMENSIONS
 10
0.0
 20
-4.0
 30
0.0
 11
0.0
 21
0.10000000000000003
 31
0.0
  0
LINE
 62
5
  8
DIMENSIONS
 10
28.431671458865157
 20
-4.0
 30
0.0
 11
28.431671458865157
 21
0.10000000000000003
 31
0.0
  0
TEXT
 62
7
  8
DIMENSIONS
 10
14.215835729432579
 20
-2.75
 30
0.0
 40
2.1
  1
28
 50
-0.0
  7
ISOCPEUR
 72
1
 73
2
 11
14.215835729432579
 21
-2.75
 31
0.0
  0
INSERT
  8
DIMENSIONS
  2
DIMTICK_ARROW
 10
0.0
 20
-4.0
 30
0.0
 41
8.0
 42
8.0
 50
0.0
  0
INSERT
  8
DIMENSIONS
  2
DIMTICK_ARROW
 10
28.431671458865157
 20
-4.0
 30
0.0
 41
8.0
 42
8.0
 50
180.0
  0
LINE
 62
7
  8
DIMENSIONS
 10
0.0
 20
-4.0
 30
0.0
 11
28.431671458865157
 21
-4.0
 31
0.0
  0
LINE
 62
5
  8
DIMENSIONS
 10
0.0
 20
-4.0
 30
0.0
 11
0.0
 21
0.10000000000000003
 31
0.0
  0
LINE
 62
5
  8
DIMENSIONS
 10
28.431671458865157
 20
-4.0
 30
0.0
 11
28.431671458865157
 21
0.10000000000000003
 31
0.0
  0
TEXT
 62
7
  8
DIMENSIONS
 10
14.215835729432579
 20
-2.75
 30
0.0
 40
2.1
  1
28
 50
-0.0
  7
ISOCPEUR
 72
1
 73
2
 11
14.215835729432579
 21
-2.75
 31
0.0
  0
INSERT
  8
DIMENSIONS
  2
DIMTICK_ARROW
 10
0.0
 20
-4.0
 30
0.0
 41
8.0
 42
8.0
 50
0.0
  0
INSERT
  8
DIMENSIONS
  2
DIMTICK_ARROW
 10
28.431671458865157
 20
-4.0
 30
0.0
 41
8.0
 42
8.0
 50
180.0
  0
LINE
 62
7
  8
DIMENSIONS
 10
0.0
 20
-4.0
 30
0.0
 11
28.431671458865157
 21
-4.0
 31
0.0
  0
LINE
 62
5
  8
DIMENSIONS
 10
0.0
 20
-4.0
 30
0.0
 11
0.0
 21
0.10000000000000003
 31
0.0
  0
LINE
 62
5
  8
DIMENSIONS
 10
28.431671458865157
 20
-4.0
 30
0.0
 11
28.431671458865157
 21
0.10000000000000003
 31
0.0
  0
TEXT
 62
7
  8
DIMENSIONS
 10
14.215835729432579
 20
-2.75
 30
0.0
 40
2.1
  1
28
 50
-0.0
  7
ISOCPEUR
 72
1
 73
2
 11
14.215835729432579
 21
-2.75
 31
0.0
  0
INSERT
  8
DIMENSIONS
  2
DIMTICK_ARROW
 10
0.0
 20
-4.0
 30
0.0
 41
8.0
 42
8.0
 50
0.0
  0
INSERT
  8
DIMENSIONS
  2
DIMTICK_ARROW
 10
28.431671458865157
 20
-4.0
 30
0.0
 41
8.0
 42
8.0
 50
180.0
  0
LINE
 62
7
  8
DIMENSIONS
 10
0.0
 20
-4.0
 30
0.0
 11
28.431671458865157
 21
-4.0
 31
0.0
  0
LINE
 62
5
  8
DIMENSIONS
 10
0.0
 20
-4.0
 30
0.0
 11
0.0
 21
0.10000000000000003
 31
0.0
  0
LINE
 62
5
  8
DIMENSIONS
 10
28.431671458865157
 20
-4.0
 30
0.0
 11
28.431671458865157
 21
0.10000000000000003
 31
0.0
  0
TEXT
 62
7
  8
DIMENSIONS
 10
14.215835729432579
 20
-2.75
 30
0.0
 40
2.1
  1
28
 50
-0.0
  7
ISOCPEUR
 72
1
 73
2
 11
14.215835729432579
 21
-2.75
 31
0.0
  0
INSERT
  8
DIMENSIONS
  2
DIMTICK_ARROW
 10
0.0
 20
-4.0
 30
0.0
 41
8.0
 42
8.0
 50
0.0
  0
INSERT
  8
DIMENSIONS
  2
DIMTICK_ARROW
 10
28.431671458865157
 20
-4.0
 30
0.0
 41
8.0
 42
8.0
 50
180.0
  0
LINE
 62
7
  8
DIMENSIONS
 10
0.0
 20
-4.0
 30
0.0
 11
28.431671458865157
 21
-4.0
 31
0.0
  0
LINE
 62
5
  8
DIMENSIONS
 10
0.0
 20
-4.0
 30
0.0
 11
0.0
 21
0.10000000000000003
 31
0.0
  0
LINE
 62
5
  8
DIMENSIONS
 10
28.431671458865157
 20
-4.0
 30
0.0
 11
28.431671458865157
 21
0.10000000000000003
 31
0.0
  0
TEXT
 62
7
  8
DIMENSIONS
 10
14.215835729432579
 20
-2.75
 30
0.0
 40
2.1
  1
28
 50
-0.0
  7
ISOCPEUR
 72
1
 73
2
 11
14.215835729432579
 21
-2.75
 31
0.0
  0
INSERT
  8
DIMENSIONS
  2
DIMTICK_ARROW
 10
0.0
 20
-4.0
 30
0.0
 41
8.0
 42
8.0
 50
0.0
  0
INSERT
  8
DIMENSIONS
  2
DIMTICK_ARROW
 10
28.431671458865157
 20
-4.0
 30
0.0
 41
8.0
 42
8.0
 50
180.0
  0
LINE
 62
3
  8
0
 10
0.0
 20
51.72315372742701
 30
0.0
 11
78.22725423992843
 21
51.72315372742701
 31
0.0
  0
LINE
 62
3
  8
0
 10
60.39722298606384
 20
0.0
 30
0.0
 11
78.22725423992843
 21
0.0
 31
0.0
  0
LINE
 62
3
  8
0
 10
0.0
 20
0.0
 30
0.0
 11
28.431671458865157
 21
0.0
 31
0.0
  0
LINE
 62
7
  8
DIMENSIONS
 10
0.0
 20
-4.0
 30
0.0
 11
28.431671458865157
 21
-4.0
 31
0.0
  0
LINE
 62
5
  8
DIMENSIONS
 10
0.0
 20
-4.0
 30
0.0
 11
0.0
 21
0.10000000000000003
 31
0.0
  0
LINE
 62
5
  8
DIMENSIONS
 10
28.431671458865157
 20
-4.0
 30
0.0
 11
28.431671458865157
 21
0.10000000000000003
 31
0.0
  0
TEXT
 62
7
  8
DIMENSIONS
 10
14.215835729432579
 20
-2.75
 30
0.0
 40
2.1
  1
28
 50
-0.0
  7
ISOCPEUR
 72
1
 73
2
 11
14.215835729432579
 21
-2.75
 31
0.0
  0
INSERT
  8
DIMENSIONS
  2
DIMTICK_ARROW
 10
0.0
 20
-4.0
 30
0.0
 41
8.0
 42
8.0
 50
0.0
  0
INSERT
  8
DIMENSIONS
  2
DIMTICK_ARROW
 10
28.431671458865157
 20
-4.0
 30
0.0
 41
8.0
 42
8.0
 50
180.0
  0
LINE
 62
7
  8
DIMENSIONS
 10
0.0
 20
-4.0
 30
0.0
 11
28.431671458865157
 21
-4.0
 31
0.0
  0
LINE
 62
5
  8
DIMENSIONS
 10
0.0
 20
-4.0
 30
0.0
 11
0.0
 21
0.10000000000000003
 31
0.0
  0
LINE
 62
5
  8
DIMENSIONS
 10
28.431671458865157
 20
-4.0
 30
0.0
 11
28.431671458865157
 21
0.10000000000000003
 31
0.0
  0
TEXT
 62
7
  8
DIMENSIONS
 10
14.215835729432579
 20
-2.75
 30
0.0
 40
2.1
  1
28
 50
-0.0
  7
ISOCPEUR
 72
1
 73
2
 11
14.215835729432579
 21
-2.75
 31
0.0
  0
INSERT
  8
DIMENSIONS
  2
DIMTICK_ARROW
 10
0.0
 20
-4.0
 30
0.0
 41
8.0
 42
8.0
 50
0.0
  0
INSERT
  8
DIMENSIONS
  2
DIMTICK_ARROW
 10
28.431671458865157
 20
-4.0
 30
0.0
 41
8.0
 42
8.0
 50
180.0
  0
LINE
 62
7
  8
DIMENSIONS
 10
0.0
 20
-4.0
 30
0.0
 11
28.431671458865157
 21
-4.0
 31
0.0
  0
LINE
 62
5
  8
DIMENSIONS
 10
0.0
 20
-4.0
 30
0.0
 11
0.0
 21
0.10000000000000003
 31
0.0
  0
LINE
 62
5
  8
DIMENSIONS
 10
28.431671458865157
 20
-4.0
 30
0.0
 11
28.431671458865157
 21
0.10000000000000003
 31
0.0
  0
TEXT
 62
7
  8
DIMENSIONS
 10
14.215835729432579
 20
-2.75
 30
0.0
 40
2.1
  1
28
 50
-0.0
  7
ISOCPEUR
 72
1
 73
2
 11
14.215835729432579
 21
-2.75
 31
0.0
  0
INSERT
  8
DIMENSIONS
  2
DIMTICK_ARROW
 10
0.0
 20
-4.0
 30
0.0
 41
8.0
 42
8.0
 50
0.0
  0
INSERT
  8
DIMENSIONS
  2
DIMTICK_ARROW
 10
28.431671458865157
 20
-4.0
 30
0.0
 41
8.0
 42
8.0
 50
180.0
  0
LINE
 62
7
  8
DIMENSIONS
 10
0.0
 20
-4.0
 30
0.0
 11
28.431671458865157
 21
-4.0
 31
0.0
  0
LINE
 62
5
  8
DIMENSIONS
 10
0.0
 20
-4.0
 30
0.0
 11
0.0
 21
0.10000000000000003
 31
0.0
  0
LINE
 62
5
  8
DIMENSIONS
 10
28.431671458865157
 20
-4.0
 30
0.0
 11
28.431671458865157
 21
0.10000000000000003
 31
0.0
  0
TEXT
 62
7
  8
DIMENSIONS
 10
14.215835729432579
 20
-2.75
 30
0.0
 40
2.1
  1
28
 50
-0.0
  7
ISOCPEUR
 72
1
 73
2
 11
14.215835729432579
 21
-2.75
 31
0.0
  0
INSERT
  8
DIMENSIONS
  2
DIMTICK_ARROW
 10
0.0
 20
-4.0
 30
0.0
 41
8.0
 42
8.0
 50
0.0
  0
INSERT
  8
DIMENSIONS
  2
DIMTICK_ARROW
 10
28.431671458865157
 20
-4.0
 30
0.0
 41
8.0
 42
8.0
 50
180.0
  0
LINE
 62
7
  8
DIMENSIONS
 10
0.0
 20
-4.0
 30
0.0
 11
28.431671458865157
 21
-4.0
 31
0.0
  0
LINE
 62
5
  8
DIMENSIONS
 10
0.0
 20
-4.0
 30
0.0
 11
0.0
 21
0.10000000000000003
 31
0.0
  0
LINE
 62
5
  8
DIMENSIONS
 10
28.431671458865157
 20
-4.0
 30
0.0
 11
28.431671458865157
 21
0.10000000000000003
 31
0.0
  0
TEXT
 62
7
  8
DIMENSIONS
 10
14.215835729432579
 20
-2.75
 30
0.0
 40
2.1
  1
28
 50
-0.0
  7
ISOCPEUR
 72
1
 73
2
 11
14.215835729432579
 21
-2.75
 31
0.0
  0
INSERT
  8
DIMENSIONS
  2
DIMTICK_ARROW
 10
0.0
 20
-4.0
 30
0.0
 41
8.0
 42
8.0
 50
0.0
  0
INSERT
  8
DIMENSIONS
  2
DIMTICK_ARROW
 10
28.431671458865157
 20
-4.0
 30
0.0
 41
8.0
 42
8.0
 50
180.0
  0
LINE
 62
7
  8
DIMENSIONS
 10
0.0
 20
-4.0
 30
0.0
 11
28.431671458865157
 21
-4.0
 31
0.0
  0
LINE
 62
5
  8
DIMENSIONS
 10
0.0
 20
-4.0
 30
0.0
 11
0.0
 21
0.10000000000000003
 31
0.0
  0
LINE
 62
5
  8
DIMENSIONS
 10
28.431671458865157
 20
-4.0
 30
0.0
 11
28.431671458865157
 21
0.10000000000000003
 31
0.0
  0
TEXT
 62
7
  8
DIMENSIONS
 10
14.215835729432579
 20
-2.75
 30
0.0
 40
2.1
  1
28
 50
-0.0
  7
ISOCPEUR
 72
1
 73
2
 11
14.215835729432579
 21
-2.75
 31
0.0
  0
INSERT
  8
DIMENSIONS
  2
DIMTICK_ARROW
 10
0.0
 20
-4.0
 30
0.0
 41
8.0
 42
8.0
 50
0.0
  0
INSERT
  8
DIMENSIONS
  2
DIMTICK_ARROW
 10
28.431671458865157
 20
-4.0
 30
0.0
 41
8.0
 42
8.0
 50
180.0
  0
LINE
 62
7
  8
DIMENSIONS
 10
0.0
 20
-4.0
 30
0.0
 11
28.431671458865157
 21
-4.0
 31
0.0
  0
LINE
 62
5
  8
DIMENSIONS
 10
0.0
 20
-4.0
 30
0.0
 11
0.0
 21
0.10000000000000003
 31
0.0
  0
LINE
 62
5
  8
DIMENSIONS
 10
28.431671458865157
 20
-4.0
 30
0.0
 11
28.431671458865157
 21
0.10000000000000003
 31
0.0
  0
TEXT
 62
7
  8
DIMENSIONS
 10
14.215835729432579
 20
-2.75
 30
0.0
 40
2.1
  1
28
 50
-0.0
  7
ISOCPEUR
 72
1
 73
2
 11
14.215835729432579
 21
-2.75
 31
0.0
  0
INSERT
  8
DIMENSIONS
  2
DIMTICK_ARROW
 10
0.0
 20
-4.0
 30
0.0
 41
8.0
 42
8.0
 50
0.0
  0
INSERT
  8
DIMENSIONS
  2
DIMTICK_ARROW
 10
28.431671458865157
 20
-4.0
 30
0.0
 41
8.0
 42
8.0
 50
180.0
  0
LINE
 62
7
  8
DIMENSIONS
 10
0.0
 20
-4.0
 30
0.0
 11
28.431671458865157
 21
-4.0
 31
0.0
  0
LINE
 62
5
  8
DIMENSIONS
 10
0.0
 20
-4.0
 30
0.0
 11
0.0
 21
0.10000000000000003
 31
0.0
  0
LINE
 62
5
  8
DIMENSIONS
 10
28.431671458865157
 20
-4.0
 30
0.0
 11
28.431671458865157
 21
0.10000000000000003
 31
0.0
  0
TEXT
 62
7
  8
DIMENSIONS
 10
14.215835729432579
 20
-2.75
 30
0.0
 40
2.1
  1
28
 50
-0.0
  7
ISOCPEUR
 72
1
 73
2
 11
14.215835729432579
 21
-2.75
 31
0.0
  0
INSERT
  8
DIMENSIONS
  2
DIMTICK_ARROW
 10
0.0
 20
-4.0
 30
0.0
 41
8.0
 42
8.0
 50
0.0
  0
INSERT
  8
DIMENSIONS
  2
DIMTICK_ARROW
 10
28.431671458865157
 20
-4.0
 30
0.0
 41
8.0
 42
8.0
 50
180.0
  0
LINE
 62
7
  8
DIMENSIONS
 10
0.0
 20
-4.0
 30
0.0
 11
28.431671458865157
 21
-4.0
 31
0.0
  0
LINE
 62
5
  8
DIMENSIONS
 10
0.0
 20
-4.0
 30
0.0
 11
0.0
 21
0.10000000000000003
 31
0.0
  0
LINE
 62
5
  8
DIMENSIONS
 10
28.431671458865157
 20
-4.0
 30
0.0
 11
28.431671458865157
 21
0.10000000000000003
 31
0.0
  0
TEXT
 62
7
  8
DIMENSIONS
 10
14.215835729432579
 20
-2.75
 30
0.0
 40
2.1
  1
28
 50
-0.0
  7
ISOCPEUR
 72
1
 73
2
 11
14.215835729432579
 21
-2.75
 31
0.0
  0
INSERT
  8
DIMENSIONS
  2
DIMTICK_ARROW
 10
0.0
 20
-4.0
 30
0.0
 41
8.0
 42
8.0
 50
0.0
  0
INSERT
  8
DIMENSIONS
  2
DIMTICK_ARROW
 10
28.431671458865157
 20
-4.0
 30
0.0
 41
8.0
 42
8.0
 50
180.0
  0
LINE
 62
7
  8
DIMENSIONS
 10
0.0
 20
-4.0
 30
0.0
 11
28.431671458865157
 21
-4.0
 31
0.0
  0
LINE
 62
5
  8
DIMENSIONS
 10
0.0
 20
-4.0
 30
0.0
 11
0.0
 21
0.10000000000000003
 31
0.0
  0
LINE
 62
5
  8
DIMENSIONS
 10
28.431671458865157
 20
-4.0
 30
0.0
 11
28.431671458865157
 21
0.10000000000000003
 31
0.0
  0
TEXT
 62
7
  8
DIMENSIONS
 10
14.215835729432579
 20
-2.75
 30
0.0
 40
2.1
  1
28
 50
-0.0
  7
ISOCPEUR
 72
1
 73
2
 11
14.215835729432579
 21
-2.75
 31
0.0
  0
INSERT
  8
DIMENSIONS
  2
DIMTICK_ARROW
 10
0.0
 20
-4.0
 30
0.0
 41
8.0
 42
8.0
 50
0.0
  0
INSERT
  8
DIMENSIONS
  2
DIMTICK_ARROW
 10
28.431671458865157
 20
-4.0
 30
0.0
 41
8.0
 42
8.0
 50
180.0
  0
LINE
 62
7
  8
DIMENSIONS
 10
0.0
 20
-4.0
 30
0.0
 11
28.431671458865157
 21
-4.0
 31
0.0
  0
LINE
 62
5
  8
DIMENSIONS
 10
0.0
 20
-4.0
 30
0.0
 11
0.0
 21
0.10000000000000003
 31
0.0
  0
LINE
 62
5
  8
DIMENSIONS
 10
28.431671458865157
 20
-4.0
 30
0.0
 11
28.431671458865157
 21
0.10000000000000003
 31
0.0
  0
TEXT
 62
7
  8
DIMENSIONS
 10
14.215835729432579
 20
-2.75
 30
0.0
 40
2.1
  1
28
 50
-0.0
  7
ISOCPEUR
 72
1
 73
2
 11
14.215835729432579
 21
-2.75
 31
0.0
  0
INSERT
  8
DIMENSIONS
  2
DIMTICK_ARROW
 10
0.0
 20
-4.0
 30
0.0
 41
8.0
 42
8.0
 50
0.0
  0
INSERT
  8
DIMENSIONS
  2
DIMTICK_ARROW
 10
28.431671458865157
 20
-4.0
 30
0.0
 41
8.0
 42
8.0
 50
180.0
  0
LINE
 62
7
  8
DIMENSIONS
 10
0.0
 20
-4.0
 30
0.0
 11
28.431671458865157
 21
-4.0
 31
0.0
  0
LINE
 62
5
  8
DIMENSIONS
 10
0.0
 20
-4.0
 30
0.0
 11
0.0
 21
0.10000000000000003
 31
0.0
  0
LINE
 62
5
  8
DIMENSIONS
 10
28.431671458865157
 20
-4.0
 30
0.0
 11
28.431671458865157
 21
0.10000000000000003
 31
0.0
  0
TEXT
 62
7
  8
DIMENSIONS
 10
14.215835729432579
 20
-2.75
 30
0.0
 40
2.1
  1
28
 50
-0.0
  7
ISOCPEUR
 72
1
 73
2
 11
14.215835729432579
 21
-2.75
 31
0.0
  0
INSERT
  8
DIMENSIONS
  2
DIMTICK_ARROW
 10
0.0
 20
-4.0
 30
0.0
 41
8.0
 42
8.0
 50
0.0
  0
INSERT
  8
DIMENSIONS
  2
DIMTICK_ARROW
 10
28.431671458865157
 20
-4.0
 30
0.0
 41
8.0
 42
8.0
 50
180.0
  0
LINE
 62
7
  8
DIMENSIONS
 10
0.0
 20
-4.0
 30
0.0
 11
28.431671458865157
 21
-4.0
 31
0.0
  0
LINE
 62
5
  8
DIMENSIONS
 10
0.0
 20
-4.0
 30
0.0
 11
0.0
 21
0.10000000000000003
 31
0.0
  0
LINE
 62
5
  8
DIMENSIONS
 10
28.431671458865157
 20
-4.0
 30
0.0
 11
28.431671458865157
 21
0.10000000000000003
 31
0.0
  0
TEXT
 62
7
  8
DIMENSIONS
 10
14.215835729432579
 20
-2.75
 30
0.0
 40
2.1
  1
28
 50
-0.0
  7
ISOCPEUR
 72
1
 73
2
 11
14.215835729432579
 21
-2.75
 31
0.0
  0
INSERT
  8
DIMENSIONS
  2
DIMTICK_ARROW
 10
0.0
 20
-4.0
 30
0.0
 41
8.0
 42
8.0
 50
0.0
  0
INSERT
  8
DIMENSIONS
  2
DIMTICK_ARROW
 10
28.431671458865157
 20
-4.0
 30
0.0
 41
8.0
 42
8.0
 50
180.0
  0
LINE
 62
7
  8
DIMENSIONS
 10
0.0
 20
-4.0
 30
0.0
 11
28.431671458865157
 21
-4.0
 31
0.0
  0
LINE
 62
5
  8
DIMENSIONS
 10
0.0
 20
-4.0
 30
0.0
 11
0.0
 21
0.10000000000000003
 31
0.0
  0
LINE
 62
5
  8
DIMENSIONS
 10
28.431671458865157
 20
-4.0
 30
0.0
 11
28.431671458865157
 21
0.10000000000000003
 31
0.0
  0
TEXT
 62
7
  8
DIMENSIONS
 10
14.215835729432579
 20
-2.75
 30
0.0
 40
2.1
  1
28
 50
-0.0
  7
ISOCPEUR
 72
1
 73
2
 11
14.215835729432579
 21
-2.75
 31
0.0
  0
INSERT
  8
DIMENSIONS
  2
DIMTICK_ARROW
 10
0.0
 20
-4.0
 30
0.0
 41
8.0
 42
8.0
 50
0.0
  0
INSERT
  8
DIMENSIONS
  2
DIMTICK_ARROW
 10
28.431671458865157
 20
-4.0
 30
0.0
 41
8.0
 42
8.0
 50
180.0
  0
LINE
 62
7
  8
DIMENSIONS
 10
0.0
 20
-4.0
 30
0.0
 11
28.431671458865157
 21
-4.0
 31
0.0
  0
LINE
 62
5
  8
DIMENSIONS
 10
0.0
 20
-4.0
 30
0.0
 11
0.0
 21
0.10000000000000003
 31
0.0
  0
LINE
 62
5
  8
DIMENSIONS
 10
28.431671458865157
 20
-4.0
 30
0.0
 11
28.431671458865157
 21
0.10000000000000003
 31
0.0
  0
TEXT
 62
7
  8
DIMENSIONS
 10
14.215835729432579
 20
-2.75
 30
0.0
 40
2.1
  1
28
 50
-0.0
  7
ISOCPEUR
 72
1
 73
2
 11
14.215835729432579
 21
-2.75
 31
0.0
  0
INSERT
  8
DIMENSIONS
  2
DIMTICK_ARROW
 10
0.0
 20
-4.0
 30
0.0
 41
8.0
 42
8.0
 50
0.0
  0
INSERT
  8
DIMENSIONS
  2
DIMTICK_ARROW
 10
28.431671458865157
 20
-4.0
 30
0.0
 41
8.0
 42
8.0
 50
180.0
  0
LINE
 62
7
  8
DIMENSIONS
 10
0.0
 20
-4.0
 30
0.0
 11
28.431671458865157
 21
-4.0
 31
0.0
  0
LINE
 62
5
  8
DIMENSIONS
 10
0.0
 20
-4.0
 30
0.0
 11
0.0
 21
0.10000000000000003
 31
0.0
  0
LINE
 62
5
  8
DIMENSIONS
 10
28.431671458865157
 20
-4.0
 30
0.0
 11
28.431671458865157
 21
0.10000000000000003
 31
0.0
  0
TEXT
 62
7
  8
DIMENSIONS
 10
14.215835729432579
 20
-2.75
 30
0.0
 40
2.1
  1
28
 50
-0.0
  7
ISOCPEUR
 72
1
 73
2
 11
14.215835729432579
 21
-2.75
 31
0.0
  0
INSERT
  8
DIMENSIONS
  2
DIMTICK_ARROW
 10
0.0
 20
-4.0
 30
0.0
 41
8.0
 42
8.0
 50
0.0
  0
INSERT
  8
DIMENSIONS
  2
DIMTICK_ARROW
 10
28.431671458865157
 20
-4.0
 30
0.0
 41
8.0
 42
8.0
 50
180.0
  0
LINE
 62
7
  8
DIMENSIONS
 10
0.0
 20
-4.0
 30
0.0
 11
28.431671458865157
 21
-4.0
 31
0.0
  0
LINE
 62
5
  8
DIMENSIONS
 10
0.0
 20
-4.0
 30
0.0
 11
0.0
 21
0.10000000000000003
 31
0.0
  0
LINE
 62
5
  8
DIMENSIONS
 10
28.431671458865157
 20
-4.0
 30
0.0
 11
28.431671458865157
 21
0.10000000000000003
 31
0.0
  0
TEXT
 62
7
  8
DIMENSIONS
 10
14.215835729432579
 20
-2.75
 30
0.0
 40
2.1
  1
28
 50
-0.0
  7
ISOCPEUR
 72
1
 73
2
 11
14.215835729432579
 21
-2.75
 31
0.0
  0
INSERT
  8
DIMENSIONS
  2
DIMTICK_ARROW
 10
0.0
 20
-4.0
 30
0.0
 41
8.0
 42
8.0
 50
0.0
  0
INSERT
  8
DIMENSIONS
  2
DIMTICK_ARROW
 10
28.431671458865157
 20
-4.0
 30
0.0
 41
8.0
 42
8.0
 50
180.0
  0
LINE
 62
7
  8
DIMENSIONS
 10
0.0
 20
-4.0
 30
0.0
 11
28.431671458865157
 21
-4.0
 31
0.0
  0
LINE
 62
5
  8
DIMENSIONS
 10
0.0
 20
-4.0
 30
0.0
 11
0.0
 21
0.10000000000000003
 31
0.0
  0
LINE
 62
5
  8
DIMENSIONS
 10
28.431671458865157
 20
-4.0
 30
0.0
 11
28.431671458865157
 21
0.10000000000000003
 31
0.0
  0
TEXT
 62
7
  8
DIMENSIONS
 10
14.215835729432579
 20
-2.75
 30
0.0
 40
2.1
  1
28
 50
-0.0
  7
ISOCPEUR
 72
1
 73
2
 11
14.215835729432579
 21
-2.75
 31
0.0
  0
INSERT
  8
DIMENSIONS
  2
DIMTICK_ARROW
 10
0.0
 20
-4.0
 30
0.0
 41
8.0
 42
8.0
 50
0.0
  0
INSERT
  8
DIMENSIONS
  2
DIMTICK_ARROW
 10
28.431671458865157
 20
-4.0
 30
0.0
 41
8.0
 42
8.0
 50
180.0
  0
LINE
 62
7
  8
DIMENSIONS
 10
0.0
 20
-4.0
 30
0.0
 11
28.431671458865157
 21
-4.0
 31
0.0
  0
LINE
 62
5
  8
DIMENSIONS
 10
0.0
 20
-4.0
 30
0.0
 11
0.0
 21
0.10000000000000003
 31
0.0
  0
LINE
 62
5
  8
DIMENSIONS
 10
28.431671458865157
 20
-4.0
 30
0.0
 11
28.431671458865157
 21
0.10000000000000003
 31
0.0
  0
TEXT
 62
7
  8
DIMENSIONS
 10
14.215835729432579
 20
-2.75
 30
0.0
 40
2.1
  1
28
 50
-0.0
  7
ISOCPEUR
 72
1
 73
2
 11
14.215835729432579
 21
-2.75
 31
0.0
  0
INSERT
  8
DIMENSIONS
  2
DIMTICK_ARROW
 10
0.0
 20
-4.0
 30
0.0
 41
8.0
 42
8.0
 50
0.0
  0
INSERT
  8
DIMENSIONS
  2
DIMTICK_ARROW
 10
28.431671458865157
 20
-4.0
 30
0.0
 41
8.0
 42
8.0
 50
180.0
  0
LINE
 62
7
  8
DIMENSIONS
 10
0.0
 20
-4.0
 30
0.0
 11
28.431671458865157
 21
-4.0
 31
0.0
  0
LINE
 62
5
  8
DIMENSIONS
 10
0.0
 20
-4.0
 30
0.0
 11
0.0
 21
0.10000000000000003
 31
0.0
  0
LINE
 62
5
  8
DIMENSIONS
 10
28.431671458865157
 20
-4.0
 30
0.0
 11
28.431671458865157
 21
0.10000000000000003
 31
0.0
  0
TEXT
 62
7
  8
DIMENSIONS
 10
14.215835729432579
 20
-2.75
 30
0.0
 40
2.1
  1
28
 50
-0.0
  7
ISOCPEUR
 72
1
 73
2
 11
14.215835729432579
 21
-2.75
 31
0.0
  0
INSERT
  8
DIMENSIONS
  2
DIMTICK_ARROW
 10
0.0
 20
-4.0
 30
0.0
 41
8.0
 42
8.0
 50
0.0
  0
INSERT
  8
DIMENSIONS
  2
DIMTICK_ARROW
 10
28.431671458865157
 20
-4.0
 30
0.0
 41
8.0
 42
8.0
 50
180.0
  0
LINE
 62
7
  8
DIMENSIONS
 10
0.0
 20
-4.0
 30
0.0
 11
28.431671458865157
 21
-4.0
 31
0.0
  0
LINE
 62
5
  8
DIMENSIONS
 10
0.0
 20
-4.0
 30
0.0
 11
0.0
 21
0.10000000000000003
 31
0.0
  0
LINE
 62
5
  8
DIMENSIONS
 10
28.431671458865157
 20
-4.0
 30
0.0
 11
28.431671458865157
 21
0.10000000000000003
 31
0.0
  0
TEXT
 62
7
  8
DIMENSIONS
 10
14.215835729432579
 20
-2.75
 30
0.0
 40
2.1
  1
28
 50
-0.0
  7
ISOCPEUR
 72
1
 73
2
 11
14.215835729432579
 21
-2.75
 31
0.0
  0
INSERT
  8
DIMENSIONS
  2
DIMTICK_ARROW
 10
0.0
 20
-4.0
 30
0.0
 41
8.0
 42
8.0
 50
0.0
  0
INSERT
  8
DIMENSIONS
  2
DIMTICK_ARROW
 10
28.431671458865157
 20
-4.0
 30
0.0
 41
8.0
 42
8.0
 50
180.0
  0
LINE
 62
7
  8
DIMENSIONS
 10
0.0
 20
-4.0
 30
0.0
 11
28.431671458865157
 21
-4.0
 31
0.0
  0
LINE
 62
5
  8
DIMENSIONS
 10
0.0
 20
-4.0
 30
0.0
 11
0.0
 21
0.10000000000000003
 31
0.0
  0
LINE
 62
5
  8
DIMENSIONS
 10
28.431671458865157
 20
-4.0
 30
0.0
 11
28.431671458865157
 21
0.10000000000000003
 31
0.0
  0
TEXT
 62
7
  8
DIMENSIONS
 10
14.215835729432579
 20
-2.75
 30
0.0
 40
2.1
  1
28
 50
-0.0
  7
ISOCPEUR
 72
1
 73
2
 11
14.215835729432579
 21
-2.75
 31
0.0
  0
INSERT
  8
DIMENSIONS
  2
DIMTICK_ARROW
 10
0.0
 20
-4.0
 30
0.0
 41
8.0
 42
8.0
 50
0.0
  0
INSERT
  8
DIMENSIONS
  2
DIMTICK_ARROW
 10
28.431671458865157
 20
-4.0
 30
0.0
 41
8.0
 42
8.0
 50
180.0
  0
LINE
 62
7
  8
DIMENSIONS
 10
0.0
 20
-4.0
 30
0.0
 11
28.431671458865157
 21
-4.0
 31
0.0
  0
LINE
 62
5
  8
DIMENSIONS
 10
0.0
 20
-4.0
 30
0.0
 11
0.0
 21
0.10000000000000003
 31
0.0
  0
LINE
 62
5
  8
DIMENSIONS
 10
28.431671458865157
 20
-4.0
 30
0.0
 11
28.431671458865157
 21
0.10000000000000003
 31
0.0
  0
TEXT
 62
7
  8
DIMENSIONS
 10
14.215835729432579
 20
-2.75
 30
0.0
 40
2.1
  1
28
 50
-0.0
  7
ISOCPEUR
 72
1
 73
2
 11
14.215835729432579
 21
-2.75
 31
0.0
  0
INSERT
  8
DIMENSIONS
  2
DIMTICK_ARROW
 10
0.0
 20
-4.0
 30
0.0
 41
8.0
 42
8.0
 50
0.0
  0
INSERT
  8
DIMENSIONS
  2
DIMTICK_ARROW
 10
28.431671458865157
 20
-4.0
 30
0.0
 41
8.0
 42
8.0
 50
180.0
  0
LINE
 62
7
  8
DIMENSIONS
 10
0.0
 20
-4.0
 30
0.0
 11
28.431671458865157
 21
-4.0
 31
0.0
  0
LINE
 62
5
  8
DIMENSIONS
 10
0.0
 20
-4.0
 30
0.0
 11
0.0
 21
0.10000000000000003
 31
0.0
  0
LINE
 62
5
  8
DIMENSIONS
 10
28.431671458865157
 20
-4.0
 30
0.0
 11
28.431671458865157
 21
0.10000000000000003
 31
0.0
  0
TEXT
 62
7
  8
DIMENSIONS
 10
14.215835729432579
 20
-2.75
 30
0.0
 40
2.1
  1
28
 50
-0.0
  7
ISOCPEUR
 72
1
 73
2
 11
14.215835729432579
 21
-2.75
 31
0.0
  0
INSERT
  8
DIMENSIONS
  2
DIMTICK_ARROW
 10
0.0
 20
-4.0
 30
0.0
 41
8.0
 42
8.0
 50
0.0
  0
INSERT
  8
DIMENSIONS
  2
DIMTICK_ARROW
 10
28.431671458865157
 20
-4.0
 30
0.0
 41
8.0
 42
8.0
 50
180.0
  0
LINE
 62
7
  8
DIMENSIONS
 10
0.0
 20
-4.0
 30
0.0
 11
28.431671458865157
 21
-4.0
 31
0.0
  0
LINE
 62
5
  8
DIMENSIONS
 10
0.0
 20
-4.0
 30
0.0
 11
0.0
 21
0.10000000000000003
 31
0.0
  0
LINE
 62
5
  8
DIMENSIONS
 10
28.431671458865157
 20
-4.0
 30
0.0
 11
28.431671458865157
 21
0.10000000000000003
 31
0.0
  0
TEXT
 62
7
  8
DIMENSIONS
 10
14.215835729432579
 20
-2.75
 30
0.0
 40
2.1
  1
28
 50
-0.0
  7
ISOCPEUR
 72
1
 73
2
 11
14.215835729432579
 21
-2.75
 31
0.0
  0
INSERT
  8
DIMENSIONS
  2
DIMTICK_ARROW
 10
0.0
 20
-4.0
 30
0.0
 41
8.0
 42
8.0
 50
0.0
  0
INSERT
  8
DIMENSIONS
  2
DIMTICK_ARROW
 10
28.431671458865157
 20
-4.0
 30
0.0
 41
8.0
 42
8.0
 50
180.0
  0
LINE
 62
7
  8
DIMENSIONS
 10
0.0
 20
-4.0
 30
0.0
 11
28.431671458865157
 21
-4.0
 31
0.0
  0
LINE
 62
5
  8
DIMENSIONS
 10
0.0
 20
-4.0
 30
0.0
 11
0.0
 21
0.10000000000000003
 31
0.0
  0
LINE
 62
5
  8
DIMENSIONS
 10
28.431671458865157
 20
-4.0
 30
0.0
 11
28.431671458865157
 21
0.10000000000000003
 31
0.0
  0
TEXT
 62
7
  8
DIMENSIONS
 10
14.215835729432579
 20
-2.75
 30
0.0
 40
2.1
  1
28
 50
-0.0
  7
ISOCPEUR
 72
1
 73
2
 11
14.215835729432579
 21
-2.75
 31
0.0
  0
INSERT
  8
DIMENSIONS
  2
DIMTICK_ARROW
 10
0.0
 20
-4.0
 30
0.0
 41
8.0
 42
8.0
 50
0.0
  0
INSERT
  8
DIMENSIONS
  2
DIMTICK_ARROW
 10
28.431671458865157
 20
-4.0
 30
0.0
 41
8.0
 42
8.0
 50
180.0
  0
LINE
 62
7
  8
DIMENSIONS
 10
0.0
 20
-4.0
 30
0.0
 11
28.431671458865157
 21
-4.0
 31
0.0
  0
LINE
 62
5
  8
DIMENSIONS
 10
0.0
 20
-4.0
 30
0.0
 11
0.0
 21
0.10000000000000003
 31
0.0
  0
LINE
 62
5
  8
DIMENSIONS
 10
28.431671458865157
 20
-4.0
 30
0.0
 11
28.431671458865157
 21
0.10000000000000003
 31
0.0
  0
TEXT
 62
7
  8
DIMENSIONS
 10
14.215835729432579
 20
-2.75
 30
0.0
 40
2.1
  1
28
 50
-0.0
  7
ISOCPEUR
 72
1
 73
2
 11
14.215835729432579
 21
-2.75
 31
0.0
  0
INSERT
  8
DIMENSIONS
  2
DIMTICK_ARROW
 10
0.0
 20
-4.0
 30
0.0
 41
8.0
 42
8.0
 50
0.0
  0
INSERT
  8
DIMENSIONS
  2
DIMTICK_ARROW
 10
28.431671458865157
 20
-4.0
 30
0.0
 41
8.0
 42
8.0
 50
180.0
  0
LINE
 62
3
  8
0
 10
6.746498312273088
 20
5.4614510146972615
 30
0.0
 11
19.75760220022833
 21
5.4614510146972615
 31
0.0
  0
LINE
 62
3
  8
0
 10
60.39722298606384
 20
0.0
 30
0.0
 11
78.22725423992843
 21
0.0
 31
0.0
  0
LINE
 62
7
  8
DIMENSIONS
 10
60.39722298606384
 20
-4.0
 30
0.0
 11
78.22725423992843
 21
-4.0
 31
0.0
  0
LINE
 62
5
  8
DIMENSIONS
 10
60.39722298606384
 20
-4.0
 30
0.0
 11
60.39722298606384
 21
0.10000000000000003
 31
0.0
  0
LINE
 62
5
  8
DIMENSIONS
 10
78.22725423992843
 20
-4.0
 30
0.0
 11
78.22725423992843
 21
0.10000000000000003
 31
0.0
  0
TEXT
 62
7
  8
DIMENSIONS
 10
69.31223861299614
 20
-2.75
 30
0.0
 40
2.1
  1
18
 50
-0.0
  7
ISOCPEUR
 72
1
 73
2
 11
69.31223861299614
 21
-2.75
 31
0.0
  0
INSERT
  8
DIMENSIONS
  2
DIMTICK_ARROW
 10
60.39722298606384
 20
-4.0
 30
0.0
 41
8.0
 42
8.0
 50
0.0
  0
INSERT
  8
DIMENSIONS
  2
DIMTICK_ARROW
 10
78.22725423992843
 20
-4.0
 30
0.0
 41
8.0
 42
8.0
 50
180.0
  0
LINE
 62
7
  8
DIMENSIONS
 10
60.39722298606384
 20
-4.0
 30
0.0
 11
78.22725423992843
 21
-4.0
 31
0.0
  0
LINE
 62
5
  8
DIMENSIONS
 10
60.39722298606384
 20
-4.0
 30
0.0
 11
60.39722298606384
 21
0.10000000000000003
 31
0.0
  0
LINE
 62
5
  8
DIMENSIONS
 10
78.22725423992843
 20
-4.0
 30
0.0
 11
78.22725423992843
 21
0.10000000000000003
 31
0.0
  0
TEXT
 62
7
  8
DIMENSIONS
 10
69.31223861299614
 20
-2.75
 30
0.0
 40
2.1
  1
18
 50
-0.0
  7
ISOCPEUR
 72
1
 73
2
 11
69.31223861299614
 21
-2.75
 31
0.0
  0
INSERT
  8
DIMENSIONS
  2
DIMTICK_ARROW
 10
60.39722298606384
 20
-4.0
 30
0.0
 41
8.0
 42
8.0
 50
0.0
  0
INSERT
  8
DIMENSIONS
  2
DIMTICK_ARROW
 10
78.22725423992843
 20
-4.0
 30
0.0
 41
8.0
 42
8.0
 50
180.0
  0
LINE
 62
7
  8
DIMENSIONS
 10
60.39722298606384
 20
-4.0
 30
0.0
 11
78.22725423992843
 21
-4.0
 31
0.0
  0
LINE
 62
5
  8
DIMENSIONS
 10
60.39722298606384
 20
-4.0
 30
0.0
 11
60.39722298606384
 21
0.10000000000000003
 31
0.0
  0
LINE
 62
5
  8
DIMENSIONS
 10
78.22725423992843
 20
-4.0
 30
0.0
 11
78.22725423992843
 21
0.10000000000000003
 31
0.0
  0
TEXT
 62
7
  8
DIMENSIONS
 10
69.31223861299614
 20
-2.75
 30
0.0
 40
2.1
  1
18
 50
-0.0
  7
ISOCPEUR
 72
1
 73
2
 11
69.31223861299614
 21
-2.75
 31
0.0
  0
INSERT
  8
DIMENSIONS
  2
DIMTICK_ARROW
 10
60.39722298606384
 20
-4.0
 30
0.0
 41
8.0
 42
8.0
 50
0.0
  0
INSERT
  8
DIMENSIONS
  2
DIMTICK_ARROW
 10
78.22725423992843
 20
-4.0
 30
0.0
 41
8.0
 42
8.0
 50
180.0
  0
LINE
 62
7
  8
DIMENSIONS
 10
60.39722298606384
 20
-4.0
 30
0.0
 11
78.22725423992843
 21
-4.0
 31
0.0
  0
LINE
 62
5
  8
DIMENSIONS
 10
60.39722298606384
 20
-4.0
 30
0.0
 11
60.39722298606384
 21
0.10000000000000003
 31
0.0
  0
LINE
 62
5
  8
DIMENSIONS
 10
78.22725423992843
 20
-4.0
 30
0.0
 11
78.22725423992843
 21
0.10000000000000003
 31
0.0
  0
TEXT
 62
7
  8
DIMENSIONS
 10
69.31223861299614
 20
-2.75
 30
0.0
 40
2.1
  1
18
 50
-0.0
  7
ISOCPEUR
 72
1
 73
2
 11
69.31223861299614
 21
-2.75
 31
0.0
  0
INSERT
  8
DIMENSIONS
  2
DIMTICK_ARROW
 10
60.39722298606384
 20
-4.0
 30
0.0
 41
8.0
 42
8.0
 50
0.0
  0
INSERT
  8
DIMENSIONS
  2
DIMTICK_ARROW
 10
78.22725423992843
 20
-4.0
 30
0.0
 41
8.0
 42
8.0
 50
180.0
  0
LINE
 62
7
  8
DIMENSIONS
 10
60.39722298606384
 20
-4.0
 30
0.0
 11
78.22725423992843
 21
-4.0
 31
0.0
  0
LINE
 62
5
  8
DIMENSIONS
 10
60.39722298606384
 20
-4.0
 30
0.0
 11
60.39722298606384
 21
0.10000000000000003
 31
0.0
  0
LINE
 62
5
  8
DIMENSIONS
 10
78.22725423992843
 20
-4.0
 30
0.0
 11
78.22725423992843
 21
0.10000000000000003
 31
0.0
  0
TEXT
 62
7
  8
DIMENSIONS
 10
69.31223861299614
 20
-2.75
 30
0.0
 40
2.1
  1
18
 50
-0.0
  7
ISOCPEUR
 72
1
 73
2
 11
69.31223861299614
 21
-2.75
 31
0.0
  0
INSERT
  8
DIMENSIONS
  2
DIMTICK_ARROW
 10
60.39722298606384
 20
-4.0
 30
0.0
 41
8.0
 42
8.0
 50
0.0
  0
INSERT
  8
DIMENSIONS
  2
DIMTICK_ARROW
 10
78.22725423992843
 20
-4.0
 30
0.0
 41
8.0
 42
8.0
 50
180.0
  0
LINE
 62
7
  8
DIMENSIONS
 10
60.39722298606384
 20
-4.0
 30
0.0
 11
78.22725423992843
 21
-4.0
 31
0.0
  0
LINE
 62
5
  8
DIMENSIONS
 10
60.39722298606384
 20
-4.0
 30
0.0
 11
60.39722298606384
 21
0.10000000000000003
 31
0.0
  0
LINE
 62
5
  8
DIMENSIONS
 10
78.22725423992843
 20
-4.0
 30
0.0
 11
78.22725423992843
 21
0.10000000000000003
 31
0.0
  0
TEXT
 62
7
  8
DIMENSIONS
 10
69.31223861299614
 20
-2.75
 30
0.0
 40
2.1
  1
18
 50
-0.0
  7
ISOCPEUR
 72
1
 73
2
 11
69.31223861299614
 21
-2.75
 31
0.0
  0
INSERT
  8
DIMENSIONS
  2
DIMTICK_ARROW
 10
60.39722298606384
 20
-4.0
 30
0.0
 41
8.0
 42
8.0
 50
0.0
  0
INSERT
  8
DIMENSIONS
  2
DIMTICK_ARROW
 10
78.22725423992843
 20
-4.0
 30
0.0
 41
8.0
 42
8.0
 50
180.0
  0
LINE
 62
7
  8
DIMENSIONS
 10
60.39722298606384
 20
-4.0
 30
0.0
 11
78.22725423992843
 21
-4.0
 31
0.0
  0
LINE
 62
5
  8
DIMENSIONS
 10
60.39722298606384
 20
-4.0
 30
0.0
 11
60.39722298606384
 21
0.10000000000000003
 31
0.0
  0
LINE
 62
5
  8
DIMENSIONS
 10
78.22725423992843
 20
-4.0
 30
0.0
 11
78.22725423992843
 21
0.10000000000000003
 31
0.0
  0
TEXT
 62
7
  8
DIMENSIONS
 10
69.31223861299614
 20
-2.75
 30
0.0
 40
2.1
  1
18
 50
-0.0
  7
ISOCPEUR
 72
1
 73
2
 11
69.31223861299614
 21
-2.75
 31
0.0
  0
INSERT
  8
DIMENSIONS
  2
DIMTICK_ARROW
 10
60.39722298606384
 20
-4.0
 30
0.0
 41
8.0
 42
8.0
 50
0.0
  0
INSERT
  8
DIMENSIONS
  2
DIMTICK_ARROW
 10
78.22725423992843
 20
-4.0
 30
0.0
 41
8.0
 42
8.0
 50
180.0
  0
LINE
 62
7
  8
DIMENSIONS
 10
60.39722298606384
 20
-4.0
 30
0.0
 11
78.22725423992843
 21
-4.0
 31
0.0
  0
LINE
 62
5
  8
DIMENSIONS
 10
60.39722298606384
 20
-4.0
 30
0.0
 11
60.39722298606384
 21
0.10000000000000003
 31
0.0
  0
LINE
 62
5
  8
DIMENSIONS
 10
78.22725423992843
 20
-4.0
 30
0.0
 11
78.22725423992843
 21
0.10000000000000003
 31
0.0
  0
TEXT
 62
7
  8
DIMENSIONS
 10
69.31223861299614
 20
-2.75
 30
0.0
 40
2.1
  1
18
 50
-0.0
  7
ISOCPEUR
 72
1
 73
2
 11
69.31223861299614
 21
-2.75
 31
0.0
  0
INSERT
  8
DIMENSIONS
  2
DIMTICK_ARROW
 10
60.39722298606384
 20
-4.0
 30
0.0
 41
8.0
 42
8.0
 50
0.0
  0
INSERT
  8
DIMENSIONS
  2
DIMTICK_ARROW
 10
78.22725423992843
 20
-4.0
 30
0.0
 41
8.0
 42
8.0
 50
180.0
  0
LINE
 62
7
  8
DIMENSIONS
 10
60.39722298606384
 20
-4.0
 30
0.0
 11
78.22725423992843
 21
-4.0
 31
0.0
  0
LINE
 62
5
  8
DIMENSIONS
 10
60.39722298606384
 20
-4.0
 30
0.0
 11
60.39722298606384
 21
0.10000000000000003
 31
0.0
  0
LINE
 62
5
  8
DIMENSIONS
 10
78.22725423992843
 20
-4.0
 30
0.0
 11
78.22725423992843
 21
0.10000000000000003
 31
0.0
  0
TEXT
 62
7
  8
DIMENSIONS
 10
69.31223861299614
 20
-2.75
 30
0.0
 40
2.1
  1
18
 50
-0.0
  7
ISOCPEUR
 72
1
 73
2
 11
69.31223861299614
 21
-2.75
 31
0.0
  0
INSERT
  8
DIMENSIONS
  2
DIMTICK_ARROW
 10
60.39722298606384
 20
-4.0
 30
0.0
 41
8.0
 42
8.0
 50
0.0
  0
INSERT
  8
DIMENSIONS
  2
DIMTICK_ARROW
 10
78.22725423992843
 20
-4.0
 30
0.0
 41
8.0
 42
8.0
 50
180.0
  0
LINE
 62
7
  8
DIMENSIONS
 10
60.39722298606384
 20
-4.0
 30
0.0
 11
78.22725423992843
 21
-4.0
 31
0.0
  0
LINE
 62
5
  8
DIMENSIONS
 10
60.39722298606384
 20
-4.0
 30
0.0
 11
60.39722298606384
 21
0.10000000000000003
 31
0.0
  0
LINE
 62
5
  8
DIMENSIONS
 10
78.22725423992843
 20
-4.0
 30
0.0
 11
78.22725423992843
 21
0.10000000000000003
 31
0.0
  0
TEXT
 62
7
  8
DIMENSIONS
 10
69.31223861299614
 20
-2.75
 30
0.0
 40
2.1
  1
18
 50
-0.0
  7
ISOCPEUR
 72
1
 73
2
 11
69.31223861299614
 21
-2.75
 31
0.0
  0
INSERT
  8
DIMENSIONS
  2
DIMTICK_ARROW
 10
60.39722298606384
 20
-4.0
 30
0.0
 41
8.0
 42
8.0
 50
0.0
  0
INSERT
  8
DIMENSIONS
  2
DIMTICK_ARROW
 10
78.22725423992843
 20
-4.0
 30
0.0
 41
8.0
 42
8.0
 50
180.0
  0
LINE
 62
7
  8
DIMENSIONS
 10
60.39722298606384
 20
-4.0
 30
0.0
 11
78.22725423992843
 21
-4.0
 31
0.0
  0
LINE
 62
5
  8
DIMENSIONS
 10
60.39722298606384
 20
-4.0
 30
0.0
 11
60.39722298606384
 21
0.10000000000000003
 31
0.0
  0
LINE
 62
5
  8
DIMENSIONS
 10
78.22725423992843
 20
-4.0
 30
0.0
 11
78.22725423992843
 21
0.10000000000000003
 31
0.0
  0
TEXT
 62
7
  8
DIMENSIONS
 10
69.31223861299614
 20
-2.75
 30
0.0
 40
2.1
  1
18
 50
-0.0
  7
ISOCPEUR
 72
1
 73
2
 11
69.31223861299614
 21
-2.75
 31
0.0
  0
INSERT
  8
DIMENSIONS
  2
DIMTICK_ARROW
 10
60.39722298606384
 20
-4.0
 30
0.0
 41
8.0
 42
8.0
 50
0.0
  0
INSERT
  8
DIMENSIONS
  2
DIMTICK_ARROW
 10
78.22725423992843
 20
-4.0
 30
0.0
 41
8.0
 42
8.0
 50
180.0
  0
LINE
 62
7
  8
DIMENSIONS
 10
60.39722298606384
 20
-4.0
 30
0.0
 11
78.22725423992843
 21
-4.0
 31
0.0
  0
LINE
 62
5
  8
DIMENSIONS
 10
60.39722298606384
 20
-4.0
 30
0.0
 11
60.39722298606384
 21
0.10000000000000003
 31
0.0
  0
LINE
 62
5
  8
DIMENSIONS
 10
78.22725423992843
 20
-4.0
 30
0.0
 11
78.22725423992843
 21
0.10000000000000003
 31
0.0
  0
TEXT
 62
7
  8
DIMENSIONS
 10
69.31223861299614
 20
-2.75
 30
0.0
 40
2.1
  1
18
 50
-0.0
  7
ISOCPEUR
 72
1
 73
2
 11
69.31223861299614
 21
-2.75
 31
0.0
  0
INSERT
  8
DIMENSIONS
  2
DIMTICK_ARROW
 10
60.39722298606384
 20
-4.0
 30
0.0
 41
8.0
 42
8.0
 50
0.0
  0
INSERT
  8
DIMENSIONS
  2
DIMTICK_ARROW
 10
78.22725423992843
 20
-4.0
 30
0.0
 41
8.0
 42
8.0
 50
180.0
  0
LINE
 62
7
  8
DIMENSIONS
 10
60.39722298606384
 20
-4.0
 30
0.0
 11
78.22725423992843
 21
-4.0
 31
0.0
  0
LINE
 62
5
  8
DIMENSIONS
 10
60.39722298606384
 20
-4.0
 30
0.0
 11
60.39722298606384
 21
0.10000000000000003
 31
0.0
  0
LINE
 62
5
  8
DIMENSIONS
 10
78.22725423992843
 20
-4.0
 30
0.0
 11
78.22725423992843
 21
0.10000000000000003
 31
0.0
  0
TEXT
 62
7
  8
DIMENSIONS
 10
69.31223861299614
 20
-2.75
 30
0.0
 40
2.1
  1
18
 50
-0.0
  7
ISOCPEUR
 72
1
 73
2
 11
69.31223861299614
 21
-2.75
 31
0.0
  0
INSERT
  8
DIMENSIONS
  2
DIMTICK_ARROW
 10
60.39722298606384
 20
-4.0
 30
0.0
 41
8.0
 42
8.0
 50
0.0
  0
INSERT
  8
DIMENSIONS
  2
DIMTICK_ARROW
 10
78.22725423992843
 20
-4.0
 30
0.0
 41
8.0
 42
8.0
 50
180.0
  0
LINE
 62
7
  8
DIMENSIONS
 10
60.39722298606384
 20
-4.0
 30
0.0
 11
78.22725423992843
 21
-4.0
 31
0.0
  0
LINE
 62
5
  8
DIMENSIONS
 10
60.39722298606384
 20
-4.0
 30
0.0
 11
60.39722298606384
 21
0.10000000000000003
 31
0.0
  0
LINE
 62
5
  8
DIMENSIONS
 10
78.22725423992843
 20
-4.0
 30
0.0
 11
78.22725423992843
 21
0.10000000000000003
 31
0.0
  0
TEXT
 62
7
  8
DIMENSIONS
 10
69.31223861299614
 20
-2.75
 30
0.0
 40
2.1
  1
18
 50
-0.0
  7
ISOCPEUR
 72
1
 73
2
 11
69.31223861299614
 21
-2.75
 31
0.0
  0
INSERT
  8
DIMENSIONS
  2
DIMTICK_ARROW
 10
60.39722298606384
 20
-4.0
 30
0.0
 41
8.0
 42
8.0
 50
0.0
  0
INSERT
  8
DIMENSIONS
  2
DIMTICK_ARROW
 10
78.22725423992843
 20
-4.0
 30
0.0
 41
8.0
 42
8.0
 50
180.0
  0
LINE
 62
7
  8
DIMENSIONS
 10
60.39722298606384
 20
-4.0
 30
0.0
 11
78.22725423992843
 21
-4.0
 31
0.0
  0
LINE
 62
5
  8
DIMENSIONS
 10
60.39722298606384
 20
-4.0
 30
0.0
 11
60.39722298606384
 21
0.10000000000000003
 31
0.0
  0
LINE
 62
5
  8
DIMENSIONS
 10
78.22725423992843
 20
-4.0
 30
0.0
 11
78.22725423992843
 21
0.10000000000000003
 31
0.0
  0
TEXT
 62
7
  8
DIMENSIONS
 10
69.31223861299614
 20
-2.75
 30
0.0
 40
2.1
  1
18
 50
-0.0
  7
ISOCPEUR
 72
1
 73
2
 11
69.31223861299614
 21
-2.75
 31
0.0
  0
INSERT
  8
DIMENSIONS
  2
DIMTICK_ARROW
 10
60.39722298606384
 20
-4.0
 30
0.0
 41
8.0
 42
8.0
 50
0.0
  0
INSERT
  8
DIMENSIONS
  2
DIMTICK_ARROW
 10
78.22725423992843
 20
-4.0
 30
0.0
 41
8.0
 42
8.0
 50
180.0
  0
LINE
 62
7
  8
DIMENSIONS
 10
60.39722298606384
 20
-4.0
 30
0.0
 11
78.22725423992843
 21
-4.0
 31
0.0
  0
LINE
 62
5
  8
DIMENSIONS
 10
60.39722298606384
 20
-4.0
 30
0.0
 11
60.39722298606384
 21
0.10000000000000003
 31
0.0
  0
LINE
 62
5
  8
DIMENSIONS
 10
78.22725423992843
 20
-4.0
 30
0.0
 11
78.22725423992843
 21
0.10000000000000003
 31
0.0
  0
TEXT
 62
7
  8
DIMENSIONS
 10
69.31223861299614
 20
-2.75
 30
0.0
 40
2.1
  1
18
 50
-0.0
  7
ISOCPEUR
 72
1
 73
2
 11
69.31223861299614
 21
-2.75
 31
0.0
  0
INSERT
  8
DIMENSIONS
  2
DIMTICK_ARROW
 10
60.39722298606384
 20
-4.0
 30
0.0
 41
8.0
 42
8.0
 50
0.0
  0
INSERT
  8
DIMENSIONS
  2
DIMTICK_ARROW
 10
78.22725423992843
 20
-4.0
 30
0.0
 41
8.0
 42
8.0
 50
180.0
  0
LINE
 62
7
  8
DIMENSIONS
 10
60.39722298606384
 20
-4.0
 30
0.0
 11
78.22725423992843
 21
-4.0
 31
0.0
  0
LINE
 62
5
  8
DIMENSIONS
 10
60.39722298606384
 20
-4.0
 30
0.0
 11
60.39722298606384
 21
0.10000000000000003
 31
0.0
  0
LINE
 62
5
  8
DIMENSIONS
 10
78.22725423992843
 20
-4.0
 30
0.0
 11
78.22725423992843
 21
0.10000000000000003
 31
0.0
  0
TEXT
 62
7
  8
DIMENSIONS
 10
69.31223861299614
 20
-2.75
 30
0.0
 40
2.1
  1
18
 50
-0.0
  7
ISOCPEUR
 72
1
 73
2
 11
69.31223861299614
 21
-2.75
 31
0.0
  0
INSERT
  8
DIMENSIONS
  2
DIMTICK_ARROW
 10
60.39722298606384
 20
-4.0
 30
0.0
 41
8.0
 42
8.0
 50
0.0
  0
INSERT
  8
DIMENSIONS
  2
DIMTICK_ARROW
 10
78.22725423992843
 20
-4.0
 30
0.0
 41
8.0
 42
8.0
 50
180.0
  0
LINE
 62
7
  8
DIMENSIONS
 10
60.39722298606384
 20
-4.0
 30
0.0
 11
78.22725423992843
 21
-4.0
 31
0.0
  0
LINE
 62
5
  8
DIMENSIONS
 10
60.39722298606384
 20
-4.0
 30
0.0
 11
60.39722298606384
 21
0.10000000000000003
 31
0.0
  0
LINE
 62
5
  8
DIMENSIONS
 10
78.22725423992843
 20
-4.0
 30
0.0
 11
78.22725423992843
 21
0.10000000000000003
 31
0.0
  0
TEXT
 62
7
  8
DIMENSIONS
 10
69.31223861299614
 20
-2.75
 30
0.0
 40
2.1
  1
18
 50
-0.0
  7
ISOCPEUR
 72
1
 73
2
 11
69.31223861299614
 21
-2.75
 31
0.0
  0
INSERT
  8
DIMENSIONS
  2
DIMTICK_ARROW
 10
60.39722298606384
 20
-4.0
 30
0.0
 41
8.0
 42
8.0
 50
0.0
  0
INSERT
  8
DIMENSIONS
  2
DIMTICK_ARROW
 10
78.22725423992843
 20
-4.0
 30
0.0
 41
8.0
 42
8.0
 50
180.0
  0
LINE
 62
7
  8
DIMENSIONS
 10
60.39722298606384
 20
-4.0
 30
0.0
 11
78.22725423992843
 21
-4.0
 31
0.0
  0
LINE
 62
5
  8
DIMENSIONS
 10
60.39722298606384
 20
-4.0
 30
0.0
 11
60.39722298606384
 21
0.10000000000000003
 31
0.0
  0
LINE
 62
5
  8
DIMENSIONS
 10
78.22725423992843
 20
-4.0
 30
0.0
 11
78.22725423992843
 21
0.10000000000000003
 31
0.0
  0
TEXT
 62
7
  8
DIMENSIONS
 10
69.31223861299614
 20
-2.75
 30
0.0
 40
2.1
  1
18
 50
-0.0
  7
ISOCPEUR
 72
1
 73
2
 11
69.31223861299614
 21
-2.75
 31
0.0
  0
INSERT
  8
DIMENSIONS
  2
DIMTICK_ARROW
 10
60.39722298606384
 20
-4.0
 30
0.0
 41
8.0
 42
8.0
 50
0.0
  0
INSERT
  8
DIMENSIONS
  2
DIMTICK_ARROW
 10
78.22725423992843
 20
-4.0
 30
0.0
 41
8.0
 42
8.0
 50
180.0
  0
LINE
 62
7
  8
DIMENSIONS
 10
60.39722298606384
 20
-4.0
 30
0.0
 11
78.22725423992843
 21
-4.0
 31
0.0
  0
LINE
 62
5
  8
DIMENSIONS
 10
60.39722298606384
 20
-4.0
 30
0.0
 11
60.39722298606384
 21
0.10000000000000003
 31
0.0
  0
LINE
 62
5
  8
DIMENSIONS
 10
78.22725423992843
 20
-4.0
 30
0.0
 11
78.22725423992843
 21
0.10000000000000003
 31
0.0
  0
TEXT
 62
7
  8
DIMENSIONS
 10
69.31223861299614
 20
-2.75
 30
0.0
 40
2.1
  1
18
 50
-0.0
  7
ISOCPEUR
 72
1
 73
2
 11
69.31223861299614
 21
-2.75
 31
0.0
  0
INSERT
  8
DIMENSIONS
  2
DIMTICK_ARROW
 10
60.39722298606384
 20
-4.0
 30
0.0
 41
8.0
 42
8.0
 50
0.0
  0
INSERT
  8
DIMENSIONS
  2
DIMTICK_ARROW
 10
78.22725423992843
 20
-4.0
 30
0.0
 41
8.0
 42
8.0
 50
180.0
  0
LINE
 62
7
  8
DIMENSIONS
 10
60.39722298606384
 20
-4.0
 30
0.0
 11
78.22725423992843
 21
-4.0
 31
0.0
  0
LINE
 62
5
  8
DIMENSIONS
 10
60.39722298606384
 20
-4.0
 30
0.0
 11
60.39722298606384
 21
0.10000000000000003
 31
0.0
  0
LINE
 62
5
  8
DIMENSIONS
 10
78.22725423992843
 20
-4.0
 30
0.0
 11
78.22725423992843
 21
0.10000000000000003
 31
0.0
  0
TEXT
 62
7
  8
DIMENSIONS
 10
69.31223861299614
 20
-2.75
 30
0.0
 40
2.1
  1
18
 50
-0.0
  7
ISOCPEUR
 72
1
 73
2
 11
69.31223861299614
 21
-2.75
 31
0.0
  0
INSERT
  8
DIMENSIONS
  2
DIMTICK_ARROW
 10
60.39722298606384
 20
-4.0
 30
0.0
 41
8.0
 42
8.0
 50
0.0
  0
INSERT
  8
DIMENSIONS
  2
DIMTICK_ARROW
 10
78.22725423992843
 20
-4.0
 30
0.0
 41
8.0
 42
8.0
 50
180.0
  0
LINE
 62
7
  8
DIMENSIONS
 10
60.39722298606384
 20
-4.0
 30
0.0
 11
78.22725423992843
 21
-4.0
 31
0.0
  0
LINE
 62
5
  8
DIMENSIONS
 10
60.39722298606384
 20
-4.0
 30
0.0
 11
60.39722298606384
 21
0.10000000000000003
 31
0.0
  0
LINE
 62
5
  8
DIMENSIONS
 10
78.22725423992843
 20
-4.0
 30
0.0
 11
78.22725423992843
 21
0.10000000000000003
 31
0.0
  0
TEXT
 62
7
  8
DIMENSIONS
 10
69.31223861299614
 20
-2.75
 30
0.0
 40
2.1
  1
18
 50
-0.0
  7
ISOCPEUR
 72
1
 73
2
 11
69.31223861299614
 21
-2.75
 31
0.0
  0
INSERT
  8
DIMENSIONS
  2
DIMTICK_ARROW
 10
60.39722298606384
 20
-4.0
 30
0.0
 41
8.0
 42
8.0
 50
0.0
  0
INSERT
  8
DIMENSIONS
  2
DIMTICK_ARROW
 10
78.22725423992843
 20
-4.0
 30
0.0
 41
8.0
 42
8.0
 50
180.0
  0
LINE
 62
7
  8
DIMENSIONS
 10
60.39722298606384
 20
-4.0
 30
0.0
 11
78.22725423992843
 21
-4.0
 31
0.0
  0
LINE
 62
5
  8
DIMENSIONS
 10
60.39722298606384
 20
-4.0
 30
0.0
 11
60.39722298606384
 21
0.10000000000000003
 31
0.0
  0
LINE
 62
5
  8
DIMENSIONS
 10
78.22725423992843
 20
-4.0
 30
0.0
 11
78.22725423992843
 21
0.10000000000000003
 31
0.0
  0
TEXT
 62
7
  8
DIMENSIONS
 10
69.31223861299614
 20
-2.75
 30
0.0
 40
2.1
  1
18
 50
-0.0
  7
ISOCPEUR
 72
1
 73
2
 11
69.31223861299614
 21
-2.75
 31
0.0
  0
INSERT
  8
DIMENSIONS
  2
DIMTICK_ARROW
 10
60.39722298606384
 20
-4.0
 30
0.0
 41
8.0
 42
8.0
 50
0.0
  0
INSERT
  8
DIMENSIONS
  2
DIMTICK_ARROW
 10
78.22725423992843
 20
-4.0
 30
0.0
 41
8.0
 42
8.0
 50
180.0
  0
LINE
 62
7
  8
DIMENSIONS
 10
60.39722298606384
 20
-4.0
 30
0.0
 11
78.22725423992843
 21
-4.0
 31
0.0
  0
LINE
 62
5
  8
DIMENSIONS
 10
60.39722298606384
 20
-4.0
 30
0.0
 11
60.39722298606384
 21
0.10000000000000003
 31
0.0
  0
LINE
 62
5
  8
DIMENSIONS
 10
78.22725423992843
 20
-4.0
 30
0.0
 11
78.22725423992843
 21
0.10000000000000003
 31
0.0
  0
TEXT
 62
7
  8
DIMENSIONS
 10
69.31223861299614
 20
-2.75
 30
0.0
 40
2.1
  1
18
 50
-0.0
  7
ISOCPEUR
 72
1
 73
2
 11
69.31223861299614
 21
-2.75
 31
0.0
  0
INSERT
  8
DIMENSIONS
  2
DIMTICK_ARROW
 10
60.39722298606384
 20
-4.0
 30
0.0
 41
8.0
 42
8.0
 50
0.0
  0
INSERT
  8
DIMENSIONS
  2
DIMTICK_ARROW
 10
78.22725423992843
 20
-4.0
 30
0.0
 41
8.0
 42
8.0
 50
180.0
  0
LINE
 62
7
  8
DIMENSIONS
 10
60.39722298606384
 20
-4.0
 30
0.0
 11
78.22725423992843
 21
-4.0
 31
0.0
  0
LINE
 62
5
  8
DIMENSIONS
 10
60.39722298606384
 20
-4.0
 30
0.0
 11
60.39722298606384
 21
0.10000000000000003
 31
0.0
  0
LINE
 62
5
  8
DIMENSIONS
 10
78.22725423992843
 20
-4.0
 30
0.0
 11
78.22725423992843
 21
0.10000000000000003
 31
0.0
  0
TEXT
 62
7
  8
DIMENSIONS
 10
69.31223861299614
 20
-2.75
 30
0.0
 40
2.1
  1
18
 50
-0.0
  7
ISOCPEUR
 72
1
 73
2
 11
69.31223861299614
 21
-2.75
 31
0.0
  0
INSERT
  8
DIMENSIONS
  2
DIMTICK_ARROW
 10
60.39722298606384
 20
-4.0
 30
0.0
 41
8.0
 42
8.0
 50
0.0
  0
INSERT
  8
DIMENSIONS
  2
DIMTICK_ARROW
 10
78.22725423992843
 20
-4.0
 30
0.0
 41
8.0
 42
8.0
 50
180.0
  0
LINE
 62
3
  8
0
 10
6.746498312273088
 20
45.94044088833579
 30
0.0
 11
19.75760220022833
 21
45.94044088833579
 31
0.0
  0
LINE
 62
3
  8
0
 10
6.746498312273088
 20
5.4614510146972615
 30
0.0
 11
19.75760220022833
 21
5.4614510146972615
 31
0.0
  0
LINE
 62
7
  8
DIMENSIONS
 10
6.746498312273088
 20
1.4614510146972615
 30
0.0
 11
19.75760220022833
 21
1.4614510146972615
 31
0.0
  0
LINE
 62
5
  8
DIMENSIONS
 10
6.746498312273088
 20
1.4614510146972615
 30
0.0
 11
6.746498312273088
 21
5.561451014697262
 31
0.0
  0
LINE
 62
5
  8
DIMENSIONS
 10
19.75760220022833
 20
1.4614510146972615
 30
0.0
 11
19.75760220022833
 21
5.561451014697262
 31
0.0
  0
TEXT
 62
7
  8
DIMENSIONS
 10
13.252050256250708
 20
2.7114510146972615
 30
0.0
 40
2.1
  1
13
 50
-0.0
  7
ISOCPEUR
 72
1
 73
2
 11
13.252050256250708
 21
2.7114510146972615
 31
0.0
  0
INSERT
  8
DIMENSIONS
  2
DIMTICK_ARROW
 10
6.746498312273088
 20
1.4614510146972615
 30
0.0
 41
8.0
 42
8.0
 50
0.0
  0
INSERT
  8
DIMENSIONS
  2
DIMTICK_ARROW
 10
19.75760220022833
 20
1.4614510146972615
 30
0.0
 41
8.0
 42
8.0
 50
180.0
  0
LINE
 62
7
  8
DIMENSIONS
 10
6.746498312273088
 20
1.4614510146972615
 30
0.0
 11
19.75760220022833
 21
1.4614510146972615
 31
0.0
  0
LINE
 62
5
  8
DIMENSIONS
 10
6.746498312273088
 20
1.4614510146972615
 30
0.0
 11
6.746498312273088
 21
5.561451014697262
 31
0.0
  0
LINE
 62
5
  8
DIMENSIONS
 10
19.75760220022833
 20
1.4614510146972615
 30
0.0
 11
19.75760220022833
 21
5.561451014697262
 31
0.0
  0
TEXT
 62
7
  8
DIMENSIONS
 10
13.252050256250708
 20
2.7114510146972615
 30
0.0
 40
2.1
  1
13
 50
-0.0
  7
ISOCPEUR
 72
1
 73
2
 11
13.252050256250708
 21
2.7114510146972615
 31
0.0
  0
INSERT
  8
DIMENSIONS
  2
DIMTICK_ARROW
 10
6.746498312273088
 20
1.4614510146972615
 30
0.0
 41
8.0
 42
8.0
 50
0.0
  0
INSERT
  8
DIMENSIONS
  2
DIMTICK_ARROW
 10
19.75760220022833
 20
1.4614510146972615
 30
0.0
 41
8.0
 42
8.0
 50
180.0
  0
LINE
 62
7
  8
DIMENSIONS
 10
6.746498312273088
 20
1.4614510146972615
 30
0.0
 11
19.75760220022833
 21
1.4614510146972615
 31
0.0
  0
LINE
 62
5
  8
DIMENSIONS
 10
6.746498312273088
 20
1.4614510146972615
 30
0.0
 11
6.746498312273088
 21
5.561451014697262
 31
0.0
  0
LINE
 62
5
  8
DIMENSIONS
 10
19.75760220022833
 20
1.4614510146972615
 30
0.0
 11
19.75760220022833
 21
5.561451014697262
 31
0.0
  0
TEXT
 62
7
  8
DIMENSIONS
 10
13.252050256250708
 20
2.7114510146972615
 30
0.0
 40
2.1
  1
13
 50
-0.0
  7
ISOCPEUR
 72
1
 73
2
 11
13.252050256250708
 21
2.7114510146972615
 31
0.0
  0
INSERT
  8
DIMENSIONS
  2
DIMTICK_ARROW
 10
6.746498312273088
 20
1.4614510146972615
 30
0.0
 41
8.0
 42
8.0
 50
0.0
  0
INSERT
  8
DIMENSIONS
  2
DIMTICK_ARROW
 10
19.75760220022833
 20
1.4614510146972615
 30
0.0
 41
8.0
 42
8.0
 50
180.0
  0
LINE
 62
7
  8
DIMENSIONS
 10
6.746498312273088
 20
1.4614510146972615
 30
0.0
 11
19.75760220022833
 21
1.4614510146972615
 31
0.0
  0
LINE
 62
5
  8
DIMENSIONS
 10
6.746498312273088
 20
1.4614510146972615
 30
0.0
 11
6.746498312273088
 21
5.561451014697262
 31
0.0
  0
LINE
 62
5
  8
DIMENSIONS
 10
19.75760220022833
 20
1.4614510146972615
 30
0.0
 11
19.75760220022833
 21
5.561451014697262
 31
0.0
  0
TEXT
 62
7
  8
DIMENSIONS
 10
13.252050256250708
 20
2.7114510146972615
 30
0.0
 40
2.1
  1
13
 50
-0.0
  7
ISOCPEUR
 72
1
 73
2
 11
13.252050256250708
 21
2.7114510146972615
 31
0.0
  0
INSERT
  8
DIMENSIONS
  2
DIMTICK_ARROW
 10
6.746498312273088
 20
1.4614510146972615
 30
0.0
 41
8.0
 42
8.0
 50
0.0
  0
INSERT
  8
DIMENSIONS
  2
DIMTICK_ARROW
 10
19.75760220022833
 20
1.4614510146972615
 30
0.0
 41
8.0
 42
8.0
 50
180.0
  0
LINE
 62
7
  8
DIMENSIONS
 10
6.746498312273088
 20
1.4614510146972615
 30
0.0
 11
19.75760220022833
 21
1.4614510146972615
 31
0.0
  0
LINE
 62
5
  8
DIMENSIONS
 10
6.746498312273088
 20
1.4614510146972615
 30
0.0
 11
6.746498312273088
 21
5.561451014697262
 31
0.0
  0
LINE
 62
5
  8
DIMENSIONS
 10
19.75760220022833
 20
1.4614510146972615
 30
0.0
 11
19.75760220022833
 21
5.561451014697262
 31
0.0
  0
TEXT
 62
7
  8
DIMENSIONS
 10
13.252050256250708
 20
2.7114510146972615
 30
0.0
 40
2.1
  1
13
 50
-0.0
  7
ISOCPEUR
 72
1
 73
2
 11
13.252050256250708
 21
2.7114510146972615
 31
0.0
  0
INSERT
  8
DIMENSIONS
  2
DIMTICK_ARROW
 10
6.746498312273088
 20
1.4614510146972615
 30
0.0
 41
8.0
 42
8.0
 50
0.0
  0
INSERT
  8
DIMENSIONS
  2
DIMTICK_ARROW
 10
19.75760220022833
 20
1.4614510146972615
 30
0.0
 41
8.0
 42
8.0
 50
180.0
  0
LINE
 62
7
  8
DIMENSIONS
 10
6.746498312273088
 20
1.4614510146972615
 30
0.0
 11
19.75760220022833
 21
1.4614510146972615
 31
0.0
  0
LINE
 62
5
  8
DIMENSIONS
 10
6.746498312273088
 20
1.4614510146972615
 30
0.0
 11
6.746498312273088
 21
5.561451014697262
 31
0.0
  0
LINE
 62
5
  8
DIMENSIONS
 10
19.75760220022833
 20
1.4614510146972615
 30
0.0
 11
19.75760220022833
 21
5.561451014697262
 31
0.0
  0
TEXT
 62
7
  8
DIMENSIONS
 10
13.252050256250708
 20
2.7114510146972615
 30
0.0
 40
2.1
  1
13
 50
-0.0
  7
ISOCPEUR
 72
1
 73
2
 11
13.252050256250708
 21
2.7114510146972615
 31
0.0
  0
INSERT
  8
DIMENSIONS
  2
DIMTICK_ARROW
 10
6.746498312273088
 20
1.4614510146972615
 30
0.0
 41
8.0
 42
8.0
 50
0.0
  0
INSERT
  8
DIMENSIONS
  2
DIMTICK_ARROW
 10
19.75760220022833
 20
1.4614510146972615
 30
0.0
 41
8.0
 42
8.0
 50
180.0
  0
LINE
 62
7
  8
DIMENSIONS
 10
6.746498312273088
 20
1.4614510146972615
 30
0.0
 11
19.75760220022833
 21
1.4614510146972615
 31
0.0
  0
LINE
 62
5
  8
DIMENSIONS
 10
6.746498312273088
 20
1.4614510146972615
 30
0.0
 11
6.746498312273088
 21
5.561451014697262
 31
0.0
  0
LINE
 62
5
  8
DIMENSIONS
 10
19.75760220022833
 20
1.4614510146972615
 30
0.0
 11
19.75760220022833
 21
5.561451014697262
 31
0.0
  0
TEXT
 62
7
  8
DIMENSIONS
 10
13.252050256250708
 20
2.7114510146972615
 30
0.0
 40
2.1
  1
13
 50
-0.0
  7
ISOCPEUR
 72
1
 73
2
 11
13.252050256250708
 21
2.7114510146972615
 31
0.0
  0
INSERT
  8
DIMENSIONS
  2
DIMTICK_ARROW
 10
6.746498312273088
 20
1.4614510146972615
 30
0.0
 41
8.0
 42
8.0
 50
0.0
  0
INSERT
  8
DIMENSIONS
  2
DIMTICK_ARROW
 10
19.75760220022833
 20
1.4614510146972615
 30
0.0
 41
8.0
 42
8.0
 50
180.0
  0
LINE
 62
7
  8
DIMENSIONS
 10
6.746498312273088
 20
1.4614510146972615
 30
0.0
 11
19.75760220022833
 21
1.4614510146972615
 31
0.0
  0
LINE
 62
5
  8
DIMENSIONS
 10
6.746498312273088
 20
1.4614510146972615
 30
0.0
 11
6.746498312273088
 21
5.561451014697262
 31
0.0
  0
LINE
 62
5
  8
DIMENSIONS
 10
19.75760220022833
 20
1.4614510146972615
 30
0.0
 11
19.75760220022833
 21
5.561451014697262
 31
0.0
  0
TEXT
 62
7
  8
DIMENSIONS
 10
13.252050256250708
 20
2.7114510146972615
 30
0.0
 40
2.1
  1
13
 50
-0.0
  7
ISOCPEUR
 72
1
 73
2
 11
13.252050256250708
 21
2.7114510146972615
 31
0.0
  0
INSERT
  8
DIMENSIONS
  2
DIMTICK_ARROW
 10
6.746498312273088
 20
1.4614510146972615
 30
0.0
 41
8.0
 42
8.0
 50
0.0
  0
INSERT
  8
DIMENSIONS
  2
DIMTICK_ARROW
 10
19.75760220022833
 20
1.4614510146972615
 30
0.0
 41
8.0
 42
8.0
 50
180.0
  0
LINE
 62
7
  8
DIMENSIONS
 10
6.746498312273088
 20
1.4614510146972615
 30
0.0
 11
19.75760220022833
 21
1.4614510146972615
 31
0.0
  0
LINE
 62
5
  8
DIMENSIONS
 10
6.746498312273088
 20
1.4614510146972615
 30
0.0
 11
6.746498312273088
 21
5.561451014697262
 31
0.0
  0
LINE
 62
5
  8
DIMENSIONS
 10
19.75760220022833
 20
1.4614510146972615
 30
0.0
 11
19.75760220022833
 21
5.561451014697262
 31
0.0
  0
TEXT
 62
7
  8
DIMENSIONS
 10
13.252050256250708
 20
2.7114510146972615
 30
0.0
 40
2.1
  1
13
 50
-0.0
  7
ISOCPEUR
 72
1
 73
2
 11
13.252050256250708
 21
2.7114510146972615
 31
0.0
  0
INSERT
  8
DIMENSIONS
  2
DIMTICK_ARROW
 10
6.746498312273088
 20
1.4614510146972615
 30
0.0
 41
8.0
 42
8.0
 50
0.0
  0
INSERT
  8
DIMENSIONS
  2
DIMTICK_ARROW
 10
19.75760220022833
 20
1.4614510146972615
 30
0.0
 41
8.0
 42
8.0
 50
180.0
  0
LINE
 62
7
  8
DIMENSIONS
 10
6.746498312273088
 20
1.4614510146972615
 30
0.0
 11
19.75760220022833
 21
1.4614510146972615
 31
0.0
  0
LINE
 62
5
  8
DIMENSIONS
 10
6.746498312273088
 20
1.4614510146972615
 30
0.0
 11
6.746498312273088
 21
5.561451014697262
 31
0.0
  0
LINE
 62
5
  8
DIMENSIONS
 10
19.75760220022833
 20
1.4614510146972615
 30
0.0
 11
19.75760220022833
 21
5.561451014697262
 31
0.0
  0
TEXT
 62
7
  8
DIMENSIONS
 10
13.252050256250708
 20
2.7114510146972615
 30
0.0
 40
2.1
  1
13
 50
-0.0
  7
ISOCPEUR
 72
1
 73
2
 11
13.252050256250708
 21
2.7114510146972615
 31
0.0
  0
INSERT
  8
DIMENSIONS
  2
DIMTICK_ARROW
 10
6.746498312273088
 20
1.4614510146972615
 30
0.0
 41
8.0
 42
8.0
 50
0.0
  0
INSERT
  8
DIMENSIONS
  2
DIMTICK_ARROW
 10
19.75760220022833
 20
1.4614510146972615
 30
0.0
 41
8.0
 42
8.0
 50
180.0
  0
LINE
 62
7
  8
DIMENSIONS
 10
6.746498312273088
 20
1.4614510146972615
 30
0.0
 11
19.75760220022833
 21
1.4614510146972615
 31
0.0
  0
LINE
 62
5
  8
DIMENSIONS
 10
6.746498312273088
 20
1.4614510146972615
 30
0.0
 11
6.746498312273088
 21
5.561451014697262
 31
0.0
  0
LINE
 62
5
  8
DIMENSIONS
 10
19.75760220022833
 20
1.4614510146972615
 30
0.0
 11
19.75760220022833
 21
5.561451014697262
 31
0.0
  0
TEXT
 62
7
  8
DIMENSIONS
 10
13.252050256250708
 20
2.7114510146972615
 30
0.0
 40
2.1
  1
13
 50
-0.0
  7
ISOCPEUR
 72
1
 73
2
 11
13.252050256250708
 21
2.7114510146972615
 31
0.0
  0
INSERT
  8
DIMENSIONS
  2
DIMTICK_ARROW
 10
6.746498312273088
 20
1.4614510146972615
 30
0.0
 41
8.0
 42
8.0
 50
0.0
  0
INSERT
  8
DIMENSIONS
  2
DIMTICK_ARROW
 10
19.75760220022833
 20
1.4614510146972615
 30
0.0
 41
8.0
 42
8.0
 50
180.0
  0
LINE
 62
7
  8
DIMENSIONS
 10
6.746498312273088
 20
1.4614510146972615
 30
0.0
 11
19.75760220022833
 21
1.4614510146972615
 31
0.0
  0
LINE
 62
5
  8
DIMENSIONS
 10
6.746498312273088
 20
1.4614510146972615
 30
0.0
 11
6.746498312273088
 21
5.561451014697262
 31
0.0
  0
LINE
 62
5
  8
DIMENSIONS
 10
19.75760220022833
 20
1.4614510146972615
 30
0.0
 11
19.75760220022833
 21
5.561451014697262
 31
0.0
  0
TEXT
 62
7
  8
DIMENSIONS
 10
13.252050256250708
 20
2.7114510146972615
 30
0.0
 40
2.1
  1
13
 50
-0.0
  7
ISOCPEUR
 72
1
 73
2
 11
13.252050256250708
 21
2.7114510146972615
 31
0.0
  0
INSERT
  8
DIMENSIONS
  2
DIMTICK_ARROW
 10
6.746498312273088
 20
1.4614510146972615
 30
0.0
 41
8.0
 42
8.0
 50
0.0
  0
INSERT
  8
DIMENSIONS
  2
DIMTICK_ARROW
 10
19.75760220022833
 20
1.4614510146972615
 30
0.0
 41
8.0
 42
8.0
 50
180.0
  0
LINE
 62
7
  8
DIMENSIONS
 10
6.746498312273088
 20
1.4614510146972615
 30
0.0
 11
19.75760220022833
 21
1.4614510146972615
 31
0.0
  0
LINE
 62
5
  8
DIMENSIONS
 10
6.746498312273088
 20
1.4614510146972615
 30
0.0
 11
6.746498312273088
 21
5.561451014697262
 31
0.0
  0
LINE
 62
5
  8
DIMENSIONS
 10
19.75760220022833
 20
1.4614510146972615
 30
0.0
 11
19.75760220022833
 21
5.561451014697262
 31
0.0
  0
TEXT
 62
7
  8
DIMENSIONS
 10
13.252050256250708
 20
2.7114510146972615
 30
0.0
 40
2.1
  1
13
 50
-0.0
  7
ISOCPEUR
 72
1
 73
2
 11
13.252050256250708
 21
2.7114510146972615
 31
0.0
  0
INSERT
  8
DIMENSIONS
  2
DIMTICK_ARROW
 10
6.746498312273088
 20
1.4614510146972615
 30
0.0
 41
8.0
 42
8.0
 50
0.0
  0
INSERT
  8
DIMENSIONS
  2
DIMTICK_ARROW
 10
19.75760220022833
 20
1.4614510146972615
 30
0.0
 41
8.0
 42
8.0
 50
180.0
  0
LINE
 62
7
  8
DIMENSIONS
 10
6.746498312273088
 20
1.4614510146972615
 30
0.0
 11
19.75760220022833
 21
1.4614510146972615
 31
0.0
  0
LINE
 62
5
  8
DIMENSIONS
 10
6.746498312273088
 20
1.4614510146972615
 30
0.0
 11
6.746498312273088
 21
5.561451014697262
 31
0.0
  0
LINE
 62
5
  8
DIMENSIONS
 10
19.75760220022833
 20
1.4614510146972615
 30
0.0
 11
19.75760220022833
 21
5.561451014697262
 31
0.0
  0
TEXT
 62
7
  8
DIMENSIONS
 10
13.252050256250708
 20
2.7114510146972615
 30
0.0
 40
2.1
  1
13
 50
-0.0
  7
ISOCPEUR
 72
1
 73
2
 11
13.252050256250708
 21
2.7114510146972615
 31
0.0
  0
INSERT
  8
DIMENSIONS
  2
DIMTICK_ARROW
 10
6.746498312273088
 20
1.4614510146972615
 30
0.0
 41
8.0
 42
8.0
 50
0.0
  0
INSERT
  8
DIMENSIONS
  2
DIMTICK_ARROW
 10
19.75760220022833
 20
1.4614510146972615
 30
0.0
 41
8.0
 42
8.0
 50
180.0
  0
LINE
 62
7
  8
DIMENSIONS
 10
6.746498312273088
 20
1.4614510146972615
 30
0.0
 11
19.75760220022833
 21
1.4614510146972615
 31
0.0
  0
LINE
 62
5
  8
DIMENSIONS
 10
6.746498312273088
 20
1.4614510146972615
 30
0.0
 11
6.746498312273088
 21
5.561451014697262
 31
0.0
  0
LINE
 62
5
  8
DIMENSIONS
 10
19.75760220022833
 20
1.4614510146972615
 30
0.0
 11
19.75760220022833
 21
5.561451014697262
 31
0.0
  0
TEXT
 62
7
  8
DIMENSIONS
 10
13.252050256250708
 20
2.7114510146972615
 30
0.0
 40
2.1
  1
13
 50
-0.0
  7
ISOCPEUR
 72
1
 73
2
 11
13.252050256250708
 21
2.7114510146972615
 31
0.0
  0
INSERT
  8
DIMENSIONS
  2
DIMTICK_ARROW
 10
6.746498312273088
 20
1.4614510146972615
 30
0.0
 41
8.0
 42
8.0
 50
0.0
  0
INSERT
  8
DIMENSIONS
  2
DIMTICK_ARROW
 10
19.75760220022833
 20
1.4614510146972615
 30
0.0
 41
8.0
 42
8.0
 50
180.0
  0
LINE
 62
7
  8
DIMENSIONS
 10
6.746498312273088
 20
1.4614510146972615
 30
0.0
 11
19.75760220022833
 21
1.4614510146972615
 31
0.0
  0
LINE
 62
5
  8
DIMENSIONS
 10
6.746498312273088
 20
1.4614510146972615
 30
0.0
 11
6.746498312273088
 21
5.561451014697262
 31
0.0
  0
LINE
 62
5
  8
DIMENSIONS
 10
19.75760220022833
 20
1.4614510146972615
 30
0.0
 11
19.75760220022833
 21
5.561451014697262
 31
0.0
  0
TEXT
 62
7
  8
DIMENSIONS
 10
13.252050256250708
 20
2.7114510146972615
 30
0.0
 40
2.1
  1
13
 50
-0.0
  7
ISOCPEUR
 72
1
 73
2
 11
13.252050256250708
 21
2.7114510146972615
 31
0.0
  0
INSERT
  8
DIMENSIONS
  2
DIMTICK_ARROW
 10
6.746498312273088
 20
1.4614510146972615
 30
0.0
 41
8.0
 42
8.0
 50
0.0
  0
INSERT
  8
DIMENSIONS
  2
DIMTICK_ARROW
 10
19.75760220022833
 20
1.4614510146972615
 30
0.0
 41
8.0
 42
8.0
 50
180.0
  0
LINE
 62
7
  8
DIMENSIONS
 10
6.746498312273088
 20
1.4614510146972615
 30
0.0
 11
19.75760220022833
 21
1.4614510146972615
 31
0.0
  0
LINE
 62
5
  8
DIMENSIONS
 10
6.746498312273088
 20
1.4614510146972615
 30
0.0
 11
6.746498312273088
 21
5.561451014697262
 31
0.0
  0
LINE
 62
5
  8
DIMENSIONS
 10
19.75760220022833
 20
1.4614510146972615
 30
0.0
 11
19.75760220022833
 21
5.561451014697262
 31
0.0
  0
TEXT
 62
7
  8
DIMENSIONS
 10
13.252050256250708
 20
2.7114510146972615
 30
0.0
 40
2.1
  1
13
 50
-0.0
  7
ISOCPEUR
 72
1
 73
2
 11
13.252050256250708
 21
2.7114510146972615
 31
0.0
  0
INSERT
  8
DIMENSIONS
  2
DIMTICK_ARROW
 10
6.746498312273088
 20
1.4614510146972615
 30
0.0
 41
8.0
 42
8.0
 50
0.0
  0
INSERT
  8
DIMENSIONS
  2
DIMTICK_ARROW
 10
19.75760220022833
 20
1.4614510146972615
 30
0.0
 41
8.0
 42
8.0
 50
180.0
  0
LINE
 62
7
  8
DIMENSIONS
 10
6.746498312273088
 20
1.4614510146972615
 30
0.0
 11
19.75760220022833
 21
1.4614510146972615
 31
0.0
  0
LINE
 62
5
  8
DIMENSIONS
 10
6.746498312273088
 20
1.4614510146972615
 30
0.0
 11
6.746498312273088
 21
5.561451014697262
 31
0.0
  0
LINE
 62
5
  8
DIMENSIONS
 10
19.75760220022833
 20
1.4614510146972615
 30
0.0
 11
19.75760220022833
 21
5.561451014697262
 31
0.0
  0
TEXT
 62
7
  8
DIMENSIONS
 10
13.252050256250708
 20
2.7114510146972615
 30
0.0
 40
2.1
  1
13
 50
-0.0
  7
ISOCPEUR
 72
1
 73
2
 11
13.252050256250708
 21
2.7114510146972615
 31
0.0
  0
INSERT
  8
DIMENSIONS
  2
DIMTICK_ARROW
 10
6.746498312273088
 20
1.4614510146972615
 30
0.0
 41
8.0
 42
8.0
 50
0.0
  0
INSERT
  8
DIMENSIONS
  2
DIMTICK_ARROW
 10
19.75760220022833
 20
1.4614510146972615
 30
0.0
 41
8.0
 42
8.0
 50
180.0
  0
LINE
 62
7
  8
DIMENSIONS
 10
6.746498312273088
 20
1.4614510146972615
 30
0.0
 11
19.75760220022833
 21
1.4614510146972615
 31
0.0
  0
LINE
 62
5
  8
DIMENSIONS
 10
6.746498312273088
 20
1.4614510146972615
 30
0.0
 11
6.746498312273088
 21
5.561451014697262
 31
0.0
  0
LINE
 62
5
  8
DIMENSIONS
 10
19.75760220022833
 20
1.4614510146972615
 30
0.0
 11
19.75760220022833
 21
5.561451014697262
 31
0.0
  0
TEXT
 62
7
  8
DIMENSIONS
 10
13.252050256250708
 20
2.7114510146972615
 30
0.0
 40
2.1
  1
13
 50
-0.0
  7
ISOCPEUR
 72
1
 73
2
 11
13.252050256250708
 21
2.7114510146972615
 31
0.0
  0
INSERT
  8
DIMENSIONS
  2
DIMTICK_ARROW
 10
6.746498312273088
 20
1.4614510146972615
 30
0.0
 41
8.0
 42
8.0
 50
0.0
  0
INSERT
  8
DIMENSIONS
  2
DIMTICK_ARROW
 10
19.75760220022833
 20
1.4614510146972615
 30
0.0
 41
8.0
 42
8.0
 50
180.0
  0
LINE
 62
7
  8
DIMENSIONS
 10
6.746498312273088
 20
1.4614510146972615
 30
0.0
 11
19.75760220022833
 21
1.4614510146972615
 31
0.0
  0
LINE
 62
5
  8
DIMENSIONS
 10
6.746498312273088
 20
1.4614510146972615
 30
0.0
 11
6.746498312273088
 21
5.561451014697262
 31
0.0
  0
LINE
 62
5
  8
DIMENSIONS
 10
19.75760220022833
 20
1.4614510146972615
 30
0.0
 11
19.75760220022833
 21
5.561451014697262
 31
0.0
  0
TEXT
 62
7
  8
DIMENSIONS
 10
13.252050256250708
 20
2.7114510146972615
 30
0.0
 40
2.1
  1
13
 50
-0.0
  7
ISOCPEUR
 72
1
 73
2
 11
13.252050256250708
 21
2.7114510146972615
 31
0.0
  0
INSERT
  8
DIMENSIONS
  2
DIMTICK_ARROW
 10
6.746498312273088
 20
1.4614510146972615
 30
0.0
 41
8.0
 42
8.0
 50
0.0
  0
INSERT
  8
DIMENSIONS
  2
DIMTICK_ARROW
 10
19.75760220022833
 20
1.4614510146972615
 30
0.0
 41
8.0
 42
8.0
 50
180.0
  0
LINE
 62
7
  8
DIMENSIONS
 10
6.746498312273088
 20
1.4614510146972615
 30
0.0
 11
19.75760220022833
 21
1.4614510146972615
 31
0.0
  0
LINE
 62
5
  8
DIMENSIONS
 10
6.746498312273088
 20
1.4614510146972615
 30
0.0
 11
6.746498312273088
 21
5.561451014697262
 31
0.0
  0
LINE
 62
5
  8
DIMENSIONS
 10
19.75760220022833
 20
1.4614510146972615
 30
0.0
 11
19.75760220022833
 21
5.561451014697262
 31
0.0
  0
TEXT
 62
7
  8
DIMENSIONS
 10
13.252050256250708
 20
2.7114510146972615
 30
0.0
 40
2.1
  1
13
 50
-0.0
  7
ISOCPEUR
 72
1
 73
2
 11
13.252050256250708
 21
2.7114510146972615
 31
0.0
  0
INSERT
  8
DIMENSIONS
  2
DIMTICK_ARROW
 10
6.746498312273088
 20
1.4614510146972615
 30
0.0
 41
8.0
 42
8.0
 50
0.0
  0
INSERT
  8
DIMENSIONS
  2
DIMTICK_ARROW
 10
19.75760220022833
 20
1.4614510146972615
 30
0.0
 41
8.0
 42
8.0
 50
180.0
  0
LINE
 62
7
  8
DIMENSIONS
 10
6.746498312273088
 20
1.4614510146972615
 30
0.0
 11
19.75760220022833
 21
1.4614510146972615
 31
0.0
  0
LINE
 62
5
  8
DIMENSIONS
 10
6.746498312273088
 20
1.4614510146972615
 30
0.0
 11
6.746498312273088
 21
5.561451014697262
 31
0.0
  0
LINE
 62
5
  8
DIMENSIONS
 10
19.75760220022833
 20
1.4614510146972615
 30
0.0
 11
19.75760220022833
 21
5.561451014697262
 31
0.0
  0
TEXT
 62
7
  8
DIMENSIONS
 10
13.252050256250708
 20
2.7114510146972615
 30
0.0
 40
2.1
  1
13
 50
-0.0
  7
ISOCPEUR
 72
1
 73
2
 11
13.252050256250708
 21
2.7114510146972615
 31
0.0
  0
INSERT
  8
DIMENSIONS
  2
DIMTICK_ARROW
 10
6.746498312273088
 20
1.4614510146972615
 30
0.0
 41
8.0
 42
8.0
 50
0.0
  0
INSERT
  8
DIMENSIONS
  2
DIMTICK_ARROW
 10
19.75760220022833
 20
1.4614510146972615
 30
0.0
 41
8.0
 42
8.0
 50
180.0
  0
LINE
 62
7
  8
DIMENSIONS
 10
6.746498312273088
 20
1.4614510146972615
 30
0.0
 11
19.75760220022833
 21
1.4614510146972615
 31
0.0
  0
LINE
 62
5
  8
DIMENSIONS
 10
6.746498312273088
 20
1.4614510146972615
 30
0.0
 11
6.746498312273088
 21
5.561451014697262
 31
0.0
  0
LINE
 62
5
  8
DIMENSIONS
 10
19.75760220022833
 20
1.4614510146972615
 30
0.0
 11
19.75760220022833
 21
5.561451014697262
 31
0.0
  0
TEXT
 62
7
  8
DIMENSIONS
 10
13.252050256250708
 20
2.7114510146972615
 30
0.0
 40
2.1
  1
13
 50
-0.0
  7
ISOCPEUR
 72
1
 73
2
 11
13.252050256250708
 21
2.7114510146972615
 31
0.0
  0
INSERT
  8
DIMENSIONS
  2
DIMTICK_ARROW
 10
6.746498312273088
 20
1.4614510146972615
 30
0.0
 41
8.0
 42
8.0
 50
0.0
  0
INSERT
  8
DIMENSIONS
  2
DIMTICK_ARROW
 10
19.75760220022833
 20
1.4614510146972615
 30
0.0
 41
8.0
 42
8.0
 50
180.0
  0
LINE
 62
3
  8
0
 10
19.75760220022833
 20
5.4614510146972615
 30
0.0
 11
19.75760220022833
 21
45.94044088833579
 31
0.0
  0
LINE
 62
7
  8
DIMENSIONS
 10
23.75760220022833
 20
5.4614510146972615
 30
0.0
 11
23.75760220022833
 21
45.94044088833579
 31
0.0
  0
LINE
 62
5
  8
DIMENSIONS
 10
23.75760220022833
 20
5.4614510146972615
 30
0.0
 11
20.05760220022833
 21
5.4614510146972615
 31
0.0
  0
LINE
 62
5
  8
DIMENSIONS
 10
23.75760220022833
 20
45.94044088833579
 30
0.0
 11
20.05760220022833
 21
45.94044088833579
 31
0.0
  0
TEXT
 62
7
  8
DIMENSIONS
 10
22.50760220022833
 20
25.700945951516527
 30
0.0
 40
2.1
  1
40
 50
90.0
  7
ISOCPEUR
 72
1
 73
2
 11
22.50760220022833
 21
25.700945951516527
 31
0.0
  0
INSERT
  8
DIMENSIONS
  2
DIMTICK_ARROW
 10
23.75760220022833
 20
5.4614510146972615
 30
0.0
 41
8.0
 42
8.0
 50
90.0
  0
INSERT
  8
DIMENSIONS
  2
DIMTICK_ARROW
 10
23.75760220022833
 20
45.94044088833579
 30
0.0
 41
8.0
 42
8.0
 50
270.0
  0
LINE
 62
7
  8
DIMENSIONS
 10
23.75760220022833
 20
5.4614510146972615
 30
0.0
 11
23.75760220022833
 21
45.94044088833579
 31
0.0
  0
LINE
 62
5
  8
DIMENSIONS
 10
23.75760220022833
 20
5.4614510146972615
 30
0.0
 11
20.05760220022833
 21
5.4614510146972615
 31
0.0
  0
LINE
 62
5
  8
DIMENSIONS
 10
23.75760220022833
 20
45.94044088833579
 30
0.0
 11
20.05760220022833
 21
45.94044088833579
 31
0.0
  0
TEXT
 62
7
  8
DIMENSIONS
 10
22.50760220022833
 20
25.700945951516527
 30
0.0
 40
2.1
  1
40
 50
90.0
  7
ISOCPEUR
 72
1
 73
2
 11
22.50760220022833
 21
25.700945951516527
 31
0.0
  0
INSERT
  8
DIMENSIONS
  2
DIMTICK_ARROW
 10
23.75760220022833
 20
5.4614510146972615
 30
0.0
 41
8.0
 42
8.0
 50
90.0
  0
INSERT
  8
DIMENSIONS
  2
DIMTICK_ARROW
 10
23.75760220022833
 20
45.94044088833579
 30
0.0
 41
8.0
 42
8.0
 50
270.0
  0
LINE
 62
7
  8
DIMENSIONS
 10
23.75760220022833
 20
5.4614510146972615
 30
0.0
 11
23.75760220022833
 21
45.94044088833579
 31
0.0
  0
LINE
 62
5
  8
DIMENSIONS
 10
23.75760220022833
 20
5.4614510146972615
 30
0.0
 11
20.05760220022833
 21
5.4614510146972615
 31
0.0
  0
LINE
 62
5
  8
DIMENSIONS
 10
23.75760220022833
 20
45.94044088833579
 30
0.0
 11
20.05760220022833
 21
45.94044088833579
 31
0.0
  0
TEXT
 62
7
  8
DIMENSIONS
 10
22.50760220022833
 20
25.700945951516527
 30
0.0
 40
2.1
  1
40
 50
90.0
  7
ISOCPEUR
 72
1
 73
2
 11
22.50760220022833
 21
25.700945951516527
 31
0.0
  0
INSERT
  8
DIMENSIONS
  2
DIMTICK_ARROW
 10
23.75760220022833
 20
5.4614510146972615
 30
0.0
 41
8.0
 42
8.0
 50
90.0
  0
INSERT
  8
DIMENSIONS
  2
DIMTICK_ARROW
 10
23.75760220022833
 20
45.94044088833579
 30
0.0
 41
8.0
 42
8.0
 50
270.0
  0
LINE
 62
7
  8
DIMENSIONS
 10
23.75760220022833
 20
5.4614510146972615
 30
0.0
 11
23.75760220022833
 21
45.94044088833579
 31
0.0
  0
LINE
 62
5
  8
DIMENSIONS
 10
23.75760220022833
 20
5.4614510146972615
 30
0.0
 11
20.05760220022833
 21
5.4614510146972615
 31
0.0
  0
LINE
 62
5
  8
DIMENSIONS
 10
23.75760220022833
 20
45.94044088833579
 30
0.0
 11
20.05760220022833
 21
45.94044088833579
 31
0.0
  0
TEXT
 62
7
  8
DIMENSIONS
 10
22.50760220022833
 20
25.700945951516527
 30
0.0
 40
2.1
  1
40
 50
90.0
  7
ISOCPEUR
 72
1
 73
2
 11
22.50760220022833
 21
25.700945951516527
 31
0.0
  0
INSERT
  8
DIMENSIONS
  2
DIMTICK_ARROW
 10
23.75760220022833
 20
5.4614510146972615
 30
0.0
 41
8.0
 42
8.0
 50
90.0
  0
INSERT
  8
DIMENSIONS
  2
DIMTICK_ARROW
 10
23.75760220022833
 20
45.94044088833579
 30
0.0
 41
8.0
 42
8.0
 50
270.0
  0
LINE
 62
7
  8
DIMENSIONS
 10
23.75760220022833
 20
5.4614510146972615
 30
0.0
 11
23.75760220022833
 21
45.94044088833579
 31
0.0
  0
LINE
 62
5
  8
DIMENSIONS
 10
23.75760220022833
 20
5.4614510146972615
 30
0.0
 11
20.05760220022833
 21
5.4614510146972615
 31
0.0
  0
LINE
 62
5
  8
DIMENSIONS
 10
23.75760220022833
 20
45.94044088833579
 30
0.0
 11
20.05760220022833
 21
45.94044088833579
 31
0.0
  0
TEXT
 62
7
  8
DIMENSIONS
 10
22.50760220022833
 20
25.700945951516527
 30
0.0
 40
2.1
  1
40
 50
90.0
  7
ISOCPEUR
 72
1
 73
2
 11
22.50760220022833
 21
25.700945951516527
 31
0.0
  0
INSERT
  8
DIMENSIONS
  2
DIMTICK_ARROW
 10
23.75760220022833
 20
5.4614510146972615
 30
0.0
 41
8.0
 42
8.0
 50
90.0
  0
INSERT
  8
DIMENSIONS
  2
DIMTICK_ARROW
 10
23.75760220022833
 20
45.94044088833579
 30
0.0
 41
8.0
 42
8.0
 50
270.0
  0
LINE
 62
7
  8
DIMENSIONS
 10
23.75760220022833
 20
5.4614510146972615
 30
0.0
 11
23.75760220022833
 21
45.94044088833579
 31
0.0
  0
LINE
 62
5
  8
DIMENSIONS
 10
23.75760220022833
 20
5.4614510146972615
 30
0.0
 11
20.05760220022833
 21
5.4614510146972615
 31
0.0
  0
LINE
 62
5
  8
DIMENSIONS
 10
23.75760220022833
 20
45.94044088833579
 30
0.0
 11
20.05760220022833
 21
45.94044088833579
 31
0.0
  0
TEXT
 62
7
  8
DIMENSIONS
 10
22.50760220022833
 20
25.700945951516527
 30
0.0
 40
2.1
  1
40
 50
90.0
  7
ISOCPEUR
 72
1
 73
2
 11
22.50760220022833
 21
25.700945951516527
 31
0.0
  0
INSERT
  8
DIMENSIONS
  2
DIMTICK_ARROW
 10
23.75760220022833
 20
5.4614510146972615
 30
0.0
 41
8.0
 42
8.0
 50
90.0
  0
INSERT
  8
DIMENSIONS
  2
DIMTICK_ARROW
 10
23.75760220022833
 20
45.94044088833579
 30
0.0
 41
8.0
 42
8.0
 50
270.0
  0
LINE
 62
7
  8
DIMENSIONS
 10
23.75760220022833
 20
5.4614510146972615
 30
0.0
 11
23.75760220022833
 21
45.94044088833579
 31
0.0
  0
LINE
 62
5
  8
DIMENSIONS
 10
23.75760220022833
 20
5.4614510146972615
 30
0.0
 11
20.05760220022833
 21
5.4614510146972615
 31
0.0
  0
LINE
 62
5
  8
DIMENSIONS
 10
23.75760220022833
 20
45.94044088833579
 30
0.0
 11
20.05760220022833
 21
45.94044088833579
 31
0.0
  0
TEXT
 62
7
  8
DIMENSIONS
 10
22.50760220022833
 20
25.700945951516527
 30
0.0
 40
2.1
  1
40
 50
90.0
  7
ISOCPEUR
 72
1
 73
2
 11
22.50760220022833
 21
25.700945951516527
 31
0.0
  0
INSERT
  8
DIMENSIONS
  2
DIMTICK_ARROW
 10
23.75760220022833
 20
5.4614510146972615
 30
0.0
 41
8.0
 42
8.0
 50
90.0
  0
INSERT
  8
DIMENSIONS
  2
DIMTICK_ARROW
 10
23.75760220022833
 20
45.94044088833579
 30
0.0
 41
8.0
 42
8.0
 50
270.0
  0
LINE
 62
7
  8
DIMENSIONS
 10
23.75760220022833
 20
5.4614510146972615
 30
0.0
 11
23.75760220022833
 21
45.94044088833579
 31
0.0
  0
LINE
 62
5
  8
DIMENSIONS
 10
23.75760220022833
 20
5.4614510146972615
 30
0.0
 11
20.05760220022833
 21
5.4614510146972615
 31
0.0
  0
LINE
 62
5
  8
DIMENSIONS
 10
23.75760220022833
 20
45.94044088833579
 30
0.0
 11
20.05760220022833
 21
45.94044088833579
 31
0.0
  0
TEXT
 62
7
  8
DIMENSIONS
 10
22.50760220022833
 20
25.700945951516527
 30
0.0
 40
2.1
  1
40
 50
90.0
  7
ISOCPEUR
 72
1
 73
2
 11
22.50760220022833
 21
25.700945951516527
 31
0.0
  0
INSERT
  8
DIMENSIONS
  2
DIMTICK_ARROW
 10
23.75760220022833
 20
5.4614510146972615
 30
0.0
 41
8.0
 42
8.0
 50
90.0
  0
INSERT
  8
DIMENSIONS
  2
DIMTICK_ARROW
 10
23.75760220022833
 20
45.94044088833579
 30
0.0
 41
8.0
 42
8.0
 50
270.0
  0
LINE
 62
7
  8
DIMENSIONS
 10
23.75760220022833
 20
5.4614510146972615
 30
0.0
 11
23.75760220022833
 21
45.94044088833579
 31
0.0
  0
LINE
 62
5
  8
DIMENSIONS
 10
23.75760220022833
 20
5.4614510146972615
 30
0.0
 11
20.05760220022833
 21
5.4614510146972615
 31
0.0
  0
LINE
 62
5
  8
DIMENSIONS
 10
23.75760220022833
 20
45.94044088833579
 30
0.0
 11
20.05760220022833
 21
45.94044088833579
 31
0.0
  0
TEXT
 62
7
  8
DIMENSIONS
 10
22.50760220022833
 20
25.700945951516527
 30
0.0
 40
2.1
  1
40
 50
90.0
  7
ISOCPEUR
 72
1
 73
2
 11
22.50760220022833
 21
25.700945951516527
 31
0.0
  0
INSERT
  8
DIMENSIONS
  2
DIMTICK_ARROW
 10
23.75760220022833
 20
5.4614510146972615
 30
0.0
 41
8.0
 42
8.0
 50
90.0
  0
INSERT
  8
DIMENSIONS
  2
DIMTICK_ARROW
 10
23.75760220022833
 20
45.94044088833579
 30
0.0
 41
8.0
 42
8.0
 50
270.0
  0
LINE
 62
7
  8
DIMENSIONS
 10
23.75760220022833
 20
5.4614510146972615
 30
0.0
 11
23.75760220022833
 21
45.94044088833579
 31
0.0
  0
LINE
 62
5
  8
DIMENSIONS
 10
23.75760220022833
 20
5.4614510146972615
 30
0.0
 11
20.05760220022833
 21
5.4614510146972615
 31
0.0
  0
LINE
 62
5
  8
DIMENSIONS
 10
23.75760220022833
 20
45.94044088833579
 30
0.0
 11
20.05760220022833
 21
45.94044088833579
 31
0.0
  0
TEXT
 62
7
  8
DIMENSIONS
 10
22.50760220022833
 20
25.700945951516527
 30
0.0
 40
2.1
  1
40
 50
90.0
  7
ISOCPEUR
 72
1
 73
2
 11
22.50760220022833
 21
25.700945951516527
 31
0.0
  0
INSERT
  8
DIMENSIONS
  2
DIMTICK_ARROW
 10
23.75760220022833
 20
5.4614510146972615
 30
0.0
 41
8.0
 42
8.0
 50
90.0
  0
INSERT
  8
DIMENSIONS
  2
DIMTICK_ARROW
 10
23.75760220022833
 20
45.94044088833579
 30
0.0
 41
8.0
 42
8.0
 50
270.0
  0
LINE
 62
7
  8
DIMENSIONS
 10
23.75760220022833
 20
5.4614510146972615
 30
0.0
 11
23.75760220022833
 21
45.94044088833579
 31
0.0
  0
LINE
 62
5
  8
DIMENSIONS
 10
23.75760220022833
 20
5.4614510146972615
 30
0.0
 11
20.05760220022833
 21
5.4614510146972615
 31
0.0
  0
LINE
 62
5
  8
DIMENSIONS
 10
23.75760220022833
 20
45.94044088833579
 30
0.0
 11
20.05760220022833
 21
45.94044088833579
 31
0.0
  0
TEXT
 62
7
  8
DIMENSIONS
 10
22.50760220022833
 20
25.700945951516527
 30
0.0
 40
2.1
  1
40
 50
90.0
  7
ISOCPEUR
 72
1
 73
2
 11
22.50760220022833
 21
25.700945951516527
 31
0.0
  0
INSERT
  8
DIMENSIONS
  2
DIMTICK_ARROW
 10
23.75760220022833
 20
5.4614510146972615
 30
0.0
 41
8.0
 42
8.0
 50
90.0
  0
INSERT
  8
DIMENSIONS
  2
DIMTICK_ARROW
 10
23.75760220022833
 20
45.94044088833579
 30
0.0
 41
8.0
 42
8.0
 50
270.0
  0
LINE
 62
7
  8
DIMENSIONS
 10
23.75760220022833
 20
5.4614510146972615
 30
0.0
 11
23.75760220022833
 21
45.94044088833579
 31
0.0
  0
LINE
 62
5
  8
DIMENSIONS
 10
23.75760220022833
 20
5.4614510146972615
 30
0.0
 11
20.05760220022833
 21
5.4614510146972615
 31
0.0
  0
LINE
 62
5
  8
DIMENSIONS
 10
23.75760220022833
 20
45.94044088833579
 30
0.0
 11
20.05760220022833
 21
45.94044088833579
 31
0.0
  0
TEXT
 62
7
  8
DIMENSIONS
 10
22.50760220022833
 20
25.700945951516527
 30
0.0
 40
2.1
  1
40
 50
90.0
  7
ISOCPEUR
 72
1
 73
2
 11
22.50760220022833
 21
25.700945951516527
 31
0.0
  0
INSERT
  8
DIMENSIONS
  2
DIMTICK_ARROW
 10
23.75760220022833
 20
5.4614510146972615
 30
0.0
 41
8.0
 42
8.0
 50
90.0
  0
INSERT
  8
DIMENSIONS
  2
DIMTICK_ARROW
 10
23.75760220022833
 20
45.94044088833579
 30
0.0
 41
8.0
 42
8.0
 50
270.0
  0
LINE
 62
7
  8
DIMENSIONS
 10
23.75760220022833
 20
5.4614510146972615
 30
0.0
 11
23.75760220022833
 21
45.94044088833579
 31
0.0
  0
LINE
 62
5
  8
DIMENSIONS
 10
23.75760220022833
 20
5.4614510146972615
 30
0.0
 11
20.05760220022833
 21
5.4614510146972615
 31
0.0
  0
LINE
 62
5
  8
DIMENSIONS
 10
23.75760220022833
 20
45.94044088833579
 30
0.0
 11
20.05760220022833
 21
45.94044088833579
 31
0.0
  0
TEXT
 62
7
  8
DIMENSIONS
 10
22.50760220022833
 20
25.700945951516527
 30
0.0
 40
2.1
  1
40
 50
90.0
  7
ISOCPEUR
 72
1
 73
2
 11
22.50760220022833
 21
25.700945951516527
 31
0.0
  0
INSERT
  8
DIMENSIONS
  2
DIMTICK_ARROW
 10
23.75760220022833
 20
5.4614510146972615
 30
0.0
 41
8.0
 42
8.0
 50
90.0
  0
INSERT
  8
DIMENSIONS
  2
DIMTICK_ARROW
 10
23.75760220022833
 20
45.94044088833579
 30
0.0
 41
8.0
 42
8.0
 50
270.0
  0
LINE
 62
7
  8
DIMENSIONS
 10
23.75760220022833
 20
5.4614510146972615
 30
0.0
 11
23.75760220022833
 21
45.94044088833579
 31
0.0
  0
LINE
 62
5
  8
DIMENSIONS
 10
23.75760220022833
 20
5.4614510146972615
 30
0.0
 11
20.05760220022833
 21
5.4614510146972615
 31
0.0
  0
LINE
 62
5
  8
DIMENSIONS
 10
23.75760220022833
 20
45.94044088833579
 30
0.0
 11
20.05760220022833
 21
45.94044088833579
 31
0.0
  0
TEXT
 62
7
  8
DIMENSIONS
 10
22.50760220022833
 20
25.700945951516527
 30
0.0
 40
2.1
  1
40
 50
90.0
  7
ISOCPEUR
 72
1
 73
2
 11
22.50760220022833
 21
25.700945951516527
 31
0.0
  0
INSERT
  8
DIMENSIONS
  2
DIMTICK_ARROW
 10
23.75760220022833
 20
5.4614510146972615
 30
0.0
 41
8.0
 42
8.0
 50
90.0
  0
INSERT
  8
DIMENSIONS
  2
DIMTICK_ARROW
 10
23.75760220022833
 20
45.94044088833579
 30
0.0
 41
8.0
 42
8.0
 50
270.0
  0
LINE
 62
7
  8
DIMENSIONS
 10
23.75760220022833
 20
5.4614510146972615
 30
0.0
 11
23.75760220022833
 21
45.94044088833579
 31
0.0
  0
LINE
 62
5
  8
DIMENSIONS
 10
23.75760220022833
 20
5.4614510146972615
 30
0.0
 11
20.05760220022833
 21
5.4614510146972615
 31
0.0
  0
LINE
 62
5
  8
DIMENSIONS
 10
23.75760220022833
 20
45.94044088833579
 30
0.0
 11
20.05760220022833
 21
45.94044088833579
 31
0.0
  0
TEXT
 62
7
  8
DIMENSIONS
 10
22.50760220022833
 20
25.700945951516527
 30
0.0
 40
2.1
  1
40
 50
90.0
  7
ISOCPEUR
 72
1
 73
2
 11
22.50760220022833
 21
25.700945951516527
 31
0.0
  0
INSERT
  8
DIMENSIONS
  2
DIMTICK_ARROW
 10
23.75760220022833
 20
5.4614510146972615
 30
0.0
 41
8.0
 42
8.0
 50
90.0
  0
INSERT
  8
DIMENSIONS
  2
DIMTICK_ARROW
 10
23.75760220022833
 20
45.94044088833579
 30
0.0
 41
8.0
 42
8.0
 50
270.0
  0
LINE
 62
7
  8
DIMENSIONS
 10
23.75760220022833
 20
5.4614510146972615
 30
0.0
 11
23.75760220022833
 21
45.94044088833579
 31
0.0
  0
LINE
 62
5
  8
DIMENSIONS
 10
23.75760220022833
 20
5.4614510146972615
 30
0.0
 11
20.05760220022833
 21
5.4614510146972615
 31
0.0
  0
LINE
 62
5
  8
DIMENSIONS
 10
23.75760220022833
 20
45.94044088833579
 30
0.0
 11
20.05760220022833
 21
45.94044088833579
 31
0.0
  0
TEXT
 62
7
  8
DIMENSIONS
 10
22.50760220022833
 20
25.700945951516527
 30
0.0
 40
2.1
  1
40
 50
90.0
  7
ISOCPEUR
 72
1
 73
2
 11
22.50760220022833
 21
25.700945951516527
 31
0.0
  0
INSERT
  8
DIMENSIONS
  2
DIMTICK_ARROW
 10
23.75760220022833
 20
5.4614510146972615
 30
0.0
 41
8.0
 42
8.0
 50
90.0
  0
INSERT
  8
DIMENSIONS
  2
DIMTICK_ARROW
 10
23.75760220022833
 20
45.94044088833579
 30
0.0
 41
8.0
 42
8.0
 50
270.0
  0
LINE
 62
7
  8
DIMENSIONS
 10
23.75760220022833
 20
5.4614510146972615
 30
0.0
 11
23.75760220022833
 21
45.94044088833579
 31
0.0
  0
LINE
 62
5
  8
DIMENSIONS
 10
23.75760220022833
 20
5.4614510146972615
 30
0.0
 11
20.05760220022833
 21
5.4614510146972615
 31
0.0
  0
LINE
 62
5
  8
DIMENSIONS
 10
23.75760220022833
 20
45.94044088833579
 30
0.0
 11
20.05760220022833
 21
45.94044088833579
 31
0.0
  0
TEXT
 62
7
  8
DIMENSIONS
 10
22.50760220022833
 20
25.700945951516527
 30
0.0
 40
2.1
  1
40
 50
90.0
  7
ISOCPEUR
 72
1
 73
2
 11
22.50760220022833
 21
25.700945951516527
 31
0.0
  0
INSERT
  8
DIMENSIONS
  2
DIMTICK_ARROW
 10
23.75760220022833
 20
5.4614510146972615
 30
0.0
 41
8.0
 42
8.0
 50
90.0
  0
INSERT
  8
DIMENSIONS
  2
DIMTICK_ARROW
 10
23.75760220022833
 20
45.94044088833579
 30
0.0
 41
8.0
 42
8.0
 50
270.0
  0
LINE
 62
7
  8
DIMENSIONS
 10
23.75760220022833
 20
5.4614510146972615
 30
0.0
 11
23.75760220022833
 21
45.94044088833579
 31
0.0
  0
LINE
 62
5
  8
DIMENSIONS
 10
23.75760220022833
 20
5.4614510146972615
 30
0.0
 11
20.05760220022833
 21
5.4614510146972615
 31
0.0
  0
LINE
 62
5
  8
DIMENSIONS
 10
23.75760220022833
 20
45.94044088833579
 30
0.0
 11
20.05760220022833
 21
45.94044088833579
 31
0.0
  0
TEXT
 62
7
  8
DIMENSIONS
 10
22.50760220022833
 20
25.700945951516527
 30
0.0
 40
2.1
  1
40
 50
90.0
  7
ISOCPEUR
 72
1
 73
2
 11
22.50760220022833
 21
25.700945951516527
 31
0.0
  0
INSERT
  8
DIMENSIONS
  2
DIMTICK_ARROW
 10
23.75760220022833
 20
5.4614510146972615
 30
0.0
 41
8.0
 42
8.0
 50
90.0
  0
INSERT
  8
DIMENSIONS
  2
DIMTICK_ARROW
 10
23.75760220022833
 20
45.94044088833579
 30
0.0
 41
8.0
 42
8.0
 50
270.0
  0
LINE
 62
7
  8
DIMENSIONS
 10
23.75760220022833
 20
5.4614510146972615
 30
0.0
 11
23.75760220022833
 21
45.94044088833579
 31
0.0
  0
LINE
 62
5
  8
DIMENSIONS
 10
23.75760220022833
 20
5.4614510146972615
 30
0.0
 11
20.05760220022833
 21
5.4614510146972615
 31
0.0
  0
LINE
 62
5
  8
DIMENSIONS
 10
23.75760220022833
 20
45.94044088833579
 30
0.0
 11
20.05760220022833
 21
45.94044088833579
 31
0.0
  0
TEXT
 62
7
  8
DIMENSIONS
 10
22.50760220022833
 20
25.700945951516527
 30
0.0
 40
2.1
  1
40
 50
90.0
  7
ISOCPEUR
 72
1
 73
2
 11
22.50760220022833
 21
25.700945951516527
 31
0.0
  0
INSERT
  8
DIMENSIONS
  2
DIMTICK_ARROW
 10
23.75760220022833
 20
5.4614510146972615
 30
0.0
 41
8.0
 42
8.0
 50
90.0
  0
INSERT
  8
DIMENSIONS
  2
DIMTICK_ARROW
 10
23.75760220022833
 20
45.94044088833579
 30
0.0
 41
8.0
 42
8.0
 50
270.0
  0
LINE
 62
7
  8
DIMENSIONS
 10
23.75760220022833
 20
5.4614510146972615
 30
0.0
 11
23.75760220022833
 21
45.94044088833579
 31
0.0
  0
LINE
 62
5
  8
DIMENSIONS
 10
23.75760220022833
 20
5.4614510146972615
 30
0.0
 11
20.05760220022833
 21
5.4614510146972615
 31
0.0
  0
LINE
 62
5
  8
DIMENSIONS
 10
23.75760220022833
 20
45.94044088833579
 30
0.0
 11
20.05760220022833
 21
45.94044088833579
 31
0.0
  0
TEXT
 62
7
  8
DIMENSIONS
 10
22.50760220022833
 20
25.700945951516527
 30
0.0
 40
2.1
  1
40
 50
90.0
  7
ISOCPEUR
 72
1
 73
2
 11
22.50760220022833
 21
25.700945951516527
 31
0.0
  0
INSERT
  8
DIMENSIONS
  2
DIMTICK_ARROW
 10
23.75760220022833
 20
5.4614510146972615
 30
0.0
 41
8.0
 42
8.0
 50
90.0
  0
INSERT
  8
DIMENSIONS
  2
DIMTICK_ARROW
 10
23.75760220022833
 20
45.94044088833579
 30
0.0
 41
8.0
 42
8.0
 50
270.0
  0
LINE
 62
7
  8
DIMENSIONS
 10
23.75760220022833
 20
5.4614510146972615
 30
0.0
 11
23.75760220022833
 21
45.94044088833579
 31
0.0
  0
LINE
 62
5
  8
DIMENSIONS
 10
23.75760220022833
 20
5.4614510146972615
 30
0.0
 11
20.05760220022833
 21
5.4614510146972615
 31
0.0
  0
LINE
 62
5
  8
DIMENSIONS
 10
23.75760220022833
 20
45.94044088833579
 30
0.0
 11
20.05760220022833
 21
45.94044088833579
 31
0.0
  0
TEXT
 62
7
  8
DIMENSIONS
 10
22.50760220022833
 20
25.700945951516527
 30
0.0
 40
2.1
  1
40
 50
90.0
  7
ISOCPEUR
 72
1
 73
2
 11
22.50760220022833
 21
25.700945951516527
 31
0.0
  0
INSERT
  8
DIMENSIONS
  2
DIMTICK_ARROW
 10
23.75760220022833
 20
5.4614510146972615
 30
0.0
 41
8.0
 42
8.0
 50
90.0
  0
INSERT
  8
DIMENSIONS
  2
DIMTICK_ARROW
 10
23.75760220022833
 20
45.94044088833579
 30
0.0
 41
8.0
 42
8.0
 50
270.0
  0
LINE
 62
7
  8
DIMENSIONS
 10
23.75760220022833
 20
5.4614510146972615
 30
0.0
 11
23.75760220022833
 21
45.94044088833579
 31
0.0
  0
LINE
 62
5
  8
DIMENSIONS
 10
23.75760220022833
 20
5.4614510146972615
 30
0.0
 11
20.05760220022833
 21
5.4614510146972615
 31
0.0
  0
LINE
 62
5
  8
DIMENSIONS
 10
23.75760220022833
 20
45.94044088833579
 30
0.0
 11
20.05760220022833
 21
45.94044088833579
 31
0.0
  0
TEXT
 62
7
  8
DIMENSIONS
 10
22.50760220022833
 20
25.700945951516527
 30
0.0
 40
2.1
  1
40
 50
90.0
  7
ISOCPEUR
 72
1
 73
2
 11
22.50760220022833
 21
25.700945951516527
 31
0.0
  0
INSERT
  8
DIMENSIONS
  2
DIMTICK_ARROW
 10
23.75760220022833
 20
5.4614510146972615
 30
0.0
 41
8.0
 42
8.0
 50
90.0
  0
INSERT
  8
DIMENSIONS
  2
DIMTICK_ARROW
 10
23.75760220022833
 20
45.94044088833579
 30
0.0
 41
8.0
 42
8.0
 50
270.0
  0
LINE
 62
3
  8
0
 10
6.746498312273088
 20
5.4614510146972615
 30
0.0
 11
6.746498312273088
 21
45.94044088833579
 31
0.0
  0
LINE
 62
3
  8
0
 10
0.0
 20
0.0
 30
0.0
 11
0.0
 21
14.456782097728047
 31
0.0
  0
LINE
 62
3
  8
0
 10
19.75760220022833
 20
5.4614510146972615
 30
0.0
 11
19.75760220022833
 21
45.94044088833579
 31
0.0
  0
LINE
 62
7
  8
DIMENSIONS
 10
23.75760220022833
 20
5.4614510146972615
 30
0.0
 11
23.75760220022833
 21
45.94044088833579
 31
0.0
  0
LINE
 62
5
  8
DIMENSIONS
 10
23.75760220022833
 20
5.4614510146972615
 30
0.0
 11
20.05760220022833
 21
5.4614510146972615
 31
0.0
  0
LINE
 62
5
  8
DIMENSIONS
 10
23.75760220022833
 20
45.94044088833579
 30
0.0
 11
20.05760220022833
 21
45.94044088833579
 31
0.0
  0
TEXT
 62
7
  8
DIMENSIONS
 10
22.50760220022833
 20
25.700945951516527
 30
0.0
 40
2.1
  1
40
 50
90.0
  7
ISOCPEUR
 72
1
 73
2
 11
22.50760220022833
 21
25.700945951516527
 31
0.0
  0
INSERT
  8
DIMENSIONS
  2
DIMTICK_ARROW
 10
23.75760220022833
 20
5.4614510146972615
 30
0.0
 41
8.0
 42
8.0
 50
90.0
  0
INSERT
  8
DIMENSIONS
  2
DIMTICK_ARROW
 10
23.75760220022833
 20
45.94044088833579
 30
0.0
 41
8.0
 42
8.0
 50
270.0
  0
LINE
 62
7
  8
DIMENSIONS
 10
23.75760220022833
 20
5.4614510146972615
 30
0.0
 11
23.75760220022833
 21
45.94044088833579
 31
0.0
  0
LINE
 62
5
  8
DIMENSIONS
 10
23.75760220022833
 20
5.4614510146972615
 30
0.0
 11
20.05760220022833
 21
5.4614510146972615
 31
0.0
  0
LINE
 62
5
  8
DIMENSIONS
 10
23.75760220022833
 20
45.94044088833579
 30
0.0
 11
20.05760220022833
 21
45.94044088833579
 31
0.0
  0
TEXT
 62
7
  8
DIMENSIONS
 10
22.50760220022833
 20
25.700945951516527
 30
0.0
 40
2.1
  1
40
 50
90.0
  7
ISOCPEUR
 72
1
 73
2
 11
22.50760220022833
 21
25.700945951516527
 31
0.0
  0
INSERT
  8
DIMENSIONS
  2
DIMTICK_ARROW
 10
23.75760220022833
 20
5.4614510146972615
 30
0.0
 41
8.0
 42
8.0
 50
90.0
  0
INSERT
  8
DIMENSIONS
  2
DIMTICK_ARROW
 10
23.75760220022833
 20
45.94044088833579
 30
0.0
 41
8.0
 42
8.0
 50
270.0
  0
LINE
 62
7
  8
DIMENSIONS
 10
23.75760220022833
 20
5.4614510146972615
 30
0.0
 11
23.75760220022833
 21
45.94044088833579
 31
0.0
  0
LINE
 62
5
  8
DIMENSIONS
 10
23.75760220022833
 20
5.4614510146972615
 30
0.0
 11
20.05760220022833
 21
5.4614510146972615
 31
0.0
  0
LINE
 62
5
  8
DIMENSIONS
 10
23.75760220022833
 20
45.94044088833579
 30
0.0
 11
20.05760220022833
 21
45.94044088833579
 31
0.0
  0
TEXT
 62
7
  8
DIMENSIONS
 10
22.50760220022833
 20
25.700945951516527
 30
0.0
 40
2.1
  1
40
 50
90.0
  7
ISOCPEUR
 72
1
 73
2
 11
22.50760220022833
 21
25.700945951516527
 31
0.0
  0
INSERT
  8
DIMENSIONS
  2
DIMTICK_ARROW
 10
23.75760220022833
 20
5.4614510146972615
 30
0.0
 41
8.0
 42
8.0
 50
90.0
  0
INSERT
  8
DIMENSIONS
  2
DIMTICK_ARROW
 10
23.75760220022833
 20
45.94044088833579
 30
0.0
 41
8.0
 42
8.0
 50
270.0
  0
LINE
 62
7
  8
DIMENSIONS
 10
23.75760220022833
 20
5.4614510146972615
 30
0.0
 11
23.75760220022833
 21
45.94044088833579
 31
0.0
  0
LINE
 62
5
  8
DIMENSIONS
 10
23.75760220022833
 20
5.4614510146972615
 30
0.0
 11
20.05760220022833
 21
5.4614510146972615
 31
0.0
  0
LINE
 62
5
  8
DIMENSIONS
 10
23.75760220022833
 20
45.94044088833579
 30
0.0
 11
20.05760220022833
 21
45.94044088833579
 31
0.0
  0
TEXT
 62
7
  8
DIMENSIONS
 10
22.50760220022833
 20
25.700945951516527
 30
0.0
 40
2.1
  1
40
 50
90.0
  7
ISOCPEUR
 72
1
 73
2
 11
22.50760220022833
 21
25.700945951516527
 31
0.0
  0
INSERT
  8
DIMENSIONS
  2
DIMTICK_ARROW
 10
23.75760220022833
 20
5.4614510146972615
 30
0.0
 41
8.0
 42
8.0
 50
90.0
  0
INSERT
  8
DIMENSIONS
  2
DIMTICK_ARROW
 10
23.75760220022833
 20
45.94044088833579
 30
0.0
 41
8.0
 42
8.0
 50
270.0
  0
LINE
 62
7
  8
DIMENSIONS
 10
23.75760220022833
 20
5.4614510146972615
 30
0.0
 11
23.75760220022833
 21
45.94044088833579
 31
0.0
  0
LINE
 62
5
  8
DIMENSIONS
 10
23.75760220022833
 20
5.4614510146972615
 30
0.0
 11
20.05760220022833
 21
5.4614510146972615
 31
0.0
  0
LINE
 62
5
  8
DIMENSIONS
 10
23.75760220022833
 20
45.94044088833579
 30
0.0
 11
20.05760220022833
 21
45.94044088833579
 31
0.0
  0
TEXT
 62
7
  8
DIMENSIONS
 10
22.50760220022833
 20
25.700945951516527
 30
0.0
 40
2.1
  1
40
 50
90.0
  7
ISOCPEUR
 72
1
 73
2
 11
22.50760220022833
 21
25.700945951516527
 31
0.0
  0
INSERT
  8
DIMENSIONS
  2
DIMTICK_ARROW
 10
23.75760220022833
 20
5.4614510146972615
 30
0.0
 41
8.0
 42
8.0
 50
90.0
  0
INSERT
  8
DIMENSIONS
  2
DIMTICK_ARROW
 10
23.75760220022833
 20
45.94044088833579
 30
0.0
 41
8.0
 42
8.0
 50
270.0
  0
LINE
 62
7
  8
DIMENSIONS
 10
23.75760220022833
 20
5.4614510146972615
 30
0.0
 11
23.75760220022833
 21
45.94044088833579
 31
0.0
  0
LINE
 62
5
  8
DIMENSIONS
 10
23.75760220022833
 20
5.4614510146972615
 30
0.0
 11
20.05760220022833
 21
5.4614510146972615
 31
0.0
  0
LINE
 62
5
  8
DIMENSIONS
 10
23.75760220022833
 20
45.94044088833579
 30
0.0
 11
20.05760220022833
 21
45.94044088833579
 31
0.0
  0
TEXT
 62
7
  8
DIMENSIONS
 10
22.50760220022833
 20
25.700945951516527
 30
0.0
 40
2.1
  1
40
 50
90.0
  7
ISOCPEUR
 72
1
 73
2
 11
22.50760220022833
 21
25.700945951516527
 31
0.0
  0
INSERT
  8
DIMENSIONS
  2
DIMTICK_ARROW
 10
23.75760220022833
 20
5.4614510146972615
 30
0.0
 41
8.0
 42
8.0
 50
90.0
  0
INSERT
  8
DIMENSIONS
  2
DIMTICK_ARROW
 10
23.75760220022833
 20
45.94044088833579
 30
0.0
 41
8.0
 42
8.0
 50
270.0
  0
LINE
 62
7
  8
DIMENSIONS
 10
23.75760220022833
 20
5.4614510146972615
 30
0.0
 11
23.75760220022833
 21
45.94044088833579
 31
0.0
  0
LINE
 62
5
  8
DIMENSIONS
 10
23.75760220022833
 20
5.4614510146972615
 30
0.0
 11
20.05760220022833
 21
5.4614510146972615
 31
0.0
  0
LINE
 62
5
  8
DIMENSIONS
 10
23.75760220022833
 20
45.94044088833579
 30
0.0
 11
20.05760220022833
 21
45.94044088833579
 31
0.0
  0
TEXT
 62
7
  8
DIMENSIONS
 10
22.50760220022833
 20
25.700945951516527
 30
0.0
 40
2.1
  1
40
 50
90.0
  7
ISOCPEUR
 72
1
 73
2
 11
22.50760220022833
 21
25.700945951516527
 31
0.0
  0
INSERT
  8
DIMENSIONS
  2
DIMTICK_ARROW
 10
23.75760220022833
 20
5.4614510146972615
 30
0.0
 41
8.0
 42
8.0
 50
90.0
  0
INSERT
  8
DIMENSIONS
  2
DIMTICK_ARROW
 10
23.75760220022833
 20
45.94044088833579
 30
0.0
 41
8.0
 42
8.0
 50
270.0
  0
LINE
 62
7
  8
DIMENSIONS
 10
23.75760220022833
 20
5.4614510146972615
 30
0.0
 11
23.75760220022833
 21
45.94044088833579
 31
0.0
  0
LINE
 62
5
  8
DIMENSIONS
 10
23.75760220022833
 20
5.4614510146972615
 30
0.0
 11
20.05760220022833
 21
5.4614510146972615
 31
0.0
  0
LINE
 62
5
  8
DIMENSIONS
 10
23.75760220022833
 20
45.94044088833579
 30
0.0
 11
20.05760220022833
 21
45.94044088833579
 31
0.0
  0
TEXT
 62
7
  8
DIMENSIONS
 10
22.50760220022833
 20
25.700945951516527
 30
0.0
 40
2.1
  1
40
 50
90.0
  7
ISOCPEUR
 72
1
 73
2
 11
22.50760220022833
 21
25.700945951516527
 31
0.0
  0
INSERT
  8
DIMENSIONS
  2
DIMTICK_ARROW
 10
23.75760220022833
 20
5.4614510146972615
 30
0.0
 41
8.0
 42
8.0
 50
90.0
  0
INSERT
  8
DIMENSIONS
  2
DIMTICK_ARROW
 10
23.75760220022833
 20
45.94044088833579
 30
0.0
 41
8.0
 42
8.0
 50
270.0
  0
LINE
 62
7
  8
DIMENSIONS
 10
23.75760220022833
 20
5.4614510146972615
 30
0.0
 11
23.75760220022833
 21
45.94044088833579
 31
0.0
  0
LINE
 62
5
  8
DIMENSIONS
 10
23.75760220022833
 20
5.4614510146972615
 30
0.0
 11
20.05760220022833
 21
5.4614510146972615
 31
0.0
  0
LINE
 62
5
  8
DIMENSIONS
 10
23.75760220022833
 20
45.94044088833579
 30
0.0
 11
20.05760220022833
 21
45.94044088833579
 31
0.0
  0
TEXT
 62
7
  8
DIMENSIONS
 10
22.50760220022833
 20
25.700945951516527
 30
0.0
 40
2.1
  1
40
 50
90.0
  7
ISOCPEUR
 72
1
 73
2
 11
22.50760220022833
 21
25.700945951516527
 31
0.0
  0
INSERT
  8
DIMENSIONS
  2
DIMTICK_ARROW
 10
23.75760220022833
 20
5.4614510146972615
 30
0.0
 41
8.0
 42
8.0
 50
90.0
  0
INSERT
  8
DIMENSIONS
  2
DIMTICK_ARROW
 10
23.75760220022833
 20
45.94044088833579
 30
0.0
 41
8.0
 42
8.0
 50
270.0
  0
LINE
 62
7
  8
DIMENSIONS
 10
23.75760220022833
 20
5.4614510146972615
 30
0.0
 11
23.75760220022833
 21
45.94044088833579
 31
0.0
  0
LINE
 62
5
  8
DIMENSIONS
 10
23.75760220022833
 20
5.4614510146972615
 30
0.0
 11
20.05760220022833
 21
5.4614510146972615
 31
0.0
  0
LINE
 62
5
  8
DIMENSIONS
 10
23.75760220022833
 20
45.94044088833579
 30
0.0
 11
20.05760220022833
 21
45.94044088833579
 31
0.0
  0
TEXT
 62
7
  8
DIMENSIONS
 10
22.50760220022833
 20
25.700945951516527
 30
0.0
 40
2.1
  1
40
 50
90.0
  7
ISOCPEUR
 72
1
 73
2
 11
22.50760220022833
 21
25.700945951516527
 31
0.0
  0
INSERT
  8
DIMENSIONS
  2
DIMTICK_ARROW
 10
23.75760220022833
 20
5.4614510146972615
 30
0.0
 41
8.0
 42
8.0
 50
90.0
  0
INSERT
  8
DIMENSIONS
  2
DIMTICK_ARROW
 10
23.75760220022833
 20
45.94044088833579
 30
0.0
 41
8.0
 42
8.0
 50
270.0
  0
LINE
 62
7
  8
DIMENSIONS
 10
23.75760220022833
 20
5.4614510146972615
 30
0.0
 11
23.75760220022833
 21
45.94044088833579
 31
0.0
  0
LINE
 62
5
  8
DIMENSIONS
 10
23.75760220022833
 20
5.4614510146972615
 30
0.0
 11
20.05760220022833
 21
5.4614510146972615
 31
0.0
  0
LINE
 62
5
  8
DIMENSIONS
 10
23.75760220022833
 20
45.94044088833579
 30
0.0
 11
20.05760220022833
 21
45.94044088833579
 31
0.0
  0
TEXT
 62
7
  8
DIMENSIONS
 10
22.50760220022833
 20
25.700945951516527
 30
0.0
 40
2.1
  1
40
 50
90.0
  7
ISOCPEUR
 72
1
 73
2
 11
22.50760220022833
 21
25.700945951516527
 31
0.0
  0
INSERT
  8
DIMENSIONS
  2
DIMTICK_ARROW
 10
23.75760220022833
 20
5.4614510146972615
 30
0.0
 41
8.0
 42
8.0
 50
90.0
  0
INSERT
  8
DIMENSIONS
  2
DIMTICK_ARROW
 10
23.75760220022833
 20
45.94044088833579
 30
0.0
 41
8.0
 42
8.0
 50
270.0
  0
LINE
 62
7
  8
DIMENSIONS
 10
23.75760220022833
 20
5.4614510146972615
 30
0.0
 11
23.75760220022833
 21
45.94044088833579
 31
0.0
  0
LINE
 62
5
  8
DIMENSIONS
 10
23.75760220022833
 20
5.4614510146972615
 30
0.0
 11
20.05760220022833
 21
5.4614510146972615
 31
0.0
  0
LINE
 62
5
  8
DIMENSIONS
 10
23.75760220022833
 20
45.94044088833579
 30
0.0
 11
20.05760220022833
 21
45.94044088833579
 31
0.0
  0
TEXT
 62
7
  8
DIMENSIONS
 10
22.50760220022833
 20
25.700945951516527
 30
0.0
 40
2.1
  1
40
 50
90.0
  7
ISOCPEUR
 72
1
 73
2
 11
22.50760220022833
 21
25.700945951516527
 31
0.0
  0
INSERT
  8
DIMENSIONS
  2
DIMTICK_ARROW
 10
23.75760220022833
 20
5.4614510146972615
 30
0.0
 41
8.0
 42
8.0
 50
90.0
  0
INSERT
  8
DIMENSIONS
  2
DIMTICK_ARROW
 10
23.75760220022833
 20
45.94044088833579
 30
0.0
 41
8.0
 42
8.0
 50
270.0
  0
LINE
 62
7
  8
DIMENSIONS
 10
23.75760220022833
 20
5.4614510146972615
 30
0.0
 11
23.75760220022833
 21
45.94044088833579
 31
0.0
  0
LINE
 62
5
  8
DIMENSIONS
 10
23.75760220022833
 20
5.4614510146972615
 30
0.0
 11
20.05760220022833
 21
5.4614510146972615
 31
0.0
  0
LINE
 62
5
  8
DIMENSIONS
 10
23.75760220022833
 20
45.94044088833579
 30
0.0
 11
20.05760220022833
 21
45.94044088833579
 31
0.0
  0
TEXT
 62
7
  8
DIMENSIONS
 10
22.50760220022833
 20
25.700945951516527
 30
0.0
 40
2.1
  1
40
 50
90.0
  7
ISOCPEUR
 72
1
 73
2
 11
22.50760220022833
 21
25.700945951516527
 31
0.0
  0
INSERT
  8
DIMENSIONS
  2
DIMTICK_ARROW
 10
23.75760220022833
 20
5.4614510146972615
 30
0.0
 41
8.0
 42
8.0
 50
90.0
  0
INSERT
  8
DIMENSIONS
  2
DIMTICK_ARROW
 10
23.75760220022833
 20
45.94044088833579
 30
0.0
 41
8.0
 42
8.0
 50
270.0
  0
LINE
 62
7
  8
DIMENSIONS
 10
23.75760220022833
 20
5.4614510146972615
 30
0.0
 11
23.75760220022833
 21
45.94044088833579
 31
0.0
  0
LINE
 62
5
  8
DIMENSIONS
 10
23.75760220022833
 20
5.4614510146972615
 30
0.0
 11
20.05760220022833
 21
5.4614510146972615
 31
0.0
  0
LINE
 62
5
  8
DIMENSIONS
 10
23.75760220022833
 20
45.94044088833579
 30
0.0
 11
20.05760220022833
 21
45.94044088833579
 31
0.0
  0
TEXT
 62
7
  8
DIMENSIONS
 10
22.50760220022833
 20
25.700945951516527
 30
0.0
 40
2.1
  1
40
 50
90.0
  7
ISOCPEUR
 72
1
 73
2
 11
22.50760220022833
 21
25.700945951516527
 31
0.0
  0
INSERT
  8
DIMENSIONS
  2
DIMTICK_ARROW
 10
23.75760220022833
 20
5.4614510146972615
 30
0.0
 41
8.0
 42
8.0
 50
90.0
  0
INSERT
  8
DIMENSIONS
  2
DIMTICK_ARROW
 10
23.75760220022833
 20
45.94044088833579
 30
0.0
 41
8.0
 42
8.0
 50
270.0
  0
LINE
 62
7
  8
DIMENSIONS
 10
23.75760220022833
 20
5.4614510146972615
 30
0.0
 11
23.75760220022833
 21
45.94044088833579
 31
0.0
  0
LINE
 62
5
  8
DIMENSIONS
 10
23.75760220022833
 20
5.4614510146972615
 30
0.0
 11
20.05760220022833
 21
5.4614510146972615
 31
0.0
  0
LINE
 62
5
  8
DIMENSIONS
 10
23.75760220022833
 20
45.94044088833579
 30
0.0
 11
20.05760220022833
 21
45.94044088833579
 31
0.0
  0
TEXT
 62
7
  8
DIMENSIONS
 10
22.50760220022833
 20
25.700945951516527
 30
0.0
 40
2.1
  1
40
 50
90.0
  7
ISOCPEUR
 72
1
 73
2
 11
22.50760220022833
 21
25.700945951516527
 31
0.0
  0
INSERT
  8
DIMENSIONS
  2
DIMTICK_ARROW
 10
23.75760220022833
 20
5.4614510146972615
 30
0.0
 41
8.0
 42
8.0
 50
90.0
  0
INSERT
  8
DIMENSIONS
  2
DIMTICK_ARROW
 10
23.75760220022833
 20
45.94044088833579
 30
0.0
 41
8.0
 42
8.0
 50
270.0
  0
LINE
 62
7
  8
DIMENSIONS
 10
23.75760220022833
 20
5.4614510146972615
 30
0.0
 11
23.75760220022833
 21
45.94044088833579
 31
0.0
  0
LINE
 62
5
  8
DIMENSIONS
 10
23.75760220022833
 20
5.4614510146972615
 30
0.0
 11
20.05760220022833
 21
5.4614510146972615
 31
0.0
  0
LINE
 62
5
  8
DIMENSIONS
 10
23.75760220022833
 20
45.94044088833579
 30
0.0
 11
20.05760220022833
 21
45.94044088833579
 31
0.0
  0
TEXT
 62
7
  8
DIMENSIONS
 10
22.50760220022833
 20
25.700945951516527
 30
0.0
 40
2.1
  1
40
 50
90.0
  7
ISOCPEUR
 72
1
 73
2
 11
22.50760220022833
 21
25.700945951516527
 31
0.0
  0
INSERT
  8
DIMENSIONS
  2
DIMTICK_ARROW
 10
23.75760220022833
 20
5.4614510146972615
 30
0.0
 41
8.0
 42
8.0
 50
90.0
  0
INSERT
  8
DIMENSIONS
  2
DIMTICK_ARROW
 10
23.75760220022833
 20
45.94044088833579
 30
0.0
 41
8.0
 42
8.0
 50
270.0
  0
LINE
 62
7
  8
DIMENSIONS
 10
23.75760220022833
 20
5.4614510146972615
 30
0.0
 11
23.75760220022833
 21
45.94044088833579
 31
0.0
  0
LINE
 62
5
  8
DIMENSIONS
 10
23.75760220022833
 20
5.4614510146972615
 30
0.0
 11
20.05760220022833
 21
5.4614510146972615
 31
0.0
  0
LINE
 62
5
  8
DIMENSIONS
 10
23.75760220022833
 20
45.94044088833579
 30
0.0
 11
20.05760220022833
 21
45.94044088833579
 31
0.0
  0
TEXT
 62
7
  8
DIMENSIONS
 10
22.50760220022833
 20
25.700945951516527
 30
0.0
 40
2.1
  1
40
 50
90.0
  7
ISOCPEUR
 72
1
 73
2
 11
22.50760220022833
 21
25.700945951516527
 31
0.0
  0
INSERT
  8
DIMENSIONS
  2
DIMTICK_ARROW
 10
23.75760220022833
 20
5.4614510146972615
 30
0.0
 41
8.0
 42
8.0
 50
90.0
  0
INSERT
  8
DIMENSIONS
  2
DIMTICK_ARROW
 10
23.75760220022833
 20
45.94044088833579
 30
0.0
 41
8.0
 42
8.0
 50
270.0
  0
LINE
 62
7
  8
DIMENSIONS
 10
23.75760220022833
 20
5.4614510146972615
 30
0.0
 11
23.75760220022833
 21
45.94044088833579
 31
0.0
  0
LINE
 62
5
  8
DIMENSIONS
 10
23.75760220022833
 20
5.4614510146972615
 30
0.0
 11
20.05760220022833
 21
5.4614510146972615
 31
0.0
  0
LINE
 62
5
  8
DIMENSIONS
 10
23.75760220022833
 20
45.94044088833579
 30
0.0
 11
20.05760220022833
 21
45.94044088833579
 31
0.0
  0
TEXT
 62
7
  8
DIMENSIONS
 10
22.50760220022833
 20
25.700945951516527
 30
0.0
 40
2.1
  1
40
 50
90.0
  7
ISOCPEUR
 72
1
 73
2
 11
22.50760220022833
 21
25.700945951516527
 31
0.0
  0
INSERT
  8
DIMENSIONS
  2
DIMTICK_ARROW
 10
23.75760220022833
 20
5.4614510146972615
 30
0.0
 41
8.0
 42
8.0
 50
90.0
  0
INSERT
  8
DIMENSIONS
  2
DIMTICK_ARROW
 10
23.75760220022833
 20
45.94044088833579
 30
0.0
 41
8.0
 42
8.0
 50
270.0
  0
LINE
 62
7
  8
DIMENSIONS
 10
23.75760220022833
 20
5.4614510146972615
 30
0.0
 11
23.75760220022833
 21
45.94044088833579
 31
0.0
  0
LINE
 62
5
  8
DIMENSIONS
 10
23.75760220022833
 20
5.4614510146972615
 30
0.0
 11
20.05760220022833
 21
5.4614510146972615
 31
0.0
  0
LINE
 62
5
  8
DIMENSIONS
 10
23.75760220022833
 20
45.94044088833579
 30
0.0
 11
20.05760220022833
 21
45.94044088833579
 31
0.0
  0
TEXT
 62
7
  8
DIMENSIONS
 10
22.50760220022833
 20
25.700945951516527
 30
0.0
 40
2.1
  1
40
 50
90.0
  7
ISOCPEUR
 72
1
 73
2
 11
22.50760220022833
 21
25.700945951516527
 31
0.0
  0
INSERT
  8
DIMENSIONS
  2
DIMTICK_ARROW
 10
23.75760220022833
 20
5.4614510146972615
 30
0.0
 41
8.0
 42
8.0
 50
90.0
  0
INSERT
  8
DIMENSIONS
  2
DIMTICK_ARROW
 10
23.75760220022833
 20
45.94044088833579
 30
0.0
 41
8.0
 42
8.0
 50
270.0
  0
LINE
 62
3
  8
0
 10
0.0
 20
37.10574071750199
 30
0.0
 11
0.0
 21
51.72315372742701
 31
0.0
  0
LINE
 62
3
  8
0
 10
0.0
 20
0.0
 30
0.0
 11
0.0
 21
14.456782097728047
 31
0.0
  0
LINE
 62
7
  8
DIMENSIONS
 10
4.0
 20
-4.898587196589413e-16
 30
0.0
 11
4.0
 21
14.456782097728047
 31
0.0
  0
LINE
 62
5
  8
DIMENSIONS
 10
4.0
 20
-4.898587196589413e-16
 30
0.0
 11
0.3
 21
-3.6739403974420595e-17
 31
0.0
  0
LINE
 62
5
  8
DIMENSIONS
 10
4.0
 20
14.456782097728047
 30
0.0
 11
0.3
 21
14.456782097728047
 31
0.0
  0
TEXT
 62
7
  8
DIMENSIONS
 10
2.75
 20
7.228391048864023
 30
0.0
 40
2.1
  1
14
 50
90.0
  7
ISOCPEUR
 72
1
 73
2
 11
2.75
 21
7.228391048864023
 31
0.0
  0
INSERT
  8
DIMENSIONS
  2
DIMTICK_ARROW
 10
4.0
 20
-4.898587196589413e-16
 30
0.0
 41
8.0
 42
8.0
 50
90.0
  0
INSERT
  8
DIMENSIONS
  2
DIMTICK_ARROW
 10
4.0
 20
14.456782097728047
 30
0.0
 41
8.0
 42
8.0
 50
270.0
  0
LINE
 62
7
  8
DIMENSIONS
 10
4.0
 20
-4.898587196589413e-16
 30
0.0
 11
4.0
 21
14.456782097728047
 31
0.0
  0
LINE
 62
5
  8
DIMENSIONS
 10
4.0
 20
-4.898587196589413e-16
 30
0.0
 11
0.3
 21
-3.6739403974420595e-17
 31
0.0
  0
LINE
 62
5
  8
DIMENSIONS
 10
4.0
 20
14.456782097728047
 30
0.0
 11
0.3
 21
14.456782097728047
 31
0.0
  0
TEXT
 62
7
  8
DIMENSIONS
 10
2.75
 20
7.228391048864023
 30
0.0
 40
2.1
  1
14
 50
90.0
  7
ISOCPEUR
 72
1
 73
2
 11
2.75
 21
7.228391048864023
 31
0.0
  0
INSERT
  8
DIMENSIONS
  2
DIMTICK_ARROW
 10
4.0
 20
-4.898587196589413e-16
 30
0.0
 41
8.0
 42
8.0
 50
90.0
  0
INSERT
  8
DIMENSIONS
  2
DIMTICK_ARROW
 10
4.0
 20
14.456782097728047
 30
0.0
 41
8.0
 42
8.0
 50
270.0
  0
LINE
 62
7
  8
DIMENSIONS
 10
4.0
 20
-4.898587196589413e-16
 30
0.0
 11
4.0
 21
14.456782097728047
 31
0.0
  0
LINE
 62
5
  8
DIMENSIONS
 10
4.0
 20
-4.898587196589413e-16
 30
0.0
 11
0.3
 21
-3.6739403974420595e-17
 31
0.0
  0
LINE
 62
5
  8
DIMENSIONS
 10
4.0
 20
14.456782097728047
 30
0.0
 11
0.3
 21
14.456782097728047
 31
0.0
  0
TEXT
 62
7
  8
DIMENSIONS
 10
2.75
 20
7.228391048864023
 30
0.0
 40
2.1
  1
14
 50
90.0
  7
ISOCPEUR
 72
1
 73
2
 11
2.75
 21
7.228391048864023
 31
0.0
  0
INSERT
  8
DIMENSIONS
  2
DIMTICK_ARROW
 10
4.0
 20
-4.898587196589413e-16
 30
0.0
 41
8.0
 42
8.0
 50
90.0
  0
INSERT
  8
DIMENSIONS
  2
DIMTICK_ARROW
 10
4.0
 20
14.456782097728047
 30
0.0
 41
8.0
 42
8.0
 50
270.0
  0
LINE
 62
7
  8
DIMENSIONS
 10
4.0
 20
-4.898587196589413e-16
 30
0.0
 11
4.0
 21
14.456782097728047
 31
0.0
  0
LINE
 62
5
  8
DIMENSIONS
 10
4.0
 20
-4.898587196589413e-16
 30
0.0
 11
0.3
 21
-3.6739403974420595e-17
 31
0.0
  0
LINE
 62
5
  8
DIMENSIONS
 10
4.0
 20
14.456782097728047
 30
0.0
 11
0.3
 21
14.456782097728047
 31
0.0
  0
TEXT
 62
7
  8
DIMENSIONS
 10
2.75
 20
7.228391048864023
 30
0.0
 40
2.1
  1
14
 50
90.0
  7
ISOCPEUR
 72
1
 73
2
 11
2.75
 21
7.228391048864023
 31
0.0
  0
INSERT
  8
DIMENSIONS
  2
DIMTICK_ARROW
 10
4.0
 20
-4.898587196589413e-16
 30
0.0
 41
8.0
 42
8.0
 50
90.0
  0
INSERT
  8
DIMENSIONS
  2
DIMTICK_ARROW
 10
4.0
 20
14.456782097728047
 30
0.0
 41
8.0
 42
8.0
 50
270.0
  0
LINE
 62
7
  8
DIMENSIONS
 10
4.0
 20
-4.898587196589413e-16
 30
0.0
 11
4.0
 21
14.456782097728047
 31
0.0
  0
LINE
 62
5
  8
DIMENSIONS
 10
4.0
 20
-4.898587196589413e-16
 30
0.0
 11
0.3
 21
-3.6739403974420595e-17
 31
0.0
  0
LINE
 62
5
  8
DIMENSIONS
 10
4.0
 20
14.456782097728047
 30
0.0
 11
0.3
 21
14.456782097728047
 31
0.0
  0
TEXT
 62
7
  8
DIMENSIONS
 10
2.75
 20
7.228391048864023
 30
0.0
 40
2.1
  1
14
 50
90.0
  7
ISOCPEUR
 72
1
 73
2
 11
2.75
 21
7.228391048864023
 31
0.0
  0
INSERT
  8
DIMENSIONS
  2
DIMTICK_ARROW
 10
4.0
 20
-4.898587196589413e-16
 30
0.0
 41
8.0
 42
8.0
 50
90.0
  0
INSERT
  8
DIMENSIONS
  2
DIMTICK_ARROW
 10
4.0
 20
14.456782097728047
 30
0.0
 41
8.0
 42
8.0
 50
270.0
  0
LINE
 62
7
  8
DIMENSIONS
 10
4.0
 20
-4.898587196589413e-16
 30
0.0
 11
4.0
 21
14.456782097728047
 31
0.0
  0
LINE
 62
5
  8
DIMENSIONS
 10
4.0
 20
-4.898587196589413e-16
 30
0.0
 11
0.3
 21
-3.6739403974420595e-17
 31
0.0
  0
LINE
 62
5
  8
DIMENSIONS
 10
4.0
 20
14.456782097728047
 30
0.0
 11
0.3
 21
14.456782097728047
 31
0.0
  0
TEXT
 62
7
  8
DIMENSIONS
 10
2.75
 20
7.228391048864023
 30
0.0
 40
2.1
  1
14
 50
90.0
  7
ISOCPEUR
 72
1
 73
2
 11
2.75
 21
7.228391048864023
 31
0.0
  0
INSERT
  8
DIMENSIONS
  2
DIMTICK_ARROW
 10
4.0
 20
-4.898587196589413e-16
 30
0.0
 41
8.0
 42
8.0
 50
90.0
  0
INSERT
  8
DIMENSIONS
  2
DIMTICK_ARROW
 10
4.0
 20
14.456782097728047
 30
0.0
 41
8.0
 42
8.0
 50
270.0
  0
LINE
 62
7
  8
DIMENSIONS
 10
4.0
 20
-4.898587196589413e-16
 30
0.0
 11
4.0
 21
14.456782097728047
 31
0.0
  0
LINE
 62
5
  8
DIMENSIONS
 10
4.0
 20
-4.898587196589413e-16
 30
0.0
 11
0.3
 21
-3.6739403974420595e-17
 31
0.0
  0
LINE
 62
5
  8
DIMENSIONS
 10
4.0
 20
14.456782097728047
 30
0.0
 11
0.3
 21
14.456782097728047
 31
0.0
  0
TEXT
 62
7
  8
DIMENSIONS
 10
2.75
 20
7.228391048864023
 30
0.0
 40
2.1
  1
14
 50
90.0
  7
ISOCPEUR
 72
1
 73
2
 11
2.75
 21
7.228391048864023
 31
0.0
  0
INSERT
  8
DIMENSIONS
  2
DIMTICK_ARROW
 10
4.0
 20
-4.898587196589413e-16
 30
0.0
 41
8.0
 42
8.0
 50
90.0
  0
INSERT
  8
DIMENSIONS
  2
DIMTICK_ARROW
 10
4.0
 20
14.456782097728047
 30
0.0
 41
8.0
 42
8.0
 50
270.0
  0
LINE
 62
7
  8
DIMENSIONS
 10
4.0
 20
-4.898587196589413e-16
 30
0.0
 11
4.0
 21
14.456782097728047
 31
0.0
  0
LINE
 62
5
  8
DIMENSIONS
 10
4.0
 20
-4.898587196589413e-16
 30
0.0
 11
0.3
 21
-3.6739403974420595e-17
 31
0.0
  0
LINE
 62
5
  8
DIMENSIONS
 10
4.0
 20
14.456782097728047
 30
0.0
 11
0.3
 21
14.456782097728047
 31
0.0
  0
TEXT
 62
7
  8
DIMENSIONS
 10
2.75
 20
7.228391048864023
 30
0.0
 40
2.1
  1
14
 50
90.0
  7
ISOCPEUR
 72
1
 73
2
 11
2.75
 21
7.228391048864023
 31
0.0
  0
INSERT
  8
DIMENSIONS
  2
DIMTICK_ARROW
 10
4.0
 20
-4.898587196589413e-16
 30
0.0
 41
8.0
 42
8.0
 50
90.0
  0
INSERT
  8
DIMENSIONS
  2
DIMTICK_ARROW
 10
4.0
 20
14.456782097728047
 30
0.0
 41
8.0
 42
8.0
 50
270.0
  0
LINE
 62
7
  8
DIMENSIONS
 10
4.0
 20
-4.898587196589413e-16
 30
0.0
 11
4.0
 21
14.456782097728047
 31
0.0
  0
LINE
 62
5
  8
DIMENSIONS
 10
4.0
 20
-4.898587196589413e-16
 30
0.0
 11
0.3
 21
-3.6739403974420595e-17
 31
0.0
  0
LINE
 62
5
  8
DIMENSIONS
 10
4.0
 20
14.456782097728047
 30
0.0
 11
0.3
 21
14.456782097728047
 31
0.0
  0
TEXT
 62
7
  8
DIMENSIONS
 10
2.75
 20
7.228391048864023
 30
0.0
 40
2.1
  1
14
 50
90.0
  7
ISOCPEUR
 72
1
 73
2
 11
2.75
 21
7.228391048864023
 31
0.0
  0
INSERT
  8
DIMENSIONS
  2
DIMTICK_ARROW
 10
4.0
 20
-4.898587196589413e-16
 30
0.0
 41
8.0
 42
8.0
 50
90.0
  0
INSERT
  8
DIMENSIONS
  2
DIMTICK_ARROW
 10
4.0
 20
14.456782097728047
 30
0.0
 41
8.0
 42
8.0
 50
270.0
  0
LINE
 62
7
  8
DIMENSIONS
 10
4.0
 20
-4.898587196589413e-16
 30
0.0
 11
4.0
 21
14.456782097728047
 31
0.0
  0
LINE
 62
5
  8
DIMENSIONS
 10
4.0
 20
-4.898587196589413e-16
 30
0.0
 11
0.3
 21
-3.6739403974420595e-17
 31
0.0
  0
LINE
 62
5
  8
DIMENSIONS
 10
4.0
 20
14.456782097728047
 30
0.0
 11
0.3
 21
14.456782097728047
 31
0.0
  0
TEXT
 62
7
  8
DIMENSIONS
 10
2.75
 20
7.228391048864023
 30
0.0
 40
2.1
  1
14
 50
90.0
  7
ISOCPEUR
 72
1
 73
2
 11
2.75
 21
7.228391048864023
 31
0.0
  0
INSERT
  8
DIMENSIONS
  2
DIMTICK_ARROW
 10
4.0
 20
-4.898587196589413e-16
 30
0.0
 41
8.0
 42
8.0
 50
90.0
  0
INSERT
  8
DIMENSIONS
  2
DIMTICK_ARROW
 10
4.0
 20
14.456782097728047
 30
0.0
 41
8.0
 42
8.0
 50
270.0
  0
LINE
 62
7
  8
DIMENSIONS
 10
4.0
 20
-4.898587196589413e-16
 30
0.0
 11
4.0
 21
14.456782097728047
 31
0.0
  0
LINE
 62
5
  8
DIMENSIONS
 10
4.0
 20
-4.898587196589413e-16
 30
0.0
 11
0.3
 21
-3.6739403974420595e-17
 31
0.0
  0
LINE
 62
5
  8
DIMENSIONS
 10
4.0
 20
14.456782097728047
 30
0.0
 11
0.3
 21
14.456782097728047
 31
0.0
  0
TEXT
 62
7
  8
DIMENSIONS
 10
2.75
 20
7.228391048864023
 30
0.0
 40
2.1
  1
14
 50
90.0
  7
ISOCPEUR
 72
1
 73
2
 11
2.75
 21
7.228391048864023
 31
0.0
  0
INSERT
  8
DIMENSIONS
  2
DIMTICK_ARROW
 10
4.0
 20
-4.898587196589413e-16
 30
0.0
 41
8.0
 42
8.0
 50
90.0
  0
INSERT
  8
DIMENSIONS
  2
DIMTICK_ARROW
 10
4.0
 20
14.456782097728047
 30
0.0
 41
8.0
 42
8.0
 50
270.0
  0
LINE
 62
7
  8
DIMENSIONS
 10
4.0
 20
-4.898587196589413e-16
 30
0.0
 11
4.0
 21
14.456782097728047
 31
0.0
  0
LINE
 62
5
  8
DIMENSIONS
 10
4.0
 20
-4.898587196589413e-16
 30
0.0
 11
0.3
 21
-3.6739403974420595e-17
 31
0.0
  0
LINE
 62
5
  8
DIMENSIONS
 10
4.0
 20
14.456782097728047
 30
0.0
 11
0.3
 21
14.456782097728047
 31
0.0
  0
TEXT
 62
7
  8
DIMENSIONS
 10
2.75
 20
7.228391048864023
 30
0.0
 40
2.1
  1
14
 50
90.0
  7
ISOCPEUR
 72
1
 73
2
 11
2.75
 21
7.228391048864023
 31
0.0
  0
INSERT
  8
DIMENSIONS
  2
DIMTICK_ARROW
 10
4.0
 20
-4.898587196589413e-16
 30
0.0
 41
8.0
 42
8.0
 50
90.0
  0
INSERT
  8
DIMENSIONS
  2
DIMTICK_ARROW
 10
4.0
 20
14.456782097728047
 30
0.0
 41
8.0
 42
8.0
 50
270.0
  0
LINE
 62
7
  8
DIMENSIONS
 10
4.0
 20
-4.898587196589413e-16
 30
0.0
 11
4.0
 21
14.456782097728047
 31
0.0
  0
LINE
 62
5
  8
DIMENSIONS
 10
4.0
 20
-4.898587196589413e-16
 30
0.0
 11
0.3
 21
-3.6739403974420595e-17
 31
0.0
  0
LINE
 62
5
  8
DIMENSIONS
 10
4.0
 20
14.456782097728047
 30
0.0
 11
0.3
 21
14.456782097728047
 31
0.0
  0
TEXT
 62
7
  8
DIMENSIONS
 10
2.75
 20
7.228391048864023
 30
0.0
 40
2.1
  1
14
 50
90.0
  7
ISOCPEUR
 72
1
 73
2
 11
2.75
 21
7.228391048864023
 31
0.0
  0
INSERT
  8
DIMENSIONS
  2
DIMTICK_ARROW
 10
4.0
 20
-4.898587196589413e-16
 30
0.0
 41
8.0
 42
8.0
 50
90.0
  0
INSERT
  8
DIMENSIONS
  2
DIMTICK_ARROW
 10
4.0
 20
14.456782097728047
 30
0.0
 41
8.0
 42
8.0
 50
270.0
  0
LINE
 62
7
  8
DIMENSIONS
 10
4.0
 20
-4.898587196589413e-16
 30
0.0
 11
4.0
 21
14.456782097728047
 31
0.0
  0
LINE
 62
5
  8
DIMENSIONS
 10
4.0
 20
-4.898587196589413e-16
 30
0.0
 11
0.3
 21
-3.6739403974420595e-17
 31
0.0
  0
LINE
 62
5
  8
DIMENSIONS
 10
4.0
 20
14.456782097728047
 30
0.0
 11
0.3
 21
14.456782097728047
 31
0.0
  0
TEXT
 62
7
  8
DIMENSIONS
 10
2.75
 20
7.228391048864023
 30
0.0
 40
2.1
  1
14
 50
90.0
  7
ISOCPEUR
 72
1
 73
2
 11
2.75
 21
7.228391048864023
 31
0.0
  0
INSERT
  8
DIMENSIONS
  2
DIMTICK_ARROW
 10
4.0
 20
-4.898587196589413e-16
 30
0.0
 41
8.0
 42
8.0
 50
90.0
  0
INSERT
  8
DIMENSIONS
  2
DIMTICK_ARROW
 10
4.0
 20
14.456782097728047
 30
0.0
 41
8.0
 42
8.0
 50
270.0
  0
LINE
 62
7
  8
DIMENSIONS
 10
4.0
 20
-4.898587196589413e-16
 30
0.0
 11
4.0
 21
14.456782097728047
 31
0.0
  0
LINE
 62
5
  8
DIMENSIONS
 10
4.0
 20
-4.898587196589413e-16
 30
0.0
 11
0.3
 21
-3.6739403974420595e-17
 31
0.0
  0
LINE
 62
5
  8
DIMENSIONS
 10
4.0
 20
14.456782097728047
 30
0.0
 11
0.3
 21
14.456782097728047
 31
0.0
  0
TEXT
 62
7
  8
DIMENSIONS
 10
2.75
 20
7.228391048864023
 30
0.0
 40
2.1
  1
14
 50
90.0
  7
ISOCPEUR
 72
1
 73
2
 11
2.75
 21
7.228391048864023
 31
0.0
  0
INSERT
  8
DIMENSIONS
  2
DIMTICK_ARROW
 10
4.0
 20
-4.898587196589413e-16
 30
0.0
 41
8.0
 42
8.0
 50
90.0
  0
INSERT
  8
DIMENSIONS
  2
DIMTICK_ARROW
 10
4.0
 20
14.456782097728047
 30
0.0
 41
8.0
 42
8.0
 50
270.0
  0
LINE
 62
7
  8
DIMENSIONS
 10
4.0
 20
-4.898587196589413e-16
 30
0.0
 11
4.0
 21
14.456782097728047
 31
0.0
  0
LINE
 62
5
  8
DIMENSIONS
 10
4.0
 20
-4.898587196589413e-16
 30
0.0
 11
0.3
 21
-3.6739403974420595e-17
 31
0.0
  0
LINE
 62
5
  8
DIMENSIONS
 10
4.0
 20
14.456782097728047
 30
0.0
 11
0.3
 21
14.456782097728047
 31
0.0
  0
TEXT
 62
7
  8
DIMENSIONS
 10
2.75
 20
7.228391048864023
 30
0.0
 40
2.1
  1
14
 50
90.0
  7
ISOCPEUR
 72
1
 73
2
 11
2.75
 21
7.228391048864023
 31
0.0
  0
INSERT
  8
DIMENSIONS
  2
DIMTICK_ARROW
 10
4.0
 20
-4.898587196589413e-16
 30
0.0
 41
8.0
 42
8.0
 50
90.0
  0
INSERT
  8
DIMENSIONS
  2
DIMTICK_ARROW
 10
4.0
 20
14.456782097728047
 30
0.0
 41
8.0
 42
8.0
 50
270.0
  0
LINE
 62
7
  8
DIMENSIONS
 10
4.0
 20
-4.898587196589413e-16
 30
0.0
 11
4.0
 21
14.456782097728047
 31
0.0
  0
LINE
 62
5
  8
DIMENSIONS
 10
4.0
 20
-4.898587196589413e-16
 30
0.0
 11
0.3
 21
-3.6739403974420595e-17
 31
0.0
  0
LINE
 62
5
  8
DIMENSIONS
 10
4.0
 20
14.456782097728047
 30
0.0
 11
0.3
 21
14.456782097728047
 31
0.0
  0
TEXT
 62
7
  8
DIMENSIONS
 10
2.75
 20
7.228391048864023
 30
0.0
 40
2.1
  1
14
 50
90.0
  7
ISOCPEUR
 72
1
 73
2
 11
2.75
 21
7.228391048864023
 31
0.0
  0
INSERT
  8
DIMENSIONS
  2
DIMTICK_ARROW
 10
4.0
 20
-4.898587196589413e-16
 30
0.0
 41
8.0
 42
8.0
 50
90.0
  0
INSERT
  8
DIMENSIONS
  2
DIMTICK_ARROW
 10
4.0
 20
14.456782097728047
 30
0.0
 41
8.0
 42
8.0
 50
270.0
  0
LINE
 62
3
  8
0
 10
78.22725423992843
 20
37.10574071750199
 30
0.0
 11
78.22725423992843
 21
51.72315372742701
 31
0.0
  0
LINE
 62
7
  8
DIMENSIONS
 10
82.22725423992843
 20
37.10574071750199
 30
0.0
 11
82.22725423992843
 21
51.72315372742701
 31
0.0
  0
LINE
 62
5
  8
DIMENSIONS
 10
82.22725423992843
 20
37.10574071750199
 30
0.0
 11
78.52725423992842
 21
37.10574071750199
 31
0.0
  0
LINE
 62
5
  8
DIMENSIONS
 10
82.22725423992843
 20
51.72315372742701
 30
0.0
 11
78.52725423992842
 21
51.72315372742701
 31
0.0
  0
TEXT
 62
7
  8
DIMENSIONS
 10
80.97725423992843
 20
44.4144472224645
 30
0.0
 40
2.1
  1
15
 50
90.0
  7
ISOCPEUR
 72
1
 73
2
 11
80.97725423992843
 21
44.4144472224645
 31
0.0
  0
INSERT
  8
DIMENSIONS
  2
DIMTICK_ARROW
 10
82.22725423992843
 20
37.10574071750199
 30
0.0
 41
8.0
 42
8.0
 50
90.0
  0
INSERT
  8
DIMENSIONS
  2
DIMTICK_ARROW
 10
82.22725423992843
 20
51.72315372742701
 30
0.0
 41
8.0
 42
8.0
 50
270.0
  0
LINE
 62
7
  8
DIMENSIONS
 10
82.22725423992843
 20
37.10574071750199
 30
0.0
 11
82.22725423992843
 21
51.72315372742701
 31
0.0
  0
LINE
 62
5
  8
DIMENSIONS
 10
82.22725423992843
 20
37.10574071750199
 30
0.0
 11
78.52725423992842
 21
37.10574071750199
 31
0.0
  0
LINE
 62
5
  8
DIMENSIONS
 10
82.22725423992843
 20
51.72315372742701
 30
0.0
 11
78.52725423992842
 21
51.72315372742701
 31
0.0
  0
TEXT
 62
7
  8
DIMENSIONS
 10
80.97725423992843
 20
44.4144472224645
 30
0.0
 40
2.1
  1
15
 50
90.0
  7
ISOCPEUR
 72
1
 73
2
 11
80.97725423992843
 21
44.4144472224645
 31
0.0
  0
INSERT
  8
DIMENSIONS
  2
DIMTICK_ARROW
 10
82.22725423992843
 20
37.10574071750199
 30
0.0
 41
8.0
 42
8.0
 50
90.0
  0
INSERT
  8
DIMENSIONS
  2
DIMTICK_ARROW
 10
82.22725423992843
 20
51.72315372742701
 30
0.0
 41
8.0
 42
8.0
 50
270.0
  0
LINE
 62
7
  8
DIMENSIONS
 10
82.22725423992843
 20
37.10574071750199
 30
0.0
 11
82.22725423992843
 21
51.72315372742701
 31
0.0
  0
LINE
 62
5
  8
DIMENSIONS
 10
82.22725423992843
 20
37.10574071750199
 30
0.0
 11
78.52725423992842
 21
37.10574071750199
 31
0.0
  0
LINE
 62
5
  8
DIMENSIONS
 10
82.22725423992843
 20
51.72315372742701
 30
0.0
 11
78.52725423992842
 21
51.72315372742701
 31
0.0
  0
TEXT
 62
7
  8
DIMENSIONS
 10
80.97725423992843
 20
44.4144472224645
 30
0.0
 40
2.1
  1
15
 50
90.0
  7
ISOCPEUR
 72
1
 73
2
 11
80.97725423992843
 21
44.4144472224645
 31
0.0
  0
INSERT
  8
DIMENSIONS
  2
DIMTICK_ARROW
 10
82.22725423992843
 20
37.10574071750199
 30
0.0
 41
8.0
 42
8.0
 50
90.0
  0
INSERT
  8
DIMENSIONS
  2
DIMTICK_ARROW
 10
82.22725423992843
 20
51.72315372742701
 30
0.0
 41
8.0
 42
8.0
 50
270.0
  0
LINE
 62
7
  8
DIMENSIONS
 10
82.22725423992843
 20
37.10574071750199
 30
0.0
 11
82.22725423992843
 21
51.72315372742701
 31
0.0
  0
LINE
 62
5
  8
DIMENSIONS
 10
82.22725423992843
 20
37.10574071750199
 30
0.0
 11
78.52725423992842
 21
37.10574071750199
 31
0.0
  0
LINE
 62
5
  8
DIMENSIONS
 10
82.22725423992843
 20
51.72315372742701
 30
0.0
 11
78.52725423992842
 21
51.72315372742701
 31
0.0
  0
TEXT
 62
7
  8
DIMENSIONS
 10
80.97725423992843
 20
44.4144472224645
 30
0.0
 40
2.1
  1
15
 50
90.0
  7
ISOCPEUR
 72
1
 73
2
 11
80.97725423992843
 21
44.4144472224645
 31
0.0
  0
INSERT
  8
DIMENSIONS
  2
DIMTICK_ARROW
 10
82.22725423992843
 20
37.10574071750199
 30
0.0
 41
8.0
 42
8.0
 50
90.0
  0
INSERT
  8
DIMENSIONS
  2
DIMTICK_ARROW
 10
82.22725423992843
 20
51.72315372742701
 30
0.0
 41
8.0
 42
8.0
 50
270.0
  0
LINE
 62
7
  8
DIMENSIONS
 10
82.22725423992843
 20
37.10574071750199
 30
0.0
 11
82.22725423992843
 21
51.72315372742701
 31
0.0
  0
LINE
 62
5
  8
DIMENSIONS
 10
82.22725423992843
 20
37.10574071750199
 30
0.0
 11
78.52725423992842
 21
37.10574071750199
 31
0.0
  0
LINE
 62
5
  8
DIMENSIONS
 10
82.22725423992843
 20
51.72315372742701
 30
0.0
 11
78.52725423992842
 21
51.72315372742701
 31
0.0
  0
TEXT
 62
7
  8
DIMENSIONS
 10
80.97725423992843
 20
44.4144472224645
 30
0.0
 40
2.1
  1
15
 50
90.0
  7
ISOCPEUR
 72
1
 73
2
 11
80.97725423992843
 21
44.4144472224645
 31
0.0
  0
INSERT
  8
DIMENSIONS
  2
DIMTICK_ARROW
 10
82.22725423992843
 20
37.10574071750199
 30
0.0
 41
8.0
 42
8.0
 50
90.0
  0
INSERT
  8
DIMENSIONS
  2
DIMTICK_ARROW
 10
82.22725423992843
 20
51.72315372742701
 30
0.0
 41
8.0
 42
8.0
 50
270.0
  0
LINE
 62
7
  8
DIMENSIONS
 10
82.22725423992843
 20
37.10574071750199
 30
0.0
 11
82.22725423992843
 21
51.72315372742701
 31
0.0
  0
LINE
 62
5
  8
DIMENSIONS
 10
82.22725423992843
 20
37.10574071750199
 30
0.0
 11
78.52725423992842
 21
37.10574071750199
 31
0.0
  0
LINE
 62
5
  8
DIMENSIONS
 10
82.22725423992843
 20
51.72315372742701
 30
0.0
 11
78.52725423992842
 21
51.72315372742701
 31
0.0
  0
TEXT
 62
7
  8
DIMENSIONS
 10
80.97725423992843
 20
44.4144472224645
 30
0.0
 40
2.1
  1
15
 50
90.0
  7
ISOCPEUR
 72
1
 73
2
 11
80.97725423992843
 21
44.4144472224645
 31
0.0
  0
INSERT
  8
DIMENSIONS
  2
DIMTICK_ARROW
 10
82.22725423992843
 20
37.10574071750199
 30
0.0
 41
8.0
 42
8.0
 50
90.0
  0
INSERT
  8
DIMENSIONS
  2
DIMTICK_ARROW
 10
82.22725423992843
 20
51.72315372742701
 30
0.0
 41
8.0
 42
8.0
 50
270.0
  0
LINE
 62
7
  8
DIMENSIONS
 10
82.22725423992843
 20
37.10574071750199
 30
0.0
 11
82.22725423992843
 21
51.72315372742701
 31
0.0
  0
LINE
 62
5
  8
DIMENSIONS
 10
82.22725423992843
 20
37.10574071750199
 30
0.0
 11
78.52725423992842
 21
37.10574071750199
 31
0.0
  0
LINE
 62
5
  8
DIMENSIONS
 10
82.22725423992843
 20
51.72315372742701
 30
0.0
 11
78.52725423992842
 21
51.72315372742701
 31
0.0
  0
TEXT
 62
7
  8
DIMENSIONS
 10
80.97725423992843
 20
44.4144472224645
 30
0.0
 40
2.1
  1
15
 50
90.0
  7
ISOCPEUR
 72
1
 73
2
 11
80.97725423992843
 21
44.4144472224645
 31
0.0
  0
INSERT
  8
DIMENSIONS
  2
DIMTICK_ARROW
 10
82.22725423992843
 20
37.10574071750199
 30
0.0
 41
8.0
 42
8.0
 50
90.0
  0
INSERT
  8
DIMENSIONS
  2
DIMTICK_ARROW
 10
82.22725423992843
 20
51.72315372742701
 30
0.0
 41
8.0
 42
8.0
 50
270.0
  0
LINE
 62
7
  8
DIMENSIONS
 10
82.22725423992843
 20
37.10574071750199
 30
0.0
 11
82.22725423992843
 21
51.72315372742701
 31
0.0
  0
LINE
 62
5
  8
DIMENSIONS
 10
82.22725423992843
 20
37.10574071750199
 30
0.0
 11
78.52725423992842
 21
37.10574071750199
 31
0.0
  0
LINE
 62
5
  8
DIMENSIONS
 10
82.22725423992843
 20
51.72315372742701
 30
0.0
 11
78.52725423992842
 21
51.72315372742701
 31
0.0
  0
TEXT
 62
7
  8
DIMENSIONS
 10
80.97725423992843
 20
44.4144472224645
 30
0.0
 40
2.1
  1
15
 50
90.0
  7
ISOCPEUR
 72
1
 73
2
 11
80.97725423992843
 21
44.4144472224645
 31
0.0
  0
INSERT
  8
DIMENSIONS
  2
DIMTICK_ARROW
 10
82.22725423992843
 20
37.10574071750199
 30
0.0
 41
8.0
 42
8.0
 50
90.0
  0
INSERT
  8
DIMENSIONS
  2
DIMTICK_ARROW
 10
82.22725423992843
 20
51.72315372742701
 30
0.0
 41
8.0
 42
8.0
 50
270.0
  0
LINE
 62
7
  8
DIMENSIONS
 10
82.22725423992843
 20
37.10574071750199
 30
0.0
 11
82.22725423992843
 21
51.72315372742701
 31
0.0
  0
LINE
 62
5
  8
DIMENSIONS
 10
82.22725423992843
 20
37.10574071750199
 30
0.0
 11
78.52725423992842
 21
37.10574071750199
 31
0.0
  0
LINE
 62
5
  8
DIMENSIONS
 10
82.22725423992843
 20
51.72315372742701
 30
0.0
 11
78.52725423992842
 21
51.72315372742701
 31
0.0
  0
TEXT
 62
7
  8
DIMENSIONS
 10
80.97725423992843
 20
44.4144472224645
 30
0.0
 40
2.1
  1
15
 50
90.0
  7
ISOCPEUR
 72
1
 73
2
 11
80.97725423992843
 21
44.4144472224645
 31
0.0
  0
INSERT
  8
DIMENSIONS
  2
DIMTICK_ARROW
 10
82.22725423992843
 20
37.10574071750199
 30
0.0
 41
8.0
 42
8.0
 50
90.0
  0
INSERT
  8
DIMENSIONS
  2
DIMTICK_ARROW
 10
82.22725423992843
 20
51.72315372742701
 30
0.0
 41
8.0
 42
8.0
 50
270.0
  0
LINE
 62
7
  8
DIMENSIONS
 10
82.22725423992843
 20
37.10574071750199
 30
0.0
 11
82.22725423992843
 21
51.72315372742701
 31
0.0
  0
LINE
 62
5
  8
DIMENSIONS
 10
82.22725423992843
 20
37.10574071750199
 30
0.0
 11
78.52725423992842
 21
37.10574071750199
 31
0.0
  0
LINE
 62
5
  8
DIMENSIONS
 10
82.22725423992843
 20
51.72315372742701
 30
0.0
 11
78.52725423992842
 21
51.72315372742701
 31
0.0
  0
TEXT
 62
7
  8
DIMENSIONS
 10
80.97725423992843
 20
44.4144472224645
 30
0.0
 40
2.1
  1
15
 50
90.0
  7
ISOCPEUR
 72
1
 73
2
 11
80.97725423992843
 21
44.4144472224645
 31
0.0
  0
INSERT
  8
DIMENSIONS
  2
DIMTICK_ARROW
 10
82.22725423992843
 20
37.10574071750199
 30
0.0
 41
8.0
 42
8.0
 50
90.0
  0
INSERT
  8
DIMENSIONS
  2
DIMTICK_ARROW
 10
82.22725423992843
 20
51.72315372742701
 30
0.0
 41
8.0
 42
8.0
 50
270.0
  0
LINE
 62
7
  8
DIMENSIONS
 10
82.22725423992843
 20
37.10574071750199
 30
0.0
 11
82.22725423992843
 21
51.72315372742701
 31
0.0
  0
LINE
 62
5
  8
DIMENSIONS
 10
82.22725423992843
 20
37.10574071750199
 30
0.0
 11
78.52725423992842
 21
37.10574071750199
 31
0.0
  0
LINE
 62
5
  8
DIMENSIONS
 10
82.22725423992843
 20
51.72315372742701
 30
0.0
 11
78.52725423992842
 21
51.72315372742701
 31
0.0
  0
TEXT
 62
7
  8
DIMENSIONS
 10
80.97725423992843
 20
44.4144472224645
 30
0.0
 40
2.1
  1
15
 50
90.0
  7
ISOCPEUR
 72
1
 73
2
 11
80.97725423992843
 21
44.4144472224645
 31
0.0
  0
INSERT
  8
DIMENSIONS
  2
DIMTICK_ARROW
 10
82.22725423992843
 20
37.10574071750199
 30
0.0
 41
8.0
 42
8.0
 50
90.0
  0
INSERT
  8
DIMENSIONS
  2
DIMTICK_ARROW
 10
82.22725423992843
 20
51.72315372742701
 30
0.0
 41
8.0
 42
8.0
 50
270.0
  0
LINE
 62
7
  8
DIMENSIONS
 10
82.22725423992843
 20
37.10574071750199
 30
0.0
 11
82.22725423992843
 21
51.72315372742701
 31
0.0
  0
LINE
 62
5
  8
DIMENSIONS
 10
82.22725423992843
 20
37.10574071750199
 30
0.0
 11
78.52725423992842
 21
37.10574071750199
 31
0.0
  0
LINE
 62
5
  8
DIMENSIONS
 10
82.22725423992843
 20
51.72315372742701
 30
0.0
 11
78.52725423992842
 21
51.72315372742701
 31
0.0
  0
TEXT
 62
7
  8
DIMENSIONS
 10
80.97725423992843
 20
44.4144472224645
 30
0.0
 40
2.1
  1
15
 50
90.0
  7
ISOCPEUR
 72
1
 73
2
 11
80.97725423992843
 21
44.4144472224645
 31
0.0
  0
INSERT
  8
DIMENSIONS
  2
DIMTICK_ARROW
 10
82.22725423992843
 20
37.10574071750199
 30
0.0
 41
8.0
 42
8.0
 50
90.0
  0
INSERT
  8
DIMENSIONS
  2
DIMTICK_ARROW
 10
82.22725423992843
 20
51.72315372742701
 30
0.0
 41
8.0
 42
8.0
 50
270.0
  0
LINE
 62
7
  8
DIMENSIONS
 10
82.22725423992843
 20
37.10574071750199
 30
0.0
 11
82.22725423992843
 21
51.72315372742701
 31
0.0
  0
LINE
 62
5
  8
DIMENSIONS
 10
82.22725423992843
 20
37.10574071750199
 30
0.0
 11
78.52725423992842
 21
37.10574071750199
 31
0.0
  0
LINE
 62
5
  8
DIMENSIONS
 10
82.22725423992843
 20
51.72315372742701
 30
0.0
 11
78.52725423992842
 21
51.72315372742701
 31
0.0
  0
TEXT
 62
7
  8
DIMENSIONS
 10
80.97725423992843
 20
44.4144472224645
 30
0.0
 40
2.1
  1
15
 50
90.0
  7
ISOCPEUR
 72
1
 73
2
 11
80.97725423992843
 21
44.4144472224645
 31
0.0
  0
INSERT
  8
DIMENSIONS
  2
DIMTICK_ARROW
 10
82.22725423992843
 20
37.10574071750199
 30
0.0
 41
8.0
 42
8.0
 50
90.0
  0
INSERT
  8
DIMENSIONS
  2
DIMTICK_ARROW
 10
82.22725423992843
 20
51.72315372742701
 30
0.0
 41
8.0
 42
8.0
 50
270.0
  0
LINE
 62
7
  8
DIMENSIONS
 10
82.22725423992843
 20
37.10574071750199
 30
0.0
 11
82.22725423992843
 21
51.72315372742701
 31
0.0
  0
LINE
 62
5
  8
DIMENSIONS
 10
82.22725423992843
 20
37.10574071750199
 30
0.0
 11
78.52725423992842
 21
37.10574071750199
 31
0.0
  0
LINE
 62
5
  8
DIMENSIONS
 10
82.22725423992843
 20
51.72315372742701
 30
0.0
 11
78.52725423992842
 21
51.72315372742701
 31
0.0
  0
TEXT
 62
7
  8
DIMENSIONS
 10
80.97725423992843
 20
44.4144472224645
 30
0.0
 40
2.1
  1
15
 50
90.0
  7
ISOCPEUR
 72
1
 73
2
 11
80.97725423992843
 21
44.4144472224645
 31
0.0
  0
INSERT
  8
DIMENSIONS
  2
DIMTICK_ARROW
 10
82.22725423992843
 20
37.10574071750199
 30
0.0
 41
8.0
 42
8.0
 50
90.0
  0
INSERT
  8
DIMENSIONS
  2
DIMTICK_ARROW
 10
82.22725423992843
 20
51.72315372742701
 30
0.0
 41
8.0
 42
8.0
 50
270.0
  0
LINE
 62
7
  8
DIMENSIONS
 10
82.22725423992843
 20
37.10574071750199
 30
0.0
 11
82.22725423992843
 21
51.72315372742701
 31
0.0
  0
LINE
 62
5
  8
DIMENSIONS
 10
82.22725423992843
 20
37.10574071750199
 30
0.0
 11
78.52725423992842
 21
37.10574071750199
 31
0.0
  0
LINE
 62
5
  8
DIMENSIONS
 10
82.22725423992843
 20
51.72315372742701
 30
0.0
 11
78.52725423992842
 21
51.72315372742701
 31
0.0
  0
TEXT
 62
7
  8
DIMENSIONS
 10
80.97725423992843
 20
44.4144472224645
 30
0.0
 40
2.1
  1
15
 50
90.0
  7
ISOCPEUR
 72
1
 73
2
 11
80.97725423992843
 21
44.4144472224645
 31
0.0
  0
INSERT
  8
DIMENSIONS
  2
DIMTICK_ARROW
 10
82.22725423992843
 20
37.10574071750199
 30
0.0
 41
8.0
 42
8.0
 50
90.0
  0
INSERT
  8
DIMENSIONS
  2
DIMTICK_ARROW
 10
82.22725423992843
 20
51.72315372742701
 30
0.0
 41
8.0
 42
8.0
 50
270.0
  0
LINE
 62
7
  8
DIMENSIONS
 10
82.22725423992843
 20
37.10574071750199
 30
0.0
 11
82.22725423992843
 21
51.72315372742701
 31
0.0
  0
LINE
 62
5
  8
DIMENSIONS
 10
82.22725423992843
 20
37.10574071750199
 30
0.0
 11
78.52725423992842
 21
37.10574071750199
 31
0.0
  0
LINE
 62
5
  8
DIMENSIONS
 10
82.22725423992843
 20
51.72315372742701
 30
0.0
 11
78.52725423992842
 21
51.72315372742701
 31
0.0
  0
TEXT
 62
7
  8
DIMENSIONS
 10
80.97725423992843
 20
44.4144472224645
 30
0.0
 40
2.1
  1
15
 50
90.0
  7
ISOCPEUR
 72
1
 73
2
 11
80.97725423992843
 21
44.4144472224645
 31
0.0
  0
INSERT
  8
DIMENSIONS
  2
DIMTICK_ARROW
 10
82.22725423992843
 20
37.10574071750199
 30
0.0
 41
8.0
 42
8.0
 50
90.0
  0
INSERT
  8
DIMENSIONS
  2
DIMTICK_ARROW
 10
82.22725423992843
 20
51.72315372742701
 30
0.0
 41
8.0
 42
8.0
 50
270.0
  0
LINE
 62
3
  8
0
 10
0.0
 20
37.10574071750199
 30
0.0
 11
0.0
 21
51.72315372742701
 31
0.0
  0
LINE
 62
3
  8
0
 10
78.22725423992843
 20
0.0
 30
0.0
 11
78.22725423992843
 21
11.565425678182438
 31
0.0
  0
LINE
 62
3
  8
0
 10
78.22725423992843
 20
37.10574071750199
 30
0.0
 11
78.22725423992843
 21
51.72315372742701
 31
0.0
  0
LINE
 62
7
  8
DIMENSIONS
 10
82.22725423992843
 20
37.10574071750199
 30
0.0
 11
82.22725423992843
 21
51.72315372742701
 31
0.0
  0
LINE
 62
5
  8
DIMENSIONS
 10
82.22725423992843
 20
37.10574071750199
 30
0.0
 11
78.52725423992842
 21
37.10574071750199
 31
0.0
  0
LINE
 62
5
  8
DIMENSIONS
 10
82.22725423992843
 20
51.72315372742701
 30
0.0
 11
78.52725423992842
 21
51.72315372742701
 31
0.0
  0
TEXT
 62
7
  8
DIMENSIONS
 10
80.97725423992843
 20
44.4144472224645
 30
0.0
 40
2.1
  1
15
 50
90.0
  7
ISOCPEUR
 72
1
 73
2
 11
80.97725423992843
 21
44.4144472224645
 31
0.0
  0
INSERT
  8
DIMENSIONS
  2
DIMTICK_ARROW
 10
82.22725423992843
 20
37.10574071750199
 30
0.0
 41
8.0
 42
8.0
 50
90.0
  0
INSERT
  8
DIMENSIONS
  2
DIMTICK_ARROW
 10
82.22725423992843
 20
51.72315372742701
 30
0.0
 41
8.0
 42
8.0
 50
270.0
  0
LINE
 62
7
  8
DIMENSIONS
 10
82.22725423992843
 20
37.10574071750199
 30
0.0
 11
82.22725423992843
 21
51.72315372742701
 31
0.0
  0
LINE
 62
5
  8
DIMENSIONS
 10
82.22725423992843
 20
37.10574071750199
 30
0.0
 11
78.52725423992842
 21
37.10574071750199
 31
0.0
  0
LINE
 62
5
  8
DIMENSIONS
 10
82.22725423992843
 20
51.72315372742701
 30
0.0
 11
78.52725423992842
 21
51.72315372742701
 31
0.0
  0
TEXT
 62
7
  8
DIMENSIONS
 10
80.97725423992843
 20
44.4144472224645
 30
0.0
 40
2.1
  1
15
 50
90.0
  7
ISOCPEUR
 72
1
 73
2
 11
80.97725423992843
 21
44.4144472224645
 31
0.0
  0
INSERT
  8
DIMENSIONS
  2
DIMTICK_ARROW
 10
82.22725423992843
 20
37.10574071750199
 30
0.0
 41
8.0
 42
8.0
 50
90.0
  0
INSERT
  8
DIMENSIONS
  2
DIMTICK_ARROW
 10
82.22725423992843
 20
51.72315372742701
 30
0.0
 41
8.0
 42
8.0
 50
270.0
  0
LINE
 62
7
  8
DIMENSIONS
 10
82.22725423992843
 20
37.10574071750199
 30
0.0
 11
82.22725423992843
 21
51.72315372742701
 31
0.0
  0
LINE
 62
5
  8
DIMENSIONS
 10
82.22725423992843
 20
37.10574071750199
 30
0.0
 11
78.52725423992842
 21
37.10574071750199
 31
0.0
  0
LINE
 62
5
  8
DIMENSIONS
 10
82.22725423992843
 20
51.72315372742701
 30
0.0
 11
78.52725423992842
 21
51.72315372742701
 31
0.0
  0
TEXT
 62
7
  8
DIMENSIONS
 10
80.97725423992843
 20
44.4144472224645
 30
0.0
 40
2.1
  1
15
 50
90.0
  7
ISOCPEUR
 72
1
 73
2
 11
80.97725423992843
 21
44.4144472224645
 31
0.0
  0
INSERT
  8
DIMENSIONS
  2
DIMTICK_ARROW
 10
82.22725423992843
 20
37.10574071750199
 30
0.0
 41
8.0
 42
8.0
 50
90.0
  0
INSERT
  8
DIMENSIONS
  2
DIMTICK_ARROW
 10
82.22725423992843
 20
51.72315372742701
 30
0.0
 41
8.0
 42
8.0
 50
270.0
  0
LINE
 62
7
  8
DIMENSIONS
 10
82.22725423992843
 20
37.10574071750199
 30
0.0
 11
82.22725423992843
 21
51.72315372742701
 31
0.0
  0
LINE
 62
5
  8
DIMENSIONS
 10
82.22725423992843
 20
37.10574071750199
 30
0.0
 11
78.52725423992842
 21
37.10574071750199
 31
0.0
  0
LINE
 62
5
  8
DIMENSIONS
 10
82.22725423992843
 20
51.72315372742701
 30
0.0
 11
78.52725423992842
 21
51.72315372742701
 31
0.0
  0
TEXT
 62
7
  8
DIMENSIONS
 10
80.97725423992843
 20
44.4144472224645
 30
0.0
 40
2.1
  1
15
 50
90.0
  7
ISOCPEUR
 72
1
 73
2
 11
80.97725423992843
 21
44.4144472224645
 31
0.0
  0
INSERT
  8
DIMENSIONS
  2
DIMTICK_ARROW
 10
82.22725423992843
 20
37.10574071750199
 30
0.0
 41
8.0
 42
8.0
 50
90.0
  0
INSERT
  8
DIMENSIONS
  2
DIMTICK_ARROW
 10
82.22725423992843
 20
51.72315372742701
 30
0.0
 41
8.0
 42
8.0
 50
270.0
  0
LINE
 62
7
  8
DIMENSIONS
 10
82.22725423992843
 20
37.10574071750199
 30
0.0
 11
82.22725423992843
 21
51.72315372742701
 31
0.0
  0
LINE
 62
5
  8
DIMENSIONS
 10
82.22725423992843
 20
37.10574071750199
 30
0.0
 11
78.52725423992842
 21
37.10574071750199
 31
0.0
  0
LINE
 62
5
  8
DIMENSIONS
 10
82.22725423992843
 20
51.72315372742701
 30
0.0
 11
78.52725423992842
 21
51.72315372742701
 31
0.0
  0
TEXT
 62
7
  8
DIMENSIONS
 10
80.97725423992843
 20
44.4144472224645
 30
0.0
 40
2.1
  1
15
 50
90.0
  7
ISOCPEUR
 72
1
 73
2
 11
80.97725423992843
 21
44.4144472224645
 31
0.0
  0
INSERT
  8
DIMENSIONS
  2
DIMTICK_ARROW
 10
82.22725423992843
 20
37.10574071750199
 30
0.0
 41
8.0
 42
8.0
 50
90.0
  0
INSERT
  8
DIMENSIONS
  2
DIMTICK_ARROW
 10
82.22725423992843
 20
51.72315372742701
 30
0.0
 41
8.0
 42
8.0
 50
270.0
  0
LINE
 62
7
  8
DIMENSIONS
 10
82.22725423992843
 20
37.10574071750199
 30
0.0
 11
82.22725423992843
 21
51.72315372742701
 31
0.0
  0
LINE
 62
5
  8
DIMENSIONS
 10
82.22725423992843
 20
37.10574071750199
 30
0.0
 11
78.52725423992842
 21
37.10574071750199
 31
0.0
  0
LINE
 62
5
  8
DIMENSIONS
 10
82.22725423992843
 20
51.72315372742701
 30
0.0
 11
78.52725423992842
 21
51.72315372742701
 31
0.0
  0
TEXT
 62
7
  8
DIMENSIONS
 10
80.97725423992843
 20
44.4144472224645
 30
0.0
 40
2.1
  1
15
 50
90.0
  7
ISOCPEUR
 72
1
 73
2
 11
80.97725423992843
 21
44.4144472224645
 31
0.0
  0
INSERT
  8
DIMENSIONS
  2
DIMTICK_ARROW
 10
82.22725423992843
 20
37.10574071750199
 30
0.0
 41
8.0
 42
8.0
 50
90.0
  0
INSERT
  8
DIMENSIONS
  2
DIMTICK_ARROW
 10
82.22725423992843
 20
51.72315372742701
 30
0.0
 41
8.0
 42
8.0
 50
270.0
  0
LINE
 62
7
  8
DIMENSIONS
 10
82.22725423992843
 20
37.10574071750199
 30
0.0
 11
82.22725423992843
 21
51.72315372742701
 31
0.0
  0
LINE
 62
5
  8
DIMENSIONS
 10
82.22725423992843
 20
37.10574071750199
 30
0.0
 11
78.52725423992842
 21
37.10574071750199
 31
0.0
  0
LINE
 62
5
  8
DIMENSIONS
 10
82.22725423992843
 20
51.72315372742701
 30
0.0
 11
78.52725423992842
 21
51.72315372742701
 31
0.0
  0
TEXT
 62
7
  8
DIMENSIONS
 10
80.97725423992843
 20
44.4144472224645
 30
0.0
 40
2.1
  1
15
 50
90.0
  7
ISOCPEUR
 72
1
 73
2
 11
80.97725423992843
 21
44.4144472224645
 31
0.0
  0
INSERT
  8
DIMENSIONS
  2
DIMTICK_ARROW
 10
82.22725423992843
 20
37.10574071750199
 30
0.0
 41
8.0
 42
8.0
 50
90.0
  0
INSERT
  8
DIMENSIONS
  2
DIMTICK_ARROW
 10
82.22725423992843
 20
51.72315372742701
 30
0.0
 41
8.0
 42
8.0
 50
270.0
  0
LINE
 62
7
  8
DIMENSIONS
 10
82.22725423992843
 20
37.10574071750199
 30
0.0
 11
82.22725423992843
 21
51.72315372742701
 31
0.0
  0
LINE
 62
5
  8
DIMENSIONS
 10
82.22725423992843
 20
37.10574071750199
 30
0.0
 11
78.52725423992842
 21
37.10574071750199
 31
0.0
  0
LINE
 62
5
  8
DIMENSIONS
 10
82.22725423992843
 20
51.72315372742701
 30
0.0
 11
78.52725423992842
 21
51.72315372742701
 31
0.0
  0
TEXT
 62
7
  8
DIMENSIONS
 10
80.97725423992843
 20
44.4144472224645
 30
0.0
 40
2.1
  1
15
 50
90.0
  7
ISOCPEUR
 72
1
 73
2
 11
80.97725423992843
 21
44.4144472224645
 31
0.0
  0
INSERT
  8
DIMENSIONS
  2
DIMTICK_ARROW
 10
82.22725423992843
 20
37.10574071750199
 30
0.0
 41
8.0
 42
8.0
 50
90.0
  0
INSERT
  8
DIMENSIONS
  2
DIMTICK_ARROW
 10
82.22725423992843
 20
51.72315372742701
 30
0.0
 41
8.0
 42
8.0
 50
270.0
  0
LINE
 62
7
  8
DIMENSIONS
 10
82.22725423992843
 20
37.10574071750199
 30
0.0
 11
82.22725423992843
 21
51.72315372742701
 31
0.0
  0
LINE
 62
5
  8
DIMENSIONS
 10
82.22725423992843
 20
37.10574071750199
 30
0.0
 11
78.52725423992842
 21
37.10574071750199
 31
0.0
  0
LINE
 62
5
  8
DIMENSIONS
 10
82.22725423992843
 20
51.72315372742701
 30
0.0
 11
78.52725423992842
 21
51.72315372742701
 31
0.0
  0
TEXT
 62
7
  8
DIMENSIONS
 10
80.97725423992843
 20
44.4144472224645
 30
0.0
 40
2.1
  1
15
 50
90.0
  7
ISOCPEUR
 72
1
 73
2
 11
80.97725423992843
 21
44.4144472224645
 31
0.0
  0
INSERT
  8
DIMENSIONS
  2
DIMTICK_ARROW
 10
82.22725423992843
 20
37.10574071750199
 30
0.0
 41
8.0
 42
8.0
 50
90.0
  0
INSERT
  8
DIMENSIONS
  2
DIMTICK_ARROW
 10
82.22725423992843
 20
51.72315372742701
 30
0.0
 41
8.0
 42
8.0
 50
270.0
  0
LINE
 62
7
  8
DIMENSIONS
 10
82.22725423992843
 20
37.10574071750199
 30
0.0
 11
82.22725423992843
 21
51.72315372742701
 31
0.0
  0
LINE
 62
5
  8
DIMENSIONS
 10
82.22725423992843
 20
37.10574071750199
 30
0.0
 11
78.52725423992842
 21
37.10574071750199
 31
0.0
  0
LINE
 62
5
  8
DIMENSIONS
 10
82.22725423992843
 20
51.72315372742701
 30
0.0
 11
78.52725423992842
 21
51.72315372742701
 31
0.0
  0
TEXT
 62
7
  8
DIMENSIONS
 10
80.97725423992843
 20
44.4144472224645
 30
0.0
 40
2.1
  1
15
 50
90.0
  7
ISOCPEUR
 72
1
 73
2
 11
80.97725423992843
 21
44.4144472224645
 31
0.0
  0
INSERT
  8
DIMENSIONS
  2
DIMTICK_ARROW
 10
82.22725423992843
 20
37.10574071750199
 30
0.0
 41
8.0
 42
8.0
 50
90.0
  0
INSERT
  8
DIMENSIONS
  2
DIMTICK_ARROW
 10
82.22725423992843
 20
51.72315372742701
 30
0.0
 41
8.0
 42
8.0
 50
270.0
  0
LINE
 62
7
  8
DIMENSIONS
 10
82.22725423992843
 20
37.10574071750199
 30
0.0
 11
82.22725423992843
 21
51.72315372742701
 31
0.0
  0
LINE
 62
5
  8
DIMENSIONS
 10
82.22725423992843
 20
37.10574071750199
 30
0.0
 11
78.52725423992842
 21
37.10574071750199
 31
0.0
  0
LINE
 62
5
  8
DIMENSIONS
 10
82.22725423992843
 20
51.72315372742701
 30
0.0
 11
78.52725423992842
 21
51.72315372742701
 31
0.0
  0
TEXT
 62
7
  8
DIMENSIONS
 10
80.97725423992843
 20
44.4144472224645
 30
0.0
 40
2.1
  1
15
 50
90.0
  7
ISOCPEUR
 72
1
 73
2
 11
80.97725423992843
 21
44.4144472224645
 31
0.0
  0
INSERT
  8
DIMENSIONS
  2
DIMTICK_ARROW
 10
82.22725423992843
 20
37.10574071750199
 30
0.0
 41
8.0
 42
8.0
 50
90.0
  0
INSERT
  8
DIMENSIONS
  2
DIMTICK_ARROW
 10
82.22725423992843
 20
51.72315372742701
 30
0.0
 41
8.0
 42
8.0
 50
270.0
  0
LINE
 62
7
  8
DIMENSIONS
 10
82.22725423992843
 20
37.10574071750199
 30
0.0
 11
82.22725423992843
 21
51.72315372742701
 31
0.0
  0
LINE
 62
5
  8
DIMENSIONS
 10
82.22725423992843
 20
37.10574071750199
 30
0.0
 11
78.52725423992842
 21
37.10574071750199
 31
0.0
  0
LINE
 62
5
  8
DIMENSIONS
 10
82.22725423992843
 20
51.72315372742701
 30
0.0
 11
78.52725423992842
 21
51.72315372742701
 31
0.0
  0
TEXT
 62
7
  8
DIMENSIONS
 10
80.97725423992843
 20
44.4144472224645
 30
0.0
 40
2.1
  1
15
 50
90.0
  7
ISOCPEUR
 72
1
 73
2
 11
80.97725423992843
 21
44.4144472224645
 31
0.0
  0
INSERT
  8
DIMENSIONS
  2
DIMTICK_ARROW
 10
82.22725423992843
 20
37.10574071750199
 30
0.0
 41
8.0
 42
8.0
 50
90.0
  0
INSERT
  8
DIMENSIONS
  2
DIMTICK_ARROW
 10
82.22725423992843
 20
51.72315372742701
 30
0.0
 41
8.0
 42
8.0
 50
270.0
  0
LINE
 62
7
  8
DIMENSIONS
 10
82.22725423992843
 20
37.10574071750199
 30
0.0
 11
82.22725423992843
 21
51.72315372742701
 31
0.0
  0
LINE
 62
5
  8
DIMENSIONS
 10
82.22725423992843
 20
37.10574071750199
 30
0.0
 11
78.52725423992842
 21
37.10574071750199
 31
0.0
  0
LINE
 62
5
  8
DIMENSIONS
 10
82.22725423992843
 20
51.72315372742701
 30
0.0
 11
78.52725423992842
 21
51.72315372742701
 31
0.0
  0
TEXT
 62
7
  8
DIMENSIONS
 10
80.97725423992843
 20
44.4144472224645
 30
0.0
 40
2.1
  1
15
 50
90.0
  7
ISOCPEUR
 72
1
 73
2
 11
80.97725423992843
 21
44.4144472224645
 31
0.0
  0
INSERT
  8
DIMENSIONS
  2
DIMTICK_ARROW
 10
82.22725423992843
 20
37.10574071750199
 30
0.0
 41
8.0
 42
8.0
 50
90.0
  0
INSERT
  8
DIMENSIONS
  2
DIMTICK_ARROW
 10
82.22725423992843
 20
51.72315372742701
 30
0.0
 41
8.0
 42
8.0
 50
270.0
  0
LINE
 62
3
  8
0
 10
6.746498312273088
 20
5.4614510146972615
 30
0.0
 11
6.746498312273088
 21
45.94044088833579
 31
0.0
  0
LINE
 62
3
  8
0
 10
19.75760220022833
 20
5.4614510146972615
 30
0.0
 11
19.75760220022833
 21
45.94044088833579
 31
0.0
  0
LINE
 62
3
  8
0
 10
0.0
 20
0.0
 30
0.0
 11
0.0
 21
14.456782097728047
 31
0.0
  0
LINE
 62
3
  8
0
 10
0.0
 20
37.10574071750199
 30
0.0
 11
0.0
 21
51.72315372742701
 31
0.0
  0
LINE
 62
3
  8
0
 10
78.22725423992843
 20
37.10574071750199
 30
0.0
 11
78.22725423992843
 21
51.72315372742701
 31
0.0
  0
LINE
 62
3
  8
0
 10
78.22725423992843
 20
0.0
 30
0.0
 11
78.22725423992843
 21
11.565425678182438
 31
0.0
  0
LINE
 62
3
  8
0
 10
0.0
 20
51.72315372742701
 30
0.0
 11
78.22725423992843
 21
51.72315372742701
 31
0.0
  0
LINE
 62
3
  8
0
 10
0.0
 20
0.0
 30
0.0
 11
28.431671458865157
 21
0.0
 31
0.0
  0
LINE
 62
3
  8
0
 10
60.39722298606384
 20
0.0
 30
0.0
 11
78.22725423992843
 21
0.0
 31
0.0
  0
LINE
 62
3
  8
0
 10
6.746498312273088
 20
5.4614510146972615
 30
0.0
 11
19.75760220022833
 21
5.4614510146972615
 31
0.0
  0
LINE
 62
3
  8
0
 10
6.746498312273088
 20
45.94044088833579
 30
0.0
 11
19.75760220022833
 21
45.94044088833579
 31
0.0
  0
CIRCLE
 62
3
  8
0
 10
44.97665541515392
 20
23.130851356364875
 30
0.0
 40
11.565425678182438
  0
LINE
 62
7
  8
DIMENSIONS
 10
52.11321144761583
 20
15.339972859255045
 30
0.0
 11
52.78867462816698
 21
14.602579143713799
 31
0.0
  0
TEXT
 62
7
  8
DIMENSIONS
 10
51.9781188115056
 20
15.487451602363294
 30
0.0
 40
2.3130851356364874
  1
R=12
 50
-47.50987083139758
  7
ISOCPEUR
 72
2
 73
2
 11
51.9781188115056
 21
15.487451602363294
 31
0.0
  0
INSERT
  8
DIMENSIONS
  2
DIMTICK_RADIUS
 10
52.78867462816698
 20
14.602579143713799
 30
0.0
 41
11.565425678182438
 42
11.565425678182438
 50
132.49012916860244
  0
ENDSEC
  0
EOF
