  0
SECTION
  2
HEADER
  9
$ACADVER
  1
AC1009
  9
$INSBASE
 10
0.0
 20
0.0
 30
0.0
  9
$EXTMIN
 10
0.0
 20
0.0
 30
0.0
  9
$EXTMAX
 10
100.0
 20
100.0
 30
0.0
  9
$UNITMODE
 70
0
  9
$AUNITS
 70
0
  9
$ANGBASE
 50
0.0
  9
$ANGDIR
 70
0
  0
ENDSEC
  0
SECTION
  2
TABLES
  0
TABLE
  2
LTYPE
 70
19
  0
LTYPE
  2
CONTINUOUS
 70
0
  3
Solid
 72
65
 73
0
 40
0.0
  0
LTYPE
  2
CENTER
 70
0
  3
Center ____ _ ____ _ ____ _ ____ _ ____ _ ____
 72
65
 73
4
 40
2.0
 49
1.25
 49
-0.25
 49
0.25
 49
-0.25
  0
LTYPE
  2
CENTERX2
 70
0
  3
Center (2x) ________  __  ________  __  ________
 72
65
 73
4
 40
3.5
 49
2.5
 49
-0.25
 49
0.5
 49
-0.25
  0
LTYPE
  2
CENTER2
 70
0
  3
Center (.5x) ____ _ ____ _ ____ _ ____ _ ____
 72
65
 73
4
 40
1.0
 49
0.625
 49
-0.125
 49
0.125
 49
-0.125
  0
LTYPE
  2
DASHED
 70
0
  3
Dashed __ __ __ __ __ __ __ __ __ __ __ __ __ _
 72
65
 73
2
 40
0.6
 49
0.5
 49
-0.1
  0
LTYPE
  2
DASHEDX2
 70
0
  3
Dashed (2x) ____  ____  ____  ____  ____  ____
 72
65
 73
2
 40
1.2
 49
1.0
 49
-0.2
  0
LTYPE
  2
DASHED2
 70
0
  3
Dashed (.5x) _ _ _ _ _ _ _ _ _ _ _ _ _ _
 72
65
 73
2
 40
0.3
 49
0.25
 49
-0.05
  0
LTYPE
  2
PHANTOM
 70
0
  3
Phantom ______  __  __  ______  __  __  ______
 72
65
 73
6
 40
2.5
 49
1.25
 49
-0.25
 49
0.25
 49
-0.25
 49
0.25
 49
-0.25
  0
LTYPE
  2
PHANTOMX2
 70
0
  3
Phantom (2x)____________    ____    ____    ____________
 72
65
 73
6
 40
4.25
 49
2.5
 49
-0.25
 49
0.5
 49
-0.25
 49
0.5
 49
-0.25
  0
LTYPE
  2
PHANTOM2
 70
0
  3
Phantom (.5x) ___ _ _ ___ _ _ ___ _ _ ___ _ _ ___
 72
65
 73
6
 40
1.25
 49
0.625
 49
-0.125
 49
0.125
 49
-0.125
 49
0.125
 49
-0.125
  0
LTYPE
  2
DASHDOT
 70
0
  3
Dash dot __ . __ . __ . __ . __ . __ . __ . __
 72
65
 73
4
 40
1.4
 49
1.0
 49
-0.2
 49
0.0
 49
-0.2
  0
LTYPE
  2
DASHDOTX2
 70
0
  3
Dash dot (2x) ____  .  ____  .  ____  .  ____
 72
65
 73
4
 40
2.4
 49
2.0
 49
-0.2
 49
0.0
 49
-0.2
  0
LTYPE
  2
DASHDOT2
 70
0
  3
Dash dot (.5x) _ . _ . _ . _ . _ . _ . _ . _
 72
65
 73
4
 40
0.7
 49
0.5
 49
-0.1
 49
0.0
 49
-0.1
  0
LTYPE
  2
DOT
 70
0
  3
Dot .  .  .  .  .  .  .  .  .  .  .  .  .  .  .  .
 72
65
 73
2
 40
0.2
 49
0.0
 49
-0.2
  0
LTYPE
  2
DOTX2
 70
0
  3
Dot (2x) .    .    .    .    .    .    .    . 
 72
65
 73
2
 40
0.4
 49
0.0
 49
-0.4
  0
LTYPE
  2
DOT2
 70
0
  3
Dot (.5) . . . . . . . . . . . . . . . . . . . 
 72
65
 73
2
 40
0.1
 49
0.0
 49
-0.1
  0
LTYPE
  2
DIVIDE
 70
0
  3
Divide __ . . __ . . __ . . __ . . __ . . __
 72
65
 73
6
 40
1.6
 49
1.0
 49
-0.2
 49
0.0
 49
-0.2
 49
0.0
 49
-0.2
  0
LTYPE
  2
DIVIDEX2
 70
0
  3
Divide (2x) ____  . .  ____  . .  ____  . .  ____
 72
65
 73
6
 40
2.6
 49
2.0
 49
-0.2
 49
0.0
 49
-0.2
 49
0.0
 49
-0.2
  0
LTYPE
  2
DIVIDE2
 70
0
  3
Divide(.5x) _ . _ . _ . _ . _ . _ . _ . _
 72
65
 73
6
 40
0.8
 49
0.5
 49
-0.1
 49
0.0
 49
-0.1
 49
0.0
 49
-0.1
  0
ENDTAB
  0
TABLE
  2
LAYER
 70
5
  0
LAYER
  2
DIMENSIONS
 70
0
 62
1
  6
CONTINUOUS
  0
LAYER
  2
TABLEBACKGROUND
 70
0
 62
1
  6
CONTINUOUS
  0
LAYER
  2
TABLECONTENT
 70
0
 62
1
  6
CONTINUOUS
  0
LAYER
  2
TABLEGRID
 70
0
 62
1
  6
CONTINUOUS
  0
LAYER
  2
VIEWPORTS
 70
0
 62
7
  6
CONTINUOUS
  0
ENDTAB
  0
TABLE
  2
STYLE
 70
12
  0
STYLE
  2
STANDARD
 70
0
 40
0.0
 41
1.0
 42
1.0
 50
0.0
 71
0
  3
arial.ttf
  4

  0
STYLE
  2
ARIAL
 70
0
 40
0.0
 41
1.0
 42
1.0
 50
0.0
 71
0
  3
arial.ttf
  4

  0
STYLE
  2
ARIAL_BOLD
 70
0
 40
0.0
 41
1.0
 42
1.0
 50
0.0
 71
0
  3
arialbd.ttf
  4

  0
STYLE
  2
ARIAL_ITALIC
 70
0
 40
0.0
 41
1.0
 42
1.0
 50
0.0
 71
0
  3
ariali.ttf
  4

  0
STYLE
  2
ARIAL_BOLD_ITALIC
 70
0
 40
0.0
 41
1.0
 42
1.0
 50
0.0
 71
0
  3
arialbi.ttf
  4

  0
STYLE
  2
ARIAL_BLACK
 70
0
 40
0.0
 41
1.0
 42
1.0
 50
0.0
 71
0
  3
ariblk.ttf
  4

  0
STYLE
  2
ISOCPEUR
 70
0
 40
0.0
 41
1.0
 42
1.0
 50
0.0
 71
0
  3
isocpeur.ttf
  4

  0
STYLE
  2
ISOCPEUR_ITALIC
 70
0
 40
0.0
 41
1.0
 42
1.0
 50
0.0
 71
0
  3
isocpeui.ttf
  4

  0
STYLE
  2
TIMES
 70
0
 40
0.0
 41
1.0
 42
1.0
 50
0.0
 71
0
  3
times.ttf
  4

  0
STYLE
  2
TIMES_BOLD
 70
0
 40
0.0
 41
1.0
 42
1.0
 50
0.0
 71
0
  3
timesbd.ttf
  4

  0
STYLE
  2
TIMES_ITALIC
 70
0
 40
0.0
 41
1.0
 42
1.0
 50
0.0
 71
0
  3
timesi.ttf
  4

  0
STYLE
  2
TIMES_BOLD_ITALIC
 70
0
 40
0.0
 41
1.0
 42
1.0
 50
0.0
 71
0
  3
timesbi.ttf
  4

  0
ENDTAB
  0
TABLE
  2
VIEW
 70
0
  0
ENDTAB
  0
TABLE
  2
APPID
 70
1
  0
APPID
  2
DXFWRITE
 70
0
  0
ENDTAB
  0
TABLE
  2
VPORT
 70
0
  0
ENDTAB
  0
TABLE
  2
UCS
 70
0
  0
ENDTAB
  0
ENDSEC
  0
SECTION
  2
BLOCKS
  0
BLOCK
  8
0
  2
DIMTICK_ARCH
  3
DIMTICK_ARCH
 70
0
 10
0.0
 20
0.0
 30
0.0
  0
LINE
 62
5
  8
0
 10
0.0
 20
0.5
 30
0.0
 11
0.0
 21
-0.5
 31
0.0
  0
LINE
 62
4
  8
0
 10
-0.2
 20
-0.2
 30
0.0
 11
0.2
 21
0.2
 31
0.0
  0
ENDBLK
  0
BLOCK
  8
0
  2
DIMTICK_DOT
  3
DIMTICK_DOT
 70
0
 10
0.0
 20
0.0
 30
0.0
  0
LINE
 62
5
  8
0
 10
0.0
 20
0.5
 30
0.0
 11
0.0
 21
-0.5
 31
0.0
  0
CIRCLE
 62
4
  8
0
 10
0.0
 20
0.0
 30
0.0
 40
0.1
  0
ENDBLK
  0
BLOCK
  8
0
  2
DIMTICK_ARROW
  3
DIMTICK_ARROW
 70
0
 10
0.0
 20
0.0
 30
0.0
  0
LINE
 62
5
  8
0
 10
0.0
 20
0.5
 30
0.0
 11
0.0
 21
-0.5
 31
0.0
  0
SOLID
 62
7
  8
0
 10
0.0
 20
0.0
 30
0.0
 11
0.3
 21
0.05
 31
0.0
 13
0.3
 23
-0.05
 33
0.0
 12
0.3
 22
-0.05
 32
0.0
  0
ENDBLK
  0
BLOCK
  8
0
  2
DIMTICK_RADIUS
  3
DIMTICK_RADIUS
 70
0
 10
0.0
 20
0.0
 30
0.0
  0
SOLID
 62
7
  8
0
 10
0.0
 20
0.0
 30
0.0
 11
0.3
 21
0.05
 31
0.0
 13
0.25
 23
0.0
 33
0.0
 12
0.3
 22
-0.05
 32
0.0
  0
ENDBLK
  0
ENDSEC
  0
SECTION
  2
ENTITIES
  0
VIEWPORT
  8
VIEWPORTS
 67
1
 10
0.0
 20
0.0
 30
0.0
 40
1.0
 41
1.0
 68
1
 69
1
1001
ACAD
1000
MVIEW
1002
{
1070
16
1010
0.0
1020
0.0
1030
0.0
1010
0.0
1020
0.0
1030
0.0
1040
0.0
1040
1.0
1040
0.0
1040
0.0
1040
50.0
1040
0.0
1040
0.0
1070
0
1070
100
1070
1
1070
3
1070
0
1070
0
1070
0
1070
0
1040
0.0
1040
0.0
1040
0.0
1040
0.1
1040
0.1
1040
0.1
1040
0.1
1070
0
1002
{
1002
}
1002
}
  0
LINE
 62
3
  8
0
 10
0.9250742278609692
 20
4.0086549873975335
 30
0.0
 11
7.863130936818238
 21
4.0086549873975335
 31
0.0
  0
LINE
 62
3
  8
0
 10
0.9250742278609692
 20
1.1717606886238943
 30
0.0
 11
7.863130936818238
 21
1.1717606886238943
 31
0.0
  0
LINE
 62
7
  8
DIMENSIONS
 10
0.9250742278609692
 20
0.42176068862389426
 30
0.0
 11
7.863130936818238
 21
0.42176068862389426
 31
0.0
  0
LINE
 62
5
  8
DIMENSIONS
 10
0.9250742278609692
 20
0.42176068862389426
 30
0.0
 11
0.9250742278609692
 21
1.1717606886238943
 31
0.0
  0
LINE
 62
5
  8
DIMENSIONS
 10
7.863130936818238
 20
0.42176068862389426
 30
0.0
 11
7.863130936818238
 21
1.1717606886238943
 31
0.0
  0
TEXT
 62
7
  8
DIMENSIONS
 10
4.394102582339603
 20
0.7217606886238943
 30
0.0
 40
0.2
  1
7
 50
-0.0
  7
ISOCPEUR
 72
1
 73
2
 11
4.394102582339603
 21
0.7217606886238943
 31
0.0
  0
INSERT
  8
DIMENSIONS
  2
DIMTICK_ARROW
 10
0.9250742278609692
 20
0.42176068862389426
 30
0.0
 41
1.0
 42
1.0
 50
0.0
  0
INSERT
  8
DIMENSIONS
  2
DIMTICK_ARROW
 10
7.863130936818238
 20
0.42176068862389426
 30
0.0
 41
1.0
 42
1.0
 50
180.0
  0
LINE
 62
7
  8
DIMENSIONS
 10
0.9250742278609692
 20
0.42176068862389426
 30
0.0
 11
7.863130936818238
 21
0.42176068862389426
 31
0.0
  0
LINE
 62
5
  8
DIMENSIONS
 10
0.9250742278609692
 20
0.42176068862389426
 30
0.0
 11
0.9250742278609692
 21
1.1717606886238943
 31
0.0
  0
LINE
 62
5
  8
DIMENSIONS
 10
7.863130936818238
 20
0.42176068862389426
 30
0.0
 11
7.863130936818238
 21
1.1717606886238943
 31
0.0
  0
TEXT
 62
7
  8
DIMENSIONS
 10
4.394102582339603
 20
0.7217606886238943
 30
0.0
 40
0.2
  1
7
 50
-0.0
  7
ISOCPEUR
 72
1
 73
2
 11
4.394102582339603
 21
0.7217606886238943
 31
0.0
  0
INSERT
  8
DIMENSIONS
  2
DIMTICK_ARROW
 10
0.9250742278609692
 20
0.42176068862389426
 30
0.0
 41
1.0
 42
1.0
 50
0.0
  0
INSERT
  8
DIMENSIONS
  2
DIMTICK_ARROW
 10
7.863130936818238
 20
0.42176068862389426
 30
0.0
 41
1.0
 42
1.0
 50
180.0
  0
LINE
 62
7
  8
DIMENSIONS
 10
0.9250742278609692
 20
0.42176068862389426
 30
0.0
 11
7.863130936818238
 21
0.42176068862389426
 31
0.0
  0
LINE
 62
5
  8
DIMENSIONS
 10
0.9250742278609692
 20
0.42176068862389426
 30
0.0
 11
0.9250742278609692
 21
1.1717606886238943
 31
0.0
  0
LINE
 62
5
  8
DIMENSIONS
 10
7.863130936818238
 20
0.42176068862389426
 30
0.0
 11
7.863130936818238
 21
1.1717606886238943
 31
0.0
  0
TEXT
 62
7
  8
DIMENSIONS
 10
4.394102582339603
 20
0.7217606886238943
 30
0.0
 40
0.2
  1
7
 50
-0.0
  7
ISOCPEUR
 72
1
 73
2
 11
4.394102582339603
 21
0.7217606886238943
 31
0.0
  0
INSERT
  8
DIMENSIONS
  2
DIMTICK_ARROW
 10
0.9250742278609692
 20
0.42176068862389426
 30
0.0
 41
1.0
 42
1.0
 50
0.0
  0
INSERT
  8
DIMENSIONS
  2
DIMTICK_ARROW
 10
7.863130936818238
 20
0.42176068862389426
 30
0.0
 41
1.0
 42
1.0
 50
180.0
  0
LINE
 62
7
  8
DIMENSIONS
 10
0.9250742278609692
 20
0.42176068862389426
 30
0.0
 11
7.863130936818238
 21
0.42176068862389426
 31
0.0
  0
LINE
 62
5
  8
DIMENSIONS
 10
0.9250742278609692
 20
0.42176068862389426
 30
0.0
 11
0.9250742278609692
 21
1.1717606886238943
 31
0.0
  0
LINE
 62
5
  8
DIMENSIONS
 10
7.863130936818238
 20
0.42176068862389426
 30
0.0
 11
7.863130936818238
 21
1.1717606886238943
 31
0.0
  0
TEXT
 62
7
  8
DIMENSIONS
 10
4.394102582339603
 20
0.7217606886238943
 30
0.0
 40
0.2
  1
7
 50
-0.0
  7
ISOCPEUR
 72
1
 73
2
 11
4.394102582339603
 21
0.7217606886238943
 31
0.0
  0
INSERT
  8
DIMENSIONS
  2
DIMTICK_ARROW
 10
0.9250742278609692
 20
0.42176068862389426
 30
0.0
 41
1.0
 42
1.0
 50
0.0
  0
INSERT
  8
DIMENSIONS
  2
DIMTICK_ARROW
 10
7.863130936818238
 20
0.42176068862389426
 30
0.0
 41
1.0
 42
1.0
 50
180.0
  0
LINE
 62
7
  8
DIMENSIONS
 10
0.9250742278609692
 20
0.42176068862389426
 30
0.0
 11
7.863130936818238
 21
0.42176068862389426
 31
0.0
  0
LINE
 62
5
  8
DIMENSIONS
 10
0.9250742278609692
 20
0.42176068862389426
 30
0.0
 11
0.9250742278609692
 21
1.1717606886238943
 31
0.0
  0
LINE
 62
5
  8
DIMENSIONS
 10
7.863130936818238
 20
0.42176068862389426
 30
0.0
 11
7.863130936818238
 21
1.1717606886238943
 31
0.0
  0
TEXT
 62
7
  8
DIMENSIONS
 10
4.394102582339603
 20
0.7217606886238943
 30
0.0
 40
0.2
  1
7
 50
-0.0
  7
ISOCPEUR
 72
1
 73
2
 11
4.394102582339603
 21
0.7217606886238943
 31
0.0
  0
INSERT
  8
DIMENSIONS
  2
DIMTICK_ARROW
 10
0.9250742278609692
 20
0.42176068862389426
 30
0.0
 41
1.0
 42
1.0
 50
0.0
  0
INSERT
  8
DIMENSIONS
  2
DIMTICK_ARROW
 10
7.863130936818238
 20
0.42176068862389426
 30
0.0
 41
1.0
 42
1.0
 50
180.0
  0
LINE
 62
7
  8
DIMENSIONS
 10
0.9250742278609692
 20
0.42176068862389426
 30
0.0
 11
7.863130936818238
 21
0.42176068862389426
 31
0.0
  0
LINE
 62
5
  8
DIMENSIONS
 10
0.9250742278609692
 20
0.42176068862389426
 30
0.0
 11
0.9250742278609692
 21
1.1717606886238943
 31
0.0
  0
LINE
 62
5
  8
DIMENSIONS
 10
7.863130936818238
 20
0.42176068862389426
 30
0.0
 11
7.863130936818238
 21
1.1717606886238943
 31
0.0
  0
TEXT
 62
7
  8
DIMENSIONS
 10
4.394102582339603
 20
0.7217606886238943
 30
0.0
 40
0.2
  1
7
 50
-0.0
  7
ISOCPEUR
 72
1
 73
2
 11
4.394102582339603
 21
0.7217606886238943
 31
0.0
  0
INSERT
  8
DIMENSIONS
  2
DIMTICK_ARROW
 10
0.9250742278609692
 20
0.42176068862389426
 30
0.0
 41
1.0
 42
1.0
 50
0.0
  0
INSERT
  8
DIMENSIONS
  2
DIMTICK_ARROW
 10
7.863130936818238
 20
0.42176068862389426
 30
0.0
 41
1.0
 42
1.0
 50
180.0
  0
LINE
 62
7
  8
DIMENSIONS
 10
0.9250742278609692
 20
0.42176068862389426
 30
0.0
 11
7.863130936818238
 21
0.42176068862389426
 31
0.0
  0
LINE
 62
5
  8
DIMENSIONS
 10
0.9250742278609692
 20
0.42176068862389426
 30
0.0
 11
0.9250742278609692
 21
1.1717606886238943
 31
0.0
  0
LINE
 62
5
  8
DIMENSIONS
 10
7.863130936818238
 20
0.42176068862389426
 30
0.0
 11
7.863130936818238
 21
1.1717606886238943
 31
0.0
  0
TEXT
 62
7
  8
DIMENSIONS
 10
4.394102582339603
 20
0.7217606886238943
 30
0.0
 40
0.2
  1
7
 50
-0.0
  7
ISOCPEUR
 72
1
 73
2
 11
4.394102582339603
 21
0.7217606886238943
 31
0.0
  0
INSERT
  8
DIMENSIONS
  2
DIMTICK_ARROW
 10
0.9250742278609692
 20
0.42176068862389426
 30
0.0
 41
1.0
 42
1.0
 50
0.0
  0
INSERT
  8
DIMENSIONS
  2
DIMTICK_ARROW
 10
7.863130936818238
 20
0.42176068862389426
 30
0.0
 41
1.0
 42
1.0
 50
180.0
  0
LINE
 62
7
  8
DIMENSIONS
 10
0.9250742278609692
 20
0.42176068862389426
 30
0.0
 11
7.863130936818238
 21
0.42176068862389426
 31
0.0
  0
LINE
 62
5
  8
DIMENSIONS
 10
0.9250742278609692
 20
0.42176068862389426
 30
0.0
 11
0.9250742278609692
 21
1.1717606886238943
 31
0.0
  0
LINE
 62
5
  8
DIMENSIONS
 10
7.863130936818238
 20
0.42176068862389426
 30
0.0
 11
7.863130936818238
 21
1.1717606886238943
 31
0.0
  0
TEXT
 62
7
  8
DIMENSIONS
 10
4.394102582339603
 20
0.7217606886238943
 30
0.0
 40
0.2
  1
7
 50
-0.0
  7
ISOCPEUR
 72
1
 73
2
 11
4.394102582339603
 21
0.7217606886238943
 31
0.0
  0
INSERT
  8
DIMENSIONS
  2
DIMTICK_ARROW
 10
0.9250742278609692
 20
0.42176068862389426
 30
0.0
 41
1.0
 42
1.0
 50
0.0
  0
INSERT
  8
DIMENSIONS
  2
DIMTICK_ARROW
 10
7.863130936818238
 20
0.42176068862389426
 30
0.0
 41
1.0
 42
1.0
 50
180.0
  0
LINE
 62
7
  8
DIMENSIONS
 10
0.9250742278609692
 20
0.42176068862389426
 30
0.0
 11
7.863130936818238
 21
0.42176068862389426
 31
0.0
  0
LINE
 62
5
  8
DIMENSIONS
 10
0.9250742278609692
 20
0.42176068862389426
 30
0.0
 11
0.9250742278609692
 21
1.1717606886238943
 31
0.0
  0
LINE
 62
5
  8
DIMENSIONS
 10
7.863130936818238
 20
0.42176068862389426
 30
0.0
 11
7.863130936818238
 21
1.1717606886238943
 31
0.0
  0
TEXT
 62
7
  8
DIMENSIONS
 10
4.394102582339603
 20
0.7217606886238943
 30
0.0
 40
0.2
  1
7
 50
-0.0
  7
ISOCPEUR
 72
1
 73
2
 11
4.394102582339603
 21
0.7217606886238943
 31
0.0
  0
INSERT
  8
DIMENSIONS
  2
DIMTICK_ARROW
 10
0.9250742278609692
 20
0.42176068862389426
 30
0.0
 41
1.0
 42
1.0
 50
0.0
  0
INSERT
  8
DIMENSIONS
  2
DIMTICK_ARROW
 10
7.863130936818238
 20
0.42176068862389426
 30
0.0
 41
1.0
 42
1.0
 50
180.0
  0
LINE
 62
7
  8
DIMENSIONS
 10
0.9250742278609692
 20
0.42176068862389426
 30
0.0
 11
7.863130936818238
 21
0.42176068862389426
 31
0.0
  0
LINE
 62
5
  8
DIMENSIONS
 10
0.9250742278609692
 20
0.42176068862389426
 30
0.0
 11
0.9250742278609692
 21
1.1717606886238943
 31
0.0
  0
LINE
 62
5
  8
DIMENSIONS
 10
7.863130936818238
 20
0.42176068862389426
 30
0.0
 11
7.863130936818238
 21
1.1717606886238943
 31
0.0
  0
TEXT
 62
7
  8
DIMENSIONS
 10
4.394102582339603
 20
0.7217606886238943
 30
0.0
 40
0.2
  1
7
 50
-0.0
  7
ISOCPEUR
 72
1
 73
2
 11
4.394102582339603
 21
0.7217606886238943
 31
0.0
  0
INSERT
  8
DIMENSIONS
  2
DIMTICK_ARROW
 10
0.9250742278609692
 20
0.42176068862389426
 30
0.0
 41
1.0
 42
1.0
 50
0.0
  0
INSERT
  8
DIMENSIONS
  2
DIMTICK_ARROW
 10
7.863130936818238
 20
0.42176068862389426
 30
0.0
 41
1.0
 42
1.0
 50
180.0
  0
LINE
 62
7
  8
DIMENSIONS
 10
0.9250742278609692
 20
0.42176068862389426
 30
0.0
 11
7.863130936818238
 21
0.42176068862389426
 31
0.0
  0
LINE
 62
5
  8
DIMENSIONS
 10
0.9250742278609692
 20
0.42176068862389426
 30
0.0
 11
0.9250742278609692
 21
1.1717606886238943
 31
0.0
  0
LINE
 62
5
  8
DIMENSIONS
 10
7.863130936818238
 20
0.42176068862389426
 30
0.0
 11
7.863130936818238
 21
1.1717606886238943
 31
0.0
  0
TEXT
 62
7
  8
DIMENSIONS
 10
4.394102582339603
 20
0.7217606886238943
 30
0.0
 40
0.2
  1
7
 50
-0.0
  7
ISOCPEUR
 72
1
 73
2
 11
4.394102582339603
 21
0.7217606886238943
 31
0.0
  0
INSERT
  8
DIMENSIONS
  2
DIMTICK_ARROW
 10
0.9250742278609692
 20
0.42176068862389426
 30
0.0
 41
1.0
 42
1.0
 50
0.0
  0
INSERT
  8
DIMENSIONS
  2
DIMTICK_ARROW
 10
7.863130936818238
 20
0.42176068862389426
 30
0.0
 41
1.0
 42
1.0
 50
180.0
  0
LINE
 62
7
  8
DIMENSIONS
 10
0.9250742278609692
 20
0.42176068862389426
 30
0.0
 11
7.863130936818238
 21
0.42176068862389426
 31
0.0
  0
LINE
 62
5
  8
DIMENSIONS
 10
0.9250742278609692
 20
0.42176068862389426
 30
0.0
 11
0.9250742278609692
 21
1.1717606886238943
 31
0.0
  0
LINE
 62
5
  8
DIMENSIONS
 10
7.863130936818238
 20
0.42176068862389426
 30
0.0
 11
7.863130936818238
 21
1.1717606886238943
 31
0.0
  0
TEXT
 62
7
  8
DIMENSIONS
 10
4.394102582339603
 20
0.7217606886238943
 30
0.0
 40
0.2
  1
7
 50
-0.0
  7
ISOCPEUR
 72
1
 73
2
 11
4.394102582339603
 21
0.7217606886238943
 31
0.0
  0
INSERT
  8
DIMENSIONS
  2
DIMTICK_ARROW
 10
0.9250742278609692
 20
0.42176068862389426
 30
0.0
 41
1.0
 42
1.0
 50
0.0
  0
INSERT
  8
DIMENSIONS
  2
DIMTICK_ARROW
 10
7.863130936818238
 20
0.42176068862389426
 30
0.0
 41
1.0
 42
1.0
 50
180.0
  0
LINE
 62
7
  8
DIMENSIONS
 10
0.9250742278609692
 20
0.42176068862389426
 30
0.0
 11
7.863130936818238
 21
0.42176068862389426
 31
0.0
  0
LINE
 62
5
  8
DIMENSIONS
 10
0.9250742278609692
 20
0.42176068862389426
 30
0.0
 11
0.9250742278609692
 21
1.1717606886238943
 31
0.0
  0
LINE
 62
5
  8
DIMENSIONS
 10
7.863130936818238
 20
0.42176068862389426
 30
0.0
 11
7.863130936818238
 21
1.1717606886238943
 31
0.0
  0
TEXT
 62
7
  8
DIMENSIONS
 10
4.394102582339603
 20
0.7217606886238943
 30
0.0
 40
0.2
  1
7
 50
-0.0
  7
ISOCPEUR
 72
1
 73
2
 11
4.394102582339603
 21
0.7217606886238943
 31
0.0
  0
INSERT
  8
DIMENSIONS
  2
DIMTICK_ARROW
 10
0.9250742278609692
 20
0.42176068862389426
 30
0.0
 41
1.0
 42
1.0
 50
0.0
  0
INSERT
  8
DIMENSIONS
  2
DIMTICK_ARROW
 10
7.863130936818238
 20
0.42176068862389426
 30
0.0
 41
1.0
 42
1.0
 50
180.0
  0
LINE
 62
7
  8
DIMENSIONS
 10
0.9250742278609692
 20
0.42176068862389426
 30
0.0
 11
7.863130936818238
 21
0.42176068862389426
 31
0.0
  0
LINE
 62
5
  8
DIMENSIONS
 10
0.9250742278609692
 20
0.42176068862389426
 30
0.0
 11
0.9250742278609692
 21
1.1717606886238943
 31
0.0
  0
LINE
 62
5
  8
DIMENSIONS
 10
7.863130936818238
 20
0.42176068862389426
 30
0.0
 11
7.863130936818238
 21
1.1717606886238943
 31
0.0
  0
TEXT
 62
7
  8
DIMENSIONS
 10
4.394102582339603
 20
0.7217606886238943
 30
0.0
 40
0.2
  1
7
 50
-0.0
  7
ISOCPEUR
 72
1
 73
2
 11
4.394102582339603
 21
0.7217606886238943
 31
0.0
  0
INSERT
  8
DIMENSIONS
  2
DIMTICK_ARROW
 10
0.9250742278609692
 20
0.42176068862389426
 30
0.0
 41
1.0
 42
1.0
 50
0.0
  0
INSERT
  8
DIMENSIONS
  2
DIMTICK_ARROW
 10
7.863130936818238
 20
0.42176068862389426
 30
0.0
 41
1.0
 42
1.0
 50
180.0
  0
LINE
 62
7
  8
DIMENSIONS
 10
0.9250742278609692
 20
0.42176068862389426
 30
0.0
 11
7.863130936818238
 21
0.42176068862389426
 31
0.0
  0
LINE
 62
5
  8
DIMENSIONS
 10
0.9250742278609692
 20
0.42176068862389426
 30
0.0
 11
0.9250742278609692
 21
1.1717606886238943
 31
0.0
  0
LINE
 62
5
  8
DIMENSIONS
 10
7.863130936818238
 20
0.42176068862389426
 30
0.0
 11
7.863130936818238
 21
1.1717606886238943
 31
0.0
  0
TEXT
 62
7
  8
DIMENSIONS
 10
4.394102582339603
 20
0.7217606886238943
 30
0.0
 40
0.2
  1
7
 50
-0.0
  7
ISOCPEUR
 72
1
 73
2
 11
4.394102582339603
 21
0.7217606886238943
 31
0.0
  0
INSERT
  8
DIMENSIONS
  2
DIMTICK_ARROW
 10
0.9250742278609692
 20
0.42176068862389426
 30
0.0
 41
1.0
 42
1.0
 50
0.0
  0
INSERT
  8
DIMENSIONS
  2
DIMTICK_ARROW
 10
7.863130936818238
 20
0.42176068862389426
 30
0.0
 41
1.0
 42
1.0
 50
180.0
  0
LINE
 62
3
  8
0
 10
0.0
 20
0.0
 30
0.0
 11
8.603190319107014
 21
0.0
 31
0.0
  0
LINE
 62
7
  8
DIMENSIONS
 10
0.0
 20
-0.93
 30
0.0
 11
8.603190319107014
 21
-0.93
 31
0.0
  0
LINE
 62
5
  8
DIMENSIONS
 10
0.0
 20
-0.93
 30
0.0
 11
0.0
 21
0.0
 31
0.0
  0
LINE
 62
5
  8
DIMENSIONS
 10
8.603190319107014
 20
-0.93
 30
0.0
 11
8.603190319107014
 21
0.0
 31
0.0
  0
TEXT
 62
7
  8
DIMENSIONS
 10
4.301595159553507
 20
-0.63
 30
0.0
 40
0.2
  1
9
 50
-0.0
  7
ISOCPEUR
 72
1
 73
2
 11
4.301595159553507
 21
-0.63
 31
0.0
  0
INSERT
  8
DIMENSIONS
  2
DIMTICK_ARROW
 10
0.0
 20
-0.93
 30
0.0
 41
1.0
 42
1.0
 50
0.0
  0
INSERT
  8
DIMENSIONS
  2
DIMTICK_ARROW
 10
8.603190319107014
 20
-0.93
 30
0.0
 41
1.0
 42
1.0
 50
180.0
  0
LINE
 62
7
  8
DIMENSIONS
 10
0.0
 20
-0.93
 30
0.0
 11
8.603190319107014
 21
-0.93
 31
0.0
  0
LINE
 62
5
  8
DIMENSIONS
 10
0.0
 20
-0.93
 30
0.0
 11
0.0
 21
0.0
 31
0.0
  0
LINE
 62
5
  8
DIMENSIONS
 10
8.603190319107014
 20
-0.93
 30
0.0
 11
8.603190319107014
 21
0.0
 31
0.0
  0
TEXT
 62
7
  8
DIMENSIONS
 10
4.301595159553507
 20
-0.63
 30
0.0
 40
0.2
  1
9
 50
-0.0
  7
ISOCPEUR
 72
1
 73
2
 11
4.301595159553507
 21
-0.63
 31
0.0
  0
INSERT
  8
DIMENSIONS
  2
DIMTICK_ARROW
 10
0.0
 20
-0.93
 30
0.0
 41
1.0
 42
1.0
 50
0.0
  0
INSERT
  8
DIMENSIONS
  2
DIMTICK_ARROW
 10
8.603190319107014
 20
-0.93
 30
0.0
 41
1.0
 42
1.0
 50
180.0
  0
LINE
 62
7
  8
DIMENSIONS
 10
0.0
 20
-0.93
 30
0.0
 11
8.603190319107014
 21
-0.93
 31
0.0
  0
LINE
 62
5
  8
DIMENSIONS
 10
0.0
 20
-0.93
 30
0.0
 11
0.0
 21
0.0
 31
0.0
  0
LINE
 62
5
  8
DIMENSIONS
 10
8.603190319107014
 20
-0.93
 30
0.0
 11
8.603190319107014
 21
0.0
 31
0.0
  0
TEXT
 62
7
  8
DIMENSIONS
 10
4.301595159553507
 20
-0.63
 30
0.0
 40
0.2
  1
9
 50
-0.0
  7
ISOCPEUR
 72
1
 73
2
 11
4.301595159553507
 21
-0.63
 31
0.0
  0
INSERT
  8
DIMENSIONS
  2
DIMTICK_ARROW
 10
0.0
 20
-0.93
 30
0.0
 41
1.0
 42
1.0
 50
0.0
  0
INSERT
  8
DIMENSIONS
  2
DIMTICK_ARROW
 10
8.603190319107014
 20
-0.93
 30
0.0
 41
1.0
 42
1.0
 50
180.0
  0
LINE
 62
7
  8
DIMENSIONS
 10
0.0
 20
-0.93
 30
0.0
 11
8.603190319107014
 21
-0.93
 31
0.0
  0
LINE
 62
5
  8
DIMENSIONS
 10
0.0
 20
-0.93
 30
0.0
 11
0.0
 21
0.0
 31
0.0
  0
LINE
 62
5
  8
DIMENSIONS
 10
8.603190319107014
 20
-0.93
 30
0.0
 11
8.603190319107014
 21
0.0
 31
0.0
  0
TEXT
 62
7
  8
DIMENSIONS
 10
4.301595159553507
 20
-0.63
 30
0.0
 40
0.2
  1
9
 50
-0.0
  7
ISOCPEUR
 72
1
 73
2
 11
4.301595159553507
 21
-0.63
 31
0.0
  0
INSERT
  8
DIMENSIONS
  2
DIMTICK_ARROW
 10
0.0
 20
-0.93
 30
0.0
 41
1.0
 42
1.0
 50
0.0
  0
INSERT
  8
DIMENSIONS
  2
DIMTICK_ARROW
 10
8.603190319107014
 20
-0.93
 30
0.0
 41
1.0
 42
1.0
 50
180.0
  0
LINE
 62
7
  8
DIMENSIONS
 10
0.0
 20
-0.93
 30
0.0
 11
8.603190319107014
 21
-0.93
 31
0.0
  0
LINE
 62
5
  8
DIMENSIONS
 10
0.0
 20
-0.93
 30
0.0
 11
0.0
 21
0.0
 31
0.0
  0
LINE
 62
5
  8
DIMENSIONS
 10
8.603190319107014
 20
-0.93
 30
0.0
 11
8.603190319107014
 21
0.0
 31
0.0
  0
TEXT
 62
7
  8
DIMENSIONS
 10
4.301595159553507
 20
-0.63
 30
0.0
 40
0.2
  1
9
 50
-0.0
  7
ISOCPEUR
 72
1
 73
2
 11
4.301595159553507
 21
-0.63
 31
0.0
  0
INSERT
  8
DIMENSIONS
  2
DIMTICK_ARROW
 10
0.0
 20
-0.93
 30
0.0
 41
1.0
 42
1.0
 50
0.0
  0
INSERT
  8
DIMENSIONS
  2
DIMTICK_ARROW
 10
8.603190319107014
 20
-0.93
 30
0.0
 41
1.0
 42
1.0
 50
180.0
  0
LINE
 62
7
  8
DIMENSIONS
 10
0.0
 20
-0.93
 30
0.0
 11
8.603190319107014
 21
-0.93
 31
0.0
  0
LINE
 62
5
  8
DIMENSIONS
 10
0.0
 20
-0.93
 30
0.0
 11
0.0
 21
0.0
 31
0.0
  0
LINE
 62
5
  8
DIMENSIONS
 10
8.603190319107014
 20
-0.93
 30
0.0
 11
8.603190319107014
 21
0.0
 31
0.0
  0
TEXT
 62
7
  8
DIMENSIONS
 10
4.301595159553507
 20
-0.63
 30
0.0
 40
0.2
  1
9
 50
-0.0
  7
ISOCPEUR
 72
1
 73
2
 11
4.301595159553507
 21
-0.63
 31
0.0
  0
INSERT
  8
DIMENSIONS
  2
DIMTICK_ARROW
 10
0.0
 20
-0.93
 30
0.0
 41
1.0
 42
1.0
 50
0.0
  0
INSERT
  8
DIMENSIONS
  2
DIMTICK_ARROW
 10
8.603190319107014
 20
-0.93
 30
0.0
 41
1.0
 42
1.0
 50
180.0
  0
LINE
 62
7
  8
DIMENSIONS
 10
0.0
 20
-0.93
 30
0.0
 11
8.603190319107014
 21
-0.93
 31
0.0
  0
LINE
 62
5
  8
DIMENSIONS
 10
0.0
 20
-0.93
 30
0.0
 11
0.0
 21
0.0
 31
0.0
  0
LINE
 62
5
  8
DIMENSIONS
 10
8.603190319107014
 20
-0.93
 30
0.0
 11
8.603190319107014
 21
0.0
 31
0.0
  0
TEXT
 62
7
  8
DIMENSIONS
 10
4.301595159553507
 20
-0.63
 30
0.0
 40
0.2
  1
9
 50
-0.0
  7
ISOCPEUR
 72
1
 73
2
 11
4.301595159553507
 21
-0.63
 31
0.0
  0
INSERT
  8
DIMENSIONS
  2
DIMTICK_ARROW
 10
0.0
 20
-0.93
 30
0.0
 41
1.0
 42
1.0
 50
0.0
  0
INSERT
  8
DIMENSIONS
  2
DIMTICK_ARROW
 10
8.603190319107014
 20
-0.93
 30
0.0
 41
1.0
 42
1.0
 50
180.0
  0
LINE
 62
7
  8
DIMENSIONS
 10
0.0
 20
-0.93
 30
0.0
 11
8.603190319107014
 21
-0.93
 31
0.0
  0
LINE
 62
5
  8
DIMENSIONS
 10
0.0
 20
-0.93
 30
0.0
 11
0.0
 21
0.0
 31
0.0
  0
LINE
 62
5
  8
DIMENSIONS
 10
8.603190319107014
 20
-0.93
 30
0.0
 11
8.603190319107014
 21
0.0
 31
0.0
  0
TEXT
 62
7
  8
DIMENSIONS
 10
4.301595159553507
 20
-0.63
 30
0.0
 40
0.2
  1
9
 50
-0.0
  7
ISOCPEUR
 72
1
 73
2
 11
4.301595159553507
 21
-0.63
 31
0.0
  0
INSERT
  8
DIMENSIONS
  2
DIMTICK_ARROW
 10
0.0
 20
-0.93
 30
0.0
 41
1.0
 42
1.0
 50
0.0
  0
INSERT
  8
DIMENSIONS
  2
DIMTICK_ARROW
 10
8.603190319107014
 20
-0.93
 30
0.0
 41
1.0
 42
1.0
 50
180.0
  0
LINE
 62
7
  8
DIMENSIONS
 10
0.0
 20
-0.93
 30
0.0
 11
8.603190319107014
 21
-0.93
 31
0.0
  0
LINE
 62
5
  8
DIMENSIONS
 10
0.0
 20
-0.93
 30
0.0
 11
0.0
 21
0.0
 31
0.0
  0
LINE
 62
5
  8
DIMENSIONS
 10
8.603190319107014
 20
-0.93
 30
0.0
 11
8.603190319107014
 21
0.0
 31
0.0
  0
TEXT
 62
7
  8
DIMENSIONS
 10
4.301595159553507
 20
-0.63
 30
0.0
 40
0.2
  1
9
 50
-0.0
  7
ISOCPEUR
 72
1
 73
2
 11
4.301595159553507
 21
-0.63
 31
0.0
  0
INSERT
  8
DIMENSIONS
  2
DIMTICK_ARROW
 10
0.0
 20
-0.93
 30
0.0
 41
1.0
 42
1.0
 50
0.0
  0
INSERT
  8
DIMENSIONS
  2
DIMTICK_ARROW
 10
8.603190319107014
 20
-0.93
 30
0.0
 41
1.0
 42
1.0
 50
180.0
  0
LINE
 62
7
  8
DIMENSIONS
 10
0.0
 20
-0.93
 30
0.0
 11
8.603190319107014
 21
-0.93
 31
0.0
  0
LINE
 62
5
  8
DIMENSIONS
 10
0.0
 20
-0.93
 30
0.0
 11
0.0
 21
0.0
 31
0.0
  0
LINE
 62
5
  8
DIMENSIONS
 10
8.603190319107014
 20
-0.93
 30
0.0
 11
8.603190319107014
 21
0.0
 31
0.0
  0
TEXT
 62
7
  8
DIMENSIONS
 10
4.301595159553507
 20
-0.63
 30
0.0
 40
0.2
  1
9
 50
-0.0
  7
ISOCPEUR
 72
1
 73
2
 11
4.301595159553507
 21
-0.63
 31
0.0
  0
INSERT
  8
DIMENSIONS
  2
DIMTICK_ARROW
 10
0.0
 20
-0.93
 30
0.0
 41
1.0
 42
1.0
 50
0.0
  0
INSERT
  8
DIMENSIONS
  2
DIMTICK_ARROW
 10
8.603190319107014
 20
-0.93
 30
0.0
 41
1.0
 42
1.0
 50
180.0
  0
LINE
 62
7
  8
DIMENSIONS
 10
0.0
 20
-0.93
 30
0.0
 11
8.603190319107014
 21
-0.93
 31
0.0
  0
LINE
 62
5
  8
DIMENSIONS
 10
0.0
 20
-0.93
 30
0.0
 11
0.0
 21
0.0
 31
0.0
  0
LINE
 62
5
  8
DIMENSIONS
 10
8.603190319107014
 20
-0.93
 30
0.0
 11
8.603190319107014
 21
0.0
 31
0.0
  0
TEXT
 62
7
  8
DIMENSIONS
 10
4.301595159553507
 20
-0.63
 30
0.0
 40
0.2
  1
9
 50
-0.0
  7
ISOCPEUR
 72
1
 73
2
 11
4.301595159553507
 21
-0.63
 31
0.0
  0
INSERT
  8
DIMENSIONS
  2
DIMTICK_ARROW
 10
0.0
 20
-0.93
 30
0.0
 41
1.0
 42
1.0
 50
0.0
  0
INSERT
  8
DIMENSIONS
  2
DIMTICK_ARROW
 10
8.603190319107014
 20
-0.93
 30
0.0
 41
1.0
 42
1.0
 50
180.0
  0
LINE
 62
7
  8
DIMENSIONS
 10
0.0
 20
-0.93
 30
0.0
 11
8.603190319107014
 21
-0.93
 31
0.0
  0
LINE
 62
5
  8
DIMENSIONS
 10
0.0
 20
-0.93
 30
0.0
 11
0.0
 21
0.0
 31
0.0
  0
LINE
 62
5
  8
DIMENSIONS
 10
8.603190319107014
 20
-0.93
 30
0.0
 11
8.603190319107014
 21
0.0
 31
0.0
  0
TEXT
 62
7
  8
DIMENSIONS
 10
4.301595159553507
 20
-0.63
 30
0.0
 40
0.2
  1
9
 50
-0.0
  7
ISOCPEUR
 72
1
 73
2
 11
4.301595159553507
 21
-0.63
 31
0.0
  0
INSERT
  8
DIMENSIONS
  2
DIMTICK_ARROW
 10
0.0
 20
-0.93
 30
0.0
 41
1.0
 42
1.0
 50
0.0
  0
INSERT
  8
DIMENSIONS
  2
DIMTICK_ARROW
 10
8.603190319107014
 20
-0.93
 30
0.0
 41
1.0
 42
1.0
 50
180.0
  0
LINE
 62
7
  8
DIMENSIONS
 10
0.0
 20
-0.93
 30
0.0
 11
8.603190319107014
 21
-0.93
 31
0.0
  0
LINE
 62
5
  8
DIMENSIONS
 10
0.0
 20
-0.93
 30
0.0
 11
0.0
 21
0.0
 31
0.0
  0
LINE
 62
5
  8
DIMENSIONS
 10
8.603190319107014
 20
-0.93
 30
0.0
 11
8.603190319107014
 21
0.0
 31
0.0
  0
TEXT
 62
7
  8
DIMENSIONS
 10
4.301595159553507
 20
-0.63
 30
0.0
 40
0.2
  1
9
 50
-0.0
  7
ISOCPEUR
 72
1
 73
2
 11
4.301595159553507
 21
-0.63
 31
0.0
  0
INSERT
  8
DIMENSIONS
  2
DIMTICK_ARROW
 10
0.0
 20
-0.93
 30
0.0
 41
1.0
 42
1.0
 50
0.0
  0
INSERT
  8
DIMENSIONS
  2
DIMTICK_ARROW
 10
8.603190319107014
 20
-0.93
 30
0.0
 41
1.0
 42
1.0
 50
180.0
  0
LINE
 62
7
  8
DIMENSIONS
 10
0.0
 20
-0.93
 30
0.0
 11
8.603190319107014
 21
-0.93
 31
0.0
  0
LINE
 62
5
  8
DIMENSIONS
 10
0.0
 20
-0.93
 30
0.0
 11
0.0
 21
0.0
 31
0.0
  0
LINE
 62
5
  8
DIMENSIONS
 10
8.603190319107014
 20
-0.93
 30
0.0
 11
8.603190319107014
 21
0.0
 31
0.0
  0
TEXT
 62
7
  8
DIMENSIONS
 10
4.301595159553507
 20
-0.63
 30
0.0
 40
0.2
  1
9
 50
-0.0
  7
ISOCPEUR
 72
1
 73
2
 11
4.301595159553507
 21
-0.63
 31
0.0
  0
INSERT
  8
DIMENSIONS
  2
DIMTICK_ARROW
 10
0.0
 20
-0.93
 30
0.0
 41
1.0
 42
1.0
 50
0.0
  0
INSERT
  8
DIMENSIONS
  2
DIMTICK_ARROW
 10
8.603190319107014
 20
-0.93
 30
0.0
 41
1.0
 42
1.0
 50
180.0
  0
LINE
 62
3
  8
0
 10
0.9250742278609692
 20
1.1717606886238943
 30
0.0
 11
0.9250742278609692
 21
4.0086549873975335
 31
0.0
  0
LINE
 62
3
  8
0
 10
7.863130936818238
 20
1.1717606886238943
 30
0.0
 11
7.863130936818238
 21
4.0086549873975335
 31
0.0
  0
LINE
 62
7
  8
DIMENSIONS
 10
8.169797603484906
 20
1.171760688623894
 30
0.0
 11
8.169797603484906
 21
4.0086549873975335
 31
0.0
  0
LINE
 62
5
  8
DIMENSIONS
 10
8.169797603484906
 20
1.171760688623894
 30
0.0
 11
7.863130936818238
 21
1.1717606886238943
 31
0.0
  0
LINE
 62
5
  8
DIMENSIONS
 10
8.169797603484906
 20
4.0086549873975335
 30
0.0
 11
7.863130936818238
 21
4.0086549873975335
 31
0.0
  0
TEXT
 62
7
  8
DIMENSIONS
 10
7.869797603484906
 20
2.5902078380107136
 30
0.0
 40
0.2
  1
3
 50
90.0
  7
ISOCPEUR
 72
1
 73
2
 11
7.869797603484906
 21
2.5902078380107136
 31
0.0
  0
INSERT
  8
DIMENSIONS
  2
DIMTICK_ARROW
 10
8.169797603484906
 20
1.171760688623894
 30
0.0
 41
1.0
 42
1.0
 50
90.0
  0
INSERT
  8
DIMENSIONS
  2
DIMTICK_ARROW
 10
8.169797603484906
 20
4.0086549873975335
 30
0.0
 41
1.0
 42
1.0
 50
270.0
  0
LINE
 62
7
  8
DIMENSIONS
 10
8.169797603484906
 20
1.171760688623894
 30
0.0
 11
8.169797603484906
 21
4.0086549873975335
 31
0.0
  0
LINE
 62
5
  8
DIMENSIONS
 10
8.169797603484906
 20
1.171760688623894
 30
0.0
 11
7.863130936818238
 21
1.1717606886238943
 31
0.0
  0
LINE
 62
5
  8
DIMENSIONS
 10
8.169797603484906
 20
4.0086549873975335
 30
0.0
 11
7.863130936818238
 21
4.0086549873975335
 31
0.0
  0
TEXT
 62
7
  8
DIMENSIONS
 10
7.869797603484906
 20
2.5902078380107136
 30
0.0
 40
0.2
  1
3
 50
90.0
  7
ISOCPEUR
 72
1
 73
2
 11
7.869797603484906
 21
2.5902078380107136
 31
0.0
  0
INSERT
  8
DIMENSIONS
  2
DIMTICK_ARROW
 10
8.169797603484906
 20
1.171760688623894
 30
0.0
 41
1.0
 42
1.0
 50
90.0
  0
INSERT
  8
DIMENSIONS
  2
DIMTICK_ARROW
 10
8.169797603484906
 20
4.0086549873975335
 30
0.0
 41
1.0
 42
1.0
 50
270.0
  0
LINE
 62
7
  8
DIMENSIONS
 10
8.169797603484906
 20
1.171760688623894
 30
0.0
 11
8.169797603484906
 21
4.0086549873975335
 31
0.0
  0
LINE
 62
5
  8
DIMENSIONS
 10
8.169797603484906
 20
1.171760688623894
 30
0.0
 11
7.863130936818238
 21
1.1717606886238943
 31
0.0
  0
LINE
 62
5
  8
DIMENSIONS
 10
8.169797603484906
 20
4.0086549873975335
 30
0.0
 11
7.863130936818238
 21
4.0086549873975335
 31
0.0
  0
TEXT
 62
7
  8
DIMENSIONS
 10
7.869797603484906
 20
2.5902078380107136
 30
0.0
 40
0.2
  1
3
 50
90.0
  7
ISOCPEUR
 72
1
 73
2
 11
7.869797603484906
 21
2.5902078380107136
 31
0.0
  0
INSERT
  8
DIMENSIONS
  2
DIMTICK_ARROW
 10
8.169797603484906
 20
1.171760688623894
 30
0.0
 41
1.0
 42
1.0
 50
90.0
  0
INSERT
  8
DIMENSIONS
  2
DIMTICK_ARROW
 10
8.169797603484906
 20
4.0086549873975335
 30
0.0
 41
1.0
 42
1.0
 50
270.0
  0
LINE
 62
7
  8
DIMENSIONS
 10
8.169797603484906
 20
1.171760688623894
 30
0.0
 11
8.169797603484906
 21
4.0086549873975335
 31
0.0
  0
LINE
 62
5
  8
DIMENSIONS
 10
8.169797603484906
 20
1.171760688623894
 30
0.0
 11
7.863130936818238
 21
1.1717606886238943
 31
0.0
  0
LINE
 62
5
  8
DIMENSIONS
 10
8.169797603484906
 20
4.0086549873975335
 30
0.0
 11
7.863130936818238
 21
4.0086549873975335
 31
0.0
  0
TEXT
 62
7
  8
DIMENSIONS
 10
7.869797603484906
 20
2.5902078380107136
 30
0.0
 40
0.2
  1
3
 50
90.0
  7
ISOCPEUR
 72
1
 73
2
 11
7.869797603484906
 21
2.5902078380107136
 31
0.0
  0
INSERT
  8
DIMENSIONS
  2
DIMTICK_ARROW
 10
8.169797603484906
 20
1.171760688623894
 30
0.0
 41
1.0
 42
1.0
 50
90.0
  0
INSERT
  8
DIMENSIONS
  2
DIMTICK_ARROW
 10
8.169797603484906
 20
4.0086549873975335
 30
0.0
 41
1.0
 42
1.0
 50
270.0
  0
LINE
 62
7
  8
DIMENSIONS
 10
8.169797603484906
 20
1.171760688623894
 30
0.0
 11
8.169797603484906
 21
4.0086549873975335
 31
0.0
  0
LINE
 62
5
  8
DIMENSIONS
 10
8.169797603484906
 20
1.171760688623894
 30
0.0
 11
7.863130936818238
 21
1.1717606886238943
 31
0.0
  0
LINE
 62
5
  8
DIMENSIONS
 10
8.169797603484906
 20
4.0086549873975335
 30
0.0
 11
7.863130936818238
 21
4.0086549873975335
 31
0.0
  0
TEXT
 62
7
  8
DIMENSIONS
 10
7.869797603484906
 20
2.5902078380107136
 30
0.0
 40
0.2
  1
3
 50
90.0
  7
ISOCPEUR
 72
1
 73
2
 11
7.869797603484906
 21
2.5902078380107136
 31
0.0
  0
INSERT
  8
DIMENSIONS
  2
DIMTICK_ARROW
 10
8.169797603484906
 20
1.171760688623894
 30
0.0
 41
1.0
 42
1.0
 50
90.0
  0
INSERT
  8
DIMENSIONS
  2
DIMTICK_ARROW
 10
8.169797603484906
 20
4.0086549873975335
 30
0.0
 41
1.0
 42
1.0
 50
270.0
  0
LINE
 62
7
  8
DIMENSIONS
 10
8.169797603484906
 20
1.171760688623894
 30
0.0
 11
8.169797603484906
 21
4.0086549873975335
 31
0.0
  0
LINE
 62
5
  8
DIMENSIONS
 10
8.169797603484906
 20
1.171760688623894
 30
0.0
 11
7.863130936818238
 21
1.1717606886238943
 31
0.0
  0
LINE
 62
5
  8
DIMENSIONS
 10
8.169797603484906
 20
4.0086549873975335
 30
0.0
 11
7.863130936818238
 21
4.0086549873975335
 31
0.0
  0
TEXT
 62
7
  8
DIMENSIONS
 10
7.869797603484906
 20
2.5902078380107136
 30
0.0
 40
0.2
  1
3
 50
90.0
  7
ISOCPEUR
 72
1
 73
2
 11
7.869797603484906
 21
2.5902078380107136
 31
0.0
  0
INSERT
  8
DIMENSIONS
  2
DIMTICK_ARROW
 10
8.169797603484906
 20
1.171760688623894
 30
0.0
 41
1.0
 42
1.0
 50
90.0
  0
INSERT
  8
DIMENSIONS
  2
DIMTICK_ARROW
 10
8.169797603484906
 20
4.0086549873975335
 30
0.0
 41
1.0
 42
1.0
 50
270.0
  0
LINE
 62
7
  8
DIMENSIONS
 10
8.169797603484906
 20
1.171760688623894
 30
0.0
 11
8.169797603484906
 21
4.0086549873975335
 31
0.0
  0
LINE
 62
5
  8
DIMENSIONS
 10
8.169797603484906
 20
1.171760688623894
 30
0.0
 11
7.863130936818238
 21
1.1717606886238943
 31
0.0
  0
LINE
 62
5
  8
DIMENSIONS
 10
8.169797603484906
 20
4.0086549873975335
 30
0.0
 11
7.863130936818238
 21
4.0086549873975335
 31
0.0
  0
TEXT
 62
7
  8
DIMENSIONS
 10
7.869797603484906
 20
2.5902078380107136
 30
0.0
 40
0.2
  1
3
 50
90.0
  7
ISOCPEUR
 72
1
 73
2
 11
7.869797603484906
 21
2.5902078380107136
 31
0.0
  0
INSERT
  8
DIMENSIONS
  2
DIMTICK_ARROW
 10
8.169797603484906
 20
1.171760688623894
 30
0.0
 41
1.0
 42
1.0
 50
90.0
  0
INSERT
  8
DIMENSIONS
  2
DIMTICK_ARROW
 10
8.169797603484906
 20
4.0086549873975335
 30
0.0
 41
1.0
 42
1.0
 50
270.0
  0
LINE
 62
7
  8
DIMENSIONS
 10
8.169797603484906
 20
1.171760688623894
 30
0.0
 11
8.169797603484906
 21
4.0086549873975335
 31
0.0
  0
LINE
 62
5
  8
DIMENSIONS
 10
8.169797603484906
 20
1.171760688623894
 30
0.0
 11
7.863130936818238
 21
1.1717606886238943
 31
0.0
  0
LINE
 62
5
  8
DIMENSIONS
 10
8.169797603484906
 20
4.0086549873975335
 30
0.0
 11
7.863130936818238
 21
4.0086549873975335
 31
0.0
  0
TEXT
 62
7
  8
DIMENSIONS
 10
7.869797603484906
 20
2.5902078380107136
 30
0.0
 40
0.2
  1
3
 50
90.0
  7
ISOCPEUR
 72
1
 73
2
 11
7.869797603484906
 21
2.5902078380107136
 31
0.0
  0
INSERT
  8
DIMENSIONS
  2
DIMTICK_ARROW
 10
8.169797603484906
 20
1.171760688623894
 30
0.0
 41
1.0
 42
1.0
 50
90.0
  0
INSERT
  8
DIMENSIONS
  2
DIMTICK_ARROW
 10
8.169797603484906
 20
4.0086549873975335
 30
0.0
 41
1.0
 42
1.0
 50
270.0
  0
LINE
 62
7
  8
DIMENSIONS
 10
8.169797603484906
 20
1.171760688623894
 30
0.0
 11
8.169797603484906
 21
4.0086549873975335
 31
0.0
  0
LINE
 62
5
  8
DIMENSIONS
 10
8.169797603484906
 20
1.171760688623894
 30
0.0
 11
7.863130936818238
 21
1.1717606886238943
 31
0.0
  0
LINE
 62
5
  8
DIMENSIONS
 10
8.169797603484906
 20
4.0086549873975335
 30
0.0
 11
7.863130936818238
 21
4.0086549873975335
 31
0.0
  0
TEXT
 62
7
  8
DIMENSIONS
 10
7.869797603484906
 20
2.5902078380107136
 30
0.0
 40
0.2
  1
3
 50
90.0
  7
ISOCPEUR
 72
1
 73
2
 11
7.869797603484906
 21
2.5902078380107136
 31
0.0
  0
INSERT
  8
DIMENSIONS
  2
DIMTICK_ARROW
 10
8.169797603484906
 20
1.171760688623894
 30
0.0
 41
1.0
 42
1.0
 50
90.0
  0
INSERT
  8
DIMENSIONS
  2
DIMTICK_ARROW
 10
8.169797603484906
 20
4.0086549873975335
 30
0.0
 41
1.0
 42
1.0
 50
270.0
  0
LINE
 62
7
  8
DIMENSIONS
 10
8.169797603484906
 20
1.171760688623894
 30
0.0
 11
8.169797603484906
 21
4.0086549873975335
 31
0.0
  0
LINE
 62
5
  8
DIMENSIONS
 10
8.169797603484906
 20
1.171760688623894
 30
0.0
 11
7.863130936818238
 21
1.1717606886238943
 31
0.0
  0
LINE
 62
5
  8
DIMENSIONS
 10
8.169797603484906
 20
4.0086549873975335
 30
0.0
 11
7.863130936818238
 21
4.0086549873975335
 31
0.0
  0
TEXT
 62
7
  8
DIMENSIONS
 10
7.869797603484906
 20
2.5902078380107136
 30
0.0
 40
0.2
  1
3
 50
90.0
  7
ISOCPEUR
 72
1
 73
2
 11
7.869797603484906
 21
2.5902078380107136
 31
0.0
  0
INSERT
  8
DIMENSIONS
  2
DIMTICK_ARROW
 10
8.169797603484906
 20
1.171760688623894
 30
0.0
 41
1.0
 42
1.0
 50
90.0
  0
INSERT
  8
DIMENSIONS
  2
DIMTICK_ARROW
 10
8.169797603484906
 20
4.0086549873975335
 30
0.0
 41
1.0
 42
1.0
 50
270.0
  0
LINE
 62
7
  8
DIMENSIONS
 10
8.169797603484906
 20
1.171760688623894
 30
0.0
 11
8.169797603484906
 21
4.0086549873975335
 31
0.0
  0
LINE
 62
5
  8
DIMENSIONS
 10
8.169797603484906
 20
1.171760688623894
 30
0.0
 11
7.863130936818238
 21
1.1717606886238943
 31
0.0
  0
LINE
 62
5
  8
DIMENSIONS
 10
8.169797603484906
 20
4.0086549873975335
 30
0.0
 11
7.863130936818238
 21
4.0086549873975335
 31
0.0
  0
TEXT
 62
7
  8
DIMENSIONS
 10
7.869797603484906
 20
2.5902078380107136
 30
0.0
 40
0.2
  1
3
 50
90.0
  7
ISOCPEUR
 72
1
 73
2
 11
7.869797603484906
 21
2.5902078380107136
 31
0.0
  0
INSERT
  8
DIMENSIONS
  2
DIMTICK_ARROW
 10
8.169797603484906
 20
1.171760688623894
 30
0.0
 41
1.0
 42
1.0
 50
90.0
  0
INSERT
  8
DIMENSIONS
  2
DIMTICK_ARROW
 10
8.169797603484906
 20
4.0086549873975335
 30
0.0
 41
1.0
 42
1.0
 50
270.0
  0
LINE
 62
7
  8
DIMENSIONS
 10
8.169797603484906
 20
1.171760688623894
 30
0.0
 11
8.169797603484906
 21
4.0086549873975335
 31
0.0
  0
LINE
 62
5
  8
DIMENSIONS
 10
8.169797603484906
 20
1.171760688623894
 30
0.0
 11
7.863130936818238
 21
1.1717606886238943
 31
0.0
  0
LINE
 62
5
  8
DIMENSIONS
 10
8.169797603484906
 20
4.0086549873975335
 30
0.0
 11
7.863130936818238
 21
4.0086549873975335
 31
0.0
  0
TEXT
 62
7
  8
DIMENSIONS
 10
7.869797603484906
 20
2.5902078380107136
 30
0.0
 40
0.2
  1
3
 50
90.0
  7
ISOCPEUR
 72
1
 73
2
 11
7.869797603484906
 21
2.5902078380107136
 31
0.0
  0
INSERT
  8
DIMENSIONS
  2
DIMTICK_ARROW
 10
8.169797603484906
 20
1.171760688623894
 30
0.0
 41
1.0
 42
1.0
 50
90.0
  0
INSERT
  8
DIMENSIONS
  2
DIMTICK_ARROW
 10
8.169797603484906
 20
4.0086549873975335
 30
0.0
 41
1.0
 42
1.0
 50
270.0
  0
LINE
 62
3
  8
0
 10
8.603190319107014
 20
0.0
 30
0.0
 11
8.603190319107014
 21
8.664861934297745
 31
0.0
  0
LINE
 62
7
  8
DIMENSIONS
 10
9.539856985773682
 20
-1.5144798749455616e-16
 30
0.0
 11
9.539856985773682
 21
8.664861934297745
 31
0.0
  0
LINE
 62
5
  8
DIMENSIONS
 10
9.539856985773682
 20
-1.5144798749455616e-16
 30
0.0
 11
8.603190319107014
 21
-3.673940397442059e-17
 31
0.0
  0
LINE
 62
5
  8
DIMENSIONS
 10
9.539856985773682
 20
8.664861934297745
 30
0.0
 11
8.603190319107014
 21
8.664861934297745
 31
0.0
  0
TEXT
 62
7
  8
DIMENSIONS
 10
9.239856985773681
 20
4.3324309671488725
 30
0.0
 40
0.2
  1
9
 50
90.0
  7
ISOCPEUR
 72
1
 73
2
 11
9.239856985773681
 21
4.3324309671488725
 31
0.0
  0
INSERT
  8
DIMENSIONS
  2
DIMTICK_ARROW
 10
9.539856985773682
 20
-1.5144798749455616e-16
 30
0.0
 41
1.0
 42
1.0
 50
90.0
  0
INSERT
  8
DIMENSIONS
  2
DIMTICK_ARROW
 10
9.539856985773682
 20
8.664861934297745
 30
0.0
 41
1.0
 42
1.0
 50
270.0
  0
LINE
 62
7
  8
DIMENSIONS
 10
9.539856985773682
 20
-1.5144798749455616e-16
 30
0.0
 11
9.539856985773682
 21
8.664861934297745
 31
0.0
  0
LINE
 62
5
  8
DIMENSIONS
 10
9.539856985773682
 20
-1.5144798749455616e-16
 30
0.0
 11
8.603190319107014
 21
-3.673940397442059e-17
 31
0.0
  0
LINE
 62
5
  8
DIMENSIONS
 10
9.539856985773682
 20
8.664861934297745
 30
0.0
 11
8.603190319107014
 21
8.664861934297745
 31
0.0
  0
TEXT
 62
7
  8
DIMENSIONS
 10
9.239856985773681
 20
4.3324309671488725
 30
0.0
 40
0.2
  1
9
 50
90.0
  7
ISOCPEUR
 72
1
 73
2
 11
9.239856985773681
 21
4.3324309671488725
 31
0.0
  0
INSERT
  8
DIMENSIONS
  2
DIMTICK_ARROW
 10
9.539856985773682
 20
-1.5144798749455616e-16
 30
0.0
 41
1.0
 42
1.0
 50
90.0
  0
INSERT
  8
DIMENSIONS
  2
DIMTICK_ARROW
 10
9.539856985773682
 20
8.664861934297745
 30
0.0
 41
1.0
 42
1.0
 50
270.0
  0
LINE
 62
7
  8
DIMENSIONS
 10
9.539856985773682
 20
-1.5144798749455616e-16
 30
0.0
 11
9.539856985773682
 21
8.664861934297745
 31
0.0
  0
LINE
 62
5
  8
DIMENSIONS
 10
9.539856985773682
 20
-1.5144798749455616e-16
 30
0.0
 11
8.603190319107014
 21
-3.673940397442059e-17
 31
0.0
  0
LINE
 62
5
  8
DIMENSIONS
 10
9.539856985773682
 20
8.664861934297745
 30
0.0
 11
8.603190319107014
 21
8.664861934297745
 31
0.0
  0
TEXT
 62
7
  8
DIMENSIONS
 10
9.239856985773681
 20
4.3324309671488725
 30
0.0
 40
0.2
  1
9
 50
90.0
  7
ISOCPEUR
 72
1
 73
2
 11
9.239856985773681
 21
4.3324309671488725
 31
0.0
  0
INSERT
  8
DIMENSIONS
  2
DIMTICK_ARROW
 10
9.539856985773682
 20
-1.5144798749455616e-16
 30
0.0
 41
1.0
 42
1.0
 50
90.0
  0
INSERT
  8
DIMENSIONS
  2
DIMTICK_ARROW
 10
9.539856985773682
 20
8.664861934297745
 30
0.0
 41
1.0
 42
1.0
 50
270.0
  0
LINE
 62
7
  8
DIMENSIONS
 10
9.539856985773682
 20
-1.5144798749455616e-16
 30
0.0
 11
9.539856985773682
 21
8.664861934297745
 31
0.0
  0
LINE
 62
5
  8
DIMENSIONS
 10
9.539856985773682
 20
-1.5144798749455616e-16
 30
0.0
 11
8.603190319107014
 21
-3.673940397442059e-17
 31
0.0
  0
LINE
 62
5
  8
DIMENSIONS
 10
9.539856985773682
 20
8.664861934297745
 30
0.0
 11
8.603190319107014
 21
8.664861934297745
 31
0.0
  0
TEXT
 62
7
  8
DIMENSIONS
 10
9.239856985773681
 20
4.3324309671488725
 30
0.0
 40
0.2
  1
9
 50
90.0
  7
ISOCPEUR
 72
1
 73
2
 11
9.239856985773681
 21
4.3324309671488725
 31
0.0
  0
INSERT
  8
DIMENSIONS
  2
DIMTICK_ARROW
 10
9.539856985773682
 20
-1.5144798749455616e-16
 30
0.0
 41
1.0
 42
1.0
 50
90.0
  0
INSERT
  8
DIMENSIONS
  2
DIMTICK_ARROW
 10
9.539856985773682
 20
8.664861934297745
 30
0.0
 41
1.0
 42
1.0
 50
270.0
  0
LINE
 62
7
  8
DIMENSIONS
 10
9.539856985773682
 20
-1.5144798749455616e-16
 30
0.0
 11
9.539856985773682
 21
8.664861934297745
 31
0.0
  0
LINE
 62
5
  8
DIMENSIONS
 10
9.539856985773682
 20
-1.5144798749455616e-16
 30
0.0
 11
8.603190319107014
 21
-3.673940397442059e-17
 31
0.0
  0
LINE
 62
5
  8
DIMENSIONS
 10
9.539856985773682
 20
8.664861934297745
 30
0.0
 11
8.603190319107014
 21
8.664861934297745
 31
0.0
  0
TEXT
 62
7
  8
DIMENSIONS
 10
9.239856985773681
 20
4.3324309671488725
 30
0.0
 40
0.2
  1
9
 50
90.0
  7
ISOCPEUR
 72
1
 73
2
 11
9.239856985773681
 21
4.3324309671488725
 31
0.0
  0
INSERT
  8
DIMENSIONS
  2
DIMTICK_ARROW
 10
9.539856985773682
 20
-1.5144798749455616e-16
 30
0.0
 41
1.0
 42
1.0
 50
90.0
  0
INSERT
  8
DIMENSIONS
  2
DIMTICK_ARROW
 10
9.539856985773682
 20
8.664861934297745
 30
0.0
 41
1.0
 42
1.0
 50
270.0
  0
LINE
 62
7
  8
DIMENSIONS
 10
9.539856985773682
 20
-1.5144798749455616e-16
 30
0.0
 11
9.539856985773682
 21
8.664861934297745
 31
0.0
  0
LINE
 62
5
  8
DIMENSIONS
 10
9.539856985773682
 20
-1.5144798749455616e-16
 30
0.0
 11
8.603190319107014
 21
-3.673940397442059e-17
 31
0.0
  0
LINE
 62
5
  8
DIMENSIONS
 10
9.539856985773682
 20
8.664861934297745
 30
0.0
 11
8.603190319107014
 21
8.664861934297745
 31
0.0
  0
TEXT
 62
7
  8
DIMENSIONS
 10
9.239856985773681
 20
4.3324309671488725
 30
0.0
 40
0.2
  1
9
 50
90.0
  7
ISOCPEUR
 72
1
 73
2
 11
9.239856985773681
 21
4.3324309671488725
 31
0.0
  0
INSERT
  8
DIMENSIONS
  2
DIMTICK_ARROW
 10
9.539856985773682
 20
-1.5144798749455616e-16
 30
0.0
 41
1.0
 42
1.0
 50
90.0
  0
INSERT
  8
DIMENSIONS
  2
DIMTICK_ARROW
 10
9.539856985773682
 20
8.664861934297745
 30
0.0
 41
1.0
 42
1.0
 50
270.0
  0
LINE
 62
7
  8
DIMENSIONS
 10
9.539856985773682
 20
-1.5144798749455616e-16
 30
0.0
 11
9.539856985773682
 21
8.664861934297745
 31
0.0
  0
LINE
 62
5
  8
DIMENSIONS
 10
9.539856985773682
 20
-1.5144798749455616e-16
 30
0.0
 11
8.603190319107014
 21
-3.673940397442059e-17
 31
0.0
  0
LINE
 62
5
  8
DIMENSIONS
 10
9.539856985773682
 20
8.664861934297745
 30
0.0
 11
8.603190319107014
 21
8.664861934297745
 31
0.0
  0
TEXT
 62
7
  8
DIMENSIONS
 10
9.239856985773681
 20
4.3324309671488725
 30
0.0
 40
0.2
  1
9
 50
90.0
  7
ISOCPEUR
 72
1
 73
2
 11
9.239856985773681
 21
4.3324309671488725
 31
0.0
  0
INSERT
  8
DIMENSIONS
  2
DIMTICK_ARROW
 10
9.539856985773682
 20
-1.5144798749455616e-16
 30
0.0
 41
1.0
 42
1.0
 50
90.0
  0
INSERT
  8
DIMENSIONS
  2
DIMTICK_ARROW
 10
9.539856985773682
 20
8.664861934297745
 30
0.0
 41
1.0
 42
1.0
 50
270.0
  0
LINE
 62
7
  8
DIMENSIONS
 10
9.539856985773682
 20
-1.5144798749455616e-16
 30
0.0
 11
9.539856985773682
 21
8.664861934297745
 31
0.0
  0
LINE
 62
5
  8
DIMENSIONS
 10
9.539856985773682
 20
-1.5144798749455616e-16
 30
0.0
 11
8.603190319107014
 21
-3.673940397442059e-17
 31
0.0
  0
LINE
 62
5
  8
DIMENSIONS
 10
9.539856985773682
 20
8.664861934297745
 30
0.0
 11
8.603190319107014
 21
8.664861934297745
 31
0.0
  0
TEXT
 62
7
  8
DIMENSIONS
 10
9.239856985773681
 20
4.3324309671488725
 30
0.0
 40
0.2
  1
9
 50
90.0
  7
ISOCPEUR
 72
1
 73
2
 11
9.239856985773681
 21
4.3324309671488725
 31
0.0
  0
INSERT
  8
DIMENSIONS
  2
DIMTICK_ARROW
 10
9.539856985773682
 20
-1.5144798749455616e-16
 30
0.0
 41
1.0
 42
1.0
 50
90.0
  0
INSERT
  8
DIMENSIONS
  2
DIMTICK_ARROW
 10
9.539856985773682
 20
8.664861934297745
 30
0.0
 41
1.0
 42
1.0
 50
270.0
  0
LINE
 62
7
  8
DIMENSIONS
 10
9.539856985773682
 20
-1.5144798749455616e-16
 30
0.0
 11
9.539856985773682
 21
8.664861934297745
 31
0.0
  0
LINE
 62
5
  8
DIMENSIONS
 10
9.539856985773682
 20
-1.5144798749455616e-16
 30
0.0
 11
8.603190319107014
 21
-3.673940397442059e-17
 31
0.0
  0
LINE
 62
5
  8
DIMENSIONS
 10
9.539856985773682
 20
8.664861934297745
 30
0.0
 11
8.603190319107014
 21
8.664861934297745
 31
0.0
  0
TEXT
 62
7
  8
DIMENSIONS
 10
9.239856985773681
 20
4.3324309671488725
 30
0.0
 40
0.2
  1
9
 50
90.0
  7
ISOCPEUR
 72
1
 73
2
 11
9.239856985773681
 21
4.3324309671488725
 31
0.0
  0
INSERT
  8
DIMENSIONS
  2
DIMTICK_ARROW
 10
9.539856985773682
 20
-1.5144798749455616e-16
 30
0.0
 41
1.0
 42
1.0
 50
90.0
  0
INSERT
  8
DIMENSIONS
  2
DIMTICK_ARROW
 10
9.539856985773682
 20
8.664861934297745
 30
0.0
 41
1.0
 42
1.0
 50
270.0
  0
LINE
 62
7
  8
DIMENSIONS
 10
9.539856985773682
 20
-1.5144798749455616e-16
 30
0.0
 11
9.539856985773682
 21
8.664861934297745
 31
0.0
  0
LINE
 62
5
  8
DIMENSIONS
 10
9.539856985773682
 20
-1.5144798749455616e-16
 30
0.0
 11
8.603190319107014
 21
-3.673940397442059e-17
 31
0.0
  0
LINE
 62
5
  8
DIMENSIONS
 10
9.539856985773682
 20
8.664861934297745
 30
0.0
 11
8.603190319107014
 21
8.664861934297745
 31
0.0
  0
TEXT
 62
7
  8
DIMENSIONS
 10
9.239856985773681
 20
4.3324309671488725
 30
0.0
 40
0.2
  1
9
 50
90.0
  7
ISOCPEUR
 72
1
 73
2
 11
9.239856985773681
 21
4.3324309671488725
 31
0.0
  0
INSERT
  8
DIMENSIONS
  2
DIMTICK_ARROW
 10
9.539856985773682
 20
-1.5144798749455616e-16
 30
0.0
 41
1.0
 42
1.0
 50
90.0
  0
INSERT
  8
DIMENSIONS
  2
DIMTICK_ARROW
 10
9.539856985773682
 20
8.664861934297745
 30
0.0
 41
1.0
 42
1.0
 50
270.0
  0
LINE
 62
7
  8
DIMENSIONS
 10
9.539856985773682
 20
-1.5144798749455616e-16
 30
0.0
 11
9.539856985773682
 21
8.664861934297745
 31
0.0
  0
LINE
 62
5
  8
DIMENSIONS
 10
9.539856985773682
 20
-1.5144798749455616e-16
 30
0.0
 11
8.603190319107014
 21
-3.673940397442059e-17
 31
0.0
  0
LINE
 62
5
  8
DIMENSIONS
 10
9.539856985773682
 20
8.664861934297745
 30
0.0
 11
8.603190319107014
 21
8.664861934297745
 31
0.0
  0
TEXT
 62
7
  8
DIMENSIONS
 10
9.239856985773681
 20
4.3324309671488725
 30
0.0
 40
0.2
  1
9
 50
90.0
  7
ISOCPEUR
 72
1
 73
2
 11
9.239856985773681
 21
4.3324309671488725
 31
0.0
  0
INSERT
  8
DIMENSIONS
  2
DIMTICK_ARROW
 10
9.539856985773682
 20
-1.5144798749455616e-16
 30
0.0
 41
1.0
 42
1.0
 50
90.0
  0
INSERT
  8
DIMENSIONS
  2
DIMTICK_ARROW
 10
9.539856985773682
 20
8.664861934297745
 30
0.0
 41
1.0
 42
1.0
 50
270.0
  0
LINE
 62
3
  8
0
 10
0.0
 20
0.0
 30
0.0
 11
0.0
 21
8.664861934297745
 31
0.0
  0
LINE
 62
3
  8
0
 10
7.863130936818238
 20
1.1717606886238943
 30
0.0
 11
7.863130936818238
 21
4.0086549873975335
 31
0.0
  0
LINE
 62
3
  8
0
 10
0.9250742278609692
 20
1.1717606886238943
 30
0.0
 11
0.9250742278609692
 21
4.0086549873975335
 31
0.0
  0
LINE
 62
3
  8
0
 10
0.0
 20
0.0
 30
0.0
 11
0.0
 21
8.664861934297745
 31
0.0
  0
LINE
 62
3
  8
0
 10
8.603190319107014
 20
0.0
 30
0.0
 11
8.603190319107014
 21
8.664861934297745
 31
0.0
  0
LINE
 62
3
  8
0
 10
0.9250742278609692
 20
1.1717606886238943
 30
0.0
 11
7.863130936818238
 21
1.1717606886238943
 31
0.0
  0
LINE
 62
3
  8
0
 10
0.9250742278609692
 20
4.0086549873975335
 30
0.0
 11
7.863130936818238
 21
4.0086549873975335
 31
0.0
  0
LINE
 62
3
  8
0
 10
0.0
 20
0.0
 30
0.0
 11
8.603190319107014
 21
0.0
 31
0.0
  0
ARC
 62
3
  8
0
 10
4.347848870946556
 20
7.832295129222873
 30
0.0
 40
4.193669832969727
 50
0.0
 51
180.0
  0
CIRCLE
 62
3
  8
0
 10
4.471192101328018
 20
7.647280283650678
 30
0.0
 40
2.4360288000338857
  0
LINE
 62
7
  8
DIMENSIONS
 10
3.219584190730326
 20
6.943251624677167
 30
0.0
 11
2.348008418316738
 21
6.452990803336467
 31
0.0
  0
TEXT
 62
7
  8
DIMENSIONS
 10
3.3938993452130437
 20
7.0413037889453065
 30
0.0
 40
0.2
  1
R=244
 50
-150.64227395494578
  7
ISOCPEUR
 72
2
 73
2
 11
3.3938993452130437
 21
7.0413037889453065
 31
0.0
  0
INSERT
  8
DIMENSIONS
  2
DIMTICK_RADIUS
 10
2.348008418316738
 20
6.452990803336467
 30
0.0
 41
1.0
 42
1.0
 50
29.357726045054232
  0
ENDSEC
  0
EOF
