  0
SECTION
  2
HEADER
  9
$ACADVER
  1
AC1009
  9
$INSBASE
 10
0.0
 20
0.0
 30
0.0
  9
$EXTMIN
 10
0.0
 20
0.0
 30
0.0
  9
$EXTMAX
 10
100.0
 20
100.0
 30
0.0
  9
$UNITMODE
 70
0
  9
$AUNITS
 70
0
  9
$ANGBASE
 50
0.0
  9
$ANGDIR
 70
0
  0
ENDSEC
  0
SECTION
  2
TABLES
  0
TABLE
  2
LTYPE
 70
19
  0
LTYPE
  2
CONTINUOUS
 70
0
  3
Solid
 72
65
 73
0
 40
0.0
  0
LTYPE
  2
CENTER
 70
0
  3
Center ____ _ ____ _ ____ _ ____ _ ____ _ ____
 72
65
 73
4
 40
2.0
 49
1.25
 49
-0.25
 49
0.25
 49
-0.25
  0
LTYPE
  2
CENTERX2
 70
0
  3
Center (2x) ________  __  ________  __  ________
 72
65
 73
4
 40
3.5
 49
2.5
 49
-0.25
 49
0.5
 49
-0.25
  0
LTYPE
  2
CENTER2
 70
0
  3
Center (.5x) ____ _ ____ _ ____ _ ____ _ ____
 72
65
 73
4
 40
1.0
 49
0.625
 49
-0.125
 49
0.125
 49
-0.125
  0
LTYPE
  2
DASHED
 70
0
  3
Dashed __ __ __ __ __ __ __ __ __ __ __ __ __ _
 72
65
 73
2
 40
0.6
 49
0.5
 49
-0.1
  0
LTYPE
  2
DASHEDX2
 70
0
  3
Dashed (2x) ____  ____  ____  ____  ____  ____
 72
65
 73
2
 40
1.2
 49
1.0
 49
-0.2
  0
LTYPE
  2
DASHED2
 70
0
  3
Dashed (.5x) _ _ _ _ _ _ _ _ _ _ _ _ _ _
 72
65
 73
2
 40
0.3
 49
0.25
 49
-0.05
  0
LTYPE
  2
PHANTOM
 70
0
  3
Phantom ______  __  __  ______  __  __  ______
 72
65
 73
6
 40
2.5
 49
1.25
 49
-0.25
 49
0.25
 49
-0.25
 49
0.25
 49
-0.25
  0
LTYPE
  2
PHANTOMX2
 70
0
  3
Phantom (2x)____________    ____    ____    ____________
 72
65
 73
6
 40
4.25
 49
2.5
 49
-0.25
 49
0.5
 49
-0.25
 49
0.5
 49
-0.25
  0
LTYPE
  2
PHANTOM2
 70
0
  3
Phantom (.5x) ___ _ _ ___ _ _ ___ _ _ ___ _ _ ___
 72
65
 73
6
 40
1.25
 49
0.625
 49
-0.125
 49
0.125
 49
-0.125
 49
0.125
 49
-0.125
  0
LTYPE
  2
DASHDOT
 70
0
  3
Dash dot __ . __ . __ . __ . __ . __ . __ . __
 72
65
 73
4
 40
1.4
 49
1.0
 49
-0.2
 49
0.0
 49
-0.2
  0
LTYPE
  2
DASHDOTX2
 70
0
  3
Dash dot (2x) ____  .  ____  .  ____  .  ____
 72
65
 73
4
 40
2.4
 49
2.0
 49
-0.2
 49
0.0
 49
-0.2
  0
LTYPE
  2
DASHDOT2
 70
0
  3
Dash dot (.5x) _ . _ . _ . _ . _ . _ . _ . _
 72
65
 73
4
 40
0.7
 49
0.5
 49
-0.1
 49
0.0
 49
-0.1
  0
LTYPE
  2
DOT
 70
0
  3
Dot .  .  .  .  .  .  .  .  .  .  .  .  .  .  .  .
 72
65
 73
2
 40
0.2
 49
0.0
 49
-0.2
  0
LTYPE
  2
DOTX2
 70
0
  3
Dot (2x) .    .    .    .    .    .    .    . 
 72
65
 73
2
 40
0.4
 49
0.0
 49
-0.4
  0
LTYPE
  2
DOT2
 70
0
  3
Dot (.5) . . . . . . . . . . . . . . . . . . . 
 72
65
 73
2
 40
0.1
 49
0.0
 49
-0.1
  0
LTYPE
  2
DIVIDE
 70
0
  3
Divide __ . . __ . . __ . . __ . . __ . . __
 72
65
 73
6
 40
1.6
 49
1.0
 49
-0.2
 49
0.0
 49
-0.2
 49
0.0
 49
-0.2
  0
LTYPE
  2
DIVIDEX2
 70
0
  3
Divide (2x) ____  . .  ____  . .  ____  . .  ____
 72
65
 73
6
 40
2.6
 49
2.0
 49
-0.2
 49
0.0
 49
-0.2
 49
0.0
 49
-0.2
  0
LTYPE
  2
DIVIDE2
 70
0
  3
Divide(.5x) _ . _ . _ . _ . _ . _ . _ . _
 72
65
 73
6
 40
0.8
 49
0.5
 49
-0.1
 49
0.0
 49
-0.1
 49
0.0
 49
-0.1
  0
ENDTAB
  0
TABLE
  2
LAYER
 70
5
  0
LAYER
  2
DIMENSIONS
 70
0
 62
1
  6
CONTINUOUS
  0
LAYER
  2
TABLEBACKGROUND
 70
0
 62
1
  6
CONTINUOUS
  0
LAYER
  2
TABLECONTENT
 70
0
 62
1
  6
CONTINUOUS
  0
LAYER
  2
TABLEGRID
 70
0
 62
1
  6
CONTINUOUS
  0
LAYER
  2
VIEWPORTS
 70
0
 62
7
  6
CONTINUOUS
  0
ENDTAB
  0
TABLE
  2
STYLE
 70
12
  0
STYLE
  2
STANDARD
 70
0
 40
0.0
 41
1.0
 42
1.0
 50
0.0
 71
0
  3
arial.ttf
  4

  0
STYLE
  2
ARIAL
 70
0
 40
0.0
 41
1.0
 42
1.0
 50
0.0
 71
0
  3
arial.ttf
  4

  0
STYLE
  2
ARIAL_BOLD
 70
0
 40
0.0
 41
1.0
 42
1.0
 50
0.0
 71
0
  3
arialbd.ttf
  4

  0
STYLE
  2
ARIAL_ITALIC
 70
0
 40
0.0
 41
1.0
 42
1.0
 50
0.0
 71
0
  3
ariali.ttf
  4

  0
STYLE
  2
ARIAL_BOLD_ITALIC
 70
0
 40
0.0
 41
1.0
 42
1.0
 50
0.0
 71
0
  3
arialbi.ttf
  4

  0
STYLE
  2
ARIAL_BLACK
 70
0
 40
0.0
 41
1.0
 42
1.0
 50
0.0
 71
0
  3
ariblk.ttf
  4

  0
STYLE
  2
ISOCPEUR
 70
0
 40
0.0
 41
1.0
 42
1.0
 50
0.0
 71
0
  3
isocpeur.ttf
  4

  0
STYLE
  2
ISOCPEUR_ITALIC
 70
0
 40
0.0
 41
1.0
 42
1.0
 50
0.0
 71
0
  3
isocpeui.ttf
  4

  0
STYLE
  2
TIMES
 70
0
 40
0.0
 41
1.0
 42
1.0
 50
0.0
 71
0
  3
times.ttf
  4

  0
STYLE
  2
TIMES_BOLD
 70
0
 40
0.0
 41
1.0
 42
1.0
 50
0.0
 71
0
  3
timesbd.ttf
  4

  0
STYLE
  2
TIMES_ITALIC
 70
0
 40
0.0
 41
1.0
 42
1.0
 50
0.0
 71
0
  3
timesi.ttf
  4

  0
STYLE
  2
TIMES_BOLD_ITALIC
 70
0
 40
0.0
 41
1.0
 42
1.0
 50
0.0
 71
0
  3
timesbi.ttf
  4

  0
ENDTAB
  0
TABLE
  2
VIEW
 70
0
  0
ENDTAB
  0
TABLE
  2
APPID
 70
1
  0
APPID
  2
DXFWRITE
 70
0
  0
ENDTAB
  0
TABLE
  2
VPORT
 70
0
  0
ENDTAB
  0
TABLE
  2
UCS
 70
0
  0
ENDTAB
  0
ENDSEC
  0
SECTION
  2
BLOCKS
  0
BLOCK
  8
0
  2
DIMTICK_ARCH
  3
DIMTICK_ARCH
 70
0
 10
0.0
 20
0.0
 30
0.0
  0
LINE
 62
5
  8
0
 10
0.0
 20
0.5
 30
0.0
 11
0.0
 21
-0.5
 31
0.0
  0
LINE
 62
4
  8
0
 10
-0.2
 20
-0.2
 30
0.0
 11
0.2
 21
0.2
 31
0.0
  0
ENDBLK
  0
BLOCK
  8
0
  2
DIMTICK_DOT
  3
DIMTICK_DOT
 70
0
 10
0.0
 20
0.0
 30
0.0
  0
LINE
 62
5
  8
0
 10
0.0
 20
0.5
 30
0.0
 11
0.0
 21
-0.5
 31
0.0
  0
CIRCLE
 62
4
  8
0
 10
0.0
 20
0.0
 30
0.0
 40
0.1
  0
ENDBLK
  0
BLOCK
  8
0
  2
DIMTICK_ARROW
  3
DIMTICK_ARROW
 70
0
 10
0.0
 20
0.0
 30
0.0
  0
LINE
 62
5
  8
0
 10
0.0
 20
0.5
 30
0.0
 11
0.0
 21
-0.5
 31
0.0
  0
SOLID
 62
7
  8
0
 10
0.0
 20
0.0
 30
0.0
 11
0.3
 21
0.05
 31
0.0
 13
0.3
 23
-0.05
 33
0.0
 12
0.3
 22
-0.05
 32
0.0
  0
ENDBLK
  0
BLOCK
  8
0
  2
DIMTICK_RADIUS
  3
DIMTICK_RADIUS
 70
0
 10
0.0
 20
0.0
 30
0.0
  0
SOLID
 62
7
  8
0
 10
0.0
 20
0.0
 30
0.0
 11
0.3
 21
0.05
 31
0.0
 13
0.25
 23
0.0
 33
0.0
 12
0.3
 22
-0.05
 32
0.0
  0
ENDBLK
  0
ENDSEC
  0
SECTION
  2
ENTITIES
  0
VIEWPORT
  8
VIEWPORTS
 67
1
 10
0.0
 20
0.0
 30
0.0
 40
1.0
 41
1.0
 68
1
 69
1
1001
ACAD
1000
MVIEW
1002
{
1070
16
1010
0.0
1020
0.0
1030
0.0
1010
0.0
1020
0.0
1030
0.0
1040
0.0
1040
1.0
1040
0.0
1040
0.0
1040
50.0
1040
0.0
1040
0.0
1070
0
1070
100
1070
1
1070
3
1070
0
1070
0
1070
0
1070
0
1040
0.0
1040
0.0
1040
0.0
1040
0.1
1040
0.1
1040
0.1
1040
0.1
1070
0
1002
{
1002
}
1002
}
  0
LINE
 62
3
  8
0
 10
9.655172413793105
 20
65.74712643678161
 30
0.0
 11
28.27586206896552
 21
65.74712643678161
 31
0.0
  0
LINE
 62
3
  8
0
 10
9.655172413793105
 20
7.816091954022989
 30
0.0
 11
28.27586206896552
 21
7.816091954022989
 31
0.0
  0
LINE
 62
7
  8
DIMENSIONS
 10
9.655172413793105
 20
5.954022988505747
 30
0.0
 11
28.27586206896552
 21
5.954022988505747
 31
0.0
  0
LINE
 62
5
  8
DIMENSIONS
 10
9.655172413793105
 20
5.954022988505747
 30
0.0
 11
9.655172413793105
 21
7.702298850574713
 31
0.0
  0
LINE
 62
5
  8
DIMENSIONS
 10
28.27586206896552
 20
5.954022988505747
 30
0.0
 11
28.27586206896552
 21
7.702298850574713
 31
0.0
  0
TEXT
 62
7
  8
DIMENSIONS
 10
18.965517241379313
 20
6.771264367816092
 30
0.0
 40
1.2344827586206897
  1
19
 50
-0.0
  7
ISOCPEUR
 72
1
 73
2
 11
18.965517241379313
 21
6.771264367816092
 31
0.0
  0
INSERT
  8
DIMENSIONS
  2
DIMTICK_ARROW
 10
9.655172413793105
 20
5.954022988505747
 30
0.0
 41
3.724137931034483
 42
3.724137931034483
 50
0.0
  0
INSERT
  8
DIMENSIONS
  2
DIMTICK_ARROW
 10
28.27586206896552
 20
5.954022988505747
 30
0.0
 41
3.724137931034483
 42
3.724137931034483
 50
180.0
  0
LINE
 62
7
  8
DIMENSIONS
 10
9.655172413793105
 20
5.954022988505747
 30
0.0
 11
28.27586206896552
 21
5.954022988505747
 31
0.0
  0
LINE
 62
5
  8
DIMENSIONS
 10
9.655172413793105
 20
5.954022988505747
 30
0.0
 11
9.655172413793105
 21
7.702298850574713
 31
0.0
  0
LINE
 62
5
  8
DIMENSIONS
 10
28.27586206896552
 20
5.954022988505747
 30
0.0
 11
28.27586206896552
 21
7.702298850574713
 31
0.0
  0
TEXT
 62
7
  8
DIMENSIONS
 10
18.965517241379313
 20
6.771264367816092
 30
0.0
 40
1.2344827586206897
  1
19
 50
-0.0
  7
ISOCPEUR
 72
1
 73
2
 11
18.965517241379313
 21
6.771264367816092
 31
0.0
  0
INSERT
  8
DIMENSIONS
  2
DIMTICK_ARROW
 10
9.655172413793105
 20
5.954022988505747
 30
0.0
 41
3.724137931034483
 42
3.724137931034483
 50
0.0
  0
INSERT
  8
DIMENSIONS
  2
DIMTICK_ARROW
 10
28.27586206896552
 20
5.954022988505747
 30
0.0
 41
3.724137931034483
 42
3.724137931034483
 50
180.0
  0
LINE
 62
7
  8
DIMENSIONS
 10
9.655172413793105
 20
5.954022988505747
 30
0.0
 11
28.27586206896552
 21
5.954022988505747
 31
0.0
  0
LINE
 62
5
  8
DIMENSIONS
 10
9.655172413793105
 20
5.954022988505747
 30
0.0
 11
9.655172413793105
 21
7.702298850574713
 31
0.0
  0
LINE
 62
5
  8
DIMENSIONS
 10
28.27586206896552
 20
5.954022988505747
 30
0.0
 11
28.27586206896552
 21
7.702298850574713
 31
0.0
  0
TEXT
 62
7
  8
DIMENSIONS
 10
18.965517241379313
 20
6.771264367816092
 30
0.0
 40
1.2344827586206897
  1
19
 50
-0.0
  7
ISOCPEUR
 72
1
 73
2
 11
18.965517241379313
 21
6.771264367816092
 31
0.0
  0
INSERT
  8
DIMENSIONS
  2
DIMTICK_ARROW
 10
9.655172413793105
 20
5.954022988505747
 30
0.0
 41
3.724137931034483
 42
3.724137931034483
 50
0.0
  0
INSERT
  8
DIMENSIONS
  2
DIMTICK_ARROW
 10
28.27586206896552
 20
5.954022988505747
 30
0.0
 41
3.724137931034483
 42
3.724137931034483
 50
180.0
  0
LINE
 62
7
  8
DIMENSIONS
 10
9.655172413793105
 20
5.954022988505747
 30
0.0
 11
28.27586206896552
 21
5.954022988505747
 31
0.0
  0
LINE
 62
5
  8
DIMENSIONS
 10
9.655172413793105
 20
5.954022988505747
 30
0.0
 11
9.655172413793105
 21
7.702298850574713
 31
0.0
  0
LINE
 62
5
  8
DIMENSIONS
 10
28.27586206896552
 20
5.954022988505747
 30
0.0
 11
28.27586206896552
 21
7.702298850574713
 31
0.0
  0
TEXT
 62
7
  8
DIMENSIONS
 10
18.965517241379313
 20
6.771264367816092
 30
0.0
 40
1.2344827586206897
  1
19
 50
-0.0
  7
ISOCPEUR
 72
1
 73
2
 11
18.965517241379313
 21
6.771264367816092
 31
0.0
  0
INSERT
  8
DIMENSIONS
  2
DIMTICK_ARROW
 10
9.655172413793105
 20
5.954022988505747
 30
0.0
 41
3.724137931034483
 42
3.724137931034483
 50
0.0
  0
INSERT
  8
DIMENSIONS
  2
DIMTICK_ARROW
 10
28.27586206896552
 20
5.954022988505747
 30
0.0
 41
3.724137931034483
 42
3.724137931034483
 50
180.0
  0
LINE
 62
7
  8
DIMENSIONS
 10
9.655172413793105
 20
5.954022988505747
 30
0.0
 11
28.27586206896552
 21
5.954022988505747
 31
0.0
  0
LINE
 62
5
  8
DIMENSIONS
 10
9.655172413793105
 20
5.954022988505747
 30
0.0
 11
9.655172413793105
 21
7.702298850574713
 31
0.0
  0
LINE
 62
5
  8
DIMENSIONS
 10
28.27586206896552
 20
5.954022988505747
 30
0.0
 11
28.27586206896552
 21
7.702298850574713
 31
0.0
  0
TEXT
 62
7
  8
DIMENSIONS
 10
18.965517241379313
 20
6.771264367816092
 30
0.0
 40
1.2344827586206897
  1
19
 50
-0.0
  7
ISOCPEUR
 72
1
 73
2
 11
18.965517241379313
 21
6.771264367816092
 31
0.0
  0
INSERT
  8
DIMENSIONS
  2
DIMTICK_ARROW
 10
9.655172413793105
 20
5.954022988505747
 30
0.0
 41
3.724137931034483
 42
3.724137931034483
 50
0.0
  0
INSERT
  8
DIMENSIONS
  2
DIMTICK_ARROW
 10
28.27586206896552
 20
5.954022988505747
 30
0.0
 41
3.724137931034483
 42
3.724137931034483
 50
180.0
  0
LINE
 62
7
  8
DIMENSIONS
 10
9.655172413793105
 20
5.954022988505747
 30
0.0
 11
28.27586206896552
 21
5.954022988505747
 31
0.0
  0
LINE
 62
5
  8
DIMENSIONS
 10
9.655172413793105
 20
5.954022988505747
 30
0.0
 11
9.655172413793105
 21
7.702298850574713
 31
0.0
  0
LINE
 62
5
  8
DIMENSIONS
 10
28.27586206896552
 20
5.954022988505747
 30
0.0
 11
28.27586206896552
 21
7.702298850574713
 31
0.0
  0
TEXT
 62
7
  8
DIMENSIONS
 10
18.965517241379313
 20
6.771264367816092
 30
0.0
 40
1.2344827586206897
  1
19
 50
-0.0
  7
ISOCPEUR
 72
1
 73
2
 11
18.965517241379313
 21
6.771264367816092
 31
0.0
  0
INSERT
  8
DIMENSIONS
  2
DIMTICK_ARROW
 10
9.655172413793105
 20
5.954022988505747
 30
0.0
 41
3.724137931034483
 42
3.724137931034483
 50
0.0
  0
INSERT
  8
DIMENSIONS
  2
DIMTICK_ARROW
 10
28.27586206896552
 20
5.954022988505747
 30
0.0
 41
3.724137931034483
 42
3.724137931034483
 50
180.0
  0
LINE
 62
7
  8
DIMENSIONS
 10
9.655172413793105
 20
5.954022988505747
 30
0.0
 11
28.27586206896552
 21
5.954022988505747
 31
0.0
  0
LINE
 62
5
  8
DIMENSIONS
 10
9.655172413793105
 20
5.954022988505747
 30
0.0
 11
9.655172413793105
 21
7.702298850574713
 31
0.0
  0
LINE
 62
5
  8
DIMENSIONS
 10
28.27586206896552
 20
5.954022988505747
 30
0.0
 11
28.27586206896552
 21
7.702298850574713
 31
0.0
  0
TEXT
 62
7
  8
DIMENSIONS
 10
18.965517241379313
 20
6.771264367816092
 30
0.0
 40
1.2344827586206897
  1
19
 50
-0.0
  7
ISOCPEUR
 72
1
 73
2
 11
18.965517241379313
 21
6.771264367816092
 31
0.0
  0
INSERT
  8
DIMENSIONS
  2
DIMTICK_ARROW
 10
9.655172413793105
 20
5.954022988505747
 30
0.0
 41
3.724137931034483
 42
3.724137931034483
 50
0.0
  0
INSERT
  8
DIMENSIONS
  2
DIMTICK_ARROW
 10
28.27586206896552
 20
5.954022988505747
 30
0.0
 41
3.724137931034483
 42
3.724137931034483
 50
180.0
  0
LINE
 62
7
  8
DIMENSIONS
 10
9.655172413793105
 20
5.954022988505747
 30
0.0
 11
28.27586206896552
 21
5.954022988505747
 31
0.0
  0
LINE
 62
5
  8
DIMENSIONS
 10
9.655172413793105
 20
5.954022988505747
 30
0.0
 11
9.655172413793105
 21
7.702298850574713
 31
0.0
  0
LINE
 62
5
  8
DIMENSIONS
 10
28.27586206896552
 20
5.954022988505747
 30
0.0
 11
28.27586206896552
 21
7.702298850574713
 31
0.0
  0
TEXT
 62
7
  8
DIMENSIONS
 10
18.965517241379313
 20
6.771264367816092
 30
0.0
 40
1.2344827586206897
  1
19
 50
-0.0
  7
ISOCPEUR
 72
1
 73
2
 11
18.965517241379313
 21
6.771264367816092
 31
0.0
  0
INSERT
  8
DIMENSIONS
  2
DIMTICK_ARROW
 10
9.655172413793105
 20
5.954022988505747
 30
0.0
 41
3.724137931034483
 42
3.724137931034483
 50
0.0
  0
INSERT
  8
DIMENSIONS
  2
DIMTICK_ARROW
 10
28.27586206896552
 20
5.954022988505747
 30
0.0
 41
3.724137931034483
 42
3.724137931034483
 50
180.0
  0
LINE
 62
7
  8
DIMENSIONS
 10
9.655172413793105
 20
5.954022988505747
 30
0.0
 11
28.27586206896552
 21
5.954022988505747
 31
0.0
  0
LINE
 62
5
  8
DIMENSIONS
 10
9.655172413793105
 20
5.954022988505747
 30
0.0
 11
9.655172413793105
 21
7.702298850574713
 31
0.0
  0
LINE
 62
5
  8
DIMENSIONS
 10
28.27586206896552
 20
5.954022988505747
 30
0.0
 11
28.27586206896552
 21
7.702298850574713
 31
0.0
  0
TEXT
 62
7
  8
DIMENSIONS
 10
18.965517241379313
 20
6.771264367816092
 30
0.0
 40
1.2344827586206897
  1
19
 50
-0.0
  7
ISOCPEUR
 72
1
 73
2
 11
18.965517241379313
 21
6.771264367816092
 31
0.0
  0
INSERT
  8
DIMENSIONS
  2
DIMTICK_ARROW
 10
9.655172413793105
 20
5.954022988505747
 30
0.0
 41
3.724137931034483
 42
3.724137931034483
 50
0.0
  0
INSERT
  8
DIMENSIONS
  2
DIMTICK_ARROW
 10
28.27586206896552
 20
5.954022988505747
 30
0.0
 41
3.724137931034483
 42
3.724137931034483
 50
180.0
  0
LINE
 62
7
  8
DIMENSIONS
 10
9.655172413793105
 20
5.954022988505747
 30
0.0
 11
28.27586206896552
 21
5.954022988505747
 31
0.0
  0
LINE
 62
5
  8
DIMENSIONS
 10
9.655172413793105
 20
5.954022988505747
 30
0.0
 11
9.655172413793105
 21
7.702298850574713
 31
0.0
  0
LINE
 62
5
  8
DIMENSIONS
 10
28.27586206896552
 20
5.954022988505747
 30
0.0
 11
28.27586206896552
 21
7.702298850574713
 31
0.0
  0
TEXT
 62
7
  8
DIMENSIONS
 10
18.965517241379313
 20
6.771264367816092
 30
0.0
 40
1.2344827586206897
  1
19
 50
-0.0
  7
ISOCPEUR
 72
1
 73
2
 11
18.965517241379313
 21
6.771264367816092
 31
0.0
  0
INSERT
  8
DIMENSIONS
  2
DIMTICK_ARROW
 10
9.655172413793105
 20
5.954022988505747
 30
0.0
 41
3.724137931034483
 42
3.724137931034483
 50
0.0
  0
INSERT
  8
DIMENSIONS
  2
DIMTICK_ARROW
 10
28.27586206896552
 20
5.954022988505747
 30
0.0
 41
3.724137931034483
 42
3.724137931034483
 50
180.0
  0
LINE
 62
7
  8
DIMENSIONS
 10
9.655172413793105
 20
5.954022988505747
 30
0.0
 11
28.27586206896552
 21
5.954022988505747
 31
0.0
  0
LINE
 62
5
  8
DIMENSIONS
 10
9.655172413793105
 20
5.954022988505747
 30
0.0
 11
9.655172413793105
 21
7.702298850574713
 31
0.0
  0
LINE
 62
5
  8
DIMENSIONS
 10
28.27586206896552
 20
5.954022988505747
 30
0.0
 11
28.27586206896552
 21
7.702298850574713
 31
0.0
  0
TEXT
 62
7
  8
DIMENSIONS
 10
18.965517241379313
 20
6.771264367816092
 30
0.0
 40
1.2344827586206897
  1
19
 50
-0.0
  7
ISOCPEUR
 72
1
 73
2
 11
18.965517241379313
 21
6.771264367816092
 31
0.0
  0
INSERT
  8
DIMENSIONS
  2
DIMTICK_ARROW
 10
9.655172413793105
 20
5.954022988505747
 30
0.0
 41
3.724137931034483
 42
3.724137931034483
 50
0.0
  0
INSERT
  8
DIMENSIONS
  2
DIMTICK_ARROW
 10
28.27586206896552
 20
5.954022988505747
 30
0.0
 41
3.724137931034483
 42
3.724137931034483
 50
180.0
  0
LINE
 62
7
  8
DIMENSIONS
 10
9.655172413793105
 20
5.954022988505747
 30
0.0
 11
28.27586206896552
 21
5.954022988505747
 31
0.0
  0
LINE
 62
5
  8
DIMENSIONS
 10
9.655172413793105
 20
5.954022988505747
 30
0.0
 11
9.655172413793105
 21
7.702298850574713
 31
0.0
  0
LINE
 62
5
  8
DIMENSIONS
 10
28.27586206896552
 20
5.954022988505747
 30
0.0
 11
28.27586206896552
 21
7.702298850574713
 31
0.0
  0
TEXT
 62
7
  8
DIMENSIONS
 10
18.965517241379313
 20
6.771264367816092
 30
0.0
 40
1.2344827586206897
  1
19
 50
-0.0
  7
ISOCPEUR
 72
1
 73
2
 11
18.965517241379313
 21
6.771264367816092
 31
0.0
  0
INSERT
  8
DIMENSIONS
  2
DIMTICK_ARROW
 10
9.655172413793105
 20
5.954022988505747
 30
0.0
 41
3.724137931034483
 42
3.724137931034483
 50
0.0
  0
INSERT
  8
DIMENSIONS
  2
DIMTICK_ARROW
 10
28.27586206896552
 20
5.954022988505747
 30
0.0
 41
3.724137931034483
 42
3.724137931034483
 50
180.0
  0
LINE
 62
7
  8
DIMENSIONS
 10
9.655172413793105
 20
5.954022988505747
 30
0.0
 11
28.27586206896552
 21
5.954022988505747
 31
0.0
  0
LINE
 62
5
  8
DIMENSIONS
 10
9.655172413793105
 20
5.954022988505747
 30
0.0
 11
9.655172413793105
 21
7.702298850574713
 31
0.0
  0
LINE
 62
5
  8
DIMENSIONS
 10
28.27586206896552
 20
5.954022988505747
 30
0.0
 11
28.27586206896552
 21
7.702298850574713
 31
0.0
  0
TEXT
 62
7
  8
DIMENSIONS
 10
18.965517241379313
 20
6.771264367816092
 30
0.0
 40
1.2344827586206897
  1
19
 50
-0.0
  7
ISOCPEUR
 72
1
 73
2
 11
18.965517241379313
 21
6.771264367816092
 31
0.0
  0
INSERT
  8
DIMENSIONS
  2
DIMTICK_ARROW
 10
9.655172413793105
 20
5.954022988505747
 30
0.0
 41
3.724137931034483
 42
3.724137931034483
 50
0.0
  0
INSERT
  8
DIMENSIONS
  2
DIMTICK_ARROW
 10
28.27586206896552
 20
5.954022988505747
 30
0.0
 41
3.724137931034483
 42
3.724137931034483
 50
180.0
  0
LINE
 62
7
  8
DIMENSIONS
 10
9.655172413793105
 20
5.954022988505747
 30
0.0
 11
28.27586206896552
 21
5.954022988505747
 31
0.0
  0
LINE
 62
5
  8
DIMENSIONS
 10
9.655172413793105
 20
5.954022988505747
 30
0.0
 11
9.655172413793105
 21
7.702298850574713
 31
0.0
  0
LINE
 62
5
  8
DIMENSIONS
 10
28.27586206896552
 20
5.954022988505747
 30
0.0
 11
28.27586206896552
 21
7.702298850574713
 31
0.0
  0
TEXT
 62
7
  8
DIMENSIONS
 10
18.965517241379313
 20
6.771264367816092
 30
0.0
 40
1.2344827586206897
  1
19
 50
-0.0
  7
ISOCPEUR
 72
1
 73
2
 11
18.965517241379313
 21
6.771264367816092
 31
0.0
  0
INSERT
  8
DIMENSIONS
  2
DIMTICK_ARROW
 10
9.655172413793105
 20
5.954022988505747
 30
0.0
 41
3.724137931034483
 42
3.724137931034483
 50
0.0
  0
INSERT
  8
DIMENSIONS
  2
DIMTICK_ARROW
 10
28.27586206896552
 20
5.954022988505747
 30
0.0
 41
3.724137931034483
 42
3.724137931034483
 50
180.0
  0
LINE
 62
7
  8
DIMENSIONS
 10
9.655172413793105
 20
5.954022988505747
 30
0.0
 11
28.27586206896552
 21
5.954022988505747
 31
0.0
  0
LINE
 62
5
  8
DIMENSIONS
 10
9.655172413793105
 20
5.954022988505747
 30
0.0
 11
9.655172413793105
 21
7.702298850574713
 31
0.0
  0
LINE
 62
5
  8
DIMENSIONS
 10
28.27586206896552
 20
5.954022988505747
 30
0.0
 11
28.27586206896552
 21
7.702298850574713
 31
0.0
  0
TEXT
 62
7
  8
DIMENSIONS
 10
18.965517241379313
 20
6.771264367816092
 30
0.0
 40
1.2344827586206897
  1
19
 50
-0.0
  7
ISOCPEUR
 72
1
 73
2
 11
18.965517241379313
 21
6.771264367816092
 31
0.0
  0
INSERT
  8
DIMENSIONS
  2
DIMTICK_ARROW
 10
9.655172413793105
 20
5.954022988505747
 30
0.0
 41
3.724137931034483
 42
3.724137931034483
 50
0.0
  0
INSERT
  8
DIMENSIONS
  2
DIMTICK_ARROW
 10
28.27586206896552
 20
5.954022988505747
 30
0.0
 41
3.724137931034483
 42
3.724137931034483
 50
180.0
  0
LINE
 62
7
  8
DIMENSIONS
 10
9.655172413793105
 20
5.954022988505747
 30
0.0
 11
28.27586206896552
 21
5.954022988505747
 31
0.0
  0
LINE
 62
5
  8
DIMENSIONS
 10
9.655172413793105
 20
5.954022988505747
 30
0.0
 11
9.655172413793105
 21
7.702298850574713
 31
0.0
  0
LINE
 62
5
  8
DIMENSIONS
 10
28.27586206896552
 20
5.954022988505747
 30
0.0
 11
28.27586206896552
 21
7.702298850574713
 31
0.0
  0
TEXT
 62
7
  8
DIMENSIONS
 10
18.965517241379313
 20
6.771264367816092
 30
0.0
 40
1.2344827586206897
  1
19
 50
-0.0
  7
ISOCPEUR
 72
1
 73
2
 11
18.965517241379313
 21
6.771264367816092
 31
0.0
  0
INSERT
  8
DIMENSIONS
  2
DIMTICK_ARROW
 10
9.655172413793105
 20
5.954022988505747
 30
0.0
 41
3.724137931034483
 42
3.724137931034483
 50
0.0
  0
INSERT
  8
DIMENSIONS
  2
DIMTICK_ARROW
 10
28.27586206896552
 20
5.954022988505747
 30
0.0
 41
3.724137931034483
 42
3.724137931034483
 50
180.0
  0
LINE
 62
7
  8
DIMENSIONS
 10
9.655172413793105
 20
5.954022988505747
 30
0.0
 11
28.27586206896552
 21
5.954022988505747
 31
0.0
  0
LINE
 62
5
  8
DIMENSIONS
 10
9.655172413793105
 20
5.954022988505747
 30
0.0
 11
9.655172413793105
 21
7.702298850574713
 31
0.0
  0
LINE
 62
5
  8
DIMENSIONS
 10
28.27586206896552
 20
5.954022988505747
 30
0.0
 11
28.27586206896552
 21
7.702298850574713
 31
0.0
  0
TEXT
 62
7
  8
DIMENSIONS
 10
18.965517241379313
 20
6.771264367816092
 30
0.0
 40
1.2344827586206897
  1
19
 50
-0.0
  7
ISOCPEUR
 72
1
 73
2
 11
18.965517241379313
 21
6.771264367816092
 31
0.0
  0
INSERT
  8
DIMENSIONS
  2
DIMTICK_ARROW
 10
9.655172413793105
 20
5.954022988505747
 30
0.0
 41
3.724137931034483
 42
3.724137931034483
 50
0.0
  0
INSERT
  8
DIMENSIONS
  2
DIMTICK_ARROW
 10
28.27586206896552
 20
5.954022988505747
 30
0.0
 41
3.724137931034483
 42
3.724137931034483
 50
180.0
  0
LINE
 62
7
  8
DIMENSIONS
 10
9.655172413793105
 20
5.954022988505747
 30
0.0
 11
28.27586206896552
 21
5.954022988505747
 31
0.0
  0
LINE
 62
5
  8
DIMENSIONS
 10
9.655172413793105
 20
5.954022988505747
 30
0.0
 11
9.655172413793105
 21
7.702298850574713
 31
0.0
  0
LINE
 62
5
  8
DIMENSIONS
 10
28.27586206896552
 20
5.954022988505747
 30
0.0
 11
28.27586206896552
 21
7.702298850574713
 31
0.0
  0
TEXT
 62
7
  8
DIMENSIONS
 10
18.965517241379313
 20
6.771264367816092
 30
0.0
 40
1.2344827586206897
  1
19
 50
-0.0
  7
ISOCPEUR
 72
1
 73
2
 11
18.965517241379313
 21
6.771264367816092
 31
0.0
  0
INSERT
  8
DIMENSIONS
  2
DIMTICK_ARROW
 10
9.655172413793105
 20
5.954022988505747
 30
0.0
 41
3.724137931034483
 42
3.724137931034483
 50
0.0
  0
INSERT
  8
DIMENSIONS
  2
DIMTICK_ARROW
 10
28.27586206896552
 20
5.954022988505747
 30
0.0
 41
3.724137931034483
 42
3.724137931034483
 50
180.0
  0
LINE
 62
7
  8
DIMENSIONS
 10
9.655172413793105
 20
5.954022988505747
 30
0.0
 11
28.27586206896552
 21
5.954022988505747
 31
0.0
  0
LINE
 62
5
  8
DIMENSIONS
 10
9.655172413793105
 20
5.954022988505747
 30
0.0
 11
9.655172413793105
 21
7.702298850574713
 31
0.0
  0
LINE
 62
5
  8
DIMENSIONS
 10
28.27586206896552
 20
5.954022988505747
 30
0.0
 11
28.27586206896552
 21
7.702298850574713
 31
0.0
  0
TEXT
 62
7
  8
DIMENSIONS
 10
18.965517241379313
 20
6.771264367816092
 30
0.0
 40
1.2344827586206897
  1
19
 50
-0.0
  7
ISOCPEUR
 72
1
 73
2
 11
18.965517241379313
 21
6.771264367816092
 31
0.0
  0
INSERT
  8
DIMENSIONS
  2
DIMTICK_ARROW
 10
9.655172413793105
 20
5.954022988505747
 30
0.0
 41
3.724137931034483
 42
3.724137931034483
 50
0.0
  0
INSERT
  8
DIMENSIONS
  2
DIMTICK_ARROW
 10
28.27586206896552
 20
5.954022988505747
 30
0.0
 41
3.724137931034483
 42
3.724137931034483
 50
180.0
  0
LINE
 62
7
  8
DIMENSIONS
 10
9.655172413793105
 20
5.954022988505747
 30
0.0
 11
28.27586206896552
 21
5.954022988505747
 31
0.0
  0
LINE
 62
5
  8
DIMENSIONS
 10
9.655172413793105
 20
5.954022988505747
 30
0.0
 11
9.655172413793105
 21
7.702298850574713
 31
0.0
  0
LINE
 62
5
  8
DIMENSIONS
 10
28.27586206896552
 20
5.954022988505747
 30
0.0
 11
28.27586206896552
 21
7.702298850574713
 31
0.0
  0
TEXT
 62
7
  8
DIMENSIONS
 10
18.965517241379313
 20
6.771264367816092
 30
0.0
 40
1.2344827586206897
  1
19
 50
-0.0
  7
ISOCPEUR
 72
1
 73
2
 11
18.965517241379313
 21
6.771264367816092
 31
0.0
  0
INSERT
  8
DIMENSIONS
  2
DIMTICK_ARROW
 10
9.655172413793105
 20
5.954022988505747
 30
0.0
 41
3.724137931034483
 42
3.724137931034483
 50
0.0
  0
INSERT
  8
DIMENSIONS
  2
DIMTICK_ARROW
 10
28.27586206896552
 20
5.954022988505747
 30
0.0
 41
3.724137931034483
 42
3.724137931034483
 50
180.0
  0
LINE
 62
7
  8
DIMENSIONS
 10
9.655172413793105
 20
5.954022988505747
 30
0.0
 11
28.27586206896552
 21
5.954022988505747
 31
0.0
  0
LINE
 62
5
  8
DIMENSIONS
 10
9.655172413793105
 20
5.954022988505747
 30
0.0
 11
9.655172413793105
 21
7.702298850574713
 31
0.0
  0
LINE
 62
5
  8
DIMENSIONS
 10
28.27586206896552
 20
5.954022988505747
 30
0.0
 11
28.27586206896552
 21
7.702298850574713
 31
0.0
  0
TEXT
 62
7
  8
DIMENSIONS
 10
18.965517241379313
 20
6.771264367816092
 30
0.0
 40
1.2344827586206897
  1
19
 50
-0.0
  7
ISOCPEUR
 72
1
 73
2
 11
18.965517241379313
 21
6.771264367816092
 31
0.0
  0
INSERT
  8
DIMENSIONS
  2
DIMTICK_ARROW
 10
9.655172413793105
 20
5.954022988505747
 30
0.0
 41
3.724137931034483
 42
3.724137931034483
 50
0.0
  0
INSERT
  8
DIMENSIONS
  2
DIMTICK_ARROW
 10
28.27586206896552
 20
5.954022988505747
 30
0.0
 41
3.724137931034483
 42
3.724137931034483
 50
180.0
  0
LINE
 62
7
  8
DIMENSIONS
 10
9.655172413793105
 20
5.954022988505747
 30
0.0
 11
28.27586206896552
 21
5.954022988505747
 31
0.0
  0
LINE
 62
5
  8
DIMENSIONS
 10
9.655172413793105
 20
5.954022988505747
 30
0.0
 11
9.655172413793105
 21
7.702298850574713
 31
0.0
  0
LINE
 62
5
  8
DIMENSIONS
 10
28.27586206896552
 20
5.954022988505747
 30
0.0
 11
28.27586206896552
 21
7.702298850574713
 31
0.0
  0
TEXT
 62
7
  8
DIMENSIONS
 10
18.965517241379313
 20
6.771264367816092
 30
0.0
 40
1.2344827586206897
  1
19
 50
-0.0
  7
ISOCPEUR
 72
1
 73
2
 11
18.965517241379313
 21
6.771264367816092
 31
0.0
  0
INSERT
  8
DIMENSIONS
  2
DIMTICK_ARROW
 10
9.655172413793105
 20
5.954022988505747
 30
0.0
 41
3.724137931034483
 42
3.724137931034483
 50
0.0
  0
INSERT
  8
DIMENSIONS
  2
DIMTICK_ARROW
 10
28.27586206896552
 20
5.954022988505747
 30
0.0
 41
3.724137931034483
 42
3.724137931034483
 50
180.0
  0
LINE
 62
3
  8
0
 10
86.4367816091954
 20
0.0
 30
0.0
 11
111.95402298850576
 21
0.0
 31
0.0
  0
LINE
 62
7
  8
DIMENSIONS
 10
86.4367816091954
 20
-2.5517241379310347
 30
0.0
 11
111.95402298850576
 21
-2.5517241379310347
 31
0.0
  0
LINE
 62
5
  8
DIMENSIONS
 10
86.4367816091954
 20
-2.5517241379310347
 30
0.0
 11
86.4367816091954
 21
-0.04482758620689653
 31
0.0
  0
LINE
 62
5
  8
DIMENSIONS
 10
111.95402298850576
 20
-2.5517241379310347
 30
0.0
 11
111.95402298850576
 21
-0.04482758620689653
 31
0.0
  0
TEXT
 62
7
  8
DIMENSIONS
 10
99.19540229885058
 20
-1.5429118773946362
 30
0.0
 40
1.6176245210727969
  1
26
 50
-0.0
  7
ISOCPEUR
 72
1
 73
2
 11
99.19540229885058
 21
-1.5429118773946362
 31
0.0
  0
INSERT
  8
DIMENSIONS
  2
DIMTICK_ARROW
 10
86.4367816091954
 20
-2.5517241379310347
 30
0.0
 41
5.103448275862069
 42
5.103448275862069
 50
0.0
  0
INSERT
  8
DIMENSIONS
  2
DIMTICK_ARROW
 10
111.95402298850576
 20
-2.5517241379310347
 30
0.0
 41
5.103448275862069
 42
5.103448275862069
 50
180.0
  0
LINE
 62
7
  8
DIMENSIONS
 10
86.4367816091954
 20
-2.5517241379310347
 30
0.0
 11
111.95402298850576
 21
-2.5517241379310347
 31
0.0
  0
LINE
 62
5
  8
DIMENSIONS
 10
86.4367816091954
 20
-2.5517241379310347
 30
0.0
 11
86.4367816091954
 21
-0.04482758620689653
 31
0.0
  0
LINE
 62
5
  8
DIMENSIONS
 10
111.95402298850576
 20
-2.5517241379310347
 30
0.0
 11
111.95402298850576
 21
-0.04482758620689653
 31
0.0
  0
TEXT
 62
7
  8
DIMENSIONS
 10
99.19540229885058
 20
-1.5429118773946362
 30
0.0
 40
1.6176245210727969
  1
26
 50
-0.0
  7
ISOCPEUR
 72
1
 73
2
 11
99.19540229885058
 21
-1.5429118773946362
 31
0.0
  0
INSERT
  8
DIMENSIONS
  2
DIMTICK_ARROW
 10
86.4367816091954
 20
-2.5517241379310347
 30
0.0
 41
5.103448275862069
 42
5.103448275862069
 50
0.0
  0
INSERT
  8
DIMENSIONS
  2
DIMTICK_ARROW
 10
111.95402298850576
 20
-2.5517241379310347
 30
0.0
 41
5.103448275862069
 42
5.103448275862069
 50
180.0
  0
LINE
 62
7
  8
DIMENSIONS
 10
86.4367816091954
 20
-2.5517241379310347
 30
0.0
 11
111.95402298850576
 21
-2.5517241379310347
 31
0.0
  0
LINE
 62
5
  8
DIMENSIONS
 10
86.4367816091954
 20
-2.5517241379310347
 30
0.0
 11
86.4367816091954
 21
-0.04482758620689653
 31
0.0
  0
LINE
 62
5
  8
DIMENSIONS
 10
111.95402298850576
 20
-2.5517241379310347
 30
0.0
 11
111.95402298850576
 21
-0.04482758620689653
 31
0.0
  0
TEXT
 62
7
  8
DIMENSIONS
 10
99.19540229885058
 20
-1.5429118773946362
 30
0.0
 40
1.6176245210727969
  1
26
 50
-0.0
  7
ISOCPEUR
 72
1
 73
2
 11
99.19540229885058
 21
-1.5429118773946362
 31
0.0
  0
INSERT
  8
DIMENSIONS
  2
DIMTICK_ARROW
 10
86.4367816091954
 20
-2.5517241379310347
 30
0.0
 41
5.103448275862069
 42
5.103448275862069
 50
0.0
  0
INSERT
  8
DIMENSIONS
  2
DIMTICK_ARROW
 10
111.95402298850576
 20
-2.5517241379310347
 30
0.0
 41
5.103448275862069
 42
5.103448275862069
 50
180.0
  0
LINE
 62
7
  8
DIMENSIONS
 10
86.4367816091954
 20
-2.5517241379310347
 30
0.0
 11
111.95402298850576
 21
-2.5517241379310347
 31
0.0
  0
LINE
 62
5
  8
DIMENSIONS
 10
86.4367816091954
 20
-2.5517241379310347
 30
0.0
 11
86.4367816091954
 21
-0.04482758620689653
 31
0.0
  0
LINE
 62
5
  8
DIMENSIONS
 10
111.95402298850576
 20
-2.5517241379310347
 30
0.0
 11
111.95402298850576
 21
-0.04482758620689653
 31
0.0
  0
TEXT
 62
7
  8
DIMENSIONS
 10
99.19540229885058
 20
-1.5429118773946362
 30
0.0
 40
1.6176245210727969
  1
26
 50
-0.0
  7
ISOCPEUR
 72
1
 73
2
 11
99.19540229885058
 21
-1.5429118773946362
 31
0.0
  0
INSERT
  8
DIMENSIONS
  2
DIMTICK_ARROW
 10
86.4367816091954
 20
-2.5517241379310347
 30
0.0
 41
5.103448275862069
 42
5.103448275862069
 50
0.0
  0
INSERT
  8
DIMENSIONS
  2
DIMTICK_ARROW
 10
111.95402298850576
 20
-2.5517241379310347
 30
0.0
 41
5.103448275862069
 42
5.103448275862069
 50
180.0
  0
LINE
 62
7
  8
DIMENSIONS
 10
86.4367816091954
 20
-2.5517241379310347
 30
0.0
 11
111.95402298850576
 21
-2.5517241379310347
 31
0.0
  0
LINE
 62
5
  8
DIMENSIONS
 10
86.4367816091954
 20
-2.5517241379310347
 30
0.0
 11
86.4367816091954
 21
-0.04482758620689653
 31
0.0
  0
LINE
 62
5
  8
DIMENSIONS
 10
111.95402298850576
 20
-2.5517241379310347
 30
0.0
 11
111.95402298850576
 21
-0.04482758620689653
 31
0.0
  0
TEXT
 62
7
  8
DIMENSIONS
 10
99.19540229885058
 20
-1.5429118773946362
 30
0.0
 40
1.6176245210727969
  1
26
 50
-0.0
  7
ISOCPEUR
 72
1
 73
2
 11
99.19540229885058
 21
-1.5429118773946362
 31
0.0
  0
INSERT
  8
DIMENSIONS
  2
DIMTICK_ARROW
 10
86.4367816091954
 20
-2.5517241379310347
 30
0.0
 41
5.103448275862069
 42
5.103448275862069
 50
0.0
  0
INSERT
  8
DIMENSIONS
  2
DIMTICK_ARROW
 10
111.95402298850576
 20
-2.5517241379310347
 30
0.0
 41
5.103448275862069
 42
5.103448275862069
 50
180.0
  0
LINE
 62
7
  8
DIMENSIONS
 10
86.4367816091954
 20
-2.5517241379310347
 30
0.0
 11
111.95402298850576
 21
-2.5517241379310347
 31
0.0
  0
LINE
 62
5
  8
DIMENSIONS
 10
86.4367816091954
 20
-2.5517241379310347
 30
0.0
 11
86.4367816091954
 21
-0.04482758620689653
 31
0.0
  0
LINE
 62
5
  8
DIMENSIONS
 10
111.95402298850576
 20
-2.5517241379310347
 30
0.0
 11
111.95402298850576
 21
-0.04482758620689653
 31
0.0
  0
TEXT
 62
7
  8
DIMENSIONS
 10
99.19540229885058
 20
-1.5429118773946362
 30
0.0
 40
1.6176245210727969
  1
26
 50
-0.0
  7
ISOCPEUR
 72
1
 73
2
 11
99.19540229885058
 21
-1.5429118773946362
 31
0.0
  0
INSERT
  8
DIMENSIONS
  2
DIMTICK_ARROW
 10
86.4367816091954
 20
-2.5517241379310347
 30
0.0
 41
5.103448275862069
 42
5.103448275862069
 50
0.0
  0
INSERT
  8
DIMENSIONS
  2
DIMTICK_ARROW
 10
111.95402298850576
 20
-2.5517241379310347
 30
0.0
 41
5.103448275862069
 42
5.103448275862069
 50
180.0
  0
LINE
 62
7
  8
DIMENSIONS
 10
86.4367816091954
 20
-2.5517241379310347
 30
0.0
 11
111.95402298850576
 21
-2.5517241379310347
 31
0.0
  0
LINE
 62
5
  8
DIMENSIONS
 10
86.4367816091954
 20
-2.5517241379310347
 30
0.0
 11
86.4367816091954
 21
-0.04482758620689653
 31
0.0
  0
LINE
 62
5
  8
DIMENSIONS
 10
111.95402298850576
 20
-2.5517241379310347
 30
0.0
 11
111.95402298850576
 21
-0.04482758620689653
 31
0.0
  0
TEXT
 62
7
  8
DIMENSIONS
 10
99.19540229885058
 20
-1.5429118773946362
 30
0.0
 40
1.6176245210727969
  1
26
 50
-0.0
  7
ISOCPEUR
 72
1
 73
2
 11
99.19540229885058
 21
-1.5429118773946362
 31
0.0
  0
INSERT
  8
DIMENSIONS
  2
DIMTICK_ARROW
 10
86.4367816091954
 20
-2.5517241379310347
 30
0.0
 41
5.103448275862069
 42
5.103448275862069
 50
0.0
  0
INSERT
  8
DIMENSIONS
  2
DIMTICK_ARROW
 10
111.95402298850576
 20
-2.5517241379310347
 30
0.0
 41
5.103448275862069
 42
5.103448275862069
 50
180.0
  0
LINE
 62
7
  8
DIMENSIONS
 10
86.4367816091954
 20
-2.5517241379310347
 30
0.0
 11
111.95402298850576
 21
-2.5517241379310347
 31
0.0
  0
LINE
 62
5
  8
DIMENSIONS
 10
86.4367816091954
 20
-2.5517241379310347
 30
0.0
 11
86.4367816091954
 21
-0.04482758620689653
 31
0.0
  0
LINE
 62
5
  8
DIMENSIONS
 10
111.95402298850576
 20
-2.5517241379310347
 30
0.0
 11
111.95402298850576
 21
-0.04482758620689653
 31
0.0
  0
TEXT
 62
7
  8
DIMENSIONS
 10
99.19540229885058
 20
-1.5429118773946362
 30
0.0
 40
1.6176245210727969
  1
26
 50
-0.0
  7
ISOCPEUR
 72
1
 73
2
 11
99.19540229885058
 21
-1.5429118773946362
 31
0.0
  0
INSERT
  8
DIMENSIONS
  2
DIMTICK_ARROW
 10
86.4367816091954
 20
-2.5517241379310347
 30
0.0
 41
5.103448275862069
 42
5.103448275862069
 50
0.0
  0
INSERT
  8
DIMENSIONS
  2
DIMTICK_ARROW
 10
111.95402298850576
 20
-2.5517241379310347
 30
0.0
 41
5.103448275862069
 42
5.103448275862069
 50
180.0
  0
LINE
 62
7
  8
DIMENSIONS
 10
86.4367816091954
 20
-2.5517241379310347
 30
0.0
 11
111.95402298850576
 21
-2.5517241379310347
 31
0.0
  0
LINE
 62
5
  8
DIMENSIONS
 10
86.4367816091954
 20
-2.5517241379310347
 30
0.0
 11
86.4367816091954
 21
-0.04482758620689653
 31
0.0
  0
LINE
 62
5
  8
DIMENSIONS
 10
111.95402298850576
 20
-2.5517241379310347
 30
0.0
 11
111.95402298850576
 21
-0.04482758620689653
 31
0.0
  0
TEXT
 62
7
  8
DIMENSIONS
 10
99.19540229885058
 20
-1.5429118773946362
 30
0.0
 40
1.6176245210727969
  1
26
 50
-0.0
  7
ISOCPEUR
 72
1
 73
2
 11
99.19540229885058
 21
-1.5429118773946362
 31
0.0
  0
INSERT
  8
DIMENSIONS
  2
DIMTICK_ARROW
 10
86.4367816091954
 20
-2.5517241379310347
 30
0.0
 41
5.103448275862069
 42
5.103448275862069
 50
0.0
  0
INSERT
  8
DIMENSIONS
  2
DIMTICK_ARROW
 10
111.95402298850576
 20
-2.5517241379310347
 30
0.0
 41
5.103448275862069
 42
5.103448275862069
 50
180.0
  0
LINE
 62
7
  8
DIMENSIONS
 10
86.4367816091954
 20
-2.5517241379310347
 30
0.0
 11
111.95402298850576
 21
-2.5517241379310347
 31
0.0
  0
LINE
 62
5
  8
DIMENSIONS
 10
86.4367816091954
 20
-2.5517241379310347
 30
0.0
 11
86.4367816091954
 21
-0.04482758620689653
 31
0.0
  0
LINE
 62
5
  8
DIMENSIONS
 10
111.95402298850576
 20
-2.5517241379310347
 30
0.0
 11
111.95402298850576
 21
-0.04482758620689653
 31
0.0
  0
TEXT
 62
7
  8
DIMENSIONS
 10
99.19540229885058
 20
-1.5429118773946362
 30
0.0
 40
1.6176245210727969
  1
26
 50
-0.0
  7
ISOCPEUR
 72
1
 73
2
 11
99.19540229885058
 21
-1.5429118773946362
 31
0.0
  0
INSERT
  8
DIMENSIONS
  2
DIMTICK_ARROW
 10
86.4367816091954
 20
-2.5517241379310347
 30
0.0
 41
5.103448275862069
 42
5.103448275862069
 50
0.0
  0
INSERT
  8
DIMENSIONS
  2
DIMTICK_ARROW
 10
111.95402298850576
 20
-2.5517241379310347
 30
0.0
 41
5.103448275862069
 42
5.103448275862069
 50
180.0
  0
LINE
 62
7
  8
DIMENSIONS
 10
86.4367816091954
 20
-2.5517241379310347
 30
0.0
 11
111.95402298850576
 21
-2.5517241379310347
 31
0.0
  0
LINE
 62
5
  8
DIMENSIONS
 10
86.4367816091954
 20
-2.5517241379310347
 30
0.0
 11
86.4367816091954
 21
-0.04482758620689653
 31
0.0
  0
LINE
 62
5
  8
DIMENSIONS
 10
111.95402298850576
 20
-2.5517241379310347
 30
0.0
 11
111.95402298850576
 21
-0.04482758620689653
 31
0.0
  0
TEXT
 62
7
  8
DIMENSIONS
 10
99.19540229885058
 20
-1.5429118773946362
 30
0.0
 40
1.6176245210727969
  1
26
 50
-0.0
  7
ISOCPEUR
 72
1
 73
2
 11
99.19540229885058
 21
-1.5429118773946362
 31
0.0
  0
INSERT
  8
DIMENSIONS
  2
DIMTICK_ARROW
 10
86.4367816091954
 20
-2.5517241379310347
 30
0.0
 41
5.103448275862069
 42
5.103448275862069
 50
0.0
  0
INSERT
  8
DIMENSIONS
  2
DIMTICK_ARROW
 10
111.95402298850576
 20
-2.5517241379310347
 30
0.0
 41
5.103448275862069
 42
5.103448275862069
 50
180.0
  0
LINE
 62
7
  8
DIMENSIONS
 10
86.4367816091954
 20
-2.5517241379310347
 30
0.0
 11
111.95402298850576
 21
-2.5517241379310347
 31
0.0
  0
LINE
 62
5
  8
DIMENSIONS
 10
86.4367816091954
 20
-2.5517241379310347
 30
0.0
 11
86.4367816091954
 21
-0.04482758620689653
 31
0.0
  0
LINE
 62
5
  8
DIMENSIONS
 10
111.95402298850576
 20
-2.5517241379310347
 30
0.0
 11
111.95402298850576
 21
-0.04482758620689653
 31
0.0
  0
TEXT
 62
7
  8
DIMENSIONS
 10
99.19540229885058
 20
-1.5429118773946362
 30
0.0
 40
1.6176245210727969
  1
26
 50
-0.0
  7
ISOCPEUR
 72
1
 73
2
 11
99.19540229885058
 21
-1.5429118773946362
 31
0.0
  0
INSERT
  8
DIMENSIONS
  2
DIMTICK_ARROW
 10
86.4367816091954
 20
-2.5517241379310347
 30
0.0
 41
5.103448275862069
 42
5.103448275862069
 50
0.0
  0
INSERT
  8
DIMENSIONS
  2
DIMTICK_ARROW
 10
111.95402298850576
 20
-2.5517241379310347
 30
0.0
 41
5.103448275862069
 42
5.103448275862069
 50
180.0
  0
LINE
 62
7
  8
DIMENSIONS
 10
86.4367816091954
 20
-2.5517241379310347
 30
0.0
 11
111.95402298850576
 21
-2.5517241379310347
 31
0.0
  0
LINE
 62
5
  8
DIMENSIONS
 10
86.4367816091954
 20
-2.5517241379310347
 30
0.0
 11
86.4367816091954
 21
-0.04482758620689653
 31
0.0
  0
LINE
 62
5
  8
DIMENSIONS
 10
111.95402298850576
 20
-2.5517241379310347
 30
0.0
 11
111.95402298850576
 21
-0.04482758620689653
 31
0.0
  0
TEXT
 62
7
  8
DIMENSIONS
 10
99.19540229885058
 20
-1.5429118773946362
 30
0.0
 40
1.6176245210727969
  1
26
 50
-0.0
  7
ISOCPEUR
 72
1
 73
2
 11
99.19540229885058
 21
-1.5429118773946362
 31
0.0
  0
INSERT
  8
DIMENSIONS
  2
DIMTICK_ARROW
 10
86.4367816091954
 20
-2.5517241379310347
 30
0.0
 41
5.103448275862069
 42
5.103448275862069
 50
0.0
  0
INSERT
  8
DIMENSIONS
  2
DIMTICK_ARROW
 10
111.95402298850576
 20
-2.5517241379310347
 30
0.0
 41
5.103448275862069
 42
5.103448275862069
 50
180.0
  0
LINE
 62
7
  8
DIMENSIONS
 10
86.4367816091954
 20
-2.5517241379310347
 30
0.0
 11
111.95402298850576
 21
-2.5517241379310347
 31
0.0
  0
LINE
 62
5
  8
DIMENSIONS
 10
86.4367816091954
 20
-2.5517241379310347
 30
0.0
 11
86.4367816091954
 21
-0.04482758620689653
 31
0.0
  0
LINE
 62
5
  8
DIMENSIONS
 10
111.95402298850576
 20
-2.5517241379310347
 30
0.0
 11
111.95402298850576
 21
-0.04482758620689653
 31
0.0
  0
TEXT
 62
7
  8
DIMENSIONS
 10
99.19540229885058
 20
-1.5429118773946362
 30
0.0
 40
1.6176245210727969
  1
26
 50
-0.0
  7
ISOCPEUR
 72
1
 73
2
 11
99.19540229885058
 21
-1.5429118773946362
 31
0.0
  0
INSERT
  8
DIMENSIONS
  2
DIMTICK_ARROW
 10
86.4367816091954
 20
-2.5517241379310347
 30
0.0
 41
5.103448275862069
 42
5.103448275862069
 50
0.0
  0
INSERT
  8
DIMENSIONS
  2
DIMTICK_ARROW
 10
111.95402298850576
 20
-2.5517241379310347
 30
0.0
 41
5.103448275862069
 42
5.103448275862069
 50
180.0
  0
LINE
 62
7
  8
DIMENSIONS
 10
86.4367816091954
 20
-2.5517241379310347
 30
0.0
 11
111.95402298850576
 21
-2.5517241379310347
 31
0.0
  0
LINE
 62
5
  8
DIMENSIONS
 10
86.4367816091954
 20
-2.5517241379310347
 30
0.0
 11
86.4367816091954
 21
-0.04482758620689653
 31
0.0
  0
LINE
 62
5
  8
DIMENSIONS
 10
111.95402298850576
 20
-2.5517241379310347
 30
0.0
 11
111.95402298850576
 21
-0.04482758620689653
 31
0.0
  0
TEXT
 62
7
  8
DIMENSIONS
 10
99.19540229885058
 20
-1.5429118773946362
 30
0.0
 40
1.6176245210727969
  1
26
 50
-0.0
  7
ISOCPEUR
 72
1
 73
2
 11
99.19540229885058
 21
-1.5429118773946362
 31
0.0
  0
INSERT
  8
DIMENSIONS
  2
DIMTICK_ARROW
 10
86.4367816091954
 20
-2.5517241379310347
 30
0.0
 41
5.103448275862069
 42
5.103448275862069
 50
0.0
  0
INSERT
  8
DIMENSIONS
  2
DIMTICK_ARROW
 10
111.95402298850576
 20
-2.5517241379310347
 30
0.0
 41
5.103448275862069
 42
5.103448275862069
 50
180.0
  0
LINE
 62
7
  8
DIMENSIONS
 10
86.4367816091954
 20
-2.5517241379310347
 30
0.0
 11
111.95402298850576
 21
-2.5517241379310347
 31
0.0
  0
LINE
 62
5
  8
DIMENSIONS
 10
86.4367816091954
 20
-2.5517241379310347
 30
0.0
 11
86.4367816091954
 21
-0.04482758620689653
 31
0.0
  0
LINE
 62
5
  8
DIMENSIONS
 10
111.95402298850576
 20
-2.5517241379310347
 30
0.0
 11
111.95402298850576
 21
-0.04482758620689653
 31
0.0
  0
TEXT
 62
7
  8
DIMENSIONS
 10
99.19540229885058
 20
-1.5429118773946362
 30
0.0
 40
1.6176245210727969
  1
26
 50
-0.0
  7
ISOCPEUR
 72
1
 73
2
 11
99.19540229885058
 21
-1.5429118773946362
 31
0.0
  0
INSERT
  8
DIMENSIONS
  2
DIMTICK_ARROW
 10
86.4367816091954
 20
-2.5517241379310347
 30
0.0
 41
5.103448275862069
 42
5.103448275862069
 50
0.0
  0
INSERT
  8
DIMENSIONS
  2
DIMTICK_ARROW
 10
111.95402298850576
 20
-2.5517241379310347
 30
0.0
 41
5.103448275862069
 42
5.103448275862069
 50
180.0
  0
LINE
 62
7
  8
DIMENSIONS
 10
86.4367816091954
 20
-2.5517241379310347
 30
0.0
 11
111.95402298850576
 21
-2.5517241379310347
 31
0.0
  0
LINE
 62
5
  8
DIMENSIONS
 10
86.4367816091954
 20
-2.5517241379310347
 30
0.0
 11
86.4367816091954
 21
-0.04482758620689653
 31
0.0
  0
LINE
 62
5
  8
DIMENSIONS
 10
111.95402298850576
 20
-2.5517241379310347
 30
0.0
 11
111.95402298850576
 21
-0.04482758620689653
 31
0.0
  0
TEXT
 62
7
  8
DIMENSIONS
 10
99.19540229885058
 20
-1.5429118773946362
 30
0.0
 40
1.6176245210727969
  1
26
 50
-0.0
  7
ISOCPEUR
 72
1
 73
2
 11
99.19540229885058
 21
-1.5429118773946362
 31
0.0
  0
INSERT
  8
DIMENSIONS
  2
DIMTICK_ARROW
 10
86.4367816091954
 20
-2.5517241379310347
 30
0.0
 41
5.103448275862069
 42
5.103448275862069
 50
0.0
  0
INSERT
  8
DIMENSIONS
  2
DIMTICK_ARROW
 10
111.95402298850576
 20
-2.5517241379310347
 30
0.0
 41
5.103448275862069
 42
5.103448275862069
 50
180.0
  0
LINE
 62
7
  8
DIMENSIONS
 10
86.4367816091954
 20
-2.5517241379310347
 30
0.0
 11
111.95402298850576
 21
-2.5517241379310347
 31
0.0
  0
LINE
 62
5
  8
DIMENSIONS
 10
86.4367816091954
 20
-2.5517241379310347
 30
0.0
 11
86.4367816091954
 21
-0.04482758620689653
 31
0.0
  0
LINE
 62
5
  8
DIMENSIONS
 10
111.95402298850576
 20
-2.5517241379310347
 30
0.0
 11
111.95402298850576
 21
-0.04482758620689653
 31
0.0
  0
TEXT
 62
7
  8
DIMENSIONS
 10
99.19540229885058
 20
-1.5429118773946362
 30
0.0
 40
1.6176245210727969
  1
26
 50
-0.0
  7
ISOCPEUR
 72
1
 73
2
 11
99.19540229885058
 21
-1.5429118773946362
 31
0.0
  0
INSERT
  8
DIMENSIONS
  2
DIMTICK_ARROW
 10
86.4367816091954
 20
-2.5517241379310347
 30
0.0
 41
5.103448275862069
 42
5.103448275862069
 50
0.0
  0
INSERT
  8
DIMENSIONS
  2
DIMTICK_ARROW
 10
111.95402298850576
 20
-2.5517241379310347
 30
0.0
 41
5.103448275862069
 42
5.103448275862069
 50
180.0
  0
LINE
 62
7
  8
DIMENSIONS
 10
86.4367816091954
 20
-2.5517241379310347
 30
0.0
 11
111.95402298850576
 21
-2.5517241379310347
 31
0.0
  0
LINE
 62
5
  8
DIMENSIONS
 10
86.4367816091954
 20
-2.5517241379310347
 30
0.0
 11
86.4367816091954
 21
-0.04482758620689653
 31
0.0
  0
LINE
 62
5
  8
DIMENSIONS
 10
111.95402298850576
 20
-2.5517241379310347
 30
0.0
 11
111.95402298850576
 21
-0.04482758620689653
 31
0.0
  0
TEXT
 62
7
  8
DIMENSIONS
 10
99.19540229885058
 20
-1.5429118773946362
 30
0.0
 40
1.6176245210727969
  1
26
 50
-0.0
  7
ISOCPEUR
 72
1
 73
2
 11
99.19540229885058
 21
-1.5429118773946362
 31
0.0
  0
INSERT
  8
DIMENSIONS
  2
DIMTICK_ARROW
 10
86.4367816091954
 20
-2.5517241379310347
 30
0.0
 41
5.103448275862069
 42
5.103448275862069
 50
0.0
  0
INSERT
  8
DIMENSIONS
  2
DIMTICK_ARROW
 10
111.95402298850576
 20
-2.5517241379310347
 30
0.0
 41
5.103448275862069
 42
5.103448275862069
 50
180.0
  0
LINE
 62
7
  8
DIMENSIONS
 10
86.4367816091954
 20
-2.5517241379310347
 30
0.0
 11
111.95402298850576
 21
-2.5517241379310347
 31
0.0
  0
LINE
 62
5
  8
DIMENSIONS
 10
86.4367816091954
 20
-2.5517241379310347
 30
0.0
 11
86.4367816091954
 21
-0.04482758620689653
 31
0.0
  0
LINE
 62
5
  8
DIMENSIONS
 10
111.95402298850576
 20
-2.5517241379310347
 30
0.0
 11
111.95402298850576
 21
-0.04482758620689653
 31
0.0
  0
TEXT
 62
7
  8
DIMENSIONS
 10
99.19540229885058
 20
-1.5429118773946362
 30
0.0
 40
1.6176245210727969
  1
26
 50
-0.0
  7
ISOCPEUR
 72
1
 73
2
 11
99.19540229885058
 21
-1.5429118773946362
 31
0.0
  0
INSERT
  8
DIMENSIONS
  2
DIMTICK_ARROW
 10
86.4367816091954
 20
-2.5517241379310347
 30
0.0
 41
5.103448275862069
 42
5.103448275862069
 50
0.0
  0
INSERT
  8
DIMENSIONS
  2
DIMTICK_ARROW
 10
111.95402298850576
 20
-2.5517241379310347
 30
0.0
 41
5.103448275862069
 42
5.103448275862069
 50
180.0
  0
LINE
 62
7
  8
DIMENSIONS
 10
86.4367816091954
 20
-2.5517241379310347
 30
0.0
 11
111.95402298850576
 21
-2.5517241379310347
 31
0.0
  0
LINE
 62
5
  8
DIMENSIONS
 10
86.4367816091954
 20
-2.5517241379310347
 30
0.0
 11
86.4367816091954
 21
-0.04482758620689653
 31
0.0
  0
LINE
 62
5
  8
DIMENSIONS
 10
111.95402298850576
 20
-2.5517241379310347
 30
0.0
 11
111.95402298850576
 21
-0.04482758620689653
 31
0.0
  0
TEXT
 62
7
  8
DIMENSIONS
 10
99.19540229885058
 20
-1.5429118773946362
 30
0.0
 40
1.6176245210727969
  1
26
 50
-0.0
  7
ISOCPEUR
 72
1
 73
2
 11
99.19540229885058
 21
-1.5429118773946362
 31
0.0
  0
INSERT
  8
DIMENSIONS
  2
DIMTICK_ARROW
 10
86.4367816091954
 20
-2.5517241379310347
 30
0.0
 41
5.103448275862069
 42
5.103448275862069
 50
0.0
  0
INSERT
  8
DIMENSIONS
  2
DIMTICK_ARROW
 10
111.95402298850576
 20
-2.5517241379310347
 30
0.0
 41
5.103448275862069
 42
5.103448275862069
 50
180.0
  0
LINE
 62
3
  8
0
 10
0.0
 20
0.0
 30
0.0
 11
40.689655172413794
 21
0.0
 31
0.0
  0
LINE
 62
7
  8
DIMENSIONS
 10
0.0
 20
-4.068965517241379
 30
0.0
 11
40.689655172413794
 21
-4.068965517241379
 31
0.0
  0
LINE
 62
5
  8
DIMENSIONS
 10
0.0
 20
-4.068965517241379
 30
0.0
 11
0.0
 21
0.10689655172413792
 31
0.0
  0
LINE
 62
5
  8
DIMENSIONS
 10
40.689655172413794
 20
-4.068965517241379
 30
0.0
 11
40.689655172413794
 21
0.10689655172413792
 31
0.0
  0
TEXT
 62
7
  8
DIMENSIONS
 10
20.344827586206897
 20
-2.6386973180076625
 30
0.0
 40
2.460536398467433
  1
41
 50
-0.0
  7
ISOCPEUR
 72
1
 73
2
 11
20.344827586206897
 21
-2.6386973180076625
 31
0.0
  0
INSERT
  8
DIMENSIONS
  2
DIMTICK_ARROW
 10
0.0
 20
-4.068965517241379
 30
0.0
 41
8.137931034482758
 42
8.137931034482758
 50
0.0
  0
INSERT
  8
DIMENSIONS
  2
DIMTICK_ARROW
 10
40.689655172413794
 20
-4.068965517241379
 30
0.0
 41
8.137931034482758
 42
8.137931034482758
 50
180.0
  0
LINE
 62
7
  8
DIMENSIONS
 10
0.0
 20
-4.068965517241379
 30
0.0
 11
40.689655172413794
 21
-4.068965517241379
 31
0.0
  0
LINE
 62
5
  8
DIMENSIONS
 10
0.0
 20
-4.068965517241379
 30
0.0
 11
0.0
 21
0.10689655172413792
 31
0.0
  0
LINE
 62
5
  8
DIMENSIONS
 10
40.689655172413794
 20
-4.068965517241379
 30
0.0
 11
40.689655172413794
 21
0.10689655172413792
 31
0.0
  0
TEXT
 62
7
  8
DIMENSIONS
 10
20.344827586206897
 20
-2.6386973180076625
 30
0.0
 40
2.460536398467433
  1
41
 50
-0.0
  7
ISOCPEUR
 72
1
 73
2
 11
20.344827586206897
 21
-2.6386973180076625
 31
0.0
  0
INSERT
  8
DIMENSIONS
  2
DIMTICK_ARROW
 10
0.0
 20
-4.068965517241379
 30
0.0
 41
8.137931034482758
 42
8.137931034482758
 50
0.0
  0
INSERT
  8
DIMENSIONS
  2
DIMTICK_ARROW
 10
40.689655172413794
 20
-4.068965517241379
 30
0.0
 41
8.137931034482758
 42
8.137931034482758
 50
180.0
  0
LINE
 62
7
  8
DIMENSIONS
 10
0.0
 20
-4.068965517241379
 30
0.0
 11
40.689655172413794
 21
-4.068965517241379
 31
0.0
  0
LINE
 62
5
  8
DIMENSIONS
 10
0.0
 20
-4.068965517241379
 30
0.0
 11
0.0
 21
0.10689655172413792
 31
0.0
  0
LINE
 62
5
  8
DIMENSIONS
 10
40.689655172413794
 20
-4.068965517241379
 30
0.0
 11
40.689655172413794
 21
0.10689655172413792
 31
0.0
  0
TEXT
 62
7
  8
DIMENSIONS
 10
20.344827586206897
 20
-2.6386973180076625
 30
0.0
 40
2.460536398467433
  1
41
 50
-0.0
  7
ISOCPEUR
 72
1
 73
2
 11
20.344827586206897
 21
-2.6386973180076625
 31
0.0
  0
INSERT
  8
DIMENSIONS
  2
DIMTICK_ARROW
 10
0.0
 20
-4.068965517241379
 30
0.0
 41
8.137931034482758
 42
8.137931034482758
 50
0.0
  0
INSERT
  8
DIMENSIONS
  2
DIMTICK_ARROW
 10
40.689655172413794
 20
-4.068965517241379
 30
0.0
 41
8.137931034482758
 42
8.137931034482758
 50
180.0
  0
LINE
 62
7
  8
DIMENSIONS
 10
0.0
 20
-4.068965517241379
 30
0.0
 11
40.689655172413794
 21
-4.068965517241379
 31
0.0
  0
LINE
 62
5
  8
DIMENSIONS
 10
0.0
 20
-4.068965517241379
 30
0.0
 11
0.0
 21
0.10689655172413792
 31
0.0
  0
LINE
 62
5
  8
DIMENSIONS
 10
40.689655172413794
 20
-4.068965517241379
 30
0.0
 11
40.689655172413794
 21
0.10689655172413792
 31
0.0
  0
TEXT
 62
7
  8
DIMENSIONS
 10
20.344827586206897
 20
-2.6386973180076625
 30
0.0
 40
2.460536398467433
  1
41
 50
-0.0
  7
ISOCPEUR
 72
1
 73
2
 11
20.344827586206897
 21
-2.6386973180076625
 31
0.0
  0
INSERT
  8
DIMENSIONS
  2
DIMTICK_ARROW
 10
0.0
 20
-4.068965517241379
 30
0.0
 41
8.137931034482758
 42
8.137931034482758
 50
0.0
  0
INSERT
  8
DIMENSIONS
  2
DIMTICK_ARROW
 10
40.689655172413794
 20
-4.068965517241379
 30
0.0
 41
8.137931034482758
 42
8.137931034482758
 50
180.0
  0
LINE
 62
7
  8
DIMENSIONS
 10
0.0
 20
-4.068965517241379
 30
0.0
 11
40.689655172413794
 21
-4.068965517241379
 31
0.0
  0
LINE
 62
5
  8
DIMENSIONS
 10
0.0
 20
-4.068965517241379
 30
0.0
 11
0.0
 21
0.10689655172413792
 31
0.0
  0
LINE
 62
5
  8
DIMENSIONS
 10
40.689655172413794
 20
-4.068965517241379
 30
0.0
 11
40.689655172413794
 21
0.10689655172413792
 31
0.0
  0
TEXT
 62
7
  8
DIMENSIONS
 10
20.344827586206897
 20
-2.6386973180076625
 30
0.0
 40
2.460536398467433
  1
41
 50
-0.0
  7
ISOCPEUR
 72
1
 73
2
 11
20.344827586206897
 21
-2.6386973180076625
 31
0.0
  0
INSERT
  8
DIMENSIONS
  2
DIMTICK_ARROW
 10
0.0
 20
-4.068965517241379
 30
0.0
 41
8.137931034482758
 42
8.137931034482758
 50
0.0
  0
INSERT
  8
DIMENSIONS
  2
DIMTICK_ARROW
 10
40.689655172413794
 20
-4.068965517241379
 30
0.0
 41
8.137931034482758
 42
8.137931034482758
 50
180.0
  0
LINE
 62
7
  8
DIMENSIONS
 10
0.0
 20
-4.068965517241379
 30
0.0
 11
40.689655172413794
 21
-4.068965517241379
 31
0.0
  0
LINE
 62
5
  8
DIMENSIONS
 10
0.0
 20
-4.068965517241379
 30
0.0
 11
0.0
 21
0.10689655172413792
 31
0.0
  0
LINE
 62
5
  8
DIMENSIONS
 10
40.689655172413794
 20
-4.068965517241379
 30
0.0
 11
40.689655172413794
 21
0.10689655172413792
 31
0.0
  0
TEXT
 62
7
  8
DIMENSIONS
 10
20.344827586206897
 20
-2.6386973180076625
 30
0.0
 40
2.460536398467433
  1
41
 50
-0.0
  7
ISOCPEUR
 72
1
 73
2
 11
20.344827586206897
 21
-2.6386973180076625
 31
0.0
  0
INSERT
  8
DIMENSIONS
  2
DIMTICK_ARROW
 10
0.0
 20
-4.068965517241379
 30
0.0
 41
8.137931034482758
 42
8.137931034482758
 50
0.0
  0
INSERT
  8
DIMENSIONS
  2
DIMTICK_ARROW
 10
40.689655172413794
 20
-4.068965517241379
 30
0.0
 41
8.137931034482758
 42
8.137931034482758
 50
180.0
  0
LINE
 62
7
  8
DIMENSIONS
 10
0.0
 20
-4.068965517241379
 30
0.0
 11
40.689655172413794
 21
-4.068965517241379
 31
0.0
  0
LINE
 62
5
  8
DIMENSIONS
 10
0.0
 20
-4.068965517241379
 30
0.0
 11
0.0
 21
0.10689655172413792
 31
0.0
  0
LINE
 62
5
  8
DIMENSIONS
 10
40.689655172413794
 20
-4.068965517241379
 30
0.0
 11
40.689655172413794
 21
0.10689655172413792
 31
0.0
  0
TEXT
 62
7
  8
DIMENSIONS
 10
20.344827586206897
 20
-2.6386973180076625
 30
0.0
 40
2.460536398467433
  1
41
 50
-0.0
  7
ISOCPEUR
 72
1
 73
2
 11
20.344827586206897
 21
-2.6386973180076625
 31
0.0
  0
INSERT
  8
DIMENSIONS
  2
DIMTICK_ARROW
 10
0.0
 20
-4.068965517241379
 30
0.0
 41
8.137931034482758
 42
8.137931034482758
 50
0.0
  0
INSERT
  8
DIMENSIONS
  2
DIMTICK_ARROW
 10
40.689655172413794
 20
-4.068965517241379
 30
0.0
 41
8.137931034482758
 42
8.137931034482758
 50
180.0
  0
LINE
 62
7
  8
DIMENSIONS
 10
0.0
 20
-4.068965517241379
 30
0.0
 11
40.689655172413794
 21
-4.068965517241379
 31
0.0
  0
LINE
 62
5
  8
DIMENSIONS
 10
0.0
 20
-4.068965517241379
 30
0.0
 11
0.0
 21
0.10689655172413792
 31
0.0
  0
LINE
 62
5
  8
DIMENSIONS
 10
40.689655172413794
 20
-4.068965517241379
 30
0.0
 11
40.689655172413794
 21
0.10689655172413792
 31
0.0
  0
TEXT
 62
7
  8
DIMENSIONS
 10
20.344827586206897
 20
-2.6386973180076625
 30
0.0
 40
2.460536398467433
  1
41
 50
-0.0
  7
ISOCPEUR
 72
1
 73
2
 11
20.344827586206897
 21
-2.6386973180076625
 31
0.0
  0
INSERT
  8
DIMENSIONS
  2
DIMTICK_ARROW
 10
0.0
 20
-4.068965517241379
 30
0.0
 41
8.137931034482758
 42
8.137931034482758
 50
0.0
  0
INSERT
  8
DIMENSIONS
  2
DIMTICK_ARROW
 10
40.689655172413794
 20
-4.068965517241379
 30
0.0
 41
8.137931034482758
 42
8.137931034482758
 50
180.0
  0
LINE
 62
7
  8
DIMENSIONS
 10
0.0
 20
-4.068965517241379
 30
0.0
 11
40.689655172413794
 21
-4.068965517241379
 31
0.0
  0
LINE
 62
5
  8
DIMENSIONS
 10
0.0
 20
-4.068965517241379
 30
0.0
 11
0.0
 21
0.10689655172413792
 31
0.0
  0
LINE
 62
5
  8
DIMENSIONS
 10
40.689655172413794
 20
-4.068965517241379
 30
0.0
 11
40.689655172413794
 21
0.10689655172413792
 31
0.0
  0
TEXT
 62
7
  8
DIMENSIONS
 10
20.344827586206897
 20
-2.6386973180076625
 30
0.0
 40
2.460536398467433
  1
41
 50
-0.0
  7
ISOCPEUR
 72
1
 73
2
 11
20.344827586206897
 21
-2.6386973180076625
 31
0.0
  0
INSERT
  8
DIMENSIONS
  2
DIMTICK_ARROW
 10
0.0
 20
-4.068965517241379
 30
0.0
 41
8.137931034482758
 42
8.137931034482758
 50
0.0
  0
INSERT
  8
DIMENSIONS
  2
DIMTICK_ARROW
 10
40.689655172413794
 20
-4.068965517241379
 30
0.0
 41
8.137931034482758
 42
8.137931034482758
 50
180.0
  0
LINE
 62
7
  8
DIMENSIONS
 10
0.0
 20
-4.068965517241379
 30
0.0
 11
40.689655172413794
 21
-4.068965517241379
 31
0.0
  0
LINE
 62
5
  8
DIMENSIONS
 10
0.0
 20
-4.068965517241379
 30
0.0
 11
0.0
 21
0.10689655172413792
 31
0.0
  0
LINE
 62
5
  8
DIMENSIONS
 10
40.689655172413794
 20
-4.068965517241379
 30
0.0
 11
40.689655172413794
 21
0.10689655172413792
 31
0.0
  0
TEXT
 62
7
  8
DIMENSIONS
 10
20.344827586206897
 20
-2.6386973180076625
 30
0.0
 40
2.460536398467433
  1
41
 50
-0.0
  7
ISOCPEUR
 72
1
 73
2
 11
20.344827586206897
 21
-2.6386973180076625
 31
0.0
  0
INSERT
  8
DIMENSIONS
  2
DIMTICK_ARROW
 10
0.0
 20
-4.068965517241379
 30
0.0
 41
8.137931034482758
 42
8.137931034482758
 50
0.0
  0
INSERT
  8
DIMENSIONS
  2
DIMTICK_ARROW
 10
40.689655172413794
 20
-4.068965517241379
 30
0.0
 41
8.137931034482758
 42
8.137931034482758
 50
180.0
  0
LINE
 62
7
  8
DIMENSIONS
 10
0.0
 20
-4.068965517241379
 30
0.0
 11
40.689655172413794
 21
-4.068965517241379
 31
0.0
  0
LINE
 62
5
  8
DIMENSIONS
 10
0.0
 20
-4.068965517241379
 30
0.0
 11
0.0
 21
0.10689655172413792
 31
0.0
  0
LINE
 62
5
  8
DIMENSIONS
 10
40.689655172413794
 20
-4.068965517241379
 30
0.0
 11
40.689655172413794
 21
0.10689655172413792
 31
0.0
  0
TEXT
 62
7
  8
DIMENSIONS
 10
20.344827586206897
 20
-2.6386973180076625
 30
0.0
 40
2.460536398467433
  1
41
 50
-0.0
  7
ISOCPEUR
 72
1
 73
2
 11
20.344827586206897
 21
-2.6386973180076625
 31
0.0
  0
INSERT
  8
DIMENSIONS
  2
DIMTICK_ARROW
 10
0.0
 20
-4.068965517241379
 30
0.0
 41
8.137931034482758
 42
8.137931034482758
 50
0.0
  0
INSERT
  8
DIMENSIONS
  2
DIMTICK_ARROW
 10
40.689655172413794
 20
-4.068965517241379
 30
0.0
 41
8.137931034482758
 42
8.137931034482758
 50
180.0
  0
LINE
 62
7
  8
DIMENSIONS
 10
0.0
 20
-4.068965517241379
 30
0.0
 11
40.689655172413794
 21
-4.068965517241379
 31
0.0
  0
LINE
 62
5
  8
DIMENSIONS
 10
0.0
 20
-4.068965517241379
 30
0.0
 11
0.0
 21
0.10689655172413792
 31
0.0
  0
LINE
 62
5
  8
DIMENSIONS
 10
40.689655172413794
 20
-4.068965517241379
 30
0.0
 11
40.689655172413794
 21
0.10689655172413792
 31
0.0
  0
TEXT
 62
7
  8
DIMENSIONS
 10
20.344827586206897
 20
-2.6386973180076625
 30
0.0
 40
2.460536398467433
  1
41
 50
-0.0
  7
ISOCPEUR
 72
1
 73
2
 11
20.344827586206897
 21
-2.6386973180076625
 31
0.0
  0
INSERT
  8
DIMENSIONS
  2
DIMTICK_ARROW
 10
0.0
 20
-4.068965517241379
 30
0.0
 41
8.137931034482758
 42
8.137931034482758
 50
0.0
  0
INSERT
  8
DIMENSIONS
  2
DIMTICK_ARROW
 10
40.689655172413794
 20
-4.068965517241379
 30
0.0
 41
8.137931034482758
 42
8.137931034482758
 50
180.0
  0
LINE
 62
7
  8
DIMENSIONS
 10
0.0
 20
-4.068965517241379
 30
0.0
 11
40.689655172413794
 21
-4.068965517241379
 31
0.0
  0
LINE
 62
5
  8
DIMENSIONS
 10
0.0
 20
-4.068965517241379
 30
0.0
 11
0.0
 21
0.10689655172413792
 31
0.0
  0
LINE
 62
5
  8
DIMENSIONS
 10
40.689655172413794
 20
-4.068965517241379
 30
0.0
 11
40.689655172413794
 21
0.10689655172413792
 31
0.0
  0
TEXT
 62
7
  8
DIMENSIONS
 10
20.344827586206897
 20
-2.6386973180076625
 30
0.0
 40
2.460536398467433
  1
41
 50
-0.0
  7
ISOCPEUR
 72
1
 73
2
 11
20.344827586206897
 21
-2.6386973180076625
 31
0.0
  0
INSERT
  8
DIMENSIONS
  2
DIMTICK_ARROW
 10
0.0
 20
-4.068965517241379
 30
0.0
 41
8.137931034482758
 42
8.137931034482758
 50
0.0
  0
INSERT
  8
DIMENSIONS
  2
DIMTICK_ARROW
 10
40.689655172413794
 20
-4.068965517241379
 30
0.0
 41
8.137931034482758
 42
8.137931034482758
 50
180.0
  0
LINE
 62
7
  8
DIMENSIONS
 10
0.0
 20
-4.068965517241379
 30
0.0
 11
40.689655172413794
 21
-4.068965517241379
 31
0.0
  0
LINE
 62
5
  8
DIMENSIONS
 10
0.0
 20
-4.068965517241379
 30
0.0
 11
0.0
 21
0.10689655172413792
 31
0.0
  0
LINE
 62
5
  8
DIMENSIONS
 10
40.689655172413794
 20
-4.068965517241379
 30
0.0
 11
40.689655172413794
 21
0.10689655172413792
 31
0.0
  0
TEXT
 62
7
  8
DIMENSIONS
 10
20.344827586206897
 20
-2.6386973180076625
 30
0.0
 40
2.460536398467433
  1
41
 50
-0.0
  7
ISOCPEUR
 72
1
 73
2
 11
20.344827586206897
 21
-2.6386973180076625
 31
0.0
  0
INSERT
  8
DIMENSIONS
  2
DIMTICK_ARROW
 10
0.0
 20
-4.068965517241379
 30
0.0
 41
8.137931034482758
 42
8.137931034482758
 50
0.0
  0
INSERT
  8
DIMENSIONS
  2
DIMTICK_ARROW
 10
40.689655172413794
 20
-4.068965517241379
 30
0.0
 41
8.137931034482758
 42
8.137931034482758
 50
180.0
  0
LINE
 62
7
  8
DIMENSIONS
 10
0.0
 20
-4.068965517241379
 30
0.0
 11
40.689655172413794
 21
-4.068965517241379
 31
0.0
  0
LINE
 62
5
  8
DIMENSIONS
 10
0.0
 20
-4.068965517241379
 30
0.0
 11
0.0
 21
0.10689655172413792
 31
0.0
  0
LINE
 62
5
  8
DIMENSIONS
 10
40.689655172413794
 20
-4.068965517241379
 30
0.0
 11
40.689655172413794
 21
0.10689655172413792
 31
0.0
  0
TEXT
 62
7
  8
DIMENSIONS
 10
20.344827586206897
 20
-2.6386973180076625
 30
0.0
 40
2.460536398467433
  1
41
 50
-0.0
  7
ISOCPEUR
 72
1
 73
2
 11
20.344827586206897
 21
-2.6386973180076625
 31
0.0
  0
INSERT
  8
DIMENSIONS
  2
DIMTICK_ARROW
 10
0.0
 20
-4.068965517241379
 30
0.0
 41
8.137931034482758
 42
8.137931034482758
 50
0.0
  0
INSERT
  8
DIMENSIONS
  2
DIMTICK_ARROW
 10
40.689655172413794
 20
-4.068965517241379
 30
0.0
 41
8.137931034482758
 42
8.137931034482758
 50
180.0
  0
LINE
 62
7
  8
DIMENSIONS
 10
0.0
 20
-4.068965517241379
 30
0.0
 11
40.689655172413794
 21
-4.068965517241379
 31
0.0
  0
LINE
 62
5
  8
DIMENSIONS
 10
0.0
 20
-4.068965517241379
 30
0.0
 11
0.0
 21
0.10689655172413792
 31
0.0
  0
LINE
 62
5
  8
DIMENSIONS
 10
40.689655172413794
 20
-4.068965517241379
 30
0.0
 11
40.689655172413794
 21
0.10689655172413792
 31
0.0
  0
TEXT
 62
7
  8
DIMENSIONS
 10
20.344827586206897
 20
-2.6386973180076625
 30
0.0
 40
2.460536398467433
  1
41
 50
-0.0
  7
ISOCPEUR
 72
1
 73
2
 11
20.344827586206897
 21
-2.6386973180076625
 31
0.0
  0
INSERT
  8
DIMENSIONS
  2
DIMTICK_ARROW
 10
0.0
 20
-4.068965517241379
 30
0.0
 41
8.137931034482758
 42
8.137931034482758
 50
0.0
  0
INSERT
  8
DIMENSIONS
  2
DIMTICK_ARROW
 10
40.689655172413794
 20
-4.068965517241379
 30
0.0
 41
8.137931034482758
 42
8.137931034482758
 50
180.0
  0
LINE
 62
7
  8
DIMENSIONS
 10
0.0
 20
-4.068965517241379
 30
0.0
 11
40.689655172413794
 21
-4.068965517241379
 31
0.0
  0
LINE
 62
5
  8
DIMENSIONS
 10
0.0
 20
-4.068965517241379
 30
0.0
 11
0.0
 21
0.10689655172413792
 31
0.0
  0
LINE
 62
5
  8
DIMENSIONS
 10
40.689655172413794
 20
-4.068965517241379
 30
0.0
 11
40.689655172413794
 21
0.10689655172413792
 31
0.0
  0
TEXT
 62
7
  8
DIMENSIONS
 10
20.344827586206897
 20
-2.6386973180076625
 30
0.0
 40
2.460536398467433
  1
41
 50
-0.0
  7
ISOCPEUR
 72
1
 73
2
 11
20.344827586206897
 21
-2.6386973180076625
 31
0.0
  0
INSERT
  8
DIMENSIONS
  2
DIMTICK_ARROW
 10
0.0
 20
-4.068965517241379
 30
0.0
 41
8.137931034482758
 42
8.137931034482758
 50
0.0
  0
INSERT
  8
DIMENSIONS
  2
DIMTICK_ARROW
 10
40.689655172413794
 20
-4.068965517241379
 30
0.0
 41
8.137931034482758
 42
8.137931034482758
 50
180.0
  0
LINE
 62
7
  8
DIMENSIONS
 10
0.0
 20
-4.068965517241379
 30
0.0
 11
40.689655172413794
 21
-4.068965517241379
 31
0.0
  0
LINE
 62
5
  8
DIMENSIONS
 10
0.0
 20
-4.068965517241379
 30
0.0
 11
0.0
 21
0.10689655172413792
 31
0.0
  0
LINE
 62
5
  8
DIMENSIONS
 10
40.689655172413794
 20
-4.068965517241379
 30
0.0
 11
40.689655172413794
 21
0.10689655172413792
 31
0.0
  0
TEXT
 62
7
  8
DIMENSIONS
 10
20.344827586206897
 20
-2.6386973180076625
 30
0.0
 40
2.460536398467433
  1
41
 50
-0.0
  7
ISOCPEUR
 72
1
 73
2
 11
20.344827586206897
 21
-2.6386973180076625
 31
0.0
  0
INSERT
  8
DIMENSIONS
  2
DIMTICK_ARROW
 10
0.0
 20
-4.068965517241379
 30
0.0
 41
8.137931034482758
 42
8.137931034482758
 50
0.0
  0
INSERT
  8
DIMENSIONS
  2
DIMTICK_ARROW
 10
40.689655172413794
 20
-4.068965517241379
 30
0.0
 41
8.137931034482758
 42
8.137931034482758
 50
180.0
  0
LINE
 62
7
  8
DIMENSIONS
 10
0.0
 20
-4.068965517241379
 30
0.0
 11
40.689655172413794
 21
-4.068965517241379
 31
0.0
  0
LINE
 62
5
  8
DIMENSIONS
 10
0.0
 20
-4.068965517241379
 30
0.0
 11
0.0
 21
0.10689655172413792
 31
0.0
  0
LINE
 62
5
  8
DIMENSIONS
 10
40.689655172413794
 20
-4.068965517241379
 30
0.0
 11
40.689655172413794
 21
0.10689655172413792
 31
0.0
  0
TEXT
 62
7
  8
DIMENSIONS
 10
20.344827586206897
 20
-2.6386973180076625
 30
0.0
 40
2.460536398467433
  1
41
 50
-0.0
  7
ISOCPEUR
 72
1
 73
2
 11
20.344827586206897
 21
-2.6386973180076625
 31
0.0
  0
INSERT
  8
DIMENSIONS
  2
DIMTICK_ARROW
 10
0.0
 20
-4.068965517241379
 30
0.0
 41
8.137931034482758
 42
8.137931034482758
 50
0.0
  0
INSERT
  8
DIMENSIONS
  2
DIMTICK_ARROW
 10
40.689655172413794
 20
-4.068965517241379
 30
0.0
 41
8.137931034482758
 42
8.137931034482758
 50
180.0
  0
LINE
 62
7
  8
DIMENSIONS
 10
0.0
 20
-4.068965517241379
 30
0.0
 11
40.689655172413794
 21
-4.068965517241379
 31
0.0
  0
LINE
 62
5
  8
DIMENSIONS
 10
0.0
 20
-4.068965517241379
 30
0.0
 11
0.0
 21
0.10689655172413792
 31
0.0
  0
LINE
 62
5
  8
DIMENSIONS
 10
40.689655172413794
 20
-4.068965517241379
 30
0.0
 11
40.689655172413794
 21
0.10689655172413792
 31
0.0
  0
TEXT
 62
7
  8
DIMENSIONS
 10
20.344827586206897
 20
-2.6386973180076625
 30
0.0
 40
2.460536398467433
  1
41
 50
-0.0
  7
ISOCPEUR
 72
1
 73
2
 11
20.344827586206897
 21
-2.6386973180076625
 31
0.0
  0
INSERT
  8
DIMENSIONS
  2
DIMTICK_ARROW
 10
0.0
 20
-4.068965517241379
 30
0.0
 41
8.137931034482758
 42
8.137931034482758
 50
0.0
  0
INSERT
  8
DIMENSIONS
  2
DIMTICK_ARROW
 10
40.689655172413794
 20
-4.068965517241379
 30
0.0
 41
8.137931034482758
 42
8.137931034482758
 50
180.0
  0
LINE
 62
3
  8
0
 10
0.0
 20
74.02298850574714
 30
0.0
 11
111.95402298850576
 21
74.02298850574714
 31
0.0
  0
LINE
 62
7
  8
DIMENSIONS
 10
0.0
 20
85.21839080459772
 30
0.0
 11
111.95402298850576
 21
85.21839080459772
 31
0.0
  0
LINE
 62
5
  8
DIMENSIONS
 10
0.0
 20
85.21839080459772
 30
0.0
 11
0.0
 21
74.32298850574713
 31
0.0
  0
LINE
 62
5
  8
DIMENSIONS
 10
111.95402298850576
 20
85.21839080459772
 30
0.0
 11
111.95402298850576
 21
74.32298850574713
 31
0.0
  0
TEXT
 62
7
  8
DIMENSIONS
 10
55.97701149425288
 20
88.62822477650066
 30
0.0
 40
6.419667943805876
  1
112
 50
-0.0
  7
ISOCPEUR
 72
1
 73
2
 11
55.97701149425288
 21
88.62822477650066
 31
0.0
  0
INSERT
  8
DIMENSIONS
  2
DIMTICK_ARROW
 10
0.0
 20
85.21839080459772
 30
0.0
 41
22.390804597701152
 42
22.390804597701152
 50
0.0
  0
INSERT
  8
DIMENSIONS
  2
DIMTICK_ARROW
 10
111.95402298850576
 20
85.21839080459772
 30
0.0
 41
22.390804597701152
 42
22.390804597701152
 50
180.0
  0
LINE
 62
7
  8
DIMENSIONS
 10
0.0
 20
85.21839080459772
 30
0.0
 11
111.95402298850576
 21
85.21839080459772
 31
0.0
  0
LINE
 62
5
  8
DIMENSIONS
 10
0.0
 20
85.21839080459772
 30
0.0
 11
0.0
 21
74.32298850574713
 31
0.0
  0
LINE
 62
5
  8
DIMENSIONS
 10
111.95402298850576
 20
85.21839080459772
 30
0.0
 11
111.95402298850576
 21
74.32298850574713
 31
0.0
  0
TEXT
 62
7
  8
DIMENSIONS
 10
55.97701149425288
 20
88.62822477650066
 30
0.0
 40
6.419667943805876
  1
112
 50
-0.0
  7
ISOCPEUR
 72
1
 73
2
 11
55.97701149425288
 21
88.62822477650066
 31
0.0
  0
INSERT
  8
DIMENSIONS
  2
DIMTICK_ARROW
 10
0.0
 20
85.21839080459772
 30
0.0
 41
22.390804597701152
 42
22.390804597701152
 50
0.0
  0
INSERT
  8
DIMENSIONS
  2
DIMTICK_ARROW
 10
111.95402298850576
 20
85.21839080459772
 30
0.0
 41
22.390804597701152
 42
22.390804597701152
 50
180.0
  0
LINE
 62
7
  8
DIMENSIONS
 10
0.0
 20
85.21839080459772
 30
0.0
 11
111.95402298850576
 21
85.21839080459772
 31
0.0
  0
LINE
 62
5
  8
DIMENSIONS
 10
0.0
 20
85.21839080459772
 30
0.0
 11
0.0
 21
74.32298850574713
 31
0.0
  0
LINE
 62
5
  8
DIMENSIONS
 10
111.95402298850576
 20
85.21839080459772
 30
0.0
 11
111.95402298850576
 21
74.32298850574713
 31
0.0
  0
TEXT
 62
7
  8
DIMENSIONS
 10
55.97701149425288
 20
88.62822477650066
 30
0.0
 40
6.419667943805876
  1
112
 50
-0.0
  7
ISOCPEUR
 72
1
 73
2
 11
55.97701149425288
 21
88.62822477650066
 31
0.0
  0
INSERT
  8
DIMENSIONS
  2
DIMTICK_ARROW
 10
0.0
 20
85.21839080459772
 30
0.0
 41
22.390804597701152
 42
22.390804597701152
 50
0.0
  0
INSERT
  8
DIMENSIONS
  2
DIMTICK_ARROW
 10
111.95402298850576
 20
85.21839080459772
 30
0.0
 41
22.390804597701152
 42
22.390804597701152
 50
180.0
  0
LINE
 62
7
  8
DIMENSIONS
 10
0.0
 20
85.21839080459772
 30
0.0
 11
111.95402298850576
 21
85.21839080459772
 31
0.0
  0
LINE
 62
5
  8
DIMENSIONS
 10
0.0
 20
85.21839080459772
 30
0.0
 11
0.0
 21
74.32298850574713
 31
0.0
  0
LINE
 62
5
  8
DIMENSIONS
 10
111.95402298850576
 20
85.21839080459772
 30
0.0
 11
111.95402298850576
 21
74.32298850574713
 31
0.0
  0
TEXT
 62
7
  8
DIMENSIONS
 10
55.97701149425288
 20
88.62822477650066
 30
0.0
 40
6.419667943805876
  1
112
 50
-0.0
  7
ISOCPEUR
 72
1
 73
2
 11
55.97701149425288
 21
88.62822477650066
 31
0.0
  0
INSERT
  8
DIMENSIONS
  2
DIMTICK_ARROW
 10
0.0
 20
85.21839080459772
 30
0.0
 41
22.390804597701152
 42
22.390804597701152
 50
0.0
  0
INSERT
  8
DIMENSIONS
  2
DIMTICK_ARROW
 10
111.95402298850576
 20
85.21839080459772
 30
0.0
 41
22.390804597701152
 42
22.390804597701152
 50
180.0
  0
LINE
 62
7
  8
DIMENSIONS
 10
0.0
 20
85.21839080459772
 30
0.0
 11
111.95402298850576
 21
85.21839080459772
 31
0.0
  0
LINE
 62
5
  8
DIMENSIONS
 10
0.0
 20
85.21839080459772
 30
0.0
 11
0.0
 21
74.32298850574713
 31
0.0
  0
LINE
 62
5
  8
DIMENSIONS
 10
111.95402298850576
 20
85.21839080459772
 30
0.0
 11
111.95402298850576
 21
74.32298850574713
 31
0.0
  0
TEXT
 62
7
  8
DIMENSIONS
 10
55.97701149425288
 20
88.62822477650066
 30
0.0
 40
6.419667943805876
  1
112
 50
-0.0
  7
ISOCPEUR
 72
1
 73
2
 11
55.97701149425288
 21
88.62822477650066
 31
0.0
  0
INSERT
  8
DIMENSIONS
  2
DIMTICK_ARROW
 10
0.0
 20
85.21839080459772
 30
0.0
 41
22.390804597701152
 42
22.390804597701152
 50
0.0
  0
INSERT
  8
DIMENSIONS
  2
DIMTICK_ARROW
 10
111.95402298850576
 20
85.21839080459772
 30
0.0
 41
22.390804597701152
 42
22.390804597701152
 50
180.0
  0
LINE
 62
7
  8
DIMENSIONS
 10
0.0
 20
85.21839080459772
 30
0.0
 11
111.95402298850576
 21
85.21839080459772
 31
0.0
  0
LINE
 62
5
  8
DIMENSIONS
 10
0.0
 20
85.21839080459772
 30
0.0
 11
0.0
 21
74.32298850574713
 31
0.0
  0
LINE
 62
5
  8
DIMENSIONS
 10
111.95402298850576
 20
85.21839080459772
 30
0.0
 11
111.95402298850576
 21
74.32298850574713
 31
0.0
  0
TEXT
 62
7
  8
DIMENSIONS
 10
55.97701149425288
 20
88.62822477650066
 30
0.0
 40
6.419667943805876
  1
112
 50
-0.0
  7
ISOCPEUR
 72
1
 73
2
 11
55.97701149425288
 21
88.62822477650066
 31
0.0
  0
INSERT
  8
DIMENSIONS
  2
DIMTICK_ARROW
 10
0.0
 20
85.21839080459772
 30
0.0
 41
22.390804597701152
 42
22.390804597701152
 50
0.0
  0
INSERT
  8
DIMENSIONS
  2
DIMTICK_ARROW
 10
111.95402298850576
 20
85.21839080459772
 30
0.0
 41
22.390804597701152
 42
22.390804597701152
 50
180.0
  0
LINE
 62
7
  8
DIMENSIONS
 10
0.0
 20
85.21839080459772
 30
0.0
 11
111.95402298850576
 21
85.21839080459772
 31
0.0
  0
LINE
 62
5
  8
DIMENSIONS
 10
0.0
 20
85.21839080459772
 30
0.0
 11
0.0
 21
74.32298850574713
 31
0.0
  0
LINE
 62
5
  8
DIMENSIONS
 10
111.95402298850576
 20
85.21839080459772
 30
0.0
 11
111.95402298850576
 21
74.32298850574713
 31
0.0
  0
TEXT
 62
7
  8
DIMENSIONS
 10
55.97701149425288
 20
88.62822477650066
 30
0.0
 40
6.419667943805876
  1
112
 50
-0.0
  7
ISOCPEUR
 72
1
 73
2
 11
55.97701149425288
 21
88.62822477650066
 31
0.0
  0
INSERT
  8
DIMENSIONS
  2
DIMTICK_ARROW
 10
0.0
 20
85.21839080459772
 30
0.0
 41
22.390804597701152
 42
22.390804597701152
 50
0.0
  0
INSERT
  8
DIMENSIONS
  2
DIMTICK_ARROW
 10
111.95402298850576
 20
85.21839080459772
 30
0.0
 41
22.390804597701152
 42
22.390804597701152
 50
180.0
  0
LINE
 62
7
  8
DIMENSIONS
 10
0.0
 20
85.21839080459772
 30
0.0
 11
111.95402298850576
 21
85.21839080459772
 31
0.0
  0
LINE
 62
5
  8
DIMENSIONS
 10
0.0
 20
85.21839080459772
 30
0.0
 11
0.0
 21
74.32298850574713
 31
0.0
  0
LINE
 62
5
  8
DIMENSIONS
 10
111.95402298850576
 20
85.21839080459772
 30
0.0
 11
111.95402298850576
 21
74.32298850574713
 31
0.0
  0
TEXT
 62
7
  8
DIMENSIONS
 10
55.97701149425288
 20
88.62822477650066
 30
0.0
 40
6.419667943805876
  1
112
 50
-0.0
  7
ISOCPEUR
 72
1
 73
2
 11
55.97701149425288
 21
88.62822477650066
 31
0.0
  0
INSERT
  8
DIMENSIONS
  2
DIMTICK_ARROW
 10
0.0
 20
85.21839080459772
 30
0.0
 41
22.390804597701152
 42
22.390804597701152
 50
0.0
  0
INSERT
  8
DIMENSIONS
  2
DIMTICK_ARROW
 10
111.95402298850576
 20
85.21839080459772
 30
0.0
 41
22.390804597701152
 42
22.390804597701152
 50
180.0
  0
LINE
 62
7
  8
DIMENSIONS
 10
0.0
 20
85.21839080459772
 30
0.0
 11
111.95402298850576
 21
85.21839080459772
 31
0.0
  0
LINE
 62
5
  8
DIMENSIONS
 10
0.0
 20
85.21839080459772
 30
0.0
 11
0.0
 21
74.32298850574713
 31
0.0
  0
LINE
 62
5
  8
DIMENSIONS
 10
111.95402298850576
 20
85.21839080459772
 30
0.0
 11
111.95402298850576
 21
74.32298850574713
 31
0.0
  0
TEXT
 62
7
  8
DIMENSIONS
 10
55.97701149425288
 20
88.62822477650066
 30
0.0
 40
6.419667943805876
  1
112
 50
-0.0
  7
ISOCPEUR
 72
1
 73
2
 11
55.97701149425288
 21
88.62822477650066
 31
0.0
  0
INSERT
  8
DIMENSIONS
  2
DIMTICK_ARROW
 10
0.0
 20
85.21839080459772
 30
0.0
 41
22.390804597701152
 42
22.390804597701152
 50
0.0
  0
INSERT
  8
DIMENSIONS
  2
DIMTICK_ARROW
 10
111.95402298850576
 20
85.21839080459772
 30
0.0
 41
22.390804597701152
 42
22.390804597701152
 50
180.0
  0
LINE
 62
7
  8
DIMENSIONS
 10
0.0
 20
85.21839080459772
 30
0.0
 11
111.95402298850576
 21
85.21839080459772
 31
0.0
  0
LINE
 62
5
  8
DIMENSIONS
 10
0.0
 20
85.21839080459772
 30
0.0
 11
0.0
 21
74.32298850574713
 31
0.0
  0
LINE
 62
5
  8
DIMENSIONS
 10
111.95402298850576
 20
85.21839080459772
 30
0.0
 11
111.95402298850576
 21
74.32298850574713
 31
0.0
  0
TEXT
 62
7
  8
DIMENSIONS
 10
55.97701149425288
 20
88.62822477650066
 30
0.0
 40
6.419667943805876
  1
112
 50
-0.0
  7
ISOCPEUR
 72
1
 73
2
 11
55.97701149425288
 21
88.62822477650066
 31
0.0
  0
INSERT
  8
DIMENSIONS
  2
DIMTICK_ARROW
 10
0.0
 20
85.21839080459772
 30
0.0
 41
22.390804597701152
 42
22.390804597701152
 50
0.0
  0
INSERT
  8
DIMENSIONS
  2
DIMTICK_ARROW
 10
111.95402298850576
 20
85.21839080459772
 30
0.0
 41
22.390804597701152
 42
22.390804597701152
 50
180.0
  0
LINE
 62
7
  8
DIMENSIONS
 10
0.0
 20
85.21839080459772
 30
0.0
 11
111.95402298850576
 21
85.21839080459772
 31
0.0
  0
LINE
 62
5
  8
DIMENSIONS
 10
0.0
 20
85.21839080459772
 30
0.0
 11
0.0
 21
74.32298850574713
 31
0.0
  0
LINE
 62
5
  8
DIMENSIONS
 10
111.95402298850576
 20
85.21839080459772
 30
0.0
 11
111.95402298850576
 21
74.32298850574713
 31
0.0
  0
TEXT
 62
7
  8
DIMENSIONS
 10
55.97701149425288
 20
88.62822477650066
 30
0.0
 40
6.419667943805876
  1
112
 50
-0.0
  7
ISOCPEUR
 72
1
 73
2
 11
55.97701149425288
 21
88.62822477650066
 31
0.0
  0
INSERT
  8
DIMENSIONS
  2
DIMTICK_ARROW
 10
0.0
 20
85.21839080459772
 30
0.0
 41
22.390804597701152
 42
22.390804597701152
 50
0.0
  0
INSERT
  8
DIMENSIONS
  2
DIMTICK_ARROW
 10
111.95402298850576
 20
85.21839080459772
 30
0.0
 41
22.390804597701152
 42
22.390804597701152
 50
180.0
  0
LINE
 62
7
  8
DIMENSIONS
 10
0.0
 20
85.21839080459772
 30
0.0
 11
111.95402298850576
 21
85.21839080459772
 31
0.0
  0
LINE
 62
5
  8
DIMENSIONS
 10
0.0
 20
85.21839080459772
 30
0.0
 11
0.0
 21
74.32298850574713
 31
0.0
  0
LINE
 62
5
  8
DIMENSIONS
 10
111.95402298850576
 20
85.21839080459772
 30
0.0
 11
111.95402298850576
 21
74.32298850574713
 31
0.0
  0
TEXT
 62
7
  8
DIMENSIONS
 10
55.97701149425288
 20
88.62822477650066
 30
0.0
 40
6.419667943805876
  1
112
 50
-0.0
  7
ISOCPEUR
 72
1
 73
2
 11
55.97701149425288
 21
88.62822477650066
 31
0.0
  0
INSERT
  8
DIMENSIONS
  2
DIMTICK_ARROW
 10
0.0
 20
85.21839080459772
 30
0.0
 41
22.390804597701152
 42
22.390804597701152
 50
0.0
  0
INSERT
  8
DIMENSIONS
  2
DIMTICK_ARROW
 10
111.95402298850576
 20
85.21839080459772
 30
0.0
 41
22.390804597701152
 42
22.390804597701152
 50
180.0
  0
LINE
 62
7
  8
DIMENSIONS
 10
0.0
 20
85.21839080459772
 30
0.0
 11
111.95402298850576
 21
85.21839080459772
 31
0.0
  0
LINE
 62
5
  8
DIMENSIONS
 10
0.0
 20
85.21839080459772
 30
0.0
 11
0.0
 21
74.32298850574713
 31
0.0
  0
LINE
 62
5
  8
DIMENSIONS
 10
111.95402298850576
 20
85.21839080459772
 30
0.0
 11
111.95402298850576
 21
74.32298850574713
 31
0.0
  0
TEXT
 62
7
  8
DIMENSIONS
 10
55.97701149425288
 20
88.62822477650066
 30
0.0
 40
6.419667943805876
  1
112
 50
-0.0
  7
ISOCPEUR
 72
1
 73
2
 11
55.97701149425288
 21
88.62822477650066
 31
0.0
  0
INSERT
  8
DIMENSIONS
  2
DIMTICK_ARROW
 10
0.0
 20
85.21839080459772
 30
0.0
 41
22.390804597701152
 42
22.390804597701152
 50
0.0
  0
INSERT
  8
DIMENSIONS
  2
DIMTICK_ARROW
 10
111.95402298850576
 20
85.21839080459772
 30
0.0
 41
22.390804597701152
 42
22.390804597701152
 50
180.0
  0
LINE
 62
7
  8
DIMENSIONS
 10
0.0
 20
85.21839080459772
 30
0.0
 11
111.95402298850576
 21
85.21839080459772
 31
0.0
  0
LINE
 62
5
  8
DIMENSIONS
 10
0.0
 20
85.21839080459772
 30
0.0
 11
0.0
 21
74.32298850574713
 31
0.0
  0
LINE
 62
5
  8
DIMENSIONS
 10
111.95402298850576
 20
85.21839080459772
 30
0.0
 11
111.95402298850576
 21
74.32298850574713
 31
0.0
  0
TEXT
 62
7
  8
DIMENSIONS
 10
55.97701149425288
 20
88.62822477650066
 30
0.0
 40
6.419667943805876
  1
112
 50
-0.0
  7
ISOCPEUR
 72
1
 73
2
 11
55.97701149425288
 21
88.62822477650066
 31
0.0
  0
INSERT
  8
DIMENSIONS
  2
DIMTICK_ARROW
 10
0.0
 20
85.21839080459772
 30
0.0
 41
22.390804597701152
 42
22.390804597701152
 50
0.0
  0
INSERT
  8
DIMENSIONS
  2
DIMTICK_ARROW
 10
111.95402298850576
 20
85.21839080459772
 30
0.0
 41
22.390804597701152
 42
22.390804597701152
 50
180.0
  0
LINE
 62
7
  8
DIMENSIONS
 10
0.0
 20
85.21839080459772
 30
0.0
 11
111.95402298850576
 21
85.21839080459772
 31
0.0
  0
LINE
 62
5
  8
DIMENSIONS
 10
0.0
 20
85.21839080459772
 30
0.0
 11
0.0
 21
74.32298850574713
 31
0.0
  0
LINE
 62
5
  8
DIMENSIONS
 10
111.95402298850576
 20
85.21839080459772
 30
0.0
 11
111.95402298850576
 21
74.32298850574713
 31
0.0
  0
TEXT
 62
7
  8
DIMENSIONS
 10
55.97701149425288
 20
88.62822477650066
 30
0.0
 40
6.419667943805876
  1
112
 50
-0.0
  7
ISOCPEUR
 72
1
 73
2
 11
55.97701149425288
 21
88.62822477650066
 31
0.0
  0
INSERT
  8
DIMENSIONS
  2
DIMTICK_ARROW
 10
0.0
 20
85.21839080459772
 30
0.0
 41
22.390804597701152
 42
22.390804597701152
 50
0.0
  0
INSERT
  8
DIMENSIONS
  2
DIMTICK_ARROW
 10
111.95402298850576
 20
85.21839080459772
 30
0.0
 41
22.390804597701152
 42
22.390804597701152
 50
180.0
  0
LINE
 62
7
  8
DIMENSIONS
 10
0.0
 20
85.21839080459772
 30
0.0
 11
111.95402298850576
 21
85.21839080459772
 31
0.0
  0
LINE
 62
5
  8
DIMENSIONS
 10
0.0
 20
85.21839080459772
 30
0.0
 11
0.0
 21
74.32298850574713
 31
0.0
  0
LINE
 62
5
  8
DIMENSIONS
 10
111.95402298850576
 20
85.21839080459772
 30
0.0
 11
111.95402298850576
 21
74.32298850574713
 31
0.0
  0
TEXT
 62
7
  8
DIMENSIONS
 10
55.97701149425288
 20
88.62822477650066
 30
0.0
 40
6.419667943805876
  1
112
 50
-0.0
  7
ISOCPEUR
 72
1
 73
2
 11
55.97701149425288
 21
88.62822477650066
 31
0.0
  0
INSERT
  8
DIMENSIONS
  2
DIMTICK_ARROW
 10
0.0
 20
85.21839080459772
 30
0.0
 41
22.390804597701152
 42
22.390804597701152
 50
0.0
  0
INSERT
  8
DIMENSIONS
  2
DIMTICK_ARROW
 10
111.95402298850576
 20
85.21839080459772
 30
0.0
 41
22.390804597701152
 42
22.390804597701152
 50
180.0
  0
LINE
 62
7
  8
DIMENSIONS
 10
0.0
 20
85.21839080459772
 30
0.0
 11
111.95402298850576
 21
85.21839080459772
 31
0.0
  0
LINE
 62
5
  8
DIMENSIONS
 10
0.0
 20
85.21839080459772
 30
0.0
 11
0.0
 21
74.32298850574713
 31
0.0
  0
LINE
 62
5
  8
DIMENSIONS
 10
111.95402298850576
 20
85.21839080459772
 30
0.0
 11
111.95402298850576
 21
74.32298850574713
 31
0.0
  0
TEXT
 62
7
  8
DIMENSIONS
 10
55.97701149425288
 20
88.62822477650066
 30
0.0
 40
6.419667943805876
  1
112
 50
-0.0
  7
ISOCPEUR
 72
1
 73
2
 11
55.97701149425288
 21
88.62822477650066
 31
0.0
  0
INSERT
  8
DIMENSIONS
  2
DIMTICK_ARROW
 10
0.0
 20
85.21839080459772
 30
0.0
 41
22.390804597701152
 42
22.390804597701152
 50
0.0
  0
INSERT
  8
DIMENSIONS
  2
DIMTICK_ARROW
 10
111.95402298850576
 20
85.21839080459772
 30
0.0
 41
22.390804597701152
 42
22.390804597701152
 50
180.0
  0
LINE
 62
7
  8
DIMENSIONS
 10
0.0
 20
85.21839080459772
 30
0.0
 11
111.95402298850576
 21
85.21839080459772
 31
0.0
  0
LINE
 62
5
  8
DIMENSIONS
 10
0.0
 20
85.21839080459772
 30
0.0
 11
0.0
 21
74.32298850574713
 31
0.0
  0
LINE
 62
5
  8
DIMENSIONS
 10
111.95402298850576
 20
85.21839080459772
 30
0.0
 11
111.95402298850576
 21
74.32298850574713
 31
0.0
  0
TEXT
 62
7
  8
DIMENSIONS
 10
55.97701149425288
 20
88.62822477650066
 30
0.0
 40
6.419667943805876
  1
112
 50
-0.0
  7
ISOCPEUR
 72
1
 73
2
 11
55.97701149425288
 21
88.62822477650066
 31
0.0
  0
INSERT
  8
DIMENSIONS
  2
DIMTICK_ARROW
 10
0.0
 20
85.21839080459772
 30
0.0
 41
22.390804597701152
 42
22.390804597701152
 50
0.0
  0
INSERT
  8
DIMENSIONS
  2
DIMTICK_ARROW
 10
111.95402298850576
 20
85.21839080459772
 30
0.0
 41
22.390804597701152
 42
22.390804597701152
 50
180.0
  0
LINE
 62
7
  8
DIMENSIONS
 10
0.0
 20
85.21839080459772
 30
0.0
 11
111.95402298850576
 21
85.21839080459772
 31
0.0
  0
LINE
 62
5
  8
DIMENSIONS
 10
0.0
 20
85.21839080459772
 30
0.0
 11
0.0
 21
74.32298850574713
 31
0.0
  0
LINE
 62
5
  8
DIMENSIONS
 10
111.95402298850576
 20
85.21839080459772
 30
0.0
 11
111.95402298850576
 21
74.32298850574713
 31
0.0
  0
TEXT
 62
7
  8
DIMENSIONS
 10
55.97701149425288
 20
88.62822477650066
 30
0.0
 40
6.419667943805876
  1
112
 50
-0.0
  7
ISOCPEUR
 72
1
 73
2
 11
55.97701149425288
 21
88.62822477650066
 31
0.0
  0
INSERT
  8
DIMENSIONS
  2
DIMTICK_ARROW
 10
0.0
 20
85.21839080459772
 30
0.0
 41
22.390804597701152
 42
22.390804597701152
 50
0.0
  0
INSERT
  8
DIMENSIONS
  2
DIMTICK_ARROW
 10
111.95402298850576
 20
85.21839080459772
 30
0.0
 41
22.390804597701152
 42
22.390804597701152
 50
180.0
  0
LINE
 62
3
  8
0
 10
111.95402298850576
 20
0.0
 30
0.0
 11
111.95402298850576
 21
16.551724137931036
 31
0.0
  0
LINE
 62
7
  8
DIMENSIONS
 10
113.60919540229887
 20
-2.0270015985887268e-16
 30
0.0
 11
113.60919540229887
 21
16.551724137931036
 31
0.0
  0
LINE
 62
5
  8
DIMENSIONS
 10
113.60919540229887
 20
-2.0270015985887268e-16
 30
0.0
 11
112.25402298850575
 21
-3.673940397442052e-17
 31
0.0
  0
LINE
 62
5
  8
DIMENSIONS
 10
113.60919540229887
 20
16.551724137931036
 30
0.0
 11
112.25402298850575
 21
16.551724137931036
 31
0.0
  0
TEXT
 62
7
  8
DIMENSIONS
 10
112.84942528735634
 20
8.275862068965518
 30
0.0
 40
1.1195402298850576
  1
17
 50
90.0
  7
ISOCPEUR
 72
1
 73
2
 11
112.84942528735634
 21
8.275862068965518
 31
0.0
  0
INSERT
  8
DIMENSIONS
  2
DIMTICK_ARROW
 10
113.60919540229887
 20
-2.0270015985887268e-16
 30
0.0
 41
3.3103448275862073
 42
3.3103448275862073
 50
90.0
  0
INSERT
  8
DIMENSIONS
  2
DIMTICK_ARROW
 10
113.60919540229887
 20
16.551724137931036
 30
0.0
 41
3.3103448275862073
 42
3.3103448275862073
 50
270.0
  0
LINE
 62
7
  8
DIMENSIONS
 10
113.60919540229887
 20
-2.0270015985887268e-16
 30
0.0
 11
113.60919540229887
 21
16.551724137931036
 31
0.0
  0
LINE
 62
5
  8
DIMENSIONS
 10
113.60919540229887
 20
-2.0270015985887268e-16
 30
0.0
 11
112.25402298850575
 21
-3.673940397442052e-17
 31
0.0
  0
LINE
 62
5
  8
DIMENSIONS
 10
113.60919540229887
 20
16.551724137931036
 30
0.0
 11
112.25402298850575
 21
16.551724137931036
 31
0.0
  0
TEXT
 62
7
  8
DIMENSIONS
 10
112.84942528735634
 20
8.275862068965518
 30
0.0
 40
1.1195402298850576
  1
17
 50
90.0
  7
ISOCPEUR
 72
1
 73
2
 11
112.84942528735634
 21
8.275862068965518
 31
0.0
  0
INSERT
  8
DIMENSIONS
  2
DIMTICK_ARROW
 10
113.60919540229887
 20
-2.0270015985887268e-16
 30
0.0
 41
3.3103448275862073
 42
3.3103448275862073
 50
90.0
  0
INSERT
  8
DIMENSIONS
  2
DIMTICK_ARROW
 10
113.60919540229887
 20
16.551724137931036
 30
0.0
 41
3.3103448275862073
 42
3.3103448275862073
 50
270.0
  0
LINE
 62
7
  8
DIMENSIONS
 10
113.60919540229887
 20
-2.0270015985887268e-16
 30
0.0
 11
113.60919540229887
 21
16.551724137931036
 31
0.0
  0
LINE
 62
5
  8
DIMENSIONS
 10
113.60919540229887
 20
-2.0270015985887268e-16
 30
0.0
 11
112.25402298850575
 21
-3.673940397442052e-17
 31
0.0
  0
LINE
 62
5
  8
DIMENSIONS
 10
113.60919540229887
 20
16.551724137931036
 30
0.0
 11
112.25402298850575
 21
16.551724137931036
 31
0.0
  0
TEXT
 62
7
  8
DIMENSIONS
 10
112.84942528735634
 20
8.275862068965518
 30
0.0
 40
1.1195402298850576
  1
17
 50
90.0
  7
ISOCPEUR
 72
1
 73
2
 11
112.84942528735634
 21
8.275862068965518
 31
0.0
  0
INSERT
  8
DIMENSIONS
  2
DIMTICK_ARROW
 10
113.60919540229887
 20
-2.0270015985887268e-16
 30
0.0
 41
3.3103448275862073
 42
3.3103448275862073
 50
90.0
  0
INSERT
  8
DIMENSIONS
  2
DIMTICK_ARROW
 10
113.60919540229887
 20
16.551724137931036
 30
0.0
 41
3.3103448275862073
 42
3.3103448275862073
 50
270.0
  0
LINE
 62
7
  8
DIMENSIONS
 10
113.60919540229887
 20
-2.0270015985887268e-16
 30
0.0
 11
113.60919540229887
 21
16.551724137931036
 31
0.0
  0
LINE
 62
5
  8
DIMENSIONS
 10
113.60919540229887
 20
-2.0270015985887268e-16
 30
0.0
 11
112.25402298850575
 21
-3.673940397442052e-17
 31
0.0
  0
LINE
 62
5
  8
DIMENSIONS
 10
113.60919540229887
 20
16.551724137931036
 30
0.0
 11
112.25402298850575
 21
16.551724137931036
 31
0.0
  0
TEXT
 62
7
  8
DIMENSIONS
 10
112.84942528735634
 20
8.275862068965518
 30
0.0
 40
1.1195402298850576
  1
17
 50
90.0
  7
ISOCPEUR
 72
1
 73
2
 11
112.84942528735634
 21
8.275862068965518
 31
0.0
  0
INSERT
  8
DIMENSIONS
  2
DIMTICK_ARROW
 10
113.60919540229887
 20
-2.0270015985887268e-16
 30
0.0
 41
3.3103448275862073
 42
3.3103448275862073
 50
90.0
  0
INSERT
  8
DIMENSIONS
  2
DIMTICK_ARROW
 10
113.60919540229887
 20
16.551724137931036
 30
0.0
 41
3.3103448275862073
 42
3.3103448275862073
 50
270.0
  0
LINE
 62
7
  8
DIMENSIONS
 10
113.60919540229887
 20
-2.0270015985887268e-16
 30
0.0
 11
113.60919540229887
 21
16.551724137931036
 31
0.0
  0
LINE
 62
5
  8
DIMENSIONS
 10
113.60919540229887
 20
-2.0270015985887268e-16
 30
0.0
 11
112.25402298850575
 21
-3.673940397442052e-17
 31
0.0
  0
LINE
 62
5
  8
DIMENSIONS
 10
113.60919540229887
 20
16.551724137931036
 30
0.0
 11
112.25402298850575
 21
16.551724137931036
 31
0.0
  0
TEXT
 62
7
  8
DIMENSIONS
 10
112.84942528735634
 20
8.275862068965518
 30
0.0
 40
1.1195402298850576
  1
17
 50
90.0
  7
ISOCPEUR
 72
1
 73
2
 11
112.84942528735634
 21
8.275862068965518
 31
0.0
  0
INSERT
  8
DIMENSIONS
  2
DIMTICK_ARROW
 10
113.60919540229887
 20
-2.0270015985887268e-16
 30
0.0
 41
3.3103448275862073
 42
3.3103448275862073
 50
90.0
  0
INSERT
  8
DIMENSIONS
  2
DIMTICK_ARROW
 10
113.60919540229887
 20
16.551724137931036
 30
0.0
 41
3.3103448275862073
 42
3.3103448275862073
 50
270.0
  0
LINE
 62
7
  8
DIMENSIONS
 10
113.60919540229887
 20
-2.0270015985887268e-16
 30
0.0
 11
113.60919540229887
 21
16.551724137931036
 31
0.0
  0
LINE
 62
5
  8
DIMENSIONS
 10
113.60919540229887
 20
-2.0270015985887268e-16
 30
0.0
 11
112.25402298850575
 21
-3.673940397442052e-17
 31
0.0
  0
LINE
 62
5
  8
DIMENSIONS
 10
113.60919540229887
 20
16.551724137931036
 30
0.0
 11
112.25402298850575
 21
16.551724137931036
 31
0.0
  0
TEXT
 62
7
  8
DIMENSIONS
 10
112.84942528735634
 20
8.275862068965518
 30
0.0
 40
1.1195402298850576
  1
17
 50
90.0
  7
ISOCPEUR
 72
1
 73
2
 11
112.84942528735634
 21
8.275862068965518
 31
0.0
  0
INSERT
  8
DIMENSIONS
  2
DIMTICK_ARROW
 10
113.60919540229887
 20
-2.0270015985887268e-16
 30
0.0
 41
3.3103448275862073
 42
3.3103448275862073
 50
90.0
  0
INSERT
  8
DIMENSIONS
  2
DIMTICK_ARROW
 10
113.60919540229887
 20
16.551724137931036
 30
0.0
 41
3.3103448275862073
 42
3.3103448275862073
 50
270.0
  0
LINE
 62
7
  8
DIMENSIONS
 10
113.60919540229887
 20
-2.0270015985887268e-16
 30
0.0
 11
113.60919540229887
 21
16.551724137931036
 31
0.0
  0
LINE
 62
5
  8
DIMENSIONS
 10
113.60919540229887
 20
-2.0270015985887268e-16
 30
0.0
 11
112.25402298850575
 21
-3.673940397442052e-17
 31
0.0
  0
LINE
 62
5
  8
DIMENSIONS
 10
113.60919540229887
 20
16.551724137931036
 30
0.0
 11
112.25402298850575
 21
16.551724137931036
 31
0.0
  0
TEXT
 62
7
  8
DIMENSIONS
 10
112.84942528735634
 20
8.275862068965518
 30
0.0
 40
1.1195402298850576
  1
17
 50
90.0
  7
ISOCPEUR
 72
1
 73
2
 11
112.84942528735634
 21
8.275862068965518
 31
0.0
  0
INSERT
  8
DIMENSIONS
  2
DIMTICK_ARROW
 10
113.60919540229887
 20
-2.0270015985887268e-16
 30
0.0
 41
3.3103448275862073
 42
3.3103448275862073
 50
90.0
  0
INSERT
  8
DIMENSIONS
  2
DIMTICK_ARROW
 10
113.60919540229887
 20
16.551724137931036
 30
0.0
 41
3.3103448275862073
 42
3.3103448275862073
 50
270.0
  0
LINE
 62
7
  8
DIMENSIONS
 10
113.60919540229887
 20
-2.0270015985887268e-16
 30
0.0
 11
113.60919540229887
 21
16.551724137931036
 31
0.0
  0
LINE
 62
5
  8
DIMENSIONS
 10
113.60919540229887
 20
-2.0270015985887268e-16
 30
0.0
 11
112.25402298850575
 21
-3.673940397442052e-17
 31
0.0
  0
LINE
 62
5
  8
DIMENSIONS
 10
113.60919540229887
 20
16.551724137931036
 30
0.0
 11
112.25402298850575
 21
16.551724137931036
 31
0.0
  0
TEXT
 62
7
  8
DIMENSIONS
 10
112.84942528735634
 20
8.275862068965518
 30
0.0
 40
1.1195402298850576
  1
17
 50
90.0
  7
ISOCPEUR
 72
1
 73
2
 11
112.84942528735634
 21
8.275862068965518
 31
0.0
  0
INSERT
  8
DIMENSIONS
  2
DIMTICK_ARROW
 10
113.60919540229887
 20
-2.0270015985887268e-16
 30
0.0
 41
3.3103448275862073
 42
3.3103448275862073
 50
90.0
  0
INSERT
  8
DIMENSIONS
  2
DIMTICK_ARROW
 10
113.60919540229887
 20
16.551724137931036
 30
0.0
 41
3.3103448275862073
 42
3.3103448275862073
 50
270.0
  0
LINE
 62
7
  8
DIMENSIONS
 10
113.60919540229887
 20
-2.0270015985887268e-16
 30
0.0
 11
113.60919540229887
 21
16.551724137931036
 31
0.0
  0
LINE
 62
5
  8
DIMENSIONS
 10
113.60919540229887
 20
-2.0270015985887268e-16
 30
0.0
 11
112.25402298850575
 21
-3.673940397442052e-17
 31
0.0
  0
LINE
 62
5
  8
DIMENSIONS
 10
113.60919540229887
 20
16.551724137931036
 30
0.0
 11
112.25402298850575
 21
16.551724137931036
 31
0.0
  0
TEXT
 62
7
  8
DIMENSIONS
 10
112.84942528735634
 20
8.275862068965518
 30
0.0
 40
1.1195402298850576
  1
17
 50
90.0
  7
ISOCPEUR
 72
1
 73
2
 11
112.84942528735634
 21
8.275862068965518
 31
0.0
  0
INSERT
  8
DIMENSIONS
  2
DIMTICK_ARROW
 10
113.60919540229887
 20
-2.0270015985887268e-16
 30
0.0
 41
3.3103448275862073
 42
3.3103448275862073
 50
90.0
  0
INSERT
  8
DIMENSIONS
  2
DIMTICK_ARROW
 10
113.60919540229887
 20
16.551724137931036
 30
0.0
 41
3.3103448275862073
 42
3.3103448275862073
 50
270.0
  0
LINE
 62
7
  8
DIMENSIONS
 10
113.60919540229887
 20
-2.0270015985887268e-16
 30
0.0
 11
113.60919540229887
 21
16.551724137931036
 31
0.0
  0
LINE
 62
5
  8
DIMENSIONS
 10
113.60919540229887
 20
-2.0270015985887268e-16
 30
0.0
 11
112.25402298850575
 21
-3.673940397442052e-17
 31
0.0
  0
LINE
 62
5
  8
DIMENSIONS
 10
113.60919540229887
 20
16.551724137931036
 30
0.0
 11
112.25402298850575
 21
16.551724137931036
 31
0.0
  0
TEXT
 62
7
  8
DIMENSIONS
 10
112.84942528735634
 20
8.275862068965518
 30
0.0
 40
1.1195402298850576
  1
17
 50
90.0
  7
ISOCPEUR
 72
1
 73
2
 11
112.84942528735634
 21
8.275862068965518
 31
0.0
  0
INSERT
  8
DIMENSIONS
  2
DIMTICK_ARROW
 10
113.60919540229887
 20
-2.0270015985887268e-16
 30
0.0
 41
3.3103448275862073
 42
3.3103448275862073
 50
90.0
  0
INSERT
  8
DIMENSIONS
  2
DIMTICK_ARROW
 10
113.60919540229887
 20
16.551724137931036
 30
0.0
 41
3.3103448275862073
 42
3.3103448275862073
 50
270.0
  0
LINE
 62
7
  8
DIMENSIONS
 10
113.60919540229887
 20
-2.0270015985887268e-16
 30
0.0
 11
113.60919540229887
 21
16.551724137931036
 31
0.0
  0
LINE
 62
5
  8
DIMENSIONS
 10
113.60919540229887
 20
-2.0270015985887268e-16
 30
0.0
 11
112.25402298850575
 21
-3.673940397442052e-17
 31
0.0
  0
LINE
 62
5
  8
DIMENSIONS
 10
113.60919540229887
 20
16.551724137931036
 30
0.0
 11
112.25402298850575
 21
16.551724137931036
 31
0.0
  0
TEXT
 62
7
  8
DIMENSIONS
 10
112.84942528735634
 20
8.275862068965518
 30
0.0
 40
1.1195402298850576
  1
17
 50
90.0
  7
ISOCPEUR
 72
1
 73
2
 11
112.84942528735634
 21
8.275862068965518
 31
0.0
  0
INSERT
  8
DIMENSIONS
  2
DIMTICK_ARROW
 10
113.60919540229887
 20
-2.0270015985887268e-16
 30
0.0
 41
3.3103448275862073
 42
3.3103448275862073
 50
90.0
  0
INSERT
  8
DIMENSIONS
  2
DIMTICK_ARROW
 10
113.60919540229887
 20
16.551724137931036
 30
0.0
 41
3.3103448275862073
 42
3.3103448275862073
 50
270.0
  0
LINE
 62
7
  8
DIMENSIONS
 10
113.60919540229887
 20
-2.0270015985887268e-16
 30
0.0
 11
113.60919540229887
 21
16.551724137931036
 31
0.0
  0
LINE
 62
5
  8
DIMENSIONS
 10
113.60919540229887
 20
-2.0270015985887268e-16
 30
0.0
 11
112.25402298850575
 21
-3.673940397442052e-17
 31
0.0
  0
LINE
 62
5
  8
DIMENSIONS
 10
113.60919540229887
 20
16.551724137931036
 30
0.0
 11
112.25402298850575
 21
16.551724137931036
 31
0.0
  0
TEXT
 62
7
  8
DIMENSIONS
 10
112.84942528735634
 20
8.275862068965518
 30
0.0
 40
1.1195402298850576
  1
17
 50
90.0
  7
ISOCPEUR
 72
1
 73
2
 11
112.84942528735634
 21
8.275862068965518
 31
0.0
  0
INSERT
  8
DIMENSIONS
  2
DIMTICK_ARROW
 10
113.60919540229887
 20
-2.0270015985887268e-16
 30
0.0
 41
3.3103448275862073
 42
3.3103448275862073
 50
90.0
  0
INSERT
  8
DIMENSIONS
  2
DIMTICK_ARROW
 10
113.60919540229887
 20
16.551724137931036
 30
0.0
 41
3.3103448275862073
 42
3.3103448275862073
 50
270.0
  0
LINE
 62
7
  8
DIMENSIONS
 10
113.60919540229887
 20
-2.0270015985887268e-16
 30
0.0
 11
113.60919540229887
 21
16.551724137931036
 31
0.0
  0
LINE
 62
5
  8
DIMENSIONS
 10
113.60919540229887
 20
-2.0270015985887268e-16
 30
0.0
 11
112.25402298850575
 21
-3.673940397442052e-17
 31
0.0
  0
LINE
 62
5
  8
DIMENSIONS
 10
113.60919540229887
 20
16.551724137931036
 30
0.0
 11
112.25402298850575
 21
16.551724137931036
 31
0.0
  0
TEXT
 62
7
  8
DIMENSIONS
 10
112.84942528735634
 20
8.275862068965518
 30
0.0
 40
1.1195402298850576
  1
17
 50
90.0
  7
ISOCPEUR
 72
1
 73
2
 11
112.84942528735634
 21
8.275862068965518
 31
0.0
  0
INSERT
  8
DIMENSIONS
  2
DIMTICK_ARROW
 10
113.60919540229887
 20
-2.0270015985887268e-16
 30
0.0
 41
3.3103448275862073
 42
3.3103448275862073
 50
90.0
  0
INSERT
  8
DIMENSIONS
  2
DIMTICK_ARROW
 10
113.60919540229887
 20
16.551724137931036
 30
0.0
 41
3.3103448275862073
 42
3.3103448275862073
 50
270.0
  0
LINE
 62
7
  8
DIMENSIONS
 10
113.60919540229887
 20
-2.0270015985887268e-16
 30
0.0
 11
113.60919540229887
 21
16.551724137931036
 31
0.0
  0
LINE
 62
5
  8
DIMENSIONS
 10
113.60919540229887
 20
-2.0270015985887268e-16
 30
0.0
 11
112.25402298850575
 21
-3.673940397442052e-17
 31
0.0
  0
LINE
 62
5
  8
DIMENSIONS
 10
113.60919540229887
 20
16.551724137931036
 30
0.0
 11
112.25402298850575
 21
16.551724137931036
 31
0.0
  0
TEXT
 62
7
  8
DIMENSIONS
 10
112.84942528735634
 20
8.275862068965518
 30
0.0
 40
1.1195402298850576
  1
17
 50
90.0
  7
ISOCPEUR
 72
1
 73
2
 11
112.84942528735634
 21
8.275862068965518
 31
0.0
  0
INSERT
  8
DIMENSIONS
  2
DIMTICK_ARROW
 10
113.60919540229887
 20
-2.0270015985887268e-16
 30
0.0
 41
3.3103448275862073
 42
3.3103448275862073
 50
90.0
  0
INSERT
  8
DIMENSIONS
  2
DIMTICK_ARROW
 10
113.60919540229887
 20
16.551724137931036
 30
0.0
 41
3.3103448275862073
 42
3.3103448275862073
 50
270.0
  0
LINE
 62
7
  8
DIMENSIONS
 10
113.60919540229887
 20
-2.0270015985887268e-16
 30
0.0
 11
113.60919540229887
 21
16.551724137931036
 31
0.0
  0
LINE
 62
5
  8
DIMENSIONS
 10
113.60919540229887
 20
-2.0270015985887268e-16
 30
0.0
 11
112.25402298850575
 21
-3.673940397442052e-17
 31
0.0
  0
LINE
 62
5
  8
DIMENSIONS
 10
113.60919540229887
 20
16.551724137931036
 30
0.0
 11
112.25402298850575
 21
16.551724137931036
 31
0.0
  0
TEXT
 62
7
  8
DIMENSIONS
 10
112.84942528735634
 20
8.275862068965518
 30
0.0
 40
1.1195402298850576
  1
17
 50
90.0
  7
ISOCPEUR
 72
1
 73
2
 11
112.84942528735634
 21
8.275862068965518
 31
0.0
  0
INSERT
  8
DIMENSIONS
  2
DIMTICK_ARROW
 10
113.60919540229887
 20
-2.0270015985887268e-16
 30
0.0
 41
3.3103448275862073
 42
3.3103448275862073
 50
90.0
  0
INSERT
  8
DIMENSIONS
  2
DIMTICK_ARROW
 10
113.60919540229887
 20
16.551724137931036
 30
0.0
 41
3.3103448275862073
 42
3.3103448275862073
 50
270.0
  0
LINE
 62
7
  8
DIMENSIONS
 10
113.60919540229887
 20
-2.0270015985887268e-16
 30
0.0
 11
113.60919540229887
 21
16.551724137931036
 31
0.0
  0
LINE
 62
5
  8
DIMENSIONS
 10
113.60919540229887
 20
-2.0270015985887268e-16
 30
0.0
 11
112.25402298850575
 21
-3.673940397442052e-17
 31
0.0
  0
LINE
 62
5
  8
DIMENSIONS
 10
113.60919540229887
 20
16.551724137931036
 30
0.0
 11
112.25402298850575
 21
16.551724137931036
 31
0.0
  0
TEXT
 62
7
  8
DIMENSIONS
 10
112.84942528735634
 20
8.275862068965518
 30
0.0
 40
1.1195402298850576
  1
17
 50
90.0
  7
ISOCPEUR
 72
1
 73
2
 11
112.84942528735634
 21
8.275862068965518
 31
0.0
  0
INSERT
  8
DIMENSIONS
  2
DIMTICK_ARROW
 10
113.60919540229887
 20
-2.0270015985887268e-16
 30
0.0
 41
3.3103448275862073
 42
3.3103448275862073
 50
90.0
  0
INSERT
  8
DIMENSIONS
  2
DIMTICK_ARROW
 10
113.60919540229887
 20
16.551724137931036
 30
0.0
 41
3.3103448275862073
 42
3.3103448275862073
 50
270.0
  0
LINE
 62
7
  8
DIMENSIONS
 10
113.60919540229887
 20
-2.0270015985887268e-16
 30
0.0
 11
113.60919540229887
 21
16.551724137931036
 31
0.0
  0
LINE
 62
5
  8
DIMENSIONS
 10
113.60919540229887
 20
-2.0270015985887268e-16
 30
0.0
 11
112.25402298850575
 21
-3.673940397442052e-17
 31
0.0
  0
LINE
 62
5
  8
DIMENSIONS
 10
113.60919540229887
 20
16.551724137931036
 30
0.0
 11
112.25402298850575
 21
16.551724137931036
 31
0.0
  0
TEXT
 62
7
  8
DIMENSIONS
 10
112.84942528735634
 20
8.275862068965518
 30
0.0
 40
1.1195402298850576
  1
17
 50
90.0
  7
ISOCPEUR
 72
1
 73
2
 11
112.84942528735634
 21
8.275862068965518
 31
0.0
  0
INSERT
  8
DIMENSIONS
  2
DIMTICK_ARROW
 10
113.60919540229887
 20
-2.0270015985887268e-16
 30
0.0
 41
3.3103448275862073
 42
3.3103448275862073
 50
90.0
  0
INSERT
  8
DIMENSIONS
  2
DIMTICK_ARROW
 10
113.60919540229887
 20
16.551724137931036
 30
0.0
 41
3.3103448275862073
 42
3.3103448275862073
 50
270.0
  0
LINE
 62
7
  8
DIMENSIONS
 10
113.60919540229887
 20
-2.0270015985887268e-16
 30
0.0
 11
113.60919540229887
 21
16.551724137931036
 31
0.0
  0
LINE
 62
5
  8
DIMENSIONS
 10
113.60919540229887
 20
-2.0270015985887268e-16
 30
0.0
 11
112.25402298850575
 21
-3.673940397442052e-17
 31
0.0
  0
LINE
 62
5
  8
DIMENSIONS
 10
113.60919540229887
 20
16.551724137931036
 30
0.0
 11
112.25402298850575
 21
16.551724137931036
 31
0.0
  0
TEXT
 62
7
  8
DIMENSIONS
 10
112.84942528735634
 20
8.275862068965518
 30
0.0
 40
1.1195402298850576
  1
17
 50
90.0
  7
ISOCPEUR
 72
1
 73
2
 11
112.84942528735634
 21
8.275862068965518
 31
0.0
  0
INSERT
  8
DIMENSIONS
  2
DIMTICK_ARROW
 10
113.60919540229887
 20
-2.0270015985887268e-16
 30
0.0
 41
3.3103448275862073
 42
3.3103448275862073
 50
90.0
  0
INSERT
  8
DIMENSIONS
  2
DIMTICK_ARROW
 10
113.60919540229887
 20
16.551724137931036
 30
0.0
 41
3.3103448275862073
 42
3.3103448275862073
 50
270.0
  0
LINE
 62
3
  8
0
 10
0.0
 20
0.0
 30
0.0
 11
0.0
 21
20.689655172413794
 31
0.0
  0
LINE
 62
7
  8
DIMENSIONS
 10
-2.0
 20
2.4492935982947064e-16
 30
0.0
 11
-2.0
 21
20.689655172413794
 31
0.0
  0
LINE
 62
5
  8
DIMENSIONS
 10
-2.0
 20
2.4492935982947064e-16
 30
0.0
 11
-0.3
 21
3.6739403974420595e-17
 31
0.0
  0
LINE
 62
5
  8
DIMENSIONS
 10
-2.0
 20
20.689655172413794
 30
0.0
 11
-0.3
 21
20.689655172413794
 31
0.0
  0
TEXT
 62
7
  8
DIMENSIONS
 10
-2.874712643678161
 20
10.344827586206897
 30
0.0
 40
1.3494252873563217
  1
21
 50
90.0
  7
ISOCPEUR
 72
1
 73
2
 11
-2.874712643678161
 21
10.344827586206897
 31
0.0
  0
INSERT
  8
DIMENSIONS
  2
DIMTICK_ARROW
 10
-2.0
 20
2.4492935982947064e-16
 30
0.0
 41
4.137931034482759
 42
4.137931034482759
 50
90.0
  0
INSERT
  8
DIMENSIONS
  2
DIMTICK_ARROW
 10
-2.0
 20
20.689655172413794
 30
0.0
 41
4.137931034482759
 42
4.137931034482759
 50
270.0
  0
LINE
 62
7
  8
DIMENSIONS
 10
-2.0
 20
2.4492935982947064e-16
 30
0.0
 11
-2.0
 21
20.689655172413794
 31
0.0
  0
LINE
 62
5
  8
DIMENSIONS
 10
-2.0
 20
2.4492935982947064e-16
 30
0.0
 11
-0.3
 21
3.6739403974420595e-17
 31
0.0
  0
LINE
 62
5
  8
DIMENSIONS
 10
-2.0
 20
20.689655172413794
 30
0.0
 11
-0.3
 21
20.689655172413794
 31
0.0
  0
TEXT
 62
7
  8
DIMENSIONS
 10
-2.874712643678161
 20
10.344827586206897
 30
0.0
 40
1.3494252873563217
  1
21
 50
90.0
  7
ISOCPEUR
 72
1
 73
2
 11
-2.874712643678161
 21
10.344827586206897
 31
0.0
  0
INSERT
  8
DIMENSIONS
  2
DIMTICK_ARROW
 10
-2.0
 20
2.4492935982947064e-16
 30
0.0
 41
4.137931034482759
 42
4.137931034482759
 50
90.0
  0
INSERT
  8
DIMENSIONS
  2
DIMTICK_ARROW
 10
-2.0
 20
20.689655172413794
 30
0.0
 41
4.137931034482759
 42
4.137931034482759
 50
270.0
  0
LINE
 62
7
  8
DIMENSIONS
 10
-2.0
 20
2.4492935982947064e-16
 30
0.0
 11
-2.0
 21
20.689655172413794
 31
0.0
  0
LINE
 62
5
  8
DIMENSIONS
 10
-2.0
 20
2.4492935982947064e-16
 30
0.0
 11
-0.3
 21
3.6739403974420595e-17
 31
0.0
  0
LINE
 62
5
  8
DIMENSIONS
 10
-2.0
 20
20.689655172413794
 30
0.0
 11
-0.3
 21
20.689655172413794
 31
0.0
  0
TEXT
 62
7
  8
DIMENSIONS
 10
-2.874712643678161
 20
10.344827586206897
 30
0.0
 40
1.3494252873563217
  1
21
 50
90.0
  7
ISOCPEUR
 72
1
 73
2
 11
-2.874712643678161
 21
10.344827586206897
 31
0.0
  0
INSERT
  8
DIMENSIONS
  2
DIMTICK_ARROW
 10
-2.0
 20
2.4492935982947064e-16
 30
0.0
 41
4.137931034482759
 42
4.137931034482759
 50
90.0
  0
INSERT
  8
DIMENSIONS
  2
DIMTICK_ARROW
 10
-2.0
 20
20.689655172413794
 30
0.0
 41
4.137931034482759
 42
4.137931034482759
 50
270.0
  0
LINE
 62
7
  8
DIMENSIONS
 10
-2.0
 20
2.4492935982947064e-16
 30
0.0
 11
-2.0
 21
20.689655172413794
 31
0.0
  0
LINE
 62
5
  8
DIMENSIONS
 10
-2.0
 20
2.4492935982947064e-16
 30
0.0
 11
-0.3
 21
3.6739403974420595e-17
 31
0.0
  0
LINE
 62
5
  8
DIMENSIONS
 10
-2.0
 20
20.689655172413794
 30
0.0
 11
-0.3
 21
20.689655172413794
 31
0.0
  0
TEXT
 62
7
  8
DIMENSIONS
 10
-2.874712643678161
 20
10.344827586206897
 30
0.0
 40
1.3494252873563217
  1
21
 50
90.0
  7
ISOCPEUR
 72
1
 73
2
 11
-2.874712643678161
 21
10.344827586206897
 31
0.0
  0
INSERT
  8
DIMENSIONS
  2
DIMTICK_ARROW
 10
-2.0
 20
2.4492935982947064e-16
 30
0.0
 41
4.137931034482759
 42
4.137931034482759
 50
90.0
  0
INSERT
  8
DIMENSIONS
  2
DIMTICK_ARROW
 10
-2.0
 20
20.689655172413794
 30
0.0
 41
4.137931034482759
 42
4.137931034482759
 50
270.0
  0
LINE
 62
7
  8
DIMENSIONS
 10
-2.0
 20
2.4492935982947064e-16
 30
0.0
 11
-2.0
 21
20.689655172413794
 31
0.0
  0
LINE
 62
5
  8
DIMENSIONS
 10
-2.0
 20
2.4492935982947064e-16
 30
0.0
 11
-0.3
 21
3.6739403974420595e-17
 31
0.0
  0
LINE
 62
5
  8
DIMENSIONS
 10
-2.0
 20
20.689655172413794
 30
0.0
 11
-0.3
 21
20.689655172413794
 31
0.0
  0
TEXT
 62
7
  8
DIMENSIONS
 10
-2.874712643678161
 20
10.344827586206897
 30
0.0
 40
1.3494252873563217
  1
21
 50
90.0
  7
ISOCPEUR
 72
1
 73
2
 11
-2.874712643678161
 21
10.344827586206897
 31
0.0
  0
INSERT
  8
DIMENSIONS
  2
DIMTICK_ARROW
 10
-2.0
 20
2.4492935982947064e-16
 30
0.0
 41
4.137931034482759
 42
4.137931034482759
 50
90.0
  0
INSERT
  8
DIMENSIONS
  2
DIMTICK_ARROW
 10
-2.0
 20
20.689655172413794
 30
0.0
 41
4.137931034482759
 42
4.137931034482759
 50
270.0
  0
LINE
 62
7
  8
DIMENSIONS
 10
-2.0
 20
2.4492935982947064e-16
 30
0.0
 11
-2.0
 21
20.689655172413794
 31
0.0
  0
LINE
 62
5
  8
DIMENSIONS
 10
-2.0
 20
2.4492935982947064e-16
 30
0.0
 11
-0.3
 21
3.6739403974420595e-17
 31
0.0
  0
LINE
 62
5
  8
DIMENSIONS
 10
-2.0
 20
20.689655172413794
 30
0.0
 11
-0.3
 21
20.689655172413794
 31
0.0
  0
TEXT
 62
7
  8
DIMENSIONS
 10
-2.874712643678161
 20
10.344827586206897
 30
0.0
 40
1.3494252873563217
  1
21
 50
90.0
  7
ISOCPEUR
 72
1
 73
2
 11
-2.874712643678161
 21
10.344827586206897
 31
0.0
  0
INSERT
  8
DIMENSIONS
  2
DIMTICK_ARROW
 10
-2.0
 20
2.4492935982947064e-16
 30
0.0
 41
4.137931034482759
 42
4.137931034482759
 50
90.0
  0
INSERT
  8
DIMENSIONS
  2
DIMTICK_ARROW
 10
-2.0
 20
20.689655172413794
 30
0.0
 41
4.137931034482759
 42
4.137931034482759
 50
270.0
  0
LINE
 62
7
  8
DIMENSIONS
 10
-2.0
 20
2.4492935982947064e-16
 30
0.0
 11
-2.0
 21
20.689655172413794
 31
0.0
  0
LINE
 62
5
  8
DIMENSIONS
 10
-2.0
 20
2.4492935982947064e-16
 30
0.0
 11
-0.3
 21
3.6739403974420595e-17
 31
0.0
  0
LINE
 62
5
  8
DIMENSIONS
 10
-2.0
 20
20.689655172413794
 30
0.0
 11
-0.3
 21
20.689655172413794
 31
0.0
  0
TEXT
 62
7
  8
DIMENSIONS
 10
-2.874712643678161
 20
10.344827586206897
 30
0.0
 40
1.3494252873563217
  1
21
 50
90.0
  7
ISOCPEUR
 72
1
 73
2
 11
-2.874712643678161
 21
10.344827586206897
 31
0.0
  0
INSERT
  8
DIMENSIONS
  2
DIMTICK_ARROW
 10
-2.0
 20
2.4492935982947064e-16
 30
0.0
 41
4.137931034482759
 42
4.137931034482759
 50
90.0
  0
INSERT
  8
DIMENSIONS
  2
DIMTICK_ARROW
 10
-2.0
 20
20.689655172413794
 30
0.0
 41
4.137931034482759
 42
4.137931034482759
 50
270.0
  0
LINE
 62
7
  8
DIMENSIONS
 10
-2.0
 20
2.4492935982947064e-16
 30
0.0
 11
-2.0
 21
20.689655172413794
 31
0.0
  0
LINE
 62
5
  8
DIMENSIONS
 10
-2.0
 20
2.4492935982947064e-16
 30
0.0
 11
-0.3
 21
3.6739403974420595e-17
 31
0.0
  0
LINE
 62
5
  8
DIMENSIONS
 10
-2.0
 20
20.689655172413794
 30
0.0
 11
-0.3
 21
20.689655172413794
 31
0.0
  0
TEXT
 62
7
  8
DIMENSIONS
 10
-2.874712643678161
 20
10.344827586206897
 30
0.0
 40
1.3494252873563217
  1
21
 50
90.0
  7
ISOCPEUR
 72
1
 73
2
 11
-2.874712643678161
 21
10.344827586206897
 31
0.0
  0
INSERT
  8
DIMENSIONS
  2
DIMTICK_ARROW
 10
-2.0
 20
2.4492935982947064e-16
 30
0.0
 41
4.137931034482759
 42
4.137931034482759
 50
90.0
  0
INSERT
  8
DIMENSIONS
  2
DIMTICK_ARROW
 10
-2.0
 20
20.689655172413794
 30
0.0
 41
4.137931034482759
 42
4.137931034482759
 50
270.0
  0
LINE
 62
7
  8
DIMENSIONS
 10
-2.0
 20
2.4492935982947064e-16
 30
0.0
 11
-2.0
 21
20.689655172413794
 31
0.0
  0
LINE
 62
5
  8
DIMENSIONS
 10
-2.0
 20
2.4492935982947064e-16
 30
0.0
 11
-0.3
 21
3.6739403974420595e-17
 31
0.0
  0
LINE
 62
5
  8
DIMENSIONS
 10
-2.0
 20
20.689655172413794
 30
0.0
 11
-0.3
 21
20.689655172413794
 31
0.0
  0
TEXT
 62
7
  8
DIMENSIONS
 10
-2.874712643678161
 20
10.344827586206897
 30
0.0
 40
1.3494252873563217
  1
21
 50
90.0
  7
ISOCPEUR
 72
1
 73
2
 11
-2.874712643678161
 21
10.344827586206897
 31
0.0
  0
INSERT
  8
DIMENSIONS
  2
DIMTICK_ARROW
 10
-2.0
 20
2.4492935982947064e-16
 30
0.0
 41
4.137931034482759
 42
4.137931034482759
 50
90.0
  0
INSERT
  8
DIMENSIONS
  2
DIMTICK_ARROW
 10
-2.0
 20
20.689655172413794
 30
0.0
 41
4.137931034482759
 42
4.137931034482759
 50
270.0
  0
LINE
 62
7
  8
DIMENSIONS
 10
-2.0
 20
2.4492935982947064e-16
 30
0.0
 11
-2.0
 21
20.689655172413794
 31
0.0
  0
LINE
 62
5
  8
DIMENSIONS
 10
-2.0
 20
2.4492935982947064e-16
 30
0.0
 11
-0.3
 21
3.6739403974420595e-17
 31
0.0
  0
LINE
 62
5
  8
DIMENSIONS
 10
-2.0
 20
20.689655172413794
 30
0.0
 11
-0.3
 21
20.689655172413794
 31
0.0
  0
TEXT
 62
7
  8
DIMENSIONS
 10
-2.874712643678161
 20
10.344827586206897
 30
0.0
 40
1.3494252873563217
  1
21
 50
90.0
  7
ISOCPEUR
 72
1
 73
2
 11
-2.874712643678161
 21
10.344827586206897
 31
0.0
  0
INSERT
  8
DIMENSIONS
  2
DIMTICK_ARROW
 10
-2.0
 20
2.4492935982947064e-16
 30
0.0
 41
4.137931034482759
 42
4.137931034482759
 50
90.0
  0
INSERT
  8
DIMENSIONS
  2
DIMTICK_ARROW
 10
-2.0
 20
20.689655172413794
 30
0.0
 41
4.137931034482759
 42
4.137931034482759
 50
270.0
  0
LINE
 62
7
  8
DIMENSIONS
 10
-2.0
 20
2.4492935982947064e-16
 30
0.0
 11
-2.0
 21
20.689655172413794
 31
0.0
  0
LINE
 62
5
  8
DIMENSIONS
 10
-2.0
 20
2.4492935982947064e-16
 30
0.0
 11
-0.3
 21
3.6739403974420595e-17
 31
0.0
  0
LINE
 62
5
  8
DIMENSIONS
 10
-2.0
 20
20.689655172413794
 30
0.0
 11
-0.3
 21
20.689655172413794
 31
0.0
  0
TEXT
 62
7
  8
DIMENSIONS
 10
-2.874712643678161
 20
10.344827586206897
 30
0.0
 40
1.3494252873563217
  1
21
 50
90.0
  7
ISOCPEUR
 72
1
 73
2
 11
-2.874712643678161
 21
10.344827586206897
 31
0.0
  0
INSERT
  8
DIMENSIONS
  2
DIMTICK_ARROW
 10
-2.0
 20
2.4492935982947064e-16
 30
0.0
 41
4.137931034482759
 42
4.137931034482759
 50
90.0
  0
INSERT
  8
DIMENSIONS
  2
DIMTICK_ARROW
 10
-2.0
 20
20.689655172413794
 30
0.0
 41
4.137931034482759
 42
4.137931034482759
 50
270.0
  0
LINE
 62
7
  8
DIMENSIONS
 10
-2.0
 20
2.4492935982947064e-16
 30
0.0
 11
-2.0
 21
20.689655172413794
 31
0.0
  0
LINE
 62
5
  8
DIMENSIONS
 10
-2.0
 20
2.4492935982947064e-16
 30
0.0
 11
-0.3
 21
3.6739403974420595e-17
 31
0.0
  0
LINE
 62
5
  8
DIMENSIONS
 10
-2.0
 20
20.689655172413794
 30
0.0
 11
-0.3
 21
20.689655172413794
 31
0.0
  0
TEXT
 62
7
  8
DIMENSIONS
 10
-2.874712643678161
 20
10.344827586206897
 30
0.0
 40
1.3494252873563217
  1
21
 50
90.0
  7
ISOCPEUR
 72
1
 73
2
 11
-2.874712643678161
 21
10.344827586206897
 31
0.0
  0
INSERT
  8
DIMENSIONS
  2
DIMTICK_ARROW
 10
-2.0
 20
2.4492935982947064e-16
 30
0.0
 41
4.137931034482759
 42
4.137931034482759
 50
90.0
  0
INSERT
  8
DIMENSIONS
  2
DIMTICK_ARROW
 10
-2.0
 20
20.689655172413794
 30
0.0
 41
4.137931034482759
 42
4.137931034482759
 50
270.0
  0
LINE
 62
7
  8
DIMENSIONS
 10
-2.0
 20
2.4492935982947064e-16
 30
0.0
 11
-2.0
 21
20.689655172413794
 31
0.0
  0
LINE
 62
5
  8
DIMENSIONS
 10
-2.0
 20
2.4492935982947064e-16
 30
0.0
 11
-0.3
 21
3.6739403974420595e-17
 31
0.0
  0
LINE
 62
5
  8
DIMENSIONS
 10
-2.0
 20
20.689655172413794
 30
0.0
 11
-0.3
 21
20.689655172413794
 31
0.0
  0
TEXT
 62
7
  8
DIMENSIONS
 10
-2.874712643678161
 20
10.344827586206897
 30
0.0
 40
1.3494252873563217
  1
21
 50
90.0
  7
ISOCPEUR
 72
1
 73
2
 11
-2.874712643678161
 21
10.344827586206897
 31
0.0
  0
INSERT
  8
DIMENSIONS
  2
DIMTICK_ARROW
 10
-2.0
 20
2.4492935982947064e-16
 30
0.0
 41
4.137931034482759
 42
4.137931034482759
 50
90.0
  0
INSERT
  8
DIMENSIONS
  2
DIMTICK_ARROW
 10
-2.0
 20
20.689655172413794
 30
0.0
 41
4.137931034482759
 42
4.137931034482759
 50
270.0
  0
LINE
 62
7
  8
DIMENSIONS
 10
-2.0
 20
2.4492935982947064e-16
 30
0.0
 11
-2.0
 21
20.689655172413794
 31
0.0
  0
LINE
 62
5
  8
DIMENSIONS
 10
-2.0
 20
2.4492935982947064e-16
 30
0.0
 11
-0.3
 21
3.6739403974420595e-17
 31
0.0
  0
LINE
 62
5
  8
DIMENSIONS
 10
-2.0
 20
20.689655172413794
 30
0.0
 11
-0.3
 21
20.689655172413794
 31
0.0
  0
TEXT
 62
7
  8
DIMENSIONS
 10
-2.874712643678161
 20
10.344827586206897
 30
0.0
 40
1.3494252873563217
  1
21
 50
90.0
  7
ISOCPEUR
 72
1
 73
2
 11
-2.874712643678161
 21
10.344827586206897
 31
0.0
  0
INSERT
  8
DIMENSIONS
  2
DIMTICK_ARROW
 10
-2.0
 20
2.4492935982947064e-16
 30
0.0
 41
4.137931034482759
 42
4.137931034482759
 50
90.0
  0
INSERT
  8
DIMENSIONS
  2
DIMTICK_ARROW
 10
-2.0
 20
20.689655172413794
 30
0.0
 41
4.137931034482759
 42
4.137931034482759
 50
270.0
  0
LINE
 62
7
  8
DIMENSIONS
 10
-2.0
 20
2.4492935982947064e-16
 30
0.0
 11
-2.0
 21
20.689655172413794
 31
0.0
  0
LINE
 62
5
  8
DIMENSIONS
 10
-2.0
 20
2.4492935982947064e-16
 30
0.0
 11
-0.3
 21
3.6739403974420595e-17
 31
0.0
  0
LINE
 62
5
  8
DIMENSIONS
 10
-2.0
 20
20.689655172413794
 30
0.0
 11
-0.3
 21
20.689655172413794
 31
0.0
  0
TEXT
 62
7
  8
DIMENSIONS
 10
-2.874712643678161
 20
10.344827586206897
 30
0.0
 40
1.3494252873563217
  1
21
 50
90.0
  7
ISOCPEUR
 72
1
 73
2
 11
-2.874712643678161
 21
10.344827586206897
 31
0.0
  0
INSERT
  8
DIMENSIONS
  2
DIMTICK_ARROW
 10
-2.0
 20
2.4492935982947064e-16
 30
0.0
 41
4.137931034482759
 42
4.137931034482759
 50
90.0
  0
INSERT
  8
DIMENSIONS
  2
DIMTICK_ARROW
 10
-2.0
 20
20.689655172413794
 30
0.0
 41
4.137931034482759
 42
4.137931034482759
 50
270.0
  0
LINE
 62
7
  8
DIMENSIONS
 10
-2.0
 20
2.4492935982947064e-16
 30
0.0
 11
-2.0
 21
20.689655172413794
 31
0.0
  0
LINE
 62
5
  8
DIMENSIONS
 10
-2.0
 20
2.4492935982947064e-16
 30
0.0
 11
-0.3
 21
3.6739403974420595e-17
 31
0.0
  0
LINE
 62
5
  8
DIMENSIONS
 10
-2.0
 20
20.689655172413794
 30
0.0
 11
-0.3
 21
20.689655172413794
 31
0.0
  0
TEXT
 62
7
  8
DIMENSIONS
 10
-2.874712643678161
 20
10.344827586206897
 30
0.0
 40
1.3494252873563217
  1
21
 50
90.0
  7
ISOCPEUR
 72
1
 73
2
 11
-2.874712643678161
 21
10.344827586206897
 31
0.0
  0
INSERT
  8
DIMENSIONS
  2
DIMTICK_ARROW
 10
-2.0
 20
2.4492935982947064e-16
 30
0.0
 41
4.137931034482759
 42
4.137931034482759
 50
90.0
  0
INSERT
  8
DIMENSIONS
  2
DIMTICK_ARROW
 10
-2.0
 20
20.689655172413794
 30
0.0
 41
4.137931034482759
 42
4.137931034482759
 50
270.0
  0
LINE
 62
7
  8
DIMENSIONS
 10
-2.0
 20
2.4492935982947064e-16
 30
0.0
 11
-2.0
 21
20.689655172413794
 31
0.0
  0
LINE
 62
5
  8
DIMENSIONS
 10
-2.0
 20
2.4492935982947064e-16
 30
0.0
 11
-0.3
 21
3.6739403974420595e-17
 31
0.0
  0
LINE
 62
5
  8
DIMENSIONS
 10
-2.0
 20
20.689655172413794
 30
0.0
 11
-0.3
 21
20.689655172413794
 31
0.0
  0
TEXT
 62
7
  8
DIMENSIONS
 10
-2.874712643678161
 20
10.344827586206897
 30
0.0
 40
1.3494252873563217
  1
21
 50
90.0
  7
ISOCPEUR
 72
1
 73
2
 11
-2.874712643678161
 21
10.344827586206897
 31
0.0
  0
INSERT
  8
DIMENSIONS
  2
DIMTICK_ARROW
 10
-2.0
 20
2.4492935982947064e-16
 30
0.0
 41
4.137931034482759
 42
4.137931034482759
 50
90.0
  0
INSERT
  8
DIMENSIONS
  2
DIMTICK_ARROW
 10
-2.0
 20
20.689655172413794
 30
0.0
 41
4.137931034482759
 42
4.137931034482759
 50
270.0
  0
LINE
 62
3
  8
0
 10
111.95402298850576
 20
53.10344827586207
 30
0.0
 11
111.95402298850576
 21
74.02298850574714
 31
0.0
  0
LINE
 62
7
  8
DIMENSIONS
 10
114.04597701149426
 20
53.10344827586207
 30
0.0
 11
114.04597701149426
 21
74.02298850574714
 31
0.0
  0
LINE
 62
5
  8
DIMENSIONS
 10
114.04597701149426
 20
53.10344827586207
 30
0.0
 11
112.25402298850575
 21
53.10344827586207
 31
0.0
  0
LINE
 62
5
  8
DIMENSIONS
 10
114.04597701149426
 20
74.02298850574714
 30
0.0
 11
112.25402298850575
 21
74.02298850574714
 31
0.0
  0
TEXT
 62
7
  8
DIMENSIONS
 10
113.16487867177523
 20
63.56321839080461
 30
0.0
 40
1.3621966794380587
  1
21
 50
90.0
  7
ISOCPEUR
 72
1
 73
2
 11
113.16487867177523
 21
63.56321839080461
 31
0.0
  0
INSERT
  8
DIMENSIONS
  2
DIMTICK_ARROW
 10
114.04597701149426
 20
53.10344827586207
 30
0.0
 41
4.183908045977011
 42
4.183908045977011
 50
90.0
  0
INSERT
  8
DIMENSIONS
  2
DIMTICK_ARROW
 10
114.04597701149426
 20
74.02298850574714
 30
0.0
 41
4.183908045977011
 42
4.183908045977011
 50
270.0
  0
LINE
 62
7
  8
DIMENSIONS
 10
114.04597701149426
 20
53.10344827586207
 30
0.0
 11
114.04597701149426
 21
74.02298850574714
 31
0.0
  0
LINE
 62
5
  8
DIMENSIONS
 10
114.04597701149426
 20
53.10344827586207
 30
0.0
 11
112.25402298850575
 21
53.10344827586207
 31
0.0
  0
LINE
 62
5
  8
DIMENSIONS
 10
114.04597701149426
 20
74.02298850574714
 30
0.0
 11
112.25402298850575
 21
74.02298850574714
 31
0.0
  0
TEXT
 62
7
  8
DIMENSIONS
 10
113.16487867177523
 20
63.56321839080461
 30
0.0
 40
1.3621966794380587
  1
21
 50
90.0
  7
ISOCPEUR
 72
1
 73
2
 11
113.16487867177523
 21
63.56321839080461
 31
0.0
  0
INSERT
  8
DIMENSIONS
  2
DIMTICK_ARROW
 10
114.04597701149426
 20
53.10344827586207
 30
0.0
 41
4.183908045977011
 42
4.183908045977011
 50
90.0
  0
INSERT
  8
DIMENSIONS
  2
DIMTICK_ARROW
 10
114.04597701149426
 20
74.02298850574714
 30
0.0
 41
4.183908045977011
 42
4.183908045977011
 50
270.0
  0
LINE
 62
7
  8
DIMENSIONS
 10
114.04597701149426
 20
53.10344827586207
 30
0.0
 11
114.04597701149426
 21
74.02298850574714
 31
0.0
  0
LINE
 62
5
  8
DIMENSIONS
 10
114.04597701149426
 20
53.10344827586207
 30
0.0
 11
112.25402298850575
 21
53.10344827586207
 31
0.0
  0
LINE
 62
5
  8
DIMENSIONS
 10
114.04597701149426
 20
74.02298850574714
 30
0.0
 11
112.25402298850575
 21
74.02298850574714
 31
0.0
  0
TEXT
 62
7
  8
DIMENSIONS
 10
113.16487867177523
 20
63.56321839080461
 30
0.0
 40
1.3621966794380587
  1
21
 50
90.0
  7
ISOCPEUR
 72
1
 73
2
 11
113.16487867177523
 21
63.56321839080461
 31
0.0
  0
INSERT
  8
DIMENSIONS
  2
DIMTICK_ARROW
 10
114.04597701149426
 20
53.10344827586207
 30
0.0
 41
4.183908045977011
 42
4.183908045977011
 50
90.0
  0
INSERT
  8
DIMENSIONS
  2
DIMTICK_ARROW
 10
114.04597701149426
 20
74.02298850574714
 30
0.0
 41
4.183908045977011
 42
4.183908045977011
 50
270.0
  0
LINE
 62
7
  8
DIMENSIONS
 10
114.04597701149426
 20
53.10344827586207
 30
0.0
 11
114.04597701149426
 21
74.02298850574714
 31
0.0
  0
LINE
 62
5
  8
DIMENSIONS
 10
114.04597701149426
 20
53.10344827586207
 30
0.0
 11
112.25402298850575
 21
53.10344827586207
 31
0.0
  0
LINE
 62
5
  8
DIMENSIONS
 10
114.04597701149426
 20
74.02298850574714
 30
0.0
 11
112.25402298850575
 21
74.02298850574714
 31
0.0
  0
TEXT
 62
7
  8
DIMENSIONS
 10
113.16487867177523
 20
63.56321839080461
 30
0.0
 40
1.3621966794380587
  1
21
 50
90.0
  7
ISOCPEUR
 72
1
 73
2
 11
113.16487867177523
 21
63.56321839080461
 31
0.0
  0
INSERT
  8
DIMENSIONS
  2
DIMTICK_ARROW
 10
114.04597701149426
 20
53.10344827586207
 30
0.0
 41
4.183908045977011
 42
4.183908045977011
 50
90.0
  0
INSERT
  8
DIMENSIONS
  2
DIMTICK_ARROW
 10
114.04597701149426
 20
74.02298850574714
 30
0.0
 41
4.183908045977011
 42
4.183908045977011
 50
270.0
  0
LINE
 62
7
  8
DIMENSIONS
 10
114.04597701149426
 20
53.10344827586207
 30
0.0
 11
114.04597701149426
 21
74.02298850574714
 31
0.0
  0
LINE
 62
5
  8
DIMENSIONS
 10
114.04597701149426
 20
53.10344827586207
 30
0.0
 11
112.25402298850575
 21
53.10344827586207
 31
0.0
  0
LINE
 62
5
  8
DIMENSIONS
 10
114.04597701149426
 20
74.02298850574714
 30
0.0
 11
112.25402298850575
 21
74.02298850574714
 31
0.0
  0
TEXT
 62
7
  8
DIMENSIONS
 10
113.16487867177523
 20
63.56321839080461
 30
0.0
 40
1.3621966794380587
  1
21
 50
90.0
  7
ISOCPEUR
 72
1
 73
2
 11
113.16487867177523
 21
63.56321839080461
 31
0.0
  0
INSERT
  8
DIMENSIONS
  2
DIMTICK_ARROW
 10
114.04597701149426
 20
53.10344827586207
 30
0.0
 41
4.183908045977011
 42
4.183908045977011
 50
90.0
  0
INSERT
  8
DIMENSIONS
  2
DIMTICK_ARROW
 10
114.04597701149426
 20
74.02298850574714
 30
0.0
 41
4.183908045977011
 42
4.183908045977011
 50
270.0
  0
LINE
 62
7
  8
DIMENSIONS
 10
114.04597701149426
 20
53.10344827586207
 30
0.0
 11
114.04597701149426
 21
74.02298850574714
 31
0.0
  0
LINE
 62
5
  8
DIMENSIONS
 10
114.04597701149426
 20
53.10344827586207
 30
0.0
 11
112.25402298850575
 21
53.10344827586207
 31
0.0
  0
LINE
 62
5
  8
DIMENSIONS
 10
114.04597701149426
 20
74.02298850574714
 30
0.0
 11
112.25402298850575
 21
74.02298850574714
 31
0.0
  0
TEXT
 62
7
  8
DIMENSIONS
 10
113.16487867177523
 20
63.56321839080461
 30
0.0
 40
1.3621966794380587
  1
21
 50
90.0
  7
ISOCPEUR
 72
1
 73
2
 11
113.16487867177523
 21
63.56321839080461
 31
0.0
  0
INSERT
  8
DIMENSIONS
  2
DIMTICK_ARROW
 10
114.04597701149426
 20
53.10344827586207
 30
0.0
 41
4.183908045977011
 42
4.183908045977011
 50
90.0
  0
INSERT
  8
DIMENSIONS
  2
DIMTICK_ARROW
 10
114.04597701149426
 20
74.02298850574714
 30
0.0
 41
4.183908045977011
 42
4.183908045977011
 50
270.0
  0
LINE
 62
7
  8
DIMENSIONS
 10
114.04597701149426
 20
53.10344827586207
 30
0.0
 11
114.04597701149426
 21
74.02298850574714
 31
0.0
  0
LINE
 62
5
  8
DIMENSIONS
 10
114.04597701149426
 20
53.10344827586207
 30
0.0
 11
112.25402298850575
 21
53.10344827586207
 31
0.0
  0
LINE
 62
5
  8
DIMENSIONS
 10
114.04597701149426
 20
74.02298850574714
 30
0.0
 11
112.25402298850575
 21
74.02298850574714
 31
0.0
  0
TEXT
 62
7
  8
DIMENSIONS
 10
113.16487867177523
 20
63.56321839080461
 30
0.0
 40
1.3621966794380587
  1
21
 50
90.0
  7
ISOCPEUR
 72
1
 73
2
 11
113.16487867177523
 21
63.56321839080461
 31
0.0
  0
INSERT
  8
DIMENSIONS
  2
DIMTICK_ARROW
 10
114.04597701149426
 20
53.10344827586207
 30
0.0
 41
4.183908045977011
 42
4.183908045977011
 50
90.0
  0
INSERT
  8
DIMENSIONS
  2
DIMTICK_ARROW
 10
114.04597701149426
 20
74.02298850574714
 30
0.0
 41
4.183908045977011
 42
4.183908045977011
 50
270.0
  0
LINE
 62
7
  8
DIMENSIONS
 10
114.04597701149426
 20
53.10344827586207
 30
0.0
 11
114.04597701149426
 21
74.02298850574714
 31
0.0
  0
LINE
 62
5
  8
DIMENSIONS
 10
114.04597701149426
 20
53.10344827586207
 30
0.0
 11
112.25402298850575
 21
53.10344827586207
 31
0.0
  0
LINE
 62
5
  8
DIMENSIONS
 10
114.04597701149426
 20
74.02298850574714
 30
0.0
 11
112.25402298850575
 21
74.02298850574714
 31
0.0
  0
TEXT
 62
7
  8
DIMENSIONS
 10
113.16487867177523
 20
63.56321839080461
 30
0.0
 40
1.3621966794380587
  1
21
 50
90.0
  7
ISOCPEUR
 72
1
 73
2
 11
113.16487867177523
 21
63.56321839080461
 31
0.0
  0
INSERT
  8
DIMENSIONS
  2
DIMTICK_ARROW
 10
114.04597701149426
 20
53.10344827586207
 30
0.0
 41
4.183908045977011
 42
4.183908045977011
 50
90.0
  0
INSERT
  8
DIMENSIONS
  2
DIMTICK_ARROW
 10
114.04597701149426
 20
74.02298850574714
 30
0.0
 41
4.183908045977011
 42
4.183908045977011
 50
270.0
  0
LINE
 62
7
  8
DIMENSIONS
 10
114.04597701149426
 20
53.10344827586207
 30
0.0
 11
114.04597701149426
 21
74.02298850574714
 31
0.0
  0
LINE
 62
5
  8
DIMENSIONS
 10
114.04597701149426
 20
53.10344827586207
 30
0.0
 11
112.25402298850575
 21
53.10344827586207
 31
0.0
  0
LINE
 62
5
  8
DIMENSIONS
 10
114.04597701149426
 20
74.02298850574714
 30
0.0
 11
112.25402298850575
 21
74.02298850574714
 31
0.0
  0
TEXT
 62
7
  8
DIMENSIONS
 10
113.16487867177523
 20
63.56321839080461
 30
0.0
 40
1.3621966794380587
  1
21
 50
90.0
  7
ISOCPEUR
 72
1
 73
2
 11
113.16487867177523
 21
63.56321839080461
 31
0.0
  0
INSERT
  8
DIMENSIONS
  2
DIMTICK_ARROW
 10
114.04597701149426
 20
53.10344827586207
 30
0.0
 41
4.183908045977011
 42
4.183908045977011
 50
90.0
  0
INSERT
  8
DIMENSIONS
  2
DIMTICK_ARROW
 10
114.04597701149426
 20
74.02298850574714
 30
0.0
 41
4.183908045977011
 42
4.183908045977011
 50
270.0
  0
LINE
 62
7
  8
DIMENSIONS
 10
114.04597701149426
 20
53.10344827586207
 30
0.0
 11
114.04597701149426
 21
74.02298850574714
 31
0.0
  0
LINE
 62
5
  8
DIMENSIONS
 10
114.04597701149426
 20
53.10344827586207
 30
0.0
 11
112.25402298850575
 21
53.10344827586207
 31
0.0
  0
LINE
 62
5
  8
DIMENSIONS
 10
114.04597701149426
 20
74.02298850574714
 30
0.0
 11
112.25402298850575
 21
74.02298850574714
 31
0.0
  0
TEXT
 62
7
  8
DIMENSIONS
 10
113.16487867177523
 20
63.56321839080461
 30
0.0
 40
1.3621966794380587
  1
21
 50
90.0
  7
ISOCPEUR
 72
1
 73
2
 11
113.16487867177523
 21
63.56321839080461
 31
0.0
  0
INSERT
  8
DIMENSIONS
  2
DIMTICK_ARROW
 10
114.04597701149426
 20
53.10344827586207
 30
0.0
 41
4.183908045977011
 42
4.183908045977011
 50
90.0
  0
INSERT
  8
DIMENSIONS
  2
DIMTICK_ARROW
 10
114.04597701149426
 20
74.02298850574714
 30
0.0
 41
4.183908045977011
 42
4.183908045977011
 50
270.0
  0
LINE
 62
7
  8
DIMENSIONS
 10
114.04597701149426
 20
53.10344827586207
 30
0.0
 11
114.04597701149426
 21
74.02298850574714
 31
0.0
  0
LINE
 62
5
  8
DIMENSIONS
 10
114.04597701149426
 20
53.10344827586207
 30
0.0
 11
112.25402298850575
 21
53.10344827586207
 31
0.0
  0
LINE
 62
5
  8
DIMENSIONS
 10
114.04597701149426
 20
74.02298850574714
 30
0.0
 11
112.25402298850575
 21
74.02298850574714
 31
0.0
  0
TEXT
 62
7
  8
DIMENSIONS
 10
113.16487867177523
 20
63.56321839080461
 30
0.0
 40
1.3621966794380587
  1
21
 50
90.0
  7
ISOCPEUR
 72
1
 73
2
 11
113.16487867177523
 21
63.56321839080461
 31
0.0
  0
INSERT
  8
DIMENSIONS
  2
DIMTICK_ARROW
 10
114.04597701149426
 20
53.10344827586207
 30
0.0
 41
4.183908045977011
 42
4.183908045977011
 50
90.0
  0
INSERT
  8
DIMENSIONS
  2
DIMTICK_ARROW
 10
114.04597701149426
 20
74.02298850574714
 30
0.0
 41
4.183908045977011
 42
4.183908045977011
 50
270.0
  0
LINE
 62
7
  8
DIMENSIONS
 10
114.04597701149426
 20
53.10344827586207
 30
0.0
 11
114.04597701149426
 21
74.02298850574714
 31
0.0
  0
LINE
 62
5
  8
DIMENSIONS
 10
114.04597701149426
 20
53.10344827586207
 30
0.0
 11
112.25402298850575
 21
53.10344827586207
 31
0.0
  0
LINE
 62
5
  8
DIMENSIONS
 10
114.04597701149426
 20
74.02298850574714
 30
0.0
 11
112.25402298850575
 21
74.02298850574714
 31
0.0
  0
TEXT
 62
7
  8
DIMENSIONS
 10
113.16487867177523
 20
63.56321839080461
 30
0.0
 40
1.3621966794380587
  1
21
 50
90.0
  7
ISOCPEUR
 72
1
 73
2
 11
113.16487867177523
 21
63.56321839080461
 31
0.0
  0
INSERT
  8
DIMENSIONS
  2
DIMTICK_ARROW
 10
114.04597701149426
 20
53.10344827586207
 30
0.0
 41
4.183908045977011
 42
4.183908045977011
 50
90.0
  0
INSERT
  8
DIMENSIONS
  2
DIMTICK_ARROW
 10
114.04597701149426
 20
74.02298850574714
 30
0.0
 41
4.183908045977011
 42
4.183908045977011
 50
270.0
  0
LINE
 62
7
  8
DIMENSIONS
 10
114.04597701149426
 20
53.10344827586207
 30
0.0
 11
114.04597701149426
 21
74.02298850574714
 31
0.0
  0
LINE
 62
5
  8
DIMENSIONS
 10
114.04597701149426
 20
53.10344827586207
 30
0.0
 11
112.25402298850575
 21
53.10344827586207
 31
0.0
  0
LINE
 62
5
  8
DIMENSIONS
 10
114.04597701149426
 20
74.02298850574714
 30
0.0
 11
112.25402298850575
 21
74.02298850574714
 31
0.0
  0
TEXT
 62
7
  8
DIMENSIONS
 10
113.16487867177523
 20
63.56321839080461
 30
0.0
 40
1.3621966794380587
  1
21
 50
90.0
  7
ISOCPEUR
 72
1
 73
2
 11
113.16487867177523
 21
63.56321839080461
 31
0.0
  0
INSERT
  8
DIMENSIONS
  2
DIMTICK_ARROW
 10
114.04597701149426
 20
53.10344827586207
 30
0.0
 41
4.183908045977011
 42
4.183908045977011
 50
90.0
  0
INSERT
  8
DIMENSIONS
  2
DIMTICK_ARROW
 10
114.04597701149426
 20
74.02298850574714
 30
0.0
 41
4.183908045977011
 42
4.183908045977011
 50
270.0
  0
LINE
 62
7
  8
DIMENSIONS
 10
114.04597701149426
 20
53.10344827586207
 30
0.0
 11
114.04597701149426
 21
74.02298850574714
 31
0.0
  0
LINE
 62
5
  8
DIMENSIONS
 10
114.04597701149426
 20
53.10344827586207
 30
0.0
 11
112.25402298850575
 21
53.10344827586207
 31
0.0
  0
LINE
 62
5
  8
DIMENSIONS
 10
114.04597701149426
 20
74.02298850574714
 30
0.0
 11
112.25402298850575
 21
74.02298850574714
 31
0.0
  0
TEXT
 62
7
  8
DIMENSIONS
 10
113.16487867177523
 20
63.56321839080461
 30
0.0
 40
1.3621966794380587
  1
21
 50
90.0
  7
ISOCPEUR
 72
1
 73
2
 11
113.16487867177523
 21
63.56321839080461
 31
0.0
  0
INSERT
  8
DIMENSIONS
  2
DIMTICK_ARROW
 10
114.04597701149426
 20
53.10344827586207
 30
0.0
 41
4.183908045977011
 42
4.183908045977011
 50
90.0
  0
INSERT
  8
DIMENSIONS
  2
DIMTICK_ARROW
 10
114.04597701149426
 20
74.02298850574714
 30
0.0
 41
4.183908045977011
 42
4.183908045977011
 50
270.0
  0
LINE
 62
7
  8
DIMENSIONS
 10
114.04597701149426
 20
53.10344827586207
 30
0.0
 11
114.04597701149426
 21
74.02298850574714
 31
0.0
  0
LINE
 62
5
  8
DIMENSIONS
 10
114.04597701149426
 20
53.10344827586207
 30
0.0
 11
112.25402298850575
 21
53.10344827586207
 31
0.0
  0
LINE
 62
5
  8
DIMENSIONS
 10
114.04597701149426
 20
74.02298850574714
 30
0.0
 11
112.25402298850575
 21
74.02298850574714
 31
0.0
  0
TEXT
 62
7
  8
DIMENSIONS
 10
113.16487867177523
 20
63.56321839080461
 30
0.0
 40
1.3621966794380587
  1
21
 50
90.0
  7
ISOCPEUR
 72
1
 73
2
 11
113.16487867177523
 21
63.56321839080461
 31
0.0
  0
INSERT
  8
DIMENSIONS
  2
DIMTICK_ARROW
 10
114.04597701149426
 20
53.10344827586207
 30
0.0
 41
4.183908045977011
 42
4.183908045977011
 50
90.0
  0
INSERT
  8
DIMENSIONS
  2
DIMTICK_ARROW
 10
114.04597701149426
 20
74.02298850574714
 30
0.0
 41
4.183908045977011
 42
4.183908045977011
 50
270.0
  0
LINE
 62
7
  8
DIMENSIONS
 10
114.04597701149426
 20
53.10344827586207
 30
0.0
 11
114.04597701149426
 21
74.02298850574714
 31
0.0
  0
LINE
 62
5
  8
DIMENSIONS
 10
114.04597701149426
 20
53.10344827586207
 30
0.0
 11
112.25402298850575
 21
53.10344827586207
 31
0.0
  0
LINE
 62
5
  8
DIMENSIONS
 10
114.04597701149426
 20
74.02298850574714
 30
0.0
 11
112.25402298850575
 21
74.02298850574714
 31
0.0
  0
TEXT
 62
7
  8
DIMENSIONS
 10
113.16487867177523
 20
63.56321839080461
 30
0.0
 40
1.3621966794380587
  1
21
 50
90.0
  7
ISOCPEUR
 72
1
 73
2
 11
113.16487867177523
 21
63.56321839080461
 31
0.0
  0
INSERT
  8
DIMENSIONS
  2
DIMTICK_ARROW
 10
114.04597701149426
 20
53.10344827586207
 30
0.0
 41
4.183908045977011
 42
4.183908045977011
 50
90.0
  0
INSERT
  8
DIMENSIONS
  2
DIMTICK_ARROW
 10
114.04597701149426
 20
74.02298850574714
 30
0.0
 41
4.183908045977011
 42
4.183908045977011
 50
270.0
  0
LINE
 62
3
  8
0
 10
0.0
 20
53.10344827586207
 30
0.0
 11
0.0
 21
74.02298850574714
 31
0.0
  0
LINE
 62
3
  8
0
 10
28.27586206896552
 20
7.816091954022989
 30
0.0
 11
28.27586206896552
 21
65.74712643678161
 31
0.0
  0
LINE
 62
7
  8
DIMENSIONS
 10
34.06896551724138
 20
7.816091954022988
 30
0.0
 11
34.06896551724138
 21
65.74712643678161
 31
0.0
  0
LINE
 62
5
  8
DIMENSIONS
 10
34.06896551724138
 20
7.816091954022988
 30
0.0
 11
28.57586206896552
 21
7.816091954022989
 31
0.0
  0
LINE
 62
5
  8
DIMENSIONS
 10
34.06896551724138
 20
65.74712643678161
 30
0.0
 11
28.57586206896552
 21
65.74712643678161
 31
0.0
  0
TEXT
 62
7
  8
DIMENSIONS
 10
32.15977011494253
 20
36.781609195402304
 30
0.0
 40
3.418390804597702
  1
58
 50
90.0
  7
ISOCPEUR
 72
1
 73
2
 11
32.15977011494253
 21
36.781609195402304
 31
0.0
  0
INSERT
  8
DIMENSIONS
  2
DIMTICK_ARROW
 10
34.06896551724138
 20
7.816091954022988
 30
0.0
 41
11.586206896551726
 42
11.586206896551726
 50
90.0
  0
INSERT
  8
DIMENSIONS
  2
DIMTICK_ARROW
 10
34.06896551724138
 20
65.74712643678161
 30
0.0
 41
11.586206896551726
 42
11.586206896551726
 50
270.0
  0
LINE
 62
7
  8
DIMENSIONS
 10
34.06896551724138
 20
7.816091954022988
 30
0.0
 11
34.06896551724138
 21
65.74712643678161
 31
0.0
  0
LINE
 62
5
  8
DIMENSIONS
 10
34.06896551724138
 20
7.816091954022988
 30
0.0
 11
28.57586206896552
 21
7.816091954022989
 31
0.0
  0
LINE
 62
5
  8
DIMENSIONS
 10
34.06896551724138
 20
65.74712643678161
 30
0.0
 11
28.57586206896552
 21
65.74712643678161
 31
0.0
  0
TEXT
 62
7
  8
DIMENSIONS
 10
32.15977011494253
 20
36.781609195402304
 30
0.0
 40
3.418390804597702
  1
58
 50
90.0
  7
ISOCPEUR
 72
1
 73
2
 11
32.15977011494253
 21
36.781609195402304
 31
0.0
  0
INSERT
  8
DIMENSIONS
  2
DIMTICK_ARROW
 10
34.06896551724138
 20
7.816091954022988
 30
0.0
 41
11.586206896551726
 42
11.586206896551726
 50
90.0
  0
INSERT
  8
DIMENSIONS
  2
DIMTICK_ARROW
 10
34.06896551724138
 20
65.74712643678161
 30
0.0
 41
11.586206896551726
 42
11.586206896551726
 50
270.0
  0
LINE
 62
7
  8
DIMENSIONS
 10
34.06896551724138
 20
7.816091954022988
 30
0.0
 11
34.06896551724138
 21
65.74712643678161
 31
0.0
  0
LINE
 62
5
  8
DIMENSIONS
 10
34.06896551724138
 20
7.816091954022988
 30
0.0
 11
28.57586206896552
 21
7.816091954022989
 31
0.0
  0
LINE
 62
5
  8
DIMENSIONS
 10
34.06896551724138
 20
65.74712643678161
 30
0.0
 11
28.57586206896552
 21
65.74712643678161
 31
0.0
  0
TEXT
 62
7
  8
DIMENSIONS
 10
32.15977011494253
 20
36.781609195402304
 30
0.0
 40
3.418390804597702
  1
58
 50
90.0
  7
ISOCPEUR
 72
1
 73
2
 11
32.15977011494253
 21
36.781609195402304
 31
0.0
  0
INSERT
  8
DIMENSIONS
  2
DIMTICK_ARROW
 10
34.06896551724138
 20
7.816091954022988
 30
0.0
 41
11.586206896551726
 42
11.586206896551726
 50
90.0
  0
INSERT
  8
DIMENSIONS
  2
DIMTICK_ARROW
 10
34.06896551724138
 20
65.74712643678161
 30
0.0
 41
11.586206896551726
 42
11.586206896551726
 50
270.0
  0
LINE
 62
7
  8
DIMENSIONS
 10
34.06896551724138
 20
7.816091954022988
 30
0.0
 11
34.06896551724138
 21
65.74712643678161
 31
0.0
  0
LINE
 62
5
  8
DIMENSIONS
 10
34.06896551724138
 20
7.816091954022988
 30
0.0
 11
28.57586206896552
 21
7.816091954022989
 31
0.0
  0
LINE
 62
5
  8
DIMENSIONS
 10
34.06896551724138
 20
65.74712643678161
 30
0.0
 11
28.57586206896552
 21
65.74712643678161
 31
0.0
  0
TEXT
 62
7
  8
DIMENSIONS
 10
32.15977011494253
 20
36.781609195402304
 30
0.0
 40
3.418390804597702
  1
58
 50
90.0
  7
ISOCPEUR
 72
1
 73
2
 11
32.15977011494253
 21
36.781609195402304
 31
0.0
  0
INSERT
  8
DIMENSIONS
  2
DIMTICK_ARROW
 10
34.06896551724138
 20
7.816091954022988
 30
0.0
 41
11.586206896551726
 42
11.586206896551726
 50
90.0
  0
INSERT
  8
DIMENSIONS
  2
DIMTICK_ARROW
 10
34.06896551724138
 20
65.74712643678161
 30
0.0
 41
11.586206896551726
 42
11.586206896551726
 50
270.0
  0
LINE
 62
7
  8
DIMENSIONS
 10
34.06896551724138
 20
7.816091954022988
 30
0.0
 11
34.06896551724138
 21
65.74712643678161
 31
0.0
  0
LINE
 62
5
  8
DIMENSIONS
 10
34.06896551724138
 20
7.816091954022988
 30
0.0
 11
28.57586206896552
 21
7.816091954022989
 31
0.0
  0
LINE
 62
5
  8
DIMENSIONS
 10
34.06896551724138
 20
65.74712643678161
 30
0.0
 11
28.57586206896552
 21
65.74712643678161
 31
0.0
  0
TEXT
 62
7
  8
DIMENSIONS
 10
32.15977011494253
 20
36.781609195402304
 30
0.0
 40
3.418390804597702
  1
58
 50
90.0
  7
ISOCPEUR
 72
1
 73
2
 11
32.15977011494253
 21
36.781609195402304
 31
0.0
  0
INSERT
  8
DIMENSIONS
  2
DIMTICK_ARROW
 10
34.06896551724138
 20
7.816091954022988
 30
0.0
 41
11.586206896551726
 42
11.586206896551726
 50
90.0
  0
INSERT
  8
DIMENSIONS
  2
DIMTICK_ARROW
 10
34.06896551724138
 20
65.74712643678161
 30
0.0
 41
11.586206896551726
 42
11.586206896551726
 50
270.0
  0
LINE
 62
7
  8
DIMENSIONS
 10
34.06896551724138
 20
7.816091954022988
 30
0.0
 11
34.06896551724138
 21
65.74712643678161
 31
0.0
  0
LINE
 62
5
  8
DIMENSIONS
 10
34.06896551724138
 20
7.816091954022988
 30
0.0
 11
28.57586206896552
 21
7.816091954022989
 31
0.0
  0
LINE
 62
5
  8
DIMENSIONS
 10
34.06896551724138
 20
65.74712643678161
 30
0.0
 11
28.57586206896552
 21
65.74712643678161
 31
0.0
  0
TEXT
 62
7
  8
DIMENSIONS
 10
32.15977011494253
 20
36.781609195402304
 30
0.0
 40
3.418390804597702
  1
58
 50
90.0
  7
ISOCPEUR
 72
1
 73
2
 11
32.15977011494253
 21
36.781609195402304
 31
0.0
  0
INSERT
  8
DIMENSIONS
  2
DIMTICK_ARROW
 10
34.06896551724138
 20
7.816091954022988
 30
0.0
 41
11.586206896551726
 42
11.586206896551726
 50
90.0
  0
INSERT
  8
DIMENSIONS
  2
DIMTICK_ARROW
 10
34.06896551724138
 20
65.74712643678161
 30
0.0
 41
11.586206896551726
 42
11.586206896551726
 50
270.0
  0
LINE
 62
7
  8
DIMENSIONS
 10
34.06896551724138
 20
7.816091954022988
 30
0.0
 11
34.06896551724138
 21
65.74712643678161
 31
0.0
  0
LINE
 62
5
  8
DIMENSIONS
 10
34.06896551724138
 20
7.816091954022988
 30
0.0
 11
28.57586206896552
 21
7.816091954022989
 31
0.0
  0
LINE
 62
5
  8
DIMENSIONS
 10
34.06896551724138
 20
65.74712643678161
 30
0.0
 11
28.57586206896552
 21
65.74712643678161
 31
0.0
  0
TEXT
 62
7
  8
DIMENSIONS
 10
32.15977011494253
 20
36.781609195402304
 30
0.0
 40
3.418390804597702
  1
58
 50
90.0
  7
ISOCPEUR
 72
1
 73
2
 11
32.15977011494253
 21
36.781609195402304
 31
0.0
  0
INSERT
  8
DIMENSIONS
  2
DIMTICK_ARROW
 10
34.06896551724138
 20
7.816091954022988
 30
0.0
 41
11.586206896551726
 42
11.586206896551726
 50
90.0
  0
INSERT
  8
DIMENSIONS
  2
DIMTICK_ARROW
 10
34.06896551724138
 20
65.74712643678161
 30
0.0
 41
11.586206896551726
 42
11.586206896551726
 50
270.0
  0
LINE
 62
7
  8
DIMENSIONS
 10
34.06896551724138
 20
7.816091954022988
 30
0.0
 11
34.06896551724138
 21
65.74712643678161
 31
0.0
  0
LINE
 62
5
  8
DIMENSIONS
 10
34.06896551724138
 20
7.816091954022988
 30
0.0
 11
28.57586206896552
 21
7.816091954022989
 31
0.0
  0
LINE
 62
5
  8
DIMENSIONS
 10
34.06896551724138
 20
65.74712643678161
 30
0.0
 11
28.57586206896552
 21
65.74712643678161
 31
0.0
  0
TEXT
 62
7
  8
DIMENSIONS
 10
32.15977011494253
 20
36.781609195402304
 30
0.0
 40
3.418390804597702
  1
58
 50
90.0
  7
ISOCPEUR
 72
1
 73
2
 11
32.15977011494253
 21
36.781609195402304
 31
0.0
  0
INSERT
  8
DIMENSIONS
  2
DIMTICK_ARROW
 10
34.06896551724138
 20
7.816091954022988
 30
0.0
 41
11.586206896551726
 42
11.586206896551726
 50
90.0
  0
INSERT
  8
DIMENSIONS
  2
DIMTICK_ARROW
 10
34.06896551724138
 20
65.74712643678161
 30
0.0
 41
11.586206896551726
 42
11.586206896551726
 50
270.0
  0
LINE
 62
7
  8
DIMENSIONS
 10
34.06896551724138
 20
7.816091954022988
 30
0.0
 11
34.06896551724138
 21
65.74712643678161
 31
0.0
  0
LINE
 62
5
  8
DIMENSIONS
 10
34.06896551724138
 20
7.816091954022988
 30
0.0
 11
28.57586206896552
 21
7.816091954022989
 31
0.0
  0
LINE
 62
5
  8
DIMENSIONS
 10
34.06896551724138
 20
65.74712643678161
 30
0.0
 11
28.57586206896552
 21
65.74712643678161
 31
0.0
  0
TEXT
 62
7
  8
DIMENSIONS
 10
32.15977011494253
 20
36.781609195402304
 30
0.0
 40
3.418390804597702
  1
58
 50
90.0
  7
ISOCPEUR
 72
1
 73
2
 11
32.15977011494253
 21
36.781609195402304
 31
0.0
  0
INSERT
  8
DIMENSIONS
  2
DIMTICK_ARROW
 10
34.06896551724138
 20
7.816091954022988
 30
0.0
 41
11.586206896551726
 42
11.586206896551726
 50
90.0
  0
INSERT
  8
DIMENSIONS
  2
DIMTICK_ARROW
 10
34.06896551724138
 20
65.74712643678161
 30
0.0
 41
11.586206896551726
 42
11.586206896551726
 50
270.0
  0
LINE
 62
7
  8
DIMENSIONS
 10
34.06896551724138
 20
7.816091954022988
 30
0.0
 11
34.06896551724138
 21
65.74712643678161
 31
0.0
  0
LINE
 62
5
  8
DIMENSIONS
 10
34.06896551724138
 20
7.816091954022988
 30
0.0
 11
28.57586206896552
 21
7.816091954022989
 31
0.0
  0
LINE
 62
5
  8
DIMENSIONS
 10
34.06896551724138
 20
65.74712643678161
 30
0.0
 11
28.57586206896552
 21
65.74712643678161
 31
0.0
  0
TEXT
 62
7
  8
DIMENSIONS
 10
32.15977011494253
 20
36.781609195402304
 30
0.0
 40
3.418390804597702
  1
58
 50
90.0
  7
ISOCPEUR
 72
1
 73
2
 11
32.15977011494253
 21
36.781609195402304
 31
0.0
  0
INSERT
  8
DIMENSIONS
  2
DIMTICK_ARROW
 10
34.06896551724138
 20
7.816091954022988
 30
0.0
 41
11.586206896551726
 42
11.586206896551726
 50
90.0
  0
INSERT
  8
DIMENSIONS
  2
DIMTICK_ARROW
 10
34.06896551724138
 20
65.74712643678161
 30
0.0
 41
11.586206896551726
 42
11.586206896551726
 50
270.0
  0
LINE
 62
7
  8
DIMENSIONS
 10
34.06896551724138
 20
7.816091954022988
 30
0.0
 11
34.06896551724138
 21
65.74712643678161
 31
0.0
  0
LINE
 62
5
  8
DIMENSIONS
 10
34.06896551724138
 20
7.816091954022988
 30
0.0
 11
28.57586206896552
 21
7.816091954022989
 31
0.0
  0
LINE
 62
5
  8
DIMENSIONS
 10
34.06896551724138
 20
65.74712643678161
 30
0.0
 11
28.57586206896552
 21
65.74712643678161
 31
0.0
  0
TEXT
 62
7
  8
DIMENSIONS
 10
32.15977011494253
 20
36.781609195402304
 30
0.0
 40
3.418390804597702
  1
58
 50
90.0
  7
ISOCPEUR
 72
1
 73
2
 11
32.15977011494253
 21
36.781609195402304
 31
0.0
  0
INSERT
  8
DIMENSIONS
  2
DIMTICK_ARROW
 10
34.06896551724138
 20
7.816091954022988
 30
0.0
 41
11.586206896551726
 42
11.586206896551726
 50
90.0
  0
INSERT
  8
DIMENSIONS
  2
DIMTICK_ARROW
 10
34.06896551724138
 20
65.74712643678161
 30
0.0
 41
11.586206896551726
 42
11.586206896551726
 50
270.0
  0
LINE
 62
7
  8
DIMENSIONS
 10
34.06896551724138
 20
7.816091954022988
 30
0.0
 11
34.06896551724138
 21
65.74712643678161
 31
0.0
  0
LINE
 62
5
  8
DIMENSIONS
 10
34.06896551724138
 20
7.816091954022988
 30
0.0
 11
28.57586206896552
 21
7.816091954022989
 31
0.0
  0
LINE
 62
5
  8
DIMENSIONS
 10
34.06896551724138
 20
65.74712643678161
 30
0.0
 11
28.57586206896552
 21
65.74712643678161
 31
0.0
  0
TEXT
 62
7
  8
DIMENSIONS
 10
32.15977011494253
 20
36.781609195402304
 30
0.0
 40
3.418390804597702
  1
58
 50
90.0
  7
ISOCPEUR
 72
1
 73
2
 11
32.15977011494253
 21
36.781609195402304
 31
0.0
  0
INSERT
  8
DIMENSIONS
  2
DIMTICK_ARROW
 10
34.06896551724138
 20
7.816091954022988
 30
0.0
 41
11.586206896551726
 42
11.586206896551726
 50
90.0
  0
INSERT
  8
DIMENSIONS
  2
DIMTICK_ARROW
 10
34.06896551724138
 20
65.74712643678161
 30
0.0
 41
11.586206896551726
 42
11.586206896551726
 50
270.0
  0
LINE
 62
7
  8
DIMENSIONS
 10
34.06896551724138
 20
7.816091954022988
 30
0.0
 11
34.06896551724138
 21
65.74712643678161
 31
0.0
  0
LINE
 62
5
  8
DIMENSIONS
 10
34.06896551724138
 20
7.816091954022988
 30
0.0
 11
28.57586206896552
 21
7.816091954022989
 31
0.0
  0
LINE
 62
5
  8
DIMENSIONS
 10
34.06896551724138
 20
65.74712643678161
 30
0.0
 11
28.57586206896552
 21
65.74712643678161
 31
0.0
  0
TEXT
 62
7
  8
DIMENSIONS
 10
32.15977011494253
 20
36.781609195402304
 30
0.0
 40
3.418390804597702
  1
58
 50
90.0
  7
ISOCPEUR
 72
1
 73
2
 11
32.15977011494253
 21
36.781609195402304
 31
0.0
  0
INSERT
  8
DIMENSIONS
  2
DIMTICK_ARROW
 10
34.06896551724138
 20
7.816091954022988
 30
0.0
 41
11.586206896551726
 42
11.586206896551726
 50
90.0
  0
INSERT
  8
DIMENSIONS
  2
DIMTICK_ARROW
 10
34.06896551724138
 20
65.74712643678161
 30
0.0
 41
11.586206896551726
 42
11.586206896551726
 50
270.0
  0
LINE
 62
7
  8
DIMENSIONS
 10
34.06896551724138
 20
7.816091954022988
 30
0.0
 11
34.06896551724138
 21
65.74712643678161
 31
0.0
  0
LINE
 62
5
  8
DIMENSIONS
 10
34.06896551724138
 20
7.816091954022988
 30
0.0
 11
28.57586206896552
 21
7.816091954022989
 31
0.0
  0
LINE
 62
5
  8
DIMENSIONS
 10
34.06896551724138
 20
65.74712643678161
 30
0.0
 11
28.57586206896552
 21
65.74712643678161
 31
0.0
  0
TEXT
 62
7
  8
DIMENSIONS
 10
32.15977011494253
 20
36.781609195402304
 30
0.0
 40
3.418390804597702
  1
58
 50
90.0
  7
ISOCPEUR
 72
1
 73
2
 11
32.15977011494253
 21
36.781609195402304
 31
0.0
  0
INSERT
  8
DIMENSIONS
  2
DIMTICK_ARROW
 10
34.06896551724138
 20
7.816091954022988
 30
0.0
 41
11.586206896551726
 42
11.586206896551726
 50
90.0
  0
INSERT
  8
DIMENSIONS
  2
DIMTICK_ARROW
 10
34.06896551724138
 20
65.74712643678161
 30
0.0
 41
11.586206896551726
 42
11.586206896551726
 50
270.0
  0
LINE
 62
3
  8
0
 10
9.655172413793105
 20
7.816091954022989
 30
0.0
 11
9.655172413793105
 21
65.74712643678161
 31
0.0
  0
LINE
 62
3
  8
0
 10
111.95402298850576
 20
0.0
 30
0.0
 11
111.95402298850576
 21
16.551724137931036
 31
0.0
  0
LINE
 62
3
  8
0
 10
0.0
 20
0.0
 30
0.0
 11
0.0
 21
20.689655172413794
 31
0.0
  0
LINE
 62
3
  8
0
 10
0.0
 20
53.10344827586207
 30
0.0
 11
0.0
 21
74.02298850574714
 31
0.0
  0
LINE
 62
3
  8
0
 10
111.95402298850576
 20
53.10344827586207
 30
0.0
 11
111.95402298850576
 21
74.02298850574714
 31
0.0
  0
LINE
 62
3
  8
0
 10
9.655172413793105
 20
7.816091954022989
 30
0.0
 11
9.655172413793105
 21
65.74712643678161
 31
0.0
  0
LINE
 62
3
  8
0
 10
28.27586206896552
 20
7.816091954022989
 30
0.0
 11
28.27586206896552
 21
65.74712643678161
 31
0.0
  0
LINE
 62
3
  8
0
 10
9.655172413793105
 20
7.816091954022989
 30
0.0
 11
28.27586206896552
 21
7.816091954022989
 31
0.0
  0
LINE
 62
3
  8
0
 10
9.655172413793105
 20
65.74712643678161
 30
0.0
 11
28.27586206896552
 21
65.74712643678161
 31
0.0
  0
LINE
 62
3
  8
0
 10
86.4367816091954
 20
0.0
 30
0.0
 11
111.95402298850576
 21
0.0
 31
0.0
  0
LINE
 62
3
  8
0
 10
0.0
 20
0.0
 30
0.0
 11
40.689655172413794
 21
0.0
 31
0.0
  0
LINE
 62
3
  8
0
 10
0.0
 20
74.02298850574714
 30
0.0
 11
111.95402298850576
 21
74.02298850574714
 31
0.0
  0
CIRCLE
 62
3
  8
0
 10
64.36781609195403
 20
33.10344827586207
 30
0.0
 40
16.551724137931036
  0
LINE
 62
7
  8
DIMENSIONS
 10
67.4574667191462
 20
48.345173331255175
 30
0.0
 11
67.65613604994125
 21
49.32523990909642
 31
0.0
  0
TEXT
 62
7
  8
DIMENSIONS
 10
67.41773285298719
 20
48.14916001568693
 30
0.0
 40
4.137931034482759
  1
R=166
 50
78.54084409738351
  7
ISOCPEUR
 72
2
 73
2
 11
67.41773285298719
 21
48.14916001568693
 31
0.0
  0
INSERT
  8
DIMENSIONS
  2
DIMTICK_RADIUS
 10
67.65613604994125
 20
49.32523990909642
 30
0.0
 41
11.03448275862069
 42
11.03448275862069
 50
258.5408440973835
  0
ENDSEC
  0
EOF
