  0
SECTION
  2
HEADER
  9
$ACADVER
  1
AC1009
  9
$INSBASE
 10
0.0
 20
0.0
 30
0.0
  9
$EXTMIN
 10
0.0
 20
0.0
 30
0.0
  9
$EXTMAX
 10
100.0
 20
100.0
 30
0.0
  9
$UNITMODE
 70
0
  9
$AUNITS
 70
0
  9
$ANGBASE
 50
0.0
  9
$ANGDIR
 70
0
  0
ENDSEC
  0
SECTION
  2
TABLES
  0
TABLE
  2
LTYPE
 70
19
  0
LTYPE
  2
CONTINUOUS
 70
0
  3
Solid
 72
65
 73
0
 40
0.0
  0
LTYPE
  2
CENTER
 70
0
  3
Center ____ _ ____ _ ____ _ ____ _ ____ _ ____
 72
65
 73
4
 40
2.0
 49
1.25
 49
-0.25
 49
0.25
 49
-0.25
  0
LTYPE
  2
CENTERX2
 70
0
  3
Center (2x) ________  __  ________  __  ________
 72
65
 73
4
 40
3.5
 49
2.5
 49
-0.25
 49
0.5
 49
-0.25
  0
LTYPE
  2
CENTER2
 70
0
  3
Center (.5x) ____ _ ____ _ ____ _ ____ _ ____
 72
65
 73
4
 40
1.0
 49
0.625
 49
-0.125
 49
0.125
 49
-0.125
  0
LTYPE
  2
DASHED
 70
0
  3
Dashed __ __ __ __ __ __ __ __ __ __ __ __ __ _
 72
65
 73
2
 40
0.6
 49
0.5
 49
-0.1
  0
LTYPE
  2
DASHEDX2
 70
0
  3
Dashed (2x) ____  ____  ____  ____  ____  ____
 72
65
 73
2
 40
1.2
 49
1.0
 49
-0.2
  0
LTYPE
  2
DASHED2
 70
0
  3
Dashed (.5x) _ _ _ _ _ _ _ _ _ _ _ _ _ _
 72
65
 73
2
 40
0.3
 49
0.25
 49
-0.05
  0
LTYPE
  2
PHANTOM
 70
0
  3
Phantom ______  __  __  ______  __  __  ______
 72
65
 73
6
 40
2.5
 49
1.25
 49
-0.25
 49
0.25
 49
-0.25
 49
0.25
 49
-0.25
  0
LTYPE
  2
PHANTOMX2
 70
0
  3
Phantom (2x)____________    ____    ____    ____________
 72
65
 73
6
 40
4.25
 49
2.5
 49
-0.25
 49
0.5
 49
-0.25
 49
0.5
 49
-0.25
  0
LTYPE
  2
PHANTOM2
 70
0
  3
Phantom (.5x) ___ _ _ ___ _ _ ___ _ _ ___ _ _ ___
 72
65
 73
6
 40
1.25
 49
0.625
 49
-0.125
 49
0.125
 49
-0.125
 49
0.125
 49
-0.125
  0
LTYPE
  2
DASHDOT
 70
0
  3
Dash dot __ . __ . __ . __ . __ . __ . __ . __
 72
65
 73
4
 40
1.4
 49
1.0
 49
-0.2
 49
0.0
 49
-0.2
  0
LTYPE
  2
DASHDOTX2
 70
0
  3
Dash dot (2x) ____  .  ____  .  ____  .  ____
 72
65
 73
4
 40
2.4
 49
2.0
 49
-0.2
 49
0.0
 49
-0.2
  0
LTYPE
  2
DASHDOT2
 70
0
  3
Dash dot (.5x) _ . _ . _ . _ . _ . _ . _ . _
 72
65
 73
4
 40
0.7
 49
0.5
 49
-0.1
 49
0.0
 49
-0.1
  0
LTYPE
  2
DOT
 70
0
  3
Dot .  .  .  .  .  .  .  .  .  .  .  .  .  .  .  .
 72
65
 73
2
 40
0.2
 49
0.0
 49
-0.2
  0
LTYPE
  2
DOTX2
 70
0
  3
Dot (2x) .    .    .    .    .    .    .    . 
 72
65
 73
2
 40
0.4
 49
0.0
 49
-0.4
  0
LTYPE
  2
DOT2
 70
0
  3
Dot (.5) . . . . . . . . . . . . . . . . . . . 
 72
65
 73
2
 40
0.1
 49
0.0
 49
-0.1
  0
LTYPE
  2
DIVIDE
 70
0
  3
Divide __ . . __ . . __ . . __ . . __ . . __
 72
65
 73
6
 40
1.6
 49
1.0
 49
-0.2
 49
0.0
 49
-0.2
 49
0.0
 49
-0.2
  0
LTYPE
  2
DIVIDEX2
 70
0
  3
Divide (2x) ____  . .  ____  . .  ____  . .  ____
 72
65
 73
6
 40
2.6
 49
2.0
 49
-0.2
 49
0.0
 49
-0.2
 49
0.0
 49
-0.2
  0
LTYPE
  2
DIVIDE2
 70
0
  3
Divide(.5x) _ . _ . _ . _ . _ . _ . _ . _
 72
65
 73
6
 40
0.8
 49
0.5
 49
-0.1
 49
0.0
 49
-0.1
 49
0.0
 49
-0.1
  0
ENDTAB
  0
TABLE
  2
LAYER
 70
5
  0
LAYER
  2
DIMENSIONS
 70
0
 62
1
  6
CONTINUOUS
  0
LAYER
  2
TABLEBACKGROUND
 70
0
 62
1
  6
CONTINUOUS
  0
LAYER
  2
TABLECONTENT
 70
0
 62
1
  6
CONTINUOUS
  0
LAYER
  2
TABLEGRID
 70
0
 62
1
  6
CONTINUOUS
  0
LAYER
  2
VIEWPORTS
 70
0
 62
7
  6
CONTINUOUS
  0
ENDTAB
  0
TABLE
  2
STYLE
 70
12
  0
STYLE
  2
STANDARD
 70
0
 40
0.0
 41
1.0
 42
1.0
 50
0.0
 71
0
  3
arial.ttf
  4

  0
STYLE
  2
ARIAL
 70
0
 40
0.0
 41
1.0
 42
1.0
 50
0.0
 71
0
  3
arial.ttf
  4

  0
STYLE
  2
ARIAL_BOLD
 70
0
 40
0.0
 41
1.0
 42
1.0
 50
0.0
 71
0
  3
arialbd.ttf
  4

  0
STYLE
  2
ARIAL_ITALIC
 70
0
 40
0.0
 41
1.0
 42
1.0
 50
0.0
 71
0
  3
ariali.ttf
  4

  0
STYLE
  2
ARIAL_BOLD_ITALIC
 70
0
 40
0.0
 41
1.0
 42
1.0
 50
0.0
 71
0
  3
arialbi.ttf
  4

  0
STYLE
  2
ARIAL_BLACK
 70
0
 40
0.0
 41
1.0
 42
1.0
 50
0.0
 71
0
  3
ariblk.ttf
  4

  0
STYLE
  2
ISOCPEUR
 70
0
 40
0.0
 41
1.0
 42
1.0
 50
0.0
 71
0
  3
isocpeur.ttf
  4

  0
STYLE
  2
ISOCPEUR_ITALIC
 70
0
 40
0.0
 41
1.0
 42
1.0
 50
0.0
 71
0
  3
isocpeui.ttf
  4

  0
STYLE
  2
TIMES
 70
0
 40
0.0
 41
1.0
 42
1.0
 50
0.0
 71
0
  3
times.ttf
  4

  0
STYLE
  2
TIMES_BOLD
 70
0
 40
0.0
 41
1.0
 42
1.0
 50
0.0
 71
0
  3
timesbd.ttf
  4

  0
STYLE
  2
TIMES_ITALIC
 70
0
 40
0.0
 41
1.0
 42
1.0
 50
0.0
 71
0
  3
timesi.ttf
  4

  0
STYLE
  2
TIMES_BOLD_ITALIC
 70
0
 40
0.0
 41
1.0
 42
1.0
 50
0.0
 71
0
  3
timesbi.ttf
  4

  0
ENDTAB
  0
TABLE
  2
VIEW
 70
0
  0
ENDTAB
  0
TABLE
  2
APPID
 70
1
  0
APPID
  2
DXFWRITE
 70
0
  0
ENDTAB
  0
TABLE
  2
VPORT
 70
0
  0
ENDTAB
  0
TABLE
  2
UCS
 70
0
  0
ENDTAB
  0
ENDSEC
  0
SECTION
  2
BLOCKS
  0
BLOCK
  8
0
  2
DIMTICK_ARCH
  3
DIMTICK_ARCH
 70
0
 10
0.0
 20
0.0
 30
0.0
  0
LINE
 62
5
  8
0
 10
0.0
 20
0.5
 30
0.0
 11
0.0
 21
-0.5
 31
0.0
  0
LINE
 62
4
  8
0
 10
-0.2
 20
-0.2
 30
0.0
 11
0.2
 21
0.2
 31
0.0
  0
ENDBLK
  0
BLOCK
  8
0
  2
DIMTICK_DOT
  3
DIMTICK_DOT
 70
0
 10
0.0
 20
0.0
 30
0.0
  0
LINE
 62
5
  8
0
 10
0.0
 20
0.5
 30
0.0
 11
0.0
 21
-0.5
 31
0.0
  0
CIRCLE
 62
4
  8
0
 10
0.0
 20
0.0
 30
0.0
 40
0.1
  0
ENDBLK
  0
BLOCK
  8
0
  2
DIMTICK_ARROW
  3
DIMTICK_ARROW
 70
0
 10
0.0
 20
0.0
 30
0.0
  0
LINE
 62
5
  8
0
 10
0.0
 20
0.5
 30
0.0
 11
0.0
 21
-0.5
 31
0.0
  0
SOLID
 62
7
  8
0
 10
0.0
 20
0.0
 30
0.0
 11
0.3
 21
0.05
 31
0.0
 13
0.3
 23
-0.05
 33
0.0
 12
0.3
 22
-0.05
 32
0.0
  0
ENDBLK
  0
BLOCK
  8
0
  2
DIMTICK_RADIUS
  3
DIMTICK_RADIUS
 70
0
 10
0.0
 20
0.0
 30
0.0
  0
SOLID
 62
7
  8
0
 10
0.0
 20
0.0
 30
0.0
 11
0.3
 21
0.05
 31
0.0
 13
0.25
 23
0.0
 33
0.0
 12
0.3
 22
-0.05
 32
0.0
  0
ENDBLK
  0
ENDSEC
  0
SECTION
  2
ENTITIES
  0
VIEWPORT
  8
VIEWPORTS
 67
1
 10
0.0
 20
0.0
 30
0.0
 40
1.0
 41
1.0
 68
1
 69
1
1001
ACAD
1000
MVIEW
1002
{
1070
16
1010
0.0
1020
0.0
1030
0.0
1010
0.0
1020
0.0
1030
0.0
1040
0.0
1040
1.0
1040
0.0
1040
0.0
1040
50.0
1040
0.0
1040
0.0
1070
0
1070
100
1070
1
1070
3
1070
0
1070
0
1070
0
1070
0
1040
0.0
1040
0.0
1040
0.0
1040
0.1
1040
0.1
1040
0.1
1040
0.1
1070
0
1002
{
1002
}
1002
}
  0
LINE
 62
3
  8
0
 10
0.0
 20
3.336448598130841
 30
0.0
 11
2.9439252336448596
 21
3.336448598130841
 31
0.0
  0
LINE
 62
7
  8
DIMENSIONS
 10
0.0
 20
3.1864485981308412
 30
0.0
 11
2.9439252336448596
 21
3.1864485981308412
 31
0.0
  0
LINE
 62
5
  8
DIMENSIONS
 10
0.0
 20
3.1864485981308412
 30
0.0
 11
0.0
 21
3.336448598130841
 31
0.0
  0
LINE
 62
5
  8
DIMENSIONS
 10
2.9439252336448596
 20
3.1864485981308412
 30
0.0
 11
2.9439252336448596
 21
3.336448598130841
 31
0.0
  0
TEXT
 62
7
  8
DIMENSIONS
 10
1.4719626168224298
 20
3.486448598130841
 30
0.0
 40
0.2
  1
3
 50
-0.0
  7
ISOCPEUR
 72
1
 73
2
 11
1.4719626168224298
 21
3.486448598130841
 31
0.0
  0
INSERT
  8
DIMENSIONS
  2
DIMTICK_ARROW
 10
0.0
 20
3.1864485981308412
 30
0.0
 41
1.0
 42
1.0
 50
0.0
  0
INSERT
  8
DIMENSIONS
  2
DIMTICK_ARROW
 10
2.9439252336448596
 20
3.1864485981308412
 30
0.0
 41
1.0
 42
1.0
 50
180.0
  0
LINE
 62
7
  8
DIMENSIONS
 10
0.0
 20
3.1864485981308412
 30
0.0
 11
2.9439252336448596
 21
3.1864485981308412
 31
0.0
  0
LINE
 62
5
  8
DIMENSIONS
 10
0.0
 20
3.1864485981308412
 30
0.0
 11
0.0
 21
3.336448598130841
 31
0.0
  0
LINE
 62
5
  8
DIMENSIONS
 10
2.9439252336448596
 20
3.1864485981308412
 30
0.0
 11
2.9439252336448596
 21
3.336448598130841
 31
0.0
  0
TEXT
 62
7
  8
DIMENSIONS
 10
1.4719626168224298
 20
3.486448598130841
 30
0.0
 40
0.2
  1
3
 50
-0.0
  7
ISOCPEUR
 72
1
 73
2
 11
1.4719626168224298
 21
3.486448598130841
 31
0.0
  0
INSERT
  8
DIMENSIONS
  2
DIMTICK_ARROW
 10
0.0
 20
3.1864485981308412
 30
0.0
 41
1.0
 42
1.0
 50
0.0
  0
INSERT
  8
DIMENSIONS
  2
DIMTICK_ARROW
 10
2.9439252336448596
 20
3.1864485981308412
 30
0.0
 41
1.0
 42
1.0
 50
180.0
  0
LINE
 62
7
  8
DIMENSIONS
 10
0.0
 20
3.1864485981308412
 30
0.0
 11
2.9439252336448596
 21
3.1864485981308412
 31
0.0
  0
LINE
 62
5
  8
DIMENSIONS
 10
0.0
 20
3.1864485981308412
 30
0.0
 11
0.0
 21
3.336448598130841
 31
0.0
  0
LINE
 62
5
  8
DIMENSIONS
 10
2.9439252336448596
 20
3.1864485981308412
 30
0.0
 11
2.9439252336448596
 21
3.336448598130841
 31
0.0
  0
TEXT
 62
7
  8
DIMENSIONS
 10
1.4719626168224298
 20
3.486448598130841
 30
0.0
 40
0.2
  1
3
 50
-0.0
  7
ISOCPEUR
 72
1
 73
2
 11
1.4719626168224298
 21
3.486448598130841
 31
0.0
  0
INSERT
  8
DIMENSIONS
  2
DIMTICK_ARROW
 10
0.0
 20
3.1864485981308412
 30
0.0
 41
1.0
 42
1.0
 50
0.0
  0
INSERT
  8
DIMENSIONS
  2
DIMTICK_ARROW
 10
2.9439252336448596
 20
3.1864485981308412
 30
0.0
 41
1.0
 42
1.0
 50
180.0
  0
LINE
 62
7
  8
DIMENSIONS
 10
0.0
 20
3.1864485981308412
 30
0.0
 11
2.9439252336448596
 21
3.1864485981308412
 31
0.0
  0
LINE
 62
5
  8
DIMENSIONS
 10
0.0
 20
3.1864485981308412
 30
0.0
 11
0.0
 21
3.336448598130841
 31
0.0
  0
LINE
 62
5
  8
DIMENSIONS
 10
2.9439252336448596
 20
3.1864485981308412
 30
0.0
 11
2.9439252336448596
 21
3.336448598130841
 31
0.0
  0
TEXT
 62
7
  8
DIMENSIONS
 10
1.4719626168224298
 20
3.486448598130841
 30
0.0
 40
0.2
  1
3
 50
-0.0
  7
ISOCPEUR
 72
1
 73
2
 11
1.4719626168224298
 21
3.486448598130841
 31
0.0
  0
INSERT
  8
DIMENSIONS
  2
DIMTICK_ARROW
 10
0.0
 20
3.1864485981308412
 30
0.0
 41
1.0
 42
1.0
 50
0.0
  0
INSERT
  8
DIMENSIONS
  2
DIMTICK_ARROW
 10
2.9439252336448596
 20
3.1864485981308412
 30
0.0
 41
1.0
 42
1.0
 50
180.0
  0
LINE
 62
7
  8
DIMENSIONS
 10
0.0
 20
3.1864485981308412
 30
0.0
 11
2.9439252336448596
 21
3.1864485981308412
 31
0.0
  0
LINE
 62
5
  8
DIMENSIONS
 10
0.0
 20
3.1864485981308412
 30
0.0
 11
0.0
 21
3.336448598130841
 31
0.0
  0
LINE
 62
5
  8
DIMENSIONS
 10
2.9439252336448596
 20
3.1864485981308412
 30
0.0
 11
2.9439252336448596
 21
3.336448598130841
 31
0.0
  0
TEXT
 62
7
  8
DIMENSIONS
 10
1.4719626168224298
 20
3.486448598130841
 30
0.0
 40
0.2
  1
3
 50
-0.0
  7
ISOCPEUR
 72
1
 73
2
 11
1.4719626168224298
 21
3.486448598130841
 31
0.0
  0
INSERT
  8
DIMENSIONS
  2
DIMTICK_ARROW
 10
0.0
 20
3.1864485981308412
 30
0.0
 41
1.0
 42
1.0
 50
0.0
  0
INSERT
  8
DIMENSIONS
  2
DIMTICK_ARROW
 10
2.9439252336448596
 20
3.1864485981308412
 30
0.0
 41
1.0
 42
1.0
 50
180.0
  0
LINE
 62
7
  8
DIMENSIONS
 10
0.0
 20
3.1864485981308412
 30
0.0
 11
2.9439252336448596
 21
3.1864485981308412
 31
0.0
  0
LINE
 62
5
  8
DIMENSIONS
 10
0.0
 20
3.1864485981308412
 30
0.0
 11
0.0
 21
3.336448598130841
 31
0.0
  0
LINE
 62
5
  8
DIMENSIONS
 10
2.9439252336448596
 20
3.1864485981308412
 30
0.0
 11
2.9439252336448596
 21
3.336448598130841
 31
0.0
  0
TEXT
 62
7
  8
DIMENSIONS
 10
1.4719626168224298
 20
3.486448598130841
 30
0.0
 40
0.2
  1
3
 50
-0.0
  7
ISOCPEUR
 72
1
 73
2
 11
1.4719626168224298
 21
3.486448598130841
 31
0.0
  0
INSERT
  8
DIMENSIONS
  2
DIMTICK_ARROW
 10
0.0
 20
3.1864485981308412
 30
0.0
 41
1.0
 42
1.0
 50
0.0
  0
INSERT
  8
DIMENSIONS
  2
DIMTICK_ARROW
 10
2.9439252336448596
 20
3.1864485981308412
 30
0.0
 41
1.0
 42
1.0
 50
180.0
  0
LINE
 62
7
  8
DIMENSIONS
 10
0.0
 20
3.1864485981308412
 30
0.0
 11
2.9439252336448596
 21
3.1864485981308412
 31
0.0
  0
LINE
 62
5
  8
DIMENSIONS
 10
0.0
 20
3.1864485981308412
 30
0.0
 11
0.0
 21
3.336448598130841
 31
0.0
  0
LINE
 62
5
  8
DIMENSIONS
 10
2.9439252336448596
 20
3.1864485981308412
 30
0.0
 11
2.9439252336448596
 21
3.336448598130841
 31
0.0
  0
TEXT
 62
7
  8
DIMENSIONS
 10
1.4719626168224298
 20
3.486448598130841
 30
0.0
 40
0.2
  1
3
 50
-0.0
  7
ISOCPEUR
 72
1
 73
2
 11
1.4719626168224298
 21
3.486448598130841
 31
0.0
  0
INSERT
  8
DIMENSIONS
  2
DIMTICK_ARROW
 10
0.0
 20
3.1864485981308412
 30
0.0
 41
1.0
 42
1.0
 50
0.0
  0
INSERT
  8
DIMENSIONS
  2
DIMTICK_ARROW
 10
2.9439252336448596
 20
3.1864485981308412
 30
0.0
 41
1.0
 42
1.0
 50
180.0
  0
LINE
 62
7
  8
DIMENSIONS
 10
0.0
 20
3.1864485981308412
 30
0.0
 11
2.9439252336448596
 21
3.1864485981308412
 31
0.0
  0
LINE
 62
5
  8
DIMENSIONS
 10
0.0
 20
3.1864485981308412
 30
0.0
 11
0.0
 21
3.336448598130841
 31
0.0
  0
LINE
 62
5
  8
DIMENSIONS
 10
2.9439252336448596
 20
3.1864485981308412
 30
0.0
 11
2.9439252336448596
 21
3.336448598130841
 31
0.0
  0
TEXT
 62
7
  8
DIMENSIONS
 10
1.4719626168224298
 20
3.486448598130841
 30
0.0
 40
0.2
  1
3
 50
-0.0
  7
ISOCPEUR
 72
1
 73
2
 11
1.4719626168224298
 21
3.486448598130841
 31
0.0
  0
INSERT
  8
DIMENSIONS
  2
DIMTICK_ARROW
 10
0.0
 20
3.1864485981308412
 30
0.0
 41
1.0
 42
1.0
 50
0.0
  0
INSERT
  8
DIMENSIONS
  2
DIMTICK_ARROW
 10
2.9439252336448596
 20
3.1864485981308412
 30
0.0
 41
1.0
 42
1.0
 50
180.0
  0
LINE
 62
7
  8
DIMENSIONS
 10
0.0
 20
3.1864485981308412
 30
0.0
 11
2.9439252336448596
 21
3.1864485981308412
 31
0.0
  0
LINE
 62
5
  8
DIMENSIONS
 10
0.0
 20
3.1864485981308412
 30
0.0
 11
0.0
 21
3.336448598130841
 31
0.0
  0
LINE
 62
5
  8
DIMENSIONS
 10
2.9439252336448596
 20
3.1864485981308412
 30
0.0
 11
2.9439252336448596
 21
3.336448598130841
 31
0.0
  0
TEXT
 62
7
  8
DIMENSIONS
 10
1.4719626168224298
 20
3.486448598130841
 30
0.0
 40
0.2
  1
3
 50
-0.0
  7
ISOCPEUR
 72
1
 73
2
 11
1.4719626168224298
 21
3.486448598130841
 31
0.0
  0
INSERT
  8
DIMENSIONS
  2
DIMTICK_ARROW
 10
0.0
 20
3.1864485981308412
 30
0.0
 41
1.0
 42
1.0
 50
0.0
  0
INSERT
  8
DIMENSIONS
  2
DIMTICK_ARROW
 10
2.9439252336448596
 20
3.1864485981308412
 30
0.0
 41
1.0
 42
1.0
 50
180.0
  0
LINE
 62
7
  8
DIMENSIONS
 10
0.0
 20
3.1864485981308412
 30
0.0
 11
2.9439252336448596
 21
3.1864485981308412
 31
0.0
  0
LINE
 62
5
  8
DIMENSIONS
 10
0.0
 20
3.1864485981308412
 30
0.0
 11
0.0
 21
3.336448598130841
 31
0.0
  0
LINE
 62
5
  8
DIMENSIONS
 10
2.9439252336448596
 20
3.1864485981308412
 30
0.0
 11
2.9439252336448596
 21
3.336448598130841
 31
0.0
  0
TEXT
 62
7
  8
DIMENSIONS
 10
1.4719626168224298
 20
3.486448598130841
 30
0.0
 40
0.2
  1
3
 50
-0.0
  7
ISOCPEUR
 72
1
 73
2
 11
1.4719626168224298
 21
3.486448598130841
 31
0.0
  0
INSERT
  8
DIMENSIONS
  2
DIMTICK_ARROW
 10
0.0
 20
3.1864485981308412
 30
0.0
 41
1.0
 42
1.0
 50
0.0
  0
INSERT
  8
DIMENSIONS
  2
DIMTICK_ARROW
 10
2.9439252336448596
 20
3.1864485981308412
 30
0.0
 41
1.0
 42
1.0
 50
180.0
  0
LINE
 62
7
  8
DIMENSIONS
 10
0.0
 20
3.1864485981308412
 30
0.0
 11
2.9439252336448596
 21
3.1864485981308412
 31
0.0
  0
LINE
 62
5
  8
DIMENSIONS
 10
0.0
 20
3.1864485981308412
 30
0.0
 11
0.0
 21
3.336448598130841
 31
0.0
  0
LINE
 62
5
  8
DIMENSIONS
 10
2.9439252336448596
 20
3.1864485981308412
 30
0.0
 11
2.9439252336448596
 21
3.336448598130841
 31
0.0
  0
TEXT
 62
7
  8
DIMENSIONS
 10
1.4719626168224298
 20
3.486448598130841
 30
0.0
 40
0.2
  1
3
 50
-0.0
  7
ISOCPEUR
 72
1
 73
2
 11
1.4719626168224298
 21
3.486448598130841
 31
0.0
  0
INSERT
  8
DIMENSIONS
  2
DIMTICK_ARROW
 10
0.0
 20
3.1864485981308412
 30
0.0
 41
1.0
 42
1.0
 50
0.0
  0
INSERT
  8
DIMENSIONS
  2
DIMTICK_ARROW
 10
2.9439252336448596
 20
3.1864485981308412
 30
0.0
 41
1.0
 42
1.0
 50
180.0
  0
LINE
 62
7
  8
DIMENSIONS
 10
0.0
 20
3.1864485981308412
 30
0.0
 11
2.9439252336448596
 21
3.1864485981308412
 31
0.0
  0
LINE
 62
5
  8
DIMENSIONS
 10
0.0
 20
3.1864485981308412
 30
0.0
 11
0.0
 21
3.336448598130841
 31
0.0
  0
LINE
 62
5
  8
DIMENSIONS
 10
2.9439252336448596
 20
3.1864485981308412
 30
0.0
 11
2.9439252336448596
 21
3.336448598130841
 31
0.0
  0
TEXT
 62
7
  8
DIMENSIONS
 10
1.4719626168224298
 20
3.486448598130841
 30
0.0
 40
0.2
  1
3
 50
-0.0
  7
ISOCPEUR
 72
1
 73
2
 11
1.4719626168224298
 21
3.486448598130841
 31
0.0
  0
INSERT
  8
DIMENSIONS
  2
DIMTICK_ARROW
 10
0.0
 20
3.1864485981308412
 30
0.0
 41
1.0
 42
1.0
 50
0.0
  0
INSERT
  8
DIMENSIONS
  2
DIMTICK_ARROW
 10
2.9439252336448596
 20
3.1864485981308412
 30
0.0
 41
1.0
 42
1.0
 50
180.0
  0
LINE
 62
7
  8
DIMENSIONS
 10
0.0
 20
3.1864485981308412
 30
0.0
 11
2.9439252336448596
 21
3.1864485981308412
 31
0.0
  0
LINE
 62
5
  8
DIMENSIONS
 10
0.0
 20
3.1864485981308412
 30
0.0
 11
0.0
 21
3.336448598130841
 31
0.0
  0
LINE
 62
5
  8
DIMENSIONS
 10
2.9439252336448596
 20
3.1864485981308412
 30
0.0
 11
2.9439252336448596
 21
3.336448598130841
 31
0.0
  0
TEXT
 62
7
  8
DIMENSIONS
 10
1.4719626168224298
 20
3.486448598130841
 30
0.0
 40
0.2
  1
3
 50
-0.0
  7
ISOCPEUR
 72
1
 73
2
 11
1.4719626168224298
 21
3.486448598130841
 31
0.0
  0
INSERT
  8
DIMENSIONS
  2
DIMTICK_ARROW
 10
0.0
 20
3.1864485981308412
 30
0.0
 41
1.0
 42
1.0
 50
0.0
  0
INSERT
  8
DIMENSIONS
  2
DIMTICK_ARROW
 10
2.9439252336448596
 20
3.1864485981308412
 30
0.0
 41
1.0
 42
1.0
 50
180.0
  0
LINE
 62
7
  8
DIMENSIONS
 10
0.0
 20
3.1864485981308412
 30
0.0
 11
2.9439252336448596
 21
3.1864485981308412
 31
0.0
  0
LINE
 62
5
  8
DIMENSIONS
 10
0.0
 20
3.1864485981308412
 30
0.0
 11
0.0
 21
3.336448598130841
 31
0.0
  0
LINE
 62
5
  8
DIMENSIONS
 10
2.9439252336448596
 20
3.1864485981308412
 30
0.0
 11
2.9439252336448596
 21
3.336448598130841
 31
0.0
  0
TEXT
 62
7
  8
DIMENSIONS
 10
1.4719626168224298
 20
3.486448598130841
 30
0.0
 40
0.2
  1
3
 50
-0.0
  7
ISOCPEUR
 72
1
 73
2
 11
1.4719626168224298
 21
3.486448598130841
 31
0.0
  0
INSERT
  8
DIMENSIONS
  2
DIMTICK_ARROW
 10
0.0
 20
3.1864485981308412
 30
0.0
 41
1.0
 42
1.0
 50
0.0
  0
INSERT
  8
DIMENSIONS
  2
DIMTICK_ARROW
 10
2.9439252336448596
 20
3.1864485981308412
 30
0.0
 41
1.0
 42
1.0
 50
180.0
  0
LINE
 62
7
  8
DIMENSIONS
 10
0.0
 20
3.1864485981308412
 30
0.0
 11
2.9439252336448596
 21
3.1864485981308412
 31
0.0
  0
LINE
 62
5
  8
DIMENSIONS
 10
0.0
 20
3.1864485981308412
 30
0.0
 11
0.0
 21
3.336448598130841
 31
0.0
  0
LINE
 62
5
  8
DIMENSIONS
 10
2.9439252336448596
 20
3.1864485981308412
 30
0.0
 11
2.9439252336448596
 21
3.336448598130841
 31
0.0
  0
TEXT
 62
7
  8
DIMENSIONS
 10
1.4719626168224298
 20
3.486448598130841
 30
0.0
 40
0.2
  1
3
 50
-0.0
  7
ISOCPEUR
 72
1
 73
2
 11
1.4719626168224298
 21
3.486448598130841
 31
0.0
  0
INSERT
  8
DIMENSIONS
  2
DIMTICK_ARROW
 10
0.0
 20
3.1864485981308412
 30
0.0
 41
1.0
 42
1.0
 50
0.0
  0
INSERT
  8
DIMENSIONS
  2
DIMTICK_ARROW
 10
2.9439252336448596
 20
3.1864485981308412
 30
0.0
 41
1.0
 42
1.0
 50
180.0
  0
LINE
 62
7
  8
DIMENSIONS
 10
0.0
 20
3.1864485981308412
 30
0.0
 11
2.9439252336448596
 21
3.1864485981308412
 31
0.0
  0
LINE
 62
5
  8
DIMENSIONS
 10
0.0
 20
3.1864485981308412
 30
0.0
 11
0.0
 21
3.336448598130841
 31
0.0
  0
LINE
 62
5
  8
DIMENSIONS
 10
2.9439252336448596
 20
3.1864485981308412
 30
0.0
 11
2.9439252336448596
 21
3.336448598130841
 31
0.0
  0
TEXT
 62
7
  8
DIMENSIONS
 10
1.4719626168224298
 20
3.486448598130841
 30
0.0
 40
0.2
  1
3
 50
-0.0
  7
ISOCPEUR
 72
1
 73
2
 11
1.4719626168224298
 21
3.486448598130841
 31
0.0
  0
INSERT
  8
DIMENSIONS
  2
DIMTICK_ARROW
 10
0.0
 20
3.1864485981308412
 30
0.0
 41
1.0
 42
1.0
 50
0.0
  0
INSERT
  8
DIMENSIONS
  2
DIMTICK_ARROW
 10
2.9439252336448596
 20
3.1864485981308412
 30
0.0
 41
1.0
 42
1.0
 50
180.0
  0
LINE
 62
7
  8
DIMENSIONS
 10
0.0
 20
3.1864485981308412
 30
0.0
 11
2.9439252336448596
 21
3.1864485981308412
 31
0.0
  0
LINE
 62
5
  8
DIMENSIONS
 10
0.0
 20
3.1864485981308412
 30
0.0
 11
0.0
 21
3.336448598130841
 31
0.0
  0
LINE
 62
5
  8
DIMENSIONS
 10
2.9439252336448596
 20
3.1864485981308412
 30
0.0
 11
2.9439252336448596
 21
3.336448598130841
 31
0.0
  0
TEXT
 62
7
  8
DIMENSIONS
 10
1.4719626168224298
 20
3.486448598130841
 30
0.0
 40
0.2
  1
3
 50
-0.0
  7
ISOCPEUR
 72
1
 73
2
 11
1.4719626168224298
 21
3.486448598130841
 31
0.0
  0
INSERT
  8
DIMENSIONS
  2
DIMTICK_ARROW
 10
0.0
 20
3.1864485981308412
 30
0.0
 41
1.0
 42
1.0
 50
0.0
  0
INSERT
  8
DIMENSIONS
  2
DIMTICK_ARROW
 10
2.9439252336448596
 20
3.1864485981308412
 30
0.0
 41
1.0
 42
1.0
 50
180.0
  0
LINE
 62
7
  8
DIMENSIONS
 10
0.0
 20
3.1864485981308412
 30
0.0
 11
2.9439252336448596
 21
3.1864485981308412
 31
0.0
  0
LINE
 62
5
  8
DIMENSIONS
 10
0.0
 20
3.1864485981308412
 30
0.0
 11
0.0
 21
3.336448598130841
 31
0.0
  0
LINE
 62
5
  8
DIMENSIONS
 10
2.9439252336448596
 20
3.1864485981308412
 30
0.0
 11
2.9439252336448596
 21
3.336448598130841
 31
0.0
  0
TEXT
 62
7
  8
DIMENSIONS
 10
1.4719626168224298
 20
3.486448598130841
 30
0.0
 40
0.2
  1
3
 50
-0.0
  7
ISOCPEUR
 72
1
 73
2
 11
1.4719626168224298
 21
3.486448598130841
 31
0.0
  0
INSERT
  8
DIMENSIONS
  2
DIMTICK_ARROW
 10
0.0
 20
3.1864485981308412
 30
0.0
 41
1.0
 42
1.0
 50
0.0
  0
INSERT
  8
DIMENSIONS
  2
DIMTICK_ARROW
 10
2.9439252336448596
 20
3.1864485981308412
 30
0.0
 41
1.0
 42
1.0
 50
180.0
  0
LINE
 62
7
  8
DIMENSIONS
 10
0.0
 20
3.1864485981308412
 30
0.0
 11
2.9439252336448596
 21
3.1864485981308412
 31
0.0
  0
LINE
 62
5
  8
DIMENSIONS
 10
0.0
 20
3.1864485981308412
 30
0.0
 11
0.0
 21
3.336448598130841
 31
0.0
  0
LINE
 62
5
  8
DIMENSIONS
 10
2.9439252336448596
 20
3.1864485981308412
 30
0.0
 11
2.9439252336448596
 21
3.336448598130841
 31
0.0
  0
TEXT
 62
7
  8
DIMENSIONS
 10
1.4719626168224298
 20
3.486448598130841
 30
0.0
 40
0.2
  1
3
 50
-0.0
  7
ISOCPEUR
 72
1
 73
2
 11
1.4719626168224298
 21
3.486448598130841
 31
0.0
  0
INSERT
  8
DIMENSIONS
  2
DIMTICK_ARROW
 10
0.0
 20
3.1864485981308412
 30
0.0
 41
1.0
 42
1.0
 50
0.0
  0
INSERT
  8
DIMENSIONS
  2
DIMTICK_ARROW
 10
2.9439252336448596
 20
3.1864485981308412
 30
0.0
 41
1.0
 42
1.0
 50
180.0
  0
LINE
 62
7
  8
DIMENSIONS
 10
0.0
 20
3.1864485981308412
 30
0.0
 11
2.9439252336448596
 21
3.1864485981308412
 31
0.0
  0
LINE
 62
5
  8
DIMENSIONS
 10
0.0
 20
3.1864485981308412
 30
0.0
 11
0.0
 21
3.336448598130841
 31
0.0
  0
LINE
 62
5
  8
DIMENSIONS
 10
2.9439252336448596
 20
3.1864485981308412
 30
0.0
 11
2.9439252336448596
 21
3.336448598130841
 31
0.0
  0
TEXT
 62
7
  8
DIMENSIONS
 10
1.4719626168224298
 20
3.486448598130841
 30
0.0
 40
0.2
  1
3
 50
-0.0
  7
ISOCPEUR
 72
1
 73
2
 11
1.4719626168224298
 21
3.486448598130841
 31
0.0
  0
INSERT
  8
DIMENSIONS
  2
DIMTICK_ARROW
 10
0.0
 20
3.1864485981308412
 30
0.0
 41
1.0
 42
1.0
 50
0.0
  0
INSERT
  8
DIMENSIONS
  2
DIMTICK_ARROW
 10
2.9439252336448596
 20
3.1864485981308412
 30
0.0
 41
1.0
 42
1.0
 50
180.0
  0
LINE
 62
7
  8
DIMENSIONS
 10
0.0
 20
3.1864485981308412
 30
0.0
 11
2.9439252336448596
 21
3.1864485981308412
 31
0.0
  0
LINE
 62
5
  8
DIMENSIONS
 10
0.0
 20
3.1864485981308412
 30
0.0
 11
0.0
 21
3.336448598130841
 31
0.0
  0
LINE
 62
5
  8
DIMENSIONS
 10
2.9439252336448596
 20
3.1864485981308412
 30
0.0
 11
2.9439252336448596
 21
3.336448598130841
 31
0.0
  0
TEXT
 62
7
  8
DIMENSIONS
 10
1.4719626168224298
 20
3.486448598130841
 30
0.0
 40
0.2
  1
3
 50
-0.0
  7
ISOCPEUR
 72
1
 73
2
 11
1.4719626168224298
 21
3.486448598130841
 31
0.0
  0
INSERT
  8
DIMENSIONS
  2
DIMTICK_ARROW
 10
0.0
 20
3.1864485981308412
 30
0.0
 41
1.0
 42
1.0
 50
0.0
  0
INSERT
  8
DIMENSIONS
  2
DIMTICK_ARROW
 10
2.9439252336448596
 20
3.1864485981308412
 30
0.0
 41
1.0
 42
1.0
 50
180.0
  0
LINE
 62
7
  8
DIMENSIONS
 10
0.0
 20
3.1864485981308412
 30
0.0
 11
2.9439252336448596
 21
3.1864485981308412
 31
0.0
  0
LINE
 62
5
  8
DIMENSIONS
 10
0.0
 20
3.1864485981308412
 30
0.0
 11
0.0
 21
3.336448598130841
 31
0.0
  0
LINE
 62
5
  8
DIMENSIONS
 10
2.9439252336448596
 20
3.1864485981308412
 30
0.0
 11
2.9439252336448596
 21
3.336448598130841
 31
0.0
  0
TEXT
 62
7
  8
DIMENSIONS
 10
1.4719626168224298
 20
3.486448598130841
 30
0.0
 40
0.2
  1
3
 50
-0.0
  7
ISOCPEUR
 72
1
 73
2
 11
1.4719626168224298
 21
3.486448598130841
 31
0.0
  0
INSERT
  8
DIMENSIONS
  2
DIMTICK_ARROW
 10
0.0
 20
3.1864485981308412
 30
0.0
 41
1.0
 42
1.0
 50
0.0
  0
INSERT
  8
DIMENSIONS
  2
DIMTICK_ARROW
 10
2.9439252336448596
 20
3.1864485981308412
 30
0.0
 41
1.0
 42
1.0
 50
180.0
  0
LINE
 62
7
  8
DIMENSIONS
 10
0.0
 20
3.1864485981308412
 30
0.0
 11
2.9439252336448596
 21
3.1864485981308412
 31
0.0
  0
LINE
 62
5
  8
DIMENSIONS
 10
0.0
 20
3.1864485981308412
 30
0.0
 11
0.0
 21
3.336448598130841
 31
0.0
  0
LINE
 62
5
  8
DIMENSIONS
 10
2.9439252336448596
 20
3.1864485981308412
 30
0.0
 11
2.9439252336448596
 21
3.336448598130841
 31
0.0
  0
TEXT
 62
7
  8
DIMENSIONS
 10
1.4719626168224298
 20
3.486448598130841
 30
0.0
 40
0.2
  1
3
 50
-0.0
  7
ISOCPEUR
 72
1
 73
2
 11
1.4719626168224298
 21
3.486448598130841
 31
0.0
  0
INSERT
  8
DIMENSIONS
  2
DIMTICK_ARROW
 10
0.0
 20
3.1864485981308412
 30
0.0
 41
1.0
 42
1.0
 50
0.0
  0
INSERT
  8
DIMENSIONS
  2
DIMTICK_ARROW
 10
2.9439252336448596
 20
3.1864485981308412
 30
0.0
 41
1.0
 42
1.0
 50
180.0
  0
LINE
 62
7
  8
DIMENSIONS
 10
0.0
 20
3.1864485981308412
 30
0.0
 11
2.9439252336448596
 21
3.1864485981308412
 31
0.0
  0
LINE
 62
5
  8
DIMENSIONS
 10
0.0
 20
3.1864485981308412
 30
0.0
 11
0.0
 21
3.336448598130841
 31
0.0
  0
LINE
 62
5
  8
DIMENSIONS
 10
2.9439252336448596
 20
3.1864485981308412
 30
0.0
 11
2.9439252336448596
 21
3.336448598130841
 31
0.0
  0
TEXT
 62
7
  8
DIMENSIONS
 10
1.4719626168224298
 20
3.486448598130841
 30
0.0
 40
0.2
  1
3
 50
-0.0
  7
ISOCPEUR
 72
1
 73
2
 11
1.4719626168224298
 21
3.486448598130841
 31
0.0
  0
INSERT
  8
DIMENSIONS
  2
DIMTICK_ARROW
 10
0.0
 20
3.1864485981308412
 30
0.0
 41
1.0
 42
1.0
 50
0.0
  0
INSERT
  8
DIMENSIONS
  2
DIMTICK_ARROW
 10
2.9439252336448596
 20
3.1864485981308412
 30
0.0
 41
1.0
 42
1.0
 50
180.0
  0
LINE
 62
7
  8
DIMENSIONS
 10
0.0
 20
3.1864485981308412
 30
0.0
 11
2.9439252336448596
 21
3.1864485981308412
 31
0.0
  0
LINE
 62
5
  8
DIMENSIONS
 10
0.0
 20
3.1864485981308412
 30
0.0
 11
0.0
 21
3.336448598130841
 31
0.0
  0
LINE
 62
5
  8
DIMENSIONS
 10
2.9439252336448596
 20
3.1864485981308412
 30
0.0
 11
2.9439252336448596
 21
3.336448598130841
 31
0.0
  0
TEXT
 62
7
  8
DIMENSIONS
 10
1.4719626168224298
 20
3.486448598130841
 30
0.0
 40
0.2
  1
3
 50
-0.0
  7
ISOCPEUR
 72
1
 73
2
 11
1.4719626168224298
 21
3.486448598130841
 31
0.0
  0
INSERT
  8
DIMENSIONS
  2
DIMTICK_ARROW
 10
0.0
 20
3.1864485981308412
 30
0.0
 41
1.0
 42
1.0
 50
0.0
  0
INSERT
  8
DIMENSIONS
  2
DIMTICK_ARROW
 10
2.9439252336448596
 20
3.1864485981308412
 30
0.0
 41
1.0
 42
1.0
 50
180.0
  0
LINE
 62
3
  8
0
 10
0.0
 20
10.401869158878505
 30
0.0
 11
2.9439252336448596
 21
10.401869158878505
 31
0.0
  0
LINE
 62
3
  8
0
 10
6.5420560747663545
 20
3.336448598130841
 30
0.0
 11
10.467289719626168
 21
3.336448598130841
 31
0.0
  0
LINE
 62
7
  8
DIMENSIONS
 10
6.5420560747663545
 20
3.136448598130841
 30
0.0
 11
10.467289719626168
 21
3.136448598130841
 31
0.0
  0
LINE
 62
5
  8
DIMENSIONS
 10
6.5420560747663545
 20
3.136448598130841
 30
0.0
 11
6.5420560747663545
 21
3.336448598130841
 31
0.0
  0
LINE
 62
5
  8
DIMENSIONS
 10
10.467289719626168
 20
3.136448598130841
 30
0.0
 11
10.467289719626168
 21
3.336448598130841
 31
0.0
  0
TEXT
 62
7
  8
DIMENSIONS
 10
8.504672897196262
 20
3.4364485981308412
 30
0.0
 40
0.2
  1
4
 50
-0.0
  7
ISOCPEUR
 72
1
 73
2
 11
8.504672897196262
 21
3.4364485981308412
 31
0.0
  0
INSERT
  8
DIMENSIONS
  2
DIMTICK_ARROW
 10
6.5420560747663545
 20
3.136448598130841
 30
0.0
 41
1.0
 42
1.0
 50
0.0
  0
INSERT
  8
DIMENSIONS
  2
DIMTICK_ARROW
 10
10.467289719626168
 20
3.136448598130841
 30
0.0
 41
1.0
 42
1.0
 50
180.0
  0
LINE
 62
7
  8
DIMENSIONS
 10
6.5420560747663545
 20
3.136448598130841
 30
0.0
 11
10.467289719626168
 21
3.136448598130841
 31
0.0
  0
LINE
 62
5
  8
DIMENSIONS
 10
6.5420560747663545
 20
3.136448598130841
 30
0.0
 11
6.5420560747663545
 21
3.336448598130841
 31
0.0
  0
LINE
 62
5
  8
DIMENSIONS
 10
10.467289719626168
 20
3.136448598130841
 30
0.0
 11
10.467289719626168
 21
3.336448598130841
 31
0.0
  0
TEXT
 62
7
  8
DIMENSIONS
 10
8.504672897196262
 20
3.4364485981308412
 30
0.0
 40
0.2
  1
4
 50
-0.0
  7
ISOCPEUR
 72
1
 73
2
 11
8.504672897196262
 21
3.4364485981308412
 31
0.0
  0
INSERT
  8
DIMENSIONS
  2
DIMTICK_ARROW
 10
6.5420560747663545
 20
3.136448598130841
 30
0.0
 41
1.0
 42
1.0
 50
0.0
  0
INSERT
  8
DIMENSIONS
  2
DIMTICK_ARROW
 10
10.467289719626168
 20
3.136448598130841
 30
0.0
 41
1.0
 42
1.0
 50
180.0
  0
LINE
 62
7
  8
DIMENSIONS
 10
6.5420560747663545
 20
3.136448598130841
 30
0.0
 11
10.467289719626168
 21
3.136448598130841
 31
0.0
  0
LINE
 62
5
  8
DIMENSIONS
 10
6.5420560747663545
 20
3.136448598130841
 30
0.0
 11
6.5420560747663545
 21
3.336448598130841
 31
0.0
  0
LINE
 62
5
  8
DIMENSIONS
 10
10.467289719626168
 20
3.136448598130841
 30
0.0
 11
10.467289719626168
 21
3.336448598130841
 31
0.0
  0
TEXT
 62
7
  8
DIMENSIONS
 10
8.504672897196262
 20
3.4364485981308412
 30
0.0
 40
0.2
  1
4
 50
-0.0
  7
ISOCPEUR
 72
1
 73
2
 11
8.504672897196262
 21
3.4364485981308412
 31
0.0
  0
INSERT
  8
DIMENSIONS
  2
DIMTICK_ARROW
 10
6.5420560747663545
 20
3.136448598130841
 30
0.0
 41
1.0
 42
1.0
 50
0.0
  0
INSERT
  8
DIMENSIONS
  2
DIMTICK_ARROW
 10
10.467289719626168
 20
3.136448598130841
 30
0.0
 41
1.0
 42
1.0
 50
180.0
  0
LINE
 62
7
  8
DIMENSIONS
 10
6.5420560747663545
 20
3.136448598130841
 30
0.0
 11
10.467289719626168
 21
3.136448598130841
 31
0.0
  0
LINE
 62
5
  8
DIMENSIONS
 10
6.5420560747663545
 20
3.136448598130841
 30
0.0
 11
6.5420560747663545
 21
3.336448598130841
 31
0.0
  0
LINE
 62
5
  8
DIMENSIONS
 10
10.467289719626168
 20
3.136448598130841
 30
0.0
 11
10.467289719626168
 21
3.336448598130841
 31
0.0
  0
TEXT
 62
7
  8
DIMENSIONS
 10
8.504672897196262
 20
3.4364485981308412
 30
0.0
 40
0.2
  1
4
 50
-0.0
  7
ISOCPEUR
 72
1
 73
2
 11
8.504672897196262
 21
3.4364485981308412
 31
0.0
  0
INSERT
  8
DIMENSIONS
  2
DIMTICK_ARROW
 10
6.5420560747663545
 20
3.136448598130841
 30
0.0
 41
1.0
 42
1.0
 50
0.0
  0
INSERT
  8
DIMENSIONS
  2
DIMTICK_ARROW
 10
10.467289719626168
 20
3.136448598130841
 30
0.0
 41
1.0
 42
1.0
 50
180.0
  0
LINE
 62
7
  8
DIMENSIONS
 10
6.5420560747663545
 20
3.136448598130841
 30
0.0
 11
10.467289719626168
 21
3.136448598130841
 31
0.0
  0
LINE
 62
5
  8
DIMENSIONS
 10
6.5420560747663545
 20
3.136448598130841
 30
0.0
 11
6.5420560747663545
 21
3.336448598130841
 31
0.0
  0
LINE
 62
5
  8
DIMENSIONS
 10
10.467289719626168
 20
3.136448598130841
 30
0.0
 11
10.467289719626168
 21
3.336448598130841
 31
0.0
  0
TEXT
 62
7
  8
DIMENSIONS
 10
8.504672897196262
 20
3.4364485981308412
 30
0.0
 40
0.2
  1
4
 50
-0.0
  7
ISOCPEUR
 72
1
 73
2
 11
8.504672897196262
 21
3.4364485981308412
 31
0.0
  0
INSERT
  8
DIMENSIONS
  2
DIMTICK_ARROW
 10
6.5420560747663545
 20
3.136448598130841
 30
0.0
 41
1.0
 42
1.0
 50
0.0
  0
INSERT
  8
DIMENSIONS
  2
DIMTICK_ARROW
 10
10.467289719626168
 20
3.136448598130841
 30
0.0
 41
1.0
 42
1.0
 50
180.0
  0
LINE
 62
7
  8
DIMENSIONS
 10
6.5420560747663545
 20
3.136448598130841
 30
0.0
 11
10.467289719626168
 21
3.136448598130841
 31
0.0
  0
LINE
 62
5
  8
DIMENSIONS
 10
6.5420560747663545
 20
3.136448598130841
 30
0.0
 11
6.5420560747663545
 21
3.336448598130841
 31
0.0
  0
LINE
 62
5
  8
DIMENSIONS
 10
10.467289719626168
 20
3.136448598130841
 30
0.0
 11
10.467289719626168
 21
3.336448598130841
 31
0.0
  0
TEXT
 62
7
  8
DIMENSIONS
 10
8.504672897196262
 20
3.4364485981308412
 30
0.0
 40
0.2
  1
4
 50
-0.0
  7
ISOCPEUR
 72
1
 73
2
 11
8.504672897196262
 21
3.4364485981308412
 31
0.0
  0
INSERT
  8
DIMENSIONS
  2
DIMTICK_ARROW
 10
6.5420560747663545
 20
3.136448598130841
 30
0.0
 41
1.0
 42
1.0
 50
0.0
  0
INSERT
  8
DIMENSIONS
  2
DIMTICK_ARROW
 10
10.467289719626168
 20
3.136448598130841
 30
0.0
 41
1.0
 42
1.0
 50
180.0
  0
LINE
 62
7
  8
DIMENSIONS
 10
6.5420560747663545
 20
3.136448598130841
 30
0.0
 11
10.467289719626168
 21
3.136448598130841
 31
0.0
  0
LINE
 62
5
  8
DIMENSIONS
 10
6.5420560747663545
 20
3.136448598130841
 30
0.0
 11
6.5420560747663545
 21
3.336448598130841
 31
0.0
  0
LINE
 62
5
  8
DIMENSIONS
 10
10.467289719626168
 20
3.136448598130841
 30
0.0
 11
10.467289719626168
 21
3.336448598130841
 31
0.0
  0
TEXT
 62
7
  8
DIMENSIONS
 10
8.504672897196262
 20
3.4364485981308412
 30
0.0
 40
0.2
  1
4
 50
-0.0
  7
ISOCPEUR
 72
1
 73
2
 11
8.504672897196262
 21
3.4364485981308412
 31
0.0
  0
INSERT
  8
DIMENSIONS
  2
DIMTICK_ARROW
 10
6.5420560747663545
 20
3.136448598130841
 30
0.0
 41
1.0
 42
1.0
 50
0.0
  0
INSERT
  8
DIMENSIONS
  2
DIMTICK_ARROW
 10
10.467289719626168
 20
3.136448598130841
 30
0.0
 41
1.0
 42
1.0
 50
180.0
  0
LINE
 62
7
  8
DIMENSIONS
 10
6.5420560747663545
 20
3.136448598130841
 30
0.0
 11
10.467289719626168
 21
3.136448598130841
 31
0.0
  0
LINE
 62
5
  8
DIMENSIONS
 10
6.5420560747663545
 20
3.136448598130841
 30
0.0
 11
6.5420560747663545
 21
3.336448598130841
 31
0.0
  0
LINE
 62
5
  8
DIMENSIONS
 10
10.467289719626168
 20
3.136448598130841
 30
0.0
 11
10.467289719626168
 21
3.336448598130841
 31
0.0
  0
TEXT
 62
7
  8
DIMENSIONS
 10
8.504672897196262
 20
3.4364485981308412
 30
0.0
 40
0.2
  1
4
 50
-0.0
  7
ISOCPEUR
 72
1
 73
2
 11
8.504672897196262
 21
3.4364485981308412
 31
0.0
  0
INSERT
  8
DIMENSIONS
  2
DIMTICK_ARROW
 10
6.5420560747663545
 20
3.136448598130841
 30
0.0
 41
1.0
 42
1.0
 50
0.0
  0
INSERT
  8
DIMENSIONS
  2
DIMTICK_ARROW
 10
10.467289719626168
 20
3.136448598130841
 30
0.0
 41
1.0
 42
1.0
 50
180.0
  0
LINE
 62
7
  8
DIMENSIONS
 10
6.5420560747663545
 20
3.136448598130841
 30
0.0
 11
10.467289719626168
 21
3.136448598130841
 31
0.0
  0
LINE
 62
5
  8
DIMENSIONS
 10
6.5420560747663545
 20
3.136448598130841
 30
0.0
 11
6.5420560747663545
 21
3.336448598130841
 31
0.0
  0
LINE
 62
5
  8
DIMENSIONS
 10
10.467289719626168
 20
3.136448598130841
 30
0.0
 11
10.467289719626168
 21
3.336448598130841
 31
0.0
  0
TEXT
 62
7
  8
DIMENSIONS
 10
8.504672897196262
 20
3.4364485981308412
 30
0.0
 40
0.2
  1
4
 50
-0.0
  7
ISOCPEUR
 72
1
 73
2
 11
8.504672897196262
 21
3.4364485981308412
 31
0.0
  0
INSERT
  8
DIMENSIONS
  2
DIMTICK_ARROW
 10
6.5420560747663545
 20
3.136448598130841
 30
0.0
 41
1.0
 42
1.0
 50
0.0
  0
INSERT
  8
DIMENSIONS
  2
DIMTICK_ARROW
 10
10.467289719626168
 20
3.136448598130841
 30
0.0
 41
1.0
 42
1.0
 50
180.0
  0
LINE
 62
7
  8
DIMENSIONS
 10
6.5420560747663545
 20
3.136448598130841
 30
0.0
 11
10.467289719626168
 21
3.136448598130841
 31
0.0
  0
LINE
 62
5
  8
DIMENSIONS
 10
6.5420560747663545
 20
3.136448598130841
 30
0.0
 11
6.5420560747663545
 21
3.336448598130841
 31
0.0
  0
LINE
 62
5
  8
DIMENSIONS
 10
10.467289719626168
 20
3.136448598130841
 30
0.0
 11
10.467289719626168
 21
3.336448598130841
 31
0.0
  0
TEXT
 62
7
  8
DIMENSIONS
 10
8.504672897196262
 20
3.4364485981308412
 30
0.0
 40
0.2
  1
4
 50
-0.0
  7
ISOCPEUR
 72
1
 73
2
 11
8.504672897196262
 21
3.4364485981308412
 31
0.0
  0
INSERT
  8
DIMENSIONS
  2
DIMTICK_ARROW
 10
6.5420560747663545
 20
3.136448598130841
 30
0.0
 41
1.0
 42
1.0
 50
0.0
  0
INSERT
  8
DIMENSIONS
  2
DIMTICK_ARROW
 10
10.467289719626168
 20
3.136448598130841
 30
0.0
 41
1.0
 42
1.0
 50
180.0
  0
LINE
 62
7
  8
DIMENSIONS
 10
6.5420560747663545
 20
3.136448598130841
 30
0.0
 11
10.467289719626168
 21
3.136448598130841
 31
0.0
  0
LINE
 62
5
  8
DIMENSIONS
 10
6.5420560747663545
 20
3.136448598130841
 30
0.0
 11
6.5420560747663545
 21
3.336448598130841
 31
0.0
  0
LINE
 62
5
  8
DIMENSIONS
 10
10.467289719626168
 20
3.136448598130841
 30
0.0
 11
10.467289719626168
 21
3.336448598130841
 31
0.0
  0
TEXT
 62
7
  8
DIMENSIONS
 10
8.504672897196262
 20
3.4364485981308412
 30
0.0
 40
0.2
  1
4
 50
-0.0
  7
ISOCPEUR
 72
1
 73
2
 11
8.504672897196262
 21
3.4364485981308412
 31
0.0
  0
INSERT
  8
DIMENSIONS
  2
DIMTICK_ARROW
 10
6.5420560747663545
 20
3.136448598130841
 30
0.0
 41
1.0
 42
1.0
 50
0.0
  0
INSERT
  8
DIMENSIONS
  2
DIMTICK_ARROW
 10
10.467289719626168
 20
3.136448598130841
 30
0.0
 41
1.0
 42
1.0
 50
180.0
  0
LINE
 62
7
  8
DIMENSIONS
 10
6.5420560747663545
 20
3.136448598130841
 30
0.0
 11
10.467289719626168
 21
3.136448598130841
 31
0.0
  0
LINE
 62
5
  8
DIMENSIONS
 10
6.5420560747663545
 20
3.136448598130841
 30
0.0
 11
6.5420560747663545
 21
3.336448598130841
 31
0.0
  0
LINE
 62
5
  8
DIMENSIONS
 10
10.467289719626168
 20
3.136448598130841
 30
0.0
 11
10.467289719626168
 21
3.336448598130841
 31
0.0
  0
TEXT
 62
7
  8
DIMENSIONS
 10
8.504672897196262
 20
3.4364485981308412
 30
0.0
 40
0.2
  1
4
 50
-0.0
  7
ISOCPEUR
 72
1
 73
2
 11
8.504672897196262
 21
3.4364485981308412
 31
0.0
  0
INSERT
  8
DIMENSIONS
  2
DIMTICK_ARROW
 10
6.5420560747663545
 20
3.136448598130841
 30
0.0
 41
1.0
 42
1.0
 50
0.0
  0
INSERT
  8
DIMENSIONS
  2
DIMTICK_ARROW
 10
10.467289719626168
 20
3.136448598130841
 30
0.0
 41
1.0
 42
1.0
 50
180.0
  0
LINE
 62
7
  8
DIMENSIONS
 10
6.5420560747663545
 20
3.136448598130841
 30
0.0
 11
10.467289719626168
 21
3.136448598130841
 31
0.0
  0
LINE
 62
5
  8
DIMENSIONS
 10
6.5420560747663545
 20
3.136448598130841
 30
0.0
 11
6.5420560747663545
 21
3.336448598130841
 31
0.0
  0
LINE
 62
5
  8
DIMENSIONS
 10
10.467289719626168
 20
3.136448598130841
 30
0.0
 11
10.467289719626168
 21
3.336448598130841
 31
0.0
  0
TEXT
 62
7
  8
DIMENSIONS
 10
8.504672897196262
 20
3.4364485981308412
 30
0.0
 40
0.2
  1
4
 50
-0.0
  7
ISOCPEUR
 72
1
 73
2
 11
8.504672897196262
 21
3.4364485981308412
 31
0.0
  0
INSERT
  8
DIMENSIONS
  2
DIMTICK_ARROW
 10
6.5420560747663545
 20
3.136448598130841
 30
0.0
 41
1.0
 42
1.0
 50
0.0
  0
INSERT
  8
DIMENSIONS
  2
DIMTICK_ARROW
 10
10.467289719626168
 20
3.136448598130841
 30
0.0
 41
1.0
 42
1.0
 50
180.0
  0
LINE
 62
7
  8
DIMENSIONS
 10
6.5420560747663545
 20
3.136448598130841
 30
0.0
 11
10.467289719626168
 21
3.136448598130841
 31
0.0
  0
LINE
 62
5
  8
DIMENSIONS
 10
6.5420560747663545
 20
3.136448598130841
 30
0.0
 11
6.5420560747663545
 21
3.336448598130841
 31
0.0
  0
LINE
 62
5
  8
DIMENSIONS
 10
10.467289719626168
 20
3.136448598130841
 30
0.0
 11
10.467289719626168
 21
3.336448598130841
 31
0.0
  0
TEXT
 62
7
  8
DIMENSIONS
 10
8.504672897196262
 20
3.4364485981308412
 30
0.0
 40
0.2
  1
4
 50
-0.0
  7
ISOCPEUR
 72
1
 73
2
 11
8.504672897196262
 21
3.4364485981308412
 31
0.0
  0
INSERT
  8
DIMENSIONS
  2
DIMTICK_ARROW
 10
6.5420560747663545
 20
3.136448598130841
 30
0.0
 41
1.0
 42
1.0
 50
0.0
  0
INSERT
  8
DIMENSIONS
  2
DIMTICK_ARROW
 10
10.467289719626168
 20
3.136448598130841
 30
0.0
 41
1.0
 42
1.0
 50
180.0
  0
LINE
 62
7
  8
DIMENSIONS
 10
6.5420560747663545
 20
3.136448598130841
 30
0.0
 11
10.467289719626168
 21
3.136448598130841
 31
0.0
  0
LINE
 62
5
  8
DIMENSIONS
 10
6.5420560747663545
 20
3.136448598130841
 30
0.0
 11
6.5420560747663545
 21
3.336448598130841
 31
0.0
  0
LINE
 62
5
  8
DIMENSIONS
 10
10.467289719626168
 20
3.136448598130841
 30
0.0
 11
10.467289719626168
 21
3.336448598130841
 31
0.0
  0
TEXT
 62
7
  8
DIMENSIONS
 10
8.504672897196262
 20
3.4364485981308412
 30
0.0
 40
0.2
  1
4
 50
-0.0
  7
ISOCPEUR
 72
1
 73
2
 11
8.504672897196262
 21
3.4364485981308412
 31
0.0
  0
INSERT
  8
DIMENSIONS
  2
DIMTICK_ARROW
 10
6.5420560747663545
 20
3.136448598130841
 30
0.0
 41
1.0
 42
1.0
 50
0.0
  0
INSERT
  8
DIMENSIONS
  2
DIMTICK_ARROW
 10
10.467289719626168
 20
3.136448598130841
 30
0.0
 41
1.0
 42
1.0
 50
180.0
  0
LINE
 62
7
  8
DIMENSIONS
 10
6.5420560747663545
 20
3.136448598130841
 30
0.0
 11
10.467289719626168
 21
3.136448598130841
 31
0.0
  0
LINE
 62
5
  8
DIMENSIONS
 10
6.5420560747663545
 20
3.136448598130841
 30
0.0
 11
6.5420560747663545
 21
3.336448598130841
 31
0.0
  0
LINE
 62
5
  8
DIMENSIONS
 10
10.467289719626168
 20
3.136448598130841
 30
0.0
 11
10.467289719626168
 21
3.336448598130841
 31
0.0
  0
TEXT
 62
7
  8
DIMENSIONS
 10
8.504672897196262
 20
3.4364485981308412
 30
0.0
 40
0.2
  1
4
 50
-0.0
  7
ISOCPEUR
 72
1
 73
2
 11
8.504672897196262
 21
3.4364485981308412
 31
0.0
  0
INSERT
  8
DIMENSIONS
  2
DIMTICK_ARROW
 10
6.5420560747663545
 20
3.136448598130841
 30
0.0
 41
1.0
 42
1.0
 50
0.0
  0
INSERT
  8
DIMENSIONS
  2
DIMTICK_ARROW
 10
10.467289719626168
 20
3.136448598130841
 30
0.0
 41
1.0
 42
1.0
 50
180.0
  0
LINE
 62
7
  8
DIMENSIONS
 10
6.5420560747663545
 20
3.136448598130841
 30
0.0
 11
10.467289719626168
 21
3.136448598130841
 31
0.0
  0
LINE
 62
5
  8
DIMENSIONS
 10
6.5420560747663545
 20
3.136448598130841
 30
0.0
 11
6.5420560747663545
 21
3.336448598130841
 31
0.0
  0
LINE
 62
5
  8
DIMENSIONS
 10
10.467289719626168
 20
3.136448598130841
 30
0.0
 11
10.467289719626168
 21
3.336448598130841
 31
0.0
  0
TEXT
 62
7
  8
DIMENSIONS
 10
8.504672897196262
 20
3.4364485981308412
 30
0.0
 40
0.2
  1
4
 50
-0.0
  7
ISOCPEUR
 72
1
 73
2
 11
8.504672897196262
 21
3.4364485981308412
 31
0.0
  0
INSERT
  8
DIMENSIONS
  2
DIMTICK_ARROW
 10
6.5420560747663545
 20
3.136448598130841
 30
0.0
 41
1.0
 42
1.0
 50
0.0
  0
INSERT
  8
DIMENSIONS
  2
DIMTICK_ARROW
 10
10.467289719626168
 20
3.136448598130841
 30
0.0
 41
1.0
 42
1.0
 50
180.0
  0
LINE
 62
7
  8
DIMENSIONS
 10
6.5420560747663545
 20
3.136448598130841
 30
0.0
 11
10.467289719626168
 21
3.136448598130841
 31
0.0
  0
LINE
 62
5
  8
DIMENSIONS
 10
6.5420560747663545
 20
3.136448598130841
 30
0.0
 11
6.5420560747663545
 21
3.336448598130841
 31
0.0
  0
LINE
 62
5
  8
DIMENSIONS
 10
10.467289719626168
 20
3.136448598130841
 30
0.0
 11
10.467289719626168
 21
3.336448598130841
 31
0.0
  0
TEXT
 62
7
  8
DIMENSIONS
 10
8.504672897196262
 20
3.4364485981308412
 30
0.0
 40
0.2
  1
4
 50
-0.0
  7
ISOCPEUR
 72
1
 73
2
 11
8.504672897196262
 21
3.4364485981308412
 31
0.0
  0
INSERT
  8
DIMENSIONS
  2
DIMTICK_ARROW
 10
6.5420560747663545
 20
3.136448598130841
 30
0.0
 41
1.0
 42
1.0
 50
0.0
  0
INSERT
  8
DIMENSIONS
  2
DIMTICK_ARROW
 10
10.467289719626168
 20
3.136448598130841
 30
0.0
 41
1.0
 42
1.0
 50
180.0
  0
LINE
 62
7
  8
DIMENSIONS
 10
6.5420560747663545
 20
3.136448598130841
 30
0.0
 11
10.467289719626168
 21
3.136448598130841
 31
0.0
  0
LINE
 62
5
  8
DIMENSIONS
 10
6.5420560747663545
 20
3.136448598130841
 30
0.0
 11
6.5420560747663545
 21
3.336448598130841
 31
0.0
  0
LINE
 62
5
  8
DIMENSIONS
 10
10.467289719626168
 20
3.136448598130841
 30
0.0
 11
10.467289719626168
 21
3.336448598130841
 31
0.0
  0
TEXT
 62
7
  8
DIMENSIONS
 10
8.504672897196262
 20
3.4364485981308412
 30
0.0
 40
0.2
  1
4
 50
-0.0
  7
ISOCPEUR
 72
1
 73
2
 11
8.504672897196262
 21
3.4364485981308412
 31
0.0
  0
INSERT
  8
DIMENSIONS
  2
DIMTICK_ARROW
 10
6.5420560747663545
 20
3.136448598130841
 30
0.0
 41
1.0
 42
1.0
 50
0.0
  0
INSERT
  8
DIMENSIONS
  2
DIMTICK_ARROW
 10
10.467289719626168
 20
3.136448598130841
 30
0.0
 41
1.0
 42
1.0
 50
180.0
  0
LINE
 62
7
  8
DIMENSIONS
 10
6.5420560747663545
 20
3.136448598130841
 30
0.0
 11
10.467289719626168
 21
3.136448598130841
 31
0.0
  0
LINE
 62
5
  8
DIMENSIONS
 10
6.5420560747663545
 20
3.136448598130841
 30
0.0
 11
6.5420560747663545
 21
3.336448598130841
 31
0.0
  0
LINE
 62
5
  8
DIMENSIONS
 10
10.467289719626168
 20
3.136448598130841
 30
0.0
 11
10.467289719626168
 21
3.336448598130841
 31
0.0
  0
TEXT
 62
7
  8
DIMENSIONS
 10
8.504672897196262
 20
3.4364485981308412
 30
0.0
 40
0.2
  1
4
 50
-0.0
  7
ISOCPEUR
 72
1
 73
2
 11
8.504672897196262
 21
3.4364485981308412
 31
0.0
  0
INSERT
  8
DIMENSIONS
  2
DIMTICK_ARROW
 10
6.5420560747663545
 20
3.136448598130841
 30
0.0
 41
1.0
 42
1.0
 50
0.0
  0
INSERT
  8
DIMENSIONS
  2
DIMTICK_ARROW
 10
10.467289719626168
 20
3.136448598130841
 30
0.0
 41
1.0
 42
1.0
 50
180.0
  0
LINE
 62
7
  8
DIMENSIONS
 10
6.5420560747663545
 20
3.136448598130841
 30
0.0
 11
10.467289719626168
 21
3.136448598130841
 31
0.0
  0
LINE
 62
5
  8
DIMENSIONS
 10
6.5420560747663545
 20
3.136448598130841
 30
0.0
 11
6.5420560747663545
 21
3.336448598130841
 31
0.0
  0
LINE
 62
5
  8
DIMENSIONS
 10
10.467289719626168
 20
3.136448598130841
 30
0.0
 11
10.467289719626168
 21
3.336448598130841
 31
0.0
  0
TEXT
 62
7
  8
DIMENSIONS
 10
8.504672897196262
 20
3.4364485981308412
 30
0.0
 40
0.2
  1
4
 50
-0.0
  7
ISOCPEUR
 72
1
 73
2
 11
8.504672897196262
 21
3.4364485981308412
 31
0.0
  0
INSERT
  8
DIMENSIONS
  2
DIMTICK_ARROW
 10
6.5420560747663545
 20
3.136448598130841
 30
0.0
 41
1.0
 42
1.0
 50
0.0
  0
INSERT
  8
DIMENSIONS
  2
DIMTICK_ARROW
 10
10.467289719626168
 20
3.136448598130841
 30
0.0
 41
1.0
 42
1.0
 50
180.0
  0
LINE
 62
7
  8
DIMENSIONS
 10
6.5420560747663545
 20
3.136448598130841
 30
0.0
 11
10.467289719626168
 21
3.136448598130841
 31
0.0
  0
LINE
 62
5
  8
DIMENSIONS
 10
6.5420560747663545
 20
3.136448598130841
 30
0.0
 11
6.5420560747663545
 21
3.336448598130841
 31
0.0
  0
LINE
 62
5
  8
DIMENSIONS
 10
10.467289719626168
 20
3.136448598130841
 30
0.0
 11
10.467289719626168
 21
3.336448598130841
 31
0.0
  0
TEXT
 62
7
  8
DIMENSIONS
 10
8.504672897196262
 20
3.4364485981308412
 30
0.0
 40
0.2
  1
4
 50
-0.0
  7
ISOCPEUR
 72
1
 73
2
 11
8.504672897196262
 21
3.4364485981308412
 31
0.0
  0
INSERT
  8
DIMENSIONS
  2
DIMTICK_ARROW
 10
6.5420560747663545
 20
3.136448598130841
 30
0.0
 41
1.0
 42
1.0
 50
0.0
  0
INSERT
  8
DIMENSIONS
  2
DIMTICK_ARROW
 10
10.467289719626168
 20
3.136448598130841
 30
0.0
 41
1.0
 42
1.0
 50
180.0
  0
LINE
 62
7
  8
DIMENSIONS
 10
6.5420560747663545
 20
3.136448598130841
 30
0.0
 11
10.467289719626168
 21
3.136448598130841
 31
0.0
  0
LINE
 62
5
  8
DIMENSIONS
 10
6.5420560747663545
 20
3.136448598130841
 30
0.0
 11
6.5420560747663545
 21
3.336448598130841
 31
0.0
  0
LINE
 62
5
  8
DIMENSIONS
 10
10.467289719626168
 20
3.136448598130841
 30
0.0
 11
10.467289719626168
 21
3.336448598130841
 31
0.0
  0
TEXT
 62
7
  8
DIMENSIONS
 10
8.504672897196262
 20
3.4364485981308412
 30
0.0
 40
0.2
  1
4
 50
-0.0
  7
ISOCPEUR
 72
1
 73
2
 11
8.504672897196262
 21
3.4364485981308412
 31
0.0
  0
INSERT
  8
DIMENSIONS
  2
DIMTICK_ARROW
 10
6.5420560747663545
 20
3.136448598130841
 30
0.0
 41
1.0
 42
1.0
 50
0.0
  0
INSERT
  8
DIMENSIONS
  2
DIMTICK_ARROW
 10
10.467289719626168
 20
3.136448598130841
 30
0.0
 41
1.0
 42
1.0
 50
180.0
  0
LINE
 62
3
  8
0
 10
6.5420560747663545
 20
10.401869158878505
 30
0.0
 11
10.467289719626168
 21
10.401869158878505
 31
0.0
  0
LINE
 62
3
  8
0
 10
0.0
 20
13.345794392523365
 30
0.0
 11
10.467289719626168
 21
13.345794392523365
 31
0.0
  0
LINE
 62
3
  8
0
 10
0.0
 20
0.0
 30
0.0
 11
10.467289719626168
 21
0.0
 31
0.0
  0
LINE
 62
7
  8
DIMENSIONS
 10
0.0
 20
-0.5333333333333333
 30
0.0
 11
10.467289719626168
 21
-0.5333333333333333
 31
0.0
  0
LINE
 62
5
  8
DIMENSIONS
 10
0.0
 20
-0.5333333333333333
 30
0.0
 11
0.0
 21
0.0
 31
0.0
  0
LINE
 62
5
  8
DIMENSIONS
 10
10.467289719626168
 20
-0.5333333333333333
 30
0.0
 11
10.467289719626168
 21
0.0
 31
0.0
  0
TEXT
 62
7
  8
DIMENSIONS
 10
5.233644859813084
 20
-0.23333333333333328
 30
0.0
 40
0.2
  1
10
 50
-0.0
  7
ISOCPEUR
 72
1
 73
2
 11
5.233644859813084
 21
-0.23333333333333328
 31
0.0
  0
INSERT
  8
DIMENSIONS
  2
DIMTICK_ARROW
 10
0.0
 20
-0.5333333333333333
 30
0.0
 41
1.0
 42
1.0
 50
0.0
  0
INSERT
  8
DIMENSIONS
  2
DIMTICK_ARROW
 10
10.467289719626168
 20
-0.5333333333333333
 30
0.0
 41
1.0
 42
1.0
 50
180.0
  0
LINE
 62
7
  8
DIMENSIONS
 10
0.0
 20
-0.5333333333333333
 30
0.0
 11
10.467289719626168
 21
-0.5333333333333333
 31
0.0
  0
LINE
 62
5
  8
DIMENSIONS
 10
0.0
 20
-0.5333333333333333
 30
0.0
 11
0.0
 21
0.0
 31
0.0
  0
LINE
 62
5
  8
DIMENSIONS
 10
10.467289719626168
 20
-0.5333333333333333
 30
0.0
 11
10.467289719626168
 21
0.0
 31
0.0
  0
TEXT
 62
7
  8
DIMENSIONS
 10
5.233644859813084
 20
-0.23333333333333328
 30
0.0
 40
0.2
  1
10
 50
-0.0
  7
ISOCPEUR
 72
1
 73
2
 11
5.233644859813084
 21
-0.23333333333333328
 31
0.0
  0
INSERT
  8
DIMENSIONS
  2
DIMTICK_ARROW
 10
0.0
 20
-0.5333333333333333
 30
0.0
 41
1.0
 42
1.0
 50
0.0
  0
INSERT
  8
DIMENSIONS
  2
DIMTICK_ARROW
 10
10.467289719626168
 20
-0.5333333333333333
 30
0.0
 41
1.0
 42
1.0
 50
180.0
  0
LINE
 62
7
  8
DIMENSIONS
 10
0.0
 20
-0.5333333333333333
 30
0.0
 11
10.467289719626168
 21
-0.5333333333333333
 31
0.0
  0
LINE
 62
5
  8
DIMENSIONS
 10
0.0
 20
-0.5333333333333333
 30
0.0
 11
0.0
 21
0.0
 31
0.0
  0
LINE
 62
5
  8
DIMENSIONS
 10
10.467289719626168
 20
-0.5333333333333333
 30
0.0
 11
10.467289719626168
 21
0.0
 31
0.0
  0
TEXT
 62
7
  8
DIMENSIONS
 10
5.233644859813084
 20
-0.23333333333333328
 30
0.0
 40
0.2
  1
10
 50
-0.0
  7
ISOCPEUR
 72
1
 73
2
 11
5.233644859813084
 21
-0.23333333333333328
 31
0.0
  0
INSERT
  8
DIMENSIONS
  2
DIMTICK_ARROW
 10
0.0
 20
-0.5333333333333333
 30
0.0
 41
1.0
 42
1.0
 50
0.0
  0
INSERT
  8
DIMENSIONS
  2
DIMTICK_ARROW
 10
10.467289719626168
 20
-0.5333333333333333
 30
0.0
 41
1.0
 42
1.0
 50
180.0
  0
LINE
 62
7
  8
DIMENSIONS
 10
0.0
 20
-0.5333333333333333
 30
0.0
 11
10.467289719626168
 21
-0.5333333333333333
 31
0.0
  0
LINE
 62
5
  8
DIMENSIONS
 10
0.0
 20
-0.5333333333333333
 30
0.0
 11
0.0
 21
0.0
 31
0.0
  0
LINE
 62
5
  8
DIMENSIONS
 10
10.467289719626168
 20
-0.5333333333333333
 30
0.0
 11
10.467289719626168
 21
0.0
 31
0.0
  0
TEXT
 62
7
  8
DIMENSIONS
 10
5.233644859813084
 20
-0.23333333333333328
 30
0.0
 40
0.2
  1
10
 50
-0.0
  7
ISOCPEUR
 72
1
 73
2
 11
5.233644859813084
 21
-0.23333333333333328
 31
0.0
  0
INSERT
  8
DIMENSIONS
  2
DIMTICK_ARROW
 10
0.0
 20
-0.5333333333333333
 30
0.0
 41
1.0
 42
1.0
 50
0.0
  0
INSERT
  8
DIMENSIONS
  2
DIMTICK_ARROW
 10
10.467289719626168
 20
-0.5333333333333333
 30
0.0
 41
1.0
 42
1.0
 50
180.0
  0
LINE
 62
7
  8
DIMENSIONS
 10
0.0
 20
-0.5333333333333333
 30
0.0
 11
10.467289719626168
 21
-0.5333333333333333
 31
0.0
  0
LINE
 62
5
  8
DIMENSIONS
 10
0.0
 20
-0.5333333333333333
 30
0.0
 11
0.0
 21
0.0
 31
0.0
  0
LINE
 62
5
  8
DIMENSIONS
 10
10.467289719626168
 20
-0.5333333333333333
 30
0.0
 11
10.467289719626168
 21
0.0
 31
0.0
  0
TEXT
 62
7
  8
DIMENSIONS
 10
5.233644859813084
 20
-0.23333333333333328
 30
0.0
 40
0.2
  1
10
 50
-0.0
  7
ISOCPEUR
 72
1
 73
2
 11
5.233644859813084
 21
-0.23333333333333328
 31
0.0
  0
INSERT
  8
DIMENSIONS
  2
DIMTICK_ARROW
 10
0.0
 20
-0.5333333333333333
 30
0.0
 41
1.0
 42
1.0
 50
0.0
  0
INSERT
  8
DIMENSIONS
  2
DIMTICK_ARROW
 10
10.467289719626168
 20
-0.5333333333333333
 30
0.0
 41
1.0
 42
1.0
 50
180.0
  0
LINE
 62
7
  8
DIMENSIONS
 10
0.0
 20
-0.5333333333333333
 30
0.0
 11
10.467289719626168
 21
-0.5333333333333333
 31
0.0
  0
LINE
 62
5
  8
DIMENSIONS
 10
0.0
 20
-0.5333333333333333
 30
0.0
 11
0.0
 21
0.0
 31
0.0
  0
LINE
 62
5
  8
DIMENSIONS
 10
10.467289719626168
 20
-0.5333333333333333
 30
0.0
 11
10.467289719626168
 21
0.0
 31
0.0
  0
TEXT
 62
7
  8
DIMENSIONS
 10
5.233644859813084
 20
-0.23333333333333328
 30
0.0
 40
0.2
  1
10
 50
-0.0
  7
ISOCPEUR
 72
1
 73
2
 11
5.233644859813084
 21
-0.23333333333333328
 31
0.0
  0
INSERT
  8
DIMENSIONS
  2
DIMTICK_ARROW
 10
0.0
 20
-0.5333333333333333
 30
0.0
 41
1.0
 42
1.0
 50
0.0
  0
INSERT
  8
DIMENSIONS
  2
DIMTICK_ARROW
 10
10.467289719626168
 20
-0.5333333333333333
 30
0.0
 41
1.0
 42
1.0
 50
180.0
  0
LINE
 62
7
  8
DIMENSIONS
 10
0.0
 20
-0.5333333333333333
 30
0.0
 11
10.467289719626168
 21
-0.5333333333333333
 31
0.0
  0
LINE
 62
5
  8
DIMENSIONS
 10
0.0
 20
-0.5333333333333333
 30
0.0
 11
0.0
 21
0.0
 31
0.0
  0
LINE
 62
5
  8
DIMENSIONS
 10
10.467289719626168
 20
-0.5333333333333333
 30
0.0
 11
10.467289719626168
 21
0.0
 31
0.0
  0
TEXT
 62
7
  8
DIMENSIONS
 10
5.233644859813084
 20
-0.23333333333333328
 30
0.0
 40
0.2
  1
10
 50
-0.0
  7
ISOCPEUR
 72
1
 73
2
 11
5.233644859813084
 21
-0.23333333333333328
 31
0.0
  0
INSERT
  8
DIMENSIONS
  2
DIMTICK_ARROW
 10
0.0
 20
-0.5333333333333333
 30
0.0
 41
1.0
 42
1.0
 50
0.0
  0
INSERT
  8
DIMENSIONS
  2
DIMTICK_ARROW
 10
10.467289719626168
 20
-0.5333333333333333
 30
0.0
 41
1.0
 42
1.0
 50
180.0
  0
LINE
 62
7
  8
DIMENSIONS
 10
0.0
 20
-0.5333333333333333
 30
0.0
 11
10.467289719626168
 21
-0.5333333333333333
 31
0.0
  0
LINE
 62
5
  8
DIMENSIONS
 10
0.0
 20
-0.5333333333333333
 30
0.0
 11
0.0
 21
0.0
 31
0.0
  0
LINE
 62
5
  8
DIMENSIONS
 10
10.467289719626168
 20
-0.5333333333333333
 30
0.0
 11
10.467289719626168
 21
0.0
 31
0.0
  0
TEXT
 62
7
  8
DIMENSIONS
 10
5.233644859813084
 20
-0.23333333333333328
 30
0.0
 40
0.2
  1
10
 50
-0.0
  7
ISOCPEUR
 72
1
 73
2
 11
5.233644859813084
 21
-0.23333333333333328
 31
0.0
  0
INSERT
  8
DIMENSIONS
  2
DIMTICK_ARROW
 10
0.0
 20
-0.5333333333333333
 30
0.0
 41
1.0
 42
1.0
 50
0.0
  0
INSERT
  8
DIMENSIONS
  2
DIMTICK_ARROW
 10
10.467289719626168
 20
-0.5333333333333333
 30
0.0
 41
1.0
 42
1.0
 50
180.0
  0
LINE
 62
7
  8
DIMENSIONS
 10
0.0
 20
-0.5333333333333333
 30
0.0
 11
10.467289719626168
 21
-0.5333333333333333
 31
0.0
  0
LINE
 62
5
  8
DIMENSIONS
 10
0.0
 20
-0.5333333333333333
 30
0.0
 11
0.0
 21
0.0
 31
0.0
  0
LINE
 62
5
  8
DIMENSIONS
 10
10.467289719626168
 20
-0.5333333333333333
 30
0.0
 11
10.467289719626168
 21
0.0
 31
0.0
  0
TEXT
 62
7
  8
DIMENSIONS
 10
5.233644859813084
 20
-0.23333333333333328
 30
0.0
 40
0.2
  1
10
 50
-0.0
  7
ISOCPEUR
 72
1
 73
2
 11
5.233644859813084
 21
-0.23333333333333328
 31
0.0
  0
INSERT
  8
DIMENSIONS
  2
DIMTICK_ARROW
 10
0.0
 20
-0.5333333333333333
 30
0.0
 41
1.0
 42
1.0
 50
0.0
  0
INSERT
  8
DIMENSIONS
  2
DIMTICK_ARROW
 10
10.467289719626168
 20
-0.5333333333333333
 30
0.0
 41
1.0
 42
1.0
 50
180.0
  0
LINE
 62
7
  8
DIMENSIONS
 10
0.0
 20
-0.5333333333333333
 30
0.0
 11
10.467289719626168
 21
-0.5333333333333333
 31
0.0
  0
LINE
 62
5
  8
DIMENSIONS
 10
0.0
 20
-0.5333333333333333
 30
0.0
 11
0.0
 21
0.0
 31
0.0
  0
LINE
 62
5
  8
DIMENSIONS
 10
10.467289719626168
 20
-0.5333333333333333
 30
0.0
 11
10.467289719626168
 21
0.0
 31
0.0
  0
TEXT
 62
7
  8
DIMENSIONS
 10
5.233644859813084
 20
-0.23333333333333328
 30
0.0
 40
0.2
  1
10
 50
-0.0
  7
ISOCPEUR
 72
1
 73
2
 11
5.233644859813084
 21
-0.23333333333333328
 31
0.0
  0
INSERT
  8
DIMENSIONS
  2
DIMTICK_ARROW
 10
0.0
 20
-0.5333333333333333
 30
0.0
 41
1.0
 42
1.0
 50
0.0
  0
INSERT
  8
DIMENSIONS
  2
DIMTICK_ARROW
 10
10.467289719626168
 20
-0.5333333333333333
 30
0.0
 41
1.0
 42
1.0
 50
180.0
  0
LINE
 62
7
  8
DIMENSIONS
 10
0.0
 20
-0.5333333333333333
 30
0.0
 11
10.467289719626168
 21
-0.5333333333333333
 31
0.0
  0
LINE
 62
5
  8
DIMENSIONS
 10
0.0
 20
-0.5333333333333333
 30
0.0
 11
0.0
 21
0.0
 31
0.0
  0
LINE
 62
5
  8
DIMENSIONS
 10
10.467289719626168
 20
-0.5333333333333333
 30
0.0
 11
10.467289719626168
 21
0.0
 31
0.0
  0
TEXT
 62
7
  8
DIMENSIONS
 10
5.233644859813084
 20
-0.23333333333333328
 30
0.0
 40
0.2
  1
10
 50
-0.0
  7
ISOCPEUR
 72
1
 73
2
 11
5.233644859813084
 21
-0.23333333333333328
 31
0.0
  0
INSERT
  8
DIMENSIONS
  2
DIMTICK_ARROW
 10
0.0
 20
-0.5333333333333333
 30
0.0
 41
1.0
 42
1.0
 50
0.0
  0
INSERT
  8
DIMENSIONS
  2
DIMTICK_ARROW
 10
10.467289719626168
 20
-0.5333333333333333
 30
0.0
 41
1.0
 42
1.0
 50
180.0
  0
LINE
 62
7
  8
DIMENSIONS
 10
0.0
 20
-0.5333333333333333
 30
0.0
 11
10.467289719626168
 21
-0.5333333333333333
 31
0.0
  0
LINE
 62
5
  8
DIMENSIONS
 10
0.0
 20
-0.5333333333333333
 30
0.0
 11
0.0
 21
0.0
 31
0.0
  0
LINE
 62
5
  8
DIMENSIONS
 10
10.467289719626168
 20
-0.5333333333333333
 30
0.0
 11
10.467289719626168
 21
0.0
 31
0.0
  0
TEXT
 62
7
  8
DIMENSIONS
 10
5.233644859813084
 20
-0.23333333333333328
 30
0.0
 40
0.2
  1
10
 50
-0.0
  7
ISOCPEUR
 72
1
 73
2
 11
5.233644859813084
 21
-0.23333333333333328
 31
0.0
  0
INSERT
  8
DIMENSIONS
  2
DIMTICK_ARROW
 10
0.0
 20
-0.5333333333333333
 30
0.0
 41
1.0
 42
1.0
 50
0.0
  0
INSERT
  8
DIMENSIONS
  2
DIMTICK_ARROW
 10
10.467289719626168
 20
-0.5333333333333333
 30
0.0
 41
1.0
 42
1.0
 50
180.0
  0
LINE
 62
7
  8
DIMENSIONS
 10
0.0
 20
-0.5333333333333333
 30
0.0
 11
10.467289719626168
 21
-0.5333333333333333
 31
0.0
  0
LINE
 62
5
  8
DIMENSIONS
 10
0.0
 20
-0.5333333333333333
 30
0.0
 11
0.0
 21
0.0
 31
0.0
  0
LINE
 62
5
  8
DIMENSIONS
 10
10.467289719626168
 20
-0.5333333333333333
 30
0.0
 11
10.467289719626168
 21
0.0
 31
0.0
  0
TEXT
 62
7
  8
DIMENSIONS
 10
5.233644859813084
 20
-0.23333333333333328
 30
0.0
 40
0.2
  1
10
 50
-0.0
  7
ISOCPEUR
 72
1
 73
2
 11
5.233644859813084
 21
-0.23333333333333328
 31
0.0
  0
INSERT
  8
DIMENSIONS
  2
DIMTICK_ARROW
 10
0.0
 20
-0.5333333333333333
 30
0.0
 41
1.0
 42
1.0
 50
0.0
  0
INSERT
  8
DIMENSIONS
  2
DIMTICK_ARROW
 10
10.467289719626168
 20
-0.5333333333333333
 30
0.0
 41
1.0
 42
1.0
 50
180.0
  0
LINE
 62
7
  8
DIMENSIONS
 10
0.0
 20
-0.5333333333333333
 30
0.0
 11
10.467289719626168
 21
-0.5333333333333333
 31
0.0
  0
LINE
 62
5
  8
DIMENSIONS
 10
0.0
 20
-0.5333333333333333
 30
0.0
 11
0.0
 21
0.0
 31
0.0
  0
LINE
 62
5
  8
DIMENSIONS
 10
10.467289719626168
 20
-0.5333333333333333
 30
0.0
 11
10.467289719626168
 21
0.0
 31
0.0
  0
TEXT
 62
7
  8
DIMENSIONS
 10
5.233644859813084
 20
-0.23333333333333328
 30
0.0
 40
0.2
  1
10
 50
-0.0
  7
ISOCPEUR
 72
1
 73
2
 11
5.233644859813084
 21
-0.23333333333333328
 31
0.0
  0
INSERT
  8
DIMENSIONS
  2
DIMTICK_ARROW
 10
0.0
 20
-0.5333333333333333
 30
0.0
 41
1.0
 42
1.0
 50
0.0
  0
INSERT
  8
DIMENSIONS
  2
DIMTICK_ARROW
 10
10.467289719626168
 20
-0.5333333333333333
 30
0.0
 41
1.0
 42
1.0
 50
180.0
  0
LINE
 62
7
  8
DIMENSIONS
 10
0.0
 20
-0.5333333333333333
 30
0.0
 11
10.467289719626168
 21
-0.5333333333333333
 31
0.0
  0
LINE
 62
5
  8
DIMENSIONS
 10
0.0
 20
-0.5333333333333333
 30
0.0
 11
0.0
 21
0.0
 31
0.0
  0
LINE
 62
5
  8
DIMENSIONS
 10
10.467289719626168
 20
-0.5333333333333333
 30
0.0
 11
10.467289719626168
 21
0.0
 31
0.0
  0
TEXT
 62
7
  8
DIMENSIONS
 10
5.233644859813084
 20
-0.23333333333333328
 30
0.0
 40
0.2
  1
10
 50
-0.0
  7
ISOCPEUR
 72
1
 73
2
 11
5.233644859813084
 21
-0.23333333333333328
 31
0.0
  0
INSERT
  8
DIMENSIONS
  2
DIMTICK_ARROW
 10
0.0
 20
-0.5333333333333333
 30
0.0
 41
1.0
 42
1.0
 50
0.0
  0
INSERT
  8
DIMENSIONS
  2
DIMTICK_ARROW
 10
10.467289719626168
 20
-0.5333333333333333
 30
0.0
 41
1.0
 42
1.0
 50
180.0
  0
LINE
 62
7
  8
DIMENSIONS
 10
0.0
 20
-0.5333333333333333
 30
0.0
 11
10.467289719626168
 21
-0.5333333333333333
 31
0.0
  0
LINE
 62
5
  8
DIMENSIONS
 10
0.0
 20
-0.5333333333333333
 30
0.0
 11
0.0
 21
0.0
 31
0.0
  0
LINE
 62
5
  8
DIMENSIONS
 10
10.467289719626168
 20
-0.5333333333333333
 30
0.0
 11
10.467289719626168
 21
0.0
 31
0.0
  0
TEXT
 62
7
  8
DIMENSIONS
 10
5.233644859813084
 20
-0.23333333333333328
 30
0.0
 40
0.2
  1
10
 50
-0.0
  7
ISOCPEUR
 72
1
 73
2
 11
5.233644859813084
 21
-0.23333333333333328
 31
0.0
  0
INSERT
  8
DIMENSIONS
  2
DIMTICK_ARROW
 10
0.0
 20
-0.5333333333333333
 30
0.0
 41
1.0
 42
1.0
 50
0.0
  0
INSERT
  8
DIMENSIONS
  2
DIMTICK_ARROW
 10
10.467289719626168
 20
-0.5333333333333333
 30
0.0
 41
1.0
 42
1.0
 50
180.0
  0
LINE
 62
7
  8
DIMENSIONS
 10
0.0
 20
-0.5333333333333333
 30
0.0
 11
10.467289719626168
 21
-0.5333333333333333
 31
0.0
  0
LINE
 62
5
  8
DIMENSIONS
 10
0.0
 20
-0.5333333333333333
 30
0.0
 11
0.0
 21
0.0
 31
0.0
  0
LINE
 62
5
  8
DIMENSIONS
 10
10.467289719626168
 20
-0.5333333333333333
 30
0.0
 11
10.467289719626168
 21
0.0
 31
0.0
  0
TEXT
 62
7
  8
DIMENSIONS
 10
5.233644859813084
 20
-0.23333333333333328
 30
0.0
 40
0.2
  1
10
 50
-0.0
  7
ISOCPEUR
 72
1
 73
2
 11
5.233644859813084
 21
-0.23333333333333328
 31
0.0
  0
INSERT
  8
DIMENSIONS
  2
DIMTICK_ARROW
 10
0.0
 20
-0.5333333333333333
 30
0.0
 41
1.0
 42
1.0
 50
0.0
  0
INSERT
  8
DIMENSIONS
  2
DIMTICK_ARROW
 10
10.467289719626168
 20
-0.5333333333333333
 30
0.0
 41
1.0
 42
1.0
 50
180.0
  0
LINE
 62
7
  8
DIMENSIONS
 10
0.0
 20
-0.5333333333333333
 30
0.0
 11
10.467289719626168
 21
-0.5333333333333333
 31
0.0
  0
LINE
 62
5
  8
DIMENSIONS
 10
0.0
 20
-0.5333333333333333
 30
0.0
 11
0.0
 21
0.0
 31
0.0
  0
LINE
 62
5
  8
DIMENSIONS
 10
10.467289719626168
 20
-0.5333333333333333
 30
0.0
 11
10.467289719626168
 21
0.0
 31
0.0
  0
TEXT
 62
7
  8
DIMENSIONS
 10
5.233644859813084
 20
-0.23333333333333328
 30
0.0
 40
0.2
  1
10
 50
-0.0
  7
ISOCPEUR
 72
1
 73
2
 11
5.233644859813084
 21
-0.23333333333333328
 31
0.0
  0
INSERT
  8
DIMENSIONS
  2
DIMTICK_ARROW
 10
0.0
 20
-0.5333333333333333
 30
0.0
 41
1.0
 42
1.0
 50
0.0
  0
INSERT
  8
DIMENSIONS
  2
DIMTICK_ARROW
 10
10.467289719626168
 20
-0.5333333333333333
 30
0.0
 41
1.0
 42
1.0
 50
180.0
  0
LINE
 62
7
  8
DIMENSIONS
 10
0.0
 20
-0.5333333333333333
 30
0.0
 11
10.467289719626168
 21
-0.5333333333333333
 31
0.0
  0
LINE
 62
5
  8
DIMENSIONS
 10
0.0
 20
-0.5333333333333333
 30
0.0
 11
0.0
 21
0.0
 31
0.0
  0
LINE
 62
5
  8
DIMENSIONS
 10
10.467289719626168
 20
-0.5333333333333333
 30
0.0
 11
10.467289719626168
 21
0.0
 31
0.0
  0
TEXT
 62
7
  8
DIMENSIONS
 10
5.233644859813084
 20
-0.23333333333333328
 30
0.0
 40
0.2
  1
10
 50
-0.0
  7
ISOCPEUR
 72
1
 73
2
 11
5.233644859813084
 21
-0.23333333333333328
 31
0.0
  0
INSERT
  8
DIMENSIONS
  2
DIMTICK_ARROW
 10
0.0
 20
-0.5333333333333333
 30
0.0
 41
1.0
 42
1.0
 50
0.0
  0
INSERT
  8
DIMENSIONS
  2
DIMTICK_ARROW
 10
10.467289719626168
 20
-0.5333333333333333
 30
0.0
 41
1.0
 42
1.0
 50
180.0
  0
LINE
 62
7
  8
DIMENSIONS
 10
0.0
 20
-0.5333333333333333
 30
0.0
 11
10.467289719626168
 21
-0.5333333333333333
 31
0.0
  0
LINE
 62
5
  8
DIMENSIONS
 10
0.0
 20
-0.5333333333333333
 30
0.0
 11
0.0
 21
0.0
 31
0.0
  0
LINE
 62
5
  8
DIMENSIONS
 10
10.467289719626168
 20
-0.5333333333333333
 30
0.0
 11
10.467289719626168
 21
0.0
 31
0.0
  0
TEXT
 62
7
  8
DIMENSIONS
 10
5.233644859813084
 20
-0.23333333333333328
 30
0.0
 40
0.2
  1
10
 50
-0.0
  7
ISOCPEUR
 72
1
 73
2
 11
5.233644859813084
 21
-0.23333333333333328
 31
0.0
  0
INSERT
  8
DIMENSIONS
  2
DIMTICK_ARROW
 10
0.0
 20
-0.5333333333333333
 30
0.0
 41
1.0
 42
1.0
 50
0.0
  0
INSERT
  8
DIMENSIONS
  2
DIMTICK_ARROW
 10
10.467289719626168
 20
-0.5333333333333333
 30
0.0
 41
1.0
 42
1.0
 50
180.0
  0
LINE
 62
3
  8
0
 10
10.467289719626168
 20
10.401869158878505
 30
0.0
 11
10.467289719626168
 21
13.345794392523365
 31
0.0
  0
LINE
 62
7
  8
DIMENSIONS
 10
10.617289719626168
 20
10.401869158878505
 30
0.0
 11
10.617289719626168
 21
13.345794392523365
 31
0.0
  0
LINE
 62
5
  8
DIMENSIONS
 10
10.617289719626168
 20
10.401869158878505
 30
0.0
 11
10.467289719626168
 21
10.401869158878505
 31
0.0
  0
LINE
 62
5
  8
DIMENSIONS
 10
10.617289719626168
 20
13.345794392523365
 30
0.0
 11
10.467289719626168
 21
13.345794392523365
 31
0.0
  0
TEXT
 62
7
  8
DIMENSIONS
 10
10.317289719626167
 20
11.873831775700936
 30
0.0
 40
0.2
  1
3
 50
90.0
  7
ISOCPEUR
 72
1
 73
2
 11
10.317289719626167
 21
11.873831775700936
 31
0.0
  0
INSERT
  8
DIMENSIONS
  2
DIMTICK_ARROW
 10
10.617289719626168
 20
10.401869158878505
 30
0.0
 41
1.0
 42
1.0
 50
90.0
  0
INSERT
  8
DIMENSIONS
  2
DIMTICK_ARROW
 10
10.617289719626168
 20
13.345794392523365
 30
0.0
 41
1.0
 42
1.0
 50
270.0
  0
LINE
 62
7
  8
DIMENSIONS
 10
10.617289719626168
 20
10.401869158878505
 30
0.0
 11
10.617289719626168
 21
13.345794392523365
 31
0.0
  0
LINE
 62
5
  8
DIMENSIONS
 10
10.617289719626168
 20
10.401869158878505
 30
0.0
 11
10.467289719626168
 21
10.401869158878505
 31
0.0
  0
LINE
 62
5
  8
DIMENSIONS
 10
10.617289719626168
 20
13.345794392523365
 30
0.0
 11
10.467289719626168
 21
13.345794392523365
 31
0.0
  0
TEXT
 62
7
  8
DIMENSIONS
 10
10.317289719626167
 20
11.873831775700936
 30
0.0
 40
0.2
  1
3
 50
90.0
  7
ISOCPEUR
 72
1
 73
2
 11
10.317289719626167
 21
11.873831775700936
 31
0.0
  0
INSERT
  8
DIMENSIONS
  2
DIMTICK_ARROW
 10
10.617289719626168
 20
10.401869158878505
 30
0.0
 41
1.0
 42
1.0
 50
90.0
  0
INSERT
  8
DIMENSIONS
  2
DIMTICK_ARROW
 10
10.617289719626168
 20
13.345794392523365
 30
0.0
 41
1.0
 42
1.0
 50
270.0
  0
LINE
 62
7
  8
DIMENSIONS
 10
10.617289719626168
 20
10.401869158878505
 30
0.0
 11
10.617289719626168
 21
13.345794392523365
 31
0.0
  0
LINE
 62
5
  8
DIMENSIONS
 10
10.617289719626168
 20
10.401869158878505
 30
0.0
 11
10.467289719626168
 21
10.401869158878505
 31
0.0
  0
LINE
 62
5
  8
DIMENSIONS
 10
10.617289719626168
 20
13.345794392523365
 30
0.0
 11
10.467289719626168
 21
13.345794392523365
 31
0.0
  0
TEXT
 62
7
  8
DIMENSIONS
 10
10.317289719626167
 20
11.873831775700936
 30
0.0
 40
0.2
  1
3
 50
90.0
  7
ISOCPEUR
 72
1
 73
2
 11
10.317289719626167
 21
11.873831775700936
 31
0.0
  0
INSERT
  8
DIMENSIONS
  2
DIMTICK_ARROW
 10
10.617289719626168
 20
10.401869158878505
 30
0.0
 41
1.0
 42
1.0
 50
90.0
  0
INSERT
  8
DIMENSIONS
  2
DIMTICK_ARROW
 10
10.617289719626168
 20
13.345794392523365
 30
0.0
 41
1.0
 42
1.0
 50
270.0
  0
LINE
 62
7
  8
DIMENSIONS
 10
10.617289719626168
 20
10.401869158878505
 30
0.0
 11
10.617289719626168
 21
13.345794392523365
 31
0.0
  0
LINE
 62
5
  8
DIMENSIONS
 10
10.617289719626168
 20
10.401869158878505
 30
0.0
 11
10.467289719626168
 21
10.401869158878505
 31
0.0
  0
LINE
 62
5
  8
DIMENSIONS
 10
10.617289719626168
 20
13.345794392523365
 30
0.0
 11
10.467289719626168
 21
13.345794392523365
 31
0.0
  0
TEXT
 62
7
  8
DIMENSIONS
 10
10.317289719626167
 20
11.873831775700936
 30
0.0
 40
0.2
  1
3
 50
90.0
  7
ISOCPEUR
 72
1
 73
2
 11
10.317289719626167
 21
11.873831775700936
 31
0.0
  0
INSERT
  8
DIMENSIONS
  2
DIMTICK_ARROW
 10
10.617289719626168
 20
10.401869158878505
 30
0.0
 41
1.0
 42
1.0
 50
90.0
  0
INSERT
  8
DIMENSIONS
  2
DIMTICK_ARROW
 10
10.617289719626168
 20
13.345794392523365
 30
0.0
 41
1.0
 42
1.0
 50
270.0
  0
LINE
 62
7
  8
DIMENSIONS
 10
10.617289719626168
 20
10.401869158878505
 30
0.0
 11
10.617289719626168
 21
13.345794392523365
 31
0.0
  0
LINE
 62
5
  8
DIMENSIONS
 10
10.617289719626168
 20
10.401869158878505
 30
0.0
 11
10.467289719626168
 21
10.401869158878505
 31
0.0
  0
LINE
 62
5
  8
DIMENSIONS
 10
10.617289719626168
 20
13.345794392523365
 30
0.0
 11
10.467289719626168
 21
13.345794392523365
 31
0.0
  0
TEXT
 62
7
  8
DIMENSIONS
 10
10.317289719626167
 20
11.873831775700936
 30
0.0
 40
0.2
  1
3
 50
90.0
  7
ISOCPEUR
 72
1
 73
2
 11
10.317289719626167
 21
11.873831775700936
 31
0.0
  0
INSERT
  8
DIMENSIONS
  2
DIMTICK_ARROW
 10
10.617289719626168
 20
10.401869158878505
 30
0.0
 41
1.0
 42
1.0
 50
90.0
  0
INSERT
  8
DIMENSIONS
  2
DIMTICK_ARROW
 10
10.617289719626168
 20
13.345794392523365
 30
0.0
 41
1.0
 42
1.0
 50
270.0
  0
LINE
 62
7
  8
DIMENSIONS
 10
10.617289719626168
 20
10.401869158878505
 30
0.0
 11
10.617289719626168
 21
13.345794392523365
 31
0.0
  0
LINE
 62
5
  8
DIMENSIONS
 10
10.617289719626168
 20
10.401869158878505
 30
0.0
 11
10.467289719626168
 21
10.401869158878505
 31
0.0
  0
LINE
 62
5
  8
DIMENSIONS
 10
10.617289719626168
 20
13.345794392523365
 30
0.0
 11
10.467289719626168
 21
13.345794392523365
 31
0.0
  0
TEXT
 62
7
  8
DIMENSIONS
 10
10.317289719626167
 20
11.873831775700936
 30
0.0
 40
0.2
  1
3
 50
90.0
  7
ISOCPEUR
 72
1
 73
2
 11
10.317289719626167
 21
11.873831775700936
 31
0.0
  0
INSERT
  8
DIMENSIONS
  2
DIMTICK_ARROW
 10
10.617289719626168
 20
10.401869158878505
 30
0.0
 41
1.0
 42
1.0
 50
90.0
  0
INSERT
  8
DIMENSIONS
  2
DIMTICK_ARROW
 10
10.617289719626168
 20
13.345794392523365
 30
0.0
 41
1.0
 42
1.0
 50
270.0
  0
LINE
 62
7
  8
DIMENSIONS
 10
10.617289719626168
 20
10.401869158878505
 30
0.0
 11
10.617289719626168
 21
13.345794392523365
 31
0.0
  0
LINE
 62
5
  8
DIMENSIONS
 10
10.617289719626168
 20
10.401869158878505
 30
0.0
 11
10.467289719626168
 21
10.401869158878505
 31
0.0
  0
LINE
 62
5
  8
DIMENSIONS
 10
10.617289719626168
 20
13.345794392523365
 30
0.0
 11
10.467289719626168
 21
13.345794392523365
 31
0.0
  0
TEXT
 62
7
  8
DIMENSIONS
 10
10.317289719626167
 20
11.873831775700936
 30
0.0
 40
0.2
  1
3
 50
90.0
  7
ISOCPEUR
 72
1
 73
2
 11
10.317289719626167
 21
11.873831775700936
 31
0.0
  0
INSERT
  8
DIMENSIONS
  2
DIMTICK_ARROW
 10
10.617289719626168
 20
10.401869158878505
 30
0.0
 41
1.0
 42
1.0
 50
90.0
  0
INSERT
  8
DIMENSIONS
  2
DIMTICK_ARROW
 10
10.617289719626168
 20
13.345794392523365
 30
0.0
 41
1.0
 42
1.0
 50
270.0
  0
LINE
 62
7
  8
DIMENSIONS
 10
10.617289719626168
 20
10.401869158878505
 30
0.0
 11
10.617289719626168
 21
13.345794392523365
 31
0.0
  0
LINE
 62
5
  8
DIMENSIONS
 10
10.617289719626168
 20
10.401869158878505
 30
0.0
 11
10.467289719626168
 21
10.401869158878505
 31
0.0
  0
LINE
 62
5
  8
DIMENSIONS
 10
10.617289719626168
 20
13.345794392523365
 30
0.0
 11
10.467289719626168
 21
13.345794392523365
 31
0.0
  0
TEXT
 62
7
  8
DIMENSIONS
 10
10.317289719626167
 20
11.873831775700936
 30
0.0
 40
0.2
  1
3
 50
90.0
  7
ISOCPEUR
 72
1
 73
2
 11
10.317289719626167
 21
11.873831775700936
 31
0.0
  0
INSERT
  8
DIMENSIONS
  2
DIMTICK_ARROW
 10
10.617289719626168
 20
10.401869158878505
 30
0.0
 41
1.0
 42
1.0
 50
90.0
  0
INSERT
  8
DIMENSIONS
  2
DIMTICK_ARROW
 10
10.617289719626168
 20
13.345794392523365
 30
0.0
 41
1.0
 42
1.0
 50
270.0
  0
LINE
 62
7
  8
DIMENSIONS
 10
10.617289719626168
 20
10.401869158878505
 30
0.0
 11
10.617289719626168
 21
13.345794392523365
 31
0.0
  0
LINE
 62
5
  8
DIMENSIONS
 10
10.617289719626168
 20
10.401869158878505
 30
0.0
 11
10.467289719626168
 21
10.401869158878505
 31
0.0
  0
LINE
 62
5
  8
DIMENSIONS
 10
10.617289719626168
 20
13.345794392523365
 30
0.0
 11
10.467289719626168
 21
13.345794392523365
 31
0.0
  0
TEXT
 62
7
  8
DIMENSIONS
 10
10.317289719626167
 20
11.873831775700936
 30
0.0
 40
0.2
  1
3
 50
90.0
  7
ISOCPEUR
 72
1
 73
2
 11
10.317289719626167
 21
11.873831775700936
 31
0.0
  0
INSERT
  8
DIMENSIONS
  2
DIMTICK_ARROW
 10
10.617289719626168
 20
10.401869158878505
 30
0.0
 41
1.0
 42
1.0
 50
90.0
  0
INSERT
  8
DIMENSIONS
  2
DIMTICK_ARROW
 10
10.617289719626168
 20
13.345794392523365
 30
0.0
 41
1.0
 42
1.0
 50
270.0
  0
LINE
 62
7
  8
DIMENSIONS
 10
10.617289719626168
 20
10.401869158878505
 30
0.0
 11
10.617289719626168
 21
13.345794392523365
 31
0.0
  0
LINE
 62
5
  8
DIMENSIONS
 10
10.617289719626168
 20
10.401869158878505
 30
0.0
 11
10.467289719626168
 21
10.401869158878505
 31
0.0
  0
LINE
 62
5
  8
DIMENSIONS
 10
10.617289719626168
 20
13.345794392523365
 30
0.0
 11
10.467289719626168
 21
13.345794392523365
 31
0.0
  0
TEXT
 62
7
  8
DIMENSIONS
 10
10.317289719626167
 20
11.873831775700936
 30
0.0
 40
0.2
  1
3
 50
90.0
  7
ISOCPEUR
 72
1
 73
2
 11
10.317289719626167
 21
11.873831775700936
 31
0.0
  0
INSERT
  8
DIMENSIONS
  2
DIMTICK_ARROW
 10
10.617289719626168
 20
10.401869158878505
 30
0.0
 41
1.0
 42
1.0
 50
90.0
  0
INSERT
  8
DIMENSIONS
  2
DIMTICK_ARROW
 10
10.617289719626168
 20
13.345794392523365
 30
0.0
 41
1.0
 42
1.0
 50
270.0
  0
LINE
 62
7
  8
DIMENSIONS
 10
10.617289719626168
 20
10.401869158878505
 30
0.0
 11
10.617289719626168
 21
13.345794392523365
 31
0.0
  0
LINE
 62
5
  8
DIMENSIONS
 10
10.617289719626168
 20
10.401869158878505
 30
0.0
 11
10.467289719626168
 21
10.401869158878505
 31
0.0
  0
LINE
 62
5
  8
DIMENSIONS
 10
10.617289719626168
 20
13.345794392523365
 30
0.0
 11
10.467289719626168
 21
13.345794392523365
 31
0.0
  0
TEXT
 62
7
  8
DIMENSIONS
 10
10.317289719626167
 20
11.873831775700936
 30
0.0
 40
0.2
  1
3
 50
90.0
  7
ISOCPEUR
 72
1
 73
2
 11
10.317289719626167
 21
11.873831775700936
 31
0.0
  0
INSERT
  8
DIMENSIONS
  2
DIMTICK_ARROW
 10
10.617289719626168
 20
10.401869158878505
 30
0.0
 41
1.0
 42
1.0
 50
90.0
  0
INSERT
  8
DIMENSIONS
  2
DIMTICK_ARROW
 10
10.617289719626168
 20
13.345794392523365
 30
0.0
 41
1.0
 42
1.0
 50
270.0
  0
LINE
 62
7
  8
DIMENSIONS
 10
10.617289719626168
 20
10.401869158878505
 30
0.0
 11
10.617289719626168
 21
13.345794392523365
 31
0.0
  0
LINE
 62
5
  8
DIMENSIONS
 10
10.617289719626168
 20
10.401869158878505
 30
0.0
 11
10.467289719626168
 21
10.401869158878505
 31
0.0
  0
LINE
 62
5
  8
DIMENSIONS
 10
10.617289719626168
 20
13.345794392523365
 30
0.0
 11
10.467289719626168
 21
13.345794392523365
 31
0.0
  0
TEXT
 62
7
  8
DIMENSIONS
 10
10.317289719626167
 20
11.873831775700936
 30
0.0
 40
0.2
  1
3
 50
90.0
  7
ISOCPEUR
 72
1
 73
2
 11
10.317289719626167
 21
11.873831775700936
 31
0.0
  0
INSERT
  8
DIMENSIONS
  2
DIMTICK_ARROW
 10
10.617289719626168
 20
10.401869158878505
 30
0.0
 41
1.0
 42
1.0
 50
90.0
  0
INSERT
  8
DIMENSIONS
  2
DIMTICK_ARROW
 10
10.617289719626168
 20
13.345794392523365
 30
0.0
 41
1.0
 42
1.0
 50
270.0
  0
LINE
 62
7
  8
DIMENSIONS
 10
10.617289719626168
 20
10.401869158878505
 30
0.0
 11
10.617289719626168
 21
13.345794392523365
 31
0.0
  0
LINE
 62
5
  8
DIMENSIONS
 10
10.617289719626168
 20
10.401869158878505
 30
0.0
 11
10.467289719626168
 21
10.401869158878505
 31
0.0
  0
LINE
 62
5
  8
DIMENSIONS
 10
10.617289719626168
 20
13.345794392523365
 30
0.0
 11
10.467289719626168
 21
13.345794392523365
 31
0.0
  0
TEXT
 62
7
  8
DIMENSIONS
 10
10.317289719626167
 20
11.873831775700936
 30
0.0
 40
0.2
  1
3
 50
90.0
  7
ISOCPEUR
 72
1
 73
2
 11
10.317289719626167
 21
11.873831775700936
 31
0.0
  0
INSERT
  8
DIMENSIONS
  2
DIMTICK_ARROW
 10
10.617289719626168
 20
10.401869158878505
 30
0.0
 41
1.0
 42
1.0
 50
90.0
  0
INSERT
  8
DIMENSIONS
  2
DIMTICK_ARROW
 10
10.617289719626168
 20
13.345794392523365
 30
0.0
 41
1.0
 42
1.0
 50
270.0
  0
LINE
 62
7
  8
DIMENSIONS
 10
10.617289719626168
 20
10.401869158878505
 30
0.0
 11
10.617289719626168
 21
13.345794392523365
 31
0.0
  0
LINE
 62
5
  8
DIMENSIONS
 10
10.617289719626168
 20
10.401869158878505
 30
0.0
 11
10.467289719626168
 21
10.401869158878505
 31
0.0
  0
LINE
 62
5
  8
DIMENSIONS
 10
10.617289719626168
 20
13.345794392523365
 30
0.0
 11
10.467289719626168
 21
13.345794392523365
 31
0.0
  0
TEXT
 62
7
  8
DIMENSIONS
 10
10.317289719626167
 20
11.873831775700936
 30
0.0
 40
0.2
  1
3
 50
90.0
  7
ISOCPEUR
 72
1
 73
2
 11
10.317289719626167
 21
11.873831775700936
 31
0.0
  0
INSERT
  8
DIMENSIONS
  2
DIMTICK_ARROW
 10
10.617289719626168
 20
10.401869158878505
 30
0.0
 41
1.0
 42
1.0
 50
90.0
  0
INSERT
  8
DIMENSIONS
  2
DIMTICK_ARROW
 10
10.617289719626168
 20
13.345794392523365
 30
0.0
 41
1.0
 42
1.0
 50
270.0
  0
LINE
 62
7
  8
DIMENSIONS
 10
10.617289719626168
 20
10.401869158878505
 30
0.0
 11
10.617289719626168
 21
13.345794392523365
 31
0.0
  0
LINE
 62
5
  8
DIMENSIONS
 10
10.617289719626168
 20
10.401869158878505
 30
0.0
 11
10.467289719626168
 21
10.401869158878505
 31
0.0
  0
LINE
 62
5
  8
DIMENSIONS
 10
10.617289719626168
 20
13.345794392523365
 30
0.0
 11
10.467289719626168
 21
13.345794392523365
 31
0.0
  0
TEXT
 62
7
  8
DIMENSIONS
 10
10.317289719626167
 20
11.873831775700936
 30
0.0
 40
0.2
  1
3
 50
90.0
  7
ISOCPEUR
 72
1
 73
2
 11
10.317289719626167
 21
11.873831775700936
 31
0.0
  0
INSERT
  8
DIMENSIONS
  2
DIMTICK_ARROW
 10
10.617289719626168
 20
10.401869158878505
 30
0.0
 41
1.0
 42
1.0
 50
90.0
  0
INSERT
  8
DIMENSIONS
  2
DIMTICK_ARROW
 10
10.617289719626168
 20
13.345794392523365
 30
0.0
 41
1.0
 42
1.0
 50
270.0
  0
LINE
 62
7
  8
DIMENSIONS
 10
10.617289719626168
 20
10.401869158878505
 30
0.0
 11
10.617289719626168
 21
13.345794392523365
 31
0.0
  0
LINE
 62
5
  8
DIMENSIONS
 10
10.617289719626168
 20
10.401869158878505
 30
0.0
 11
10.467289719626168
 21
10.401869158878505
 31
0.0
  0
LINE
 62
5
  8
DIMENSIONS
 10
10.617289719626168
 20
13.345794392523365
 30
0.0
 11
10.467289719626168
 21
13.345794392523365
 31
0.0
  0
TEXT
 62
7
  8
DIMENSIONS
 10
10.317289719626167
 20
11.873831775700936
 30
0.0
 40
0.2
  1
3
 50
90.0
  7
ISOCPEUR
 72
1
 73
2
 11
10.317289719626167
 21
11.873831775700936
 31
0.0
  0
INSERT
  8
DIMENSIONS
  2
DIMTICK_ARROW
 10
10.617289719626168
 20
10.401869158878505
 30
0.0
 41
1.0
 42
1.0
 50
90.0
  0
INSERT
  8
DIMENSIONS
  2
DIMTICK_ARROW
 10
10.617289719626168
 20
13.345794392523365
 30
0.0
 41
1.0
 42
1.0
 50
270.0
  0
LINE
 62
7
  8
DIMENSIONS
 10
10.617289719626168
 20
10.401869158878505
 30
0.0
 11
10.617289719626168
 21
13.345794392523365
 31
0.0
  0
LINE
 62
5
  8
DIMENSIONS
 10
10.617289719626168
 20
10.401869158878505
 30
0.0
 11
10.467289719626168
 21
10.401869158878505
 31
0.0
  0
LINE
 62
5
  8
DIMENSIONS
 10
10.617289719626168
 20
13.345794392523365
 30
0.0
 11
10.467289719626168
 21
13.345794392523365
 31
0.0
  0
TEXT
 62
7
  8
DIMENSIONS
 10
10.317289719626167
 20
11.873831775700936
 30
0.0
 40
0.2
  1
3
 50
90.0
  7
ISOCPEUR
 72
1
 73
2
 11
10.317289719626167
 21
11.873831775700936
 31
0.0
  0
INSERT
  8
DIMENSIONS
  2
DIMTICK_ARROW
 10
10.617289719626168
 20
10.401869158878505
 30
0.0
 41
1.0
 42
1.0
 50
90.0
  0
INSERT
  8
DIMENSIONS
  2
DIMTICK_ARROW
 10
10.617289719626168
 20
13.345794392523365
 30
0.0
 41
1.0
 42
1.0
 50
270.0
  0
LINE
 62
7
  8
DIMENSIONS
 10
10.617289719626168
 20
10.401869158878505
 30
0.0
 11
10.617289719626168
 21
13.345794392523365
 31
0.0
  0
LINE
 62
5
  8
DIMENSIONS
 10
10.617289719626168
 20
10.401869158878505
 30
0.0
 11
10.467289719626168
 21
10.401869158878505
 31
0.0
  0
LINE
 62
5
  8
DIMENSIONS
 10
10.617289719626168
 20
13.345794392523365
 30
0.0
 11
10.467289719626168
 21
13.345794392523365
 31
0.0
  0
TEXT
 62
7
  8
DIMENSIONS
 10
10.317289719626167
 20
11.873831775700936
 30
0.0
 40
0.2
  1
3
 50
90.0
  7
ISOCPEUR
 72
1
 73
2
 11
10.317289719626167
 21
11.873831775700936
 31
0.0
  0
INSERT
  8
DIMENSIONS
  2
DIMTICK_ARROW
 10
10.617289719626168
 20
10.401869158878505
 30
0.0
 41
1.0
 42
1.0
 50
90.0
  0
INSERT
  8
DIMENSIONS
  2
DIMTICK_ARROW
 10
10.617289719626168
 20
13.345794392523365
 30
0.0
 41
1.0
 42
1.0
 50
270.0
  0
LINE
 62
7
  8
DIMENSIONS
 10
10.617289719626168
 20
10.401869158878505
 30
0.0
 11
10.617289719626168
 21
13.345794392523365
 31
0.0
  0
LINE
 62
5
  8
DIMENSIONS
 10
10.617289719626168
 20
10.401869158878505
 30
0.0
 11
10.467289719626168
 21
10.401869158878505
 31
0.0
  0
LINE
 62
5
  8
DIMENSIONS
 10
10.617289719626168
 20
13.345794392523365
 30
0.0
 11
10.467289719626168
 21
13.345794392523365
 31
0.0
  0
TEXT
 62
7
  8
DIMENSIONS
 10
10.317289719626167
 20
11.873831775700936
 30
0.0
 40
0.2
  1
3
 50
90.0
  7
ISOCPEUR
 72
1
 73
2
 11
10.317289719626167
 21
11.873831775700936
 31
0.0
  0
INSERT
  8
DIMENSIONS
  2
DIMTICK_ARROW
 10
10.617289719626168
 20
10.401869158878505
 30
0.0
 41
1.0
 42
1.0
 50
90.0
  0
INSERT
  8
DIMENSIONS
  2
DIMTICK_ARROW
 10
10.617289719626168
 20
13.345794392523365
 30
0.0
 41
1.0
 42
1.0
 50
270.0
  0
LINE
 62
3
  8
0
 10
0.0
 20
10.401869158878505
 30
0.0
 11
0.0
 21
13.345794392523365
 31
0.0
  0
LINE
 62
3
  8
0
 10
10.467289719626168
 20
0.0
 30
0.0
 11
10.467289719626168
 21
3.336448598130841
 31
0.0
  0
LINE
 62
7
  8
DIMENSIONS
 10
10.637289719626168
 20
-5.755839955992565e-17
 30
0.0
 11
10.637289719626168
 21
3.336448598130841
 31
0.0
  0
LINE
 62
5
  8
DIMENSIONS
 10
10.637289719626168
 20
-5.755839955992565e-17
 30
0.0
 11
10.467289719626168
 21
-3.673940397442057e-17
 31
0.0
  0
LINE
 62
5
  8
DIMENSIONS
 10
10.637289719626168
 20
3.336448598130841
 30
0.0
 11
10.467289719626168
 21
3.336448598130841
 31
0.0
  0
TEXT
 62
7
  8
DIMENSIONS
 10
10.337289719626167
 20
1.6682242990654206
 30
0.0
 40
0.2
  1
3
 50
90.0
  7
ISOCPEUR
 72
1
 73
2
 11
10.337289719626167
 21
1.6682242990654206
 31
0.0
  0
INSERT
  8
DIMENSIONS
  2
DIMTICK_ARROW
 10
10.637289719626168
 20
-5.755839955992565e-17
 30
0.0
 41
1.0
 42
1.0
 50
90.0
  0
INSERT
  8
DIMENSIONS
  2
DIMTICK_ARROW
 10
10.637289719626168
 20
3.336448598130841
 30
0.0
 41
1.0
 42
1.0
 50
270.0
  0
LINE
 62
7
  8
DIMENSIONS
 10
10.637289719626168
 20
-5.755839955992565e-17
 30
0.0
 11
10.637289719626168
 21
3.336448598130841
 31
0.0
  0
LINE
 62
5
  8
DIMENSIONS
 10
10.637289719626168
 20
-5.755839955992565e-17
 30
0.0
 11
10.467289719626168
 21
-3.673940397442057e-17
 31
0.0
  0
LINE
 62
5
  8
DIMENSIONS
 10
10.637289719626168
 20
3.336448598130841
 30
0.0
 11
10.467289719626168
 21
3.336448598130841
 31
0.0
  0
TEXT
 62
7
  8
DIMENSIONS
 10
10.337289719626167
 20
1.6682242990654206
 30
0.0
 40
0.2
  1
3
 50
90.0
  7
ISOCPEUR
 72
1
 73
2
 11
10.337289719626167
 21
1.6682242990654206
 31
0.0
  0
INSERT
  8
DIMENSIONS
  2
DIMTICK_ARROW
 10
10.637289719626168
 20
-5.755839955992565e-17
 30
0.0
 41
1.0
 42
1.0
 50
90.0
  0
INSERT
  8
DIMENSIONS
  2
DIMTICK_ARROW
 10
10.637289719626168
 20
3.336448598130841
 30
0.0
 41
1.0
 42
1.0
 50
270.0
  0
LINE
 62
7
  8
DIMENSIONS
 10
10.637289719626168
 20
-5.755839955992565e-17
 30
0.0
 11
10.637289719626168
 21
3.336448598130841
 31
0.0
  0
LINE
 62
5
  8
DIMENSIONS
 10
10.637289719626168
 20
-5.755839955992565e-17
 30
0.0
 11
10.467289719626168
 21
-3.673940397442057e-17
 31
0.0
  0
LINE
 62
5
  8
DIMENSIONS
 10
10.637289719626168
 20
3.336448598130841
 30
0.0
 11
10.467289719626168
 21
3.336448598130841
 31
0.0
  0
TEXT
 62
7
  8
DIMENSIONS
 10
10.337289719626167
 20
1.6682242990654206
 30
0.0
 40
0.2
  1
3
 50
90.0
  7
ISOCPEUR
 72
1
 73
2
 11
10.337289719626167
 21
1.6682242990654206
 31
0.0
  0
INSERT
  8
DIMENSIONS
  2
DIMTICK_ARROW
 10
10.637289719626168
 20
-5.755839955992565e-17
 30
0.0
 41
1.0
 42
1.0
 50
90.0
  0
INSERT
  8
DIMENSIONS
  2
DIMTICK_ARROW
 10
10.637289719626168
 20
3.336448598130841
 30
0.0
 41
1.0
 42
1.0
 50
270.0
  0
LINE
 62
7
  8
DIMENSIONS
 10
10.637289719626168
 20
-5.755839955992565e-17
 30
0.0
 11
10.637289719626168
 21
3.336448598130841
 31
0.0
  0
LINE
 62
5
  8
DIMENSIONS
 10
10.637289719626168
 20
-5.755839955992565e-17
 30
0.0
 11
10.467289719626168
 21
-3.673940397442057e-17
 31
0.0
  0
LINE
 62
5
  8
DIMENSIONS
 10
10.637289719626168
 20
3.336448598130841
 30
0.0
 11
10.467289719626168
 21
3.336448598130841
 31
0.0
  0
TEXT
 62
7
  8
DIMENSIONS
 10
10.337289719626167
 20
1.6682242990654206
 30
0.0
 40
0.2
  1
3
 50
90.0
  7
ISOCPEUR
 72
1
 73
2
 11
10.337289719626167
 21
1.6682242990654206
 31
0.0
  0
INSERT
  8
DIMENSIONS
  2
DIMTICK_ARROW
 10
10.637289719626168
 20
-5.755839955992565e-17
 30
0.0
 41
1.0
 42
1.0
 50
90.0
  0
INSERT
  8
DIMENSIONS
  2
DIMTICK_ARROW
 10
10.637289719626168
 20
3.336448598130841
 30
0.0
 41
1.0
 42
1.0
 50
270.0
  0
LINE
 62
7
  8
DIMENSIONS
 10
10.637289719626168
 20
-5.755839955992565e-17
 30
0.0
 11
10.637289719626168
 21
3.336448598130841
 31
0.0
  0
LINE
 62
5
  8
DIMENSIONS
 10
10.637289719626168
 20
-5.755839955992565e-17
 30
0.0
 11
10.467289719626168
 21
-3.673940397442057e-17
 31
0.0
  0
LINE
 62
5
  8
DIMENSIONS
 10
10.637289719626168
 20
3.336448598130841
 30
0.0
 11
10.467289719626168
 21
3.336448598130841
 31
0.0
  0
TEXT
 62
7
  8
DIMENSIONS
 10
10.337289719626167
 20
1.6682242990654206
 30
0.0
 40
0.2
  1
3
 50
90.0
  7
ISOCPEUR
 72
1
 73
2
 11
10.337289719626167
 21
1.6682242990654206
 31
0.0
  0
INSERT
  8
DIMENSIONS
  2
DIMTICK_ARROW
 10
10.637289719626168
 20
-5.755839955992565e-17
 30
0.0
 41
1.0
 42
1.0
 50
90.0
  0
INSERT
  8
DIMENSIONS
  2
DIMTICK_ARROW
 10
10.637289719626168
 20
3.336448598130841
 30
0.0
 41
1.0
 42
1.0
 50
270.0
  0
LINE
 62
7
  8
DIMENSIONS
 10
10.637289719626168
 20
-5.755839955992565e-17
 30
0.0
 11
10.637289719626168
 21
3.336448598130841
 31
0.0
  0
LINE
 62
5
  8
DIMENSIONS
 10
10.637289719626168
 20
-5.755839955992565e-17
 30
0.0
 11
10.467289719626168
 21
-3.673940397442057e-17
 31
0.0
  0
LINE
 62
5
  8
DIMENSIONS
 10
10.637289719626168
 20
3.336448598130841
 30
0.0
 11
10.467289719626168
 21
3.336448598130841
 31
0.0
  0
TEXT
 62
7
  8
DIMENSIONS
 10
10.337289719626167
 20
1.6682242990654206
 30
0.0
 40
0.2
  1
3
 50
90.0
  7
ISOCPEUR
 72
1
 73
2
 11
10.337289719626167
 21
1.6682242990654206
 31
0.0
  0
INSERT
  8
DIMENSIONS
  2
DIMTICK_ARROW
 10
10.637289719626168
 20
-5.755839955992565e-17
 30
0.0
 41
1.0
 42
1.0
 50
90.0
  0
INSERT
  8
DIMENSIONS
  2
DIMTICK_ARROW
 10
10.637289719626168
 20
3.336448598130841
 30
0.0
 41
1.0
 42
1.0
 50
270.0
  0
LINE
 62
7
  8
DIMENSIONS
 10
10.637289719626168
 20
-5.755839955992565e-17
 30
0.0
 11
10.637289719626168
 21
3.336448598130841
 31
0.0
  0
LINE
 62
5
  8
DIMENSIONS
 10
10.637289719626168
 20
-5.755839955992565e-17
 30
0.0
 11
10.467289719626168
 21
-3.673940397442057e-17
 31
0.0
  0
LINE
 62
5
  8
DIMENSIONS
 10
10.637289719626168
 20
3.336448598130841
 30
0.0
 11
10.467289719626168
 21
3.336448598130841
 31
0.0
  0
TEXT
 62
7
  8
DIMENSIONS
 10
10.337289719626167
 20
1.6682242990654206
 30
0.0
 40
0.2
  1
3
 50
90.0
  7
ISOCPEUR
 72
1
 73
2
 11
10.337289719626167
 21
1.6682242990654206
 31
0.0
  0
INSERT
  8
DIMENSIONS
  2
DIMTICK_ARROW
 10
10.637289719626168
 20
-5.755839955992565e-17
 30
0.0
 41
1.0
 42
1.0
 50
90.0
  0
INSERT
  8
DIMENSIONS
  2
DIMTICK_ARROW
 10
10.637289719626168
 20
3.336448598130841
 30
0.0
 41
1.0
 42
1.0
 50
270.0
  0
LINE
 62
7
  8
DIMENSIONS
 10
10.637289719626168
 20
-5.755839955992565e-17
 30
0.0
 11
10.637289719626168
 21
3.336448598130841
 31
0.0
  0
LINE
 62
5
  8
DIMENSIONS
 10
10.637289719626168
 20
-5.755839955992565e-17
 30
0.0
 11
10.467289719626168
 21
-3.673940397442057e-17
 31
0.0
  0
LINE
 62
5
  8
DIMENSIONS
 10
10.637289719626168
 20
3.336448598130841
 30
0.0
 11
10.467289719626168
 21
3.336448598130841
 31
0.0
  0
TEXT
 62
7
  8
DIMENSIONS
 10
10.337289719626167
 20
1.6682242990654206
 30
0.0
 40
0.2
  1
3
 50
90.0
  7
ISOCPEUR
 72
1
 73
2
 11
10.337289719626167
 21
1.6682242990654206
 31
0.0
  0
INSERT
  8
DIMENSIONS
  2
DIMTICK_ARROW
 10
10.637289719626168
 20
-5.755839955992565e-17
 30
0.0
 41
1.0
 42
1.0
 50
90.0
  0
INSERT
  8
DIMENSIONS
  2
DIMTICK_ARROW
 10
10.637289719626168
 20
3.336448598130841
 30
0.0
 41
1.0
 42
1.0
 50
270.0
  0
LINE
 62
7
  8
DIMENSIONS
 10
10.637289719626168
 20
-5.755839955992565e-17
 30
0.0
 11
10.637289719626168
 21
3.336448598130841
 31
0.0
  0
LINE
 62
5
  8
DIMENSIONS
 10
10.637289719626168
 20
-5.755839955992565e-17
 30
0.0
 11
10.467289719626168
 21
-3.673940397442057e-17
 31
0.0
  0
LINE
 62
5
  8
DIMENSIONS
 10
10.637289719626168
 20
3.336448598130841
 30
0.0
 11
10.467289719626168
 21
3.336448598130841
 31
0.0
  0
TEXT
 62
7
  8
DIMENSIONS
 10
10.337289719626167
 20
1.6682242990654206
 30
0.0
 40
0.2
  1
3
 50
90.0
  7
ISOCPEUR
 72
1
 73
2
 11
10.337289719626167
 21
1.6682242990654206
 31
0.0
  0
INSERT
  8
DIMENSIONS
  2
DIMTICK_ARROW
 10
10.637289719626168
 20
-5.755839955992565e-17
 30
0.0
 41
1.0
 42
1.0
 50
90.0
  0
INSERT
  8
DIMENSIONS
  2
DIMTICK_ARROW
 10
10.637289719626168
 20
3.336448598130841
 30
0.0
 41
1.0
 42
1.0
 50
270.0
  0
LINE
 62
7
  8
DIMENSIONS
 10
10.637289719626168
 20
-5.755839955992565e-17
 30
0.0
 11
10.637289719626168
 21
3.336448598130841
 31
0.0
  0
LINE
 62
5
  8
DIMENSIONS
 10
10.637289719626168
 20
-5.755839955992565e-17
 30
0.0
 11
10.467289719626168
 21
-3.673940397442057e-17
 31
0.0
  0
LINE
 62
5
  8
DIMENSIONS
 10
10.637289719626168
 20
3.336448598130841
 30
0.0
 11
10.467289719626168
 21
3.336448598130841
 31
0.0
  0
TEXT
 62
7
  8
DIMENSIONS
 10
10.337289719626167
 20
1.6682242990654206
 30
0.0
 40
0.2
  1
3
 50
90.0
  7
ISOCPEUR
 72
1
 73
2
 11
10.337289719626167
 21
1.6682242990654206
 31
0.0
  0
INSERT
  8
DIMENSIONS
  2
DIMTICK_ARROW
 10
10.637289719626168
 20
-5.755839955992565e-17
 30
0.0
 41
1.0
 42
1.0
 50
90.0
  0
INSERT
  8
DIMENSIONS
  2
DIMTICK_ARROW
 10
10.637289719626168
 20
3.336448598130841
 30
0.0
 41
1.0
 42
1.0
 50
270.0
  0
LINE
 62
7
  8
DIMENSIONS
 10
10.637289719626168
 20
-5.755839955992565e-17
 30
0.0
 11
10.637289719626168
 21
3.336448598130841
 31
0.0
  0
LINE
 62
5
  8
DIMENSIONS
 10
10.637289719626168
 20
-5.755839955992565e-17
 30
0.0
 11
10.467289719626168
 21
-3.673940397442057e-17
 31
0.0
  0
LINE
 62
5
  8
DIMENSIONS
 10
10.637289719626168
 20
3.336448598130841
 30
0.0
 11
10.467289719626168
 21
3.336448598130841
 31
0.0
  0
TEXT
 62
7
  8
DIMENSIONS
 10
10.337289719626167
 20
1.6682242990654206
 30
0.0
 40
0.2
  1
3
 50
90.0
  7
ISOCPEUR
 72
1
 73
2
 11
10.337289719626167
 21
1.6682242990654206
 31
0.0
  0
INSERT
  8
DIMENSIONS
  2
DIMTICK_ARROW
 10
10.637289719626168
 20
-5.755839955992565e-17
 30
0.0
 41
1.0
 42
1.0
 50
90.0
  0
INSERT
  8
DIMENSIONS
  2
DIMTICK_ARROW
 10
10.637289719626168
 20
3.336448598130841
 30
0.0
 41
1.0
 42
1.0
 50
270.0
  0
LINE
 62
7
  8
DIMENSIONS
 10
10.637289719626168
 20
-5.755839955992565e-17
 30
0.0
 11
10.637289719626168
 21
3.336448598130841
 31
0.0
  0
LINE
 62
5
  8
DIMENSIONS
 10
10.637289719626168
 20
-5.755839955992565e-17
 30
0.0
 11
10.467289719626168
 21
-3.673940397442057e-17
 31
0.0
  0
LINE
 62
5
  8
DIMENSIONS
 10
10.637289719626168
 20
3.336448598130841
 30
0.0
 11
10.467289719626168
 21
3.336448598130841
 31
0.0
  0
TEXT
 62
7
  8
DIMENSIONS
 10
10.337289719626167
 20
1.6682242990654206
 30
0.0
 40
0.2
  1
3
 50
90.0
  7
ISOCPEUR
 72
1
 73
2
 11
10.337289719626167
 21
1.6682242990654206
 31
0.0
  0
INSERT
  8
DIMENSIONS
  2
DIMTICK_ARROW
 10
10.637289719626168
 20
-5.755839955992565e-17
 30
0.0
 41
1.0
 42
1.0
 50
90.0
  0
INSERT
  8
DIMENSIONS
  2
DIMTICK_ARROW
 10
10.637289719626168
 20
3.336448598130841
 30
0.0
 41
1.0
 42
1.0
 50
270.0
  0
LINE
 62
7
  8
DIMENSIONS
 10
10.637289719626168
 20
-5.755839955992565e-17
 30
0.0
 11
10.637289719626168
 21
3.336448598130841
 31
0.0
  0
LINE
 62
5
  8
DIMENSIONS
 10
10.637289719626168
 20
-5.755839955992565e-17
 30
0.0
 11
10.467289719626168
 21
-3.673940397442057e-17
 31
0.0
  0
LINE
 62
5
  8
DIMENSIONS
 10
10.637289719626168
 20
3.336448598130841
 30
0.0
 11
10.467289719626168
 21
3.336448598130841
 31
0.0
  0
TEXT
 62
7
  8
DIMENSIONS
 10
10.337289719626167
 20
1.6682242990654206
 30
0.0
 40
0.2
  1
3
 50
90.0
  7
ISOCPEUR
 72
1
 73
2
 11
10.337289719626167
 21
1.6682242990654206
 31
0.0
  0
INSERT
  8
DIMENSIONS
  2
DIMTICK_ARROW
 10
10.637289719626168
 20
-5.755839955992565e-17
 30
0.0
 41
1.0
 42
1.0
 50
90.0
  0
INSERT
  8
DIMENSIONS
  2
DIMTICK_ARROW
 10
10.637289719626168
 20
3.336448598130841
 30
0.0
 41
1.0
 42
1.0
 50
270.0
  0
LINE
 62
7
  8
DIMENSIONS
 10
10.637289719626168
 20
-5.755839955992565e-17
 30
0.0
 11
10.637289719626168
 21
3.336448598130841
 31
0.0
  0
LINE
 62
5
  8
DIMENSIONS
 10
10.637289719626168
 20
-5.755839955992565e-17
 30
0.0
 11
10.467289719626168
 21
-3.673940397442057e-17
 31
0.0
  0
LINE
 62
5
  8
DIMENSIONS
 10
10.637289719626168
 20
3.336448598130841
 30
0.0
 11
10.467289719626168
 21
3.336448598130841
 31
0.0
  0
TEXT
 62
7
  8
DIMENSIONS
 10
10.337289719626167
 20
1.6682242990654206
 30
0.0
 40
0.2
  1
3
 50
90.0
  7
ISOCPEUR
 72
1
 73
2
 11
10.337289719626167
 21
1.6682242990654206
 31
0.0
  0
INSERT
  8
DIMENSIONS
  2
DIMTICK_ARROW
 10
10.637289719626168
 20
-5.755839955992565e-17
 30
0.0
 41
1.0
 42
1.0
 50
90.0
  0
INSERT
  8
DIMENSIONS
  2
DIMTICK_ARROW
 10
10.637289719626168
 20
3.336448598130841
 30
0.0
 41
1.0
 42
1.0
 50
270.0
  0
LINE
 62
7
  8
DIMENSIONS
 10
10.637289719626168
 20
-5.755839955992565e-17
 30
0.0
 11
10.637289719626168
 21
3.336448598130841
 31
0.0
  0
LINE
 62
5
  8
DIMENSIONS
 10
10.637289719626168
 20
-5.755839955992565e-17
 30
0.0
 11
10.467289719626168
 21
-3.673940397442057e-17
 31
0.0
  0
LINE
 62
5
  8
DIMENSIONS
 10
10.637289719626168
 20
3.336448598130841
 30
0.0
 11
10.467289719626168
 21
3.336448598130841
 31
0.0
  0
TEXT
 62
7
  8
DIMENSIONS
 10
10.337289719626167
 20
1.6682242990654206
 30
0.0
 40
0.2
  1
3
 50
90.0
  7
ISOCPEUR
 72
1
 73
2
 11
10.337289719626167
 21
1.6682242990654206
 31
0.0
  0
INSERT
  8
DIMENSIONS
  2
DIMTICK_ARROW
 10
10.637289719626168
 20
-5.755839955992565e-17
 30
0.0
 41
1.0
 42
1.0
 50
90.0
  0
INSERT
  8
DIMENSIONS
  2
DIMTICK_ARROW
 10
10.637289719626168
 20
3.336448598130841
 30
0.0
 41
1.0
 42
1.0
 50
270.0
  0
LINE
 62
7
  8
DIMENSIONS
 10
10.637289719626168
 20
-5.755839955992565e-17
 30
0.0
 11
10.637289719626168
 21
3.336448598130841
 31
0.0
  0
LINE
 62
5
  8
DIMENSIONS
 10
10.637289719626168
 20
-5.755839955992565e-17
 30
0.0
 11
10.467289719626168
 21
-3.673940397442057e-17
 31
0.0
  0
LINE
 62
5
  8
DIMENSIONS
 10
10.637289719626168
 20
3.336448598130841
 30
0.0
 11
10.467289719626168
 21
3.336448598130841
 31
0.0
  0
TEXT
 62
7
  8
DIMENSIONS
 10
10.337289719626167
 20
1.6682242990654206
 30
0.0
 40
0.2
  1
3
 50
90.0
  7
ISOCPEUR
 72
1
 73
2
 11
10.337289719626167
 21
1.6682242990654206
 31
0.0
  0
INSERT
  8
DIMENSIONS
  2
DIMTICK_ARROW
 10
10.637289719626168
 20
-5.755839955992565e-17
 30
0.0
 41
1.0
 42
1.0
 50
90.0
  0
INSERT
  8
DIMENSIONS
  2
DIMTICK_ARROW
 10
10.637289719626168
 20
3.336448598130841
 30
0.0
 41
1.0
 42
1.0
 50
270.0
  0
LINE
 62
7
  8
DIMENSIONS
 10
10.637289719626168
 20
-5.755839955992565e-17
 30
0.0
 11
10.637289719626168
 21
3.336448598130841
 31
0.0
  0
LINE
 62
5
  8
DIMENSIONS
 10
10.637289719626168
 20
-5.755839955992565e-17
 30
0.0
 11
10.467289719626168
 21
-3.673940397442057e-17
 31
0.0
  0
LINE
 62
5
  8
DIMENSIONS
 10
10.637289719626168
 20
3.336448598130841
 30
0.0
 11
10.467289719626168
 21
3.336448598130841
 31
0.0
  0
TEXT
 62
7
  8
DIMENSIONS
 10
10.337289719626167
 20
1.6682242990654206
 30
0.0
 40
0.2
  1
3
 50
90.0
  7
ISOCPEUR
 72
1
 73
2
 11
10.337289719626167
 21
1.6682242990654206
 31
0.0
  0
INSERT
  8
DIMENSIONS
  2
DIMTICK_ARROW
 10
10.637289719626168
 20
-5.755839955992565e-17
 30
0.0
 41
1.0
 42
1.0
 50
90.0
  0
INSERT
  8
DIMENSIONS
  2
DIMTICK_ARROW
 10
10.637289719626168
 20
3.336448598130841
 30
0.0
 41
1.0
 42
1.0
 50
270.0
  0
LINE
 62
3
  8
0
 10
0.0
 20
3.336448598130841
 30
0.0
 11
0.0
 21
0.0
 31
0.0
  0
LINE
 62
3
  8
0
 10
2.9439252336448596
 20
3.336448598130841
 30
0.0
 11
2.9439252336448596
 21
7.457943925233645
 31
0.0
  0
LINE
 62
7
  8
DIMENSIONS
 10
1.9439252336448596
 20
3.336448598130841
 30
0.0
 11
1.9439252336448596
 21
7.457943925233645
 31
0.0
  0
LINE
 62
5
  8
DIMENSIONS
 10
1.9439252336448596
 20
3.336448598130841
 30
0.0
 11
2.9439252336448596
 21
3.336448598130841
 31
0.0
  0
LINE
 62
5
  8
DIMENSIONS
 10
1.9439252336448596
 20
7.457943925233645
 30
0.0
 11
2.9439252336448596
 21
7.457943925233645
 31
0.0
  0
TEXT
 62
7
  8
DIMENSIONS
 10
1.6439252336448595
 20
5.397196261682243
 30
0.0
 40
0.2
  1
4
 50
90.0
  7
ISOCPEUR
 72
1
 73
2
 11
1.6439252336448595
 21
5.397196261682243
 31
0.0
  0
INSERT
  8
DIMENSIONS
  2
DIMTICK_ARROW
 10
1.9439252336448596
 20
3.336448598130841
 30
0.0
 41
1.0
 42
1.0
 50
90.0
  0
INSERT
  8
DIMENSIONS
  2
DIMTICK_ARROW
 10
1.9439252336448596
 20
7.457943925233645
 30
0.0
 41
1.0
 42
1.0
 50
270.0
  0
LINE
 62
7
  8
DIMENSIONS
 10
1.9439252336448596
 20
3.336448598130841
 30
0.0
 11
1.9439252336448596
 21
7.457943925233645
 31
0.0
  0
LINE
 62
5
  8
DIMENSIONS
 10
1.9439252336448596
 20
3.336448598130841
 30
0.0
 11
2.9439252336448596
 21
3.336448598130841
 31
0.0
  0
LINE
 62
5
  8
DIMENSIONS
 10
1.9439252336448596
 20
7.457943925233645
 30
0.0
 11
2.9439252336448596
 21
7.457943925233645
 31
0.0
  0
TEXT
 62
7
  8
DIMENSIONS
 10
1.6439252336448595
 20
5.397196261682243
 30
0.0
 40
0.2
  1
4
 50
90.0
  7
ISOCPEUR
 72
1
 73
2
 11
1.6439252336448595
 21
5.397196261682243
 31
0.0
  0
INSERT
  8
DIMENSIONS
  2
DIMTICK_ARROW
 10
1.9439252336448596
 20
3.336448598130841
 30
0.0
 41
1.0
 42
1.0
 50
90.0
  0
INSERT
  8
DIMENSIONS
  2
DIMTICK_ARROW
 10
1.9439252336448596
 20
7.457943925233645
 30
0.0
 41
1.0
 42
1.0
 50
270.0
  0
LINE
 62
7
  8
DIMENSIONS
 10
1.9439252336448596
 20
3.336448598130841
 30
0.0
 11
1.9439252336448596
 21
7.457943925233645
 31
0.0
  0
LINE
 62
5
  8
DIMENSIONS
 10
1.9439252336448596
 20
3.336448598130841
 30
0.0
 11
2.9439252336448596
 21
3.336448598130841
 31
0.0
  0
LINE
 62
5
  8
DIMENSIONS
 10
1.9439252336448596
 20
7.457943925233645
 30
0.0
 11
2.9439252336448596
 21
7.457943925233645
 31
0.0
  0
TEXT
 62
7
  8
DIMENSIONS
 10
1.6439252336448595
 20
5.397196261682243
 30
0.0
 40
0.2
  1
4
 50
90.0
  7
ISOCPEUR
 72
1
 73
2
 11
1.6439252336448595
 21
5.397196261682243
 31
0.0
  0
INSERT
  8
DIMENSIONS
  2
DIMTICK_ARROW
 10
1.9439252336448596
 20
3.336448598130841
 30
0.0
 41
1.0
 42
1.0
 50
90.0
  0
INSERT
  8
DIMENSIONS
  2
DIMTICK_ARROW
 10
1.9439252336448596
 20
7.457943925233645
 30
0.0
 41
1.0
 42
1.0
 50
270.0
  0
LINE
 62
7
  8
DIMENSIONS
 10
1.9439252336448596
 20
3.336448598130841
 30
0.0
 11
1.9439252336448596
 21
7.457943925233645
 31
0.0
  0
LINE
 62
5
  8
DIMENSIONS
 10
1.9439252336448596
 20
3.336448598130841
 30
0.0
 11
2.9439252336448596
 21
3.336448598130841
 31
0.0
  0
LINE
 62
5
  8
DIMENSIONS
 10
1.9439252336448596
 20
7.457943925233645
 30
0.0
 11
2.9439252336448596
 21
7.457943925233645
 31
0.0
  0
TEXT
 62
7
  8
DIMENSIONS
 10
1.6439252336448595
 20
5.397196261682243
 30
0.0
 40
0.2
  1
4
 50
90.0
  7
ISOCPEUR
 72
1
 73
2
 11
1.6439252336448595
 21
5.397196261682243
 31
0.0
  0
INSERT
  8
DIMENSIONS
  2
DIMTICK_ARROW
 10
1.9439252336448596
 20
3.336448598130841
 30
0.0
 41
1.0
 42
1.0
 50
90.0
  0
INSERT
  8
DIMENSIONS
  2
DIMTICK_ARROW
 10
1.9439252336448596
 20
7.457943925233645
 30
0.0
 41
1.0
 42
1.0
 50
270.0
  0
LINE
 62
7
  8
DIMENSIONS
 10
1.9439252336448596
 20
3.336448598130841
 30
0.0
 11
1.9439252336448596
 21
7.457943925233645
 31
0.0
  0
LINE
 62
5
  8
DIMENSIONS
 10
1.9439252336448596
 20
3.336448598130841
 30
0.0
 11
2.9439252336448596
 21
3.336448598130841
 31
0.0
  0
LINE
 62
5
  8
DIMENSIONS
 10
1.9439252336448596
 20
7.457943925233645
 30
0.0
 11
2.9439252336448596
 21
7.457943925233645
 31
0.0
  0
TEXT
 62
7
  8
DIMENSIONS
 10
1.6439252336448595
 20
5.397196261682243
 30
0.0
 40
0.2
  1
4
 50
90.0
  7
ISOCPEUR
 72
1
 73
2
 11
1.6439252336448595
 21
5.397196261682243
 31
0.0
  0
INSERT
  8
DIMENSIONS
  2
DIMTICK_ARROW
 10
1.9439252336448596
 20
3.336448598130841
 30
0.0
 41
1.0
 42
1.0
 50
90.0
  0
INSERT
  8
DIMENSIONS
  2
DIMTICK_ARROW
 10
1.9439252336448596
 20
7.457943925233645
 30
0.0
 41
1.0
 42
1.0
 50
270.0
  0
LINE
 62
7
  8
DIMENSIONS
 10
1.9439252336448596
 20
3.336448598130841
 30
0.0
 11
1.9439252336448596
 21
7.457943925233645
 31
0.0
  0
LINE
 62
5
  8
DIMENSIONS
 10
1.9439252336448596
 20
3.336448598130841
 30
0.0
 11
2.9439252336448596
 21
3.336448598130841
 31
0.0
  0
LINE
 62
5
  8
DIMENSIONS
 10
1.9439252336448596
 20
7.457943925233645
 30
0.0
 11
2.9439252336448596
 21
7.457943925233645
 31
0.0
  0
TEXT
 62
7
  8
DIMENSIONS
 10
1.6439252336448595
 20
5.397196261682243
 30
0.0
 40
0.2
  1
4
 50
90.0
  7
ISOCPEUR
 72
1
 73
2
 11
1.6439252336448595
 21
5.397196261682243
 31
0.0
  0
INSERT
  8
DIMENSIONS
  2
DIMTICK_ARROW
 10
1.9439252336448596
 20
3.336448598130841
 30
0.0
 41
1.0
 42
1.0
 50
90.0
  0
INSERT
  8
DIMENSIONS
  2
DIMTICK_ARROW
 10
1.9439252336448596
 20
7.457943925233645
 30
0.0
 41
1.0
 42
1.0
 50
270.0
  0
LINE
 62
7
  8
DIMENSIONS
 10
1.9439252336448596
 20
3.336448598130841
 30
0.0
 11
1.9439252336448596
 21
7.457943925233645
 31
0.0
  0
LINE
 62
5
  8
DIMENSIONS
 10
1.9439252336448596
 20
3.336448598130841
 30
0.0
 11
2.9439252336448596
 21
3.336448598130841
 31
0.0
  0
LINE
 62
5
  8
DIMENSIONS
 10
1.9439252336448596
 20
7.457943925233645
 30
0.0
 11
2.9439252336448596
 21
7.457943925233645
 31
0.0
  0
TEXT
 62
7
  8
DIMENSIONS
 10
1.6439252336448595
 20
5.397196261682243
 30
0.0
 40
0.2
  1
4
 50
90.0
  7
ISOCPEUR
 72
1
 73
2
 11
1.6439252336448595
 21
5.397196261682243
 31
0.0
  0
INSERT
  8
DIMENSIONS
  2
DIMTICK_ARROW
 10
1.9439252336448596
 20
3.336448598130841
 30
0.0
 41
1.0
 42
1.0
 50
90.0
  0
INSERT
  8
DIMENSIONS
  2
DIMTICK_ARROW
 10
1.9439252336448596
 20
7.457943925233645
 30
0.0
 41
1.0
 42
1.0
 50
270.0
  0
LINE
 62
7
  8
DIMENSIONS
 10
1.9439252336448596
 20
3.336448598130841
 30
0.0
 11
1.9439252336448596
 21
7.457943925233645
 31
0.0
  0
LINE
 62
5
  8
DIMENSIONS
 10
1.9439252336448596
 20
3.336448598130841
 30
0.0
 11
2.9439252336448596
 21
3.336448598130841
 31
0.0
  0
LINE
 62
5
  8
DIMENSIONS
 10
1.9439252336448596
 20
7.457943925233645
 30
0.0
 11
2.9439252336448596
 21
7.457943925233645
 31
0.0
  0
TEXT
 62
7
  8
DIMENSIONS
 10
1.6439252336448595
 20
5.397196261682243
 30
0.0
 40
0.2
  1
4
 50
90.0
  7
ISOCPEUR
 72
1
 73
2
 11
1.6439252336448595
 21
5.397196261682243
 31
0.0
  0
INSERT
  8
DIMENSIONS
  2
DIMTICK_ARROW
 10
1.9439252336448596
 20
3.336448598130841
 30
0.0
 41
1.0
 42
1.0
 50
90.0
  0
INSERT
  8
DIMENSIONS
  2
DIMTICK_ARROW
 10
1.9439252336448596
 20
7.457943925233645
 30
0.0
 41
1.0
 42
1.0
 50
270.0
  0
LINE
 62
7
  8
DIMENSIONS
 10
1.9439252336448596
 20
3.336448598130841
 30
0.0
 11
1.9439252336448596
 21
7.457943925233645
 31
0.0
  0
LINE
 62
5
  8
DIMENSIONS
 10
1.9439252336448596
 20
3.336448598130841
 30
0.0
 11
2.9439252336448596
 21
3.336448598130841
 31
0.0
  0
LINE
 62
5
  8
DIMENSIONS
 10
1.9439252336448596
 20
7.457943925233645
 30
0.0
 11
2.9439252336448596
 21
7.457943925233645
 31
0.0
  0
TEXT
 62
7
  8
DIMENSIONS
 10
1.6439252336448595
 20
5.397196261682243
 30
0.0
 40
0.2
  1
4
 50
90.0
  7
ISOCPEUR
 72
1
 73
2
 11
1.6439252336448595
 21
5.397196261682243
 31
0.0
  0
INSERT
  8
DIMENSIONS
  2
DIMTICK_ARROW
 10
1.9439252336448596
 20
3.336448598130841
 30
0.0
 41
1.0
 42
1.0
 50
90.0
  0
INSERT
  8
DIMENSIONS
  2
DIMTICK_ARROW
 10
1.9439252336448596
 20
7.457943925233645
 30
0.0
 41
1.0
 42
1.0
 50
270.0
  0
LINE
 62
7
  8
DIMENSIONS
 10
1.9439252336448596
 20
3.336448598130841
 30
0.0
 11
1.9439252336448596
 21
7.457943925233645
 31
0.0
  0
LINE
 62
5
  8
DIMENSIONS
 10
1.9439252336448596
 20
3.336448598130841
 30
0.0
 11
2.9439252336448596
 21
3.336448598130841
 31
0.0
  0
LINE
 62
5
  8
DIMENSIONS
 10
1.9439252336448596
 20
7.457943925233645
 30
0.0
 11
2.9439252336448596
 21
7.457943925233645
 31
0.0
  0
TEXT
 62
7
  8
DIMENSIONS
 10
1.6439252336448595
 20
5.397196261682243
 30
0.0
 40
0.2
  1
4
 50
90.0
  7
ISOCPEUR
 72
1
 73
2
 11
1.6439252336448595
 21
5.397196261682243
 31
0.0
  0
INSERT
  8
DIMENSIONS
  2
DIMTICK_ARROW
 10
1.9439252336448596
 20
3.336448598130841
 30
0.0
 41
1.0
 42
1.0
 50
90.0
  0
INSERT
  8
DIMENSIONS
  2
DIMTICK_ARROW
 10
1.9439252336448596
 20
7.457943925233645
 30
0.0
 41
1.0
 42
1.0
 50
270.0
  0
LINE
 62
7
  8
DIMENSIONS
 10
1.9439252336448596
 20
3.336448598130841
 30
0.0
 11
1.9439252336448596
 21
7.457943925233645
 31
0.0
  0
LINE
 62
5
  8
DIMENSIONS
 10
1.9439252336448596
 20
3.336448598130841
 30
0.0
 11
2.9439252336448596
 21
3.336448598130841
 31
0.0
  0
LINE
 62
5
  8
DIMENSIONS
 10
1.9439252336448596
 20
7.457943925233645
 30
0.0
 11
2.9439252336448596
 21
7.457943925233645
 31
0.0
  0
TEXT
 62
7
  8
DIMENSIONS
 10
1.6439252336448595
 20
5.397196261682243
 30
0.0
 40
0.2
  1
4
 50
90.0
  7
ISOCPEUR
 72
1
 73
2
 11
1.6439252336448595
 21
5.397196261682243
 31
0.0
  0
INSERT
  8
DIMENSIONS
  2
DIMTICK_ARROW
 10
1.9439252336448596
 20
3.336448598130841
 30
0.0
 41
1.0
 42
1.0
 50
90.0
  0
INSERT
  8
DIMENSIONS
  2
DIMTICK_ARROW
 10
1.9439252336448596
 20
7.457943925233645
 30
0.0
 41
1.0
 42
1.0
 50
270.0
  0
LINE
 62
7
  8
DIMENSIONS
 10
1.9439252336448596
 20
3.336448598130841
 30
0.0
 11
1.9439252336448596
 21
7.457943925233645
 31
0.0
  0
LINE
 62
5
  8
DIMENSIONS
 10
1.9439252336448596
 20
3.336448598130841
 30
0.0
 11
2.9439252336448596
 21
3.336448598130841
 31
0.0
  0
LINE
 62
5
  8
DIMENSIONS
 10
1.9439252336448596
 20
7.457943925233645
 30
0.0
 11
2.9439252336448596
 21
7.457943925233645
 31
0.0
  0
TEXT
 62
7
  8
DIMENSIONS
 10
1.6439252336448595
 20
5.397196261682243
 30
0.0
 40
0.2
  1
4
 50
90.0
  7
ISOCPEUR
 72
1
 73
2
 11
1.6439252336448595
 21
5.397196261682243
 31
0.0
  0
INSERT
  8
DIMENSIONS
  2
DIMTICK_ARROW
 10
1.9439252336448596
 20
3.336448598130841
 30
0.0
 41
1.0
 42
1.0
 50
90.0
  0
INSERT
  8
DIMENSIONS
  2
DIMTICK_ARROW
 10
1.9439252336448596
 20
7.457943925233645
 30
0.0
 41
1.0
 42
1.0
 50
270.0
  0
LINE
 62
7
  8
DIMENSIONS
 10
1.9439252336448596
 20
3.336448598130841
 30
0.0
 11
1.9439252336448596
 21
7.457943925233645
 31
0.0
  0
LINE
 62
5
  8
DIMENSIONS
 10
1.9439252336448596
 20
3.336448598130841
 30
0.0
 11
2.9439252336448596
 21
3.336448598130841
 31
0.0
  0
LINE
 62
5
  8
DIMENSIONS
 10
1.9439252336448596
 20
7.457943925233645
 30
0.0
 11
2.9439252336448596
 21
7.457943925233645
 31
0.0
  0
TEXT
 62
7
  8
DIMENSIONS
 10
1.6439252336448595
 20
5.397196261682243
 30
0.0
 40
0.2
  1
4
 50
90.0
  7
ISOCPEUR
 72
1
 73
2
 11
1.6439252336448595
 21
5.397196261682243
 31
0.0
  0
INSERT
  8
DIMENSIONS
  2
DIMTICK_ARROW
 10
1.9439252336448596
 20
3.336448598130841
 30
0.0
 41
1.0
 42
1.0
 50
90.0
  0
INSERT
  8
DIMENSIONS
  2
DIMTICK_ARROW
 10
1.9439252336448596
 20
7.457943925233645
 30
0.0
 41
1.0
 42
1.0
 50
270.0
  0
LINE
 62
7
  8
DIMENSIONS
 10
1.9439252336448596
 20
3.336448598130841
 30
0.0
 11
1.9439252336448596
 21
7.457943925233645
 31
0.0
  0
LINE
 62
5
  8
DIMENSIONS
 10
1.9439252336448596
 20
3.336448598130841
 30
0.0
 11
2.9439252336448596
 21
3.336448598130841
 31
0.0
  0
LINE
 62
5
  8
DIMENSIONS
 10
1.9439252336448596
 20
7.457943925233645
 30
0.0
 11
2.9439252336448596
 21
7.457943925233645
 31
0.0
  0
TEXT
 62
7
  8
DIMENSIONS
 10
1.6439252336448595
 20
5.397196261682243
 30
0.0
 40
0.2
  1
4
 50
90.0
  7
ISOCPEUR
 72
1
 73
2
 11
1.6439252336448595
 21
5.397196261682243
 31
0.0
  0
INSERT
  8
DIMENSIONS
  2
DIMTICK_ARROW
 10
1.9439252336448596
 20
3.336448598130841
 30
0.0
 41
1.0
 42
1.0
 50
90.0
  0
INSERT
  8
DIMENSIONS
  2
DIMTICK_ARROW
 10
1.9439252336448596
 20
7.457943925233645
 30
0.0
 41
1.0
 42
1.0
 50
270.0
  0
LINE
 62
7
  8
DIMENSIONS
 10
1.9439252336448596
 20
3.336448598130841
 30
0.0
 11
1.9439252336448596
 21
7.457943925233645
 31
0.0
  0
LINE
 62
5
  8
DIMENSIONS
 10
1.9439252336448596
 20
3.336448598130841
 30
0.0
 11
2.9439252336448596
 21
3.336448598130841
 31
0.0
  0
LINE
 62
5
  8
DIMENSIONS
 10
1.9439252336448596
 20
7.457943925233645
 30
0.0
 11
2.9439252336448596
 21
7.457943925233645
 31
0.0
  0
TEXT
 62
7
  8
DIMENSIONS
 10
1.6439252336448595
 20
5.397196261682243
 30
0.0
 40
0.2
  1
4
 50
90.0
  7
ISOCPEUR
 72
1
 73
2
 11
1.6439252336448595
 21
5.397196261682243
 31
0.0
  0
INSERT
  8
DIMENSIONS
  2
DIMTICK_ARROW
 10
1.9439252336448596
 20
3.336448598130841
 30
0.0
 41
1.0
 42
1.0
 50
90.0
  0
INSERT
  8
DIMENSIONS
  2
DIMTICK_ARROW
 10
1.9439252336448596
 20
7.457943925233645
 30
0.0
 41
1.0
 42
1.0
 50
270.0
  0
LINE
 62
3
  8
0
 10
6.5420560747663545
 20
3.336448598130841
 30
0.0
 11
6.5420560747663545
 21
10.401869158878505
 31
0.0
  0
LINE
 62
7
  8
DIMENSIONS
 10
5.5420560747663545
 20
3.336448598130841
 30
0.0
 11
5.5420560747663545
 21
10.401869158878505
 31
0.0
  0
LINE
 62
5
  8
DIMENSIONS
 10
5.5420560747663545
 20
3.336448598130841
 30
0.0
 11
6.5420560747663545
 21
3.336448598130841
 31
0.0
  0
LINE
 62
5
  8
DIMENSIONS
 10
5.5420560747663545
 20
10.401869158878505
 30
0.0
 11
6.5420560747663545
 21
10.401869158878505
 31
0.0
  0
TEXT
 62
7
  8
DIMENSIONS
 10
5.242056074766355
 20
6.869158878504673
 30
0.0
 40
0.2
  1
7
 50
90.0
  7
ISOCPEUR
 72
1
 73
2
 11
5.242056074766355
 21
6.869158878504673
 31
0.0
  0
INSERT
  8
DIMENSIONS
  2
DIMTICK_ARROW
 10
5.5420560747663545
 20
3.336448598130841
 30
0.0
 41
1.0
 42
1.0
 50
90.0
  0
INSERT
  8
DIMENSIONS
  2
DIMTICK_ARROW
 10
5.5420560747663545
 20
10.401869158878505
 30
0.0
 41
1.0
 42
1.0
 50
270.0
  0
LINE
 62
7
  8
DIMENSIONS
 10
5.5420560747663545
 20
3.336448598130841
 30
0.0
 11
5.5420560747663545
 21
10.401869158878505
 31
0.0
  0
LINE
 62
5
  8
DIMENSIONS
 10
5.5420560747663545
 20
3.336448598130841
 30
0.0
 11
6.5420560747663545
 21
3.336448598130841
 31
0.0
  0
LINE
 62
5
  8
DIMENSIONS
 10
5.5420560747663545
 20
10.401869158878505
 30
0.0
 11
6.5420560747663545
 21
10.401869158878505
 31
0.0
  0
TEXT
 62
7
  8
DIMENSIONS
 10
5.242056074766355
 20
6.869158878504673
 30
0.0
 40
0.2
  1
7
 50
90.0
  7
ISOCPEUR
 72
1
 73
2
 11
5.242056074766355
 21
6.869158878504673
 31
0.0
  0
INSERT
  8
DIMENSIONS
  2
DIMTICK_ARROW
 10
5.5420560747663545
 20
3.336448598130841
 30
0.0
 41
1.0
 42
1.0
 50
90.0
  0
INSERT
  8
DIMENSIONS
  2
DIMTICK_ARROW
 10
5.5420560747663545
 20
10.401869158878505
 30
0.0
 41
1.0
 42
1.0
 50
270.0
  0
LINE
 62
7
  8
DIMENSIONS
 10
5.5420560747663545
 20
3.336448598130841
 30
0.0
 11
5.5420560747663545
 21
10.401869158878505
 31
0.0
  0
LINE
 62
5
  8
DIMENSIONS
 10
5.5420560747663545
 20
3.336448598130841
 30
0.0
 11
6.5420560747663545
 21
3.336448598130841
 31
0.0
  0
LINE
 62
5
  8
DIMENSIONS
 10
5.5420560747663545
 20
10.401869158878505
 30
0.0
 11
6.5420560747663545
 21
10.401869158878505
 31
0.0
  0
TEXT
 62
7
  8
DIMENSIONS
 10
5.242056074766355
 20
6.869158878504673
 30
0.0
 40
0.2
  1
7
 50
90.0
  7
ISOCPEUR
 72
1
 73
2
 11
5.242056074766355
 21
6.869158878504673
 31
0.0
  0
INSERT
  8
DIMENSIONS
  2
DIMTICK_ARROW
 10
5.5420560747663545
 20
3.336448598130841
 30
0.0
 41
1.0
 42
1.0
 50
90.0
  0
INSERT
  8
DIMENSIONS
  2
DIMTICK_ARROW
 10
5.5420560747663545
 20
10.401869158878505
 30
0.0
 41
1.0
 42
1.0
 50
270.0
  0
LINE
 62
7
  8
DIMENSIONS
 10
5.5420560747663545
 20
3.336448598130841
 30
0.0
 11
5.5420560747663545
 21
10.401869158878505
 31
0.0
  0
LINE
 62
5
  8
DIMENSIONS
 10
5.5420560747663545
 20
3.336448598130841
 30
0.0
 11
6.5420560747663545
 21
3.336448598130841
 31
0.0
  0
LINE
 62
5
  8
DIMENSIONS
 10
5.5420560747663545
 20
10.401869158878505
 30
0.0
 11
6.5420560747663545
 21
10.401869158878505
 31
0.0
  0
TEXT
 62
7
  8
DIMENSIONS
 10
5.242056074766355
 20
6.869158878504673
 30
0.0
 40
0.2
  1
7
 50
90.0
  7
ISOCPEUR
 72
1
 73
2
 11
5.242056074766355
 21
6.869158878504673
 31
0.0
  0
INSERT
  8
DIMENSIONS
  2
DIMTICK_ARROW
 10
5.5420560747663545
 20
3.336448598130841
 30
0.0
 41
1.0
 42
1.0
 50
90.0
  0
INSERT
  8
DIMENSIONS
  2
DIMTICK_ARROW
 10
5.5420560747663545
 20
10.401869158878505
 30
0.0
 41
1.0
 42
1.0
 50
270.0
  0
LINE
 62
7
  8
DIMENSIONS
 10
5.5420560747663545
 20
3.336448598130841
 30
0.0
 11
5.5420560747663545
 21
10.401869158878505
 31
0.0
  0
LINE
 62
5
  8
DIMENSIONS
 10
5.5420560747663545
 20
3.336448598130841
 30
0.0
 11
6.5420560747663545
 21
3.336448598130841
 31
0.0
  0
LINE
 62
5
  8
DIMENSIONS
 10
5.5420560747663545
 20
10.401869158878505
 30
0.0
 11
6.5420560747663545
 21
10.401869158878505
 31
0.0
  0
TEXT
 62
7
  8
DIMENSIONS
 10
5.242056074766355
 20
6.869158878504673
 30
0.0
 40
0.2
  1
7
 50
90.0
  7
ISOCPEUR
 72
1
 73
2
 11
5.242056074766355
 21
6.869158878504673
 31
0.0
  0
INSERT
  8
DIMENSIONS
  2
DIMTICK_ARROW
 10
5.5420560747663545
 20
3.336448598130841
 30
0.0
 41
1.0
 42
1.0
 50
90.0
  0
INSERT
  8
DIMENSIONS
  2
DIMTICK_ARROW
 10
5.5420560747663545
 20
10.401869158878505
 30
0.0
 41
1.0
 42
1.0
 50
270.0
  0
LINE
 62
7
  8
DIMENSIONS
 10
5.5420560747663545
 20
3.336448598130841
 30
0.0
 11
5.5420560747663545
 21
10.401869158878505
 31
0.0
  0
LINE
 62
5
  8
DIMENSIONS
 10
5.5420560747663545
 20
3.336448598130841
 30
0.0
 11
6.5420560747663545
 21
3.336448598130841
 31
0.0
  0
LINE
 62
5
  8
DIMENSIONS
 10
5.5420560747663545
 20
10.401869158878505
 30
0.0
 11
6.5420560747663545
 21
10.401869158878505
 31
0.0
  0
TEXT
 62
7
  8
DIMENSIONS
 10
5.242056074766355
 20
6.869158878504673
 30
0.0
 40
0.2
  1
7
 50
90.0
  7
ISOCPEUR
 72
1
 73
2
 11
5.242056074766355
 21
6.869158878504673
 31
0.0
  0
INSERT
  8
DIMENSIONS
  2
DIMTICK_ARROW
 10
5.5420560747663545
 20
3.336448598130841
 30
0.0
 41
1.0
 42
1.0
 50
90.0
  0
INSERT
  8
DIMENSIONS
  2
DIMTICK_ARROW
 10
5.5420560747663545
 20
10.401869158878505
 30
0.0
 41
1.0
 42
1.0
 50
270.0
  0
LINE
 62
7
  8
DIMENSIONS
 10
5.5420560747663545
 20
3.336448598130841
 30
0.0
 11
5.5420560747663545
 21
10.401869158878505
 31
0.0
  0
LINE
 62
5
  8
DIMENSIONS
 10
5.5420560747663545
 20
3.336448598130841
 30
0.0
 11
6.5420560747663545
 21
3.336448598130841
 31
0.0
  0
LINE
 62
5
  8
DIMENSIONS
 10
5.5420560747663545
 20
10.401869158878505
 30
0.0
 11
6.5420560747663545
 21
10.401869158878505
 31
0.0
  0
TEXT
 62
7
  8
DIMENSIONS
 10
5.242056074766355
 20
6.869158878504673
 30
0.0
 40
0.2
  1
7
 50
90.0
  7
ISOCPEUR
 72
1
 73
2
 11
5.242056074766355
 21
6.869158878504673
 31
0.0
  0
INSERT
  8
DIMENSIONS
  2
DIMTICK_ARROW
 10
5.5420560747663545
 20
3.336448598130841
 30
0.0
 41
1.0
 42
1.0
 50
90.0
  0
INSERT
  8
DIMENSIONS
  2
DIMTICK_ARROW
 10
5.5420560747663545
 20
10.401869158878505
 30
0.0
 41
1.0
 42
1.0
 50
270.0
  0
LINE
 62
7
  8
DIMENSIONS
 10
5.5420560747663545
 20
3.336448598130841
 30
0.0
 11
5.5420560747663545
 21
10.401869158878505
 31
0.0
  0
LINE
 62
5
  8
DIMENSIONS
 10
5.5420560747663545
 20
3.336448598130841
 30
0.0
 11
6.5420560747663545
 21
3.336448598130841
 31
0.0
  0
LINE
 62
5
  8
DIMENSIONS
 10
5.5420560747663545
 20
10.401869158878505
 30
0.0
 11
6.5420560747663545
 21
10.401869158878505
 31
0.0
  0
TEXT
 62
7
  8
DIMENSIONS
 10
5.242056074766355
 20
6.869158878504673
 30
0.0
 40
0.2
  1
7
 50
90.0
  7
ISOCPEUR
 72
1
 73
2
 11
5.242056074766355
 21
6.869158878504673
 31
0.0
  0
INSERT
  8
DIMENSIONS
  2
DIMTICK_ARROW
 10
5.5420560747663545
 20
3.336448598130841
 30
0.0
 41
1.0
 42
1.0
 50
90.0
  0
INSERT
  8
DIMENSIONS
  2
DIMTICK_ARROW
 10
5.5420560747663545
 20
10.401869158878505
 30
0.0
 41
1.0
 42
1.0
 50
270.0
  0
LINE
 62
7
  8
DIMENSIONS
 10
5.5420560747663545
 20
3.336448598130841
 30
0.0
 11
5.5420560747663545
 21
10.401869158878505
 31
0.0
  0
LINE
 62
5
  8
DIMENSIONS
 10
5.5420560747663545
 20
3.336448598130841
 30
0.0
 11
6.5420560747663545
 21
3.336448598130841
 31
0.0
  0
LINE
 62
5
  8
DIMENSIONS
 10
5.5420560747663545
 20
10.401869158878505
 30
0.0
 11
6.5420560747663545
 21
10.401869158878505
 31
0.0
  0
TEXT
 62
7
  8
DIMENSIONS
 10
5.242056074766355
 20
6.869158878504673
 30
0.0
 40
0.2
  1
7
 50
90.0
  7
ISOCPEUR
 72
1
 73
2
 11
5.242056074766355
 21
6.869158878504673
 31
0.0
  0
INSERT
  8
DIMENSIONS
  2
DIMTICK_ARROW
 10
5.5420560747663545
 20
3.336448598130841
 30
0.0
 41
1.0
 42
1.0
 50
90.0
  0
INSERT
  8
DIMENSIONS
  2
DIMTICK_ARROW
 10
5.5420560747663545
 20
10.401869158878505
 30
0.0
 41
1.0
 42
1.0
 50
270.0
  0
LINE
 62
7
  8
DIMENSIONS
 10
5.5420560747663545
 20
3.336448598130841
 30
0.0
 11
5.5420560747663545
 21
10.401869158878505
 31
0.0
  0
LINE
 62
5
  8
DIMENSIONS
 10
5.5420560747663545
 20
3.336448598130841
 30
0.0
 11
6.5420560747663545
 21
3.336448598130841
 31
0.0
  0
LINE
 62
5
  8
DIMENSIONS
 10
5.5420560747663545
 20
10.401869158878505
 30
0.0
 11
6.5420560747663545
 21
10.401869158878505
 31
0.0
  0
TEXT
 62
7
  8
DIMENSIONS
 10
5.242056074766355
 20
6.869158878504673
 30
0.0
 40
0.2
  1
7
 50
90.0
  7
ISOCPEUR
 72
1
 73
2
 11
5.242056074766355
 21
6.869158878504673
 31
0.0
  0
INSERT
  8
DIMENSIONS
  2
DIMTICK_ARROW
 10
5.5420560747663545
 20
3.336448598130841
 30
0.0
 41
1.0
 42
1.0
 50
90.0
  0
INSERT
  8
DIMENSIONS
  2
DIMTICK_ARROW
 10
5.5420560747663545
 20
10.401869158878505
 30
0.0
 41
1.0
 42
1.0
 50
270.0
  0
LINE
 62
7
  8
DIMENSIONS
 10
5.5420560747663545
 20
3.336448598130841
 30
0.0
 11
5.5420560747663545
 21
10.401869158878505
 31
0.0
  0
LINE
 62
5
  8
DIMENSIONS
 10
5.5420560747663545
 20
3.336448598130841
 30
0.0
 11
6.5420560747663545
 21
3.336448598130841
 31
0.0
  0
LINE
 62
5
  8
DIMENSIONS
 10
5.5420560747663545
 20
10.401869158878505
 30
0.0
 11
6.5420560747663545
 21
10.401869158878505
 31
0.0
  0
TEXT
 62
7
  8
DIMENSIONS
 10
5.242056074766355
 20
6.869158878504673
 30
0.0
 40
0.2
  1
7
 50
90.0
  7
ISOCPEUR
 72
1
 73
2
 11
5.242056074766355
 21
6.869158878504673
 31
0.0
  0
INSERT
  8
DIMENSIONS
  2
DIMTICK_ARROW
 10
5.5420560747663545
 20
3.336448598130841
 30
0.0
 41
1.0
 42
1.0
 50
90.0
  0
INSERT
  8
DIMENSIONS
  2
DIMTICK_ARROW
 10
5.5420560747663545
 20
10.401869158878505
 30
0.0
 41
1.0
 42
1.0
 50
270.0
  0
LINE
 62
7
  8
DIMENSIONS
 10
5.5420560747663545
 20
3.336448598130841
 30
0.0
 11
5.5420560747663545
 21
10.401869158878505
 31
0.0
  0
LINE
 62
5
  8
DIMENSIONS
 10
5.5420560747663545
 20
3.336448598130841
 30
0.0
 11
6.5420560747663545
 21
3.336448598130841
 31
0.0
  0
LINE
 62
5
  8
DIMENSIONS
 10
5.5420560747663545
 20
10.401869158878505
 30
0.0
 11
6.5420560747663545
 21
10.401869158878505
 31
0.0
  0
TEXT
 62
7
  8
DIMENSIONS
 10
5.242056074766355
 20
6.869158878504673
 30
0.0
 40
0.2
  1
7
 50
90.0
  7
ISOCPEUR
 72
1
 73
2
 11
5.242056074766355
 21
6.869158878504673
 31
0.0
  0
INSERT
  8
DIMENSIONS
  2
DIMTICK_ARROW
 10
5.5420560747663545
 20
3.336448598130841
 30
0.0
 41
1.0
 42
1.0
 50
90.0
  0
INSERT
  8
DIMENSIONS
  2
DIMTICK_ARROW
 10
5.5420560747663545
 20
10.401869158878505
 30
0.0
 41
1.0
 42
1.0
 50
270.0
  0
LINE
 62
7
  8
DIMENSIONS
 10
5.5420560747663545
 20
3.336448598130841
 30
0.0
 11
5.5420560747663545
 21
10.401869158878505
 31
0.0
  0
LINE
 62
5
  8
DIMENSIONS
 10
5.5420560747663545
 20
3.336448598130841
 30
0.0
 11
6.5420560747663545
 21
3.336448598130841
 31
0.0
  0
LINE
 62
5
  8
DIMENSIONS
 10
5.5420560747663545
 20
10.401869158878505
 30
0.0
 11
6.5420560747663545
 21
10.401869158878505
 31
0.0
  0
TEXT
 62
7
  8
DIMENSIONS
 10
5.242056074766355
 20
6.869158878504673
 30
0.0
 40
0.2
  1
7
 50
90.0
  7
ISOCPEUR
 72
1
 73
2
 11
5.242056074766355
 21
6.869158878504673
 31
0.0
  0
INSERT
  8
DIMENSIONS
  2
DIMTICK_ARROW
 10
5.5420560747663545
 20
3.336448598130841
 30
0.0
 41
1.0
 42
1.0
 50
90.0
  0
INSERT
  8
DIMENSIONS
  2
DIMTICK_ARROW
 10
5.5420560747663545
 20
10.401869158878505
 30
0.0
 41
1.0
 42
1.0
 50
270.0
  0
LINE
 62
7
  8
DIMENSIONS
 10
5.5420560747663545
 20
3.336448598130841
 30
0.0
 11
5.5420560747663545
 21
10.401869158878505
 31
0.0
  0
LINE
 62
5
  8
DIMENSIONS
 10
5.5420560747663545
 20
3.336448598130841
 30
0.0
 11
6.5420560747663545
 21
3.336448598130841
 31
0.0
  0
LINE
 62
5
  8
DIMENSIONS
 10
5.5420560747663545
 20
10.401869158878505
 30
0.0
 11
6.5420560747663545
 21
10.401869158878505
 31
0.0
  0
TEXT
 62
7
  8
DIMENSIONS
 10
5.242056074766355
 20
6.869158878504673
 30
0.0
 40
0.2
  1
7
 50
90.0
  7
ISOCPEUR
 72
1
 73
2
 11
5.242056074766355
 21
6.869158878504673
 31
0.0
  0
INSERT
  8
DIMENSIONS
  2
DIMTICK_ARROW
 10
5.5420560747663545
 20
3.336448598130841
 30
0.0
 41
1.0
 42
1.0
 50
90.0
  0
INSERT
  8
DIMENSIONS
  2
DIMTICK_ARROW
 10
5.5420560747663545
 20
10.401869158878505
 30
0.0
 41
1.0
 42
1.0
 50
270.0
  0
LINE
 62
3
  8
0
 10
0.0
 20
10.401869158878505
 30
0.0
 11
0.0
 21
13.345794392523365
 31
0.0
  0
LINE
 62
3
  8
0
 10
10.467289719626168
 20
10.401869158878505
 30
0.0
 11
10.467289719626168
 21
13.345794392523365
 31
0.0
  0
LINE
 62
3
  8
0
 10
0.0
 20
3.336448598130841
 30
0.0
 11
0.0
 21
0.0
 31
0.0
  0
LINE
 62
3
  8
0
 10
10.467289719626168
 20
0.0
 30
0.0
 11
10.467289719626168
 21
3.336448598130841
 31
0.0
  0
LINE
 62
3
  8
0
 10
2.9439252336448596
 20
3.336448598130841
 30
0.0
 11
2.9439252336448596
 21
7.457943925233645
 31
0.0
  0
LINE
 62
3
  8
0
 10
6.5420560747663545
 20
3.336448598130841
 30
0.0
 11
6.5420560747663545
 21
10.401869158878505
 31
0.0
  0
LINE
 62
3
  8
0
 10
0.0
 20
10.401869158878505
 30
0.0
 11
2.9439252336448596
 21
10.401869158878505
 31
0.0
  0
LINE
 62
3
  8
0
 10
0.0
 20
3.336448598130841
 30
0.0
 11
2.9439252336448596
 21
3.336448598130841
 31
0.0
  0
LINE
 62
3
  8
0
 10
6.5420560747663545
 20
10.401869158878505
 30
0.0
 11
10.467289719626168
 21
10.401869158878505
 31
0.0
  0
LINE
 62
3
  8
0
 10
6.5420560747663545
 20
3.336448598130841
 30
0.0
 11
10.467289719626168
 21
3.336448598130841
 31
0.0
  0
LINE
 62
3
  8
0
 10
0.0
 20
0.0
 30
0.0
 11
10.467289719626168
 21
0.0
 31
0.0
  0
LINE
 62
3
  8
0
 10
0.0
 20
13.345794392523365
 30
0.0
 11
10.467289719626168
 21
13.345794392523365
 31
0.0
  0
CIRCLE
 62
3
  8
0
 10
0.32710280373831774
 20
-0.6542056074766355
 30
0.0
 40
0.2616822429906542
  0
LINE
 62
7
  8
DIMENSIONS
 10
0.5334002276421982
 20
-1.3631163798633539
 30
0.0
 11
0.2539847294432715
 21
-0.4029460932129884
 31
0.0
  0
TEXT
 62
7
  8
DIMENSIONS
 10
0.5892833272819835
 20
-1.5551504371934273
 30
0.0
 40
0.2
  1
R=26
 50
106.22532292150613
  7
ISOCPEUR
 72
2
 73
2
 11
0.5892833272819835
 21
-1.5551504371934273
 31
0.0
  0
INSERT
  8
DIMENSIONS
  2
DIMTICK_RADIUS
 10
0.2539847294432715
 20
-0.4029460932129884
 30
0.0
 41
1.0
 42
1.0
 50
286.2253229215062
  0
ENDSEC
  0
EOF
